<?xml version="1.0" encoding="utf-8"?>
<!-- Generator: Adobe Illustrator 26.3.1, SVG Export Plug-In . SVG Version: 6.00 Build 0)  -->
<svg version="1.1" id="Layer_1" xmlns="http://www.w3.org/2000/svg" xmlns:xlink="http://www.w3.org/1999/xlink" x="0px" y="0px"
	 viewBox="0 0 738.4 2340" style="enable-background:new 0 0 738.4 2340;" xml:space="preserve">
<style type="text/css">
	.st0{fill:#FFFFFF;}
</style>
<path class="st0" d="M735.2,702.1c-0.5-21.3-1.1-43.4-1.7-65.2c-0.6-22.4-1.3-46.3-2.2-70.4c-0.4-11.5-0.9-22.9-2.2-34.2l-0.2-2.1
	c-2.8-25.1-5.8-51.1-9.5-76.5c-1-7.2-2-14.5-3-21.6c-3.8-28-7.7-56.9-16.2-84.4c-12.1-39.4-25.2-77.8-36.4-110.2
	c-8.8-25.5-20.5-51.2-34.9-76.4c-15.1-26.5-35.5-50.4-66.1-77.4C512.4,39.2,459.9,13.8,402.2,6c-34.5-4.7-65.4-4.3-94.3,1.2
	C274.5,13.6,243,26,214.5,44.3c-27,17.2-52.3,40.3-75.2,68.4c-37.6,46.1-66.2,101.6-87.5,169.6c-11.9,37.8-19.4,77.1-26,111.8
	C12,466.6,4.6,531.7,3,593c-0.9,36-0.4,71.8,0.6,114.5c1.1,44.4,2.8,89.6,4.5,133.2l0.6,15.8c0.5,13.6,1.5,27.4,2.4,40.8
	c0.3,4,0.5,7.9,0.8,11.9c0.9,14,1.9,28,2.9,42c0.9,13,1.8,26,2.7,39c0.7,10.5,1.3,21,2,31.5c0.7,11.2,1.4,22.7,2.2,34.1
	c0.9,12.3,1.7,24.5,2.6,36.8c1,14.3,2,29.1,3,43.7c1.2,18,2.4,36.4,3.5,54.1c0.6,9.5,1.2,19,1.8,28.5c0.7,10.7,1.4,21.4,2.1,32.1
	c1.6,23.3,3.2,47.4,4.4,71.1c1.2,22.6,1.9,45.6,2.5,67.9c0.1,6.2,0.3,12.3,0.5,18.5c0.7,24.5,1.4,49.5,2.1,73.7
	c0.3,13.4,0.7,26.7,1.1,40.1c0.2,6.7,0.4,13.5,0.6,20.3c0.1,4.1,0.3,8.2,0.4,12.3c0.4,11.7,0.8,23.5,1.2,35.2
	c0.9,27.3,1.9,55.5,2.4,83.2c0.3,19.8,0,40-0.3,59.5c-0.1,7.1-0.2,14.1-0.3,21.2c-0.2,17.8-0.4,35.9-0.7,53.4
	c-0.6,35.6-1.1,72.4-1.2,108.6c0,28.9,0.7,58.2,1.4,86.6c0.2,7.1,0.3,14.1,0.5,21.1l0.1,2.9c0.3,11.8,0.6,24.1,2.2,36
	c4.7,34.9,9.5,66.9,14.7,97.7c7.5,44.7,29.6,82.9,65.6,113.4c30.3,25.7,66.1,42.3,109.3,50.9c34.1,6.8,71.2,10.6,116.5,12.1
	c9.6,0.4,20.1,0.6,31.2,0.6c28.2,0,60.4-1.6,92.5-7.2c48.1-8.8,87.9-23.5,121.5-44.8c21-13.3,42.6-28.9,58.2-52.7
	c20.1-30.7,33.9-65.5,42.3-106.2c8.8-42.8,9.8-86.9,10.7-125.9c0.5-22.4-0.2-45.2-0.9-67.2c-0.3-7.4-0.5-14.9-0.7-22.4
	c-0.4-16.9-1-34-1.5-50.5c-0.5-14.5-1-29.5-1.4-44.2c-1.1-40.1-2.1-79.3-2.9-118.5c-0.6-28.1-0.8-56.8-1-84.5v-2.4
	c-0.4-54.7-0.4-119.5,2.6-185.7c0.8-18.7,1.5-37.8,2.1-56.2c0.3-8.6,0.6-17.3,0.9-26l0.9-23.9c1-28.6,2.1-57.1,3.1-85.7
	c0.3-7,0.6-14,0.8-21c0.7-19.4,1.4-39.5,2.3-59.2c1.1-23.7,2.3-47.7,3.5-71c0.4-9.6,0.9-19.1,1.4-28.7c0.6-12.5,1.3-25.1,1.9-37.6
	c1.3-27,2.7-54.9,4-82.3c1.8-39.2,3-69.2,3.9-97.2c0.8-24.6,1.4-49.7,2-73.9c0.3-10.8,0.5-21.5,0.8-32.3V730v-0.1
	C735.7,720.7,735.4,711.4,735.2,702.1z"/>
</svg>
