<?xml version="1.0" encoding="utf-8"?>
<!-- Generator: Adobe Illustrator 26.3.1, SVG Export Plug-In . SVG Version: 6.00 Build 0)  -->
<svg version="1.1" id="Layer_1" xmlns="http://www.w3.org/2000/svg" xmlns:xlink="http://www.w3.org/1999/xlink" x="0px" y="0px"
	 viewBox="0 0 726.2 2381" style="enable-background:new 0 0 726.2 2381;" xml:space="preserve">
<style type="text/css">
	.st0{fill:#FFFFFF;}
</style>
<g>
	<path class="st0" d="M714.5,1170.4c-4.1,94.3-7.9,188.7-9.9,283.1c-1.8,85.6-2.4,171.2-4.2,256.8c-2.3,107.9-1.4,215.8-2.2,323.7
		c-0.3,35.9-0.2,72-3.2,107.8c-2.1,24.7-4.5,49.4-11,73.4c-16.6,61.4-53.3,103.2-107.9,127.7c-27.5,12.3-56.4,19.6-85.6,25.1
		c-71.3,13.3-142.8,13.7-214.2,2.4c-34.8-5.5-69.2-13.6-101.7-28.7c-61.5-28.4-98.3-78.3-111.7-148.2c-7-36.4-9.3-73.3-10.8-110.3
		c-3.3-83.6-3.4-167.4-5.9-251c-2.3-76.7-5.1-153.4-7.7-230.1c-1.6-48.6-2.8-97.1-5.1-145.6c-2.9-62-5.4-123.9-9.3-185.8
		c-5.2-82.9-9.9-165.8-13.5-248.8c-2.9-67.6-6.8-135.2-7.5-203c-0.5-56.2,0.6-112.3,1.6-168.4c1-55.6,6.8-110.7,12.7-165.9
		c4.2-39.5,9.6-78.8,17.4-117.7c8.8-44,23.9-85.8,39.2-127.4c11.9-32.3,24.1-64.4,39.8-94.9c18.7-36.1,42.3-68,72.5-93.7
		c29.1-24.8,62.9-38.8,99.7-43.6c46.4-6.2,93-6.5,139.4,0.2c49,7,91.3,29,125.7,68.1c27.5,31.3,49.4,66.3,66.2,105.2
		c19,43.9,36.7,88.4,51.4,134.2c16.4,51.1,25.8,103.9,32.2,157.4c4.1,34,8.8,67.9,12.3,101.9c2.8,28.2,4.3,56.6,5.4,84.9
		c2.6,67,4.8,134.1,4.5,201.2C723,881.4,718,1088,714.5,1170.4z"/>
</g>
</svg>
