<?xml version="1.0" encoding="utf-8"?>
<!-- Generator: Adobe Illustrator 26.3.1, SVG Export Plug-In . SVG Version: 6.00 Build 0)  -->
<svg version="1.1" id="Layer_1" xmlns="http://www.w3.org/2000/svg" xmlns:xlink="http://www.w3.org/1999/xlink" x="0px" y="0px"
	 viewBox="0 0 654 2382" style="enable-background:new 0 0 654 2382;" xml:space="preserve">
<style type="text/css">
	.st0{fill:#FFFFFF;}
</style>
<g>
	<g>
		<path class="st0" d="M3.2,1234.8c0-116.7-0.3-216.8,0.1-316.8c0.2-38.5,1.9-77.1,3-115.6c1-35,2.1-69.9,3.2-104.9
			c1.3-39.2,2.2-78.3,4-117.5c1.9-42.3,5.5-84.5,10.2-126.5C27.9,415.6,34,378.1,44,341.3c15.5-57.5,39.1-111.1,69.1-162
			c23.5-39.9,51.8-75,85.2-105.6c28.3-25.9,60-46.4,94.4-62.1c9.4-4.3,19.1-7.5,29.5-8.3c11.2-0.8,21.9,1.6,32.4,5.6
			c20.5,7.8,39.2,19.1,57.5,31.3c51.9,34.5,93.4,79.9,125.6,134.6c7.4,12.5,14.6,25.2,21.5,38c29.9,55,49.3,114.1,61.4,175.9
			c5.8,29.7,9,59.9,12.1,90c5.9,58.1,8.5,116.3,10,174.7c1.7,62.8,3.5,125.5,5.7,188.3c3.6,100.9,2.5,201.8,2.1,302.7
			c-0.3,78.6-1.3,157.2-2.5,235.8c-1.2,78.6-3.1,157.1-4.8,235.7c-0.9,43.4-1.8,86.8-3.3,130.2c-1.7,47.4-3.8,94.7-6.4,142
			c-1.8,32.8-4.1,65.6-7.2,98.3c-2.1,22.4-5.8,44.6-9.4,66.8c-5.2,32.4-10.8,64.7-19.2,96.4c-8.8,33.1-18.5,65.8-32.5,97
			c-10.2,22.6-22.7,43.6-39.9,61.1c-5.6,5.7-11.5,11.2-17.9,15.8c-33.2,24.1-68.9,42.2-108.9,49.3c-14.6,2.6-29.4,4.3-44.2,5.2
			c-27.3,1.6-54.5,1.2-81.7-2.2c-35.9-4.5-69-17.3-100.9-35.2c-39.7-22.4-67.5-55.5-85.4-98.5c-16.3-39.1-28.4-79.6-37.2-121.2
			c-8.2-38.9-14.9-78-20-117.5c-2.4-18.8-3.8-37.7-5.2-56.6c-2.1-28.6-3.9-57.2-5.5-85.8c-1.2-21.7-2-43.3-2.9-65
			c-4.1-100-5.4-200.5-7.4-300.9C6.2,1402.8,4.6,1310.5,3.2,1234.8z"/>
	</g>
</g>
</svg>
