<?xml version="1.0" encoding="utf-8"?>
<!-- Generator: Adobe Illustrator 26.3.1, SVG Export Plug-In . SVG Version: 6.00 Build 0)  -->
<svg version="1.1" id="Layer_1" xmlns="http://www.w3.org/2000/svg" xmlns:xlink="http://www.w3.org/1999/xlink" x="0px" y="0px"
	 viewBox="0 0 688.7 2237.2" style="enable-background:new 0 0 688.7 2237.2;" xml:space="preserve">
<style type="text/css">
	.st0{fill:#FFFFFF;}
</style>
<g>
	<path class="st0" d="M680,1261.6c-1.6,64.7-3.4,137.4-5.3,210.1c-1.2,47.3-2.3,94.6-3.8,141.9c-2.1,64.8-4.7,129.6-7.8,194.4
		c-2,42.1-3.8,84.3-7.3,126.3c-2.9,35.3-6.5,70.6-15,105.1c-4.8,19.6-11.3,38.8-18.5,57.6c-12.5,32.5-33.3,57.9-59.3,79.1
		c-26.5,21.6-56.2,35.2-88.6,42.7c-20.5,4.7-41.1,9.3-62,12.1c-15.7,2.1-31.5,2.8-47.3,3.4c-15.2,0.6-30.5,0.7-45.8,0.5
		c-28-0.3-55.5-5-82.9-10.9c-19.4-4.2-38.6-8.8-56.5-17.8c-40.5-20.4-74.2-49.2-94.1-92.9c-14.3-31.3-24.3-64.3-30-98.7
		c-6.5-39.2-10.3-78.8-12.9-118.5c-3.5-52.1-6.6-104.2-9.1-156.4c-2.3-46.4-4.8-92.9-6.7-139.3c-2.2-52.8-4-105.6-5.9-158.3
		c-2.2-60.9-4.3-121.7-6.6-182.6c-2.4-62.6-4.2-125.3-5.7-187.9c-2.1-85.9-4.2-171.8-5.6-257.7C2.3,759.4,1.9,705.2,3,651
		c1.1-53.8,3.7-107.5,8.4-161.1c2.8-32,5.3-64,9.9-95.8c8.2-56.6,19.1-112.6,40.2-165.5c22.7-56.9,54.6-107.4,98.8-148.5
		C198.6,44.6,242.7,20.9,292.1,9c21.4-5.1,43.4-8.2,65.4-4.9c22.3,3.4,44,9.5,65.2,17.8c53.7,21.2,98.9,55.1,135.6,101.5
		c38.6,48.7,65.9,103.7,82.2,165c12.4,46.6,21.7,93.7,27.3,141.7c8.3,72,14.4,144.2,16.6,216.8c2.3,72.9,2.1,145.8,1.5,218.8
		c-0.7,87.5-1.8,175-3,262.5C682.4,1170,681.1,1211.8,680,1261.6z"/>
</g>
<g>
	<path class="st0" d="M684.4,646.7c-2.2-72.6-8.3-144.8-16.6-216.8c-5.6-48-14.9-95.1-27.3-141.7c-16.3-61.3-43.6-116.3-82.2-165
		c-36.7-46.4-81.9-80.3-135.6-101.5c-21.2-8.3-42.9-14.4-65.2-17.8c-22-3.3-44-0.2-65.4,4.9c-49.4,11.9-93.5,35.6-131.8,71.1
		c-44.2,41.1-76.1,91.6-98.8,148.5c-21.1,52.9-32,108.9-40.2,165.5c-4.6,31.8-7.1,63.8-9.9,95.8C6.7,543.3,4.1,597,3,650.8
		C1.9,705,2.3,759.2,3.3,813.6c1.4,85.9,3.5,171.8,5.6,257.7c1.5,62.6,3.3,125.3,5.7,187.9c2.3,60.9,4.4,121.7,6.6,182.6
		c1.9,52.7,3.7,105.5,5.9,158.3c1.9,46.4,4.4,92.9,6.7,139.3c2.5,52.2,5.6,104.3,9.1,156.4c2.6,39.7,6.4,79.3,12.9,118.5
		c5.7,34.4,15.7,67.4,30,98.7c19.9,43.7,53.6,72.5,94.1,92.9c17.9,9,37.1,13.6,56.5,17.8c27.4,5.9,54.9,10.6,82.9,10.9
		c15.3,0.2,30.6,0.1,45.8-0.5c15.8-0.6,31.6-1.3,47.3-3.4c20.9-2.8,41.5-7.4,62-12.1c32.4-7.5,62.1-21.1,88.6-42.7
		c26-21.2,46.8-46.6,59.3-79.1c7.2-18.8,13.7-38,18.5-57.6c8.5-34.5,12.1-69.8,15-105.1c3.5-42,5.3-84.2,7.3-126.3
		c3.1-64.8,5.7-129.6,7.8-194.4c1.5-47.3,2.6-94.6,3.8-141.9c1.9-72.7,3.7-145.4,5.3-210.1c1.1-49.8,2.4-91.6,2.9-133.4
		c1.2-87.5,2.3-175,3-262.5C686.5,792.5,686.7,719.6,684.4,646.7z"/>
</g>
</svg>
