<?xml version="1.0" encoding="utf-8"?>
<!-- Generator: Adobe Illustrator 26.3.1, SVG Export Plug-In . SVG Version: 6.00 Build 0)  -->
<svg version="1.1" id="Layer_1" xmlns="http://www.w3.org/2000/svg" xmlns:xlink="http://www.w3.org/1999/xlink" x="0px" y="0px"
	 viewBox="0 0 723.9 2118.7" style="enable-background:new 0 0 723.9 2118.7;" xml:space="preserve">
<style type="text/css">
	.st0{fill:#FFFFFF;}
</style>
<g>
	<path class="st0" d="M721.7,597.4c-0.5,55.8-2.3,111.5-6.2,167.1c-3.3,47.4-6.3,94.9-10,142.3c-2.5,32.7-6.5,65.4-9,98.1
		c-2.6,34.5-4.4,69.1-6.2,103.7c-3,60.9-4.5,121.8-4.1,182.7c0.4,46.8,1.6,93.5,3.2,140.3c1.2,36.7,3.6,73.4,5.4,110.1
		c1.8,38.2,2.9,76.4,5.3,114.5c3.4,54.5,6.1,109.1,5.9,163.7c-0.1,37.6,1.5,75.3-5.3,112.5c-3.8,20.9-10,41.1-18.2,61
		c-11.8,28.8-30.1,51.5-55.3,68.6c-30.6,20.9-64.9,33.2-101.2,40.7c-48.7,10.2-98.1,13.4-147.6,14c-40.5,0.4-80.8-2.8-121.1-7.5
		c-40.1-4.7-78.4-15.3-115.3-31.1c-29.8-12.7-56-30.6-74.8-57.3c-12.1-17.1-21-36.1-26.2-56.7c-8.1-32.1-9.4-64.9-12.3-97.5
		c-2-22.6-2.7-45.2-2.3-67.8c0.6-32,1.1-63.9,2.3-95.9c1.5-38.4,2.3-76.9,6.4-115c1.6-14.9,3.5-141.9,3.9-164.7
		c0.4-24.5,1.2-48.9,0.9-73.4c-0.2-13.3,1.2-26.4,1.2-39.6c-0.2-38.6-0.9-77.3-2.2-115.9c-1.3-38.3-3.1-76.7-5.8-114.9
		c-3.1-45-7.2-90-12.2-134.9c-3.1-28.1-4.4-56.4-7.3-84.5c-4.1-39.1-6.2-78.3-8.9-117.5c-1.5-21.8-2.9-43.6-3.5-65.4
		C0.4,647.4,3,511,5.9,472.6c2.6-34.6,7.2-69,15.1-102.7c14.2-60.3,29.4-120.6,62.2-174.4c15.6-25.6,34.4-49,54.7-71.2
		c17.8-19.5,37-37.4,58.1-53.1c35.2-26,72.4-49.1,114.5-62.3C358.5-6,404,3.5,448.4,24.8c44.3,21.2,84.2,48.6,119.1,82.8
		C608.9,148,644.6,192.8,665,248c12.3,33.2,23.3,66.8,31.5,101.3c6.1,25.7,11.1,51.6,15,77.6C713.5,440.4,721.9,573.4,721.7,597.4z"
		/>
</g>
</svg>
