<?xml version="1.0" encoding="utf-8"?>
<!-- Generator: Adobe Illustrator 26.3.1, SVG Export Plug-In . SVG Version: 6.00 Build 0)  -->
<svg version="1.1" id="Layer_1" xmlns="http://www.w3.org/2000/svg" xmlns:xlink="http://www.w3.org/1999/xlink" x="0px" y="0px"
	 viewBox="0 0 612.2 2268.6" style="enable-background:new 0 0 612.2 2268.6;" xml:space="preserve">
<style type="text/css">
	.st0{fill:#FFFFFF;}
</style>
<g>
	<path class="st0" d="M609.7,868.7c-0.6-67.7-0.1-135.3-1-203c-0.5-36.3-0.8-72.6-2-108.9c-1.4-45.6-3-91.1-5.9-136.6
		c-2.2-34.8-4.3-69.6-8.8-104.2c-5.8-44.7-16-88.4-32.6-130.5c-22.9-57.9-58.3-106-110.4-140.9c-22.1-14.9-45.3-27.7-71.6-33.9
		c-20.9-4.9-42.2-7.2-63.6-8.5c-0.2,0-0.3-0.1-0.5-0.1h-5.2c-1.1,0-2.3-0.2-3.4-0.1c-0.7,0-1.4,0-2.2,0.1C301,2,299.4,2.2,298,2.2
		c-12,0.4-23.9,1.9-35.8,3.4c-20.1,2.6-39.7,6.9-58.2,15.6c-59.9,28.1-105.5,71.2-136,130c-27.9,53.7-41.8,111.5-49.1,171.2
		C14.1,362,11.8,402,9.5,441.9C7.2,482,5.8,522.1,4.7,562.2c-0.9,33.1-1.5,66.2-1.8,99.3C2.4,719.1,2.2,776.7,2,834.3
		c-0.3,76.2-0.6,152.3,1.3,228.5c0.8,33.1,0.4,66.2,0.9,99.3c0.6,41.3,0.6,82.5,2,123.8c1.2,35.3,1.6,70.7,2.4,106
		c0.3,14.2,0.6,28.5,1,42.7c1.8,53.7,3.7,107.4,5.6,161.1c0.6,17.9,1.3,35.8,2.1,53.7c2.1,46.8,4.3,93.6,6.3,140.4
		c1.2,26.7,3.5,53.3,6.3,79.9c3.5,33.2,7.3,66.4,11.1,99.7c4.3,37.9,10.4,75.4,21.1,112.1c13,44.8,31.9,86.3,64.4,120.7
		c21.9,23.2,46.6,42,77.8,50.8c30.7,8.6,62.1,12,93.9,13.2c0.4,0,0.8,0,1.4,0c3.4,0.7,10.4,0,12,0c22.9-0.6,45.6-2.9,68.2-6.8
		c22.5-4,44.4-9.9,63.9-22.4c38.1-24.4,65.6-58.2,85-98.7c16-33.4,25.6-68.9,32.8-105.1c5.6-28.3,8.8-56.9,12-85.5
		c3.4-30.7,6.8-61.4,10-92c3.6-34.2,5.2-68.6,6.6-102.9c1.9-44.4,3.9-88.8,5.7-133.3c1.4-34,2.7-68.1,3.8-102.1
		c1.3-39.8,2.8-79.6,3.3-119.4c0.2-15.7,0.7-31.3,1.1-47c1.1-44.8,2.4-89.5,3.4-134.3c0.6-28.3,0.4-56.6,0.7-84.9
		c0.5-52.5,1.4-104.9,2-157.4C610.4,939.1,610,903.9,609.7,868.7z"/>
</g>
<g>
	<g>
		<path class="st0" d="M609.7,868.7c-0.6-67.7-0.1-135.3-1-203c-0.5-36.3-0.8-72.6-2-108.9c-1.4-45.6-3-91.1-5.9-136.6
			c-2.2-34.8-4.3-69.6-8.8-104.2c-5.8-44.7-16-88.4-32.6-130.5c-22.9-57.9-58.3-106-110.4-140.9c-22.1-14.9-45.3-27.7-71.6-33.9
			c-20.9-4.9-42.2-7.2-63.6-8.5c-0.2,0-0.3-0.1-0.5-0.1h-5.2c-1.1,0-2.3-0.2-3.4-0.1c-0.7,0-1.4,0-2.2,0.1C301,2,299.4,2.2,298,2.2
			c-12,0.4-23.9,1.9-35.8,3.4c-20.1,2.6-39.7,6.9-58.2,15.6c-59.9,28.1-105.5,71.2-136,130c-27.9,53.7-41.8,111.5-49.1,171.2
			C14.1,362,11.8,402,9.5,441.9C7.2,482,5.8,522.1,4.7,562.2c-0.9,33.1-1.5,66.2-1.8,99.3C2.4,719.1,2.2,776.7,2,834.3
			c-0.3,76.2-0.6,152.3,1.3,228.5c0.8,33.1,0.4,66.2,0.9,99.3c0.6,41.3,0.6,82.5,2,123.8c1.2,35.3,1.6,70.7,2.4,106
			c0.3,14.2,0.6,28.5,1,42.7c1.8,53.7,3.7,107.4,5.6,161.1c0.6,17.9,1.3,35.8,2.1,53.7c2.1,46.8,4.3,93.6,6.3,140.4
			c1.2,26.7,3.5,53.3,6.3,79.9c3.5,33.2,7.3,66.4,11.1,99.7c4.3,37.9,10.4,75.4,21.1,112.1c13,44.8,31.9,86.3,64.4,120.7
			c21.9,23.2,46.6,42,77.8,50.8c30.7,8.6,62.1,12,93.9,13.2c0.4,0,0.8,0,1.4,0c3.4,0.7,10.4,0,12,0c22.9-0.6,45.6-2.9,68.2-6.8
			c22.5-4,44.4-9.9,63.9-22.4c38.1-24.4,65.6-58.2,85-98.7c16-33.4,25.6-68.9,32.8-105.1c5.6-28.3,8.8-56.9,12-85.5
			c3.4-30.7,6.8-61.4,10-92c3.6-34.2,5.2-68.6,6.6-102.9c1.9-44.4,3.9-88.8,5.7-133.3c1.4-34,2.7-68.1,3.8-102.1
			c1.3-39.8,2.8-79.6,3.3-119.4c0.2-15.7,0.7-31.3,1.1-47c1.1-44.8,2.4-89.5,3.4-134.3c0.6-28.3,0.4-56.6,0.7-84.9
			c0.5-52.5,1.4-104.9,2-157.4C610.4,939.1,610,903.9,609.7,868.7z"/>
	</g>
</g>
</svg>
