<?xml version="1.0" encoding="utf-8"?>
<!-- Generator: Adobe Illustrator 26.3.1, SVG Export Plug-In . SVG Version: 6.00 Build 0)  -->
<svg version="1.1" id="Layer_1" xmlns="http://www.w3.org/2000/svg" xmlns:xlink="http://www.w3.org/1999/xlink" x="0px" y="0px"
	 viewBox="0 0 708 2290" style="enable-background:new 0 0 708 2290;" xml:space="preserve">
<style type="text/css">
	.st0{fill:#FFFFFF;}
</style>
<g>
	<path class="st0" d="M678,1301.4c-3.5,79-6.9,158-10.5,237c-3.3,72-3.1,144.1-3.5,216.2c-0.5,81.9-0.5,163.8-2.6,245.7
		c-1.3,49.3-4.9,98.3-15.4,146.5c-2.1,9.9-4.9,19.7-8.1,29.3c-14.1,41.6-40.6,70.1-78.5,86.6c-30.8,13.5-62.9,20.7-96,22.9
		c-55.2,3.6-110.5,3.6-165.8,1.1c-37.6-1.7-75-5.3-111.4-16.6c-23.1-7.2-43.4-19.6-61.9-35.9c-25-22.1-39.8-50.8-48.1-83.9
		c-6.6-26.6-10.4-53.6-13.4-80.9c-6.4-59.2-6.3-118.7-7.5-178.1c-1.8-93.1-2.8-186.2-4.6-279.3c-0.9-45.2-4.1-90.4-6.4-135.6
		c-1.6-30.8-3.1-61.6-4.9-92.3c-2.4-42.8-4.9-85.5-7.5-128.3c-1.9-32.8-3.9-65.5-5.9-98.3c-2.8-46.3-5.7-92.7-8.6-139
		c-2.4-38.6-4.4-77.1-5.9-115.7C9,838.6,6.6,774.4,4,710.2c-2-56-1.2-111.8,2.9-167.6c4.7-64.1,12.7-127.7,24.7-190.7
		c12.7-66.5,34-129.4,68-186.8c31.3-53,71.3-96.8,122.7-127.8C256,17,292.1,5.7,330.6,3.3c45.8-2.8,90.7,0.3,133.4,21
		C487.7,36,509.3,51,529.3,69c52.2,46.9,88.6,105.8,114.7,172.8c18.3,47,29,96.2,37.7,146c8.7,50,14.8,100.4,18.9,151.1
		c4.9,60.9,5.5,122,3.2,183.1c-1.5,41.6-2.8,83.2-3.9,124.9c-1.8,69.9-4.7,139.7-8.8,209.4c-2.7,46.6-4.8,93.2-7.2,139.7
		c-1.8,35.2-3.8,70.4-5.6,105.5C678.2,1301.4,678.1,1301.4,678,1301.4z"/>
</g>
</svg>
