<?xml version="1.0" encoding="utf-8"?>
<!-- Generator: Adobe Illustrator 26.3.1, SVG Export Plug-In . SVG Version: 6.00 Build 0)  -->
<svg version="1.1" id="Layer_1" xmlns="http://www.w3.org/2000/svg" xmlns:xlink="http://www.w3.org/1999/xlink" x="0px" y="0px"
	 viewBox="0 0 663.2 2221.6" style="enable-background:new 0 0 663.2 2221.6;" xml:space="preserve">
<style type="text/css">
	.st0{fill:#FFFFFF;}
</style>
<path class="st0" d="M583.5,185.7c78.5,179.6,75.8,391.1,77.1,454.9s-4,154.3-4,154.3l-16,290l-8,200.9c0,63.8-8,569.3-8,569.3
	c0.3,221.6-41.9,275.3-41.9,275.3c-66.2,93.9-174.9,87.1-174.9,87.1l-175.6,0.7c-105.1-6.7-158.3-91.8-158.3-91.8
	c-35.9-55.9-33.3-216.8-33.3-216.8l-2.7-240.8c4-31.9-12-572-12-572c1.3-18.6-16-276.7-16-276.7c-11.6-130.4-9-195.5-9-195.5
	c0-87.8,21-234.1,21-234.1c27.9-174.3,82.5-260.7,82.5-260.7C196.8-9,328.1,2.1,328.1,2.1s52.2-2.1,121,33.3
	C449.2,35.3,538.4,82.3,583.5,185.7z"/>
</svg>
