<?xml version="1.0" encoding="utf-8"?>
<!-- Generator: Adobe Illustrator 26.3.1, SVG Export Plug-In . SVG Version: 6.00 Build 0)  -->
<svg version="1.1" id="Layer_1" xmlns="http://www.w3.org/2000/svg" xmlns:xlink="http://www.w3.org/1999/xlink" x="0px" y="0px"
	 viewBox="0 0 525.9 2058" style="enable-background:new 0 0 525.9 2058;" xml:space="preserve">
<style type="text/css">
	.st0{fill:#FFFFFF;}
</style>
<path class="st0" d="M248.4,2055c-7.8-0.1-15.7-0.2-23.5-0.3c-0.5,0-1,0-1.5-0.1c-5-0.9-10.1-0.7-15.2-0.9c-1.8-0.1-3.6-0.3-5.4-0.5
	c-0.6-0.1-1.3-0.3-1.9-0.3c-5.2,0.1-10.4-1.1-15.6-1.3c-1.3-0.1-2.6-0.3-3.9-0.5c-0.8-0.1-1.6-0.3-2.4-0.4c-9.8-0.8-19.4-2.5-29-4.4
	c-12.8-2.7-25.4-6.5-37.2-12.5c-8.5-4.3-16.5-9.6-23.6-16.2c-6.3-5.9-12.8-11.6-18.8-17.8c-13.5-13.9-19.5-21.3-28.5-41.5
	c-3.7-8.3-6.9-16.8-9.6-25.6c-3.5-11.1-6.3-22.5-8.5-33.9c-1.4-7.1-2.6-14.3-3.7-21.5c-0.6-3.5-0.9-7.1-1.3-10.6
	c-0.5-3.9-1-7.7-1.5-11.6c-0.1-0.7-0.2-1.3-0.3-2c-0.5-5.9-1.2-11.8-1.9-17.7c-0.6-4.9-0.8-9.8-1.3-14.7c-0.1-1.2-0.3-2.4-0.4-3.5
	c-0.2-1.9-0.4-3.7-0.5-5.6c-0.2-2.2-0.4-4.4-0.6-6.6c0-0.3-0.1-0.7-0.1-1c-0.4-5.6-0.8-11.1-1.2-16.7c-0.2-2.9-0.4-5.7-0.7-8.6
	c-0.1-1.4-0.2-2.7-0.3-4.1c-0.1-3.7-0.2-7.5-0.8-11.1c-0.2-1.3-0.2-2.7-0.2-4.1c-0.1-4.4-0.2-8.8-0.8-13.2c-0.2-1.3-0.2-2.7-0.2-4.1
	c-0.2-5.2-0.1-10.5-0.8-15.7c-0.1-0.7-0.1-1.4-0.1-2c0.1-6.4-0.5-12.9-0.1-19.3c0-0.7-2.8-262.6-2.9-267c0-65.6-1.2-783.1-1.3-811.4
	c0-2.5-0.6-25.4-0.6-29.8c0-13.9,0-27.8-0.1-41.7C2.1,543.7,2,532,2,520.3c0-19.5,0.1-39,0.2-58.5c0-3.4,0.6-24.8,0.7-26.8
	c0.1-27.8,0.2-55.6,0.3-83.4c0-1.9,0.7-12.9,0.8-15.1c0.1-5.8,0-11.5,0.8-17.3c0.2-1.3,1.1-14.9,1.1-15.2c-0.1-4.6,0.8-9.1,1.3-13.6
	c0.6-5.6,1.4-11.1,2.3-16.6c3.3-20.9,8.1-41.5,13.3-62c4.6-18.4,10.2-36.4,17-54.1c5.1-13.4,11.1-26.4,17.8-39.1
	c7.1-13.6,15.2-26.5,24.7-38.4c13.1-16.5,28.3-30.5,46.2-41.2c6-3.5,12.1-6.7,18.4-9.5c13.9-6.4,28.2-11.7,42.9-15.8
	c8.4-2.3,16.8-4.4,25.3-5.8c5.3-0.9,10.6-1.8,15.9-2.7c0.8-0.1,1.6-0.2,2.4-0.2c1-0.1,2,0,2.9-0.2c3.7-0.8,7.5-0.8,11.2-1
	c0.8,0,1.6,0,2.4-0.2c7-1.2,14-0.7,21-0.6c1,0,1.9,0.2,2.9,0.4c0.8,0.1,1.6,0.3,2.4,0.3c5.2,0,10.4,0.8,15.6,1.3
	c2.9,0.3,5.8,0.7,8.7,1.1c11.1,1.8,22.2,4,33.1,6.9c13.6,3.6,27,8.1,39.9,13.7c9.3,4.1,18.5,8.5,27.2,13.9c9,5.6,32.7,24.5,50,48.5
	c10.5,15.6,22.2,35.9,29.7,53.3c6.4,14.7,11.8,29.8,16.5,45.1c4.2,13.6,7.7,27.3,10.9,41.1c2.7,11.7,5.3,23.4,7.5,35.2
	c1,5.1,6,53.6,6.6,59.5c0.8,8.1,1.5,36.9,1.5,37.9c0,1.7,0,3.4,0,5.1c0,42.9,0.1,85.8,0.1,128.7c0,18.5-2,1084.9-2,1124.6
	c0,5.9-0.9,59-1,70.5c0,1.4-0.8,8.4-0.8,10.6c0.1,3.4-0.2,20.3-0.8,25.4c-0.4,3.9-0.3,7.8-0.4,11.7c-0.1,2.2-0.3,4.4-0.4,6.6
	c-0.2,3.6-0.3,7.1-0.5,10.7c-0.1,2.2-0.3,4.4-0.4,6.6c-0.2,3-0.3,6.1-0.5,9.1c-0.1,2-0.3,4.1-0.5,6.1c-0.1,0.7-0.2,1.3-0.2,2
	c-0.2,5.1-0.6,10.1-1.1,15.2c-0.3,3.7-0.3,7.4-0.9,11.1c-0.2,1.3-0.1,2.7-0.2,4.1c-0.2,2-0.4,4-0.6,6.1c0,0.3-0.1,0.7-0.1,1
	c-0.4,4.9-0.8,9.8-1.3,14.7c-0.1,1.3-0.3,2.7-0.4,4c-0.1,1-0.3,2-0.4,3c-0.4,4.4-0.6,8.8-1.2,13.1c-0.9,6.7-1.4,13.5-2.6,20.1
	c-0.4,2.5-0.8,5-1.1,7.5c-0.9,7.2-2.3,14.4-3.7,21.5c-1.4,7.3-3.2,14.5-5.1,21.7c-4.6,17.2-10.8,33.7-19.1,49.4
	c-3.3,6.3-7.3,12.1-11.9,17.4c-6.3,7.3-13.1,14.2-20.2,20.7c-2.3,2.2-4.6,4.3-6.9,6.4c-6.6,6.2-13.8,11.4-21.6,15.7
	c-10.3,5.7-21.2,9.7-32.5,12.6c-7.3,1.8-14.7,3.3-22.1,4.4c-3.7,0.5-7.4,1.1-11.1,1.7c-1,0.1-2,0.2-2.9,0.2
	c-2.4,0.1-4.9,0.3-7.3,0.7c-1.6,0.3-3.3,0.3-4.9,0.3c-3.4,0.1-60.3,2.6-62.7,2.8C272.3,2054.4,248.4,2054.9,248.4,2055z"/>
</svg>
