<?xml version="1.0" encoding="utf-8"?>
<!-- Generator: Adobe Illustrator 26.3.1, SVG Export Plug-In . SVG Version: 6.00 Build 0)  -->
<svg version="1.1" id="Layer_3" xmlns="http://www.w3.org/2000/svg" xmlns:xlink="http://www.w3.org/1999/xlink" x="0px" y="0px"
	 viewBox="0 0 699.1 2238.2" style="enable-background:new 0 0 699.1 2238.2;" xml:space="preserve">
<style type="text/css">
	.st0{fill:#FFFFFF;}
</style>
<path class="st0" d="M340.4,4.1c0,0,201.5-27.5,287.3,206.4c0,0,79.8,174.9,65.8,436.4c0,0-8,253.6-12,308.6
	c0,0-23.9,404.9-25.9,469.8c0,0-8,355.8-6,424.6c0,0,20,231.9-89.8,332.2c0,0-25.9,45.2-213.5,53.1c0,0-187.6,2-255.4-106.1
	c0,0-47.9-70.8-33.9-292.9c0,0-18-631-29.9-800l-20-310.6c0,0-12-226,10-332.2C17.2,393.3,47.1,14,340.4,4.1z"/>
</svg>
