<?xml version="1.0" encoding="utf-8"?>
<!-- Generator: Adobe Illustrator 26.3.1, SVG Export Plug-In . SVG Version: 6.00 Build 0)  -->
<svg version="1.1" id="Layer_1" xmlns="http://www.w3.org/2000/svg" xmlns:xlink="http://www.w3.org/1999/xlink" x="0px" y="0px"
	 viewBox="0 0 738.1 2336.6" style="enable-background:new 0 0 738.1 2336.6;" xml:space="preserve">
<style type="text/css">
	.st0{fill:#FFFFFF;}
</style>
<path class="st0" d="M374.2,2.3c0,0-102.9-4-188.5,61.5S30.3,329.1,18.7,400.6C8,466.1,14,423.3,5.9,550.3l-3.3,92.2
	c-4,40.1,6.7,270,6.7,270C8,929.9,24,1244,24,1244c1.3,29.4,13.4,526.6,13.4,526.6c1.3,32.1,6.7,200.5,6.7,200.5
	c-2.7,127,25.4,208.5,25.4,208.5c49.5,94.9,140.3,159.1,306.1,153.7s216.5-32.1,264.6-106.9s41.4-252.6,41.4-252.6
	s18.7-564,25.4-614.8s18.7-475.7,20.7-497.2c5.3-58.8,6.7-258,6.7-258c-8-127-8.6-129.6-14-201.8c-5.3-72.2-72.2-272.7-157.7-338.2
	S374.2,2.3,374.2,2.3"/>
</svg>
