<?xml version="1.0" encoding="utf-8"?>
<!-- Generator: Adobe Illustrator 26.3.1, SVG Export Plug-In . SVG Version: 6.00 Build 0)  -->
<svg version="1.1" id="Layer_1" xmlns="http://www.w3.org/2000/svg" xmlns:xlink="http://www.w3.org/1999/xlink" x="0px" y="0px"
	 viewBox="0 0 687.2 2220.3" style="enable-background:new 0 0 687.2 2220.3;" xml:space="preserve">
<style type="text/css">
	.st0{fill:#FFFFFF;}
</style>
<path class="st0" d="M341.2,2218.2c-138.3-2.7-199.5-40.1-199.5-40.1c-79.8-33.5-105.1-190-105.1-190
	c-17.3-188.9-21.3-301.9-21.3-301.9L10,1494.6l-5.3-251.4V864.1c0-22.6,2.7-457.6,2.7-457.6C7.3,83.3,129.7,39.4,129.7,39.4
	C206.8,3.4,337.2,2.1,337.2,2.1h14.9c0,0,130.4,1.3,207.5,37.2c0,0,122.4,45.2,122.4,367.1c0,0,2.7,435,2.7,457.6v379.1l-5.3,251.4
	l-5.3,191.5c0,0-4,113.1-21.3,301.9c0,0-22.6,158.3-103.8,188.9c0,0-62.5,38.6-200.9,41.2H341.2z"/>
</svg>
