<?xml version="1.0" encoding="utf-8"?>
<!-- Generator: Adobe Illustrator 26.3.1, SVG Export Plug-In . SVG Version: 6.00 Build 0)  -->
<svg version="1.1" id="Layer_1" xmlns="http://www.w3.org/2000/svg" xmlns:xlink="http://www.w3.org/1999/xlink" x="0px" y="0px"
	 viewBox="0 0 717 2346" style="enable-background:new 0 0 717 2346;" xml:space="preserve">
<style type="text/css">
	.st0{fill:#FFFFFF;}
</style>
<g>
	<path class="st0" d="M712.6,908.5c-1.3,113.5-2.2,213.4-3.8,313.2c-1.9,124.9-5.5,249.7-8.7,374.6c-1.7,69.1-3,138.2-5.4,207.3
		c-1.6,43.9,1.6,87.8,0.2,131.7c-1,33.7-3.3,67.3-6.6,100.8c-2.6,26.8-3.8,53.7-7.5,80.3c-4.5,32.4-11.2,64.2-23.7,94.2
		c-16,38.6-43.6,65.8-75.8,88.1c-28.2,19.5-59.7,29.5-92.3,35.6c-35.6,6.7-71.6,8.5-107.7,8.6c-34.5,0.1-69,0.7-103.4-2.2
		c-42.4-3.5-84.2-10.1-122.9-30.5c-33.7-17.8-62-42.9-83.3-76.5c-13.6-21.4-20.8-45.9-26.9-70.8c-8-32.5-11.6-65.7-14-99.1
		c-2.7-37-7.2-73.8-8.1-110.9c-0.5-23.5-1.6-47.1-0.6-70.6c1.8-42.2-0.2-84.4-1.2-126.6c-1.3-54.7-2.9-109.4-4.3-164.1
		c-2.5-100.3-5.2-200.5-7.2-300.8C7.9,1209.5,7,1128,6.1,1046.6C5,958,4.6,869.3,3.2,780.7c-0.6-40.1,0.7-80.1,1.9-120.2
		c0.9-29,1.9-58,3-87c1.4-36.4,4.4-72.7,8.1-109c3.9-38.2,8.9-76.1,14.4-114c5.2-35.6,15.5-69.6,27.8-102.9
		c8.3-22.4,15.8-45.4,27-66.3c19-35.2,42.4-66.7,71-93.4c4.9-4.6,9.9-9,14.7-13.7c22.7-22.6,49.1-38.3,78.4-48.7
		c27.8-9.9,55.7-19.1,85-21.5c31.4-2.5,62.6-0.7,93.2,8.2c28.6,8.3,56.7,18.1,82.8,33.5c9.3,5.5,17.6,12.7,25.9,19.7
		c31.8,26.7,59.2,57.9,82.6,93.4c14.6,22.2,23.6,47.3,33.6,71.9c9.2,22.7,16.9,46.1,23.7,69.8c6.3,21.9,9.6,44.5,13,67.1
		c8.5,57.4,14.3,115.1,18.4,173.1c2.5,36.6,3.4,73.2,4.1,109.9c0.4,23.5,1.9,47,2.2,70.6C714.6,788.1,712.8,855.1,712.6,908.5z"/>
</g>
</svg>
