<?xml version="1.0" encoding="utf-8"?>
<!-- Generator: Adobe Illustrator 26.3.1, SVG Export Plug-In . SVG Version: 6.00 Build 0)  -->
<svg version="1.1" id="Layer_1" xmlns="http://www.w3.org/2000/svg" xmlns:xlink="http://www.w3.org/1999/xlink" x="0px" y="0px"
	 viewBox="0 0 696.5 2236.5" style="enable-background:new 0 0 696.5 2236.5;" xml:space="preserve">
<style type="text/css">
	.st0{fill:#FFFFFF;}
</style>
<g>
	<path class="st0" d="M687.6,1250c-3.7,173.7-7.4,347.4-11.3,521.2c-1.1,49.4-3.3,98.8-7.2,148.1c-3.6,46.3-9.8,92.1-22.3,136.8
		c-12.4,44.4-35.5,82.2-66.2,115.4c-18.9,20.4-42.8,31.8-68.3,40.3c-31.2,10.5-63.4,16.3-96.1,19.3c-39.6,3.7-79.3,4.1-119,1.3
		c-44.1-3.2-87.5-10.5-128.8-27.7c-23.7-9.8-42.5-25.7-59.4-45.3c-36.4-42.2-55.3-92.3-65.6-146.8c-8-42.4-11.8-85.2-14.6-128.2
		c-4.8-74.7-6-149.6-7.8-224.4c-2.1-84.1-4.2-168.2-6.4-252.2c-1.8-69.7-3.4-139.4-5.4-209.2c-2.6-91.3-3.8-182.5-5.2-273.8
		C2.6,836,0.6,747.2,3.1,658.3C4.7,602.2,8,546.2,13.5,490.2c6.3-63.3,15.9-126,27-188.6c6.4-35.9,16.8-70.4,34.1-102.5
		c11.7-21.9,21.6-44.9,35.7-65.4C156.7,65.9,219,22.7,298.2,6.2c24.2-5,48.8-4.7,73.4-2.4c33,3.1,64.9,10.6,95,25.4
		c22.7,11.1,42.4,26.6,62,42.6c33.5,27.2,58.9,60.9,78,99.9c10,20.5,21.4,40.3,29.8,61.7c11.2,28.7,16.8,58.9,22,89.2
		c6.6,37.9,12.9,75.9,17.7,114.1c3.7,29.5,6.8,59,9.4,88.6c10.9,123.2,9.3,246.7,7.9,370.2C692.1,1013.7,690.7,1131.9,687.6,1250z"
		/>
</g>
</svg>
