<?xml version="1.0" encoding="utf-8"?>
<!-- Generator: Adobe Illustrator 26.3.1, SVG Export Plug-In . SVG Version: 6.00 Build 0)  -->
<svg version="1.1" id="Layer_1" xmlns="http://www.w3.org/2000/svg" xmlns:xlink="http://www.w3.org/1999/xlink" x="0px" y="0px"
	 viewBox="0 0 604.2 2202.8" style="enable-background:new 0 0 604.2 2202.8;" xml:space="preserve">
<style type="text/css">
	.st0{fill:#FFFFFF;}
</style>
<path class="st0" d="M68.2,225.7c0,0-58.5,214.3-65.2,458.8l-1.3,482.3c0,0,13.3,336.7,25.3,481c0,0,4,152.3,41.2,387.5
	c0,0,12,120.2,85.1,138.9c0,0,63.8,22.7,146.3,26.7c0,0,2.3,0,4.8,0c82.5-4,146.3-26.7,146.3-26.7c73.2-18.7,85.1-138.9,85.1-138.9
	c37.2-235.1,41.2-387.5,41.2-387.5c12-144.3,25.3-481,25.3-481l-1.3-482.3c-6.7-244.5-68.6-461.5-68.6-461.5
	C451.3,2.6,305.8,1.8,305.8,1.8S149.4,5.3,68.2,225.7z"/>
</svg>
