<?xml version="1.0" encoding="utf-8"?>
<!-- Generator: Adobe Illustrator 26.3.1, SVG Export Plug-In . SVG Version: 6.00 Build 0)  -->
<svg version="1.1" id="Layer_1" xmlns="http://www.w3.org/2000/svg" xmlns:xlink="http://www.w3.org/1999/xlink" x="0px" y="0px"
	 viewBox="0 0 688 2278.6" style="enable-background:new 0 0 688 2278.6;" xml:space="preserve">
<style type="text/css">
	.st0{fill:#FFFFFF;}
</style>
<path class="st0" d="M320.8,2273.9c-161.6-10-243.4-86.4-243.4-86.4c-81.8-66.3-57.9-369.6-57.9-369.6l2-261.1
	c4-102.4-10-580.5-10-580.5c-12-164.7-8-325.4-8-325.4C9.5,353.5,67.4,241,67.4,241C173.1-18.1,334.7,2,334.7,2
	S513.3-15.1,619,244.1c0,0,59.4,111,65.4,408.3c0,0,4,160.7-8,325.4c0,0-14,478.1-10,580.5l2,261.1c0,0,21.4,290.7-60.4,372.1
	c0,0-79.3,73.9-240.9,83.9L320.8,2273.9z"/>
</svg>
