<?xml version="1.0" encoding="utf-8"?>
<!-- Generator: Adobe Illustrator 26.3.1, SVG Export Plug-In . SVG Version: 6.00 Build 0)  -->
<svg version="1.1" id="Layer_1" xmlns="http://www.w3.org/2000/svg" xmlns:xlink="http://www.w3.org/1999/xlink" x="0px" y="0px"
	 viewBox="0 0 713.6 2307.8" style="enable-background:new 0 0 713.6 2307.8;" xml:space="preserve">
<style type="text/css">
	.st0{fill:#005EFF;}
	.st1{fill:#FFFFFF;}
</style>
<g>
	<g>
		<g>
			<path class="st0" d="M413.2,1812.1c-5.5,0-10-4.4-10-9.8s4.5-9.7,10-9.7c5.5,0,10.1,4.4,10.1,9.7
				C423.3,1807.7,418.7,1812.1,413.2,1812.1z M413.2,1796.7c-3.2,0-5.7,2.5-5.7,5.6s2.6,5.7,5.7,5.7c3.2,0,5.8-2.5,5.8-5.7
				C419,1799.2,416.4,1796.7,413.2,1796.7z"/>
		</g>
	</g>
	<g>
		<g>
			<path class="st0" d="M299,1812.1c-5.5,0-10-4.4-10-9.8s4.5-9.7,10-9.7c5.5,0,10.1,4.4,10.1,9.7
				C309.1,1807.7,304.6,1812.1,299,1812.1z M299,1796.7c-3.2,0-5.7,2.5-5.7,5.6s2.6,5.7,5.7,5.7c3.1,0,5.8-2.5,5.8-5.7
				C304.8,1799.2,302.2,1796.7,299,1796.7z"/>
		</g>
	</g>
	<g>
		<g>
			<path class="st0" d="M413.2,1666c-5.5,0-10-4.4-10-9.7c0-5.4,4.5-9.8,10-9.8c5.5,0,10.1,4.4,10.1,9.8
				C423.3,1661.6,418.7,1666,413.2,1666z M413.2,1650.5c-3.2,0-5.7,2.5-5.7,5.7c0,3.1,2.6,5.6,5.7,5.6c3.2,0,5.8-2.5,5.8-5.6
				S416.4,1650.5,413.2,1650.5z"/>
		</g>
	</g>
	<g>
		<g>
			<path class="st0" d="M299,1666c-5.5,0-10-4.4-10-9.7c0-5.4,4.5-9.8,10-9.8c5.5,0,10.1,4.4,10.1,9.8
				C309.1,1661.6,304.6,1666,299,1666z M299,1650.5c-3.2,0-5.7,2.5-5.7,5.7c0,3.1,2.6,5.6,5.7,5.6c3.1,0,5.8-2.5,5.8-5.6
				S302.2,1650.5,299,1650.5z"/>
		</g>
	</g>
</g>
<path class="st1" d="M322.2,2305.9c-272.4-21.7-284.4-194.2-284.4-194.2c-11.1-53.2-7-216.9-7-216.9l5-240.6c2-11.8-8-390.5-8-390.5
	L9.6,948.2C-3.4,799.3,2.6,682,2.6,682c0-56.2,14.1-200.2,14.1-200.2c25.1-179.5,75.4-284,75.4-284C165.4,6.5,353.4,1.9,353.4,1.9
	l2.9,0c0,0,191.8,4.6,264.7,195.9c0,0,49.9,104.5,74.8,284c0,0,14,144,14,200.2c0,0,6,117.3-7,266.2l-18,315.5c0,0-10,378.6-8,390.5
	l5,240.6c0,0,4,163.7-7,216.9c0,0-12,172.6-282.3,194.2L322.2,2305.9z"/>
</svg>
