<?xml version="1.0" encoding="utf-8"?>
<!-- Generator: Adobe Illustrator 26.3.1, SVG Export Plug-In . SVG Version: 6.00 Build 0)  -->
<svg version="1.1" id="Layer_1" xmlns="http://www.w3.org/2000/svg" xmlns:xlink="http://www.w3.org/1999/xlink" x="0px" y="0px"
	 viewBox="0 0 678.4 2310.5" style="enable-background:new 0 0 678.4 2310.5;" xml:space="preserve">
<style type="text/css">
	.st0{fill:#FFFFFF;}
</style>
<path class="st0" d="M353.1,2305.9c187.6-14,239.4-120.2,239.4-120.2c59.9-80.2,65.8-316.6,65.8-316.6l10-308.6l8-314.6l-2-613.3
	c4-242.5-79.8-436.9-79.8-436.9C510-10.2,356.8,3.3,345.9,2.3c0,0-180.9-16.4-262,193.3C83.8,195.6,0,390,4,632.5l-2,613.3l8,314.6
	L20,1869c0,0,6,236.5,65.8,316.6c0,0,51.9,106.2,239.4,120.2H353.1z"/>
</svg>
