<?xml version="1.0" encoding="utf-8"?>
<!-- Generator: Adobe Illustrator 26.3.1, SVG Export Plug-In . SVG Version: 6.00 Build 0)  -->
<svg version="1.1" id="Layer_1" xmlns="http://www.w3.org/2000/svg" xmlns:xlink="http://www.w3.org/1999/xlink" x="0px" y="0px"
	 viewBox="0 0 670.4 2222.7" style="enable-background:new 0 0 670.4 2222.7;" xml:space="preserve">
<style type="text/css">
	.st0{fill:#FFFFFF;}
</style>
<path class="st0" d="M342.8,4.3c0,0,109.6,0.6,193.4,88.9c0,0,139.7,144.5,131.4,514.8c0,0-16,377.3-18.6,441.5l-18.6,347.8
	c0,0-5.3,315.7,0,329.1l-2.7,227.4c0,0,10.6,155.2-47.9,206c0,0-80.9,50.7-235.2,61.4l-39.9-1c-154.3-10.7-216.8-60.4-216.8-60.4
	c-58.5-50.8-47.9-206-47.9-206l-2.7-556.5l-18.6-347.8C16.1,985.2,2.5,608.9,2.5,608.9C2.9,240.6,138.2,97.2,138.2,97.2
	C227.9-11.1,342.8,4.3,342.8,4.3z"/>
</svg>
