<?xml version="1.0" encoding="utf-8"?>
<!-- Generator: Adobe Illustrator 26.3.1, SVG Export Plug-In . SVG Version: 6.00 Build 0)  -->
<svg version="1.1" id="Layer_1" xmlns="http://www.w3.org/2000/svg" xmlns:xlink="http://www.w3.org/1999/xlink" x="0px" y="0px"
	 viewBox="0 0 730.7 2306.8" style="enable-background:new 0 0 730.7 2306.8;" xml:space="preserve">
<style type="text/css">
	.st0{fill:#FFFFFF;}
</style>
<path class="st0" d="M352,2.4c0,0-126.2-10.5-235.3,125.1c0,0-111.7,154.3-114.6,440.3c0,0-2,242.2,4,352.3
	c0,0,46.3,552.4,40.2,588.5l-2,382.3c0,0-14.1,248.2,26.1,300.2c0,0,62.3,120.1,297.6,112.1c50.6,0,261.4-12,305.7-138.1
	c0,0,32.2-66.1,24.1-282.2c0,0-2-734.6,16.1-840.7c0,0,34.2-432.3-4-612.5C709.9,429.7,679.7-3.6,352,2.4z"/>
</svg>
