<?xml version="1.0" encoding="utf-8"?>
<!-- Generator: Adobe Illustrator 26.3.1, SVG Export Plug-In . SVG Version: 6.00 Build 0)  -->
<svg version="1.1" id="Layer_1" xmlns="http://www.w3.org/2000/svg" xmlns:xlink="http://www.w3.org/1999/xlink" x="0px" y="0px"
	 viewBox="0 0 720.1 2270.9" style="enable-background:new 0 0 720.1 2270.9;" xml:space="preserve">
<style type="text/css">
	.st0{fill:#FFFFFF;}
</style>
<path class="st0" d="M355.1,2270.1c-257.4-3.9-293.3-106.4-293.3-106.4C27.8,2104.6,35.8,1811,35.8,1811c2-15.8-4-307.3-4-307.3
	c4-35.5-18-405.9-18-405.9c-16-149.7-10-449.2-10-449.2c20-281.7,55.9-399.9,55.9-399.9C143.6,0.4,347.1,4.4,347.1,4.4
	c0-2,25.9,0,25.9,0s203.5-3.9,287.3,244.3c0,0,35.9,118.2,55.9,399.9c0,0,6,299.5-10,449.2c0,0-21.9,370.4-18,405.9
	c0,0-6,291.6-4,307.3c0,0,8,293.6-25.9,352.7c0,0-35.9,102.4-293.3,106.4C365,2270.1,360.4,2270.1,355.1,2270.1z"/>
</svg>
