<?xml version="1.0" encoding="utf-8"?>
<!-- Generator: Adobe Illustrator 26.3.1, SVG Export Plug-In . SVG Version: 6.00 Build 0)  -->
<svg version="1.1" id="Layer_1" xmlns="http://www.w3.org/2000/svg" xmlns:xlink="http://www.w3.org/1999/xlink" x="0px" y="0px"
	 viewBox="0 0 684.5 2171.1" style="enable-background:new 0 0 684.5 2171.1;" xml:space="preserve">
<style type="text/css">
	.st0{fill:none;}
</style>
<path class="st0" d="M340.1,5.3c0,0-172.9,9.4-271.4,247.7c0,0-53.2,129.9-61.2,368.2c0,0-8,251.7,8,476.7
	c0,0,25.3,368.2,21.3,413.8v206.2l-1.3,190.1c0,0,1.3,162,59.9,206.2c0,0,79.8,50.9,216.8,50.9l60.2-0.1
	c137,0,216.8-50.9,216.8-50.9C647.7,2070,649,1908,649,1908l-1.3-190.1v-206.2c-4-45.5,21.3-413.8,21.3-413.8
	c16-225,8-476.7,8-476.7c1-215.5-58.5-380.3-58.5-380.3C520,2.5,349.4,5.2,349.4,5.2L340.1,5.3z"/>
</svg>
