<?xml version="1.0" encoding="utf-8"?>
<!-- Generator: Adobe Illustrator 26.3.1, SVG Export Plug-In . SVG Version: 6.00 Build 0)  -->
<svg version="1.1" id="Layer_1" xmlns="http://www.w3.org/2000/svg" xmlns:xlink="http://www.w3.org/1999/xlink" x="0px" y="0px"
	 viewBox="0 0 712.8 2334.9" style="enable-background:new 0 0 712.8 2334.9;" xml:space="preserve">
<style type="text/css">
	.st0{fill:#FFFFFF;}
</style>
<path class="st0" d="M66.4,208.9c0,0-56.4,99.4-62.4,437.3l1.7,396.4l18.2,529.5l11.2,364.5c0,0-4.2,268.7,88.5,335.7
	c1,1.1,70.2,58.9,224.5,58.5c0,0,167.1-4.7,224.7-62.6c95.4-83.3,92-329,92-329l15.4-364.4l24.3-529.3l6.3-396.4
	c-2-337.9-57.3-438-57.3-438C578.4-1.9,358.4,1.3,358.4,1.3S158.5-13.1,66.4,208.9z"/>
</svg>
