<?xml version="1.0" encoding="utf-8"?>
<!-- Generator: Adobe Illustrator 26.3.1, SVG Export Plug-In . SVG Version: 6.00 Build 0)  -->
<svg version="1.1" id="Layer_1" xmlns="http://www.w3.org/2000/svg" xmlns:xlink="http://www.w3.org/1999/xlink" x="0px" y="0px"
	 viewBox="0 0 758.7 2261.1" style="enable-background:new 0 0 758.7 2261.1;" xml:space="preserve">
<style type="text/css">
	.st0{fill:#FFFFFF;}
</style>
<path class="st0" d="M6.1,513.5c-9,101.8,3,342.2,3,342.2c1,27.9,21,204.5,21,204.5c1,12,25.9,239.4,25.9,239.4
	c9,79.8,3,385.1,3,385.1L44,1997c-15,175.6,97.8,217.5,97.8,217.5c219.5,93.8,446.9,11,446.9,11c142.7-40.9,128.7-206.5,128.7-206.5
	c-1-9-15-244.4-15-244.4c-3-41.9-4-381.1-4-381.1c-3-54.9,27.9-326.2,27.9-326.2l23.9-254.4c16.1-276.2-7-368.1-7-368.1
	c-14.8-103.6-64.8-252.4-64.8-252.4C641.6,92.5,543.8,38.6,543.8,38.6C472-6.3,347.3,2.7,347.3,2.7S146.7-9.3,49,267.1
	C49,267.1,11.2,411.9,6.1,513.5z"/>
</svg>
