<?xml version="1.0" encoding="utf-8"?>
<!-- Generator: Adobe Illustrator 26.3.1, SVG Export Plug-In . SVG Version: 6.00 Build 0)  -->
<svg version="1.1" id="Layer_1" xmlns="http://www.w3.org/2000/svg" xmlns:xlink="http://www.w3.org/1999/xlink" x="0px" y="0px"
	 viewBox="0 0 720.2 2307" style="enable-background:new 0 0 720.2 2307;" xml:space="preserve">
<style type="text/css">
	.st0{fill:#FFFFFF;}
</style>
<path class="st0" d="M682.7,1597c-1.3,26.7-5.4,220.6-4,237.9c1.3,17.4,6.5,161.8,8,172.4c1.3,9.4,8.2,189.1-84.1,238
	c-92.7,49.2-172.1,63-293,57.4c-116-5.3-252.3-40.1-248.5-254c0,0-1-42.1-0.2-99.2c0.5-31.5,3.4-95.8,3.2-105.3
	c-2-75.2-1-330.8-22.8-512c0,0-48.3-466.5-37.6-655C14.3,494,53,304.9,109.7,176.6C159.8,72.8,218.9,5.2,341.2,0.3h0.1
	C346,0.1,350.8,0,355.6,0c3.4,0,6.7,0.1,10,0.2c118.5,4,193.7,82.7,239.2,172.1c0,0,0,0,0,0.1c13.2,25,89.9,177.2,102.7,363.3
	c0,0,22.5,357.8-0.3,566.3S684.1,1570.3,682.7,1597z"/>
</svg>
