<?xml version="1.0" encoding="utf-8"?>
<!-- Generator: Adobe Illustrator 26.3.1, SVG Export Plug-In . SVG Version: 6.00 Build 0)  -->
<svg version="1.1" id="Layer_1" xmlns="http://www.w3.org/2000/svg" xmlns:xlink="http://www.w3.org/1999/xlink" x="0px" y="0px"
	 viewBox="0 0 711.1 2216.3" style="enable-background:new 0 0 711.1 2216.3;" xml:space="preserve">
<style type="text/css">
	.st0{fill:#FFFFFF;}
</style>
<path class="st0" d="M125.4,138.6c-67.8,95.8-87.6,196.9-87.6,196.9C13.5,423.3,2.6,588.9,2.6,588.9c-1.2,89.1,2,165.6,2,165.6
	C4,761.8,18.7,928.1,18.7,928.1c0,6,26.2,304.6,26.2,304.6c3.8,22.6,12.1,212.8,12.1,212.8c1.3,20.6,1.3,231.4,1.3,231.4L57,1841.2
	l-0.6,160.9c-1.3,83.1,8.3,97.1,8.3,97.1c13.4,58.5,91.4,89.8,91.4,89.8c90.8,36.6,258.9,22,258.9,22c149-6,200.1-75.8,200.1-75.8
	c42.2-50.5,34.5-159.6,34.5-159.6c-0.6-8-1.3-167.6-1.3-167.6c0-12-1.3-240.1-1.3-240.1c-3.2-33.9,8.3-250.7,8.3-250.7
	c3.2-16,23-274.7,23-274.7l22.4-236.1l7-119.7c5.8-93.8-15.3-247.4-15.3-247.4c-17.9-141.7-60.1-217.5-60.1-217.5
	c-28.8-70.5-96.5-141-96.5-141C458.5-5.7,346,2.6,346,2.6s-40.9,0.3-80.6,15C265.4,17.6,195.7,36.2,125.4,138.6z"/>
</svg>
