<?xml version="1.0" encoding="utf-8"?>
<!-- Generator: Adobe Illustrator 26.3.1, SVG Export Plug-In . SVG Version: 6.00 Build 0)  -->
<svg version="1.1" id="Layer_1" xmlns="http://www.w3.org/2000/svg" xmlns:xlink="http://www.w3.org/1999/xlink" x="0px" y="0px"
	 viewBox="0 0 616.1 2311" style="enable-background:new 0 0 616.1 2311;" xml:space="preserve">
<style type="text/css">
	.st0{fill:#FFFFFF;}
</style>
<g>
	<g>
		<path class="st0" d="M614,879.5v-8.9c0.1-38.5,0.1-78.5-0.7-117.8c-0.5-27.7-1-56.5-1.4-79.7v-0.3c-0.5-27-0.9-51.1-1.3-75.7
			c-0.5-29.8-1.4-59.8-2.2-89v-0.2l-0.6-24.5c-0.7-27.6-1.5-56-3.6-83.9c-0.8-10-1.8-19.9-2.8-29.6l-0.4-3.7
			c-0.5-4.8-1.1-9.9-1.5-14l-0.2-1.7c-0.5-3.8-0.9-7.8-1.3-11.6c-0.4-3.7-0.7-7.4-1.1-11l-0.2-1.9c-0.5-5-0.9-10.2-1.5-15.4
			c-2.8-23.8-6.4-45.2-11.1-65.7c-7.5-32.1-17.2-60.2-29.8-86.2c-15.5-32.2-34.3-59-57.3-81.8C466,46.3,428.9,25,386.5,13.2
			c-19.9-5.4-38.4-8.5-56.9-9.2c-9.7-0.4-19.4-0.4-28.1-0.5h-1.1c-23,0-45.7,3-67.8,8.9c-52.3,14-96.4,42.1-131,83.6
			c-19.2,22.9-34.8,49-47.8,79.8c-10.3,24.4-18.2,50.6-24.5,80c-3.9,18.9-7.1,38.8-9.5,61c-0.7,6.3-1.3,12.7-1.9,18.9v0.4
			c-0.9,8.5-1.8,18-2.9,27.3c-2.4,20.2-3.9,38.4-4.7,55.7c-0.7,14.8-1.2,29.8-1.6,44.3l-0.4,11.1C8,486,7.6,498.6,7.2,515.4
			l-0.5,18.4c-0.6,25.9-1.3,52.6-1.9,79.3c-0.5,26.3-0.9,52.5-1.2,74.7c-0.2,10.7-0.3,21.5-0.5,32.1v0.5v0.2v0.1
			c-0.5,27.7-0.9,59-1,89.2C2,889.4,2,969.4,2.1,1058.1l0.1,67.7c0.2,144.5,0.3,294,0.6,441l0.1,32.8c0.1,69.2,0.2,140.8,2,211.2
			c0.4,16.3,0.8,29.5,1.2,41.8c0.2,7.9,0.5,15.6,0.9,23c0.7,13.2,1.5,26.2,2.3,39.5c0.3,5.2,0.7,10.4,1,15.6l0.2,2.3
			c0.3,4.4,0.6,8.8,0.9,13.1c0.2,2.2,0.3,4.3,0.5,6.5l0.2,3.7c0.7,9.8,1.3,18.7,1.6,27.6c0.5,14.4,2.2,28.8,4.7,42.7
			c5.4,29.2,13.9,58,25.3,85.8c15.5,38.4,34.5,70.8,58.1,99c23.7,28.5,51.2,51,81.8,66.9c34.8,18.2,72.5,27.7,115.2,29
			c2.9,0.1,6,0.2,9.2,0.2c7.3,0,14.6-0.2,22.1-0.8c15.8-1.1,31.1-3.4,45.2-6.9c47.2-11.4,88.9-35.3,123.9-71.3
			c21.3-21.9,39.3-47,55.1-76.9c19.9-37.5,34.2-78.6,42.8-121.8c2.9-14.4,4.4-26.6,4.9-38.1c0.5-11.8,1.1-22.6,1.8-32.7
			c0.5-8.1,1.2-16.4,1.6-23.1c0.8-10.2,1.6-21.9,2.2-33c1.2-20.7,2.1-39,2.6-56.2c0.7-22.5,1.3-47.2,1.9-77.9
			c0.4-20.9,0.6-42.5,0.7-66.2l0.2-36.3c0.3-80.7,0.6-172.1,0.8-260.4c0.1-57.9,0.1-116.6,0.1-173.4v-3.3c0-22.4,0-44.7,0-67.1v-5
			h0.3v-1.6c0-24.6,0-49.2,0-73.9v-2.2c0-53.6,0-114.3,0-172.9C613.9,897.5,614,888.6,614,879.5z"/>
	</g>
</g>
</svg>
