<?xml version="1.0" encoding="utf-8"?>
<!-- Generator: Adobe Illustrator 26.3.1, SVG Export Plug-In . SVG Version: 6.00 Build 0)  -->
<svg version="1.1" id="Layer_2" xmlns="http://www.w3.org/2000/svg" xmlns:xlink="http://www.w3.org/1999/xlink" x="0px" y="0px"
	 viewBox="0 0 648 2291.3" style="enable-background:new 0 0 648 2291.3;" xml:space="preserve">
<style type="text/css">
	.st0{fill:#FFFFFF;}
</style>
<path class="st0" d="M328.3,3c0,0,71.8-3,126.4,29.2c0,0,75.8,38.9,129,174.4c0,0,58.6,100.1,61.7,462.3
	c1.3,151.6-12,803.4-12,803.4l-14.6,313.9c0,0-9.3,203.5-12,224.8c-2.5,20-14.6,147.6-111,233c0,0-38.6,42.9-175.6,44.3
	c0,0-216.8,21.5-283.3-214.6c0,0-20-69.7-21.3-244.1L2.4,1020.7V681.3c0,0,4-280.3,41.2-413.1C43.7,268.2,123.5-7.8,328.3,3z"/>
</svg>
