<?xml version="1.0" encoding="utf-8"?>
<!-- Generator: Adobe Illustrator 26.3.1, SVG Export Plug-In . SVG Version: 6.00 Build 0)  -->
<svg version="1.1" id="Layer_1" xmlns="http://www.w3.org/2000/svg" xmlns:xlink="http://www.w3.org/1999/xlink" x="0px" y="0px"
	 viewBox="0 0 738.4 2340" style="enable-background:new 0 0 738.4 2340;" xml:space="preserve">
<style type="text/css">
	.st0{fill:#7900FF;}
	.st1{fill:#005EFF;}
	.st2{fill:#00FF00;}
	.st3{fill:#ED1E77;}
</style>
<g>
	<g>
		<g>
			<g>
				<g>
					<g>
						<path class="st0" d="M388.9,2339.5c-11.2,0-21.7-0.2-31.3-0.6c-45.8-1.5-82.9-5.4-116.8-12.1c-43.7-8.7-79.8-25.5-110.3-51.4
							c-36.4-30.9-58.8-69.5-66.4-114.7c-5.1-30.4-9.9-62.4-14.7-97.8c-1.6-11.9-1.9-24.1-2.2-35.9l-0.1-3.2
							c-0.1-3.6-0.2-7.1-0.3-10.7c-0.1-3.5-0.1-6.9-0.2-10.4c-0.7-26.6-1.4-56.8-1.4-86.7c0.1-31,0.5-64.5,1.2-108.6
							c0.3-16.9,0.5-34.5,0.7-51.5l0.3-23.1c0.3-18.4,0.6-39.3,0.3-59.4c-0.4-24.2-1.3-48.9-2.1-72.8L44,1555
							c-0.1-2.1-0.1-4.1-0.2-6.1c-0.1-2.1-0.2-4.1-0.2-6.2L43,1521c-0.4-12.7-0.8-25.8-1.1-38.8c-0.4-14.8-0.9-29.9-1.3-45
							l-0.8-29.3c-0.2-6.1-0.4-11.9-0.5-17.9c-0.6-21.9-1.3-45.3-2.5-67.8c-1.2-24.7-2.9-49.6-4.4-71.1l-3.9-60.6
							c-1-15.8-2.1-33.5-3.5-54.1l-0.9-12.6c-0.7-10.5-1.4-20.9-2.1-31.1c-0.4-6.1-0.9-12.3-1.3-18.4s-0.8-12.2-1.3-18.4
							c-0.7-9.7-1.3-19.5-1.9-29.1l-0.3-5.1c-0.3-5.2-0.7-10.5-1-15.7c-0.3-5.3-0.7-10.5-1-15.8l-2.7-39c-1-13.8-2-28-2.9-42
							c-0.1-2-0.3-4-0.4-6c-0.1-2-0.2-3.9-0.4-5.9L8.4,892c-0.8-11.7-1.6-23.8-2-35.6l-0.6-15.8C4.2,798,2.4,752.5,1.3,707.5
							c-1-43-1.5-78.9-0.6-114.6c1.6-61.8,9.1-127,22.8-199.3c6.6-34.7,14.1-73.9,26.1-112.1c21.4-68.4,50.2-124.1,87.9-170.3
							c23.2-28.5,48.7-51.6,75.7-68.9c28.5-18.3,60.2-30.9,94.2-37.4c29.2-5.6,60.3-6,95-1.2c58.1,7.9,111.1,33.5,161.8,78.2
							c30.8,27.2,51.3,51.2,66.6,78c14.4,25.1,26.2,51,35.1,76.8c11.9,34.4,24.6,71.6,36.4,110.3c8.5,27.6,12.4,56.4,16.2,84.4
							l0.1,0.4c0.7,4.7,1.3,9.5,2,14.4l1,7.2c3.8,26.2,6.9,53.2,9.5,76.6l0.2,2.1c1.3,11.7,1.8,23.4,2.2,34.3
							c0.8,20.5,1.4,42.2,2.2,70.4c0.6,21.3,1.2,43.9,1.7,65.2c0.1,4.7,0.2,9.4,0.4,14.1c0.1,4.6,0.2,9.1,0.3,13.7v0.2v0.1
							c-0.1,5.4-0.3,10.8-0.4,16.1c-0.1,5.4-0.2,10.8-0.4,16.2l-0.2,6.7c-0.5,22.1-1.1,44.9-1.8,67.3c-0.9,28.3-2.1,58.2-3.9,97.2
							c-0.7,15.7-1.5,31.5-2.3,47.2c-0.6,11.8-1.2,23.5-1.7,35.1c-0.3,6.2-0.6,12.5-0.9,18.7c-0.3,6.3-0.7,12.6-1,18.9l-0.1,1.4
							c-0.5,8.9-0.9,18.2-1.3,27.3c-1.4,26.9-2.5,50.2-3.5,71c-0.8,17.6-1.5,35.6-2.1,53l-0.2,6.2c-0.2,7-0.5,14.1-0.8,21
							c-0.5,14.3-1,28.6-1.5,42.8c-0.5,14.3-1,28.6-1.5,42.9l-0.9,23.9c-0.3,8.7-0.6,17.4-0.9,26c-0.6,19.8-1.4,38.7-2.1,56.2
							c-3,66.2-3,131-2.6,185.6v3.7c0.2,27.3,0.4,55.6,1,83.2c0.7,34.5,1.6,71,2.9,118.5c0.4,15,0.9,30.1,1.4,44.2
							c0.1,4.9,0.3,9.8,0.5,14.7c0.4,11.7,0.8,23.9,1,35.8v0.2c0.2,7.3,0.4,14.8,0.7,22.2c0.7,20.8,1.4,44.4,0.9,67.3v0.3
							c-0.9,39-1.9,83.1-10.7,126c-8.5,41.2-22.4,76.1-42.6,107c-15.8,24.2-37.7,39.9-58.9,53.4c-33.9,21.5-73.9,36.3-122.3,45.1
							C453.9,2337.2,423.5,2339.5,388.9,2339.5z M356.6,5c-16.8,0-32.9,1.5-48.3,4.4c-33.4,6.4-64.6,18.8-92.6,36.8
							C189,63.1,163.9,86,141,114.1c-37.4,45.8-65.9,101-87.1,168.9C42,320.8,34.6,360,28,394.5c-13.7,72-21.2,137-22.8,198.5
							c-0.9,35.6-0.4,71.5,0.6,114.4c1.1,45,2.8,90.4,4.5,133.2l0.6,15.8c0.4,11.8,1.3,23.8,2,35.5l0.4,5.3c0.1,2,0.3,4,0.4,6
							c0.1,2,0.2,3.9,0.4,5.9c0.9,14,1.9,28.2,2.9,42l2.7,39c0.4,5.3,0.7,10.5,1,15.8c0.3,5.2,0.6,10.5,1,15.7l0.3,5.1
							c0.6,9.5,1.2,19.3,1.9,29c0.4,6.1,0.9,12.3,1.3,18.4s0.8,12.2,1.3,18.4c0.7,10.2,1.4,20.7,2.1,31.2l0.9,12.6
							c1.4,20.6,2.5,38.3,3.5,54.1l3.9,60.6c1.5,21.5,3.2,46.4,4.4,71.1c1.2,22.6,1.9,46,2.5,68c0.1,6,0.3,11.7,0.5,17.8v0.6
							l0.8,28.7c0.4,15.1,0.9,30.2,1.3,45.1c0.3,13,0.7,26.1,1.1,38.8l0.6,21.6c0,2.1,0.1,4.1,0.2,6.1c0.1,2.1,0.2,4.1,0.2,6.2
							l1.5,45.5c0.8,23.9,1.6,48.7,2.1,72.9c0.3,20.2,0,41.1-0.3,59.6l-0.3,23c-0.2,17-0.4,34.7-0.7,51.6
							c-0.7,44.2-1.1,77.6-1.2,108.6c0,29.8,0.7,59.9,1.4,86.5c0.1,3.5,0.2,7,0.2,10.5c0.1,3.6,0.2,7.1,0.3,10.6l0.1,3.2
							c0.3,11.7,0.6,23.8,2.2,35.4c4.8,35.3,9.6,67.3,14.7,97.6c7.4,44.2,29.2,81.9,64.8,112.1c29.9,25.4,65.3,41.9,108.3,50.4
							c33.7,6.7,70.6,10.6,116.1,12.1c9.6,0.4,20,0.6,31.1,0.6c34.3,0,64.5-2.3,92.1-7.2c47.8-8.7,87.3-23.3,120.7-44.5
							c20.8-13.2,42.2-28.6,57.5-52c19.9-30.3,33.6-64.8,42-105.4c8.7-42.5,9.8-86.5,10.6-125.2v-0.3c0.5-22.8-0.2-46.3-0.9-67.1
							c-0.3-7.3-0.5-14.9-0.7-22.2v-0.2c-0.3-11.9-0.7-24-1-35.8c-0.2-4.9-0.3-9.9-0.5-14.7c-0.5-14.1-1-29.2-1.4-44.2
							c-1.3-47.5-2.2-84-2.9-118.5c-0.6-27.7-0.8-55.9-1-83.3v-3.7c-0.4-54.6-0.4-119.5,2.6-185.8c0.7-17.5,1.5-36.4,2.1-56.2
							c0.3-8.6,0.6-17.3,0.9-26l0.9-23.9c0.5-14.3,1-28.6,1.5-42.9s1-28.5,1.5-42.8c0.3-6.9,0.6-14,0.8-21l0.2-6.2
							c0.6-17.4,1.3-35.4,2.1-53.1c1-20.9,2.1-44.1,3.5-71c0.4-9.1,0.9-18.4,1.3-27.3l0.1-1.4c0.3-6.3,0.6-12.6,1-18.9
							c0.3-6.2,0.6-12.5,0.9-18.7c0.6-11.6,1.1-23.3,1.7-35.1c0.8-15.7,1.5-31.6,2.3-47.2c1.8-39,3-68.9,3.9-97.2
							c0.7-22.3,1.3-45.2,1.8-67.2l0.2-6.7c0.1-5.4,0.3-10.8,0.4-16.1c0.1-5.4,0.2-10.8,0.4-16.2c-0.1-4.6-0.2-9.2-0.3-13.8
							c-0.1-4.7-0.3-9.4-0.4-14.1c-0.5-21.3-1.1-43.9-1.7-65.2c-0.8-28.2-1.4-49.9-2.2-70.4c-0.4-10.9-0.9-22.5-2.2-34l-0.2-2.1
							c-2.6-23.3-5.7-50.3-9.5-76.4l-1-7.2c-0.7-4.8-1.3-9.6-2-14.4l-0.1-0.4c-3.8-27.8-7.7-56.5-16.1-83.7
							c-11.8-38.6-24.5-75.7-36.4-110.1c-8.8-25.5-20.5-51.1-34.7-76c-15-26.3-35.2-50-65.6-76.8C511,41.2,458.8,16,401.6,8.2
							C386.1,6.1,371,5,356.6,5z"/>
					</g>
				</g>
			</g>
			<g>
				<g>
					<g>
						<path class="st1" d="M427.5,575.2c-5.7,0-10.2-4.5-10.2-10s4.6-10,10.2-10s10.2,4.5,10.2,10S433.1,575.2,427.5,575.2z
							 M427.5,559.8c-3.2,0-5.8,2.4-5.8,5.5s2.6,5.5,5.8,5.5s5.8-2.4,5.8-5.5S430.7,559.8,427.5,559.8z"/>
					</g>
				</g>
				<g>
					<g>
						<path class="st1" d="M312.9,575.2c-5.7,0-10.2-4.5-10.2-10s4.6-10,10.2-10s10.2,4.5,10.2,10S318.5,575.2,312.9,575.2z
							 M312.9,559.8c-3.2,0-5.8,2.4-5.8,5.5s2.6,5.5,5.8,5.5s5.8-2.4,5.8-5.5S316.1,559.8,312.9,559.8z"/>
					</g>
				</g>
				<g>
					<g>
						<path class="st1" d="M427.5,428.6c-5.7,0-10.2-4.5-10.2-10s4.6-10,10.2-10s10.2,4.5,10.2,10S433.1,428.6,427.5,428.6z
							 M427.5,413.2c-3.2,0-5.8,2.4-5.8,5.5s2.6,5.5,5.8,5.5s5.8-2.4,5.8-5.5S430.7,413.2,427.5,413.2z"/>
					</g>
				</g>
				<g>
					<g>
						<path class="st1" d="M312.9,428.6c-5.7,0-10.2-4.5-10.2-10s4.6-10,10.2-10s10.2,4.5,10.2,10S318.5,428.6,312.9,428.6z
							 M312.9,413.2c-3.2,0-5.8,2.4-5.8,5.5s2.6,5.5,5.8,5.5s5.8-2.4,5.8-5.5S316.1,413.2,312.9,413.2z"/>
					</g>
				</g>
			</g>
			<g>
				<g>
					<g>
						<path class="st1" d="M427.5,1813.8c-5.7,0-10.2-4.5-10.2-9.9s4.6-10,10.2-10s10.2,4.5,10.2,10S433.1,1813.8,427.5,1813.8z
							 M427.5,1798.4c-3.2,0-5.8,2.4-5.8,5.5s2.6,5.4,5.8,5.4s5.8-2.4,5.8-5.4S430.7,1798.4,427.5,1798.4z"/>
					</g>
				</g>
				<g>
					<g>
						<path class="st1" d="M312.9,1813.8c-5.7,0-10.2-4.5-10.2-9.9s4.6-10,10.2-10s10.2,4.5,10.2,10S318.5,1813.8,312.9,1813.8z
							 M312.9,1798.4c-3.2,0-5.8,2.4-5.8,5.5s2.6,5.4,5.8,5.4s5.8-2.4,5.8-5.4S316.1,1798.4,312.9,1798.4z"/>
					</g>
				</g>
				<g>
					<g>
						<path class="st1" d="M427.5,1667.2c-5.7,0-10.2-4.5-10.2-10s4.6-9.9,10.2-9.9s10.2,4.5,10.2,9.9S433.1,1667.2,427.5,1667.2z
							 M427.5,1651.8c-3.2,0-5.8,2.4-5.8,5.4s2.6,5.5,5.8,5.5s5.8-2.4,5.8-5.5S430.7,1651.8,427.5,1651.8z"/>
					</g>
				</g>
				<g>
					<g>
						<path class="st1" d="M312.9,1667.2c-5.7,0-10.2-4.5-10.2-10s4.6-9.9,10.2-9.9s10.2,4.5,10.2,9.9S318.5,1667.2,312.9,1667.2z
							 M312.9,1651.8c-3.2,0-5.8,2.4-5.8,5.4s2.6,5.5,5.8,5.5s5.8-2.4,5.8-5.5S316.1,1651.8,312.9,1651.8z"/>
					</g>
				</g>
			</g>
		</g>
	</g>
	<g>
		<g>
			<g>
				<path class="st2" d="M387.3,2306c-9.2,0-18.8-0.2-28.6-0.5c-41.3-1.4-75.2-5.2-106.8-11.8c-39.8-8.4-72.7-24.7-100.6-49.9
					c-33.2-30-53.5-67.4-60.4-111.1c-4.8-30.8-9.2-61.8-13.4-94.9c-1.4-10.8-1.7-21.8-1.9-32.5l-0.2-5.6c-0.1-6.6-0.3-13.1-0.5-19.9
					v-0.6l-0.2-7.7c-0.6-25.1-1.1-51-1-76.5c0.1-33.9,0.6-67.9,1.1-105.6c0.1-8.3,0.2-16.8,0.3-25.2c0.1-8.9,0.3-17.8,0.4-26.7
					l0.3-20.6c0.3-17.9,0.6-38.3,0.3-57.9c-0.4-23.9-1.2-50.3-2.2-80.9c-0.2-5.7-0.4-11.4-0.5-17.1c-0.2-5.7-0.4-11.4-0.5-17.1
					c-0.1-3.7-0.2-7.8-0.4-11.9l-0.6-19.8c-0.4-13-0.7-26.2-1-39c-0.6-24.4-1.4-49.8-2-71.7c-0.1-3-0.2-5.9-0.2-8.9
					c-0.1-3-0.2-6-0.3-9l-0.1-2.7c-0.6-20.7-1.2-42.2-2.2-63.3c-1-20.4-2.3-41.1-3.5-61.1l-0.5-7.9c-0.7-10.4-1.3-21-1.9-31.2
					c-0.6-8.9-1.1-17.8-1.6-27.7c-0.9-15.1-1.9-32.3-3.2-52.6l-0.2-3.9c-0.8-12.8-1.6-26-2.6-38.6v-0.2c-0.8-11.7-1.6-23.7-2.3-35.6
					c-0.6-9.2-1.3-21.4-2-33.1c-0.6-10-1.2-20.4-1.9-30.6l-0.1-2.3c-0.7-11.7-1.5-23.8-2.4-35.6c-0.9-13.3-1.8-27.1-2.6-40.9
					c-0.1-2-0.2-3.9-0.3-5.8c-0.1-1.9-0.3-3.9-0.4-5.8c-1-15-1.8-28-2.2-39.7l-1-25c-1.4-39.3-2.8-79.9-3.8-119.7
					c-1-43.8-1.4-77.7-0.5-111.4c1.4-59.8,8.2-123.2,20.9-193.6c5.6-31.7,12.7-71.1,23.7-108.9c19.7-66.4,46-120.5,80.4-165.4
					c20.9-27.4,44.2-49.8,69-66.8c26.3-17.9,55.2-30.1,86-36.2c26.6-5.3,54.9-5.7,86.7-1.2c53,7.8,101.2,32.7,147.4,76.1
					c28.1,26.4,46.8,49.7,60.7,75.6c13.3,24.8,24.1,49.9,32,74.4c10.9,33.7,22.5,69.7,33.3,107.1c7.7,26.7,11.3,54.8,14.8,81.9
					l0.6,4.3c0.7,5.6,1.5,11.3,2.3,17c3.4,24.7,6.1,50.3,8.6,74.4l0.2,2c1.2,11.2,1.6,22.5,2,33.4c0.7,21.5,1.4,44.5,2.1,68.4
					c0.5,18.3,1,37,1.4,55.1l0.2,8.9c0.2,8.7,0.4,17.7,0.7,26.5v0.1c-0.3,10.7-0.5,21.3-0.7,31.4c-0.5,24.9-1.1,49-1.8,71.8
					c-0.8,28-1.9,57.1-3.6,94.5l-0.4,9.1c-1.1,23.4-2.1,47.7-3.3,70.9c-0.6,11.9-1.2,24.3-1.7,36.6c-0.2,4.6-0.4,9.3-0.6,13.9
					c-0.2,4.7-0.5,9.3-0.7,14c-1.3,25.8-2.3,48.4-3.2,69c-0.8,18.1-1.5,37.4-2.1,57.5c-0.1,3.4-0.2,6.8-0.4,10.2
					c-0.1,3.4-0.2,6.8-0.3,10.2c-1,29-2,59.1-2.8,83.3l-0.8,23.3c-0.3,9.4-0.6,17.2-0.8,25.3l-0.3,8.1c-0.5,15.3-1,31.1-1.6,46.6
					c-2.6,63.1-2.7,124-2.4,180.4v4.3c0.2,26.3,0.4,53.5,0.9,80.3c0.6,35.4,1.5,70.1,2.5,106.9l0.3,11.3c0.4,13.2,0.8,26.9,1.2,40
					c0.5,15.8,1,32.6,1.4,49l0.7,25.7c0.6,20.2,1.2,41,0.7,61.5c-0.8,35.8-1.7,80.4-9.8,122.6c-7.7,39.8-20.5,73.8-38.9,103.7
					c-14.3,23.2-34.2,38.6-53.6,51.8c-31,20.9-67.5,35.2-111.6,43.7C446.9,2303.6,419.1,2306,387.3,2306z M358,36.6
					c-15.5,0-30.2,1.4-44.4,4.3C283.2,47,254.7,59,228.7,76.7c-24.6,16.8-47.6,39.1-68.4,66.2c-34.2,44.6-60.3,98.4-79.8,164.4
					c-11,37.6-18,76.9-23.7,108.5C44.4,486,37.6,549.2,36.2,608.9c-0.9,33.6-0.4,67.5,0.5,111.2c0.9,39.8,2.4,80.4,3.8,119.7
					l0.3,9.7l0.6,15.4c0.4,11.7,1.2,24.6,2.2,39.7c0.1,2,0.2,3.9,0.4,5.8c0.1,1.9,0.3,3.9,0.4,5.8c0.8,13.8,1.7,27.5,2.6,40.9
					c0.8,11.8,1.6,23.9,2.4,35.6l0.1,2.3c0.7,10.2,1.3,20.6,1.9,30.6c0.7,11.7,1.4,23.8,2,33.1c0.7,11.9,1.5,23.9,2.3,35.5v0.1
					c0.9,12.6,1.7,25.8,2.6,38.6l0.2,3.9c1.3,20.3,2.3,37.5,3.2,52.6c0.5,9.9,1,18.8,1.6,27.7c0.6,10.2,1.2,20.8,1.9,31.2l0.5,8
					c1.2,20,2.5,40.8,3.5,61.2c1.1,21.1,1.7,42.6,2.2,63.3l0.1,2.7c0.1,3,0.2,6,0.3,9c0.1,3,0.1,5.9,0.2,8.9
					c0.6,21.9,1.4,47.3,2,71.7c0.3,12.8,0.6,26,1,39l0.6,19.8c0.2,4.1,0.3,8.2,0.4,11.9c0.2,5.7,0.4,11.4,0.5,17.1
					c0.2,5.7,0.4,11.4,0.5,17.1c1,30.6,1.8,57,2.2,80.9c0.3,19.6,0,40-0.3,58l-0.3,20.6c-0.1,8.8-0.2,17.8-0.4,26.7
					c-0.1,8.5-0.2,16.9-0.3,25.2c-0.5,37.7-1,71.7-1.1,105.6c-0.1,25.5,0.5,51.4,1,76.5l0.2,8.3c0.2,6.8,0.4,13.3,0.5,19.9l0.2,5.6
					c0.3,10.6,0.5,21.5,1.9,32.1c4.2,33.1,8.6,64.1,13.4,94.9c6.7,43,26.7,79.8,59.4,109.3c27.5,24.8,60,40.9,99.2,49.1
					c31.4,6.6,65.2,10.4,106.2,11.8c9.7,0.3,19.3,0.5,28.4,0.5c31.6,0,59.3-2.3,84.5-7.1c43.7-8.5,79.8-22.6,110.4-43.3
					c19.1-13,38.8-28.1,52.8-50.8c18.2-29.6,30.8-63.2,38.5-102.7c8.1-42,9-86.5,9.8-122.1c0.5-20.4-0.1-41.2-0.7-61.4l-0.7-25.7
					c-0.4-16.4-0.9-33.2-1.4-49c-0.5-13.1-0.8-26.8-1.2-40.1l-0.3-11.3c-0.9-36.8-1.8-71.5-2.5-106.9c-0.5-26.8-0.7-54-0.9-80.3
					v-4.3c-0.3-56.4-0.2-117.4,2.4-180.6c0.6-15.5,1.1-31.3,1.6-46.6l0.3-8c0.2-8.1,0.5-15.9,0.8-25.3l0.8-23.3
					c0.8-24.2,1.8-54.3,2.8-83.3c0.1-3.4,0.2-6.8,0.4-10.2c0.1-3.4,0.2-6.8,0.3-10.2c0.6-20.1,1.3-39.5,2.1-57.5
					c0.9-20.6,1.9-43.2,3.2-69c0.2-4.7,0.4-9.3,0.7-14c0.2-4.6,0.4-9.3,0.6-13.9c0.5-12.3,1.1-24.7,1.7-36.6
					c1.2-23.2,2.2-47.5,3.3-70.9l0.4-9.1c1.7-37.4,2.8-66.5,3.6-94.5c0.7-22.8,1.3-46.9,1.8-71.8c0.2-10.2,0.4-20.7,0.7-31.4
					c-0.3-8.8-0.5-17.8-0.7-26.5l-0.2-8.9c-0.4-18.1-0.9-36.8-1.4-55.1c-0.7-23.9-1.4-46.9-2.1-68.4c-0.4-10.9-0.8-22.1-2-33.2
					l-0.2-2c-2.5-24-5.2-49.6-8.6-74.2c-0.8-5.7-1.6-11.4-2.3-17l-0.6-4.3c-3.5-27-7.1-55-14.7-81.5
					c-10.9-37.4-22.4-73.4-33.3-107.1c-7.9-24.4-18.6-49.3-31.8-74c-13.8-25.6-32.3-48.7-60.1-74.8c-45.8-43-93.5-67.6-145.8-75.3
					C384.9,37.6,371.2,36.6,358,36.6z"/>
			</g>
		</g>
	</g>
	<g>
		<g>
			<g>
				<g>
					<path class="st3" d="M385,2262.7h-0.1c-4.8,0-9.7-0.1-14.5-0.2l0.2-9c4.8,0.1,9.6,0.2,14.4,0.2h0.3L385,2262.7z M399.8,2262.7
						l-0.3-9c4.7-0.1,9.5-0.4,14.3-0.7l0.7,9C409.5,2262.3,404.6,2262.5,399.8,2262.7z M355.8,2262c-4.9-0.2-9.8-0.5-14.6-0.8l0.6-9
						c4.7,0.3,9.6,0.6,14.4,0.8L355.8,2262z M429.1,2260.4l-1.1-8.9c4.7-0.6,9.4-1.2,14.2-2l1.5,8.9
						C438.8,2259.2,433.9,2259.9,429.1,2260.4z M326.7,2260.1c-4.9-0.4-9.8-0.9-14.5-1.5l1-8.9c4.6,0.5,9.5,1,14.3,1.5L326.7,2260.1
						z M297.7,2256.7c-5-0.7-9.8-1.5-14.5-2.4l1.6-8.9c4.5,0.8,9.3,1.6,14.1,2.3L297.7,2256.7z M458,2255.7l-1.8-8.8
						c4.7-1,9.4-2.1,13.9-3.2l2.2,8.7C467.7,2253.6,462.8,2254.7,458,2255.7z M268.8,2251.4c-0.9-0.2-1.8-0.4-2.7-0.6
						c-3.9-0.9-7.8-1.9-11.6-3l2.5-8.6c3.6,1.1,7.4,2,11.1,2.8h0.1c0.9,0.2,1.7,0.4,2.6,0.6L268.8,2251.4z M486.5,2248.4l-2.6-8.6
						c4.6-1.4,9.1-2.9,13.5-4.5l3,8.5C495.9,2245.4,491.2,2247,486.5,2248.4z M240.5,2243.1c-4.6-1.8-9.2-3.7-13.7-5.8l3.9-8.1
						c4.2,2,8.6,3.9,13,5.5L240.5,2243.1z M514.2,2238.4l-3.5-8.3c4.5-1.9,8.8-3.9,12.9-5.9l4,8.1
						C523.3,2234.4,518.8,2236.5,514.2,2238.4z M213.7,2230.4c-4.3-2.5-8.5-5.2-12.5-8l5.1-7.4c3.8,2.7,7.9,5.2,11.9,7.6
						L213.7,2230.4z M540.6,2225.2l-4.6-7.7c4.2-2.5,8.1-5,11.8-7.7l5.2,7.3C549.2,2219.9,545,2222.6,540.6,2225.2z M189.3,2213.5
						c-3.8-3.1-7.5-6.5-11.1-9.9l6.3-6.5c3.4,3.3,6.9,6.4,10.5,9.4L189.3,2213.5z M564.8,2208.3l-5.5-7.1c4.1-3.2,7.6-6.1,10.9-9
						l6,6.7C572.7,2201.9,569,2205,564.8,2208.3z M168,2192.8c-3.3-3.7-6.4-7.6-9.3-11.5l7.2-5.4c2.8,3.8,5.8,7.5,8.9,11L168,2192.8
						z M586.9,2188.5l-6.5-6.2c3.3-3.5,6.3-7,9.1-10.7l7.2,5.4C593.6,2181,590.3,2184.8,586.9,2188.5z M150.3,2169
						c-2.6-4.2-5.1-8.5-7.4-12.9l8-4.2c2.2,4.2,4.5,8.3,7,12.2L150.3,2169z M604.9,2164.7l-7.8-4.6c0.4-0.7,0.9-1.5,1.3-2.2
						c1.9-3.3,3.7-6.8,5.4-10.2l8.1,4c-1.8,3.6-3.7,7.2-5.6,10.6C605.9,2163.1,605.4,2163.9,604.9,2164.7z M136.6,2142.8
						c-1.9-4.5-3.7-9.2-5.3-13.9l8.5-2.9c1.5,4.5,3.2,8.9,5,13.2L136.6,2142.8z M618.1,2138.3l-8.3-3.6c1.9-4.3,3.6-8.7,5.3-13.2
						l8.4,3.2C621.9,2129.3,620,2133.9,618.1,2138.3z M127.2,2114.7c-1.2-4.8-2.2-9.6-3-14.5l8.9-1.5c0.8,4.6,1.8,9.3,2.9,13.8
						L127.2,2114.7z M628.4,2110.8l-8.6-2.8c1.4-4.4,2.8-9.1,4.1-13.7l8.7,2.4C631.3,2101.5,629.9,2106.2,628.4,2110.8z
						 M122.1,2085.7c-0.7-4.8-1.3-9.5-2-14.4l8.9-1.2c0.6,4.8,1.3,9.6,2,14.3L122.1,2085.7z M636.2,2082.5l-8.8-2
						c1.1-4.5,2.1-9.3,3-14l8.8,1.7C638.3,2073,637.3,2077.8,636.2,2082.5z M118.2,2057c-0.6-4.7-1.2-9.5-1.8-14.4l8.9-1.1
						c0.6,4.8,1.2,9.6,1.8,14.3L118.2,2057z M641.8,2053.8l-8.9-1.4c0.7-4.6,1.4-9.4,2-14.2l8.9,1.2
						C643.2,2044.2,642.5,2049.1,641.8,2053.8z M114.6,2028.2c-0.6-4.7-1.2-9.5-1.7-14.4l8.9-1.1c0.6,4.8,1.2,9.6,1.7,14.4
						L114.6,2028.2z M645.5,2024.8l-9-0.9c0.5-4.7,0.9-9.5,1.3-14.3l9,0.7C646.5,2015.2,646,2020.1,645.5,2024.8z M111.2,1999.3
						c-0.4-4.3-0.7-9-0.9-14.7l9-0.3c0.2,5.5,0.5,10,0.9,14.2L111.2,1999.3z M647.8,1995.7l-9-0.5c0.3-4.7,0.5-9.5,0.7-14.4l9,0.4
						C648.4,1986.1,648.1,1991,647.8,1995.7z M109.8,1970.1c0-1.4-0.1-2.7-0.1-4.1c-0.1-3.5-0.2-6.9-0.3-10.4l9-0.2
						c0.1,3.5,0.2,6.9,0.3,10.4c0,1.4,0.1,2.7,0.1,4.1L109.8,1970.1z M649,1966.6l-9-0.2c0.1-4.6,0.2-9.5,0.2-14.4l9,0.1
						C649.2,1957.1,649.1,1962,649,1966.6z M109.1,1941.1c-0.1-4.8-0.2-9.7-0.3-14.5l9-0.1c0.1,4.8,0.2,9.6,0.3,14.5L109.1,1941.1z
						 M640.3,1937.6c0-4.8,0-9.6-0.1-14.4l9-0.1c0,4.8,0.1,9.7,0.1,14.5H640.3z M108.6,1912.1c-0.1-4.8-0.1-9.7-0.1-14.5l9-0.1
						c0,4.8,0.1,9.6,0.1,14.5L108.6,1912.1z M640,1908.7c-0.1-4.8-0.2-9.7-0.3-14.5l9-0.2c0.1,4.8,0.2,9.6,0.3,14.5L640,1908.7z
						 M108.3,1883.1c0-4.8,0-9.7,0-14.5h9c0,4.8,0,9.6,0,14.5H108.3z M639.4,1879.7v-1.7c-0.1-4.3-0.2-8.5-0.3-12.7l9-0.2
						c0.1,4.2,0.2,8.5,0.3,12.7v1.7L639.4,1879.7z M117.3,1854.1h-9c0-4.8,0-9.7,0-14.5h9C117.3,1844.5,117.3,1849.3,117.3,1854.1z
						 M638.7,1850.8l-0.4-14.5l9-0.2l0.4,14.5L638.7,1850.8z M117.4,1825.2l-9-0.1c0-4.8,0.1-9.7,0.1-14.5l9,0.1
						C117.5,1815.5,117.4,1820.4,117.4,1825.2z M638,1821.8l-0.4-14.5l9-0.2l0.4,14.5L638,1821.8z M117.7,1796.2l-9-0.1
						c0-4.8,0.1-9.7,0.2-14.5l9,0.1C117.8,1786.6,117.7,1791.4,117.7,1796.2z M637.3,1792.9l-0.4-14.5l9-0.2l0.4,14.5L637.3,1792.9z
						 M118,1767.3l-9-0.1l0.2-14.5l9,0.1L118,1767.3z M636.5,1763.9c-0.1-4.8-0.2-9.7-0.4-14.5l9-0.2c0.1,4.8,0.2,9.7,0.4,14.5
						L636.5,1763.9z M118.4,1738.3l-9-0.1l0.2-14.5l9,0.1L118.4,1738.3z M635.8,1735c-0.1-4.8-0.2-9.7-0.3-14.5l9-0.2
						c0.1,4.8,0.2,9.6,0.3,14.5L635.8,1735z M118.8,1709.4l-9-0.2c0.1-4.8,0.2-9.6,0.2-14.4l9,0.1
						C119,1699.7,118.9,1704.6,118.8,1709.4z M635.1,1706c-0.1-4.8-0.2-9.7-0.3-14.5l9-0.2c0.1,4.8,0.2,9.6,0.3,14.5L635.1,1706z
						 M119.1,1680.4h-9c0-3.2,0-6.4,0-9.6c0-1.6,0-3.2,0-4.8h9c0,1.6,0,3.2,0,4.9C119.2,1673.9,119.1,1677.2,119.1,1680.4z
						 M634.6,1677c-0.1-4.8-0.2-9.7-0.3-14.5l9-0.1c0.1,4.8,0.2,9.6,0.3,14.5L634.6,1677z M110.1,1651.4c0-4.8-0.1-9.6-0.2-14.5
						l9-0.1c0.1,4.8,0.1,9.7,0.2,14.5L110.1,1651.4z M634.1,1648c-0.1-4.8-0.1-9.7-0.2-14.5l9-0.1c0.1,4.8,0.1,9.6,0.2,14.5
						L634.1,1648z M109.7,1622.5c-0.1-4.8-0.2-9.6-0.3-14.5l9-0.2c0.1,4.8,0.2,9.7,0.3,14.5L109.7,1622.5z M633.7,1619.1
						c0-4.8-0.1-9.7-0.1-14.5l9-0.1c0,4.8,0.1,9.6,0.1,14.5L633.7,1619.1z M109.1,1593.6c-0.1-4.8-0.2-9.6-0.4-14.5l9-0.2
						c0.1,4.8,0.3,9.7,0.4,14.5L109.1,1593.6z M633.5,1590.1c0-2.5,0-4.9,0-7.4c0-2.3-0.1-4.7-0.1-7.1l9-0.1c0,2.4,0.1,4.7,0.1,7.1
						c0,2.5,0,5,0,7.4L633.5,1590.1z M108.3,1564.6c-0.1-4.8-0.3-9.6-0.4-14.5l9-0.3c0.1,4.8,0.3,9.7,0.4,14.5L108.3,1564.6z
						 M633.3,1561.1c0-4.8,0-9.6,0-14.4v-0.1h9v0.1c0,4.8,0,9.6,0,14.4H633.3z M107.5,1535.7l-0.4-14.5l9-0.3l0.4,14.5L107.5,1535.7
						z M642.3,1532.1h-9c0-4.8,0.1-9.6,0.1-14.5l9,0.1C642.3,1522.5,642.3,1527.4,642.3,1532.1z M106.7,1506.7
						c-0.1-4.8-0.3-9.7-0.4-14.5l9-0.2c0.1,4.8,0.3,9.6,0.4,14.5L106.7,1506.7z M642.5,1503.2l-9-0.1c0.1-4.8,0.1-9.6,0.2-14.5
						l9,0.1C642.7,1493.6,642.6,1498.4,642.5,1503.2z M105.9,1477.8c-0.1-4.8-0.2-9.7-0.3-14.5l9-0.2c0.1,4.8,0.2,9.6,0.3,14.5
						L105.9,1477.8z M643,1474.3l-9-0.2c0.1-4.8,0.2-9.7,0.3-14.5l9,0.2C643.2,1464.6,643.1,1469.5,643,1474.3z M105.3,1448.8
						c-0.1-4.8-0.2-9.7-0.3-14.5l9-0.2c0.1,4.8,0.2,9.7,0.3,14.5L105.3,1448.8z M643.6,1445.3l-9-0.2c0.1-4.8,0.2-9.7,0.4-14.5
						l9,0.2C643.8,1435.7,643.7,1440.5,643.6,1445.3z M104.6,1419.8l-0.3-14.5l9-0.2l0.3,14.5L104.6,1419.8z M644.3,1416.3l-9-0.2
						c0.1-4.8,0.3-9.7,0.4-14.5l9,0.3C644.6,1406.7,644.5,1411.5,644.3,1416.3z M103.9,1390.9c-0.1-4.8-0.2-9.6-0.4-14.5l9-0.2
						c0.1,4.8,0.2,9.7,0.4,14.5L103.9,1390.9z M645.2,1387.4l-9-0.3c0.1-4.8,0.3-9.7,0.4-14.5l9,0.3
						C645.4,1377.7,645.3,1382.6,645.2,1387.4z M103.2,1362c-0.1-4.8-0.3-9.6-0.4-14.5l9-0.3c0.2,4.8,0.3,9.7,0.4,14.5L103.2,1362z
						 M646.1,1358.4l-9-0.3c0.2-4.8,0.3-9.7,0.5-14.5l9,0.3C646.4,1348.8,646.2,1353.6,646.1,1358.4z M102.3,1333
						c-0.2-4.8-0.3-9.6-0.5-14.5l9-0.4c0.2,4.8,0.4,9.7,0.5,14.5L102.3,1333z M647,1329.5l-9-0.3l0.5-14.5l9,0.3L647,1329.5z
						 M101.1,1304.2c-0.2-4.8-0.5-9.6-0.7-14.5l9-0.5c0.2,4.8,0.5,9.6,0.7,14.5L101.1,1304.2z M647.9,1300.6l-9-0.3l0.5-14.5l9,0.3
						L647.9,1300.6z M99.6,1275.2c-0.3-4.8-0.5-9.6-0.8-14.5l9-0.5c0.3,4.8,0.5,9.6,0.8,14.5L99.6,1275.2z M648.9,1271.6l-9-0.3
						c0.2-4.8,0.3-9.7,0.5-14.5l9,0.3C649.2,1262,649,1266.8,648.9,1271.6z M98,1246.3c-0.3-4.8-0.5-9.6-0.8-14.5l9-0.5
						c0.3,4.8,0.5,9.6,0.8,14.5L98,1246.3z M649.8,1242.7l-9-0.3c0.1-4.7,0.3-9.5,0.4-14.2v-0.3l9,0.2v0.4
						C650,1233.2,649.9,1237.9,649.8,1242.7z M96.5,1217.4l-0.8-14.5l9-0.5l0.8,14.5L96.5,1217.4z M650.6,1213.7l-9-0.3
						c0.2-4.8,0.3-9.7,0.5-14.5l9,0.3C650.9,1204.1,650.8,1208.9,650.6,1213.7z M94.8,1188.5L94,1174l9-0.5l0.8,14.5L94.8,1188.5z
						 M651.6,1184.8l-9-0.3c0.2-4.8,0.3-9.7,0.5-14.5l9,0.3C651.9,1175.1,651.8,1179.9,651.6,1184.8z M93.2,1159.6l-0.8-14.5l9-0.5
						l0.8,14.5L93.2,1159.6z M652.7,1155.8l-9-0.3c0.2-4.8,0.4-9.7,0.6-14.5l9,0.4C653,1146.2,652.8,1151,652.7,1155.8z
						 M91.6,1130.7l-0.8-14.5l9-0.5l0.8,14.5L91.6,1130.7z M653.8,1126.9l-9-0.4c0.2-4.8,0.4-9.7,0.6-14.5l9,0.4
						C654.2,1117.2,654,1122,653.8,1126.9z M89.9,1101.8l-0.8-14.5l9-0.5l0.8,14.5L89.9,1101.8z M655,1097.9l-9-0.4l0.6-14.5l9,0.4
						L655,1097.9z M88.2,1072.8l-0.8-14.5l9-0.5l0.8,14.5L88.2,1072.8z M656.2,1069l-9-0.4l0.6-14.5l9,0.4L656.2,1069z M86.6,1043.9
						l-0.8-14.5l9-0.5l0.8,14.5L86.6,1043.9z M657.4,1040l-9-0.4l0.6-14.5l9,0.4L657.4,1040z M85,1015l-0.8-14.5l9-0.5l0.8,14.5
						L85,1015z M658.6,1011.1l-9-0.4l0.6-14.5l9,0.4L658.6,1011.1z M83.4,986.1c-0.3-4.8-0.6-9.6-0.9-14.4l9-0.5
						c0.3,4.8,0.6,9.6,0.9,14.5L83.4,986.1z M659.9,982.1l-9-0.4l0.6-14.5l9,0.4L659.9,982.1z M81.6,957.2l-0.9-14.5l9-0.5l0.9,14.5
						L81.6,957.2z M661,953.2l-9-0.4c0.2-4.8,0.4-9.6,0.6-14.5l9,0.3C661.4,943.5,661.2,948.4,661,953.2z M79.9,928.3
						c-0.3-4.8-0.6-9.6-0.8-14.5l9-0.5c0.3,4.8,0.5,9.6,0.8,14.4L79.9,928.3z M662.2,924.3l-9-0.3c0.2-4.8,0.4-9.6,0.5-14.5l9,0.3
						C662.5,914.6,662.3,919.4,662.2,924.3z M78.3,899.3c-0.2-4.8-0.5-9.7-0.7-14.5l9-0.4c0.2,4.8,0.4,9.6,0.7,14.4L78.3,899.3z
						 M663.2,895.3l-9-0.3c0.2-4.8,0.3-9.6,0.5-14.5l9,0.3C663.5,885.7,663.4,890.5,663.2,895.3z M77,870.3l-0.5-14.5l9-0.3L86,870
						L77,870.3z M664.2,866.4l-9-0.3c0.2-4.8,0.3-9.6,0.4-14.5l9,0.3C664.5,856.7,664.3,861.5,664.2,866.4z M76.1,841.3l-0.5-14.5
						l9-0.3l0.5,14.5L76.1,841.3z M665,837.4l-9-0.2c0.1-4.8,0.3-9.6,0.4-14.5l9,0.2C665.3,827.8,665.1,832.6,665,837.4z
						 M75.2,812.4c-0.2-4.8-0.3-9.6-0.5-14.5l9-0.3c0.1,4.8,0.3,9.7,0.5,14.5L75.2,812.4z M665.7,808.5l-9-0.2
						c0.1-4.8,0.2-9.6,0.3-14.5l9,0.2C665.9,798.8,665.8,803.6,665.7,808.5z M74.3,783.4c-0.1-4.8-0.3-9.7-0.4-14.5l9-0.2
						c0.1,4.8,0.3,9.6,0.4,14.5L74.3,783.4z M666.3,779.5l-9-0.2c0.1-4.8,0.2-9.6,0.2-14.4l9,0.1
						C666.4,769.9,666.4,774.7,666.3,779.5z M73.5,754.5c-0.1-4.8-0.2-9.7-0.3-14.5l9-0.2c0.1,4.8,0.2,9.6,0.3,14.5L73.5,754.5z
						 M657.4,750.6c-0.1-4.8-0.2-9.7-0.3-14.5l9-0.2c0.1,4.8,0.2,9.6,0.3,14.5L657.4,750.6z M72.9,725.5c-0.1-4.8-0.2-9.7-0.2-14.5
						l9-0.1c0.1,4.8,0.1,9.6,0.2,14.5L72.9,725.5z M656.7,721.7l-0.3-14.5l9-0.2l0.3,14.5L656.7,721.7z M72.5,696.4
						c0-4.9-0.1-9.7-0.1-14.5h9c0,4.8,0,9.6,0.1,14.5H72.5z M656.1,692.7c-0.1-4.8-0.2-9.6-0.3-14.5l9-0.2c0.1,4.8,0.2,9.7,0.3,14.5
						L656.1,692.7z M81.4,667.4h-9c0-4.9,0-9.7,0.1-14.5l9,0.1C81.4,657.8,81.4,662.6,81.4,667.4z M655.4,663.8
						c-0.1-4.8-0.2-9.6-0.4-14.5l9-0.2c0.1,4.8,0.3,9.7,0.4,14.5L655.4,663.8z M81.7,638.5l-9-0.2c0-2.2,0.1-4.3,0.1-6.5
						c0.1-2.7,0.1-5.3,0.2-8l9,0.3c-0.1,2.7-0.1,5.3-0.2,7.9C81.7,634.2,81.7,636.4,81.7,638.5z M654.6,634.8
						c-0.1-4.8-0.3-9.6-0.4-14.5l9-0.3c0.1,4.8,0.3,9.7,0.4,14.5L654.6,634.8z M82.5,609.7l-9-0.4c0.2-4.8,0.4-9.7,0.7-14.5l9,0.5
						C82.9,600.1,82.7,605,82.5,609.7z M653.7,605.9c-0.2-4.6-0.4-9.6-0.6-14.4l9-0.5c0.3,4.9,0.4,9.9,0.6,14.5L653.7,605.9z
						 M84.1,580.9l-9-0.6c0.3-4.8,0.7-9.7,1.1-14.5l9,0.7C84.8,571.3,84.4,576.2,84.1,580.9z M652.2,577.2c-0.1-0.6-0.1-1.2-0.2-1.8
						c-0.4-4.2-0.8-8.4-1.2-12.6l9-0.9c0.4,4.2,0.8,8.4,1.2,12.6c0.1,0.6,0.1,1.2,0.2,1.9L652.2,577.2z M86.4,552.2l-9-0.8
						c0.4-4.8,0.9-9.6,1.4-14.5l9,0.9C87.3,542.6,86.8,547.4,86.4,552.2z M649.4,548.4c-0.5-4.8-1-9.6-1.5-14.4l8.9-1
						c0.5,4.8,1,9.6,1.5,14.4L649.4,548.4z M89.3,523.4l-8.9-1c0.5-4.7,1.1-9.6,1.7-14.4l8.9,1.1C90.4,513.9,89.9,518.7,89.3,523.4z
						 M646.4,519.7c-0.5-4.8-1.1-9.6-1.6-14.4l8.9-1c0.6,4.8,1.1,9.6,1.6,14.4L646.4,519.7z M92.9,494.8l-8.9-1.2
						c0.6-4.8,1.3-9.6,2-14.4l8.9,1.3C94.2,485.3,93.5,490.1,92.9,494.8z M643,491c-0.4-2.9-0.7-5.8-1.1-8.7l-0.7-5.7l8.9-1.1
						l0.7,5.6c0.4,2.9,0.7,5.8,1.1,8.7L643,491z M96.9,466.2l-8.9-1.3c0.7-4.7,1.5-9.5,2.2-14.3l8.9,1.4
						C98.4,456.7,97.7,461.5,96.9,466.2z M639.5,462.2c-0.7-5.2-1.3-9.9-1.9-14.3l8.9-1.3c0.6,4.4,1.3,9.1,1.9,14.4L639.5,462.2z
						 M101.3,437.5l-8.9-1.3c0.7-4.8,1.4-9.6,2.2-14.4l8.9,1.5C102.7,428,102,432.8,101.3,437.5z M635.4,433.8
						c-0.9-5-1.7-9.6-2.7-14.1l8.8-1.8c1,4.6,1.8,9.3,2.7,14.4L635.4,433.8z M106,409.1l-8.9-1.6c0.9-4.7,1.8-9.5,2.8-14.3l8.8,1.8
						C107.7,399.7,106.8,404.4,106,409.1z M629.5,405.8c-0.1-0.6-0.3-1.1-0.4-1.7c-1.1-4.1-2.2-8.2-3.3-12.3l8.7-2.3
						c1.1,4.1,2.2,8.2,3.3,12.3c0.1,0.6,0.3,1.1,0.4,1.7L629.5,405.8z M111.7,380.9l-8.8-1.9c1-4.7,2.1-9.5,3.3-14.2l8.8,2.1
						C113.8,371.5,112.7,376.2,111.7,380.9z M622,377.9c-1.3-4.7-2.6-9.3-3.9-13.9l8.7-2.4c1.3,4.6,2.6,9.3,3.9,14L622,377.9z
						 M118.4,352.8l-8.7-2.2c1.2-4.7,2.5-9.5,3.8-14.1l8.7,2.4C120.8,343.5,119.6,348.2,118.4,352.8z M614.2,350
						c-1.3-4.7-2.7-9.3-4-13.9l8.6-2.5c1.3,4.6,2.7,9.2,4,13.9L614.2,350z M126.1,325.1l-8.6-2.6c1.4-4.7,2.8-9.4,4.3-13.9l8.6,2.7
						C128.9,315.8,127.4,320.5,126.1,325.1z M606.1,322.2c-1.4-4.7-2.7-9.4-4.1-13.9l8.6-2.5c1.3,4.5,2.7,9.2,4.1,13.9L606.1,322.2z
						 M134.8,297.7l-8.5-2.9c1.6-4.6,3.2-9.3,4.9-13.7l8.4,3.1C138,288.5,136.4,293.1,134.8,297.7z M597.9,294.6
						c-1.6-4.8-3.1-9.3-4.6-13.6l8.5-3c1.5,4.4,3,8.9,4.6,13.8L597.9,294.6z M144.8,270.7l-8.4-3.3c1.8-4.6,3.7-9.1,5.6-13.5
						l8.3,3.6C148.5,261.7,146.6,266.2,144.8,270.7z M588.4,267.5c-1.7-4.6-3.5-9.1-5.3-13.3l8.3-3.5c1.8,4.3,3.6,8.9,5.4,13.6
						L588.4,267.5z M156.2,244.3l-8.2-3.8c2.1-4.5,4.2-8.9,6.4-13.2l8,4.1C160.3,235.6,158.2,239.9,156.2,244.3z M577.3,241.1
						c-2-4.4-4.2-8.7-6.3-12.8l8-4.2c2.2,4.2,4.4,8.7,6.5,13.2L577.3,241.1z M169.1,218.8l-7.9-4.4c2.4-4.3,4.9-8.6,7.4-12.7
						l7.7,4.7C173.9,210.4,171.5,214.5,169.1,218.8z M564.1,215.9c-2.4-4.1-5-8.2-7.6-12.1l7.5-5c2.7,4,5.3,8.2,7.8,12.5
						L564.1,215.9z M184.1,194.5l-7.4-5.1c1.9-2.7,3.8-5.4,5.7-7.9c0.9-1.3,1.9-2.6,2.8-4l7.3,5.2c-0.9,1.3-1.8,2.6-2.8,3.9
						l-0.1,0.1C187.8,189.2,185.9,191.8,184.1,194.5z M548.4,192.1c-2.8-3.8-5.8-7.5-8.8-11.2l6.9-5.7c3.1,3.8,6.2,7.7,9.1,11.6
						L548.4,192.1z M201,171.3l-7.1-5.5c3.1-3.9,6.2-7.7,9.3-11.4l6.8,5.9C207,163.8,204,167.5,201,171.3z M530.2,170.2
						c-3.1-3.3-6.3-6.7-9.6-10l-0.4-0.4l6.5-6.2l0.2,0.2c3.4,3.4,6.7,6.8,9.8,10.3L530.2,170.2z M219.6,149.7l-6.5-6.2
						c3.4-3.6,7-7.1,10.5-10.4l6.1,6.6C226.3,142.9,222.9,146.3,219.6,149.7z M510.2,149.7c-3.5-3.3-7-6.5-10.5-9.6l5.9-6.8
						c3.7,3.2,7.3,6.5,10.9,9.9L510.2,149.7z M488.6,131.1c-3.8-2.9-7.6-5.7-11.5-8.4l5.1-7.4c4,2.7,8,5.6,11.9,8.7L488.6,131.1z
						 M240.4,130.3l-5.7-6.9c3.8-3.2,7.8-6.2,11.7-9l5.3,7.3C247.9,124.4,244.1,127.3,240.4,130.3z M465.2,115.1
						c-4.1-2.4-8.2-4.7-12.4-6.9l4.1-8c4.3,2.2,8.7,4.6,12.9,7.2L465.2,115.1z M263.4,113.8l-4.7-7.7c4.2-2.6,8.5-5.1,12.9-7.3
						l4.2,8C271.6,109,267.4,111.3,263.4,113.8z M439.9,102.2c-4.3-1.9-8.8-3.6-13.2-5.1l3-8.5c4.6,1.6,9.3,3.4,13.8,5.4
						L439.9,102.2z M288.5,100.8l-3.5-8.3c4.5-1.9,9.2-3.7,13.8-5.3l2.9,8.5C297.2,97.2,292.8,98.9,288.5,100.8z M413.2,92.9
						c-4.5-1.2-9.2-2.3-13.8-3.2l1.7-8.8c4.8,0.9,9.7,2.1,14.4,3.3L413.2,92.9z M315.2,91.6l-2.3-8.7c2.2-0.6,4.4-1.1,6.6-1.6h0.1
						c2.6-0.5,5.3-1,7.9-1.4l1.4,8.9c-2.5,0.4-5,0.8-7.5,1.3C319.3,90.5,317.3,91.1,315.2,91.6z M385.4,87.5
						c-4.6-0.6-9.4-0.9-14.1-1.2l0.4-9c4.9,0.2,9.9,0.6,14.8,1.2L385.4,87.5z M343,87l-0.8-9c4.9-0.5,9.9-0.7,14.8-0.9l0.2,9
						C352.5,86.3,347.8,86.5,343,87z"/>
				</g>
			</g>
		</g>
	</g>
</g>
</svg>
