<?xml version="1.0" encoding="utf-8"?>
<!-- Generator: Adobe Illustrator 26.3.1, SVG Export Plug-In . SVG Version: 6.00 Build 0)  -->
<svg version="1.1" id="Layer_1" xmlns="http://www.w3.org/2000/svg" xmlns:xlink="http://www.w3.org/1999/xlink" x="0px" y="0px"
	 viewBox="0 0 726.2 2381" style="enable-background:new 0 0 726.2 2381;" xml:space="preserve">
<style type="text/css">
	.st0{fill:#005EFF;}
	.st1{fill:#7900FF;}
	.st2{fill:#38E841;}
	.st3{fill:#ED1E77;}
</style>
<g>
	<g>
		<g>
			<g>
				<g>
					<g>
						<g>
							<g>
								<path class="st0" d="M311,531.6c-5.7,0-8.6-4.4-8.6-8.7c0-2.2,0.8-4.4,2.1-6c1.6-1.8,3.9-2.8,6.5-2.8c5.6,0,8.5,4.4,8.5,8.7
									C319.6,527.1,316.7,531.5,311,531.6z M311,518.6c-1.3,0-2.3,0.4-3,1.3c-0.7,0.8-1,1.9-1,3c0,1.9,1.1,4.2,4.1,4.2
									c3.2,0,4.1-2.7,4-4.3C315,520.8,314,518.6,311,518.6z"/>
							</g>
							<g>
								<path class="st0" d="M415.3,531.6c-5.7,0-8.6-4.4-8.6-8.7c0-2.2,0.8-4.4,2.1-6c1.6-1.8,3.9-2.8,6.5-2.8
									c5.6,0,8.6,4.4,8.6,8.7C424,527.1,421,531.5,415.3,531.6z M415.3,518.6c-1.3,0-2.3,0.4-3,1.3c-0.7,0.8-1,1.9-1,3
									c0,1.9,1.1,4.2,4.1,4.2c3.3,0,4.1-2.7,4.1-4.3C419.4,520.8,418.3,518.6,415.3,518.6z"/>
							</g>
							<g>
								<path class="st0" d="M311,667.1c-5.6,0-8.6-4.4-8.6-8.7c0-2.2,0.8-4.4,2.1-6c1.6-1.8,3.9-2.8,6.5-2.8c5.6,0,8.5,4.4,8.5,8.8
									c0,2.2-0.8,4.4-2.1,5.9C315.9,666.1,313.6,667.1,311,667.1z M311,654.1c-1.3,0-2.3,0.4-3,1.3c-0.7,0.8-1,1.9-1,3
									c0,1.9,1.1,4.2,4.1,4.2c1.3,0,2.3-0.4,3-1.2c0.7-0.8,1-1.9,1-3C315.1,656.3,314,654.1,311,654.1z"/>
							</g>
							<g>
								<path class="st0" d="M415.3,667.1c-5.6,0-8.6-4.4-8.6-8.7c0-2.2,0.8-4.4,2.1-6c1.6-1.8,3.9-2.8,6.5-2.8
									c5.7,0,8.6,4.4,8.6,8.8c0,2.2-0.8,4.4-2.1,5.9C420.2,666.1,417.9,667.1,415.3,667.1z M415.3,654.1c-1.3,0-2.3,0.4-3,1.3
									c-0.7,0.8-1,1.9-1,3c0,1.9,1.1,4.2,4.1,4.2c1.3,0,2.4-0.4,3.1-1.3c0.7-0.8,1-1.8,1-3C419.4,656.3,418.3,654.1,415.3,654.1z"
									/>
							</g>
						</g>
					</g>
					<g>
						<g>
							<g>
								<path class="st0" d="M311,1697c-5.6,0-8.6-4.4-8.6-8.7c0-2.2,0.8-4.4,2.1-6c1.6-1.8,3.9-2.8,6.5-2.8c5.6,0,8.5,4.4,8.5,8.8
									c0,2.2-0.8,4.4-2.1,5.9C315.9,1696,313.6,1697,311,1697z M311,1684c-1.3,0-2.3,0.4-3,1.3c-0.7,0.8-1,1.9-1,3
									c0,1.9,1.1,4.2,4.1,4.2c1.3,0,2.3-0.4,3-1.2c0.7-0.8,1-1.9,1-3C315.1,1686.2,314,1684,311,1684z"/>
							</g>
							<g>
								<path class="st0" d="M415.3,1697c-5.6,0-8.6-4.4-8.6-8.7c0-2.2,0.8-4.4,2.1-6c1.6-1.8,3.9-2.8,6.5-2.8
									c5.7,0,8.6,4.4,8.6,8.8c0,2.2-0.8,4.4-2.1,5.9C420.2,1696,417.9,1697,415.3,1697z M415.3,1684c-1.3,0-2.3,0.4-3,1.3
									c-0.7,0.8-1,1.9-1,3c0,1.9,1.1,4.2,4.1,4.2c1.3,0,2.4-0.4,3.1-1.3c0.7-0.8,1-1.8,1-3C419.4,1686.2,418.3,1684,415.3,1684z"
									/>
							</g>
							<g>
								<path class="st0" d="M311,1832.5c-5.6,0-8.6-4.4-8.6-8.7c0-2.2,0.8-4.4,2.1-6c1.6-1.8,3.9-2.8,6.5-2.8
									c5.6,0,8.5,4.4,8.5,8.8c0,2.2-0.8,4.4-2.1,5.9C315.9,1831.5,313.6,1832.5,311,1832.5z M311,1819.5c-1.3,0-2.3,0.4-3,1.3
									c-0.7,0.8-1,1.9-1,3c0,1.9,1.1,4.2,4.1,4.2c1.3,0,2.3-0.4,3-1.2c0.7-0.8,1-1.9,1-3C315.1,1821.7,314,1819.5,311,1819.5z"/>
							</g>
							<g>
								<path class="st0" d="M415.3,1832.5c-5.6,0-8.6-4.4-8.6-8.7c0-2.2,0.8-4.4,2.1-6c1.6-1.8,3.9-2.8,6.5-2.8
									c5.7,0,8.6,4.4,8.6,8.8c0,2.2-0.8,4.4-2.1,5.9C420.2,1831.5,417.9,1832.5,415.3,1832.5z M415.3,1819.5c-1.3,0-2.3,0.4-3,1.3
									c-0.7,0.8-1,1.9-1,3c0,1.9,1.1,4.2,4.1,4.2c1.3,0,2.4-0.4,3.1-1.3c0.7-0.8,1-1.8,1-3
									C419.4,1821.7,418.3,1819.5,415.3,1819.5z"/>
							</g>
						</g>
					</g>
				</g>
			</g>
		</g>
	</g>
	<g>
		<g>
			<path class="st1" d="M377.3,2380.4c-33.6,0-67.4-2.7-101.3-8c-41.5-6.6-74-15.7-102.3-28.9c-61.3-28.3-99.3-78.7-113-149.8
				c-6.7-34.7-9.2-69.4-10.8-110.6c-1.9-47.8-2.7-96.4-3.6-143.5c-0.6-35.3-1.3-71.7-2.3-107.6c-1.6-54.8-3.6-110.5-5.4-164.4
				c-0.8-21.9-1.5-43.8-2.3-65.7c-0.4-12.9-0.8-25.8-1.2-38.7c-1.1-35-2.2-71.3-3.9-106.9c-0.6-13.7-1.3-27.3-1.9-41
				c-2.2-47.5-4.4-96.6-7.4-144.8c-6-95.5-10.3-174.6-13.5-248.8c-0.7-16.1-1.4-32.4-2.2-48.2c-2.4-50.7-4.8-103.2-5.3-154.9
				C0.4,765.7,1.3,712,2.3,660.1l0.2-9.9c1-56.7,7-112.3,12.7-166.1c4.7-44.4,10.4-82.9,17.4-117.9c8.5-42.4,22.2-81.3,39.3-127.7
				c12-32.7,24.1-64.5,39.9-95.2c19.8-38.2,44.4-70,73-94.4c28.5-24.3,62.4-39.1,100.9-44.1c47.8-6.4,94.9-6.3,140,0.2
				c50.5,7.2,93.2,30.4,127.1,68.8c27.3,31,49.7,66.6,66.6,105.8c22,50.9,38.4,93.6,51.5,134.4c14.6,45.4,24.8,95.6,32.3,157.8
				c1.4,11.4,2.8,23,4.3,34.2c2.8,22.2,5.7,45.1,8,67.7c3.1,30.9,4.5,61.7,5.4,85c2.9,74.9,4.8,137.8,4.5,201.3
				c-0.1,20.9-5.1,227.6-8.6,310.1v0c-4.6,105.1-8,193.4-9.9,283c-0.9,42.8-1.5,86.3-2.1,128.4c-0.6,42.1-1.2,85.6-2.1,128.4
				c-1.5,70.5-1.6,142.1-1.8,211.4c-0.1,36.8-0.1,74.9-0.4,112.3c0,4.1-0.1,8.2-0.1,12.3c-0.2,31.4-0.5,63.9-3.1,95.6
				c-2.1,25.3-4.6,50-11.1,73.8c-16.4,60.6-53.1,104-109.2,129.2c-24.1,10.8-50.7,18.6-86.1,25.3
				C453.6,2376.9,415.6,2380.4,377.3,2380.4z M356,4.5c-23,0-46.2,1.6-69.7,4.7c-37.6,4.9-70.7,19.4-98.5,43.1
				c-28.6,24.3-52.1,54.8-72,93c-15.7,30.4-27.7,62.1-39.7,94.6c-17,46.2-30.7,85-39.1,127.1c-7,34.8-12.7,73.3-17.4,117.5
				C13.9,538.2,8,593.7,7,650.2l-0.2,9.9C5.8,712,4.9,765.7,5.4,818.6c0.5,51.6,3,104,5.3,154.7c0.7,15.8,1.5,32.1,2.2,48.2
				c3.2,74.3,7.5,153.3,13.5,248.8c3,48.3,5.3,97.4,7.4,144.9c0.6,13.6,1.2,27.3,1.9,40.9c1.7,35.7,2.8,71.9,3.9,107
				c0.4,12.9,0.8,25.8,1.2,38.6c0.7,21.9,1.5,43.8,2.3,65.7c1.9,53.9,3.8,109.6,5.4,164.4c1.1,35.8,1.7,72.3,2.3,107.6
				c0.8,47,1.7,95.6,3.6,143.4c1.7,41.1,4.1,75.5,10.8,110c6.6,34.6,19.2,64.5,37.4,88.7c18.3,24.5,42.9,43.9,73,57.8
				c27.9,13,60,22,101.1,28.5c72,11.4,143.8,10.6,213.4-2.4c35-6.6,61.3-14.3,85.1-24.9c27.1-12.2,49.8-28.8,67.4-49.4
				c17.9-21,31.1-46.9,39.2-76.8c6.4-23.5,8.8-47.9,10.9-73c2.6-31.6,2.9-64,3.1-95.3c0-4.1,0.1-8.2,0.1-12.3
				c0.3-37.4,0.4-75.5,0.4-112.3c0.1-69.3,0.3-141,1.8-211.5c0.9-42.8,1.5-86.3,2.1-128.4c0.6-42.1,1.2-85.6,2.1-128.4
				c1.9-89.7,5.3-178,9.9-283.2l0,0c3.5-82.4,8.5-289,8.6-309.9c0.3-63.4-1.6-126.2-4.5-201.1c-0.9-23.3-2.3-54-5.4-84.8
				c-2.3-22.5-5.2-45.5-8-67.6c-1.4-11.2-2.9-22.8-4.3-34.2c-7.4-61.9-17.6-111.8-32.1-157c-13.1-40.7-29.4-83.3-51.3-134
				c-16.7-38.7-38.9-73.9-65.8-104.6c-33.1-37.6-74.9-60.3-124.3-67.4C402.5,6.2,379.4,4.5,356,4.5z"/>
		</g>
	</g>
</g>
<g>
	<g>
		<path class="st2" d="M375.9,2338.1c-30.5,0-61.3-2.6-92.1-7.7c-37.5-6.3-67-15.1-92.8-27.8c-55.6-27.3-90-75.8-102.3-144.2
			c-6.5-36.5-8.6-72.8-9.8-106.6c-1.7-46.8-2.5-94.5-3.3-140.6c-0.5-33.4-1.1-67.8-2-101.8c-1.4-49.5-3-99.8-4.6-148.4
			c-0.8-24.6-1.6-49.1-2.3-73.7c-0.5-14.4-0.9-28.8-1.3-43.1c-0.9-31.9-1.9-64.9-3.3-97.4c-0.8-16.6-1.5-33.2-2.2-49.9
			c-1.8-42.5-3.7-86.3-6.2-129.5c-4.4-76.7-9-158.9-12.3-240.1c-0.6-14.1-1.2-28.3-1.8-42.4c-2.2-50.3-4.5-102.3-5-153.5
			c-0.5-50.8,0.4-102.5,1.2-152.5l0.2-10.2c0.9-51.9,5.7-103.3,11.5-160.2c4.6-44.6,9.6-80.8,15.8-113.7
			C71,353.9,83.5,316.3,99,271.5c10.9-31.4,21.8-62.1,36.3-91.8c17.9-36.7,40.2-67.3,66.1-90.9c25.7-23.3,56.5-37.6,91.5-42.5
			c43.4-6.2,86.2-6.1,127.1,0.2c45.9,7,84.7,29.3,115.2,66.2c24.7,29.8,45,64.1,60.4,101.9c20,49.3,34.9,90.5,46.7,129.6
			c13.1,43.4,22.4,91.8,29.4,152.2c1.3,11.6,2.7,23.3,4.1,34.6c2.5,20.9,5.1,42.5,7.1,63.8c2.3,24.2,3.9,50.3,4.9,82.1
			c2.7,71.9,4.4,132.5,4.1,194.3c-0.1,19.7-4.6,218.6-7.8,299.7l0,0c-3.5,86.6-7,179.6-9,273.2c-0.8,41.3-1.4,83.3-1.9,123.9
			c-0.5,40.6-1.1,82.6-2,123.9c-1.4,67.1-1.5,135.3-1.7,201.3c-0.1,36.4-0.2,74.1-0.4,111.1c0,4.2-0.1,8.4-0.1,12.6
			c-0.2,30-0.4,61-2.9,91.5c-1.8,23-4.1,47.5-10,71c-14.7,58.2-48,100-98.9,124.3c-21.9,10.4-46,17.9-78.2,24.3
			C445.2,2334.8,410.7,2338.1,375.9,2338.1z M356.7,44.8c-20.9,0-42,1.5-63.4,4.5c-34.4,4.8-64.7,18.9-89.9,41.7
			c-25.7,23.3-47.7,53.6-65.5,89.9c-14.4,29.5-25.3,60.1-36.1,91.4c-12.8,37-27.3,78.9-35.5,122.8c-6.2,32.9-11.2,68.9-15.8,113.5
			c-5.8,56.9-10.6,108.2-11.5,160l-0.2,10.2c-0.8,49.9-1.7,101.6-1.2,152.4c0.5,51.2,2.8,103.2,5,153.4c0.6,14.1,1.2,28.3,1.8,42.4
			c3.3,81.2,7.9,163.4,12.3,240.1c2.5,43.2,4.4,87.1,6.2,129.6c0.7,16.6,1.4,33.2,2.2,49.9c1.4,32.5,2.4,65.5,3.3,97.5
			c0.4,14.4,0.8,28.8,1.3,43.1c0.8,24.6,1.5,49.1,2.3,73.7c1.6,48.6,3.2,98.9,4.6,148.4c0.9,33.9,1.5,68.4,2,101.8
			c0.8,46.1,1.5,93.7,3.3,140.5c1.2,33.7,3.3,69.9,9.8,106.2c12.1,67.4,46,115.2,100.7,142c25.6,12.6,54.8,21.3,92,27.6
			c65.5,11,130.8,10.2,194.2-2.3c31.9-6.4,55.8-13.8,77.4-24.1c50-23.9,82.8-65,97.3-122.3c5.9-23.3,8.1-47.6,10-70.6
			c2.5-30.4,2.7-61.3,2.9-91.3c0-4.2,0.1-8.4,0.1-12.6c0.3-37,0.4-74.7,0.4-111.1c0.1-66,0.3-134.3,1.7-201.4
			c0.9-41.3,1.4-83.3,2-123.9c0.5-40.6,1.1-82.6,2-123.9c2-93.6,5.5-186.6,9-273.2l0,0c3.2-81.1,7.7-279.9,7.8-299.5
			c0.3-61.7-1.4-122.2-4.1-194.1c-1-31.8-2.6-57.8-4.9-81.9c-2.1-21.3-4.6-42.9-7.1-63.7c-1.4-11.4-2.8-23.1-4.1-34.7
			c-6.9-60.2-16.2-108.4-29.2-151.6c-11.9-39-26.7-80.2-46.7-129.4c-15.3-37.5-35.5-71.5-60-101.1c-30.1-36.3-68.2-58.3-113.4-65.2
			C399,46.4,378,44.8,356.7,44.8z"/>
	</g>
</g>
<g>
	<g>
		<path class="st3" d="M372.4,2295.9c-4.8,0-9.7-0.1-14.5-0.3l0.1-3.7c4.8,0.2,9.6,0.3,14.3,0.3L372.4,2295.9z M386.9,2295.7
			l-0.1-3.7c4.7-0.1,9.6-0.4,14.3-0.7l0.2,3.7C396.5,2295.3,391.7,2295.5,386.9,2295.7z M343.5,2294.8c-4.8-0.4-9.6-0.8-14.4-1.3
			l0.4-3.7c4.7,0.5,9.5,0.9,14.3,1.3L343.5,2294.8z M414.9,2293.8l-0.4-3.7c4.7-0.5,9.5-1,14.2-1.7l0.5,3.7
			C424.5,2292.8,419.7,2293.3,414.9,2293.8z M315.6,2291.8c-4.7-0.7-9.5-1.4-14.3-2.2l0.6-3.7c4.7,0.8,9.5,1.6,14.2,2.2
			L315.6,2291.8z M443.6,2289.9l-0.6-3.7c4.7-0.8,9.4-1.7,14.1-2.7l0.8,3.6C453.1,2288.2,448.3,2289.1,443.6,2289.9z M287.1,2286.8
			c-4.9-1-9.6-2.1-14.1-3.2l0.9-3.6c4.5,1.1,9.2,2.2,14,3.2L287.1,2286.8z M471.9,2284l-0.9-3.6c4.9-1.2,9.4-2.4,13.8-3.7l1,3.6
			C481.4,2281.5,476.9,2282.8,471.9,2284z M259,2279.8c-4.7-1.4-9.3-3-13.8-4.6l1.3-3.5c4.4,1.6,8.9,3.1,13.6,4.5L259,2279.8z
			 M498.9,2276.1l-1.2-3.5c4.6-1.6,9.1-3.3,13.4-5.1l1.4,3.4C508.2,2272.8,503.6,2274.5,498.9,2276.1z M232.5,2270.1
			c-4.5-1.9-8.9-4-13.1-6.2l1.7-3.3c4.2,2.2,8.5,4.2,12.9,6.1L232.5,2270.1z M525.7,2264.9l-1.7-3.3c1.4-0.7,2.9-1.5,4.3-2.2
			c2.8-1.5,5.5-3.1,8.2-4.7l1.9,3.2c-2.7,1.7-5.5,3.3-8.4,4.8C528.6,2263.4,527.2,2264.2,525.7,2264.9z M206.8,2256.7
			c-4.1-2.6-8.2-5.4-12-8.3l2.2-3c3.7,2.8,7.7,5.6,11.7,8.1L206.8,2256.7z M550.5,2249.7l-2.2-3c3.8-2.8,7.5-5.9,11-9l2.5,2.8
			C558.2,2243.7,554.4,2246.8,550.5,2249.7z M183.6,2239.1c-3.6-3.3-7-6.7-10.3-10.3l2.8-2.5c3.2,3.5,6.5,6.9,10,10.1L183.6,2239.1z
			 M571.5,2230.8l-2.7-2.5c3.2-3.4,6.3-7.1,9.2-10.9l2.9,2.3C578,2223.5,574.8,2227.3,571.5,2230.8z M164.6,2218.2
			c-2.9-3.8-5.7-7.8-8.3-12l3.1-2c2.5,4,5.3,8,8.1,11.7L164.6,2218.2z M589.2,2207.7l-3.1-2c2.5-3.9,4.9-8.1,7.1-12.3l3.3,1.7
			C594.2,2199.4,591.8,2203.7,589.2,2207.7z M149.1,2193.6c-2.2-4.2-4.3-8.6-6.2-13.1l3.4-1.5c1.9,4.4,3.9,8.8,6.1,12.9
			L149.1,2193.6z M602.7,2182l-3.4-1.5c1.8-4.3,3.6-8.8,5.1-13.3l3.5,1.2C606.3,2173,604.6,2177.6,602.7,2182z M137.7,2166.9
			c-1.6-4.5-3-9.1-4.3-13.8l3.6-1c1.3,4.6,2.7,9.2,4.3,13.6L137.7,2166.9z M612,2155.3l-3.6-1c1.1-4,2.2-8.2,3.1-12.4
			c0.1-0.5,0.2-0.9,0.3-1.4l3.6,0.8c-0.1,0.5-0.2,1-0.3,1.4C614.2,2147,613.2,2151.3,612,2155.3z M130,2139.8c-1-4.6-2-9.4-2.8-14.2
			l3.7-0.6c0.8,4.8,1.7,9.5,2.8,14L130,2139.8z M618.3,2127l-3.7-0.6c0.8-4.5,1.4-9.2,2.1-14.2l3.7,0.5
			C619.7,2117.8,619.1,2122.5,618.3,2127z M125,2111.3c-0.6-4.7-1.2-9.5-1.8-14.3l3.7-0.4c0.5,4.8,1.1,9.6,1.8,14.2L125,2111.3z
			 M621.9,2098.3l-3.7-0.3c0.4-4.4,0.8-9,1.2-14.3l3.7,0.3C622.7,2089.3,622.3,2094,621.9,2098.3z M121.8,2082.6
			c-0.4-4.6-0.8-9.5-1.2-14.4l3.7-0.3c0.3,4.9,0.7,9.7,1.2,14.3L121.8,2082.6z M624.1,2070.4l-3.7-0.3c0.3-4.6,0.6-9.5,0.8-14.3
			l3.7,0.2C624.7,2060.9,624.4,2065.7,624.1,2070.4z M119.7,2054.6c-0.3-4.6-0.5-9.4-0.7-14.4l3.7-0.2c0.2,4.9,0.5,9.8,0.7,14.4
			L119.7,2054.6z M625.6,2041.6l-3.7-0.1c0.2-4.6,0.3-9.3,0.4-14.4l3.7,0.1C625.8,2032.2,625.7,2037,625.6,2041.6z M118.5,2025.8
			c-0.1-2-0.1-4.1-0.2-6.1c-0.1-2.8-0.2-5.5-0.3-8.3l3.7-0.1c0.1,2.8,0.2,5.5,0.3,8.3c0.1,2,0.1,4.1,0.2,6.1L118.5,2025.8z
			 M626.2,2012.7l-3.7,0c0.1-4.8,0.1-9.6,0.1-14.4l3.7,0C626.3,2003.1,626.2,2007.9,626.2,2012.7z M117.6,1997
			c-0.1-4.8-0.3-9.6-0.4-14.4l3.7-0.1c0.1,4.8,0.2,9.6,0.4,14.4L117.6,1997z M626.4,1984.7l-3.7,0l0.1-14.4l3.7,0L626.4,1984.7z
			 M116.9,1969c-0.1-4.8-0.2-9.6-0.3-14.4l3.7-0.1c0.1,4.8,0.2,9.6,0.3,14.4L116.9,1969z M626.5,1955.9l-3.7,0c0-4.8,0-9.6,0.1-14.4
			l3.7,0C626.6,1946.3,626.6,1951.1,626.5,1955.9z M116.3,1940.2c-0.1-4.8-0.2-9.6-0.2-14.4l3.7-0.1c0.1,4.8,0.2,9.6,0.2,14.4
			L116.3,1940.2z M626.7,1927.1l-3.7,0c0-4.8,0-9.6,0-14.4l3.7,0C626.7,1917.5,626.7,1922.3,626.7,1927.1z M115.8,1911.4l-0.2-14.4
			l3.7-0.1l0.2,14.4L115.8,1911.4z M626.7,1899.1l-3.7,0l0-14.4l3.7,0L626.7,1899.1z M115.4,1883.4l-0.2-14.4l3.7-0.1l0.2,14.4
			L115.4,1883.4z M626.8,1870.3l-3.7,0l0-14.4l3.7,0L626.8,1870.3z M115,1854.6c-0.1-4.8-0.2-9.6-0.2-14.4l3.7-0.1
			c0.1,4.8,0.2,9.6,0.2,14.4L115,1854.6z M626.8,1841.5l-3.7,0l0-14.4l3.7,0L626.8,1841.5z M114.5,1825.8c-0.1-4.8-0.2-9.6-0.3-14.4
			l3.7-0.1c0.1,4.8,0.2,9.6,0.3,14.4L114.5,1825.8z M626.9,1813.6l-3.7,0l0-14.4l3.7,0L626.9,1813.6z M113.9,1797.9
			c-0.1-3.8-0.2-7.7-0.3-11.5l-0.1-2.9l3.7-0.1l0.1,2.9c0.1,3.8,0.2,7.7,0.3,11.5L113.9,1797.9z M627,1784.8l-3.7,0
			c0-4.8,0-9.6,0.1-14.4l3.7,0C627,1775.2,627,1780,627,1784.8z M113.2,1769.1c-0.1-4.8-0.3-9.6-0.4-14.4l3.7-0.1
			c0.1,4.8,0.3,9.6,0.4,14.4L113.2,1769.1z M627.2,1756l-3.7,0c0-4.8,0.1-9.6,0.1-14.4l3.7,0C627.2,1746.4,627.2,1751.2,627.2,1756z
			 M112.4,1740.3l-0.4-14.4l3.7-0.1l0.4,14.4L112.4,1740.3z M627.4,1728l-3.7,0c0-4.8,0.1-9.6,0.2-14.4l3.7,0
			C627.5,1718.4,627.4,1723.2,627.4,1728z M111.7,1712.3l-0.4-14.4l3.7-0.1l0.4,14.4L111.7,1712.3z M627.7,1699.2l-3.7-0.1
			c0.1-4.8,0.1-9.6,0.2-14.4l3.7,0.1C627.9,1689.6,627.8,1694.4,627.7,1699.2z M110.8,1683.5l-0.4-14.4l3.7-0.1l0.4,14.4
			L110.8,1683.5z M628.2,1670.4l-3.7-0.1c0.1-4.8,0.2-9.6,0.2-14.4l3.7,0.1C628.4,1660.8,628.3,1665.6,628.2,1670.4z M110,1654.7
			l-0.4-14.4l3.7-0.1l0.4,14.4L110,1654.7z M628.7,1642.4l-3.7-0.1c0.1-4.8,0.1-9.6,0.2-14.4l3.7,0.1
			C628.8,1632.8,628.7,1637.6,628.7,1642.4z M109.2,1626.8l-0.4-14.4l3.7-0.1l0.4,14.4L109.2,1626.8z M629.1,1613.6l-3.7,0l0.2-14.4
			l3.7,0L629.1,1613.6z M108.4,1598l-0.4-14.4l3.7-0.1l0.4,14.4L108.4,1598z M629.4,1584.8l-3.7,0l0.2-14.4l3.7,0L629.4,1584.8z
			 M107.6,1569.2l-0.4-14.4l3.7-0.1l0.4,14.4L107.6,1569.2z M629.8,1556.8l-3.7,0l0.2-14.4l3.7,0L629.8,1556.8z M106.8,1541.2
			l-0.4-14.4l3.7-0.1l0.4,14.4L106.8,1541.2z M630.1,1528l-3.7,0l0.2-14.4l3.7,0L630.1,1528z M106.1,1512.4
			c-0.1-4.8-0.3-9.6-0.4-14.4l3.7-0.1c0.1,4.8,0.3,9.6,0.4,14.4L106.1,1512.4z M630.5,1499.2l-3.7,0c0.1-4.8,0.1-9.6,0.2-14.4
			l3.7,0.1C630.6,1489.6,630.5,1494.4,630.5,1499.2z M105.3,1483.6c-0.1-4.8-0.3-9.6-0.5-14.4l3.7-0.1c0.2,4.8,0.3,9.6,0.5,14.4
			L105.3,1483.6z M630.9,1471.3l-3.7-0.1c0.1-4.8,0.1-9.6,0.2-14.4l3.7,0.1C631,1461.7,630.9,1466.5,630.9,1471.3z M104.3,1455.7
			c-0.2-4.8-0.3-9.6-0.5-14.4l3.7-0.1c0.2,4.8,0.4,9.6,0.5,14.4L104.3,1455.7z M631.3,1442.5l-3.7-0.1l0.1-7.9
			c0-2.2,0.1-4.3,0.1-6.5l3.7,0.1c0,2.2-0.1,4.3-0.1,6.5L631.3,1442.5z M103.2,1426.9l-0.6-14.4l3.7-0.1l0.6,14.4L103.2,1426.9z
			 M631.8,1413.7l-3.7-0.1c0.1-4.8,0.2-9.6,0.3-14.4l3.7,0.1C632,1404.1,631.9,1408.9,631.8,1413.7z M102.1,1398.1l-0.6-14.4
			l3.7-0.1l0.6,14.4L102.1,1398.1z M632.4,1385.7l-3.7-0.1c0.1-4.8,0.2-9.6,0.3-14.4l3.7,0.1
			C632.7,1376.1,632.6,1380.9,632.4,1385.7z M101,1370.1l-0.6-14.4l3.7-0.1l0.6,14.4L101,1370.1z M633.2,1356.9l-3.7-0.1
			c0.1-4.8,0.3-9.6,0.4-14.4l3.7,0.1C633.4,1347.3,633.3,1352.1,633.2,1356.9z M99.9,1341.4c-0.2-4.8-0.4-9.6-0.6-14.4l3.7-0.2
			c0.2,4.8,0.4,9.6,0.6,14.4L99.9,1341.4z M634,1328.1l-3.7-0.1c0.1-4.8,0.3-9.6,0.4-14.4l3.7,0.1
			C634.2,1318.5,634.1,1323.3,634,1328.1z M98.7,1312.6c-0.2-4.8-0.4-9.6-0.6-14.4l3.7-0.2c0.2,4.8,0.4,9.6,0.6,14.4L98.7,1312.6z
			 M634.8,1300.2l-3.7-0.1c0.1-4.8,0.3-9.6,0.5-14.4l3.7,0.1C635.1,1290.6,634.9,1295.4,634.8,1300.2z M97.4,1284.7
			c-0.2-4.8-0.5-9.6-0.7-14.4l3.7-0.2c0.2,4.8,0.5,9.6,0.7,14.4L97.4,1284.7z M635.7,1271.4l-3.7-0.1l0.5-14.4l3.7,0.1L635.7,1271.4
			z M96,1255.9l-0.7-14.4l3.7-0.2l0.7,14.4L96,1255.9z M636.7,1242.6l-3.7-0.1l0.5-14.4l3.7,0.1L636.7,1242.6z M94.5,1227.1
			l-0.7-14.4l3.7-0.2l0.7,14.4L94.5,1227.1z M637.6,1214.6l-3.7-0.1l0.5-14.4l3.7,0.1L637.6,1214.6z M93.1,1199.2
			c-0.2-4.8-0.5-9.6-0.7-14.4l3.7-0.2c0.2,4.8,0.5,9.6,0.7,14.4L93.1,1199.2z M638.6,1185.9l-3.7-0.1l0.5-14.8l3.7,0.1L638.6,1185.9
			z M91.8,1170.4c-0.2-4.8-0.5-9.6-0.7-14.4l3.7-0.2c0.2,4.8,0.4,9.6,0.7,14.4L91.8,1170.4z M639.6,1156.7l-3.7-0.1
			c0.1-4.6,0.3-9.4,0.4-14.4l3.7,0.1C639.9,1147.3,639.8,1152.1,639.6,1156.7z M90.4,1141.6c-0.2-4.8-0.4-9.6-0.6-14.4l3.7-0.2
			c0.2,4.8,0.4,9.6,0.6,14.4L90.4,1141.6z M640.5,1127.8l-3.7-0.1c0.1-4.7,0.3-9.5,0.4-14.4l3.7,0.1
			C640.8,1118.3,640.6,1123.1,640.5,1127.8z M89.2,1113.7c-0.2-4.8-0.4-9.6-0.6-14.4l3.7-0.2c0.2,4.8,0.4,9.6,0.6,14.4L89.2,1113.7z
			 M641.3,1099.8l-3.7-0.1c0.1-4.7,0.2-9.5,0.4-14.4l3.7,0.1C641.5,1090.2,641.4,1095,641.3,1099.8z M88,1084.9
			c-0.2-4.8-0.4-9.6-0.6-14.4l3.7-0.1c0.2,4.8,0.4,9.6,0.6,14.4L88,1084.9z M642,1070.9l-3.7-0.1l0.3-14.4l3.7,0.1L642,1070.9z
			 M86.8,1056.1c-0.2-4.8-0.4-9.6-0.5-14.4l3.7-0.1c0.2,4.8,0.4,9.6,0.5,14.4L86.8,1056.1z M642.7,1042.1l-3.7-0.1l0.3-14.4l3.7,0.1
			L642.7,1042.1z M85.8,1028.1c-0.2-4.8-0.4-9.6-0.5-14.4l3.7-0.1c0.2,4.8,0.4,9.6,0.5,14.4L85.8,1028.1z M643.3,1014l-3.7-0.1
			l0.3-14.4l3.7,0.1L643.3,1014z M84.7,999.4L84.1,985l3.7-0.1l0.6,14.4L84.7,999.4z M643.9,985.2l-3.7-0.1
			c0.1-4.9,0.2-9.7,0.3-14.4l3.7,0.1C644.1,975.5,644,980.3,643.9,985.2z M83.5,970.6c-0.2-4.8-0.4-9.6-0.5-14.4l3.7-0.1
			c0.2,4.8,0.4,9.6,0.5,14.4L83.5,970.6z M644.5,956.3l-3.7-0.1l0.3-14.4l3.7,0.1L644.5,956.3z M82.5,942.6
			c-0.2-4.8-0.3-9.6-0.5-14.4l3.7-0.1c0.2,4.8,0.3,9.6,0.5,14.4L82.5,942.6z M645.1,928.3l-3.7-0.1c0.1-5.1,0.2-10,0.3-14.4l3.7,0.1
			C645.3,918.3,645.2,923.1,645.1,928.3z M81.5,913.8c-0.1-4.8-0.3-9.6-0.4-14.4l3.7-0.1c0.1,4.8,0.3,9.6,0.4,14.4L81.5,913.8z
			 M645.6,899.4l-3.7-0.1c0.1-6.5,0.2-11.4,0.2-14.5l3.7,0C645.8,888,645.7,892.9,645.6,899.4z M80.8,885c-0.1-4.8-0.2-9.6-0.3-14.4
			l3.7-0.1c0.1,4.8,0.2,9.6,0.3,14.4L80.8,885z M642.2,870.5c0-4.8,0-9.6,0-14.4l3.7,0c0,4.8,0,9.6,0,14.4L642.2,870.5z M80.3,857
			c-0.1-4.1-0.1-8.3-0.1-12.4l0-2l3.7,0l0,2c0,4.1,0.1,8.3,0.1,12.4L80.3,857z M642,842.6c0-4.8-0.1-9.6-0.2-14.4l3.7,0
			c0.1,4.8,0.1,9.6,0.2,14.4L642,842.6z M80.1,828.2c0-3.4,0-6.9,0-10.3l0-4.1l3.7,0l0,4.1c0,3.4,0,6.9,0,10.3L80.1,828.2z
			 M641.7,813.8c-0.1-4.8-0.2-9.6-0.2-14.4l3.7-0.1c0.1,4.8,0.2,9.6,0.2,14.4L641.7,813.8z M83.8,799.4l-3.7,0c0-4.8,0-9.6,0.1-14.4
			l3.7,0C83.8,789.8,83.8,794.6,83.8,799.4z M641.1,785c-0.1-4.8-0.2-9.6-0.3-14.4l3.7-0.1c0.1,4.8,0.2,9.6,0.3,14.4L641.1,785z
			 M84,771.4l-3.7,0c0-4.8,0.1-9.6,0.1-14.4l3.7,0C84.1,761.8,84,766.6,84,771.4z M640.5,757c-0.1-4.8-0.3-9.6-0.4-14.4l3.7-0.1
			c0.1,4.8,0.3,9.6,0.4,14.4L640.5,757z M84.3,742.6l-3.7,0c0.1-4.8,0.1-9.6,0.2-14.4l3.7,0.1C84.4,733,84.4,737.8,84.3,742.6z
			 M639.6,728.2c-0.1-4.8-0.3-9.6-0.4-14.4l3.7-0.1c0.1,4.8,0.3,9.6,0.4,14.4L639.6,728.2z M84.7,713.8l-3.7-0.1l0.2-14.4l3.7,0.1
			L84.7,713.8z M638.8,699.5l-0.1-3.3c-0.1-3.7-0.3-7.4-0.4-11.1l3.7-0.1c0.1,3.7,0.3,7.4,0.4,11.1l0.1,3.3L638.8,699.5z
			 M85.1,685.9l-3.7-0.1c0.1-4.7,0.2-9.6,0.3-14.4l3.7,0.1C85.3,676.3,85.2,681.2,85.1,685.9z M637.7,671.5
			c-0.2-4.8-0.4-9.6-0.7-14.4l3.7-0.2c0.2,4.8,0.5,9.6,0.7,14.4L637.7,671.5z M86,657.1l-3.7-0.2c0.2-4.7,0.4-9.5,0.7-14.4l3.7,0.2
			C86.4,647.6,86.1,652.4,86,657.1z M636.2,642.8c-0.3-4.9-0.6-9.7-1-14.3l3.7-0.3c0.3,4.7,0.7,9.5,1,14.4L636.2,642.8z M87.4,628.4
			l-3.7-0.2c0.3-4.8,0.6-9.6,0.9-14.4l3.7,0.3C88,618.8,87.7,623.6,87.4,628.4z M634.1,614.1c-0.4-4.8-0.9-9.5-1.3-14.3l3.7-0.4
			c0.5,4.8,0.9,9.6,1.3,14.4L634.1,614.1z M89.3,600.5l-3.7-0.3c0.4-4.8,0.7-9.6,1.1-14.4l3.7,0.3C90.1,590.9,89.7,595.7,89.3,600.5
			z M631.4,586.3c-0.5-4.8-1-9.5-1.5-14.3l3.7-0.4c0.5,4.8,1,9.6,1.5,14.3L631.4,586.3z M91.6,571.8l-3.7-0.3
			c0.4-4.8,0.8-9.6,1.2-14.4l3.7,0.3C92.5,562.2,92,567,91.6,571.8z M628.4,557.6c-0.5-4.8-1-9.5-1.5-14.3l3.7-0.4
			c0.5,4.8,1,9.5,1.5,14.3L628.4,557.6z M94.1,543.1l-3.7-0.3l0.8-9.1c0.2-1.8,0.3-3.5,0.5-5.3l3.7,0.3c-0.2,1.8-0.3,3.5-0.5,5.3
			L94.1,543.1z M625.4,529c-0.2-2.1-0.4-4.2-0.6-6.3c-0.3-2.7-0.5-5.3-0.8-8l3.7-0.4c0.3,2.7,0.6,5.4,0.8,8c0.2,2.1,0.4,4.2,0.6,6.3
			L625.4,529z M96.7,515.3l-3.7-0.4c0.5-4.8,1-9.6,1.5-14.3l3.7,0.4C97.7,505.7,97.2,510.5,96.7,515.3z M622.4,501.2
			c-0.6-4.8-1.1-9.6-1.7-14.3l3.7-0.5c0.6,4.7,1.2,9.5,1.7,14.3L622.4,501.2z M99.8,486.7l-3.7-0.4c0.6-4.8,1.2-9.7,1.7-14.3
			l3.7,0.5C101,477,100.4,481.8,99.8,486.7z M618.8,472.7c-0.7-4.8-1.4-9.6-2.1-14.2l3.7-0.6c0.7,4.7,1.4,9.5,2.1,14.3L618.8,472.7z
			 M103.4,458.1l-3.7-0.5c0.7-4.8,1.4-9.6,2.1-14.3l3.7,0.6C104.8,448.6,104.1,453.4,103.4,458.1z M614.4,444.3
			c-0.8-4.8-1.7-9.5-2.5-14.1l3.6-0.7c0.9,4.6,1.7,9.4,2.6,14.2L614.4,444.3z M107.6,430.5l-3.7-0.6c0.3-1.9,0.6-3.8,0.9-5.6
			c0.5-2.8,1-5.7,1.5-8.6l3.6,0.7c-0.5,2.9-1,5.8-1.5,8.5C108.2,426.8,107.9,428.6,107.6,430.5z M609.2,416.8c-1-4.7-2-9.4-3-14
			l3.6-0.8c1,4.6,2.1,9.4,3.1,14.1L609.2,416.8z M112.9,402.3l-3.6-0.8c1-4.6,2-9.3,3.2-14.1l3.6,0.9
			C114.9,393,113.8,397.7,112.9,402.3z M602.9,388.8c-1-4.1-2.1-8.2-3.1-12.1l-0.5-1.8l3.6-1l0.5,1.8c1.1,4,2.1,8.1,3.2,12.2
			L602.9,388.8z M119.4,374.3l-3.6-0.9c1.2-4.5,2.4-9.2,3.7-13.9l3.6,1C121.8,365.2,120.6,369.8,119.4,374.3z M595.4,361.1
			c-1.3-4.5-2.6-9.1-4-13.8l3.6-1.1c1.4,4.7,2.7,9.3,4,13.8L595.4,361.1z M126.8,347.4l-3.6-1c1.3-4.4,2.6-8.9,4.1-13.8l3.6,1.1
			C129.4,338.5,128.1,343,126.8,347.4z M587.4,334.3c-1.4-4.5-2.8-9.1-4.3-13.7l3.5-1.1c1.5,4.6,2.9,9.3,4.3,13.8L587.4,334.3z
			 M135,319.8l-3.5-1.1c1.3-4.4,2.7-8.7,4-13.1l0.2-0.7l3.5,1.1l-0.2,0.7C137.7,311.1,136.4,315.5,135,319.8z M578.7,306.9
			c-1.5-4.6-3-9.1-4.6-13.6l3.5-1.2c1.5,4.5,3.1,9.1,4.6,13.7L578.7,306.9z M143.5,292.3l-3.5-1.1c1.6-4.9,3-9.4,4.4-13.7l3.5,1.1
			C146.5,282.9,145.1,287.4,143.5,292.3z M569.4,279.6c-1.6-4.5-3.2-9.1-4.8-13.6l3.5-1.2c1.6,4.5,3.2,9.1,4.8,13.6L569.4,279.6z
			 M152.2,265.7l-3.5-1.2c1.6-4.7,3.2-9.3,4.8-13.6l3.5,1.3C155.4,256.5,153.8,261.1,152.2,265.7z M560.1,253.3l-0.4-1.2
			c-1.5-4.1-3.1-8.2-4.7-12.3l3.4-1.4c1.6,4,3.2,8.2,4.7,12.4l0.4,1.2L560.1,253.3z M161.9,238.7l-3.5-1.3c1.8-4.6,3.6-9.1,5.4-13.4
			l3.4,1.4C165.5,229.7,163.7,234.2,161.9,238.7z M549.5,226.7c-1.9-4.4-3.9-8.8-6-13l3.3-1.6c2.1,4.3,4.1,8.7,6,13.1L549.5,226.7z
			 M173,212.3l-3.4-1.5c2-4.4,4.1-8.8,6.3-13l3.3,1.7C177.1,203.5,175,207.9,173,212.3z M537,200.8c-2.2-4.2-4.6-8.4-6.9-12.5
			l3.2-1.9c2.4,4.1,4.8,8.4,7,12.7L537,200.8z M185.5,187.4l-3.2-1.8c2.4-4.2,4.9-8.4,7.4-12.5l3.1,2
			C190.3,179.1,187.9,183.2,185.5,187.4z M523.1,176.7c-2.5-4-5.2-8.1-7.9-12l3.1-2.1c2.7,3.9,5.4,8,8,12.1L523.1,176.7z
			 M200.7,163.2l-3-2.1c2.8-4,5.7-7.9,8.6-11.7l2.9,2.3C206.3,155.4,203.4,159.2,200.7,163.2z M506.9,153.1c-2.9-3.8-5.9-7.6-9-11.1
			l2.8-2.4c3.1,3.6,6.2,7.3,9.2,11.3L506.9,153.1z M218.3,140.7l-2.8-2.5c2.6-2.9,5.3-5.8,8-8.6c0.7-0.7,1.3-1.3,2-2l2.6,2.6
			c-0.6,0.6-1.3,1.3-1.9,1.9C223.6,134.9,220.9,137.8,218.3,140.7z M488.1,131.8c-3.4-3.3-7-6.5-10.6-9.4l2.3-2.9
			c3.7,3,7.4,6.2,10.9,9.7L488.1,131.8z M238.1,121.3l-2.4-2.9c3.8-3.1,7.7-6,11.7-8.7l2,3.1C245.6,115.5,241.8,118.3,238.1,121.3z
			 M466.6,114.4c-3.9-2.6-8-5.1-12.2-7.3l1.8-3.3c4.2,2.3,8.4,4.8,12.5,7.5L466.6,114.4z M261.8,105.7l-1.7-3.3
			c4.3-2.2,8.8-4.3,13.3-6l1.4,3.5C270.3,101.5,266,103.5,261.8,105.7z M441.6,101c-4.4-1.8-8.9-3.4-13.4-4.7l1.1-3.6
			c4.7,1.4,9.3,3,13.8,4.8L441.6,101z M288.2,95.3l-1-3.6c4.6-1.3,9.4-2.3,14.2-3.1l0.6,3.7C297.3,93.1,292.7,94.1,288.2,95.3z
			 M414.4,92.9c-1.1-0.2-2.1-0.4-3.2-0.6c-3.6-0.6-7.3-1.2-10.9-1.7l0.5-3.7c3.7,0.5,7.4,1.1,11,1.7c1.1,0.2,2.2,0.4,3.3,0.6
			L414.4,92.9z M315.4,90.4l-0.5-3.7c4.8-0.6,9.6-1.1,14.4-1.5l0.3,3.7C324.9,89.3,320.1,89.8,315.4,90.4z M386.9,89.1
			c-4.7-0.4-9.5-0.8-14.3-1l0.2-3.7c4.8,0.2,9.7,0.6,14.4,1L386.9,89.1z M344,88.1l-0.1-3.7c4.5-0.2,9.1-0.3,13.5-0.3l0.9,0l0,3.7
			l-0.9,0C352.9,87.8,348.4,87.9,344,88.1z"/>
	</g>
</g>
</svg>
