<?xml version="1.0" encoding="utf-8"?>
<!-- Generator: Adobe Illustrator 26.3.1, SVG Export Plug-In . SVG Version: 6.00 Build 0)  -->
<svg version="1.1" id="Layer_1" xmlns="http://www.w3.org/2000/svg" xmlns:xlink="http://www.w3.org/1999/xlink" x="0px" y="0px"
	 viewBox="0 0 654 2382" style="enable-background:new 0 0 654 2382;" xml:space="preserve">
<style type="text/css">
	.st0{fill:#005EFF;}
	.st1{fill:#7900FF;}
	.st2{fill:#38E841;}
	.st3{fill:#ED1E77;}
</style>
<g>
	<g>
		<g>
			<g>
				<g>
					<g>
						<g>
							<path class="st0" d="M273.6,525.6c-5.7,0-8.6-4.4-8.6-8.7c0-2.2,0.8-4.4,2.1-6c1.6-1.8,3.9-2.8,6.5-2.8
								c5.6,0,8.5,4.4,8.5,8.7S279.2,525.6,273.6,525.6z M273.6,512.6c-1.3,0-2.3,0.4-3,1.3c-0.7,0.8-1,1.9-1,3
								c0,1.9,1.1,4.2,4.1,4.2c3.2,0,4.1-2.7,4-4.3C277.6,514.9,276.5,512.6,273.6,512.6z"/>
						</g>
						<g>
							<path class="st0" d="M377.9,525.6c-5.7,0-8.6-4.4-8.6-8.7c0-2.2,0.8-4.4,2.1-6c1.6-1.8,3.9-2.8,6.5-2.8
								c5.6,0,8.6,4.4,8.6,8.7S383.6,525.6,377.9,525.6z M377.9,512.6c-1.3,0-2.3,0.4-3,1.3c-0.7,0.8-1,1.9-1,3
								c0,1.9,1.1,4.2,4.1,4.2c3.3,0,4.1-2.7,4.1-4.3C382,514.9,380.9,512.6,377.9,512.6z"/>
						</g>
						<g>
							<path class="st0" d="M273.6,661.1c-5.6,0-8.6-4.4-8.6-8.7c0-2.2,0.8-4.4,2.1-6c1.6-1.8,3.9-2.8,6.5-2.8
								c5.6,0,8.5,4.4,8.5,8.8c0,2.2-0.8,4.4-2.1,5.9C278.4,660.1,276.2,661.1,273.6,661.1z M273.6,648.1c-1.3,0-2.3,0.4-3,1.3
								c-0.7,0.8-1,1.9-1,3c0,1.9,1.1,4.2,4.1,4.2c1.3,0,2.3-0.4,3-1.2s1-1.9,1-3C277.6,650.4,276.6,648.1,273.6,648.1z"/>
						</g>
						<g>
							<path class="st0" d="M377.9,661.1c-5.6,0-8.6-4.4-8.6-8.7c0-2.2,0.8-4.4,2.1-6c1.6-1.8,3.9-2.8,6.5-2.8
								c5.7,0,8.6,4.4,8.6,8.8c0,2.2-0.8,4.4-2.1,5.9C382.8,660.1,380.5,661.1,377.9,661.1z M377.9,648.1c-1.3,0-2.3,0.4-3,1.3
								c-0.7,0.8-1,1.9-1,3c0,1.9,1.1,4.2,4.1,4.2c1.3,0,2.4-0.4,3.1-1.3c0.7-0.8,1-1.8,1-3C382,650.4,380.9,648.1,377.9,648.1z"/>
						</g>
					</g>
				</g>
				<g>
					<g>
						<g>
							<path class="st0" d="M273.6,1688c-5.6,0-8.6-4.4-8.6-8.7c0-2.2,0.8-4.4,2.1-6c1.6-1.8,3.9-2.8,6.5-2.8c5.6,0,8.5,4.4,8.5,8.8
								c0,2.2-0.8,4.4-2.1,5.9C278.4,1687,276.2,1688,273.6,1688z M273.6,1675c-1.3,0-2.3,0.4-3,1.3c-0.7,0.8-1,1.9-1,3
								c0,1.9,1.1,4.2,4.1,4.2c1.3,0,2.3-0.4,3-1.2c0.7-0.8,1-1.9,1-3C277.6,1677.3,276.6,1675,273.6,1675z"/>
						</g>
						<g>
							<path class="st0" d="M377.9,1688c-5.6,0-8.6-4.4-8.6-8.7c0-2.2,0.8-4.4,2.1-6c1.6-1.8,3.9-2.8,6.5-2.8c5.6,0,8.6,4.4,8.6,8.7
								c0,2.2-0.8,4.4-2.1,6C382.7,1687,380.5,1688,377.9,1688z M377.9,1675c-1.3,0-2.3,0.4-3,1.3c-0.7,0.8-1,1.9-1,3
								c0,1.9,1.1,4.2,4.1,4.2c1.3,0,2.3-0.4,3-1.3c0.7-0.8,1-1.9,1-3C382,1677.3,380.9,1675,377.9,1675z"/>
						</g>
						<g>
							<path class="st0" d="M273.6,1823.5c-5.6,0-8.6-4.4-8.6-8.7c0-2.2,0.8-4.4,2.1-6c1.6-1.8,3.9-2.8,6.5-2.8
								c5.6,0,8.5,4.4,8.5,8.8c0,2.2-0.8,4.4-2.1,5.9C278.4,1822.5,276.2,1823.5,273.6,1823.5z M273.6,1810.5c-1.3,0-2.3,0.4-3,1.3
								c-0.7,0.8-1,1.9-1,3c0,1.9,1.1,4.2,4.1,4.2c1.3,0,2.3-0.4,3-1.2c0.7-0.8,1-1.9,1-3C277.6,1812.8,276.6,1810.5,273.6,1810.5z"
								/>
						</g>
						<g>
							<path class="st0" d="M377.9,1823.5c-5.6,0-8.6-4.4-8.6-8.7c0-2.2,0.8-4.4,2.1-6c1.6-1.8,3.9-2.8,6.5-2.8
								c5.6,0,8.6,4.4,8.6,8.7c0,2.2-0.8,4.4-2.1,6C382.7,1822.5,380.5,1823.5,377.9,1823.5z M377.9,1810.5c-1.3,0-2.3,0.4-3,1.3
								c-0.7,0.8-1,1.9-1,3c0,1.9,1.1,4.2,4.1,4.2c1.3,0,2.3-0.4,3-1.3c0.7-0.8,1-1.9,1-3C382,1812.8,380.9,1810.5,377.9,1810.5z"/>
						</g>
					</g>
				</g>
			</g>
		</g>
		<g>
			<g>
				<path class="st1" d="M324.3,2381.1c-18.1,0-35.2-1-51.9-3.1c-33.4-4.2-66.6-15.8-101.7-35.5c-39.5-22.3-67.8-54.9-86.4-99.6
					c-15.6-37.5-28.2-78.4-37.3-121.6c-8.3-39.3-15-78.9-20-117.7c-2.4-18.9-3.8-38.1-5.2-56.7c-2-26.9-3.8-55-5.5-85.8
					c-1-17.5-1.7-35.2-2.4-52.4c-0.2-4.2-0.3-8.4-0.5-12.7c-3.3-80-4.8-161.7-6.3-240.7c-0.4-20.1-0.7-40.1-1.1-60.2
					c-1.4-69-2.7-138.7-3.8-200.1c-0.4-20.9-0.7-41.1-1.1-60.2l0,0c0-36.1,0-70.7-0.1-104.1C0.9,1056.8,0.8,987,1.1,918
					c0.1-27.6,1.1-55.6,2-82.7c0.4-10.8,0.7-22,1-32.9c1-34.1,2.1-68.8,3.1-102.3l0.1-2.6c0.4-12,0.8-24.1,1.1-36.1
					c0.8-26.7,1.6-54.3,2.9-81.5c1.8-39.8,5.1-81.2,10.2-126.6c4.8-43.3,11.3-79.1,20.4-112.5c15-55.7,37.7-108.9,69.3-162.6
					c23.5-39.9,52.3-75.6,85.6-106.1c27.7-25.3,59.6-46.4,95-62.5c11.1-5.1,20.7-7.8,30.3-8.6c10.5-0.8,21.1,1.1,33.4,5.7
					c21.9,8.3,41.6,20.6,57.9,31.5c50.8,33.8,93.3,79.3,126.3,135.3c7.6,12.8,14.8,25.6,21.5,38.1c28.5,52.4,48.6,110.1,61.6,176.5
					c6,30.8,9.3,62.3,12.1,90.2c5.1,50.3,8.2,104.2,10,174.9c1.5,55.7,3.4,121.6,5.7,188.3c3.1,87.8,2.7,177.1,2.3,263.5
					c-0.1,13.1-0.1,26.2-0.2,39.3c-0.3,85.1-1.5,170.7-2.5,235.8c-0.9,61-2.3,123-3.6,183c-0.4,17.6-0.8,35.2-1.2,52.7
					c-0.9,42.6-1.8,86.7-3.3,130.2c-1.8,48.8-3.9,96.6-6.4,142c-2,35.8-4.3,67.9-7.2,98.4c-2,21.2-5.5,42.5-8.8,63.2l-0.6,3.8
					c-4.7,29.4-10.5,63.6-19.2,96.6c-8.4,31.4-18.1,64.9-32.6,97.3c-11.8,26.1-24.6,45.7-40.3,61.8c-6.8,6.9-12.6,12-18.2,16
					c-37,26.9-73,43.1-109.8,49.7c-14.3,2.5-29.3,4.3-44.5,5.2C344.1,2380.8,334.1,2381.1,324.3,2381.1z M5.5,1234.7
					c0.4,19.1,0.7,39.3,1.1,60.2C7.7,1356.3,9,1426,10.4,1495c0.4,20.1,0.8,40.2,1.1,60.2c1.5,79,3,160.6,6.3,240.6
					c0.2,4.2,0.3,8.4,0.5,12.7c0.7,17.1,1.4,34.8,2.4,52.3c1.7,30.8,3.5,58.8,5.5,85.8c1.4,18.5,2.8,37.7,5.2,56.5
					c5,38.7,11.7,78.2,20,117.3c9.1,42.9,21.6,83.6,37.1,120.8c18.2,43.8,45.8,75.6,84.4,97.4c34.6,19.4,67.3,30.8,100.1,34.9
					c25.5,3.2,52.1,3.9,81.3,2.2c15-0.9,29.8-2.7,43.9-5.2c36.2-6.4,71.5-22.4,108-48.9c5.4-3.9,11-8.8,17.6-15.6
					c15.4-15.6,27.9-34.8,39.5-60.4c14.4-32.1,24.1-65.4,32.4-96.7c8.7-32.8,14.4-66.9,19.2-96.2l0.6-3.8
					c3.3-20.6,6.8-41.8,8.8-62.9c2.9-30.4,5.2-62.5,7.2-98.2c2.5-45.4,4.6-93.1,6.4-142c1.5-43.5,2.4-87.5,3.3-130.2
					c0.4-17.6,0.8-35.2,1.2-52.7c1.3-59.9,2.7-121.9,3.6-182.9c1.1-69.1,2.2-151.2,2.5-235.8c0.1-13.1,0.1-26.2,0.2-39.3
					c0.4-86.3,0.9-175.6-2.3-263.3c-2.3-66.7-4.2-132.6-5.7-188.3c-1.8-70.5-4.9-124.3-10-174.5c-2.9-27.8-6.1-59.2-12.1-89.8
					c-12.9-66-32.9-123.3-61.2-175.3c-6.7-12.5-13.9-25.2-21.5-37.9c-32.7-55.3-74.7-100.3-125-133.8
					c-16.2-10.8-35.6-22.9-57.1-31.1c-11.6-4.4-21.6-6.2-31.4-5.5c-9,0.7-18.2,3.3-28.7,8.1c-34.9,15.9-66.5,36.7-93.8,61.7
					c-33,30.2-61.5,65.6-84.8,105.1c-31.4,53.3-54,106.1-68.9,161.4c-9,33.2-15.5,68.8-20.2,111.9c-5.1,45.3-8.4,86.7-10.2,126.4
					c-1.2,27.1-2.1,54.7-2.9,81.4c-0.4,12-0.7,24.1-1.1,36.1l-0.1,2.6c-1.1,33.5-2.1,68.1-3.1,102.3c-0.3,11-0.7,22.1-1,32.9
					c-0.9,27.1-1.8,55.1-2,82.6c-0.3,69-0.2,138.8-0.2,212.7C5.5,1164.1,5.5,1198.6,5.5,1234.7z"/>
			</g>
		</g>
	</g>
	<g>
		<g>
			<path class="st2" d="M325.2,2344.6c-16.5,0-32.5-1-48-3c-30.6-4-61-15.2-92.9-34.3c-36-21.5-61.8-52.9-78.7-96.2
				c-14.3-36.3-25.8-75.9-34.2-117.8c-7.5-37.5-13.6-75.9-18.3-114c-2.2-18.4-3.5-37.3-4.7-55c-1.6-24-3.2-49.6-5-83.1
				c-1.1-21.2-1.9-42.5-2.7-63.1c-3.2-79.7-4.6-160.8-6-239.1c-0.3-17.7-0.6-35.4-0.9-53.1c-1.8-85.2-3.3-171.7-4.6-252.4l0,0
				c0-35,0-68.5-0.1-100.9c-0.1-71.7-0.1-139.3,0.2-206.3c0.1-26.7,0.9-53.8,1.7-80c0.3-10.5,0.7-21.4,1-32.1
				c0.9-33.9,1.9-68.4,2.9-101.7c0.2-8.4,0.5-16.8,0.7-25.2c0.8-29.1,1.6-59.2,2.9-88.7c1.6-38.3,4.6-78.4,9.3-122.8
				c4.5-42.5,10.4-77.2,18.6-109c13.9-54,34.6-105.5,63.4-157.4c21.5-38.7,47.9-73.3,78.3-102.7c25-24.3,54.2-44.7,86.9-60.5
				c10.1-4.9,18.8-7.5,27.5-8.1c9.4-0.7,19.1,1,30.3,5.6c20.1,8.2,38.1,20,53,30.5c46.6,32.9,85.4,77,115.4,131.1
				c6.4,11.5,12.9,23.6,19.7,36.8c26.2,51.1,44.6,107.1,56.3,171c5.3,28.7,8.3,57.7,11.1,87.4c5.7,59.8,7.9,119.3,9.2,169.5
				c1.6,65.4,3.3,125.1,5.2,182.5c2.9,85.9,2.5,173.2,2.1,257.7c-0.1,12-0.1,24-0.2,35.9c-0.3,65.9-1,136.5-2.3,228.6
				c-0.9,65.3-2.3,131.6-3.7,195.8l-0.7,32.8c-0.2,9.3-0.4,18.7-0.6,28c-0.7,32.2-1.3,65.5-2.4,98.2c-1.4,42.5-3.3,87.5-5.8,137.7
				c-1.7,34.6-3.9,65.8-6.6,95.4c-2,22-5.4,43.8-8.6,64.9c-4.6,30.3-9.8,62.4-17.6,93.6c-7.2,28.8-16.3,62.5-29.8,94.2
				c-10.6,24.8-22.6,44.4-36.9,59.7c-5.8,6.2-11.2,11.3-16.6,15.5c-34,26-66.8,41.8-100.3,48.1c-13.4,2.5-27,4.2-40.6,5.1
				C343.2,2344.4,334.1,2344.6,325.2,2344.6z M32.2,1233.4c1.3,80.7,2.8,167.2,4.6,252.4c0.3,17.7,0.6,35.4,0.9,53.1
				c1.4,78.4,2.8,159.4,6,239.1c0.8,20.6,1.6,41.9,2.7,63.1c1.8,33.5,3.4,59.1,5,83.1c1.2,17.7,2.5,36.5,4.7,54.8
				c4.7,38.1,10.8,76.4,18.3,113.8c8.4,41.7,19.8,81.1,34,117.2c16.7,42.7,42.1,73.6,77.5,94.8c31.6,18.9,61.6,30,91.7,33.9
				c23.7,3,48.7,3.7,74.5,2.1c13.4-0.9,27-2.6,40.2-5.1c33.1-6.2,65.5-21.8,99.1-47.5c5.2-4.1,10.5-9,16.2-15.1
				c14-15.1,25.9-34.3,36.3-58.9c13.4-31.6,22.5-65.1,29.6-93.8c7.8-31.1,13-63.2,17.6-93.4c3.2-21,6.6-42.8,8.6-64.7
				c2.7-29.5,4.9-60.6,6.6-95.2c2.5-50.2,4.4-95.2,5.8-137.7c1.1-32.7,1.8-65.9,2.4-98.1c0.2-9.3,0.4-18.7,0.6-28l0.7-32.8
				c1.4-64.2,2.8-130.5,3.7-195.8c1.3-92.2,2-162.7,2.3-228.6c0-12,0.1-24,0.2-35.9c0.4-84.5,0.8-171.8-2.1-257.6
				c-1.9-57.4-3.6-117.1-5.2-182.5c-1.3-50.2-3.5-109.5-9.2-169.3c-2.8-29.7-5.8-58.6-11.1-87.2c-11.7-63.7-30-119.3-56.1-170.2
				c-6.8-13.2-13.3-25.2-19.7-36.8c-29.8-53.7-68.3-97.5-114.6-130.1c-14.8-10.4-32.5-22.1-52.4-30.1c-10.8-4.4-20-6.1-28.9-5.4
				c-8.3,0.6-16.7,3.1-26.5,7.9c-32.4,15.7-61.4,35.8-86.1,59.9c-30.2,29.3-56.3,63.6-77.7,102.1c-28.6,51.5-49.3,102.8-63.1,156.5
				c-8.2,31.8-14.1,66.3-18.5,108.6c-4.7,44.3-7.7,84.4-9.3,122.6c-1.2,29.5-2.1,59.6-2.9,88.7c-0.2,8.4-0.5,16.8-0.7,25.2
				c-1,33.3-2,67.8-2.9,101.7c-0.3,10.7-0.6,21.6-1,32.1c-0.8,26.2-1.7,53.3-1.7,80c-0.3,67-0.2,134.7-0.2,206.3
				C32.1,1165,32.2,1198.5,32.2,1233.4z"/>
		</g>
	</g>
	<g>
		<g>
			<path class="st3" d="M330.2,2296.8v-3c4.4-0.1,9-0.2,13.5-0.5l0.2,3C339.3,2296.6,334.7,2296.7,330.2,2296.8z M316.6,2296.7
				c-4.6-0.1-9.2-0.3-13.6-0.6l0.2-3c4.4,0.3,9,0.5,13.5,0.6L316.6,2296.7z M357.5,2295.3l-0.3-3c4.5-0.4,9-1,13.4-1.6l0.4,3
				C366.6,2294.4,362,2294.9,357.5,2295.3z M289.4,2294.9c-2.6-0.3-5.1-0.6-7.6-0.9c-2-0.3-4-0.6-6-0.9l0.5-3c2,0.3,3.9,0.6,5.9,0.9
				c2.5,0.3,5,0.7,7.5,0.9L289.4,2294.9z M384.5,2291.5l-0.6-2.9l1.8-0.4c3.8-0.7,7.6-1.6,11.3-2.7l0.8,2.9c-3.8,1-7.7,1.9-11.5,2.7
				L384.5,2291.5z M262.4,2290.2c-4.3-1.1-8.8-2.4-13.1-3.9l1-2.8c4.3,1.4,8.6,2.7,12.9,3.8L262.4,2290.2z M410.9,2284.3l-1-2.8
				c4.2-1.5,8.4-3.2,12.5-5.1l1.2,2.7C419.4,2281,415.1,2282.8,410.9,2284.3z M236.5,2281.5c-4.1-1.7-8.3-3.6-12.5-5.6l1.3-2.7
				c4.1,2,8.2,3.8,12.3,5.5L236.5,2281.5z M435.9,2273.1l-1.4-2.6c3.9-2.1,7.8-4.3,11.7-6.7l1.6,2.6
				C443.8,2268.7,439.8,2271,435.9,2273.1z M211.9,2269.6c-3.9-2.1-7.8-4.5-11.8-6.9l1.6-2.6c3.9,2.4,7.8,4.7,11.7,6.8L211.9,2269.6
				z M459.2,2258.8l-1.7-2.5c3.6-2.5,7.3-5.2,10.9-8l1.8,2.4C466.5,2253.6,462.8,2256.3,459.2,2258.8z M188.7,2255.1
				c-3.7-2.7-7.3-5.5-10.7-8.5l2-2.3c3.4,2.9,6.9,5.7,10.5,8.4L188.7,2255.1z M480.9,2242.1l-2-2.2c3.1-2.8,6.2-5.9,9.4-9.5l2.2,2
				C487.2,2236.1,484,2239.3,480.9,2242.1z M168,2237.2c-3.2-3.2-6.2-6.7-9.1-10.2l2.3-1.9c2.9,3.5,5.9,6.8,9,10L168,2237.2z
				 M499.2,2221.8l-2.4-1.8c2.6-3.5,5.2-7.2,7.6-11.1l2.5,1.6C504.5,2214.4,501.9,2218.2,499.2,2221.8z M150.5,2216.1
				c-2.6-3.7-5.1-7.6-7.4-11.5l2.6-1.5c2.3,3.9,4.8,7.7,7.3,11.3L150.5,2216.1z M513.9,2198.6l-2.6-1.4c2-3.8,4.1-7.9,6-12.1
				l2.7,1.3C518,2190.6,515.9,2194.8,513.9,2198.6z M136.6,2192.6c-2-4-4-8.2-5.8-12.4l2.8-1.2c1.8,4.2,3.7,8.3,5.7,12.2
				L136.6,2192.6z M525.3,2173.9l-2.8-1.2c1.6-4.1,3.3-8.3,4.8-12.6l2.8,1c-1.6,4.3-3.2,8.6-4.9,12.6L525.3,2173.9z M125.8,2167.5
				c-1.6-4.2-3.1-8.5-4.6-12.8l2.8-1c1.5,4.3,3,8.6,4.5,12.8L125.8,2167.5z M534.7,2148.2l-2.8-0.9c1.4-4.1,2.7-8.5,4.1-12.9
				l2.9,0.9C537.4,2139.7,536.1,2144.1,534.7,2148.2z M116.9,2141.7c-1.4-4.3-2.7-8.7-4-13l2.9-0.9c1.3,4.3,2.6,8.7,4,13
				L116.9,2141.7z M542.6,2122.1l-2.9-0.8c1.2-4.2,2.3-8.6,3.5-13.1l2.9,0.8C544.9,2113.5,543.7,2118,542.6,2122.1z M109.2,2115.6
				c-1.2-4.3-2.4-8.8-3.5-13.2l2.9-0.7c1.1,4.4,2.3,8.8,3.5,13.1L109.2,2115.6z M549.5,2095.8l-2.9-0.7c1-3.9,1.9-7.8,2.9-11.8
				l0.3-1.4l2.9,0.7l-0.3,1.4C551.4,2088,550.4,2091.9,549.5,2095.8z M102.4,2089.2c-1-4.4-2-8.8-3-13.3l2.9-0.6c1,4.4,2,8.9,3,13.2
				L102.4,2089.2z M555.7,2069.3l-2.9-0.6c0.9-4.3,1.8-8.8,2.7-13.3l2.9,0.6C557.5,2060.5,556.6,2065,555.7,2069.3z M96.7,2062.6
				c-0.3-1.7-0.7-3.4-1-5.1c-0.5-2.7-1-5.5-1.5-8.2l3-0.5c0.5,2.7,1,5.5,1.5,8.2c0.3,1.7,0.7,3.4,1,5.1L96.7,2062.6z M560.8,2042.6
				l-3-0.5c0.8-4.3,1.5-8.8,2.3-13.4l3,0.5C562.3,2033.8,561.6,2038.3,560.8,2042.6z M91.8,2035.8c-0.8-4.5-1.5-8.9-2.3-13.4l3-0.5
				c0.7,4.5,1.5,8.9,2.3,13.4L91.8,2035.8z M565.2,2015.7l-3-0.5c0.7-4.5,1.3-9,2-13.4l3,0.4
				C566.5,2006.8,565.9,2011.2,565.2,2015.7z M87.3,2009c-0.7-4.5-1.4-9-2-13.4l3-0.4c0.7,4.5,1.3,8.9,2,13.4L87.3,2009z
				 M569.1,1988.8l-3-0.4c0.7-4.5,1.3-9,1.9-13.4l3,0.4C570.4,1979.9,569.8,1984.3,569.1,1988.8z M83.3,1982.1
				c-0.6-4.5-1.2-9-1.8-13.5l3-0.4c0.6,4.5,1.2,9,1.8,13.5L83.3,1982.1z M572.9,1961.9l-3-0.4c0.6-4.8,1.2-9.2,1.6-13.5l3,0.3
				C574.1,1952.6,573.5,1957.1,572.9,1961.9z M79.8,1955.1c-0.3-2.1-0.5-4.1-0.7-6.2c-0.3-2.4-0.5-4.9-0.8-7.3l3-0.3
				c0.2,2.4,0.5,4.9,0.8,7.3c0.2,2.1,0.5,4.1,0.7,6.2L79.8,1955.1z M575.9,1934.8l-3-0.3l0.2-1.7c0.3-3.9,0.7-7.9,1-11.8l3,0.2
				c-0.3,3.9-0.6,7.9-1,11.8L575.9,1934.8z M77,1928.1c-0.3-4.1-0.7-8.4-1-13.6l3-0.2c0.4,5.2,0.7,9.5,1,13.5L77,1928.1z
				 M578.1,1907.7l-3-0.2c0.3-4.5,0.7-9,1-13.5l3,0.2C578.7,1898.7,578.4,1903.2,578.1,1907.7z M75.1,1900.9l-0.3-4.3
				c-0.2-3.1-0.4-6.2-0.6-9.3l3-0.2c0.2,3.1,0.4,6.2,0.6,9.3l0.3,4.2L75.1,1900.9z M579.9,1880.6l-3-0.2c0.3-4.5,0.6-9,0.8-13.6
				l3,0.2C580.5,1871.5,580.2,1876.1,579.9,1880.6z M73.3,1873.8c-0.3-4.5-0.5-9-0.8-13.6l3-0.2c0.3,4.5,0.5,9,0.8,13.6L73.3,1873.8
				z M581.5,1853.4l-3-0.2c0.2-3.7,0.4-7.4,0.6-11.1l0.1-2.5l3,0.1l-0.1,2.5C581.9,1846,581.7,1849.7,581.5,1853.4z M71.8,1846.7
				c-0.2-4.5-0.5-9-0.7-13.6l3-0.2c0.2,4.5,0.5,9,0.7,13.6L71.8,1846.7z M582.9,1826.3l-3-0.1c0.2-4.5,0.4-9,0.6-13.6l3,0.1
				C583.3,1817.2,583.1,1821.8,582.9,1826.3z M70.4,1819.5l-0.1-2.1c-0.2-3.8-0.4-7.7-0.5-11.5l3-0.1c0.2,3.8,0.4,7.7,0.5,11.5
				l0.1,2.1L70.4,1819.5z M584.1,1799.1l-3-0.1c0.2-4.5,0.4-9,0.6-13.6l3,0.1C584.5,1790.1,584.3,1794.6,584.1,1799.1z M69.2,1792.4
				c-0.2-4.5-0.4-9.1-0.5-13.6l3-0.1c0.2,4.5,0.3,9,0.5,13.6L69.2,1792.4z M585.2,1772l-3-0.1c0.2-4.5,0.4-9,0.5-13.6l3,0.1
				C585.6,1762.9,585.4,1767.5,585.2,1772z M68.1,1765.2l-0.5-13.6l3-0.1l0.5,13.6L68.1,1765.2z M586.2,1744.8l-3-0.1
				c0.2-4.5,0.3-9,0.5-13.6l3,0.1C586.5,1735.8,586.4,1740.3,586.2,1744.8z M67.2,1738c-0.2-4.5-0.3-9.1-0.5-13.6l3-0.1
				c0.1,4.5,0.3,9,0.5,13.6L67.2,1738z M587.2,1717.7l-3-0.1l0.2-6.4c0.1-2.4,0.2-4.8,0.2-7.1l3,0.1c-0.1,2.4-0.1,4.8-0.2,7.1
				L587.2,1717.7z M66.3,1710.9c-0.1-4.5-0.3-9.1-0.4-13.6l3-0.1c0.1,4.5,0.3,9.1,0.4,13.6L66.3,1710.9z M588,1690.5l-3-0.1
				c0.1-4.5,0.2-9.1,0.4-13.6l3,0.1C588.2,1681.4,588.1,1686,588,1690.5z M65.5,1683.7c-0.1-4.5-0.2-9.1-0.3-13.6l3-0.1
				c0.1,4.5,0.2,9.1,0.3,13.6L65.5,1683.7z M588.7,1663.3l-3-0.1c0.1-4.5,0.2-9.1,0.3-13.6l3,0.1
				C588.9,1654.3,588.8,1658.8,588.7,1663.3z M64.9,1656.5c-0.1-4.5-0.2-9.1-0.3-13.6l3-0.1c0.1,4.5,0.2,9.1,0.3,13.6L64.9,1656.5z
				 M589.3,1636.2l-3-0.1l0.3-13.6l3,0.1L589.3,1636.2z M64.3,1629.4c-0.1-4.5-0.2-9.1-0.3-13.6l3-0.1c0.1,4.5,0.2,9.1,0.3,13.6
				L64.3,1629.4z M589.8,1609l-3-0.1l0.3-13.6l3,0.1L589.8,1609z M63.7,1602.2c-0.1-4.5-0.2-9.1-0.3-13.6l3-0.1
				c0.1,4.5,0.2,9.1,0.3,13.6L63.7,1602.2z M590.3,1581.8l-3-0.1l0.3-13.6l3,0.1L590.3,1581.8z M63.2,1575l-0.2-13.6l3-0.1l0.2,13.6
				L63.2,1575z M590.9,1554.7l-3-0.1l0.3-13.6l3,0.1L590.9,1554.7z M62.8,1547.9l-0.2-13.6l3-0.1l0.2,13.6L62.8,1547.9z
				 M591.4,1527.5l-3-0.1l0.3-13.6l3,0.1L591.4,1527.5z M62.3,1520.7l-0.2-13.6l3-0.1l0.2,13.6L62.3,1520.7z M592,1500.3l-3-0.1
				l0.3-13.6l3,0.1L592,1500.3z M61.8,1493.5l-0.2-13.6l3-0.1l0.2,13.6L61.8,1493.5z M592.5,1473.2l-3-0.1l0.3-13.6l3,0.1
				L592.5,1473.2z M61.4,1466.3l-0.2-13.6h3l0.2,13.6H61.4z M593,1446l-3-0.1c0.1-4.5,0.2-9.1,0.2-13.6l3,0.1
				C593.2,1436.9,593.1,1441.5,593,1446z M61,1439.2l-0.2-13.6h3l0.2,13.6H61z M593.5,1418.8l-3-0.1c0.1-4.5,0.2-9.1,0.2-13.6h3
				C593.6,1409.8,593.5,1414.3,593.5,1418.8z M60.5,1412l-0.2-13.6h3l0.2,13.6H60.5z M593.9,1391.6h-3c0.1-4.5,0.1-9.1,0.2-13.6h3
				C594,1382.6,594,1387.1,593.9,1391.6z M60.1,1384.8l-0.2-13.6h3l0.2,13.6H60.1z M594.3,1364.5h-3l0.2-13.6h3L594.3,1364.5z
				 M59.7,1357.6l-0.2-13.6h3l0.2,13.6H59.7z M594.6,1337.3h-3l0.2-13.6h3L594.6,1337.3z M59.3,1330.4l-0.2-13.6h3l0.2,13.6H59.3z
				 M595,1310.1h-3l0.2-13.6h3L595,1310.1z M58.8,1303.3l-0.2-13.6h3l0.2,13.6H58.8z M595.3,1283h-3l0.1-13.6h3L595.3,1283z
				 M58.4,1276.1l-0.2-13.6l3-0.1l0.2,13.6L58.4,1276.1z M595.6,1255.8h-3l0.1-13.6h3L595.6,1255.8z M57.9,1248.9l-0.2-9.8v-13.6h3
				v13.6l0.2,9.8H57.9z M595.8,1228.6h-3l0.1-13.6h3L595.8,1228.6z M57.8,1211.9v-13.6h3v13.6H57.8z M596,1201.4h-3l0.1-13.6h3
				L596,1201.4z M57.8,1184.7v-13.6h3v13.6H57.8z M596.2,1174.3h-3l0.1-13.6h3L596.2,1174.3z M57.7,1157.5v-13.6h3v13.6H57.7z
				 M596.3,1147.1h-3l0.1-13.6h3L596.3,1147.1z M57.7,1130.3v-13.6h3v13.6H57.7z M596.4,1119.9h-3l0.1-13.6h3L596.4,1119.9z
				 M57.7,1103.1v-13.6h3v13.6H57.7z M596.6,1092.7h-3c0-4.5,0-9.1,0-13.6h3C596.6,1083.7,596.6,1088.2,596.6,1092.7z M57.7,1076
				v-13.6h3v13.6H57.7z M596.6,1065.6h-3c0-4.5,0-9.1,0-13.6h3C596.7,1056.5,596.7,1061,596.6,1065.6z M60.7,1048.8h-3v-13.6h3
				V1048.8z M596.7,1038.4h-3v-1.3c0-4.1,0-8.2,0-12.3h3c0,4.1,0,8.2,0,12.3V1038.4z M60.7,1021.6h-3V1008h3V1021.6z M593.6,1011.2
				c0-4.5,0-9.1-0.1-13.6h3c0,4.5,0,9.1,0.1,13.6H593.6z M60.8,994.4h-3v-13.6h3V994.4z M593.5,984.1c0-4.5-0.1-9.1-0.1-13.6h3
				c0,4.5,0.1,9.1,0.1,13.6H593.5z M60.8,967.3h-3v-13.6h3V967.3z M593.3,956.9c-0.1-4.5-0.1-9.1-0.2-13.6h3
				c0.1,4.5,0.1,9.1,0.2,13.6H593.3z M60.9,940.1h-3c0-4.5,0.1-9.1,0.2-13.6h3C61,931,60.9,935.6,60.9,940.1z M592.9,929.7
				c-0.1-4.5-0.2-9.1-0.3-13.6l3-0.1c0.1,4.5,0.2,9.1,0.3,13.6L592.9,929.7z M61.3,912.9l-3-0.1c0.1-4.5,0.2-9.1,0.3-13.6l3,0.1
				C61.5,903.9,61.4,908.4,61.3,912.9z M592.3,902.6c-0.1-4.5-0.2-9.1-0.4-13.6l3-0.1c0.1,4.5,0.2,9.1,0.4,13.6L592.3,902.6z
				 M62,885.8l-3-0.1c0.1-4.5,0.3-9.1,0.4-13.6l3,0.1C62.3,876.7,62.2,881.3,62,885.8z M591.5,875.4c-0.1-4.5-0.3-9.1-0.4-13.6
				l3-0.1c0.1,4.5,0.3,9.1,0.4,13.6L591.5,875.4z M62.8,858.6l-3-0.1c0.1-4.5,0.3-9.1,0.4-13.6l3,0.1
				C63.1,849.6,63,854.1,62.8,858.6z M590.7,848.3c-0.1-4.5-0.3-9.1-0.4-13.6l3-0.1c0.1,4.5,0.3,9.1,0.4,13.6L590.7,848.3z
				 M63.6,831.5l-3-0.1l0.3-13.6l3,0.1L63.6,831.5z M589.9,821.1l-0.4-13.6l3-0.1l0.4,13.6L589.9,821.1z M64.3,804.3l-3-0.1
				l0.4-13.6l3,0.1L64.3,804.3z M589.2,793.9l-0.4-13.6l3-0.1l0.4,13.6L589.2,793.9z M65,777.1l-3-0.1l0.4-13.6l3,0.1L65,777.1z
				 M588.5,766.8l-0.3-13.6l3-0.1l0.3,13.6L588.5,766.8z M65.8,750l-3-0.1l0.4-13.6l3,0.1L65.8,750z M587.8,739.6l-0.3-13.6l3-0.1
				l0.3,13.6L587.8,739.6z M66.5,722.8l-3-0.1l0.4-13.6l3,0.1L66.5,722.8z M587.1,712.4l-0.3-13.6l3-0.1l0.3,13.6L587.1,712.4z
				 M67.2,695.6l-3-0.1c0.1-4.5,0.3-9.1,0.4-13.6l3,0.1C67.5,686.6,67.4,691.1,67.2,695.6z M586.4,685.3c-0.1-4.5-0.3-9.1-0.4-13.6
				l3-0.1c0.1,4.5,0.3,9.1,0.4,13.6L586.4,685.3z M68,668.5l-3-0.1c0.1-4.5,0.3-9.1,0.5-13.6l3,0.1C68.3,659.4,68.2,664,68,668.5z
				 M585.6,658.1c-0.2-4.5-0.3-9-0.5-13.6l3-0.1c0.2,4.5,0.3,9.1,0.5,13.6L585.6,658.1z M69,641.3l-3-0.1c0.1-2.2,0.2-4.5,0.3-6.7
				c0.1-2.3,0.2-4.6,0.3-6.9l3,0.1c-0.1,2.3-0.2,4.6-0.3,6.9S69.1,639.1,69,641.3z M584.5,631c-0.2-4.5-0.4-9-0.6-13.6l3-0.2
				c0.2,4.5,0.4,9.1,0.6,13.6L584.5,631z M70.2,614.2l-3-0.2c0.2-4.5,0.5-9.1,0.8-13.6l3,0.2C70.7,605.2,70.5,609.7,70.2,614.2z
				 M583.1,603.9c-0.3-4.5-0.5-9-0.8-13.6l3-0.2c0.3,4.5,0.6,9,0.8,13.6L583.1,603.9z M71.8,587.1l-3-0.2c0.3-4.5,0.6-9,1-13.6
				l3,0.2C72.5,578.1,72.1,582.6,71.8,587.1z M581.4,576.8c-0.3-4.5-0.7-9-1-13.5l3-0.2c0.4,4.5,0.7,9,1,13.6L581.4,576.8z
				 M73.8,560l-3-0.2c0.4-4.5,0.7-9,1.1-13.5l3,0.3C74.6,551,74.2,555.5,73.8,560z M579.3,549.7c-0.2-2.8-0.5-5.5-0.7-8.3l-0.5-5.2
				l3-0.3l0.5,5.2c0.3,2.8,0.5,5.5,0.7,8.3L579.3,549.7z M76.2,533l-3-0.3c0.4-4.5,0.9-9,1.3-13.5l3,0.3
				C77.1,524,76.6,528.5,76.2,533z M576.8,522.7c-0.4-4.5-0.9-9-1.4-13.5l3-0.3c0.5,4.5,0.9,9,1.4,13.5L576.8,522.7z M78.9,506
				l-3-0.3c0.5-4.6,1-9.1,1.6-13.5l3,0.4C80,496.9,79.4,501.4,78.9,506z M574,495.7c-0.5-4.6-1.1-9.1-1.7-13.5l3-0.4
				c0.6,4.3,1.2,8.9,1.7,13.5L574,495.7z M82.3,479.1l-3-0.4c0.6-4.6,1.3-9.1,2-13.5l3,0.5C83.6,470,82.9,474.5,82.3,479.1z
				 M570.3,468.8c-0.5-3.5-1.1-7-1.7-10.4l-0.5-3l3-0.5l0.5,3c0.6,3.4,1.2,6.9,1.7,10.4L570.3,468.8z M86.5,452.3l-3-0.5
				c0.8-4.5,1.7-9,2.5-13.4l2.9,0.6C88.2,443.3,87.3,447.8,86.5,452.3z M565.5,442.1c-0.9-4.5-1.8-8.9-2.8-13.3l2.9-0.6
				c0.9,4.4,1.9,8.9,2.8,13.3L565.5,442.1z M91.8,425.7l-2.9-0.7c0.8-3.7,1.7-7.5,2.6-11.1l0.5-2.1l2.9,0.7l-0.5,2.1
				C93.5,418.3,92.7,422,91.8,425.7z M559.8,415.6c-1-4.4-2.1-8.8-3.3-13.2l2.9-0.8c1.1,4.3,2.2,8.8,3.3,13.2L559.8,415.6z
				 M98.3,399.4l-2.9-0.8c1.2-4.4,2.4-8.8,3.7-13.1l2.9,0.8C100.7,390.7,99.5,395,98.3,399.4z M553,389.4c-1.2-4.3-2.5-8.7-3.8-13
				l2.9-0.9c1.3,4.3,2.6,8.7,3.8,13.1L553,389.4z M106,373.4l-2.9-0.9c1.4-4.3,2.8-8.6,4.3-12.9l2.8,1
				C108.8,364.8,107.3,369.1,106,373.4z M545,363.5c-1.4-4.3-2.9-8.6-4.4-12.8l2.8-1c1.5,4.2,3,8.6,4.4,12.9L545,363.5z
				 M114.8,347.7l-2.8-1c1.5-4.2,3.2-8.5,4.8-12.7l2.8,1.1C117.9,339.3,116.3,343.5,114.8,347.7z M535.9,338
				c-1.6-4.2-3.3-8.4-5-12.6l2.8-1.1c1.7,4.2,3.4,8.4,5,12.7L535.9,338z M124.6,322.5l-2.8-1.2c1.7-4.2,3.5-8.4,5.4-12.5l2.7,1.2
				C128.1,314.1,126.4,318.3,124.6,322.5z M525.6,312.9c-1.8-4.1-3.7-8.3-5.7-12.3l2.7-1.3c1.9,4.1,3.8,8.2,5.7,12.4L525.6,312.9z
				 M135.5,297.7l-2.7-1.3c1.9-4.1,3.9-8.2,5.9-12.3l2.7,1.3C139.4,289.5,137.4,293.6,135.5,297.7z M514,288.4
				c-1.9-3.9-3.9-7.9-6.1-12.1l2.7-1.4c2.2,4.3,4.2,8.2,6.1,12.1L514,288.4z M147.4,273.3l-2.7-1.4c1.3-2.6,2.7-5.2,4.1-7.8
				c0.7-1.4,1.5-2.8,2.3-4.2l2.6,1.4c-0.8,1.4-1.5,2.8-2.2,4.2C150.1,268.1,148.8,270.7,147.4,273.3z M501.7,264.3l-1.5-2.9
				c-1.6-3-3.2-6.1-4.9-9l2.6-1.5c1.7,3,3.3,6.1,4.9,9.1l1.5,2.9L501.7,264.3z M160.4,249.5l-2.6-1.5c2.3-3.9,4.6-7.9,7-11.7
				l2.5,1.6C165,241.7,162.6,245.6,160.4,249.5z M488.5,240.6c-2.3-3.9-4.7-7.7-7.1-11.5l2.5-1.6c2.4,3.8,4.9,7.7,7.2,11.6
				L488.5,240.6z M174.7,226.5l-2.5-1.7c2.5-3.8,5.1-7.5,7.8-11.2l2.4,1.7C179.8,219,177.2,222.7,174.7,226.5z M473.8,217.9
				c-2.6-3.7-5.2-7.4-7.9-11l2.4-1.8c2.7,3.6,5.4,7.3,8,11.1L473.8,217.9z M190.4,204.5l-2.4-1.8c2.8-3.6,5.6-7.2,8.5-10.7l2.3,1.9
				C196,197.3,193.2,200.9,190.4,204.5z M457.6,196.3c-2.8-3.5-5.8-7-8.7-10.3l2.3-2c3,3.4,5.9,6.9,8.8,10.4L457.6,196.3z
				 M207.6,183.6l-2.3-2c3-3.4,6.1-6.8,9.2-10.1l2.2,2.1C213.7,176.8,210.6,180.2,207.6,183.6z M439.8,175.9
				c-3.1-3.3-6.3-6.5-9.5-9.6l2.1-2.1c3.2,3.2,6.5,6.4,9.6,9.7L439.8,175.9z M226.2,163.9l-2.1-2.1c3.2-3.2,6.6-6.3,10-9.3l2,2.2
				C232.7,157.6,229.4,160.7,226.2,163.9z M420.4,157c-3.3-3-6.8-6-10.2-8.8l1.9-2.3c3.5,2.9,6.9,5.9,10.3,8.9L420.4,157z
				 M246.3,145.9l-1.9-2.3c3.5-2.9,7.1-5.7,10.8-8.4l1.8,2.4C253.4,140.2,249.8,143,246.3,145.9z M399.6,139.8
				c-1-0.7-1.9-1.5-2.9-2.2c-2.8-2.1-5.4-4-8-5.8l1.7-2.4c2.6,1.8,5.2,3.8,8,5.9c1,0.7,2,1.5,2.9,2.2L399.6,139.8z M268,129.8
				l-1.7-2.5c3.8-2.5,7.6-5,11.5-7.4l1.6,2.6C275.6,124.8,271.8,127.3,268,129.8z M377.5,124.1c-3.9-2.5-7.8-4.9-11.5-7l1.5-2.6
				c3.8,2.1,7.7,4.5,11.7,7.1L377.5,124.1z M291.1,115.7l-1.4-2.6c2.8-1.5,5.6-3,8.4-4.4c1.3-0.6,2.5-1.3,3.8-1.8l1.3,2.7
				c-1.2,0.5-2.4,1.1-3.7,1.8C296.7,112.7,293.9,114.2,291.1,115.7z M354,110.9c-1.6-0.7-3.1-1.4-4.7-2.1c-2.7-1.2-5.3-2.1-7.8-2.9
				l0.9-2.9c2.6,0.8,5.2,1.8,8.1,3c1.6,0.7,3.2,1.4,4.7,2.1L354,110.9z M315.6,105.1l-0.7-2.9c2.7-0.7,5.4-1.1,8.1-1.4
				c1.9-0.2,3.8-0.2,5.8-0.1l-0.1,3c-1.8-0.1-3.6,0-5.4,0.1C320.8,104,318.2,104.4,315.6,105.1z"/>
		</g>
	</g>
</g>
</svg>
