<?xml version="1.0" encoding="utf-8"?>
<!-- Generator: Adobe Illustrator 26.3.1, SVG Export Plug-In . SVG Version: 6.00 Build 0)  -->
<svg version="1.1" id="Layer_1" xmlns="http://www.w3.org/2000/svg" xmlns:xlink="http://www.w3.org/1999/xlink" x="0px" y="0px"
	 viewBox="0 0 688.7 2237.2" style="enable-background:new 0 0 688.7 2237.2;" xml:space="preserve">
<style type="text/css">
	.st0{fill:#FFFFFF;}
	.st1{fill:#7900FF;}
	.st2{fill:#005EFF;}
	.st3{fill:#00FF00;}
	.st4{fill:#ED1F77;}
</style>
<g>
	<path class="st0" d="M684.4,646.7c-2.2-72.6-8.3-144.8-16.6-216.8c-5.6-48-14.9-95.1-27.3-141.7c-16.3-61.3-43.6-116.3-82.2-165
		c-36.7-46.4-81.9-80.3-135.6-101.5c-21.2-8.3-42.9-14.4-65.2-17.8c-22-3.3-44-0.2-65.4,4.9c-49.4,11.9-93.5,35.6-131.8,71.1
		c-44.2,41.1-76.1,91.6-98.8,148.5c-21.1,52.9-32,108.9-40.2,165.5c-4.6,31.8-7.1,63.8-9.9,95.8C6.7,543.3,4.1,597,3,650.8
		C1.9,705,2.3,759.2,3.3,813.6c1.4,85.9,3.5,171.8,5.6,257.7c1.5,62.6,3.3,125.3,5.7,187.9c2.3,60.9,4.4,121.7,6.6,182.6
		c1.9,52.7,3.7,105.5,5.9,158.3c1.9,46.4,4.4,92.9,6.7,139.3c2.5,52.2,5.6,104.3,9.1,156.4c2.6,39.7,6.4,79.3,12.9,118.5
		c5.7,34.4,15.7,67.4,30,98.7c19.9,43.7,53.6,72.5,94.1,92.9c17.9,9,37.1,13.6,56.5,17.8c27.4,5.9,54.9,10.6,82.9,10.9
		c15.3,0.2,30.6,0.1,45.8-0.5c15.8-0.6,31.6-1.3,47.3-3.4c20.9-2.8,41.5-7.4,62-12.1c32.4-7.5,62.1-21.1,88.6-42.7
		c26-21.2,46.8-46.6,59.3-79.1c7.2-18.8,13.7-38,18.5-57.6c8.5-34.5,12.1-69.8,15-105.1c3.5-42,5.3-84.2,7.3-126.3
		c3.1-64.8,5.7-129.6,7.8-194.4c1.5-47.3,2.6-94.6,3.8-141.9c1.9-72.7,3.7-145.4,5.3-210.1c1.1-49.8,2.4-91.6,2.9-133.4
		c1.2-87.5,2.3-175,3-262.5C686.5,792.5,686.7,719.6,684.4,646.7z"/>
</g>
<g>
	<g>
		<g>
			<g>
				<path class="st1" d="M333.3,2236.9c-4.5,0-9.2,0-14-0.1c-30.1-0.3-59-5.7-83.3-11c-19.7-4.3-38.8-8.8-57-18
					c-45.7-23-76.8-53.8-95.1-94c-14.3-31.3-24.4-64.7-30.2-99.3c-5.8-35-9.9-72.7-12.9-118.7c-3.8-56.2-6.8-107.3-9.1-156.4
					c-0.6-11.5-1.1-22.9-1.7-34.4c-1.7-34.4-3.5-70-5-104.9c-1.7-41.9-3.3-84.6-4.7-125.8c-0.4-10.8-0.8-21.7-1.2-32.5
					c-0.7-20.1-1.4-40.2-2.2-60.2c-1.4-40.1-2.9-81.6-4.4-122.4c-2.1-56.1-4-117.6-5.7-187.9c-2.1-84.4-4.2-171.7-5.6-257.7
					C-0.1,750-0.2,698.3,0.8,650.8C2,593.4,4.7,540.6,9.2,489.5c0.3-4,0.7-7.9,1-11.9c2.4-27.6,4.8-56.1,8.9-84
					c7.3-50.4,17.8-109.5,40.3-166c24-60,57.4-110.3,99.4-149.3c38.4-35.5,83-59.7,132.8-71.6c26.5-6.3,46.9-7.8,66.3-4.9
					c21.6,3.3,43.7,9.3,65.7,17.9c53.8,21.2,99.7,55.6,136.5,102.2c38.5,48.5,66.3,104.3,82.6,165.8c12.8,47.9,22,95.7,27.4,142
					c9.2,79.5,14.6,150.5,16.6,217c2.2,68.9,2.2,137.3,1.5,218.9c-0.7,92.6-1.9,184.7-3,262.5c-0.3,27.9-1,56.2-1.8,86.2
					c-0.4,15.1-0.8,30.7-1.1,47.2l0,0c-1.5,60.5-3.4,135.7-5.3,210.1c-0.2,9.5-0.5,19-0.7,28.5c-0.9,37.2-1.9,75.6-3.1,113.4
					c-2.1,64.5-4.7,129.9-7.8,194.4l-0.6,13.5c-1.7,37-3.5,75.3-6.7,112.9c-2.6,32.2-6.2,69.5-15.1,105.5
					c-4.3,17.7-10.2,36.1-18.6,57.9c-11.7,30.5-31.4,56.7-60,80c-25.9,21.1-55.1,35.2-89.5,43.1c-21.8,5-41.6,9.4-62.2,12.1
					c-15.6,2.1-31.4,2.8-47.5,3.4C355.1,2236.7,344.6,2236.9,333.3,2236.9z M338.6,4.8c-13.6,0-28.4,2-45.9,6.2
					c-49,11.8-93,35.5-130.8,70.6c-41.5,38.6-74.5,88.3-98.2,147.7c-22.4,56.1-32.8,114.9-40.1,165c-4,27.8-6.5,56.2-8.9,83.8
					c-0.3,4-0.7,7.9-1,11.9c-4.5,51-7.2,103.7-8.4,160.9c-1,47.5-0.9,99.2,0.3,162.7c1.4,86,3.5,173.3,5.6,257.7
					c1.7,70.4,3.5,131.8,5.7,187.9c1.5,40.8,3,82.3,4.4,122.4c0.7,20.1,1.4,40.1,2.2,60.2c0.4,10.8,0.8,21.7,1.2,32.5
					c1.5,41.2,3,83.8,4.7,125.8c1.4,34.9,3.2,70.5,5,104.9c0.6,11.5,1.2,22.9,1.7,34.4c2.4,49.1,5.3,100.2,9.1,156.4
					c3,45.8,7.1,83.4,12.9,118.3c5.7,34.2,15.7,67.2,29.8,98.1c17.9,39.2,48.3,69.3,93.1,91.8c17.7,8.9,36.6,13.4,56,17.6
					c24.1,5.2,52.7,10.5,82.4,10.8c16.7,0.2,31.7,0.1,45.7-0.5c16-0.6,31.7-1.3,47.1-3.4c20.4-2.7,40.1-7.1,61.8-12.1
					c33.7-7.8,62.4-21.6,87.7-42.3c28-22.8,47.2-48.4,58.6-78.2c8.3-21.6,14.1-39.8,18.4-57.3c8.8-35.6,12.3-72.7,14.9-104.8
					c3.1-37.5,4.9-75.7,6.7-112.7l0.6-13.5c3.1-64.5,5.7-129.9,7.8-194.4c1.2-37.8,2.2-76.2,3.1-113.4c0.2-9.5,0.5-19,0.7-28.5
					c1.9-74.4,3.8-149.6,5.3-210.1l0,0c0.4-16.5,0.8-32.2,1.1-47.2c0.7-29.9,1.4-58.2,1.8-86.1c1.1-77.8,2.3-169.9,3-262.5
					c0.7-81.5,0.7-149.9-1.5-218.7c-2-66.4-7.4-137.3-16.6-216.6c-5.4-46.1-14.5-93.7-27.2-141.4c-16.2-60.9-43.7-116.1-81.8-164.2
					c-36.4-46-81.7-79.9-134.7-100.8C400.2,15.2,378.5,9.3,357.2,6C351.2,5.2,345,4.8,338.6,4.8z"/>
			</g>
		</g>
		<g>
			<g>
				<g>
					<g>
						<g>
							<g>
								<path class="st2" d="M393.4,627.1c-5.2,0-9.3-4.2-9.3-9.4s4.2-9.4,9.3-9.4s9.3,4.2,9.3,9.4S398.6,627.1,393.4,627.1z
									 M393.4,612.9c-2.7,0-4.8,2.2-4.8,4.9s2.2,4.9,4.8,4.9s4.8-2.2,4.8-4.9S396.1,612.9,393.4,612.9z"/>
							</g>
						</g>
						<g>
							<g>
								<path class="st2" d="M290.7,627.1c-5.2,0-9.3-4.2-9.3-9.4s4.2-9.4,9.3-9.4c5.2,0,9.4,4.2,9.4,9.4S295.9,627.1,290.7,627.1z
									 M290.7,612.9c-2.7,0-4.8,2.2-4.8,4.9s2.2,4.9,4.8,4.9s4.9-2.2,4.9-4.9S293.4,612.9,290.7,612.9z"/>
							</g>
						</g>
						<g>
							<g>
								<path class="st2" d="M393.4,492.7c-5.2,0-9.3-4.2-9.3-9.3c0-5.2,4.2-9.4,9.3-9.4s9.3,4.2,9.3,9.4
									C402.8,488.6,398.6,492.7,393.4,492.7z M393.4,478.5c-2.7,0-4.8,2.2-4.8,4.9s2.2,4.8,4.8,4.8s4.8-2.2,4.8-4.8
									S396.1,478.5,393.4,478.5z"/>
							</g>
						</g>
						<g>
							<g>
								<path class="st2" d="M290.7,492.7c-5.2,0-9.3-4.2-9.3-9.3c0-5.2,4.2-9.4,9.3-9.4c5.2,0,9.4,4.2,9.4,9.4
									S295.9,492.7,290.7,492.7z M290.7,478.5c-2.7,0-4.8,2.2-4.8,4.9s2.2,4.8,4.8,4.8s4.9-2.2,4.9-4.8S293.4,478.5,290.7,478.5z"
									/>
							</g>
						</g>
					</g>
				</g>
			</g>
			<g>
				<g>
					<g>
						<g>
							<g>
								<path class="st2" d="M393.4,1720.9c-5.2,0-9.3-4.2-9.3-9.4c0-5.2,4.2-9.3,9.3-9.3s9.3,4.2,9.3,9.3
									C402.8,1716.8,398.6,1720.9,393.4,1720.9z M393.4,1706.7c-2.7,0-4.8,2.2-4.8,4.8c0,2.7,2.2,4.9,4.8,4.9s4.8-2.2,4.8-4.9
									C398.3,1708.9,396.1,1706.7,393.4,1706.7z"/>
							</g>
						</g>
						<g>
							<g>
								<path class="st2" d="M290.7,1720.9c-5.2,0-9.3-4.2-9.3-9.4c0-5.2,4.2-9.3,9.3-9.3c5.2,0,9.4,4.2,9.4,9.3
									C300.1,1716.8,295.9,1720.9,290.7,1720.9z M290.7,1706.7c-2.7,0-4.8,2.2-4.8,4.8c0,2.7,2.2,4.9,4.8,4.9s4.9-2.2,4.9-4.9
									C295.6,1708.9,293.4,1706.7,290.7,1706.7z"/>
							</g>
						</g>
						<g>
							<g>
								<path class="st2" d="M393.4,1586.6c-5.2,0-9.3-4.2-9.3-9.3s4.2-9.3,9.3-9.3s9.3,4.2,9.3,9.3S398.6,1586.6,393.4,1586.6z
									 M393.4,1572.4c-2.7,0-4.8,2.2-4.8,4.8s2.2,4.8,4.8,4.8s4.8-2.2,4.8-4.8S396.1,1572.4,393.4,1572.4z"/>
							</g>
						</g>
						<g>
							<g>
								<path class="st2" d="M290.7,1586.6c-5.2,0-9.3-4.2-9.3-9.3s4.2-9.3,9.3-9.3c5.2,0,9.4,4.2,9.4,9.3
									S295.9,1586.6,290.7,1586.6z M290.7,1572.4c-2.7,0-4.8,2.2-4.8,4.8s2.2,4.8,4.8,4.8s4.9-2.2,4.9-4.8
									S293.4,1572.4,290.7,1572.4z"/>
							</g>
						</g>
					</g>
				</g>
			</g>
		</g>
	</g>
	<g>
		<g>
			<path class="st3" d="M333.7,2204.5c-4.1,0-8.3,0-12.7-0.1c-28-0.3-55.4-5.8-76.2-10.5c-17.2-3.9-35.4-8.4-52.2-17.3
				c-41.7-22.2-70.1-52-86.8-90.9c-13-30.2-22.3-62.6-27.5-96.3c-5.3-34.2-9-70.8-11.8-115.3c-3.3-52.1-6.1-103.2-8.3-151.9
				c-0.4-8.8-0.8-17.6-1.2-26.4c-1.7-35.7-3.4-72.7-4.9-109c-1.3-34.2-2.5-69-3.6-102.6c-0.6-17.1-1.2-34.2-1.8-51.3
				c-0.7-19.9-1.3-39.8-2-59.8c-1.3-38.6-2.6-78.5-4-117.6c-2-58.7-3.7-118.4-5.2-182.6c-1.7-74.4-3.6-162.3-5.1-250.5
				c-0.7-46.6-1.3-101.9-0.1-158.1c1.1-55.9,3.6-107.2,7.8-156.7c0.4-4.9,0.8-9.9,1.2-14.8c2.1-25.7,4.3-52.3,7.9-78.4
				c6.8-49.2,16.5-106.9,37-161.2c22.2-59.2,52-106.6,90.9-144.9c35-34.5,75.9-57.9,121.5-69.5c15-3.8,37.5-8.5,60.5-4.8
				c19.9,3.2,40.1,9.1,60,17.4c49,20.5,91,53.9,124.8,99.1c35.1,47.1,60.5,101.2,75.5,160.8c11.6,46.5,20,92.9,24.9,137.9
				c8.3,76.3,13.3,145.2,15.2,210.7c2.1,70.5,1.8,140.8,1.3,212.7c-0.6,73.6-1.5,152.3-2.8,255.1c-0.4,16.8-0.8,33.5-1.2,50.8
				c-0.6,24.8-1.2,50.5-1.8,78.9l0,0c-1.5,62.8-3.2,133.5-4.9,204.2l-0.5,22.5c-0.9,37.8-1.8,76.9-3.1,115.3
				c-2,62.5-4.4,126-7.2,188.9l-0.3,7.9c-1.7,37.7-3.4,76.6-6.4,114.8c-2.6,32.8-5.8,67.7-13.8,102.3c-4,17.3-9.4,35.2-17,56.2
				c-10.8,29.6-28.7,55-54.7,77.5c-23.6,20.4-50.4,34.1-81.8,41.8c-20.1,4.9-38.2,9.2-56.9,11.8c-14.3,2-28.7,2.7-43.4,3.3
				C353.7,2204.3,344.1,2204.5,333.7,2204.5z M339.6,35.4c-12.5,0-26.1,2-42.2,6.1c-45.1,11.4-85.5,34.6-120.1,68.7
				c-38.6,38.1-68.2,85.1-90.2,143.9c-20.4,54-30,111.5-36.8,160.6c-3.6,26-5.8,52.5-7.9,78.2c-0.4,4.9-0.8,9.9-1.2,14.8
				c-4.2,49.5-6.7,100.7-7.8,156.5c-1.2,56.1-0.6,111.4,0.1,157.9c1.5,88.2,3.4,176.1,5.1,250.5c1.5,64.2,3.2,123.9,5.2,182.6
				c1.4,39.2,2.7,79.1,4,117.6c0.7,19.9,1.3,39.8,2,59.8c0.6,17.1,1.2,34.2,1.8,51.3c1.1,33.6,2.3,68.4,3.6,102.5
				c1.4,36.3,3.2,73.3,4.9,109c0.4,8.8,0.8,17.6,1.2,26.4c2.2,48.7,5,99.8,8.3,151.9c2.8,44.4,6.5,81,11.8,115.1
				c5.2,33.4,14.4,65.6,27.3,95.5c16.4,38.3,44.4,67.6,85.4,89.5c16.5,8.7,34.4,13.2,51.4,17.1c20.6,4.7,47.8,10.1,75.6,10.5
				c15.2,0.2,28.9,0.1,41.8-0.5c14.7-0.6,29-1.3,43.2-3.3c18.6-2.6,36.6-6.9,56.6-11.8c31-7.6,57.3-21.1,80.6-41.2
				c25.7-22.2,43.3-47.2,53.9-76.3c7.5-20.9,12.9-38.6,16.8-55.8c8-34.4,11.2-69.2,13.8-101.9c3-38.1,4.7-77.1,6.3-114.7l0.3-7.9
				c2.8-62.9,5.2-126.4,7.2-188.9c1.3-38.4,2.2-77.5,3.1-115.3l0.5-22.5c1.7-70.7,3.4-141.4,4.9-204.2l0,0
				c0.6-28.5,1.2-54.1,1.8-78.9c0.4-17.3,0.8-34,1.2-50.8c1.3-102.8,2.2-181.4,2.8-255.1c0.5-71.8,0.8-142.1-1.3-212.5
				c-2-65.4-6.9-134.3-15.2-210.5c-4.9-44.9-13.3-91.2-24.9-137.5c-14.8-59.3-40.1-113-74.9-159.8c-33.5-44.8-75-77.8-123.6-98.1
				c-19.7-8.2-39.7-14-59.4-17.2C351.1,35.9,345.5,35.4,339.6,35.4z"/>
		</g>
	</g>
	<g>
		<g>
			<path class="st4" d="M327.3,2169.1c-1.6,0-3.2,0-4.8-0.1c-2.9,0-5.9-0.1-8.9-0.3l0.2-4c2.9,0.2,5.9,0.3,8.7,0.3
				c1.6,0,3.2,0,4.8,0.1L327.3,2169.1z M340.9,2169l-0.1-4c4.4-0.1,9-0.2,13.5-0.3l0.1,4C350,2168.9,345.4,2169,340.9,2169z
				 M368.2,2168.1l-0.2-4c5.4-0.3,9.6-0.5,13.5-0.8l0.3,4C377.8,2167.6,373.6,2167.8,368.2,2168.1z M300,2167.5
				c-4.3-0.5-8.9-1.1-13.5-1.9l0.7-3.9c4.6,0.8,9.1,1.4,13.4,1.9L300,2167.5z M395.4,2165.9l-0.5-4c1.3-0.2,2.7-0.4,4-0.6
				c3-0.5,6.1-1,9.3-1.6l0.7,3.9c-3.2,0.6-6.3,1.1-9.4,1.6C398.2,2165.5,396.8,2165.7,395.4,2165.9z M273,2163.1
				c-4.2-0.9-8.6-1.8-13.3-2.9l0.9-3.9c4.7,1.1,9,2.1,13.2,2.9L273,2163.1z M422.3,2160.9l-0.9-3.9c4.1-0.9,8.4-1.9,13.2-3.1l1,3.9
				C430.8,2159,426.4,2160,422.3,2160.9z M246.4,2156.9c-5-1.3-9.2-2.5-13.2-3.7l1.2-3.8c3.9,1.2,8,2.4,13,3.7L246.4,2156.9z
				 M448.8,2154.4l-1-3.9l2.1-0.6c3.7-1,7.3-2.1,10.8-3.2l1.3,3.8c-3.6,1.2-7.3,2.3-11.1,3.3L448.8,2154.4z M220.3,2148.5
				c-4.5-1.8-8.5-3.8-12.5-5.9l1.9-3.5c3.8,2.1,7.7,4,12.1,5.7L220.3,2148.5z M474.8,2145.7l-1.6-3.7c4.1-1.7,8.2-3.7,12.1-5.7
				l1.8,3.5C483.2,2141.9,479,2143.9,474.8,2145.7z M196.1,2135.5c-3.9-2.5-7.7-5.2-11.2-7.9l2.4-3.2c3.5,2.6,7.2,5.2,11,7.7
				L196.1,2135.5z M499.1,2133l-2.1-3.4c3.8-2.4,7.5-4.9,11.1-7.6l2.4,3.2C506.8,2127.9,503,2130.6,499.1,2133z M174.2,2119
				c-3.5-3-6.8-6.2-10-9.5l2.9-2.8c3.1,3.2,6.4,6.3,9.7,9.2L174.2,2119z M521.1,2116.5l-2.6-3c1.2-1.1,2.4-2.2,3.6-3.3
				c2.1-2,4.2-4,6.1-6l2.8,2.8c-2,2-4.1,4.1-6.3,6.1C523.6,2114.3,522.3,2115.4,521.1,2116.5z M155.1,2099.3
				c-2.9-3.5-5.7-7.2-8.3-11l3.3-2.3c2.5,3.7,5.3,7.3,8.1,10.7L155.1,2099.3z M540.4,2097l-3-2.6c2.9-3.4,5.8-6.9,8.4-10.5l3.2,2.4
				C546.3,2089.9,543.4,2093.5,540.4,2097z M139.5,2076.7c-2.3-3.9-4.4-8-6.4-12.2l3.6-1.7c1.9,4.1,4,8.1,6.2,11.9L139.5,2076.7z
				 M556.7,2074.9l-3.4-2.1c2.4-3.8,4.6-7.7,6.7-11.6l3.5,1.9C561.4,2067.1,559.1,2071.1,556.7,2074.9z M127.7,2051.9
				c-1.7-4.2-3.3-8.5-4.8-12.8l3.8-1.3c1.5,4.2,3.1,8.5,4.7,12.7L127.7,2051.9z M569.4,2050.6l-3.7-1.6c1.7-4,3.3-8.2,4.7-12.4
				l0.1-0.2l3.8,1.3l-0.1,0.2C572.8,2042.2,571.2,2046.5,569.4,2050.6z M118.6,2026.2c-1.4-4.3-2.7-8.7-3.9-13.1l3.9-1.1
				c1.2,4.3,2.5,8.7,3.8,13L118.6,2026.2z M578.5,2024.8l-3.8-1.2c1.4-4.4,2.7-8.8,3.9-13l3.8,1.1
				C581.2,2016,579.9,2020.4,578.5,2024.8z M111.3,1999.9c-1.1-4.4-2.1-8.9-3-13.3l3.9-0.8c0.9,4.4,1.9,8.8,3,13.2L111.3,1999.9z
				 M586,1998.6l-3.9-1c1.1-4.4,2.2-8.9,3.1-13.1l3.9,0.9C588.3,1989.6,587.2,1994.1,586,1998.6z M105.7,1973.2
				c-0.7-4.1-1.4-8.4-2-12.6l-0.1-0.9l4-0.6l0.1,0.9c0.6,4.2,1.3,8.4,2,12.5L105.7,1973.2z M592,1971.9l-3.9-0.7
				c0.8-4.3,1.6-8.8,2.3-13.3l3.9,0.6C593.6,1963.1,592.8,1967.6,592,1971.9z M101.7,1946.2c-0.6-4.4-1.1-9-1.6-13.5l4-0.5
				c0.5,4.5,1.1,9,1.6,13.5L101.7,1946.2z M596.3,1945l-4-0.5c0.6-4.3,1.1-8.8,1.7-13.4l4,0.4C597.4,1936.1,596.9,1940.7,596.3,1945
				z M98.6,1919.2c-0.5-4.4-0.9-9-1.3-13.5l4-0.4c0.4,4.6,0.9,9.1,1.3,13.5L98.6,1919.2z M599.4,1917.9l-4-0.4
				c0.4-4.3,0.8-8.7,1.2-13.5l4,0.3C600.2,1909.2,599.8,1913.6,599.4,1917.9z M96.1,1892.1c-0.4-4.5-0.7-9-1-13.6l4-0.3
				c0.3,4.5,0.7,9,1,13.5L96.1,1892.1z M601.7,1890.8l-4-0.3c0.2-2.1,0.3-4.1,0.5-6.2c0.2-2.5,0.4-4.9,0.5-7.4l4,0.3
				c-0.2,2.5-0.3,4.9-0.5,7.4C602,1886.7,601.8,1888.8,601.7,1890.8z M94.1,1864.9c-0.3-4.5-0.6-9-0.8-13.6l4-0.2
				c0.3,4.5,0.5,9,0.8,13.5L94.1,1864.9z M603.5,1863.7l-4-0.2c0.3-4.5,0.5-9,0.8-13.6l4,0.2
				C604.1,1854.6,603.8,1859.2,603.5,1863.7z M92.5,1837.8c-0.3-4.5-0.5-9-0.8-13.6l4-0.2c0.2,4.5,0.5,9,0.8,13.6L92.5,1837.8z
				 M605.1,1836.5l-4-0.2c0.2-4.5,0.5-9,0.7-13.6l4,0.2C605.5,1827.5,605.3,1832,605.1,1836.5z M91,1810.7c-0.2-4.5-0.5-9-0.7-13.6
				l4-0.2c0.2,4.5,0.5,9,0.7,13.6L91,1810.7z M606.4,1809.4l-4-0.2c0.2-4.5,0.4-9,0.6-13.6l4,0.2
				C606.8,1800.3,606.6,1804.8,606.4,1809.4z M89.6,1783.5c-0.2-4.5-0.5-9-0.7-13.6l4-0.2c0.2,4.5,0.5,9,0.7,13.6L89.6,1783.5z
				 M607.5,1782.2l-4-0.2l0.6-13.6l4,0.2L607.5,1782.2z M88.2,1756.4c-0.2-4.5-0.4-9-0.7-13.6l4-0.2c0.2,4.5,0.4,9,0.6,13.6
				L88.2,1756.4z M608.7,1755.1l-4-0.2c0.2-4.5,0.4-9,0.6-13.6l4,0.2C609.1,1746,608.9,1750.5,608.7,1755.1z M86.9,1729.2
				c-0.2-4.5-0.4-9.1-0.6-13.6l4-0.2c0.2,4.5,0.4,9,0.6,13.6L86.9,1729.2z M609.8,1727.9l-4-0.2c0.2-4.5,0.4-9,0.5-13.6l4,0.2
				C610.2,1718.9,610,1723.4,609.8,1727.9z M85.7,1702.1c-0.2-4.5-0.4-9-0.6-13.6l4-0.2c0.2,4.5,0.4,9.1,0.6,13.6L85.7,1702.1z
				 M610.9,1700.8l-4-0.2c0.2-4.5,0.3-9,0.5-13.6l4,0.1C611.2,1691.7,611,1696.2,610.9,1700.8z M84.6,1674.9l-0.6-13.6l4-0.2
				l0.6,13.6L84.6,1674.9z M611.9,1673.6l-4-0.1c0.2-4.5,0.3-9.1,0.5-13.6l4,0.1C612.2,1664.5,612,1669.1,611.9,1673.6z
				 M83.4,1647.8l-0.6-13.6l4-0.2l0.6,13.6L83.4,1647.8z M612.8,1646.4l-4-0.1c0.2-4.5,0.3-9.1,0.5-13.6l4,0.1
				C613.1,1637.4,613,1641.9,612.8,1646.4z M82.2,1620.6c-0.2-4.5-0.4-9.1-0.6-13.6l4-0.2c0.2,4.5,0.4,9,0.6,13.6L82.2,1620.6z
				 M613.7,1619.3l-4-0.1c0.1-4.5,0.3-9.1,0.4-13.6l4,0.1C614,1610.2,613.9,1614.7,613.7,1619.3z M81.1,1593.5
				c-0.2-4.5-0.3-9.1-0.5-13.6l4-0.1c0.2,4.5,0.3,9,0.5,13.6L81.1,1593.5z M614.6,1592.1l-4-0.1l0.4-13.6l4,0.1L614.6,1592.1z
				 M80.2,1566.3c-0.2-4.5-0.3-9.1-0.5-13.6l4-0.1c0.2,4.5,0.3,9.1,0.5,13.6L80.2,1566.3z M615.4,1564.9l-4-0.1
				c0.1-4.5,0.2-9.1,0.4-13.6l4,0.1C615.6,1555.9,615.5,1560.4,615.4,1564.9z M79.2,1539.1c-0.2-4.5-0.3-9.1-0.4-13.6l4-0.1
				c0.1,4.5,0.3,9.1,0.4,13.6L79.2,1539.1z M616.1,1537.8l-4-0.1l0.3-13.6l4,0.1L616.1,1537.8z M78.3,1512l-0.4-13.6l4-0.1l0.4,13.6
				L78.3,1512z M616.7,1510.6l-4-0.1l0.3-13.6l4,0.1L616.7,1510.6z M77.5,1484.8l-0.4-13.6l4-0.1l0.4,13.6L77.5,1484.8z
				 M617.4,1483.4l-4-0.1l0.3-13.6l4,0.1L617.4,1483.4z M76.6,1457.7l-0.4-13.6l4-0.1l0.4,13.6L76.6,1457.7z M618,1456.3l-4-0.1
				l0.3-13.6l4,0.1L618,1456.3z M75.8,1430.5l-0.4-13.6l4-0.1l0.4,13.6L75.8,1430.5z M618.6,1429.1l-4-0.1l0.3-13.6l4,0.1
				L618.6,1429.1z M74.9,1403.3l-0.4-13.6l4-0.1l0.4,13.6L74.9,1403.3z M619.2,1401.9l-4-0.1l0.3-13.6l4,0.1L619.2,1401.9z
				 M74.1,1376.2l-0.4-13.6l4-0.1l0.4,13.6L74.1,1376.2z M619.9,1374.8l-4-0.1l0.3-13.6l4,0.1L619.9,1374.8z M73.3,1349l-0.4-13.6
				l4-0.1l0.4,13.6L73.3,1349z M620.5,1347.6l-4-0.1l0.3-13.6l4,0.1L620.5,1347.6z M72.4,1321.9l-0.4-13.6l4-0.1l0.4,13.6
				L72.4,1321.9z M621.1,1320.5l-4-0.1l0.3-13.6l4,0.1L621.1,1320.5z M71.6,1294.7l-0.4-13.6l4-0.1l0.4,13.6L71.6,1294.7z
				 M621.7,1293.3l-4-0.1l0.3-13.6l4,0.1L621.7,1293.3z M70.8,1267.5l-0.4-13.6l4-0.1l0.4,13.6L70.8,1267.5z M622.3,1266.1l-4-0.1
				l0.3-13.6l4,0.1L622.3,1266.1z M622.8,1246.3l-4-0.1c0.1-4.6,0.2-9.1,0.3-13.6l4,0.1C622.9,1237.2,622.8,1241.7,622.8,1246.3z
				 M69.9,1240.4c-0.1-4.5-0.3-9.1-0.4-13.6l4-0.1c0.1,4.5,0.3,9.1,0.4,13.6L69.9,1240.4z M623.3,1219.1l-4-0.1l0.3-13.6l4,0.1
				L623.3,1219.1z M69.1,1213.2c-0.1-4.5-0.3-9.1-0.4-13.6l4-0.1c0.1,4.5,0.3,9.1,0.4,13.6L69.1,1213.2z M623.9,1192l-4-0.1
				l0.3-13.6l4,0.1L623.9,1192z M68.3,1186.1c-0.1-4.5-0.2-9.1-0.4-13.6l4-0.1c0.1,4.5,0.2,9.1,0.4,13.6L68.3,1186.1z M624.5,1164.8
				l-4-0.1c0.1-4.6,0.2-9.1,0.3-13.6l4,0.1C624.7,1155.7,624.6,1160.3,624.5,1164.8z M67.6,1158.9c-0.1-4.5-0.2-9.1-0.3-13.6l4-0.1
				c0.1,4.5,0.2,9.1,0.3,13.6L67.6,1158.9z M625.1,1137.7l-4-0.1c0.1-3.5,0.1-7,0.2-10.5v-3.1h4v3.1
				C625.2,1130.6,625.1,1134.1,625.1,1137.7z M66.9,1131.7c-0.1-4.5-0.2-9.1-0.3-13.6l4-0.1c0.1,4.5,0.2,9.1,0.3,13.6L66.9,1131.7z
				 M625.4,1110.5h-4l0.2-13.6h4L625.4,1110.5z M66.3,1104.6c-0.1-4.5-0.2-9.1-0.3-13.6l4-0.1c0.1,4.5,0.2,9.1,0.3,13.6L66.3,1104.6
				z M625.8,1083.3h-4l0.2-13.6h4L625.8,1083.3z M65.7,1077.4l-0.3-13.6l4-0.1l0.3,13.6L65.7,1077.4z M626.1,1056.1h-4l0.2-13.6h4
				L626.1,1056.1z M65.1,1050.2l-0.3-13.6l4-0.1l0.3,13.6L65.1,1050.2z M626.4,1029h-4l0.1-13.6h4L626.4,1029z M64.6,1023l-0.3-13.6
				l4-0.1l0.3,13.6L64.6,1023z M622.7,1001.7l0.1-13.6h4l-0.1,13.5L622.7,1001.7z M64,995.9l-0.3-13.6l4-0.1l0.3,13.6L64,995.9z
				 M626.9,974.6h-4L623,961h4L626.9,974.6z M63.5,968.7l-0.3-13.6l4-0.1l0.3,13.6L63.5,968.7z M627.2,947.4h-4l0.1-13.6h4
				L627.2,947.4z M63,941.5L62.7,928l4-0.1l0.2,13.6H63z M627.5,920.3h-4l0.1-13.6h2h2L627.5,920.3z M62.5,914.4l-0.2-13.6l4-0.1
				l0.2,13.6L62.5,914.4z M627.7,893.1h-4l0.1-13.6h4L627.7,893.1z M62,887.2l-0.2-13.6l4-0.1l0.2,13.6L62,887.2z M628,865.9h-4
				c0-4.5,0.1-9.1,0.1-13.6h4C628,856.9,628,861.4,628,865.9z M61.6,860l-0.2-13.6l4-0.1l0.2,13.6L61.6,860z M628.1,838.7h-4
				c0-4.5,0-9.1,0.1-13.6h4C628.2,829.7,628.2,834.2,628.1,838.7z M61.1,832.9v-0.7c-0.1-4.3-0.1-8.6-0.2-12.9h4
				c0.1,4.3,0.1,8.6,0.2,12.8v0.7L61.1,832.9z M628.2,811.6h-4c0-4.5,0-9.1,0-13.6h4C628.3,802.5,628.3,807,628.2,811.6z
				 M60.8,805.7c0-4.5-0.1-9.1-0.1-13.6h4c0,4.5,0.1,9.1,0.1,13.6H60.8z M624.2,784.4c0-4.5,0-9.1,0-13.6h4c0,4.5,0,9.1,0,13.6
				H624.2z M60.6,778.5c0-4.5,0-9.1-0.1-13.6h4c0,4.5,0,9.1,0.1,13.6H60.6z M624.1,757.2c0-4.5-0.1-9.1-0.1-13.6h4
				c0,4.5,0.1,9.1,0.1,13.6H624.1z M60.5,751.3v-2.2c0-3.8,0-7.6,0-11.4h4c0,3.8,0,7.6,0,11.4v2.2H60.5z M623.9,730.1
				c-0.1-4.5-0.1-9.1-0.2-13.6l4-0.1c0.1,4.5,0.1,9.1,0.2,13.6L623.9,730.1z M64.6,724.2h-4c0-4.5,0.1-9.1,0.1-13.6h4
				C64.6,715.1,64.6,719.6,64.6,724.2z M623.5,702.9c-0.1-4.5-0.2-9.1-0.3-13.6l4-0.1c0.1,4.5,0.2,9.1,0.3,13.6L623.5,702.9z
				 M64.8,697l-4-0.1c0.1-4.5,0.1-9.1,0.2-13.6l4,0.1C65,687.9,64.9,692.5,64.8,697z M622.9,675.8V675c-0.1-4.2-0.2-8.5-0.4-12.8
				l4-0.1c0.1,4.3,0.3,8.5,0.4,12.8v0.8L622.9,675.8z M65.3,669.8l-4-0.1c0.1-4.5,0.2-9.1,0.3-13.6l4,0.1
				C65.5,660.8,65.4,665.3,65.3,669.8z M622,648.6c-0.2-4.5-0.4-9-0.6-13.6l4-0.2c0.2,4.5,0.4,9.1,0.6,13.6L622,648.6z M66.1,642.7
				l-4-0.1c0.1-4.5,0.3-9.1,0.5-13.6l4,0.1C66.4,633.7,66.2,638.2,66.1,642.7z M620.8,621.5c-0.2-4.5-0.5-9-0.7-13.6l4-0.2
				c0.2,4.5,0.5,9.1,0.7,13.6L620.8,621.5z M67,615.6l-4-0.2c0.2-4.5,0.4-9.1,0.6-13.6l4,0.2C67.4,606.5,67.2,611,67,615.6z
				 M619.3,594.4c-0.3-4.5-0.6-9-0.8-13.5l4-0.3c0.3,4.5,0.6,9,0.8,13.6L619.3,594.4z M68.3,588.4l-4-0.2c0.2-4.5,0.5-9.1,0.7-13.6
				l4,0.2C68.8,579.4,68.5,583.9,68.3,588.4z M617.6,567.3c-0.3-4.5-0.6-9-1-13.5l4-0.3c0.3,4.5,0.7,9,1,13.6L617.6,567.3z
				 M69.9,561.3l-4-0.3c0.3-4.5,0.6-9,0.9-13.6l4,0.3C70.4,552.3,70.1,556.8,69.9,561.3z M615.5,540.2c-0.4-4.5-0.7-9-1.1-13.5
				l4-0.3c0.4,4.5,0.7,9,1.1,13.5L615.5,540.2z M71.7,534.3l-4-0.3c0.2-2.1,0.3-4.1,0.5-6.2c0.2-2.4,0.4-4.9,0.6-7.3l4,0.3
				c-0.2,2.4-0.4,4.9-0.6,7.3C72.1,530.1,71.9,532.2,71.7,534.3z M613.3,513.2c-0.4-4.5-0.8-9-1.2-13.5l4-0.4
				c0.4,4.5,0.8,9,1.2,13.5L613.3,513.2z M73.9,507.2l-4-0.3c0.4-4.5,0.7-9,1.1-13.5l4,0.3C74.6,498.1,74.2,502.7,73.9,507.2z
				 M610.8,486.1c-0.4-4.5-0.9-9-1.3-13.5l4-0.4c0.5,4.5,0.9,9,1.3,13.5L610.8,486.1z M76,480.1l-4-0.3c0.4-4.5,0.8-9,1.2-13.5
				l4,0.4C76.8,471.1,76.4,475.6,76,480.1z M608,459.1c-0.5-4.5-1.1-9-1.6-13.5l4-0.5c0.6,4.4,1.1,9,1.6,13.5L608,459.1z
				 M78.7,453.1l-4-0.4c0.5-4.6,1-9.2,1.6-13.5l4,0.5C79.7,444,79.2,448.5,78.7,453.1z M604.6,432.2c-0.6-4.5-1.3-9-2-13.4l4-0.6
				c0.7,4.4,1.4,9,2,13.5L604.6,432.2z M82,426.2l-4-0.5c0.6-4.5,1.2-9,1.9-13.5l4,0.6C83.2,417.2,82.6,421.7,82,426.2z
				 M600.4,405.4c-0.7-4.4-1.5-8.9-2.3-13.4l3.9-0.7c0.8,4.4,1.6,9,2.3,13.4L600.4,405.4z M85.9,399.3l-4-0.6
				c0.7-4.6,1.5-9.1,2.2-13.4L88,386C87.3,390.3,86.6,394.8,85.9,399.3z M595.6,378.7c-0.9-4.4-1.8-8.9-2.7-13.3l3.9-0.8
				c0.9,4.4,1.8,8.9,2.7,13.3L595.6,378.7z M90.4,372.6l-3.9-0.7c0.8-4.5,1.7-9,2.6-13.4l3.9,0.8C92.1,363.6,91.3,368.1,90.4,372.6z
				 M590.1,352.2c-1-4.4-2-8.8-3-13.2l3.9-0.9c1,4.4,2,8.9,3,13.3L590.1,352.2z M95.8,346l-3.9-0.9c1-4.5,2-8.9,3.1-13.3l3.9,1
				C97.9,337.1,96.8,341.6,95.8,346z M583.8,325.8c-1.1-4.4-2.3-8.7-3.6-13l3.8-1.1c1.3,4.3,2.5,8.7,3.6,13.1L583.8,325.8z
				 M102.3,319.7l-3.9-1c1.2-4.4,2.4-8.8,3.7-13.1l3.8,1.1C104.7,311,103.5,315.3,102.3,319.7z M576.3,299.9
				c-1.4-4.3-2.8-8.6-4.3-12.8l3.8-1.3c1.5,4.3,3,8.6,4.4,12.9L576.3,299.9z M110,293.8l-3.8-1.2c1.2-3.6,2.4-7.3,3.7-10.8l0.7-2.1
				l3.8,1.3l-0.7,2.1C112.4,286.6,111.2,290.2,110,293.8z M567.3,274.4c-1.6-4.2-3.3-8.4-5.1-12.5l3.7-1.6c1.8,4.1,3.5,8.4,5.1,12.6
				L567.3,274.4z M119.1,268.3l-3.7-1.4c1.6-4.3,3.4-8.5,5.1-12.7l3.7,1.5C122.4,259.8,120.7,264,119.1,268.3z M556.8,249.4
				c-1.9-4.1-3.8-8.2-5.8-12.2l3.6-1.8c2,4,4,8.2,5.9,12.3L556.8,249.4z M129.5,243.3l-3.6-1.7c1.9-4.2,3.9-8.3,5.8-12.3l3.6,1.8
				C133.3,235.1,131.4,239.2,129.5,243.3z M544.7,225.2c-2.1-4-4.3-7.9-6.6-11.8l3.5-2c2.3,3.9,4.5,7.9,6.6,11.9L544.7,225.2z
				 M141.5,219.1l-3.5-1.9c2.1-4,4.4-8,6.6-11.9l3.5,2C145.8,211.1,143.6,215.1,141.5,219.1z M531.2,201.8
				c-2.4-3.8-4.8-7.6-7.3-11.4l3.3-2.2c2.5,3.8,5,7.6,7.4,11.5L531.2,201.8z M155.1,195.7l-3.4-2.1c2.4-3.9,5-7.7,7.5-11.4l3.3,2.3
				C160,188.1,157.5,191.9,155.1,195.7z M516.2,179.4c-2.6-3.7-5.4-7.3-8.1-10.8l3.1-2.5c2.8,3.5,5.6,7.2,8.2,10.9L516.2,179.4z
				 M170.3,173.4l-3.2-2.4c2.7-3.7,5.5-7.3,8.4-10.8l3.1,2.5C175.8,166.2,173,169.8,170.3,173.4z M499.5,158.2c-2.9-3.4-6-6.8-9-10
				l2.9-2.7c3.1,3.3,6.2,6.7,9.2,10.2L499.5,158.2z M187.3,152.4l-3-2.6c2.5-2.8,5-5.6,7.6-8.3c0.6-0.6,1.1-1.2,1.7-1.7l2.9,2.8
				c-0.5,0.6-1.1,1.1-1.6,1.7C192.3,146.8,189.7,149.6,187.3,152.4z M480.9,138.6c-3.2-3.1-6.6-6.2-10-9.1l2.6-3
				c3.4,3,6.8,6.1,10.1,9.2L480.9,138.6z M206,133l-2.7-2.9c3.3-3.1,6.8-6.2,10.2-9.1l2.6,3.1C212.7,126.8,209.3,129.9,206,133z
				 M460.6,120.9c-3.5-2.8-7.2-5.5-10.8-8l2.3-3.3c3.7,2.6,7.4,5.3,11,8.1L460.6,120.9z M226.6,115.5l-2.4-3.2
				c3.6-2.8,7.4-5.4,11.2-8l2.2,3.3C233.8,110.2,230.2,112.8,226.6,115.5z M438.5,105.5c-3.8-2.4-7.7-4.6-11.6-6.8l1.9-3.5
				c4,2.2,8,4.5,11.8,6.9L438.5,105.5z M248.9,100.5l-2-3.4c3.9-2.3,8-4.5,12-6.6l1.8,3.6C256.8,96.1,252.8,98.2,248.9,100.5z
				 M414.9,92.5c-2-1-4-1.9-6.1-2.8s-4.2-1.8-6.2-2.7l1.5-3.7c2.1,0.9,4.2,1.8,6.3,2.7c2.1,0.9,4.1,1.9,6.2,2.9L414.9,92.5z
				 M272.9,88.3l-1.6-3.7c4.2-1.8,8.5-3.5,12.7-5.1l1.4,3.8C281.2,84.8,277,86.5,272.9,88.3z M390,82.2c-4.3-1.5-8.6-2.9-12.8-4.1
				l1.1-3.8c4.3,1.2,8.7,2.6,13.1,4.2L390,82.2z M298.2,79.1l-1.1-3.8c1.5-0.4,3-0.9,4.5-1.3c3.1-0.8,6-1.6,8.8-2.2l0.9,3.9
				c-2.8,0.6-5.6,1.4-8.6,2.2C301.1,78.2,299.6,78.6,298.2,79.1z M364.1,74.8c-2.8-0.6-5.7-1.2-8.5-1.6c-1.5-0.3-3.1-0.5-4.6-0.7
				l0.5-4c1.6,0.2,3.3,0.4,4.9,0.7c2.9,0.5,5.8,1,8.7,1.7L364.1,74.8z M324.4,73.1l-0.6-4c4.7-0.7,9.4-1.1,13.8-1.2l0.1,4
				C333.4,72.1,329,72.5,324.4,73.1z"/>
		</g>
	</g>
</g>
</svg>
