<?xml version="1.0" encoding="utf-8"?>
<!-- Generator: Adobe Illustrator 26.3.1, SVG Export Plug-In . SVG Version: 6.00 Build 0)  -->
<svg version="1.1" id="Layer_1" xmlns="http://www.w3.org/2000/svg" xmlns:xlink="http://www.w3.org/1999/xlink" x="0px" y="0px"
	 viewBox="0 0 723.9 2118.7" style="enable-background:new 0 0 723.9 2118.7;" xml:space="preserve">
<style type="text/css">
	.st0{fill:#005EFF;}
	.st1{fill:#7900FF;}
	.st2{fill:#00FF00;}
	.st3{fill:#ED1E77;}
</style>
<g>
	<g>
		<g>
			<g>
				<g>
					<path class="st0" d="M418.2,518c-5.7,0-10.2-4.5-10.2-9.9s4.6-10,10.2-10s10.2,4.5,10.2,10C428.4,513.6,423.9,518,418.2,518z
						 M418.2,502.6c-3.2,0-5.8,2.4-5.8,5.5c0,3,2.6,5.4,5.8,5.4s5.8-2.4,5.8-5.4S421.4,502.6,418.2,502.6z"/>
				</g>
			</g>
			<g>
				<g>
					<path class="st0" d="M303.6,518c-5.7,0-10.2-4.5-10.2-9.9s4.6-10,10.2-10s10.2,4.5,10.2,10C313.8,513.6,309.3,518,303.6,518z
						 M303.6,502.6c-3.2,0-5.8,2.4-5.8,5.5c0,3,2.6,5.4,5.8,5.4s5.8-2.4,5.8-5.4S306.8,502.6,303.6,502.6z"/>
				</g>
			</g>
			<g>
				<g>
					<path class="st0" d="M418.2,371.5c-5.7,0-10.2-4.5-10.2-10s4.6-10,10.2-10s10.2,4.5,10.2,10S423.9,371.5,418.2,371.5z
						 M418.2,356c-3.2,0-5.8,2.4-5.8,5.5s2.6,5.5,5.8,5.5s5.8-2.4,5.8-5.5S421.4,356,418.2,356z"/>
				</g>
			</g>
			<g>
				<g>
					<path class="st0" d="M303.6,371.5c-5.7,0-10.2-4.5-10.2-10s4.6-10,10.2-10s10.2,4.5,10.2,10S309.3,371.5,303.6,371.5z
						 M303.6,356c-3.2,0-5.8,2.4-5.8,5.5s2.6,5.5,5.8,5.5s5.8-2.4,5.8-5.5S306.8,356,303.6,356z"/>
				</g>
			</g>
		</g>
		<g>
			<g>
				<g>
					<path class="st0" d="M418.2,1767c-5.7,0-10.2-4.5-10.2-10s4.6-9.9,10.2-9.9s10.2,4.5,10.2,9.9S423.9,1767,418.2,1767z
						 M418.2,1751.7c-3.2,0-5.8,2.4-5.8,5.4s2.6,5.5,5.8,5.5s5.8-2.4,5.8-5.5S421.4,1751.7,418.2,1751.7z"/>
				</g>
			</g>
			<g>
				<g>
					<path class="st0" d="M303.6,1767c-5.7,0-10.2-4.5-10.2-10s4.6-9.9,10.2-9.9s10.2,4.5,10.2,9.9S309.3,1767,303.6,1767z
						 M303.6,1751.7c-3.2,0-5.8,2.4-5.8,5.4s2.6,5.5,5.8,5.5s5.8-2.4,5.8-5.5S306.8,1751.7,303.6,1751.7z"/>
				</g>
			</g>
			<g>
				<g>
					<path class="st0" d="M418.2,1620.5c-5.7,0-10.2-4.5-10.2-10s4.6-10,10.2-10s10.2,4.5,10.2,10S423.9,1620.5,418.2,1620.5z
						 M418.2,1605c-3.2,0-5.8,2.4-5.8,5.5s2.6,5.5,5.8,5.5s5.8-2.4,5.8-5.5S421.4,1605,418.2,1605z"/>
				</g>
			</g>
			<g>
				<g>
					<path class="st0" d="M303.6,1620.5c-5.7,0-10.2-4.5-10.2-10s4.6-10,10.2-10s10.2,4.5,10.2,10S309.3,1620.5,303.6,1620.5z
						 M303.6,1605c-3.2,0-5.8,2.4-5.8,5.5s2.6,5.5,5.8,5.5s5.8-2.4,5.8-5.5S306.8,1605,303.6,1605z"/>
				</g>
			</g>
		</g>
	</g>
	<g>
		<g>
			<path class="st1" d="M371.5,2119c-33.9,0-70.5-2.4-114.5-7.5c-39.2-4.6-78.2-15.1-115.9-31.3c-33.5-14.3-58.3-33.3-75.8-58.1
				c-12.4-17.6-21.4-36.9-26.5-57.4c-6.6-26.2-8.7-53.1-10.8-79.2c-0.5-6.1-1-12.4-1.5-18.6c-1.9-22-2.7-44.8-2.3-68l0.2-11.8
				c0.5-27.5,1-56,2.1-84.1c0.3-6.7,0.5-13.5,0.7-20.2c1.1-31.2,2.3-63.5,5.7-95c1.4-13,3.1-114,3.7-152.1c0.1-5.4,0.2-9.7,0.2-12.4
				c0.1-6.6,0.2-13.1,0.4-19.6c0.4-17.6,0.7-35.8,0.5-53.7c-0.1-7.2,0.2-14.4,0.6-21.3c0.3-6,0.6-12.2,0.6-18.3
				c-0.2-39.6-0.9-78.6-2.2-115.8c-1.4-42.5-3.3-80-5.8-114.8c-3-44.1-7.1-89.4-12.2-134.8c-1.6-14.9-2.8-30.1-3.9-44.8
				c-1-13-2-26.5-3.4-39.7c-3.2-30.1-5.2-60.8-7.1-90.5c-0.6-9-1.2-18-1.8-27C1,721.8-0.4,699.5-1,677.2
				C-1.8,647.5,0.7,511,3.7,472.4c2.9-38,7.8-71.7,15.2-103C34,304.7,49.3,246.8,81.3,194.3c14.1-23.1,32-46.5,55-71.5
				c19-20.8,38.1-38.3,58.4-53.4c43.2-31.9,78.7-51.2,115.2-62.6c44-13.6,88.3-8.6,139.5,16c45.1,21.6,85.4,49.6,119.7,83.2
				c48.9,47.7,80.1,92.6,98,141.2c14.2,38.2,24.2,70.5,31.6,101.6c6.1,25.6,11.1,51.8,15,77.8c2.1,14.1,10.4,147.8,10.2,170.9l0,0
				c-0.5,60.8-2.6,115.5-6.2,167.2c-1,14.3-2,28.7-2.9,43c-2.2,32.6-4.5,66.2-7.1,99.3c-1.3,16.4-2.9,33-4.5,49.1s-3.2,32.7-4.5,49
				c-2.6,34.5-4.4,69.7-6.2,103.6c-3.1,62.9-4.5,124.4-4.1,182.6c0.4,42.5,1.4,87,3.2,140.2c0.8,24.4,2.2,49.3,3.5,73.4
				c0.7,12,1.3,24.5,1.9,36.7c0.6,13.4,1.2,26.9,1.7,40c1,24.4,2,49.7,3.6,74.4c3,48.7,6.1,106.2,5.9,163.9c0,6.3,0,12.7,0,19
				c0.2,30.9,0.3,62.8-5.4,93.9c-3.7,20.4-9.7,40.5-18.3,61.5c-12,29.4-30.4,52.2-56.1,69.6c-28.2,19.3-61.6,32.7-102,41
				c-42.4,8.9-89.4,13.3-148,14C376.1,2119,373.8,2119,371.5,2119z M357.9,3.8c-15.9,0-31.3,2.4-46.8,7.2
				c-36,11.3-71.1,30.4-113.8,62c-20.1,14.9-39,32.2-57.8,52.8c-22.7,24.8-40.5,48-54.4,70.9c-31.7,51.9-46.8,109.4-61.9,173.7
				C15.9,401.5,11,435,8.1,472.8C5.2,511.2,2.7,647.5,3.4,677c0.6,22.3,2.1,44.5,3.5,65.3c0.6,9,1.2,18,1.8,27.1
				c1.9,29.6,3.9,60.3,7.1,90.4c1.4,13.3,2.4,26.8,3.4,39.8c1.1,14.7,2.3,29.8,3.9,44.6c5.1,45.4,9.2,90.9,12.2,135
				c2.5,34.8,4.4,72.4,5.8,115c1.3,37.3,2,76.3,2.2,116c0,6.2-0.3,12.5-0.6,18.5c-0.3,6.9-0.7,14-0.6,21c0.2,18-0.2,36.2-0.5,53.8
				c-0.1,6.5-0.3,13.1-0.4,19.6c0,2.8-0.1,7-0.2,12.4c-0.7,41.7-2.3,139.3-3.7,152.5c-3.4,31.3-4.5,63.5-5.6,94.7
				c-0.2,6.7-0.5,13.5-0.7,20.2c-1.1,28-1.6,56.5-2.1,84l-0.2,11.8c-0.4,23,0.4,45.8,2.3,67.6c0.6,6.2,1.1,12.6,1.5,18.7
				c2.1,25.9,4.2,52.7,10.7,78.5c5.1,20,13.8,38.8,25.9,56c17,24.1,41.1,42.6,73.8,56.5c37.3,16,75.9,26.4,114.7,30.9
				c46.8,5.5,85.2,7.8,120.8,7.5c58.3-0.7,105.1-5.1,147.2-14c39.9-8.2,72.7-21.4,100.4-40.4c25-16.9,42.8-39.1,54.5-67.6
				c8.5-20.6,14.4-40.4,18.1-60.5c5.6-30.7,5.5-62.4,5.3-93.1c0-6.2-0.1-12.7,0-19c0.2-57.5-2.9-114.9-5.9-163.6
				c-1.6-24.8-2.6-50.1-3.6-74.5c-0.5-13.1-1.1-26.7-1.7-40c-0.6-12.2-1.3-24.7-1.9-36.7c-1.3-24.1-2.7-49-3.5-73.4
				c-1.8-53.3-2.8-97.9-3.2-140.4c-0.4-58.3,1-119.8,4.1-182.8c1.8-34,3.6-69.2,6.2-103.8c1.3-16.4,2.9-33,4.5-49.1s3.2-32.7,4.5-49
				c2.6-33.1,4.9-66.7,7.1-99.2c1-14.4,1.9-28.7,2.9-43c3.6-51.7,5.7-106.3,6.2-167c0.2-23-8.1-156.1-10.2-170.2
				c-3.9-25.9-8.9-51.9-15-77.4c-7.3-30.9-17.3-63-31.4-101c-17.7-48-48.5-92.3-97-139.6c-34-33.3-73.8-61-118.5-82.4
				C415.4,11.4,386.1,3.8,357.9,3.8z"/>
		</g>
	</g>
	<g>
		<g>
			<path class="st2" d="M370.4,2074.4c-30,0-62.6-2.3-102-7.2c-35.2-4.4-69-14.2-103.3-29.9c-29.8-13.6-51.8-31.7-67.3-55.4
				c-11-16.6-18.9-35.1-23.6-54.8c-5.9-24.8-7.8-50.6-9.6-75.4c-0.4-6-0.9-12.2-1.4-18.3c-1.7-20.9-2.4-42.8-2-65.2v-0.2
				c0.5-30.1,1-61.1,2.1-91.7c0.2-6.1,0.4-12.3,0.6-18.4c1-30.2,2-61.4,5.1-91.9c0.9-8.8,1.2-37.9,1.5-61.2
				c0.2-14.5,0.3-27,0.6-30.9c1-15.7,1.1-31.7,1.2-47.2c0-6,0.1-12.3,0.1-18.4c0.1-7.3,0.2-14.7,0.4-21.9
				c0.3-15.9,0.6-32.3,0.4-48.3c-0.1-6.4,0.2-12.8,0.5-19.1c0.3-6.2,0.5-12.6,0.5-18.9c-0.2-39.9-0.9-76.2-2-111.1
				c-1.3-40.5-3-76.6-5.1-110.2c-2.8-43.8-6.5-87.3-10.9-129.2c-1.5-14.3-2.5-29-3.5-43.1c-0.9-12.4-1.8-25.3-3-37.9
				c-2.7-27.7-4.4-55.9-6.1-83.1c-0.6-9.8-1.2-19.7-1.9-29.5c-1.4-20.8-2.7-42-3.2-63c-0.4-18.1-0.6-36.5-0.8-54.4
				c-0.1-10.2-0.2-20.7-0.3-31c-0.5-31.5,1.8-63.2,4.1-94c0.4-5.6,0.8-11.2,1.2-16.7c2.5-36.3,6.9-68.5,13.4-98.7
				c13.5-62,27-117.4,55.6-167.6c12.5-22.1,28.5-44.5,49-68.5c17.1-20.2,34.2-36.9,52.1-51.1c26-20.6,61.1-46,102.7-59.9
				c39-13,78.5-8.2,124.3,15.3c40.1,20.6,76,47.4,106.6,79.6c43.7,45.9,71.4,88.9,87.3,135.1c12.8,37.4,21.8,68.3,28.1,97.3
				c5.3,23.7,9.8,48.8,13.4,74.4c5.1,20.9,9.3,142.5,9.1,163.8c-0.4,58.1-2.2,110.5-5.5,160.3c-1.1,16.5-2.1,33.2-3.2,49.4
				c-1.8,28.5-3.6,58-5.7,87c-1.1,15.1-2.5,30.4-3.9,45.1c-1.5,16-3,32.5-4.1,48.8c-2.3,32.9-3.9,66.3-5.5,98.7v0.7
				c-2.9,62.5-4.1,119.8-3.6,175c0.3,46.8,1.6,94.2,2.9,134.5c0.7,21.5,1.8,43.4,2.8,64.5c0.7,13.5,1.4,27.4,2,41.1
				c0.6,12.9,1.1,26,1.5,38.7c0.9,23.3,1.8,47.4,3.2,71c2.5,42.8,5.4,99.4,5.2,157c0,6.1,0,12.1,0,18.2c0.1,29.6,0.3,60.1-4.8,89.8
				c-3.3,19.6-8.7,38.9-16.3,58.8c-10.6,27.9-26.9,49.6-49.8,66.4c-25,18.3-54.8,31.2-90.9,39.4c-38.5,8.6-80.4,12.9-132,13.4
				C374.6,2074.4,372.5,2074.4,370.4,2074.4z M358.2,46.9c-14.2,0-28,2.3-41.8,6.9c-41.1,13.8-76,39-101.7,59.5
				C196.9,127.4,180,144,162.9,164c-20.3,23.9-36.2,46.1-48.6,68.1c-28.4,49.9-41.8,105-55.2,166.8c-6.5,30-10.9,62.2-13.4,98.3
				c-0.4,5.6-0.8,11.2-1.2,16.8c-2.3,30.7-4.6,62.4-4.1,93.7c0.1,10.4,0.2,20.9,0.3,31.1c0.2,17.8,0.3,36.3,0.8,54.3
				c0.5,20.9,1.8,42.1,3.1,62.6c0.7,9.8,1.3,19.7,1.9,29.5c1.7,27.2,3.5,55.4,6.1,83c1.2,12.7,2.1,25.5,3,38c1,14.1,2,28.7,3.5,43
				c4.4,42,8.1,85.5,10.9,129.4c2.1,33.6,3.8,69.7,5.1,110.2c1.1,34.9,1.8,71.2,2,111.1c0.1,6.4-0.2,12.8-0.5,19.1
				c-0.3,6.2-0.5,12.6-0.5,18.9c0.2,16.1-0.1,32.5-0.4,48.4c-0.1,7.2-0.3,14.6-0.4,21.9c-0.1,6.1-0.1,12.4-0.1,18.4
				c-0.1,15.6-0.2,31.6-1.2,47.4c-0.2,3.9-0.4,16.3-0.6,30.8c-0.3,23.4-0.7,52.6-1.5,61.5c-3.1,30.4-4.1,61.5-5.1,91.7
				c-0.2,6.1-0.4,12.3-0.6,18.4c-1.1,30.5-1.6,61.6-2.1,91.6v0.2c-0.4,22.2,0.3,44.1,2,64.9c0.5,6.1,1,12.3,1.4,18.3
				c1.8,24.8,3.7,50.3,9.6,74.9c4.6,19.4,12.4,37.5,23.2,53.8c15.2,23.3,36.8,41,66.1,54.4c34.1,15.6,67.6,25.3,102.5,29.7
				c42,5.3,76.3,7.5,107.9,7.2c51.4-0.6,93.1-4.8,131.4-13.4c35.7-8,65-20.7,89.7-38.8c22.4-16.4,38.4-37.7,48.8-65
				c7.5-19.7,12.8-38.8,16.1-58.2c5-29.5,4.8-59.9,4.7-89.3c0-6.1-0.1-12.2,0-18.2c0.2-57.6-2.7-114-5.2-156.8
				c-1.4-23.7-2.3-47.8-3.2-71.1c-0.5-12.7-1-25.8-1.5-38.7c-0.6-13.7-1.3-27.6-2-41.1c-1.1-21.2-2.2-43-2.8-64.6
				c-1.3-40.3-2.6-87.8-2.9-134.5c-0.5-55.3,0.7-112.6,3.6-175.2v-0.7c1.6-32.4,3.2-65.9,5.5-98.8c1.1-16.3,2.7-32.9,4.1-48.9
				c1.4-14.8,2.8-30,3.9-45.1c2.1-29,4-58.5,5.7-87c1-16.2,2.1-32.9,3.2-49.4c3.3-49.7,5.1-102.1,5.5-160.1l0,0
				c0.2-25.1-4.2-143.5-9.1-163.1v-0.2c-3.6-25.6-8.1-50.6-13.4-74.3c-6.4-28.9-15.3-59.7-28.1-96.9
				c-15.7-45.8-43.3-88.4-86.7-134.1c-30.4-32-66-58.5-105.8-79C409.5,54.2,383.3,46.9,358.2,46.9z"/>
		</g>
	</g>
	<g>
		<g>
			<path class="st3" d="M372.8,2035.3v-3h2.2c3.8,0,7.7-0.1,11.4-0.2l0.1,3c-3.7,0.1-7.6,0.2-11.4,0.2H372.8z M359.2,2035.2
				c-4.4-0.1-9-0.2-13.6-0.4l0.1-3c4.6,0.2,9.1,0.4,13.5,0.4V2035.2z M400.1,2034.6l-0.1-3c4.6-0.2,9.1-0.4,13.5-0.7l0.2,3
				C409.2,2034.2,404.6,2034.4,400.1,2034.6z M332,2034c-4.4-0.3-9-0.7-13.6-1.1l0.3-3c4.6,0.4,9.1,0.8,13.5,1.1L332,2034z
				 M427.2,2032.9l-0.3-3c4.6-0.4,9.1-0.8,13.5-1.3l0.3,3C436.4,2032,431.8,2032.5,427.2,2032.9z M304.9,2031.7
				c-4.4-0.5-8.9-1-13.5-1.5l0.4-3c4.6,0.6,9.1,1.1,13.5,1.5L304.9,2031.7z M454.3,2029.8l-0.4-3c4.5-0.6,9-1.3,13.4-2.1l0.5,3
				C463.4,2028.4,458.9,2029.2,454.3,2029.8z M277.9,2028.4h-0.2c-4.4-0.6-8.9-1.3-13.3-2.1l0.5-3c4.4,0.8,8.8,1.5,13.2,2.1h0.2
				L277.9,2028.4z M481.2,2025.2l-0.6-2.9c4.2-0.9,8.4-1.8,12.5-2.8l0.7-0.2l0.7,2.9l-0.8,0.2
				C489.6,2023.3,485.4,2024.3,481.2,2025.2z M251,2023.5c-4.4-1-8.9-2.2-13.2-3.4l0.8-2.9c4.3,1.2,8.7,2.4,13.1,3.4L251,2023.5z
				 M507.7,2018.7l-0.9-2.9c4.4-1.3,8.7-2.7,12.8-4.2l1,2.8C516.5,2015.9,512.1,2017.3,507.7,2018.7z M224.7,2016.1
				c-4.3-1.4-8.6-3-12.9-4.6l1.1-2.8c4.2,1.6,8.5,3.1,12.7,4.6L224.7,2016.1z M533.4,2009.4l-1.2-2.8c4.2-1.8,8.3-3.7,12.2-5.8
				l1.4,2.7C541.8,2005.6,537.6,2007.6,533.4,2009.4z M199.2,2006.3c-4.1-1.8-8.3-3.7-12.4-5.7l1.3-2.7c4.1,2,8.2,3.9,12.3,5.6
				L199.2,2006.3z M557.7,1996.8l-1.6-2.6c3.8-2.3,7.6-4.8,11.2-7.4l1.7,2.4C565.5,1991.9,561.6,1994.5,557.7,1996.8z M174.7,1994.3
				c-4-2.3-7.9-4.7-11.6-7.3l1.7-2.5c3.6,2.5,7.4,4.9,11.4,7.1L174.7,1994.3z M580,1980.9l-1.9-2.3c3.4-2.9,6.7-6,9.7-9.2l2.2,2.1
				C586.8,1974.7,583.5,1977.9,580,1980.9z M152.2,1978.8c-3.5-3-6.9-6.1-10.1-9.3l2.2-2.1c3.1,3.2,6.4,6.2,9.8,9.1L152.2,1978.8z
				 M598.8,1960.9l-2.4-1.8c2.7-3.5,5.2-7.2,7.6-11.1l2.6,1.6C604.2,1953.5,601.6,1957.3,598.8,1960.9z M133,1959.1
				c-2.8-3.6-5.5-7.3-7.9-11.2l2.5-1.6c2.4,3.8,5,7.5,7.8,11L133,1959.1z M613.2,1937.6l-2.7-1.3c1.9-3.9,3.7-8.1,5.4-12.3l2.8,1.1
				C617,1929.3,615.1,1933.5,613.2,1937.6z M118.3,1936c-2.1-4-4.1-8.2-5.8-12.4l2.8-1.2c1.7,4.1,3.7,8.2,5.7,12.2L118.3,1936z
				 M623.2,1912.1l-2.8-0.9c1.4-4.3,2.8-8.7,4-12.9l2.9,0.8C626,1903.4,624.6,1907.8,623.2,1912.1z M107.6,1910.8
				c-1.4-4.3-2.7-8.7-3.8-13.2l2.9-0.7c1.1,4.4,2.3,8.7,3.7,12.9L107.6,1910.8z M630.6,1885.9l-2.9-0.7c1-4.4,2-8.8,2.8-13.2
				l2.9,0.5C632.6,1876.9,631.7,1881.4,630.6,1885.9z M101,1884.2c-0.8-4.3-1.5-8.8-2.2-13.5l3-0.4c0.6,4.6,1.4,9.1,2.1,13.4
				L101,1884.2z M635.7,1859l-3-0.4c0.6-4.3,1.1-8.8,1.6-13.4l3,0.3C636.8,1850.1,636.3,1854.7,635.7,1859z M97.2,1857.2
				c-0.4-4.2-0.9-8.6-1.3-13.6l3-0.2c0.4,4.9,0.8,9.3,1.3,13.5L97.2,1857.2z M638.2,1831.9l-3-0.2c0.3-4.3,0.4-8.8,0.6-13.5l3,0.1
				C638.7,1823,638.5,1827.5,638.2,1831.9z M94.9,1830.1c-0.2-2.7-0.4-5.5-0.6-8.2l-0.4-5.4l3-0.2l0.4,5.4c0.2,2.7,0.4,5.5,0.6,8.2
				L94.9,1830.1z M639.1,1804.6h-3c0-3.8,0.1-7.9,0.1-12.6v-1h3v1C639.2,1796.7,639.1,1800.8,639.1,1804.6z M93,1803
				c-0.3-4.5-0.6-9.1-0.9-13.6l3-0.2c0.2,4.5,0.5,9.1,0.9,13.5L93,1803z M636.1,1777.4c0-4.3,0-8.6,0-13v-0.6h3v0.6
				c0,4.3,0,8.6,0,12.9L636.1,1777.4z M91.5,1775.8c-0.2-4.5-0.3-9.1-0.3-13.6h3c0.1,4.5,0.2,9.1,0.3,13.6H91.5z M636.1,1750.3
				c0-4.5,0-9-0.1-13.6h3c0,4.5,0.1,9.1,0.1,13.6H636.1z M94.1,1748.6h-3c0-2.6,0.1-5.1,0.1-7.7l0.1-5.9h3l-0.1,5.9
				C94.2,1743.5,94.1,1746,94.1,1748.6z M635.9,1723.1c-0.1-4.5-0.2-9-0.3-13.6l3-0.1c0.1,4.5,0.2,9.1,0.3,13.6L635.9,1723.1z
				 M94.5,1721.4h-3c0.1-4.5,0.2-9.1,0.2-13.6l3,0.1C94.7,1712.4,94.6,1716.9,94.5,1721.4z M635.2,1696c-0.1-4.5-0.3-9-0.4-13.6
				l3-0.1c0.2,4.5,0.3,9.1,0.4,13.6L635.2,1696z M95,1694.3l-3-0.1c0.1-4.5,0.2-9.1,0.3-13.6l3,0.1
				C95.2,1685.2,95.1,1689.7,95,1694.3z M634.3,1668.8c-0.2-4.5-0.4-9-0.6-13.6l3-0.1c0.2,4.5,0.4,9.1,0.6,13.6L634.3,1668.8z
				 M95.7,1667.1l-3-0.1c0.1-4.5,0.3-9.1,0.4-13.6l3,0.1C95.9,1658.1,95.8,1662.6,95.7,1667.1z M633.1,1641.7
				c-0.2-4.5-0.4-9-0.7-13.6l3-0.2c0.2,4.5,0.5,9.1,0.7,13.6L633.1,1641.7z M96.5,1640l-3-0.1l0.4-13.6l3,0.1L96.5,1640z
				 M631.7,1614.6l-0.3-5.1c-0.2-2.8-0.3-5.7-0.4-8.5l3-0.1c0.1,2.8,0.3,5.6,0.4,8.5l0.3,5.1L631.7,1614.6z M97.4,1612.8l-3-0.1
				c0.2-4.5,0.3-9.1,0.5-13.6l3,0.1C97.7,1603.8,97.5,1608.3,97.4,1612.8z M630.3,1587.4c-0.2-4.5-0.4-9.1-0.6-13.6l3-0.1
				c0.2,4.5,0.4,9,0.6,13.6L630.3,1587.4z M98.5,1585.7l-3-0.1c0.2-4.7,0.5-9.3,0.8-13.6l3,0.2C99,1576.4,98.7,1581,98.5,1585.7z
				 M629.2,1560.3c-0.2-4.5-0.3-9.1-0.5-13.6l3-0.1c0.2,4.5,0.3,9.1,0.5,13.6L629.2,1560.3z M100.2,1558.6l-3-0.2
				c0.3-4.1,0.7-8.1,1-12c0-0.5,0.1-1,0.1-1.5l3,0.2c0,0.6-0.1,1.1-0.1,1.6C100.8,1550.5,100.5,1554.5,100.2,1558.6z M628.3,1533.1
				c-0.2-4.5-0.3-9.1-0.5-13.6l3-0.1c0.2,4.5,0.3,9.1,0.5,13.6L628.3,1533.1z M102,1531.4l-3-0.1c0.1-3.9,0.2-8.4,0.3-13.6h3
				C102.2,1523,102.1,1527.4,102,1531.4z M627.3,1505.9l-0.1-2.1c-0.2-3.8-0.3-7.7-0.5-11.5l3-0.1c0.2,3.8,0.3,7.7,0.5,11.5l0.1,2.1
				L627.3,1505.9z M102.4,1504.1h-3v-3.8c0-4.1,0.1-7.5,0.1-9.9l3,0.1c0,2.4-0.1,5.8-0.1,9.9V1504.1z M626.1,1478.8l-0.6-13.6l3-0.1
				l0.6,13.6L626.1,1478.8z M100.1,1476.9L100.1,1476.9c0-1.8,0-3.5,0-5.3s0-3.5,0-5.3c0-1,0-2,0-3.1h3c0,1,0,2,0,3
				c0,1.8,0,3.5,0,5.3s0,3.5,0,5.3L100.1,1476.9z M624.8,1451.7c-0.2-4.5-0.4-9-0.6-13.6l3-0.1c0.2,4.5,0.4,9,0.6,13.6L624.8,1451.7
				z M103.6,1449.8l-3-0.1c0.2-4.2,0.3-8.6,0.4-13.6l3,0.1C103.9,1441.1,103.8,1445.6,103.6,1449.8z M623.7,1424.5
				c-0.2-4.5-0.3-9.1-0.5-13.6l3-0.1c0.2,4.5,0.3,9,0.5,13.6L623.7,1424.5z M104.2,1422.6h-3c0-3.2,0-6.4,0.1-9.6v-4h3v4
				C104.2,1416.2,104.2,1419.4,104.2,1422.6z M622.8,1397.3c-0.1-4.5-0.3-9.1-0.4-13.6l3-0.1c0.1,4.5,0.3,9.1,0.4,13.6L622.8,1397.3
				z M104.4,1395.4h-3v-0.7c0.1-4.3,0.1-8.6,0.2-12.9l3,0.1c-0.1,4.3-0.1,8.6-0.2,12.9V1395.4z M622,1370.2
				c-0.1-4.5-0.2-9.1-0.3-13.6l3-0.1c0.1,4.5,0.2,9.1,0.3,13.6L622,1370.2z M104.9,1368.3l-3-0.1c0.1-4.5,0.2-9.1,0.2-13.6h3
				C105,1359.2,104.9,1363.7,104.9,1368.3z M621.3,1343c-0.1-4.5-0.2-9.1-0.3-13.6l3-0.1c0.1,4.5,0.2,9.1,0.3,13.6L621.3,1343z
				 M105.2,1341.1h-3c0-1.9,0-3.8,0-5.7c0-2.6,0-5.2,0-7.8h3c0,2.6,0,5.2,0,7.8C105.2,1337.2,105.2,1339.2,105.2,1341.1z
				 M620.8,1315.8c-0.1-4.5-0.1-9.1-0.2-13.6h3c0.1,4.5,0.1,9.1,0.2,13.6H620.8z M105.4,1314l-3-0.1c0.1-1.7,0.1-3.4,0.2-5.1
				c0.1-2.8,0.2-5.6,0.3-8.4l3,0.1c-0.1,2.8-0.2,5.6-0.3,8.5C105.6,1310.5,105.5,1312.2,105.4,1314z M620.4,1288.6
				c0-4.5-0.1-9.1-0.1-13.6h3c0,4.5,0.1,9.1,0.1,13.6H620.4z M103.1,1286.8c0-4.5-0.1-9.1-0.1-13.6h3c0,4.5,0.1,9.1,0.1,13.6H103.1z
				 M620.3,1261.5v-5.5c0-2.7,0-5.4,0-8.1h3c0,2.7,0,5.4,0,8.1v5.5H620.3z M102.8,1259.6c-0.1-4.5-0.1-9.1-0.2-13.6h3
				c0.1,4.5,0.1,9.1,0.2,13.6H102.8z M623.3,1234.3h-3c0-4.5,0.1-9.1,0.1-13.6h3C623.4,1225.2,623.4,1229.8,623.3,1234.3z
				 M102.5,1232.4c-0.1-4.5-0.2-9.1-0.3-13.6l3-0.1c0.1,4.5,0.2,9.1,0.3,13.6L102.5,1232.4z M623.6,1207.1h-3
				c0.1-4.5,0.1-9.1,0.2-13.6l3,0.1C623.8,1198.1,623.7,1202.6,623.6,1207.1z M101.9,1205.3c-0.1-4.5-0.2-9.1-0.4-13.6l3-0.1
				c0.1,4.5,0.2,9.1,0.4,13.6L101.9,1205.3z M624.1,1180l-3-0.1c0.1-4.5,0.2-9.1,0.3-13.6l3,0.1
				C624.3,1170.9,624.2,1175.5,624.1,1180z M101.1,1178.1c-0.1-4.5-0.3-9-0.5-13.6l3-0.1c0.2,4.5,0.3,9.1,0.5,13.6L101.1,1178.1z
				 M624.8,1152.8l-3-0.1c0.1-4.5,0.3-9.1,0.4-13.6l3,0.1C625.1,1143.8,625,1148.3,624.8,1152.8z M100.2,1151
				c-0.2-4.5-0.3-9-0.5-13.6l3-0.1c0.2,4.5,0.4,9.1,0.5,13.6L100.2,1151z M625.8,1125.7l-3-0.1c0.2-4.5,0.3-9.1,0.5-13.6l3,0.1
				C626.1,1116.6,625.9,1121.2,625.8,1125.7z M99.1,1123.8c-0.2-4.5-0.4-9-0.6-13.6l3-0.1c0.2,4.5,0.4,9,0.6,13.6L99.1,1123.8z
				 M626.9,1098.5l-3-0.1c0.2-4.5,0.4-9.1,0.6-13.6l3,0.1C627.2,1089.5,627,1094,626.9,1098.5z M97.8,1096.7
				c-0.2-4.5-0.5-9-0.7-13.6l3-0.2c0.3,4.5,0.5,9,0.8,13.6L97.8,1096.7z M628,1071.4l-3-0.1c0.2-4.5,0.4-9.1,0.7-13.6l3,0.1
				C628.5,1062.3,628.3,1066.9,628,1071.4z M96.2,1069.6c-0.3-4.5-0.6-9-0.9-13.6l3-0.2c0.3,4.5,0.6,9,0.9,13.6L96.2,1069.6z
				 M629.4,1044.3l-3-0.2c0.2-4.5,0.5-9,0.8-13.6l3,0.2C629.9,1035.2,629.6,1039.7,629.4,1044.3z M94.4,1042.5
				c-0.3-4.5-0.6-9-1-13.5l3-0.2c0.3,4.5,0.7,9,1,13.6L94.4,1042.5z M631,1017.2l-3-0.2c0.2-2.7,0.3-5.4,0.5-8.1
				c0.1-1.8,0.2-3.7,0.4-5.5l3,0.2c-0.1,1.8-0.3,3.7-0.4,5.5C631.3,1011.8,631.1,1014.5,631,1017.2z M92.4,1015.4
				c-0.4-4.5-0.7-9-1.1-13.5l3-0.2c0.4,4.5,0.7,9,1.1,13.5L92.4,1015.4z M632.9,990.1l-3-0.2c0.4-4.5,0.7-9,1.1-13.5l3,0.3
				C633.6,981,633.3,985.6,632.9,990.1z M90.1,988.3c-0.4-4.5-0.8-9-1.2-13.5l3-0.3c0.4,4.5,0.8,9,1.2,13.5L90.1,988.3z M635.2,963
				l-3-0.3c0.4-4.5,0.8-9,1.2-13.5l3,0.3C636,954,635.6,958.5,635.2,963z M87.6,961.3c-0.2-2.5-0.5-5-0.7-7.5c-0.2-2-0.4-4-0.6-6
				l3-0.3c0.2,2,0.4,4,0.6,6c0.2,2.5,0.5,5,0.7,7.5L87.6,961.3z M637.4,935.9l-3-0.2c0.4-4.5,0.7-9,1-13.5l3,0.2
				C638.1,926.9,637.8,931.4,637.4,935.9z M85.3,934.2c-0.3-4.5-0.6-9-0.9-13.6l3-0.2c0.3,4.5,0.6,9,0.9,13.5L85.3,934.2z
				 M639.3,908.8l-3-0.2c0.3-4.5,0.6-9,0.9-13.6l3,0.2C639.9,899.7,639.6,904.3,639.3,908.8z M83.4,907.1c-0.3-4.5-0.6-9-0.9-13.5
				l3-0.2c0.3,4.5,0.6,9,0.9,13.6L83.4,907.1z M641.1,881.7l-3-0.2c0.3-4.5,0.6-9,0.8-13.6l3,0.2
				C641.6,872.6,641.3,877.1,641.1,881.7z M81.5,880c-0.1-1.4-0.2-2.8-0.4-4.2c-0.3-3.1-0.6-6.2-0.8-9.4l3-0.3
				c0.3,3.1,0.5,6.2,0.8,9.4c0.1,1.4,0.2,2.8,0.4,4.2L81.5,880z M642.7,854.5l-3-0.2l0.8-13.6l3,0.2L642.7,854.5z M79.2,852.9
				c-0.3-4.5-0.7-9-1-13.6l3-0.2c0.3,4.5,0.6,9,1,13.5L79.2,852.9z M644.3,827.4l-3-0.2l0.8-13.6l3,0.2L644.3,827.4z M77.3,825.8
				c-0.3-4.5-0.6-9-0.8-13.6l3-0.2c0.3,4.5,0.5,9,0.8,13.6L77.3,825.8z M645.9,800.3l-3-0.2c0.3-4.2,0.5-8.5,0.8-12.7l0.1-0.9l3,0.2
				l-0.1,0.9C646.4,791.8,646.2,796.1,645.9,800.3z M75.7,798.6L74.9,785l3-0.2l0.8,13.6L75.7,798.6z M647.6,773.2l-3-0.2
				c0.3-4.5,0.5-9,0.7-13.6l3,0.2C648,764.1,647.8,768.6,647.6,773.2z M74.1,771.5l-0.2-4c-0.2-3.2-0.4-6.4-0.6-9.5l3-0.2
				c0.2,3.2,0.4,6.4,0.6,9.5l0.2,4L74.1,771.5z M648.9,746l-3-0.1c0.2-4.5,0.4-9,0.6-13.6l3,0.1C649.3,737,649.1,741.5,648.9,746z
				 M72.6,744.4c-0.2-4.5-0.5-9.1-0.7-13.6l3-0.1c0.2,4.5,0.4,9,0.7,13.6L72.6,744.4z M650,718.8l-3-0.1c0.2-4.5,0.3-9,0.4-13.6
				l3,0.1C650.3,709.8,650.1,714.3,650,718.8z M71.4,717.2c-0.1-3.4-0.2-6.7-0.3-10.1c0-1.2-0.1-2.4-0.1-3.5l3-0.1
				c0,1.2,0.1,2.3,0.1,3.5c0.1,3.3,0.2,6.7,0.3,10L71.4,717.2z M650.8,691.7l-3-0.1c0.1-4.5,0.2-9.1,0.3-13.6l3,0.1
				C651,682.6,650.9,687.1,650.8,691.7z M70.8,690c-0.1-4.5-0.1-9.1-0.2-13.6h3c0,4.5,0.1,9.1,0.2,13.6H70.8z M651.3,664.5h-3
				c0.1-4.5,0.1-9.1,0.2-13.6h3C651.5,655.4,651.4,660,651.3,664.5z M70.5,662.8l-0.1-13.6h3l0.1,13.6H70.5z M651.7,637.3h-3v-3.8
				c0-3.3,0.1-6.5,0.1-9.8h3c0,3.3-0.1,6.5-0.1,9.8V637.3z M70.2,635.7c0-3.5-0.1-7.1-0.1-10.6c0-1,0-2,0-2.9h3c0,1,0,2,0,2.9
				c0.1,3.5,0.1,7.1,0.1,10.7L70.2,635.7z M648.8,610.1c0-4.9-0.1-9.4-0.1-13.6l3-0.1c0.1,4.2,0.1,8.7,0.1,13.6L648.8,610.1z
				 M73.1,608.5h-3c0.1-4.4,0.2-9,0.3-13.6l3,0.1C73.3,599.6,73.2,604.1,73.1,608.5z M648.2,583c-0.2-4.8-0.5-9.3-0.9-13.5v-0.1
				v-0.1c0.1-2.1,0.2-4.3,0.2-6.6c0-2,0-4.1-0.1-6.3l3-0.1c0.1,2.2,0.1,4.3,0.1,6.4c0,2.2-0.1,4.5-0.2,6.6c0.4,4.2,0.7,8.7,0.9,13.5
				L648.2,583z M74,581.4l-3-0.1c0.2-4.3,0.4-8.7,0.7-13.6l3,0.2C74.4,572.7,74.2,577.1,74,581.4z M75.5,554.3l-3-0.2
				c0.3-4.5,0.6-9,0.9-13.6l3,0.2C76.1,545.3,75.8,549.8,75.5,554.3z M646.3,543c-0.2-2.1-0.5-4.2-0.7-6.3c-0.3-2.4-0.5-4.8-0.8-7.2
				l3-0.3c0.2,2.4,0.5,4.8,0.8,7.2c0.2,2.1,0.5,4.2,0.7,6.3L646.3,543z M77.3,527.2l-3-0.2c0.2-2.8,0.4-5.6,0.6-8.4
				c0.1-1.7,0.2-3.5,0.4-5.2l3,0.2c-0.1,1.7-0.2,3.4-0.4,5.2C77.7,521.6,77.5,524.4,77.3,527.2z M643.8,515.8c0-0.4,0-0.9,0-1.3
				c-0.1-3.9-0.2-8-0.5-12.2l3-0.2c0.3,4.3,0.5,8.4,0.5,12.4c0,0.4,0,0.8,0,1.3H643.8z M79.3,500.1l-3-0.3c0.4-4.6,0.8-9.1,1.3-13.5
				l3,0.3C80.2,491,79.7,495.6,79.3,500.1z M642.1,488.8c-0.4-3.7-0.9-7.7-1.4-12.1l-0.2-1.3l3-0.4l0.2,1.3c0.6,4.5,1,8.5,1.4,12.2
				L642.1,488.8z M82.1,473.1l-3-0.4c0.6-4.5,1.2-9.1,1.8-13.5l3,0.4C83.3,464.1,82.7,468.6,82.1,473.1z M638.7,461.9
				c-0.6-4.5-1.3-9-2-13.4l3-0.5c0.7,4.4,1.4,9,2,13.5L638.7,461.9z M86,446.3l-3-0.5c0.7-4.5,1.5-9,2.3-13.4l2.9,0.6
				C87.5,437.3,86.7,441.8,86,446.3z M634.4,435.2c-0.8-4.4-1.6-8.9-2.4-13.3l2.9-0.6c0.8,4.5,1.7,9,2.4,13.4L634.4,435.2z
				 M90.9,419.6L88,419c0.9-4.4,1.8-8.9,2.7-13.3l2.9,0.6C92.7,410.8,91.8,415.2,90.9,419.6z M629.4,408.5c-0.2-1.1-0.4-2.1-0.7-3.2
				c-0.7-3.3-1.4-6.7-2.2-10.1l2.9-0.7c0.8,3.4,1.5,6.8,2.2,10.1c0.2,1.1,0.4,2.1,0.7,3.2L629.4,408.5z M96.5,393.1l-2.9-0.6
				c1-4.7,2-9,3-13.3l2.9,0.7C98.5,384.1,97.5,388.4,96.5,393.1z M623.5,382c-1.1-4.3-2.2-8.7-3.3-13.1l2.9-0.8
				c1.2,4.4,2.3,8.9,3.3,13.2L623.5,382z M102.6,366.6l-2.9-0.7c1.1-4.5,2.2-9,3.4-13.2l2.9,0.8
				C104.8,357.7,103.7,362.1,102.6,366.6z M616.6,355.8c-1.2-4.2-2.4-8.6-3.7-13l2.9-0.8c1.3,4.4,2.6,8.8,3.7,13.1L616.6,355.8z
				 M109.6,340.4l-2.9-0.8c1.3-4.4,2.6-8.8,3.9-13l2.9,0.9C112.2,331.6,110.9,336,109.6,340.4z M609,329.8c-1.3-4.1-2.6-8.5-4-13
				l2.9-0.9c1.4,4.5,2.8,8.8,4,13L609,329.8z M117.8,314.6l-2.8-1c1.5-4.4,3.1-8.7,4.7-12.8l2.8,1.1
				C120.8,306,119.3,310.3,117.8,314.6z M600.7,303.9c-1.5-4.2-3.1-8.5-4.8-12.6l2.8-1.1c1.7,4.2,3.3,8.5,4.8,12.8L600.7,303.9z
				 M127.5,289.3l-2.8-1.2c1.8-4.2,3.7-8.4,5.6-12.4l2.7,1.3C131.2,281,129.3,285.2,127.5,289.3z M590.5,278.9
				c-1.9-4-3.9-8.1-5.9-12.1l2.7-1.4c2.1,4,4.1,8.2,6,12.3L590.5,278.9z M139.1,264.9l-2.7-1.4l0.5-1c1.9-3.6,4-7.3,6.1-10.9
				l2.6,1.5c-2.1,3.6-4.1,7.2-6,10.8L139.1,264.9z M578.2,254.9c-2.2-3.9-4.5-7.8-6.9-11.6l2.5-1.6c2.4,3.9,4.8,7.8,7,11.7
				L578.2,254.9z M152.6,241.5l-2.5-1.6c2.4-3.8,4.9-7.6,7.4-11.4l2.5,1.7C157.4,233.9,155,237.7,152.6,241.5z M563.9,232
				c-2.5-3.7-5.1-7.4-7.8-11.1l2.4-1.8c2.7,3.7,5.3,7.4,7.8,11.2L563.9,232z M167.7,219l-2.4-1.8c2.6-3.6,5.3-7.3,8.1-11l2.4,1.8
				C173,211.8,170.3,215.5,167.7,219z M547.9,210.1c-2.7-3.5-5.6-7-8.5-10.6l2.3-1.9c2.9,3.6,5.8,7.1,8.5,10.6L547.9,210.1z
				 M184.1,197.5l-2.3-1.9c2.9-3.6,5.8-7.1,8.7-10.5l2.3,2C189.9,190.4,187,193.9,184.1,197.5z M530.7,189.2c-1.7-2-3.4-3.9-5.1-5.9
				c-1.3-1.4-2.6-2.9-3.8-4.3l2.2-2c1.3,1.4,2.6,2.9,3.9,4.3c1.7,2,3.5,3.9,5.2,5.9L530.7,189.2z M201.8,176.9l-2.2-2
				c3.1-3.4,6.3-6.7,9.4-9.9l2.1,2.1C208,170.2,204.8,173.5,201.8,176.9z M512.4,169.2c-3.2-3.2-6.4-6.4-9.7-9.4l2.1-2.2
				c3.3,3.1,6.6,6.3,9.8,9.5L512.4,169.2z M220.8,157.7l-2-2.2c3-2.7,6-5.4,9-8l1.3-1.1l1.9,2.3l-1.3,1.1
				C226.7,152.4,223.7,155,220.8,157.7z M492.7,150.7c-3.4-2.9-6.9-5.9-10.4-8.7l1.9-2.3c3.5,2.8,7,5.8,10.5,8.8L492.7,150.7z
				 M241.4,140.1l-1.9-2.3c3.6-2.9,7.3-5.8,10.7-8.4l1.8,2.4C248.6,134.4,245,137.2,241.4,140.1z M471.6,133.8
				c-3.6-2.7-7.3-5.3-11-7.9l1.7-2.5c3.7,2.6,7.5,5.2,11.1,7.9L471.6,133.8z M263,123.8l-1.7-2.5c3.8-2.7,7.6-5.2,11.3-7.6l1.6,2.5
				C270.5,118.6,266.8,121.2,263,123.8z M449.3,118.5c-3.8-2.4-7.7-4.8-11.6-7l1.5-2.6c3.9,2.3,7.8,4.7,11.7,7.1L449.3,118.5z
				 M285.7,109.2l-1.5-2.6c4-2.3,8.1-4.5,12-6.5l1.3,2.7C293.7,104.8,289.7,106.9,285.7,109.2z M425.9,104.9
				c-4.1-2.1-8.2-4.1-12.1-5.9l1.2-2.7c4,1.8,8.2,3.8,12.3,6L425.9,104.9z M309.9,97.1l-1.2-2.8c3.8-1.6,7.6-3.1,11.4-4.5
				c0.4-0.2,0.9-0.3,1.3-0.5l1,2.8c-0.4,0.2-0.9,0.3-1.3,0.5C317.4,94,313.6,95.5,309.9,97.1z M401.3,94c-4.3-1.5-8.6-2.9-12.9-3.9
				l0.7-2.9c4.3,1.1,8.7,2.5,13.1,4L401.3,94z M335.3,88.6l-0.6-2.9c4.5-1,9.1-1.7,13.6-2.1l0.3,3C344.1,87,339.7,87.7,335.3,88.6z
				 M375.3,87.4c-4.5-0.7-9-1.1-13.3-1.2l0.1-3c4.5,0.1,9.1,0.6,13.7,1.2L375.3,87.4z"/>
		</g>
	</g>
</g>
</svg>
