<?xml version="1.0" encoding="utf-8"?>
<!-- Generator: Adobe Illustrator 26.3.1, SVG Export Plug-In . SVG Version: 6.00 Build 0)  -->
<svg version="1.1" id="Layer_1" xmlns="http://www.w3.org/2000/svg" xmlns:xlink="http://www.w3.org/1999/xlink" x="0px" y="0px"
	 viewBox="0 0 612.2 2268.6" style="enable-background:new 0 0 612.2 2268.6;" xml:space="preserve">
<style type="text/css">
	.st0{fill:#FFFFFF;}
	.st1{fill:#7900FF;}
	.st2{fill:#005EFF;}
	.st3{fill:#38E841;}
	.st4{fill:#ED1E77;}
</style>
<g>
	<g>
		<path class="st0" d="M609.7,868.7c-0.6-67.7-0.1-135.3-1-203c-0.5-36.3-0.8-72.6-2-108.9c-1.4-45.6-3-91.1-5.9-136.6
			c-2.2-34.8-4.3-69.6-8.8-104.2c-5.8-44.7-16-88.4-32.6-130.5c-22.9-57.9-58.3-106-110.4-140.9c-22.1-14.9-45.3-27.7-71.6-33.9
			c-20.9-4.9-42.2-7.2-63.6-8.5c-0.2,0-0.3-0.1-0.5-0.1h-5.2c-1.1,0-2.3-0.2-3.4-0.1c-0.7,0-1.4,0-2.2,0.1C301,2,299.4,2.2,298,2.2
			c-12,0.4-23.9,1.9-35.8,3.4c-20.1,2.6-39.7,6.9-58.2,15.6c-59.9,28.1-105.5,71.2-136,130c-27.9,53.7-41.8,111.5-49.1,171.2
			C14.1,362,11.8,402,9.5,441.9C7.2,482,5.8,522.1,4.7,562.2c-0.9,33.1-1.5,66.2-1.8,99.3C2.4,719.1,2.2,776.7,2,834.3
			c-0.3,76.2-0.6,152.3,1.3,228.5c0.8,33.1,0.4,66.2,0.9,99.3c0.6,41.3,0.6,82.5,2,123.8c1.2,35.3,1.6,70.7,2.4,106
			c0.3,14.2,0.6,28.5,1,42.7c1.8,53.7,3.7,107.4,5.6,161.1c0.6,17.9,1.3,35.8,2.1,53.7c2.1,46.8,4.3,93.6,6.3,140.4
			c1.2,26.7,3.5,53.3,6.3,79.9c3.5,33.2,7.3,66.4,11.1,99.7c4.3,37.9,10.4,75.4,21.1,112.1c13,44.8,31.9,86.3,64.4,120.7
			c21.9,23.2,46.6,42,77.8,50.8c30.7,8.6,62.1,12,93.9,13.2c0.4,0,0.8,0,1.4,0c3.4,0.7,10.4,0,12,0c22.9-0.6,45.6-2.9,68.2-6.8
			c22.5-4,44.4-9.9,63.9-22.4c38.1-24.4,65.6-58.2,85-98.7c16-33.4,25.6-68.9,32.8-105.1c5.6-28.3,8.8-56.9,12-85.5
			c3.4-30.7,6.8-61.4,10-92c3.6-34.2,5.2-68.6,6.6-102.9c1.9-44.4,3.9-88.8,5.7-133.3c1.4-34,2.7-68.1,3.8-102.1
			c1.3-39.8,2.8-79.6,3.3-119.4c0.2-15.7,0.7-31.3,1.1-47c1.1-44.8,2.4-89.5,3.4-134.3c0.6-28.3,0.4-56.6,0.7-84.9
			c0.5-52.5,1.4-104.9,2-157.4C610.4,939.1,610,903.9,609.7,868.7z"/>
	</g>
	<g>
		<g>
			<g>
				<g>
					<ellipse class="st0" cx="361.1" cy="637.7" rx="8" ry="7.7"/>
				</g>
			</g>
			<g>
				<g>
					<ellipse class="st0" cx="246.5" cy="637.7" rx="8" ry="7.7"/>
				</g>
			</g>
			<g>
				<g>
					<ellipse class="st0" cx="361.1" cy="491.1" rx="8" ry="7.7"/>
				</g>
			</g>
			<g>
				<g>
					<ellipse class="st0" cx="246.5" cy="491.1" rx="8" ry="7.7"/>
				</g>
			</g>
		</g>
		<g>
			<g>
				<g>
					<ellipse class="st0" cx="361.1" cy="1859.3" rx="8" ry="7.7"/>
				</g>
			</g>
			<g>
				<g>
					<ellipse class="st0" cx="246.5" cy="1859.3" rx="8" ry="7.7"/>
				</g>
			</g>
			<g>
				<g>
					<ellipse class="st0" cx="361.1" cy="1712.7" rx="8" ry="7.7"/>
				</g>
			</g>
			<g>
				<g>
					<ellipse class="st0" cx="246.5" cy="1712.7" rx="8" ry="7.7"/>
				</g>
			</g>
		</g>
	</g>
</g>
<g>
	<g>
		<g>
			<path class="st1" d="M303.9,2268.8c-1.6,0-3.2-0.1-4.5-0.3h-1.2c-37.1-1.4-67.2-5.6-94.5-13.3c-28.2-7.9-53.2-24.3-78.8-51.4
				c-29.2-30.9-49.8-69.5-64.9-121.6c-9.4-32.2-16.1-68-21.2-112.5l-0.4-3.9c-3.6-31.4-7.3-63.9-10.7-95.9
				c-3.2-30.7-5.2-56.1-6.3-80c-1.3-31.2-2.8-62.9-4.2-93.6c-0.7-15.6-1.4-31.2-2.1-46.8c-0.8-17.9-1.5-35.9-2.1-53.7
				c-1.9-52.7-3.8-107.1-5.6-161.1c-0.4-14-0.7-28.3-1-42v-0.7c-0.3-11.8-0.5-23.8-0.7-35.4c-0.4-23.1-0.9-47.1-1.7-70.6
				c-1-29-1.3-58.3-1.6-86.8c-0.1-12.2-0.3-24.7-0.4-37.1c-0.2-14.2-0.3-28.6-0.3-42.6c-0.1-18.6-0.1-37.8-0.6-56.7
				c-1.9-76.2-1.6-153.6-1.3-228.5v-0.4c0.2-56.5,0.4-115,0.9-172.5c0.3-33,0.9-66.4,1.8-99.3c1.3-48.5,2.8-85.7,4.8-120.4v-0.3
				c2.3-39.2,4.6-79.8,9.4-119.4c8.4-68.7,24.1-123.4,49.3-172C96.3,91.5,142.5,47.4,203,19c16.4-7.7,35.1-12.7,58.9-15.8
				c11.8-1.5,23.9-3,36-3.4c0.6,0,1.1,0,1.7-0.1c0.9,0,1.9-0.1,2.8,0c0.8-0.1,1.5-0.1,2.2-0.1c0.8-0.1,1.6,0,2.3,0
				c0.4,0,0.8,0.1,1.2,0.1h5.2c0.3,0,0.6,0.1,0.8,0.1c25.2,1.5,45.5,4.3,63.8,8.5c23,5.4,45.3,16,72.3,34.2
				c50.4,33.8,86.8,80.2,111.2,141.9c15.8,40,26.5,82.9,32.7,131c4.3,33.3,6.5,67.3,8.5,100.2l0.3,4.2c3,47.7,4.6,95.5,5.9,136.7
				c1,29.7,1.4,59.9,1.7,89.1c0.1,6.6,0.2,13.2,0.3,19.8c0.5,37.9,0.6,76.4,0.6,113.7c0,29.3,0.1,59.6,0.4,89.4l0,0l0.1,13.2
				c0.3,30.3,0.5,61.6,0.3,92.5c-0.3,22.5-0.6,45.4-0.9,67.6c-0.4,29.4-0.8,59.9-1.1,89.8c-0.1,10.9-0.2,21.9-0.2,32.6
				c-0.1,17.1-0.1,34.8-0.5,52.3c-0.6,26.8-1.3,54-2,80.3c-0.5,18-0.9,36-1.4,54c-0.1,4-0.2,7.9-0.3,11.9
				c-0.3,11.5-0.6,23.4-0.8,35.1c-0.4,33.2-1.5,67-2.6,99.6c-0.2,6.6-0.4,13.2-0.7,19.8c-1,30.8-2.2,64.3-3.8,102.1
				c-1.2,29.9-2.5,60.3-3.8,89.7c-0.6,14.5-1.3,29.1-1.9,43.6c-1.4,33.2-3,68.6-6.6,103c-3.2,30.8-6.7,61.9-10,92
				c-3.2,28.2-6.4,57.3-12,85.7c-8.5,42.9-19,76.5-33,105.6c-20.5,42.8-49.4,76.3-85.8,99.6c-21.5,13.8-45.9,19.4-64.7,22.7
				c-22.8,3.9-45.9,6.2-68.5,6.8c-0.4,0-1.1,0-1.9,0.1C308.1,2268.6,305.9,2268.8,303.9,2268.8z M299.6,2264h0.5
				c2.3,0.5,6.9,0.2,9.4,0.1c1-0.1,1.7-0.1,2.1-0.1c22.4-0.6,45.2-2.9,67.8-6.8c18.4-3.3,42.3-8.8,63.1-22.1
				c35.7-22.9,64.1-55.8,84.2-97.8c13.8-28.8,24.2-62,32.6-104.6c5.6-28.2,8.8-57.2,12-85.3c3.3-30.1,6.8-61.2,10-92
				c3.6-34.3,5.2-69.6,6.6-102.8c0.6-14.5,1.3-29.1,1.9-43.6c1.3-29.4,2.6-59.8,3.8-89.7c1.6-37.9,2.8-71.2,3.8-102.1
				c0.2-6.6,0.4-13.2,0.7-19.8c1.1-32.6,2.2-66.4,2.6-99.5c0.1-11.8,0.5-23.7,0.8-35.2c0.1-3.9,0.2-7.9,0.3-11.9
				c0.4-18,0.9-36,1.4-54c0.7-26.3,1.4-53.5,2-80.3c0.4-17.4,0.4-35.1,0.5-52.2c0-10.7,0.1-21.8,0.2-32.7c0.3-30,0.7-60.4,1.1-89.8
				c0.3-22.1,0.6-45,0.9-67.6c0.3-30.9,0-62.2-0.3-92.4l-0.1-13.2c-0.3-29.8-0.3-60.1-0.4-89.4c-0.1-37.2-0.1-75.7-0.6-113.6
				c-0.1-6.6-0.2-13.2-0.3-19.8c-0.4-29.2-0.8-59.4-1.7-89c-1.3-41.1-2.9-88.9-5.9-136.5l-0.3-4.2c-2.1-32.8-4.2-66.7-8.5-99.9
				c-6.2-47.8-16.8-90.3-32.5-130c-24.1-60.8-59.9-106.6-109.6-139.9c-26.6-17.9-48.5-28.3-70.9-33.6c-18.1-4.2-38.1-6.9-63.2-8.4
				c-0.3,0-0.5-0.1-0.7-0.1h-5c-0.5,0-1,0-1.5-0.1c-0.6,0-1.2-0.1-1.7,0h-0.2c-0.6,0-1.3,0-1.9,0.1h-0.2h-0.2c-0.8-0.1-1.7,0-2.5,0
				c-0.6,0-1.3,0.1-1.8,0.1c-11.8,0.4-23.9,1.9-35.5,3.4c-23.3,3-41.6,7.9-57.5,15.4c-59.7,28-105.1,71.4-135,129
				c-25,48.1-40.5,102.3-48.9,170.4c-4.8,39.4-7.1,79.9-9.4,119.1v0.2c-2,34.7-3.5,71.7-4.8,120.2c-0.9,32.9-1.5,66.3-1.8,99.3
				C4.7,719,4.4,777.5,4.3,834v0.3C4,909.2,3.7,986.6,5.5,1062.7c0.5,18.9,0.5,38.2,0.6,56.8c0,13.9,0.1,28.4,0.3,42.5
				c0.2,12.4,0.3,25,0.4,37.1c0.3,28.4,0.6,57.7,1.6,86.6c0.8,23.5,1.3,47.5,1.7,70.6c0.2,11.6,0.4,23.6,0.7,35.4v0.7
				c0.3,13.8,0.6,28,1,42c1.8,53.9,3.7,108.4,5.6,161.1c0.6,17.8,1.3,35.8,2.1,53.7c0.7,15.6,1.4,31.2,2.1,46.8
				c1.4,30.7,2.8,62.4,4.2,93.6c1.1,23.8,3.1,49.2,6.3,79.8c3.4,31.9,7.1,64.4,10.7,95.8l0.4,3.9c5,44.2,11.7,79.7,21,111.7
				c14.9,51.4,35.2,89.4,63.9,119.8c25,26.5,49.4,42.5,76.8,50.2c27,7.6,56.7,11.7,93.4,13.1L299.6,2264z"/>
		</g>
		<g>
			<g>
				<g>
					<g>
						<path class="st2" d="M361.1,647.6c-5.7,0-10.2-4.5-10.2-9.9s4.6-10,10.2-10s10.2,4.5,10.2,10S366.8,647.6,361.1,647.6z
							 M361.1,632.2c-3.2,0-5.8,2.4-5.8,5.5c0,3,2.6,5.4,5.8,5.4s5.8-2.4,5.8-5.4C366.8,634.7,364.3,632.2,361.1,632.2z"/>
					</g>
				</g>
				<g>
					<g>
						<path class="st2" d="M246.5,647.6c-5.7,0-10.2-4.5-10.2-9.9s4.6-10,10.2-10s10.2,4.5,10.2,10S252.2,647.6,246.5,647.6z
							 M246.5,632.2c-3.2,0-5.8,2.4-5.8,5.5c0,3,2.6,5.4,5.8,5.4s5.8-2.4,5.8-5.4C252.2,634.7,249.7,632.2,246.5,632.2z"/>
					</g>
				</g>
				<g>
					<g>
						<path class="st2" d="M361.1,501c-5.7,0-10.2-4.5-10.2-9.9s4.6-10,10.2-10s10.2,4.5,10.2,10S366.8,501,361.1,501z M361.1,485.6
							c-3.2,0-5.8,2.4-5.8,5.5c0,3,2.6,5.4,5.8,5.4s5.8-2.4,5.8-5.4C366.8,488.1,364.3,485.6,361.1,485.6z"/>
					</g>
				</g>
				<g>
					<g>
						<path class="st2" d="M246.5,501c-5.7,0-10.2-4.5-10.2-9.9s4.6-10,10.2-10s10.2,4.5,10.2,10S252.2,501,246.5,501z M246.5,485.6
							c-3.2,0-5.8,2.4-5.8,5.5c0,3,2.6,5.4,5.8,5.4s5.8-2.4,5.8-5.4C252.2,488.1,249.7,485.6,246.5,485.6z"/>
					</g>
				</g>
			</g>
			<g>
				<g>
					<g>
						<path class="st2" d="M361.1,1869.2c-5.7,0-10.2-4.5-10.2-10s4.6-10,10.2-10s10.2,4.5,10.2,10S366.8,1869.2,361.1,1869.2z
							 M361.1,1853.8c-3.2,0-5.8,2.4-5.8,5.5s2.6,5.5,5.8,5.5s5.8-2.4,5.8-5.5S364.3,1853.8,361.1,1853.8z"/>
					</g>
				</g>
				<g>
					<g>
						<path class="st2" d="M246.5,1869.2c-5.7,0-10.2-4.5-10.2-10s4.6-10,10.2-10s10.2,4.5,10.2,10S252.2,1869.2,246.5,1869.2z
							 M246.5,1853.8c-3.2,0-5.8,2.4-5.8,5.5s2.6,5.5,5.8,5.5s5.8-2.4,5.8-5.5S249.7,1853.8,246.5,1853.8z"/>
					</g>
				</g>
				<g>
					<g>
						<path class="st2" d="M361.1,1722.7c-5.7,0-10.2-4.5-10.2-10s4.6-10,10.2-10s10.2,4.5,10.2,10S366.8,1722.7,361.1,1722.7z
							 M361.1,1707.2c-3.2,0-5.8,2.4-5.8,5.5s2.6,5.5,5.8,5.5s5.8-2.4,5.8-5.5S364.3,1707.2,361.1,1707.2z"/>
					</g>
				</g>
				<g>
					<g>
						<path class="st2" d="M246.5,1722.7c-5.7,0-10.2-4.5-10.2-10s4.6-10,10.2-10s10.2,4.5,10.2,10S252.2,1722.7,246.5,1722.7z
							 M246.5,1707.2c-3.2,0-5.8,2.4-5.8,5.5s2.6,5.5,5.8,5.5s5.8-2.4,5.8-5.5S249.7,1707.2,246.5,1707.2z"/>
					</g>
				</g>
			</g>
		</g>
	</g>
	<g>
		<path class="st3" d="M304.4,2235.9c-1.4,0-2.8-0.1-3.9-0.3h-1.1c-33.3-1.4-59.9-5.5-83.7-12.9c-24.9-7.7-47-23.5-69.7-49.8
			c-25.7-29.7-44-67.2-57.5-117.8c-8.4-31.8-14.3-66.4-18.7-109c-3.3-31.6-6.8-64.4-9.9-96.7c-3-31-4.7-54.9-5.6-77.6
			c-0.9-22.7-1.9-45.7-2.8-68.1c-0.9-22.4-1.9-45.5-2.8-68.2c-0.5-11.6-0.9-23.4-1.2-34.9c-0.2-5.7-0.4-11.5-0.6-17.2
			c-1.6-48.2-3.4-102.9-5-156.4c-0.3-9.2-0.4-18.6-0.6-27.6c-0.1-4.6-0.2-9.3-0.3-13.9c-0.2-11.4-0.4-22.9-0.6-34.3
			c-0.4-22.5-0.8-45.7-1.5-68.6c-0.9-29-1.2-58.4-1.5-86.9c-0.1-11.1-0.2-22.2-0.3-33.4c-0.2-13.2-0.2-26.7-0.3-39.7
			c-0.1-18.6-0.1-37.8-0.5-56.7c-1.7-74-1.4-149.1-1.1-221.8c0.2-54.9,0.4-111.7,0.8-167.7c0.2-28.9,0.7-60.4,1.6-96.4
			c1.1-47.2,2.4-83.2,4.2-116.8l0.3-4.8c2-36.6,4-74.4,8.1-111.4c7.2-65.5,21.5-120,43.6-166.7c26.8-56.6,67.6-99.2,121.2-126.8
			c14.6-7.5,31.1-12.3,52.1-15.3c10.3-1.5,21.2-2.9,32-3.3c0.5,0,1,0,1.5-0.1c0.8,0,1.6-0.1,2.5,0c0.7-0.1,1.4-0.1,2-0.1
			c0.5,0,1,0,1.6,0.1c0.5,0,1,0,1.4,0h4.6c0.3,0,0.6,0.1,0.7,0.1c22.4,1.4,40.3,4,56.6,8.2c25.9,6.7,47.8,21.3,64.1,33.1
			c44.6,32.8,76.8,77.7,98.4,137.5c14,39.1,23.5,80.6,29,127c3.7,30.8,5.5,62.3,7.3,92.8l0.5,8.4c2.6,44,3.9,88.9,5.2,132.3v0.3
			c0.9,30.8,1.2,62.1,1.6,92.4l0.1,13.4c0.5,38.3,0.6,77.3,0.6,115c0,26.9,0.1,54.7,0.3,82.1l0,0c0.3,33.6,0.6,68.4,0.7,102.4
			c-0.2,17-0.4,33.9-0.6,50.9c-0.4,33.4-0.8,68-1.2,101.9c-0.1,9.2-0.1,18.3-0.1,27.5c-0.1,18-0.1,36.7-0.5,55
			c-0.6,28.9-1.3,58.2-2,86.6c-0.3,14.6-0.7,29.2-1,43.8c-0.1,5.1-0.2,10.2-0.3,15.2c-0.2,9.9-0.4,20.2-0.6,30.3
			c-0.4,34.4-1.5,69.5-2.6,103.4l-0.4,12.5c-1,33.4-2.2,66.8-3.4,99.1c-1.1,29-2.3,58.4-3.4,86.9c-0.6,14.2-1.1,28.4-1.7,42.5
			c-1.4,35.6-2.8,67.7-5.9,100c-2.9,29.8-6,60.1-8.9,89.4c-2.8,27.4-5.6,55.7-10.6,83.1c-7.6,41.7-16.9,74.2-29.2,102.3
			c-18.1,41.4-43.6,73.8-75.9,96.4c-19.2,13.5-40.7,18.8-57.3,21.9c-20,3.8-40.4,6-60.7,6.6c-0.4,0-1,0-1.7,0.1
			C308.1,2235.8,306.2,2235.9,304.4,2235.9z M300.6,2232.6h0.3c2.1,0.4,6.1,0.2,8.5,0.1c0.8,0,1.5-0.1,1.8-0.1
			c20.1-0.6,40.4-2.8,60.2-6.6c16.3-3.1,37.3-8.3,56.1-21.5c31.8-22.3,57-54.3,74.9-95.2c12.2-27.9,21.4-60.2,29-101.7
			c5-27.3,7.8-55.6,10.6-82.9c2.9-29.3,6-59.6,8.9-89.4c3.1-32.2,4.5-64.3,5.9-99.8c0.6-14.2,1.1-28.4,1.7-42.5
			c1.1-28.5,2.3-57.9,3.4-86.9c1.2-32.3,2.4-65.7,3.4-99.1l0.4-12.5c1.1-33.9,2.2-68.9,2.6-103.4c0.1-10.1,0.4-20.4,0.6-30.4
			c0.1-5.1,0.2-10.2,0.3-15.2c0.3-14.6,0.7-29.2,1-43.8c0.7-28.4,1.4-57.7,2-86.6c0.3-18.3,0.4-36.9,0.5-54.9
			c0-9.2,0.1-18.4,0.1-27.5c0.3-34,0.8-68.5,1.2-101.9c0.2-17,0.4-33.9,0.6-50.9c-0.1-34-0.4-68.7-0.7-102.4l0,0
			c-0.2-27.4-0.2-55.2-0.3-82.1c0-37.7-0.1-76.6-0.6-115l-0.1-13.4c-0.3-30.3-0.7-61.6-1.6-92.3v-0.3c-1.3-43.4-2.6-88.3-5.2-132.3
			l-0.5-8.4c-1.8-30.4-3.6-61.9-7.3-92.6c-5.4-46.2-14.9-87.5-28.8-126.4c-21.4-59.2-53.2-103.7-97.4-136.1
			c-16-11.7-37.7-26-63.1-32.7c-16.1-4.2-33.9-6.7-56.1-8.2c-0.2,0-0.4-0.1-0.5-0.1l0,0h-4.5c-0.5,0-1.1,0-1.6-0.1c-0.5,0-1,0-1.4,0
			c-0.6,0-1.2,0-1.7,0.1H303h-0.2c-0.8-0.1-1.5,0-2.3,0c-0.6,0-1.1,0.1-1.6,0.1c-10.5,0.4-21.4,1.8-31.6,3.3
			c-20.6,2.9-36.9,7.6-51.1,15c-53,27.3-93.3,69.4-119.8,125.4C74.4,227.8,60.2,282,53,347.1c-4,37.1-6.1,74.9-8,111.5l-0.3,4.8
			c-1.8,33.6-3.1,69.6-4.2,116.8c-0.9,36-1.4,67.5-1.6,96.4c-0.4,56-0.6,112.8-0.8,167.7c-0.3,72.7-0.6,147.8,1.1,221.8
			c0.4,18.9,0.5,38.1,0.5,56.7c0,13,0.1,26.5,0.3,39.7c0.1,11.1,0.2,22.3,0.3,33.4c0.3,28.4,0.5,57.8,1.5,86.8
			c0.7,22.9,1.1,46.2,1.5,68.7c0.2,11.4,0.4,22.8,0.6,34.3c0.1,4.6,0.2,9.3,0.3,13.9c0.2,9,0.4,18.3,0.6,27.5
			c1.6,53.5,3.4,108.2,5,156.4c0.2,5.7,0.4,11.5,0.6,17.2c0.4,11.4,0.8,23.3,1.2,34.9c0.9,22.7,1.9,45.9,2.8,68.2
			c0.9,22.3,1.9,45.4,2.8,68.1c0.9,22.6,2.6,46.5,5.6,77.4c3.1,32.3,6.6,65,9.9,96.7c4.4,42.5,10.3,77,18.7,108.6
			c13.4,50.2,31.5,87.2,56.9,116.6c22.3,25.8,44,41.4,68.3,48.8c23.6,7.3,49.9,11.3,82.9,12.7L300.6,2232.6z M313,35
			c0.1,0,0.1,0,0.2,0C313.1,35,313.1,35,313,35z"/>
	</g>
	<g>
		<path class="st4" d="M306.2,2204.9l-0.2-4.5c1,0,1.9-0.1,2.6-0.1c0.8,0,1.4-0.1,1.7-0.1l0,0c3-0.1,6.2-0.2,9.2-0.4l0.3,4.5
			c-3.1,0.2-6.3,0.3-9.5,0.4c-0.3,0-0.8,0-1.5,0.1C308.1,2204.8,307.2,2204.8,306.2,2204.9z M292.4,2204.3
			c-4.7-0.3-9.3-0.6-13.6-1.1l0.4-4.5c4.3,0.4,8.8,0.8,13.5,1.1L292.4,2204.3z M333.5,2203.1l-0.5-4.5c4.4-0.5,8.9-1,13.4-1.7
			l0.7,4.4C342.5,2202.1,338,2202.6,333.5,2203.1z M265.2,2201.6c-4.6-0.7-9.2-1.4-13.5-2.3l0.9-4.4c4.3,0.8,8.7,1.6,13.3,2.3
			L265.2,2201.6z M360.5,2199.1l-0.9-4.4c1.4-0.3,2.8-0.6,4.2-0.8c3.2-0.7,6.1-1.3,9-2l1.1,4.4c-2.9,0.7-5.9,1.4-9.1,2.1
			C363.3,2198.5,361.9,2198.8,360.5,2199.1z M238.3,2196.2c-4.5-1.2-8.9-2.5-13.2-3.9l1.4-4.3c4.2,1.4,8.5,2.7,12.9,3.8
			L238.3,2196.2z M387.1,2192.2l-1.5-4.2c4.3-1.5,8.5-3.2,12.3-5.1l2,4C395.9,2188.8,391.6,2190.6,387.1,2192.2z M212.3,2187.1
			c-4.1-2-8.1-4.3-12-6.9l2.5-3.8c3.8,2.5,7.7,4.7,11.5,6.6L212.3,2187.1z M411.9,2179.9l-2.5-3.7c1.4-0.9,2.8-1.9,4.1-3
			c2.2-1.7,4.4-3.4,6.4-5.2l2.9,3.4c-2.1,1.8-4.4,3.6-6.6,5.3C414.8,2177.9,413.4,2178.9,411.9,2179.9z M189.1,2172
			c-3.4-2.8-6.8-5.9-10.2-9.3l3.2-3.2c3.3,3.2,6.6,6.3,9.9,9L189.1,2172z M433.1,2162.3l-3.1-3.2c3.2-3.1,6.3-6.3,9.3-9.7l3.4,3
			C439.5,2155.8,436.3,2159.1,433.1,2162.3z M169.5,2152.7c-2.5-2.8-5-5.9-7.6-9c-0.4-0.5-0.8-1-1.2-1.5l3.5-2.8
			c0.4,0.5,0.8,1,1.2,1.5c2.5,3.1,5,6.1,7.4,8.9L169.5,2152.7z M451.3,2141.8l-3.6-2.8c2.7-3.5,5.3-7.2,7.9-10.9l3.7,2.5
			C456.8,2134.5,454.1,2138.2,451.3,2141.8z M152.6,2131.1c-2.5-3.7-5-7.6-7.4-11.6l3.9-2.3c2.3,3.9,4.7,7.7,7.2,11.3L152.6,2131.1z
			 M466.7,2119.1l-3.9-2.3c2.2-3.8,4.4-7.8,6.5-11.8l4,2.1C471.2,2111.2,469,2115.2,466.7,2119.1z M138.6,2107.6
			c-2.1-4-4.1-8.1-6-12.3l4.1-1.9c1.9,4.1,3.9,8.2,5.9,12.1L138.6,2107.6z M479.3,2094.7l-4.1-1.9c1.7-3.7,3.3-7.6,4.9-11.5l0.4-0.9
			l4.2,1.7l-0.4,0.9C482.7,2087,481,2090.9,479.3,2094.7z M127.2,2082.7c-1.7-4.1-3.3-8.4-4.8-12.8l4.2-1.5
			c1.5,4.3,3.1,8.6,4.8,12.6L127.2,2082.7z M489.5,2069.3l-4.2-1.5c1.5-4.1,2.9-8.5,4.3-12.8l4.3,1.3
			C492.4,2060.8,491,2065.1,489.5,2069.3z M118,2056.9c-1.3-4.2-2.6-8.6-3.9-13.1l4.3-1.2c1.2,4.4,2.5,8.8,3.8,13L118,2056.9z
			 M497.6,2043.2l-4.3-1.2c1.2-4.2,2.3-8.6,3.4-13.1l4.4,1.1C499.9,2034.5,498.8,2039,497.6,2043.2z M110.7,2030.6l-0.3-1.2
			c-1-4-1.9-8-2.8-12.1l4.4-1c0.9,4,1.8,8,2.8,12l0.3,1.2L110.7,2030.6z M504.1,2016.7l-4.4-1c0.9-4.3,1.8-8.7,2.7-13.3l4.4,0.9
			C506,2007.9,505,2012.4,504.1,2016.7z M104.9,2003.9c-0.9-4.4-1.7-8.9-2.5-13.4l4.4-0.8c0.8,4.5,1.6,9,2.5,13.3L104.9,2003.9z
			 M509.3,1990l-4.4-0.8c0.4-2.1,0.7-4.1,1.1-6.2c0.4-2.4,0.8-4.8,1.2-7.2l4.4,0.7c-0.4,2.4-0.8,4.8-1.2,7.2
			C510.1,1985.9,509.7,1987.9,509.3,1990z M100.2,1977.1c-0.7-4.4-1.3-8.9-2-13.5l4.5-0.6c0.6,4.5,1.3,9.1,1.9,13.4L100.2,1977.1z
			 M513.5,1963l-4.5-0.6c0.6-4.3,1.1-8.7,1.7-13.4l4.5,0.5C514.7,1954.3,514.1,1958.7,513.5,1963z M96.5,1950.1
			c-0.5-4.4-1-9-1.5-13.5l4.5-0.5c0.5,4.6,1,9.1,1.5,13.5L96.5,1950.1z M516.7,1936l-4.5-0.5c0.5-4.5,0.9-9,1.4-13.5l4.5,0.4
			C517.6,1927,517.2,1931.5,516.7,1936z M93.6,1923l-1.3-13.5l4.5-0.4l1.3,13.5L93.6,1923z M519.4,1908.9l-4.5-0.4l1.3-13.5l4.5,0.4
			L519.4,1908.9z M91,1895.9l-1.3-13.5l4.5-0.4l1.3,13.5L91,1895.9z M521.9,1881.9l-4.5-0.4l1.3-13.5l4.5,0.4L521.9,1881.9z
			 M88.4,1868.9c-0.4-4.5-0.8-9-1.3-13.5l4.5-0.4c0.4,4.5,0.8,9,1.3,13.5L88.4,1868.9z M524.5,1854.8l-4.5-0.4l1.2-13.5l4.5,0.4
			L524.5,1854.8z M85.9,1841.8c-0.4-4-0.7-7.9-1.1-11.9l-0.1-1.6l4.5-0.4l0.1,1.6c0.4,4,0.7,7.9,1.1,11.9L85.9,1841.8z
			 M526.9,1827.8l-4.5-0.4c0.3-3.7,0.7-7.4,1-11.1l0.2-2.5l4.5,0.4l-0.2,2.5C527.6,1820.4,527.3,1824.1,526.9,1827.8z M83.6,1814.7
			c-0.4-4.5-0.7-9-1.1-13.6l4.5-0.3c0.3,4.5,0.7,9,1.1,13.5L83.6,1814.7z M529.3,1800.6l-4.5-0.3c0.3-4.3,0.6-8.9,0.9-13.5l4.5,0.3
			C529.9,1791.8,529.6,1796.3,529.3,1800.6z M81.5,1787.6c-0.3-4.6-0.6-9.2-0.8-13.6l4.5-0.2c0.2,4.4,0.5,8.9,0.8,13.5L81.5,1787.6z
			 M531,1773.5l-4.5-0.2c0.2-4.5,0.5-9,0.7-13.6l4.5,0.2C531.4,1764.4,531.2,1769,531,1773.5z M80.1,1760.4
			c-0.1-1.9-0.2-3.8-0.2-5.7l-0.3-7.8l4.5-0.2l0.3,7.9c0.1,1.9,0.1,3.8,0.2,5.7L80.1,1760.4z M532.2,1746.3l-4.5-0.2
			c0.2-4.5,0.4-9,0.5-13.6l4.5,0.2C532.6,1737.3,532.4,1741.8,532.2,1746.3z M79.1,1733.3l-0.5-13.6l4.5-0.2l0.5,13.6L79.1,1733.3z
			 M533.3,1719.1l-4.5-0.2l0.5-13.6l4.5,0.2L533.3,1719.1z M78,1706.1l-0.5-13.6l4.5-0.2l0.5,13.6L78,1706.1z M534.3,1692l-4.5-0.2
			l0.5-13.6l4.5,0.2L534.3,1692z M77,1679l-0.5-13.6l4.5-0.2l0.5,13.6L77,1679z M535.3,1664.8l-4.5-0.2l0.5-13.6l4.5,0.2
			L535.3,1664.8z M75.9,1651.8l-0.5-13.6l4.5-0.2l0.5,13.6L75.9,1651.8z M536.3,1637.7l-4.5-0.2l0.5-13.6l4.5,0.2L536.3,1637.7z
			 M74.9,1624.6l-0.1-2.1c-0.1-3.8-0.3-7.7-0.4-11.5l4.5-0.2c0.1,3.8,0.3,7.7,0.4,11.5l0.1,2.1L74.9,1624.6z M537.3,1610.5l-4.5-0.2
			l0.5-13.6l4.5,0.2L537.3,1610.5z M74,1597.5c-0.1-4.5-0.3-9.1-0.4-13.6l4.5-0.1c0.1,4.5,0.3,9.1,0.4,13.6L74,1597.5z
			 M538.2,1583.4l-4.5-0.2c0.2-4.5,0.3-9.1,0.5-13.6l4.5,0.1C538.5,1574.3,538.4,1578.8,538.2,1583.4z M73.2,1570.3l-0.4-13.6
			l4.5-0.1l0.4,13.6L73.2,1570.3z M539.1,1556.2l-4.5-0.1c0.1-4.5,0.3-9.1,0.4-13.6l4.5,0.1C539.4,1547.2,539.3,1551.7,539.1,1556.2
			z M72.4,1543.1l-0.4-13.6l4.5-0.1l0.4,13.6L72.4,1543.1z M540,1529l-4.5-0.1c0.1-4.5,0.3-9.1,0.4-13.6l4.5,0.1
			C540.2,1520,540.1,1524.5,540,1529z M71.6,1516l-0.4-13.6l4.5-0.1l0.4,13.6L71.6,1516z M540.8,1501.9l-4.5-0.1l0.4-13.6l4.5,0.1
			L540.8,1501.9z M70.8,1488.8l-0.4-13.6l4.5-0.1l0.4,13.6L70.8,1488.8z M541.5,1474.7l-4.5-0.1l0.4-13.6l4.5,0.1L541.5,1474.7z
			 M70,1461.7l-0.4-13.6l4.5-0.1l0.4,13.6L70,1461.7z M542.2,1447.6l-4.5-0.1c0.1-4.5,0.2-9.1,0.4-13.6l4.5,0.1
			C542.5,1438.5,542.4,1443,542.2,1447.6z M69.2,1434.5l-0.4-13.6l4.5-0.1l0.4,13.6L69.2,1434.5z M542.9,1420.4l-4.5-0.1
			c0.1-4.5,0.2-9.1,0.3-13.6l4.5,0.1C543.1,1411.3,543,1415.8,542.9,1420.4z M68.5,1407.3c-0.1-4.5-0.2-9.1-0.3-13.6l4.5-0.1
			c0.1,4.5,0.2,9.1,0.3,13.6L68.5,1407.3z M543.4,1393.2l-4.5-0.1c0-2.4,0.1-4.7,0.1-7.1c0-2.2,0.1-4.4,0.1-6.5l4.5,0.1
			c0,2.2-0.1,4.3-0.1,6.5C543.5,1388.5,543.5,1390.8,543.4,1393.2z M68,1380.1c-0.1-4.5-0.2-9.1-0.2-13.6l4.5-0.1
			c0.1,4.5,0.1,9.1,0.2,13.6L68,1380.1z M543.9,1366l-4.5-0.1c0.1-4.5,0.2-9.1,0.3-13.6l4.5,0.1C544,1357,544,1361.5,543.9,1366z
			 M67.6,1353l-0.2-13.6l4.5-0.1l0.2,13.6L67.6,1353z M544.4,1338.9l-4.5-0.1l0.3-13.6l4.5,0.1L544.4,1338.9z M67.2,1325.8
			c-0.1-4.5-0.2-9.1-0.2-13.6l4.5-0.1c0.1,4.5,0.2,9.1,0.2,13.6L67.2,1325.8z M545,1311.7l-4.5-0.1l0.3-13.6l4.5,0.1L545,1311.7z
			 M66.6,1298.6c-0.1-4.5-0.2-9-0.4-13.6l4.5-0.1c0.1,4.5,0.2,9.1,0.4,13.6L66.6,1298.6z M545.6,1284.5l-4.5-0.1l0.3-13.6l4.5,0.1
			L545.6,1284.5z M65.9,1271.5c-0.1-4.5-0.2-9.1-0.3-13.6l4.5-0.1c0.1,4.5,0.2,9,0.3,13.6L65.9,1271.5z M546.2,1257.4l-4.5-0.1
			l0.3-13.6l4.5,0.1L546.2,1257.4z M65.4,1244.3c-0.1-4.5-0.1-9.1-0.2-13.6l4.5-0.1c0.1,4.5,0.1,9.1,0.2,13.6L65.4,1244.3z
			 M546.8,1230.2l-4.5-0.1c0.1-4.5,0.2-9.1,0.3-13.6l4.5,0.1C546.9,1221.1,546.9,1225.7,546.8,1230.2z M65.1,1217.1
			c0-4.5-0.1-9.1-0.1-13.6h4.5c0,4.5,0.1,9.1,0.1,13.6H65.1z M547.2,1203l-4.5-0.1c0.1-4.5,0.1-9,0.1-13.6h4.5
			C547.3,1194,547.3,1198.5,547.2,1203z M64.8,1189.9c0-4.5-0.1-9.1-0.1-13.6h4.5c0,4.5,0.1,9.1,0.1,13.6H64.8z M547.4,1175.8h-4.5
			v-13.6h4.5V1175.8z M64.5,1162.8c0-4.5-0.1-9.1-0.1-13.6h4.5c0,4.5,0.1,9.1,0.1,13.6H64.5z M547.5,1148.7H543
			c0-4.3,0.1-8.6,0.1-13v-0.6h4.5v0.7C547.6,1140,547.6,1144.3,547.5,1148.7z M64.4,1135.6V1122h4.5v13.6H64.4z M547.8,1121.5h-4.5
			c0-4.5,0.1-9.1,0.1-13.6h4.5C547.9,1112.4,547.8,1117,547.8,1121.5z M64.3,1108.4c0-4.5-0.1-9.1-0.1-13.6h4.5
			c0,4.5,0.1,9.1,0.1,13.6H64.3z M548,1094.3h-4.5l0.1-13.6l4.5,0.1L548,1094.3z M64,1081.3c-0.1-3.4-0.1-6.9-0.2-10.3l-0.1-3.3
			l4.5-0.1l0.1,3.2c0.1,3.5,0.1,7,0.2,10.4L64,1081.3z M546.1,1067.1l-2.2-0.1l0.2-13.5l4.5,0.1l-0.2,13.5H546.1z M63.5,1054.1
			c-0.1-4.5-0.1-9.1-0.2-13.6l4.5-0.1c0.1,4.5,0.1,9.1,0.2,13.6L63.5,1054.1z M548.7,1040l-4.5-0.1l0.2-13.6l4.5,0.1L548.7,1040z
			 M63.1,1026.9c-0.1-4.5-0.1-9.1-0.1-13.6h4.5c0,4.5,0.1,9.1,0.1,13.6H63.1z M549,1012.8l-4.5-0.1l0.1-13.6h4.5L549,1012.8z
			 M62.9,999.7c0-4.5-0.1-9.1-0.1-13.6h4.5c0,4.5,0.1,9.1,0.1,13.6H62.9z M549.3,985.6h-4.5c0-3.4,0-8,0-13.6h4.5
			C549.3,977.6,549.3,982.2,549.3,985.6z M62.7,972.6c0-4.5,0-9.1,0-13.6h4.5c0,4.5,0,9.1,0,13.6H62.7z M544.8,958.4v-13.6h4.5v13.6
			H544.8z M62.7,945.4V938v-6.2h4.5v6.2v7.4H62.7z M544.7,931.2v-13.6h4.5v13.6H544.7z M67.2,918.2h-4.5v-13.6h4.5V918.2z
			 M544.7,904v-13.6h4.5V904H544.7z M67.3,891h-4.5v-13.6h4.5V891z M544.6,876.8v-13.6h4.5v13.6H544.6z M67.3,863.9h-4.5v-13.6h4.5
			V863.9z M544.5,849.6l-0.1-13.6h4.5l0.1,13.6H544.5z M67.4,836.7h-4.5l0.1-13.6h4.5L67.4,836.7z M544.4,822.4l-0.1-13.6h4.5
			l0.1,13.6H544.4z M67.5,809.5H63l0.1-13.6h4.5L67.5,809.5z M544.3,795.2l-0.1-13.6h4.5l0.1,13.6H544.3z M67.6,782.4h-4.5l0.1-13.6
			h4.5L67.6,782.4z M544.1,768l-0.1-13.6h4.5l0.1,13.6H544.1z M67.8,755.2h-4.5l0.1-13.6h4.5L67.8,755.2z M543.9,740.7
			c0-4.7-0.1-9.3-0.1-13.6h4.5c0,4.3,0.1,8.9,0.1,13.6H543.9z M67.9,728h-4.5l0.1-13.6H68L67.9,728z M543.7,713.5
			c0-5-0.1-9.5-0.1-13.6l4.5-0.1c0,4.1,0.1,8.6,0.1,13.6L543.7,713.5z M68.1,700.8h-4.5l0.1-7.2c0-2.1,0-4.2,0-6.4h4.5
			c0,2.1,0,4.2,0,6.4L68.1,700.8z M543.5,697.5l-0.2-13.6l4.5-0.1l0.2,13.6L543.5,697.5z M68.3,673.7h-4.5c0-4.5,0.1-9.1,0.2-13.6
			l4.5,0.1C68.4,664.6,68.4,669.2,68.3,673.7z M543.2,670.4l-0.2-13.6l4.5-0.1l0.2,13.6L543.2,670.4z M68.7,646.5l-4.5-0.1
			c0.1-4.5,0.1-9.1,0.2-13.6l4.5,0.1C68.8,637.5,68.7,642,68.7,646.5z M542.9,643.2c-0.1-4.5-0.1-9.1-0.2-13.6l4.5-0.1
			c0.1,4.5,0.1,9.1,0.2,13.6L542.9,643.2z M69.1,619.4l-4.5-0.1c0.1-4.5,0.2-9.1,0.3-13.6l4.5,0.1C69.3,610.3,69.2,614.8,69.1,619.4
			z M542.5,616c-0.1-4.5-0.2-9.1-0.3-13.6l4.5-0.1c0.1,4.5,0.2,9.1,0.3,13.6L542.5,616z M69.7,592.2l-4.5-0.1
			c0.1-4.5,0.2-9.1,0.3-13.6l4.5,0.1C70,583.2,69.9,587.7,69.7,592.2z M541.9,588.9c-0.1-4.5-0.2-9.1-0.4-13.6l4.5-0.1
			c0.1,4.5,0.2,9.1,0.4,13.6L541.9,588.9z M70.4,565l-4.5-0.1c0.1-4.5,0.3-9.1,0.4-13.6l4.5,0.1C70.7,556,70.6,560.5,70.4,565z
			 M541.1,561.7c-0.1-4.5-0.3-9-0.4-13.6l4.5-0.1c0.1,4.5,0.3,9.1,0.4,13.6L541.1,561.7z M71.3,537.9l-4.5-0.1
			c0.2-4.5,0.3-9.1,0.5-13.6l4.5,0.2C71.6,528.9,71.4,533.4,71.3,537.9z M540.3,534.6c-0.2-4.5-0.3-9-0.5-13.6l4.5-0.2
			c0.2,4.5,0.3,9.1,0.5,13.6L540.3,534.6z M72.3,510.8l-4.5-0.2c0.2-4.5,0.4-9.1,0.6-13.6l4.5,0.2C72.7,501.7,72.5,506.2,72.3,510.8
			z M539.3,507.4c-0.2-4.5-0.4-9-0.6-13.6l4.5-0.2c0.2,4.5,0.4,9.1,0.6,13.6L539.3,507.4z M73.5,483.6l-4.5-0.2l0.7-13.6l4.5,0.2
			L73.5,483.6z M538,480.3c-0.2-4.5-0.5-9-0.7-13.5l4.5-0.4v0.2c0.2,4.5,0.5,9,0.7,13.5L538,480.3z M74.9,456.5l-4.5-0.2
			c0.2-4.5,0.5-9.1,0.7-13.6l4.5,0.3C75.4,447.5,75.1,452,74.9,456.5z M536.6,453.2c-0.2-4.5-0.5-9-0.8-13.6l4.5-0.3
			c0.3,4.5,0.5,9,0.8,13.6L536.6,453.2z M76.4,429.4l-4.5-0.3c0.3-4.5,0.6-9.1,0.9-13.6l4.5,0.3C77,420.4,76.7,424.9,76.4,429.4z
			 M535.1,426.1c-0.3-4.5-0.6-9-0.9-13.5l4.5-0.3c0.3,4.5,0.6,9,0.9,13.6L535.1,426.1z M78.3,402.3l-4.5-0.4
			c0.4-4.6,0.8-9.2,1.1-13.6l4.5,0.4C79.1,393.2,78.7,397.7,78.3,402.3z M533.2,399c-0.4-4.6-0.8-9.2-1.1-13.5l4.5-0.4
			c0.4,4.3,0.8,8.9,1.2,13.6L533.2,399z M80.8,375.3l-4.5-0.5l0.1-0.5c0.5-4.4,0.9-8.8,1.5-13l4.5,0.5c-0.5,4.2-1,8.6-1.4,13
			L80.8,375.3z M530.7,372c-0.1-1-0.2-2-0.3-3.1c-0.4-3.5-0.8-7-1.2-10.4l4.5-0.6c0.4,3.5,0.8,7,1.2,10.5c0.1,1,0.2,2.1,0.3,3.1
			L530.7,372z M84,348.4l-4.5-0.6c0.6-4.5,1.3-9.1,2-13.5L86,335C85.3,339.4,84.6,343.9,84,348.4z M527.4,345.1
			c-0.6-4.5-1.3-9-2.1-13.4l4.4-0.7c0.7,4.4,1.4,9,2.1,13.5L527.4,345.1z M88.2,321.7l-4.4-0.8c0.8-4.5,1.7-9,2.5-13.4l4.4,0.9
			C89.8,312.7,89,317.2,88.2,321.7z M523,318.4c-0.8-4.4-1.7-8.9-2.6-13.3l4.4-0.9c0.9,4.4,1.8,8.9,2.6,13.4L523,318.4z M93.5,295.1
			l-4.4-1c1-4.5,2.1-8.9,3.2-13.3l4.4,1.1C95.6,286.3,94.5,290.7,93.5,295.1z M517.4,291.9c-1-4.4-2.1-8.8-3.3-13.1l4.4-1.1
			c1.1,4.4,2.2,8.8,3.3,13.2L517.4,291.9z M100.2,268.9l-4.3-1.2c1.2-4.4,2.6-8.8,3.9-13.1l4.3,1.4
			C102.8,260.2,101.4,264.6,100.2,268.9z M510.6,265.7c-1.2-4.3-2.6-8.7-3.9-12.9l4.3-1.4c1.4,4.3,2.7,8.7,4,13.1L510.6,265.7z
			 M108.4,243.2l-4.2-1.5c1.5-4.3,3.1-8.6,4.7-12.8l4.2,1.6C111.4,234.6,109.8,238.9,108.4,243.2z M502.4,240
			c-1.5-4.3-3.1-8.5-4.7-12.6l4.2-1.7c1.6,4.2,3.3,8.5,4.8,12.8L502.4,240z M118.1,218l-4.1-1.8c0.5-1.1,1-2.3,1.5-3.4
			c1.3-3.1,2.7-6.1,4.1-9.1l4.1,1.9c-1.4,2.9-2.8,5.9-4.1,8.9C119.1,215.7,118.6,216.8,118.1,218z M492.4,214.9
			c-1.8-4.1-3.7-8.3-5.7-12.2l4-2c2,4,3.9,8.2,5.8,12.4L492.4,214.9z M129.7,193.6l-4-2.1c2.1-4,4.4-8.1,6.7-11.9l3.9,2.3
			C134,185.7,131.8,189.6,129.7,193.6z M480.5,190.7c-2.2-4-4.5-7.9-6.8-11.7l3.8-2.4c2.4,3.8,4.7,7.8,6.9,11.8L480.5,190.7z
			 M143.4,170.4l-3.7-2.5c2.5-3.8,5.2-7.6,7.9-11.2l3.6,2.7C148.5,163,145.9,166.7,143.4,170.4z M466.4,167.7
			c-2.5-3.7-5.2-7.4-7.9-10.9l3.6-2.7c2.7,3.6,5.4,7.3,8,11.1L466.4,167.7z M159.5,148.8L156,146c2.9-3.5,6-7,9-10.3l3.3,3.1
			C165.3,142,162.4,145.4,159.5,148.8z M450,146.3c-2.9-3.4-6-6.8-9-10l3.2-3.1c3.1,3.3,6.2,6.7,9.2,10.2L450,146.3z M177.8,129.2
			l-3.1-3.2c3.3-3.2,6.7-6.2,10.2-9.2l2.9,3.4C184.4,123,181,126.1,177.8,129.2z M431.4,126.9c-3.3-3-6.7-6-10.1-8.9l2.9-3.5
			c3.5,2.9,7,5.9,10.3,9L431.4,126.9z M198.2,111.7l-2.7-3.6c3.6-2.7,7.4-5.4,11.2-8l2.5,3.7C205.5,106.4,201.8,109,198.2,111.7z
			 M410.7,109.7c-3.9-2.9-7.4-5.4-11-7.8l2.5-3.7c3.6,2.4,7.3,5,11.2,7.9L410.7,109.7z M220.6,96.7l-2.3-3.9
			c1.9-1.1,3.8-2.2,5.7-3.3c2.1-1.2,4.2-2.3,6.4-3.3l1.9,4.1c-2.1,1-4.2,2-6.1,3.1C224.3,94.5,222.4,95.6,220.6,96.7z M388.3,95
			c-4-2.2-8-4.2-12-5.9l1.8-4.1c4.1,1.8,8.2,3.8,12.4,6.1L388.3,95z M244.7,85.4l-1.4-4.3c4.2-1.4,8.7-2.7,13.3-3.7l1,4.4
			C253.1,82.8,248.7,84,244.7,85.4z M363.8,84.4c-0.6-0.2-1.3-0.4-1.9-0.6c-3.6-1-7.3-1.9-11.1-2.7l0.9-4.4
			c3.9,0.8,7.7,1.8,11.3,2.8c0.7,0.2,1.3,0.4,2,0.6L363.8,84.4z M270.7,79.2l-0.7-4.4l1.3-0.2c4-0.6,8.1-1.2,12.2-1.7l0.6,4.5
			c-4,0.5-8.1,1.1-12.1,1.7L270.7,79.2z M337.6,78.7c-4.2-0.7-8.7-1.2-13.4-1.7l0.5-4.5c4.7,0.5,9.3,1.1,13.6,1.7L337.6,78.7z
			 M297.5,76.1l-0.3-4.5c0.8,0,1.5-0.1,2.3-0.1c0.5,0,1,0,1.4-0.1c0.7,0,1.5-0.1,2.2-0.1c1.2-0.2,2.2-0.1,3.3,0c0.4,0,0.8,0,1.2,0
			h3.3v4.5h-3.3c-0.5,0-1,0-1.5-0.1c-0.4,0-0.8,0-1.2,0c-0.5,0-0.9,0-1.3,0.1h-0.3H303c-0.6-0.1-1.2,0-1.8,0c-0.5,0-1.1,0.1-1.6,0.1
			C299,76,298.2,76,297.5,76.1z"/>
	</g>
</g>
</svg>
