<?xml version="1.0" encoding="utf-8"?>
<!-- Generator: Adobe Illustrator 26.3.1, SVG Export Plug-In . SVG Version: 6.00 Build 0)  -->
<svg version="1.1" id="Layer_1" xmlns="http://www.w3.org/2000/svg" xmlns:xlink="http://www.w3.org/1999/xlink" x="0px" y="0px"
	 viewBox="0 0 708 2290" style="enable-background:new 0 0 708 2290;" xml:space="preserve">
<style type="text/css">
	.st0{fill:#005EFF;}
	.st1{fill:#7900FF;}
	.st2{fill:#00FF00;}
	.st3{fill:#ED1E77;}
</style>
<g>
	<g>
		<g>
			<g>
				<g>
					<g>
						<path class="st0" d="M411.3,592c-5.7,0-10.2-4.5-10.2-10s4.6-10,10.2-10s10.2,4.5,10.2,10S416.9,592,411.3,592z M411.3,576.6
							c-3.2,0-5.8,2.4-5.8,5.5s2.6,5.5,5.8,5.5s5.8-2.4,5.8-5.5S414.4,576.6,411.3,576.6z"/>
					</g>
				</g>
				<g>
					<g>
						<path class="st0" d="M296.7,592c-5.7,0-10.2-4.5-10.2-10s4.6-10,10.2-10s10.2,4.5,10.2,10S302.3,592,296.7,592z M296.7,576.6
							c-3.2,0-5.8,2.4-5.8,5.5s2.6,5.5,5.8,5.5s5.8-2.4,5.8-5.5S299.8,576.6,296.7,576.6z"/>
					</g>
				</g>
				<g>
					<g>
						<path class="st0" d="M411.3,445.4c-5.7,0-10.2-4.5-10.2-10s4.6-9.9,10.2-9.9s10.2,4.5,10.2,9.9S416.9,445.4,411.3,445.4z
							 M411.3,430c-3.2,0-5.8,2.4-5.8,5.4s2.6,5.5,5.8,5.5s5.8-2.4,5.8-5.5C417,432.4,414.4,430,411.3,430z"/>
					</g>
				</g>
				<g>
					<g>
						<path class="st0" d="M296.7,445.4c-5.7,0-10.2-4.5-10.2-10s4.6-9.9,10.2-9.9s10.2,4.5,10.2,9.9S302.3,445.4,296.7,445.4z
							 M296.7,430c-3.2,0-5.8,2.4-5.8,5.4s2.6,5.5,5.8,5.5s5.8-2.4,5.8-5.5C302.4,432.4,299.8,430,296.7,430z"/>
					</g>
				</g>
			</g>
			<g>
				<g>
					<g>
						<path class="st0" d="M411.3,1802.2c-5.7,0-10.2-4.5-10.2-10s4.6-10,10.2-10s10.2,4.5,10.2,10S416.9,1802.2,411.3,1802.2z
							 M411.3,1786.8c-3.2,0-5.8,2.4-5.8,5.5s2.6,5.5,5.8,5.5s5.8-2.4,5.8-5.5S414.4,1786.8,411.3,1786.8z"/>
					</g>
				</g>
				<g>
					<g>
						<path class="st0" d="M296.7,1802.2c-5.7,0-10.2-4.5-10.2-10s4.6-10,10.2-10s10.2,4.5,10.2,10S302.3,1802.2,296.7,1802.2z
							 M296.7,1786.8c-3.2,0-5.8,2.4-5.8,5.5s2.6,5.5,5.8,5.5s5.8-2.4,5.8-5.5S299.8,1786.8,296.7,1786.8z"/>
					</g>
				</g>
				<g>
					<g>
						<path class="st0" d="M411.3,1655.6c-5.7,0-10.2-4.5-10.2-10s4.6-9.9,10.2-9.9s10.2,4.5,10.2,9.9S416.9,1655.6,411.3,1655.6z
							 M411.3,1640.2c-3.2,0-5.8,2.4-5.8,5.4s2.6,5.5,5.8,5.5s5.8-2.4,5.8-5.5S414.4,1640.2,411.3,1640.2z"/>
					</g>
				</g>
				<g>
					<g>
						<path class="st0" d="M296.7,1655.6c-5.7,0-10.2-4.5-10.2-10s4.6-9.9,10.2-9.9s10.2,4.5,10.2,9.9S302.3,1655.6,296.7,1655.6z
							 M296.7,1640.2c-3.2,0-5.8,2.4-5.8,5.4s2.6,5.5,5.8,5.5s5.8-2.4,5.8-5.5S299.8,1640.2,296.7,1640.2z"/>
					</g>
				</g>
			</g>
		</g>
		<g>
			<g>
				<path class="st1" d="M373.1,2290.3c-24.4,0-49.5-0.6-75.6-1.8c-33.7-1.5-73.3-4.7-112-16.7c-22.3-7-42.9-18.9-62.7-36.4
					c-23.8-21-39.7-48.8-48.8-85c-7.2-29.1-11-58.7-13.5-81.2c-5.3-49.4-6.2-99.8-7-148.6c-0.2-9.9-0.3-19.8-0.5-29.7
					c-0.9-46.6-1.6-93.9-2.3-139.7c-0.7-45.8-1.4-93.1-2.3-139.6c-0.6-32.4-2.5-65.5-4.3-97.4c-0.7-12.5-1.4-25.4-2.1-38.1
					c-0.4-7.6-0.8-15.1-1.2-22.7c-1.2-22.8-2.4-46.4-3.7-69.6c-2.3-41.7-4.9-84.9-7.5-128.3c-1.8-31-3.7-62.5-5.6-93l-0.3-5.3
					c-2.7-45.3-5.5-89.7-8.6-139c-2.5-40.5-4.5-78.4-5.9-115.8c-0.8-21.4-1.7-42.8-2.5-64.2c-1.6-42.1-3.3-85.6-5-128.4
					c-2-57.3-1.1-113.8,2.9-167.9c4.8-65.9,13.2-130.2,24.7-191c13.7-71.8,36-133.1,68.3-187.5c32.9-55.8,74.5-99,123.5-128.6
					C254.9,14.6,291.7,3,330.4,0.6c55.7-3.4,97.2,3.1,134.5,21.2c23.5,11.6,45,26.3,65.8,45.1C580,111.2,617.7,168,646,240.6
					c19.6,50.2,30.1,102.2,37.8,146.4c8.4,48.3,14.6,97.8,18.9,151.3c4.6,57.6,5.7,117.6,3.2,183.4c-1.5,41.5-2.8,83.5-3.9,124.9
					c-1.8,70.6-4.8,141.1-8.8,209.5c-1.8,30.9-3.3,62.3-4.8,92.7c-0.8,15.7-1.5,31.3-2.4,47c-0.9,17.8-1.9,35.9-2.8,53.4
					c-0.9,17.1-1.9,34.8-2.8,52.1l-0.3,5.1l-0.3-0.3c-1.1,24.7-2.2,49.4-3.3,74.1c-2.3,51.8-4.6,105.3-7,158
					c-2.8,61.4-3.1,123.9-3.3,184.4c0,10.6-0.1,21.1-0.2,31.7c-0.1,15.8-0.2,31.5-0.3,47.3c-0.3,65.1-0.7,132.3-2.3,198.5
					c-1.6,59.8-6.3,105.1-15.5,146.9c-2,9.3-4.6,19-8.2,29.5c-14,41.4-40.9,71-79.7,88c-29.7,13-62.3,20.8-96.7,23.1
					C434.1,2289.3,404.2,2290.3,373.1,2290.3z M357.5,4.2c-8.6,0-17.5,0.3-26.8,0.9c-38,2.4-74.1,13.7-107.3,33.7
					c-48.3,29.2-89.4,71.9-121.9,127c-32,54-54.1,114.8-67.7,186.1C22.2,412.5,13.9,476.6,9.1,542.3c-4,53.9-4.9,110.2-2.9,167.4
					c1.7,42.8,3.4,86.3,5,128.4c0.8,21.4,1.6,42.8,2.5,64.2c1.5,37.3,3.4,75.1,5.9,115.6c3.1,49.3,5.9,93.7,8.6,139l0.3,5.3
					c1.9,30.5,3.8,62,5.6,93c2.6,43.4,5.2,86.6,7.5,128.3c1.4,23.2,2.6,46.8,3.7,69.6c0.4,7.6,0.8,15.1,1.2,22.7
					c0.6,12.7,1.4,25.6,2.1,38.1c1.8,32,3.7,65,4.3,97.6c0.9,46.6,1.6,93.9,2.3,139.7c0.7,45.8,1.4,93.1,2.3,139.6
					c0.2,9.9,0.4,19.8,0.5,29.7c0.8,48.6,1.6,98.9,7,148.2c2.5,22.4,6.2,51.8,13.3,80.6c8.9,35.3,24.4,62.4,47.4,82.8
					c19.4,17.1,39.4,28.7,61.1,35.4c38.2,11.9,77.4,15,110.8,16.5c59.1,2.7,113.3,2.3,165.6-1.1c34-2.3,66-9.9,95.2-22.7
					c37.7-16.4,63.7-45.1,77.3-85.3c3.5-10.4,6.1-19.9,8-29c9-41.5,13.8-86.6,15.4-146.1c1.7-66.1,2-133.4,2.3-198.4
					c0.1-15.8,0.2-31.5,0.3-47.3c0.1-10.6,0.1-21.1,0.2-31.7c0.3-60.5,0.5-123.1,3.4-184.6c2.4-52.7,4.7-106.2,7-158
					c1.2-26.3,2.3-52.7,3.5-79l0.1-2.2h0.3c0.9-16.6,1.8-33.5,2.7-49.9c0.9-17.5,1.9-35.6,2.8-53.4c0.8-15.7,1.6-31.3,2.4-47
					c1.5-30.4,3.1-61.8,4.8-92.7c4-68.3,7-138.7,8.8-209.3c1.1-41.4,2.4-83.4,3.9-124.9c2.5-65.6,1.4-125.4-3.2-182.8
					c-4.3-53.3-10.5-102.7-18.9-150.9c-7.7-44-18.2-95.7-37.6-145.6c-28-71.9-65.3-128.1-114.1-171.9
					c-20.5-18.4-41.7-32.9-64.8-44.4C432.6,11.2,399.3,4.2,357.5,4.2z"/>
			</g>
		</g>
	</g>
	<g>
		<g>
			<path class="st2" d="M371.2,2256.8c-22.1,0-44.8-0.6-68.3-1.7c-30.8-1.5-67-4.7-101.5-16.3c-20.3-6.8-38.8-18.3-56.8-35.2
				c-21.4-20.2-35.8-47.1-44-82.2c-5.3-22.6-9-46.9-12.1-78.8c-5-49.1-5.7-99.2-6.4-147.7c-0.1-8.5-0.3-17-0.4-25.5
				c-0.9-48.2-1.6-97.3-2.3-144.7c-0.6-41.5-1.2-84.4-1.9-126.6c-0.6-31.8-2.3-64.1-3.9-95.3c-0.6-11.9-1.3-24.2-1.9-36.4
				c-1.4-29.9-2.9-60.3-4.4-89.7c-2.1-40.3-4.3-80.3-6.8-124.6l-5.4-95.5c-2.6-45-5.2-90-7.8-135.1c-2.3-39.4-4-76.2-5.3-112.4
				c-2.2-62.5-4.5-125.5-6.9-187.1c-2.1-54.4-1.3-109.2,2.5-162.9c4.4-63.8,12-126.2,22.5-185.5c12-69,32.1-128.5,61.6-181.7
				c30.4-54.9,67-95.7,111.9-124.6c30.7-19.7,64-30.9,99-33.2c50.4-3.4,88,3,121.9,20.6c21.2,11,40.7,25.2,59.6,43.6
				c44.8,43.1,79,98.1,104.6,168.4c17.7,48.6,27.2,99.1,34.3,142.2c7.6,46.8,13.2,94.9,17.1,146.9c4.2,55.6,5.2,113.8,2.9,178
				c-1.5,44.5-2.7,88.2-3.5,121.3c-1.7,69.9-4.4,138.3-8,203.4c-1.6,30.1-3,60.7-4.4,90.3c-0.7,15.2-1.4,30.3-2.2,45.4
				c-1.7,33.9-3.4,67.6-5.1,101.4v0.3l0.3,0.3l-0.4,0.8c-1.3,30.7-2.5,61.4-3.8,92.1c-1.8,45.1-3.7,91.8-5.7,137.7
				c-2.5,58.9-2.8,118.8-3,176.8c0,11.1-0.1,22.1-0.2,33.2c-0.1,18.4-0.2,36.7-0.3,55.1c-0.3,60.2-0.6,122.4-2,183.6
				c-1.3,56.5-5.8,101.8-14,142.6c-2.1,10.2-4.5,19.5-7.4,28.7c-12.7,40-36.9,68.6-72.1,85.1c-27,12.6-56.5,20.2-87.6,22.3
				C426.8,2255.9,399.5,2256.8,371.2,2256.8z M357.4,36.3c-7.9,0-16.1,0.3-24.7,0.9c-34.5,2.3-67.4,13.3-97.6,32.8
				c-44.5,28.7-80.8,69.1-110.9,123.6C95,246.4,75,305.5,63,374.2c-10.5,59.2-18,121.5-22.4,185.1c-3.8,53.6-4.6,108.3-2.5,162.5
				c2.4,61.6,4.7,124.6,6.9,187.1c1.3,36.3,3,73,5.3,112.4c2.6,45.1,5.2,90.1,7.8,135.1l5.4,95.5c2.5,44.3,4.7,84.3,6.8,124.6
				c1.5,29.4,3,59.8,4.4,89.7c0.6,12.1,1.2,24.4,1.9,36.3c1.7,31.3,3.4,63.6,3.9,95.4c0.7,42.2,1.4,85.1,1.9,126.6
				c0.7,47.4,1.4,96.5,2.3,144.7c0.1,8.5,0.3,17,0.4,25.5c0.7,48.4,1.5,98.5,6.4,147.5c3.1,31.7,6.8,55.9,12.1,78.4
				c8,34.5,22.2,60.9,43.2,80.8c17.6,16.6,35.8,27.9,55.6,34.6c34.1,11.5,68.5,14.5,100.7,16.1c53.7,2.6,102.8,2.2,150.3-1.1
				c30.8-2.2,59.9-9.6,86.6-22.1c34.4-16.1,58.1-44.1,70.5-83.3c2.9-9,5.3-18.3,7.4-28.4c8.2-40.6,12.7-85.7,14-142
				c1.5-61.2,1.7-123.4,2-183.6c0.1-18.4,0.2-36.7,0.3-55.1c0.1-11.1,0.1-22.1,0.2-33.2c0.3-58,0.5-117.9,3-176.9
				c2-45.9,3.9-92.5,5.7-137.7c1.2-30.6,2.5-61.3,3.8-91.9l0,0l0.1-1.6c1.7-33.8,3.4-67.5,5.1-101.4c0.7-15.1,1.5-30.3,2.2-45.4
				c1.4-29.6,2.8-60.2,4.4-90.3c3.6-65.1,6.2-133.5,8-203.4c0.8-33.1,2-76.8,3.5-121.3c2.3-64.1,1.3-122.2-2.9-177.6
				c-3.9-52-9.5-99.9-17.1-146.7c-7-42.9-16.5-93.3-34.1-141.6c-25.5-69.8-59.4-124.5-103.8-167.2c-18.7-18.1-38-32.2-59-43.1
				C425.4,43,395.3,36.3,357.4,36.3z"/>
		</g>
	</g>
	<g>
		<g>
			<path class="st3" d="M369.9,2225c-3.1,0-6.3,0-9.4,0v-3c4.5,0,9,0,13.6,0v3C372.7,2225,371.3,2225,369.9,2225z M387.7,2224.9
				l-0.1-3c4.5-0.1,9.1-0.2,13.6-0.3l0.1,3C396.8,2224.7,392.3,2224.8,387.7,2224.9z M346.9,2224.8c-4.5-0.1-9-0.2-13.6-0.4l0.1-3
				c4.6,0.1,9.1,0.3,13.6,0.4L346.9,2224.8z M414.9,2224.1l-0.1-3c4.5-0.2,9.1-0.4,13.5-0.7l0.2,3
				C424,2223.6,419.4,2223.9,414.9,2224.1z M319.7,2223.9c-4-0.2-8.1-0.4-12.1-0.6l-1.5-0.1l0.2-3l1.5,0.1c4,0.2,8.1,0.4,12.1,0.6
				L319.7,2223.9z M442.1,2222.5l-0.2-3l2.1-0.2c3.8-0.3,7.6-0.7,11.4-1.1l0.4,3c-3.8,0.5-7.7,0.9-11.5,1.1L442.1,2222.5z
				 M292.5,2222.4c-4.8-0.4-9.2-0.8-13.6-1.2l0.3-3c4.3,0.5,8.7,0.9,13.5,1.2L292.5,2222.4z M265.4,2219.5
				c-4.6-0.7-9.1-1.4-13.5-2.2l0.6-2.9c4.3,0.8,8.8,1.5,13.3,2.2L265.4,2219.5z M469.2,2219.1l-0.6-2.9c4.4-0.8,8.8-1.8,13.2-3
				l0.8,2.9C478.2,2217.2,473.7,2218.2,469.2,2219.1z M238.6,2214.4c-4.5-1.1-8.9-2.3-13.2-3.6l0.9-2.9c4.2,1.3,8.6,2.5,13,3.6
				L238.6,2214.4z M495.7,2212.2l-0.9-2.8c4.2-1.4,8.5-3,12.7-4.7l1.1,2.8C504.3,2209.2,500,2210.8,495.7,2212.2z M212.4,2206.4
				c-4.2-1.6-8.4-3.6-12.5-5.7l1.4-2.6c4,2.1,8.1,4,12.2,5.6L212.4,2206.4z M521,2201.9l-1.3-2.7c0.9-0.4,1.8-0.9,2.7-1.3
				c3.1-1.6,6.2-3.3,9.1-5.1l1.6,2.6c-3,1.8-6.1,3.6-9.3,5.2C522.8,2201,521.9,2201.5,521,2201.9z M188.2,2193.6
				c-3.7-2.5-7.4-5.3-11-8.2l1.9-2.3c3.5,2.9,7.1,5.6,10.8,8.1L188.2,2193.6z M544.4,2187.5l-1.9-2.4c3.5-2.7,6.9-5.7,10-8.9
				l2.1,2.1C551.4,2181.6,548,2184.7,544.4,2187.5z M167,2176.2c-1-0.9-1.9-1.9-2.9-2.9c-2.2-2.3-4.4-4.6-6.5-7.1l2.3-1.9
				c2,2.4,4.2,4.7,6.4,6.9c1,1,1.9,1.9,2.9,2.8L167,2176.2z M563.8,2168.2l-2.3-1.9c2.7-3.4,5.4-7.1,7.8-10.9l2.5,1.6
				C569.3,2160.9,566.6,2164.6,563.8,2168.2z M149.3,2155.3c-2.5-3.7-4.9-7.7-7.1-11.7l2.6-1.4c2.2,4,4.5,7.8,7,11.5L149.3,2155.3z
				 M578.5,2145l-2.7-1.3c2-3.9,3.8-8,5.5-12.3l2.8,1.1C582.4,2136.8,580.5,2141,578.5,2145z M136.1,2131.2c-1.8-4.1-3.4-8.4-5-12.8
				l2.8-1c1.5,4.3,3.1,8.5,4.9,12.5L136.1,2131.2z M588.6,2119.5l-2.9-0.9c0.2-0.5,0.3-1.1,0.5-1.6c1.1-3.7,2.1-7.6,3.1-11.4
				l2.9,0.7c-1,3.9-2,7.7-3.1,11.5C588.9,2118.4,588.8,2119,588.6,2119.5z M127.1,2105.4c-1.1-3.9-2-7.9-2.9-12l-0.3-1.3l2.9-0.6
				l0.3,1.3c0.9,4.1,1.9,8.1,2.9,11.9L127.1,2105.4z M595.2,2093l-2.9-0.6c0.2-1,0.4-2,0.6-3c0.6-3.4,1.2-6.9,1.8-10.3l3,0.5
				c-0.6,3.5-1.2,7-1.8,10.4C595.6,2091,595.5,2092,595.2,2093z M121.3,2078.7c-0.8-4.3-1.6-8.9-2.3-13.4l3-0.5
				c0.7,4.6,1.5,9.1,2.3,13.4L121.3,2078.7z M599.8,2066.2l-3-0.4c0.6-4.4,1.3-8.9,1.8-13.4l3,0.4
				C601.1,2057.2,600.5,2061.8,599.8,2066.2z M117,2051.8c-0.6-4.3-1.1-8.9-1.7-13.5l3-0.3c0.5,4.6,1.1,9.2,1.7,13.5L117,2051.8z
				 M603.2,2039.2l-3-0.3c0.5-4.4,0.9-9,1.3-13.5l3,0.3C604.2,2030.2,603.7,2034.7,603.2,2039.2z M113.9,2024.8
				c-0.3-2.6-0.5-5.3-0.8-7.9c-0.2-1.9-0.4-3.8-0.5-5.7l3-0.3c0.2,1.9,0.3,3.8,0.5,5.6c0.2,2.6,0.5,5.3,0.8,7.9L113.9,2024.8z
				 M605.7,2012.1l-3-0.2c0.3-4.4,0.6-8.9,0.9-13.5l3,0.2C606.3,2003.1,606,2007.7,605.7,2012.1z M111.6,1997.7
				c-0.3-4.4-0.6-9-0.9-13.6l3-0.2c0.3,4.6,0.6,9.1,0.9,13.5L111.6,1997.7z M607.3,1984.9l-3-0.1c0.2-4.4,0.4-9,0.6-13.6l3,0.1
				C607.7,1975.9,607.6,1980.4,607.3,1984.9z M109.9,1970.5c-0.2-4.4-0.4-9-0.6-13.6l3-0.1c0.2,4.5,0.4,9,0.6,13.6L109.9,1970.5z
				 M608.3,1957.7l-3-0.1c0.1-2,0.1-4.1,0.1-6.1l0.2-7.5l3,0.1l-0.2,7.5C608.4,1953.6,608.4,1955.7,608.3,1957.7z M108.8,1943.3
				c-0.1-4.5-0.3-9.1-0.4-13.6l3-0.1c0.1,4.5,0.2,9,0.4,13.6L108.8,1943.3z M608.9,1930.5l-3-0.1c0.1-4.5,0.2-9.1,0.2-13.6h3
				C609.1,1921.5,609,1926,608.9,1930.5z M108.1,1916.2c-0.1-4.5-0.2-9.1-0.3-13.6l3-0.1c0.1,4.5,0.2,9.1,0.3,13.6L108.1,1916.2z
				 M609.3,1903.4h-3c0.1-4.5,0.1-9.1,0.2-13.6h3C609.5,1894.3,609.4,1898.8,609.3,1903.4z M107.6,1889l-0.2-13.6h3l0.2,13.6H107.6z
				 M609.7,1876.2h-3c0-4.5,0.1-9.1,0.1-13.6h3C609.8,1867.1,609.7,1871.7,609.7,1876.2z M107.2,1861.8c-0.1-4.4-0.1-8.8-0.2-13.1
				v-0.4l3-0.1v0.5c0.1,4.4,0.1,8.8,0.2,13.1H107.2z M609.9,1849h-3c0-4.5,0.1-9.1,0.1-13.6h3C610,1839.9,609.9,1844.5,609.9,1849z
				 M106.7,1834.6c-0.1-4.5-0.1-9.1-0.2-13.6h3c0.1,4.5,0.1,9.1,0.2,13.6H106.7z M610.1,1821.8h-3l0.1-13.6h3L610.1,1821.8z
				 M106.3,1807.5l-0.2-13.6h3l0.2,13.6H106.3z M607.2,1794.6l0.1-13.6h3l-0.1,13.5L607.2,1794.6z M105.9,1780.3l-0.2-13.6h3
				l0.2,13.6H105.9z M610.4,1767.5h-3l0.1-13.6h3L610.4,1767.5z M105.5,1753.1l-0.2-13.6h3l0.2,13.6H105.5z M610.5,1740.3h-3
				l0.1-13.6h3L610.5,1740.3z M105.2,1726l-0.2-13.6h3l0.2,13.6H105.2z M610.6,1713.1h-3l0.1-13.6h3L610.6,1713.1z M104.8,1698.8
				l-0.2-13.6h3l0.2,13.6H104.8z M610.7,1686h-3l0.1-13.6h3L610.7,1686z M104.5,1671.6l-0.2-13.6h3l0.2,13.6H104.5z M610.9,1658.8
				h-3c0-4.5,0-9.1,0.1-13.6h3C610.9,1649.7,610.9,1654.3,610.9,1658.8z M104.1,1644.4l-0.2-13.6h3l0.2,13.6H104.1z M611,1631.6h-3
				c0-4.5,0.1-9.1,0.1-13.6h3C611.1,1622.6,611.1,1627.1,611,1631.6z M103.7,1617.3l-0.2-13.6h3l0.2,13.6H103.7z M611.3,1604.5h-3
				c0.1-4.5,0.1-9.1,0.2-13.6h3C611.4,1595.4,611.4,1599.9,611.3,1604.5z M103.3,1590.1l-0.1-4.9c0-2.9-0.1-5.8-0.2-8.6l3-0.1
				c0.1,2.9,0.1,5.8,0.2,8.7l0.1,4.9H103.3z M611.7,1577.3l-3-0.1c0.1-4.5,0.2-9.1,0.3-13.6l3,0.1
				C611.9,1568.2,611.8,1572.8,611.7,1577.3z M102.6,1563c-0.1-4.5-0.3-9-0.5-13.6l3-0.1c0.2,4.5,0.3,9.1,0.5,13.6L102.6,1563z
				 M612.3,1550.1l-3-0.1c0.1-4.5,0.3-9.1,0.4-13.6l3,0.1C612.6,1541.1,612.5,1545.6,612.3,1550.1z M101.7,1535.8
				c-0.2-4.5-0.4-9-0.6-13.6l3-0.1c0.2,4.5,0.4,9.1,0.6,13.6L101.7,1535.8z M613.2,1523l-3-0.1c0.1-2.4,0.2-4.8,0.3-7.2l0.2-6.4
				l3,0.1l-0.2,6.4C613.4,1518.2,613.3,1520.6,613.2,1523z M100.4,1508.7c-0.2-4.5-0.4-9-0.7-13.6l3-0.2c0.2,4.5,0.5,9,0.7,13.6
				L100.4,1508.7z M614.2,1495.8l-3-0.1l0.5-13.6l3,0.1L614.2,1495.8z M99.1,1481.6c-0.2-4.5-0.5-9-0.7-13.6l3-0.1
				c0.2,4.5,0.4,9,0.7,13.6L99.1,1481.6z M615.3,1468.7l-3-0.1l0.5-13.6l3,0.1L615.3,1468.7z M97.7,1454.4l-0.6-13.6l3-0.1l0.6,13.6
				L97.7,1454.4z M616.3,1441.5l-3-0.1l0.5-13.6l3,0.1L616.3,1441.5z M96.5,1427.3l-0.6-13.6l3-0.1l0.6,13.6L96.5,1427.3z
				 M617.4,1414.4l-3-0.1l0.5-13.6l3,0.1L617.4,1414.4z M95.3,1400.1c-0.2-4.5-0.4-9-0.6-13.6l3-0.1c0.2,4.5,0.4,9,0.6,13.6
				L95.3,1400.1z M618.4,1387.2l-3-0.1l0.5-13.6l3,0.1L618.4,1387.2z M94,1373l-0.7-13.6l3-0.2l0.7,13.6L94,1373z M619.4,1360.1
				l-3-0.1l0.5-13.6l3,0.1L619.4,1360.1z M92.7,1345.8l-0.7-13.6l3-0.2l0.7,13.6L92.7,1345.8z M620.5,1332.9l-3-0.1l0.5-13.6l3,0.1
				L620.5,1332.9z M91.3,1318.7l-0.7-13.6l3-0.2l0.7,13.6L91.3,1318.7z M621.5,1305.8l-3-0.1l0.5-13.6l3,0.1L621.5,1305.8z
				 M89.9,1291.6l-0.7-13.6l3-0.2l0.7,13.6L89.9,1291.6z M622.7,1282.3l-3-0.1l0.6-13.6l3,0.1L622.7,1282.3z M88.5,1264.4l-0.7-13.6
				l3-0.2l0.7,13.6L88.5,1264.4z M624,1255.2l-3-0.1l0.6-13.6l3,0.1L624,1255.2z M87.1,1237.3l-0.7-13.6l3-0.2l0.7,13.6L87.1,1237.3
				z M625.2,1228l-3-0.1l0.6-13.6l3,0.1L625.2,1228z M85.6,1210.2l-0.7-13.6l3-0.2l0.7,13.6L85.6,1210.2z M626.5,1200.9l-3-0.1
				l0.6-13.6l3,0.1L626.5,1200.9z M84.2,1183c-0.2-4.5-0.5-9-0.7-13.6l3-0.2c0.2,4.5,0.5,9,0.7,13.6L84.2,1183z M627.7,1173.7
				l-3-0.1l0.6-13.6l3,0.1L627.7,1173.7z M82.7,1155.9l-0.7-13.6l3-0.2l0.7,13.6L82.7,1155.9z M628.8,1146.6l-3-0.1l0.6-13.6l3,0.1
				L628.8,1146.6z M81.3,1128.8l-0.7-13.6l3-0.2l0.7,13.6L81.3,1128.8z M630,1119.4l-3-0.1l0.6-13.6l3,0.1L630,1119.4z M79.8,1101.6
				l-0.7-13.6l3-0.2l0.7,13.6L79.8,1101.6z M631.3,1092.3l-3-0.1c0.2-4.5,0.4-9.1,0.6-13.6l3,0.1
				C631.7,1083.2,631.5,1087.8,631.3,1092.3z M78.4,1074.5l-0.7-13.6l3-0.2l0.7,13.6L78.4,1074.5z M632.6,1065.2l-3-0.1l0.2-4.3
				c0.2-3.1,0.3-6.2,0.5-9.2l3,0.1c-0.2,3.1-0.3,6.2-0.5,9.2L632.6,1065.2z M76.9,1047.4l-0.7-13.6l3-0.2l0.7,13.6L76.9,1047.4z
				 M633.9,1038l-3-0.1c0.2-4.5,0.4-9,0.6-13.6l3,0.1C634.3,1029,634.1,1033.5,633.9,1038z M75.4,1020.2c-0.2-4.5-0.5-9-0.7-13.6
				l3-0.2c0.2,4.5,0.5,9,0.7,13.6L75.4,1020.2z M635.1,1010.9l-3-0.1c0.2-4.5,0.4-9,0.6-13.6l3,0.1
				C635.5,1001.8,635.3,1006.3,635.1,1010.9z M74,993.1c-0.2-4.5-0.4-9.1-0.6-13.6l3-0.1c0.2,4.5,0.4,9,0.6,13.6L74,993.1z
				 M636.2,983.7l-3-0.1c0.2-4.5,0.4-9,0.5-13.6l3,0.1C636.6,974.6,636.4,979.2,636.2,983.7z M72.8,965.9c-0.2-4.5-0.4-9.1-0.6-13.6
				l3-0.1c0.2,4.5,0.4,9,0.6,13.6L72.8,965.9z M637.2,956.5l-3-0.1c0.2-4.5,0.3-9.1,0.5-13.6l3,0.1
				C637.6,947.5,637.4,952,637.2,956.5z M71.7,938.8c-0.2-4.5-0.3-9.1-0.5-13.6l3-0.1c0.2,4.5,0.3,9,0.5,13.6L71.7,938.8z
				 M638.2,929.4l-3-0.1c0.1-4.5,0.3-9.1,0.4-13.6l3,0.1C638.4,920.3,638.3,924.8,638.2,929.4z M70.7,911.6L70.3,898l3-0.1l0.5,13.6
				L70.7,911.6z M639,902.2l-3-0.1c0.1-4.5,0.2-9.1,0.4-13.6l3,0.1C639.2,893.2,639.1,897.7,639,902.2z M69.8,884.5l-0.5-13.6l3-0.1
				l0.5,13.6L69.8,884.5z M639.7,875l-3-0.1c0.1-4,0.2-7.9,0.3-11.9v-1.7l3,0.1v1.7C639.9,867.1,639.8,871.1,639.7,875z M68.9,857.3
				l-0.5-13.6l3-0.1l0.5,13.6L68.9,857.3z M640.3,847.9l-3-0.1l0.3-13.6l3,0.1L640.3,847.9z M68,830.1l-0.5-13.6l3-0.1L71,830
				L68,830.1z M641,820.7l-3-0.1c0.1-4.5,0.2-9.1,0.4-13.6l3,0.1C641.2,811.7,641.1,816.2,641,820.7z M67,803l-0.5-13.6l3-0.1
				l0.5,13.6L67,803z M641.7,793.6l-3-0.1c0.1-4.5,0.3-9.1,0.4-13.6l3,0.1C642,784.5,641.8,789,641.7,793.6z M66.1,775.8l-0.5-13.6
				l3-0.1l0.5,13.6L66.1,775.8z M642.5,766.4l-3-0.1c0.1-4.5,0.3-9.1,0.4-13.6l3,0.1C642.8,757.3,642.6,761.9,642.5,766.4z
				 M65.2,748.7l-0.5-13.6l3-0.1l0.5,13.6L65.2,748.7z M643.4,739.2l-3-0.1c0.1-4.5,0.2-9,0.3-13.6l3,0.1
				C643.6,730.2,643.5,734.7,643.4,739.2z M64.3,721.5c-0.1-4.5-0.2-9.1-0.3-13.6l3-0.1c0.1,4.5,0.2,9,0.3,13.6L64.3,721.5z
				 M644,712h-3c0.1-4.5,0.1-9,0.2-13.6h3C644.1,703,644,707.5,644,712z M63.7,694.3c0-4.5-0.1-9.1-0.1-13.6h3c0,4.5,0,9,0.1,13.6
				H63.7z M644.2,684.9h-3v-2.4c0-3.7,0-7.5,0-11.2h3c0,3.7,0,7.5,0,11.2V684.9z M66.7,667.1h-3c0-4.5,0.1-9.1,0.1-13.6h3
				C66.8,658.1,66.7,662.6,66.7,667.1z M641,657.7c-0.1-4.5-0.1-9-0.2-13.6l3-0.1c0.1,4.5,0.2,9.1,0.2,13.6L641,657.7z M67.1,640
				l-3-0.1c0.1-4.5,0.2-9.1,0.4-13.6l3,0.1C67.3,630.9,67.2,635.5,67.1,640z M640.4,630.6c-0.1-4.5-0.3-9-0.5-13.6l3-0.1
				c0.2,4.5,0.3,9.1,0.5,13.6L640.4,630.6z M68,612.9l-3-0.1c0.2-4.5,0.4-9.1,0.6-13.6l3,0.1C68.4,603.8,68.2,608.3,68,612.9z
				 M639.3,603.4c-0.2-4.5-0.5-9-0.7-13.6l3-0.2c0.3,4.5,0.5,9.1,0.7,13.6L639.3,603.4z M69.3,585.7l-3-0.2c0.2-3.1,0.4-6.3,0.6-9.4
				l0.3-4.2l3,0.2l-0.3,4.1C69.7,579.5,69.5,582.6,69.3,585.7z M637.7,576.3l-0.3-3.6c-0.2-3.3-0.5-6.6-0.7-9.9l3-0.2
				c0.3,3.3,0.5,6.6,0.7,10l0.3,3.6L637.7,576.3z M71.1,558.7l-3-0.2c0.3-4.5,0.7-9,1-13.6l3,0.2C71.8,549.6,71.4,554.1,71.1,558.7z
				 M635.7,549.3c-0.4-4.5-0.8-9-1.2-13.5l3-0.3c0.4,4.5,0.8,9,1.2,13.5L635.7,549.3z M73.3,531.6l-3-0.3c0.4-4.5,0.8-9,1.2-13.5
				l3,0.3C74.1,522.6,73.7,527.1,73.3,531.6z M633.3,522.2c-0.4-4.5-0.9-9-1.3-13.5l3-0.3c0.5,4.5,0.9,9,1.3,13.5L633.3,522.2z
				 M75.8,504.6l-3-0.3c0.5-4.5,0.9-9,1.4-13.5l3,0.3C76.8,495.6,76.3,500.1,75.8,504.6z M630.5,495.2c-0.5-4.5-1-9-1.5-13.5l3-0.4
				c0.5,4.5,1.1,9,1.6,13.5L630.5,495.2z M78.8,477.6l-3-0.3c0.5-4.5,1.1-9,1.6-13.5l3,0.4C79.9,468.6,79.3,473.1,78.8,477.6z
				 M627.3,468.3c-0.6-4.5-1.2-9-1.8-13.5l3-0.4c0.6,4.5,1.2,9,1.8,13.5L627.3,468.3z M82.2,450.6l-3-0.4c0.6-4.5,1.2-9,1.8-13.5
				l3,0.4C83.4,441.7,82.8,446.1,82.2,450.6z M623.6,441.4c-0.5-3.7-1.1-7.3-1.6-11l-0.4-2.4l3-0.5l0.4,2.4c0.6,3.7,1.1,7.3,1.6,11
				L623.6,441.4z M86,423.7l-3-0.4c0.7-4.5,1.4-9,2.1-13.4l3,0.5C87.3,414.8,86.6,419.3,86,423.7z M619.5,414.5
				c-0.7-4.6-1.5-9.1-2.2-13.4l3-0.5c0.7,4.3,1.5,8.8,2.2,13.4L619.5,414.5z M90.2,396.9l-3-0.5l0.1-0.3c0.7-4.4,1.5-8.8,2.3-13.1
				l3,0.5c-0.8,4.3-1.6,8.7-2.3,13L90.2,396.9z M614.9,387.8c-0.8-4.5-1.7-9-2.5-13.3l2.9-0.6c0.9,4.3,1.7,8.8,2.6,13.4L614.9,387.8
				z M95.1,370.3l-2.9-0.6c0.9-4.5,1.9-8.9,2.8-13.3l2.9,0.7C96.9,361.3,96,365.8,95.1,370.3z M609.6,361.2c-1-4.5-2-8.9-3-13.2
				l2.9-0.7c1,4.3,2,8.8,3,13.3L609.6,361.2z M101,343.8l-2.9-0.7c1.1-4.4,2.2-8.9,3.4-13.2l2.9,0.8
				C103.2,335,102.1,339.4,101,343.8z M603.5,334.8c-1.1-4.4-2.3-8.8-3.5-13.1l2.9-0.8c1.2,4.3,2.4,8.7,3.5,13.2L603.5,334.8z
				 M107.9,317.6l-2.9-0.8c1.3-4.4,2.6-8.8,3.9-13l2.9,0.9C110.5,308.9,109.2,313.2,107.9,317.6z M596.2,308.7
				c-1.3-4.3-2.7-8.7-4.1-12.9l2.8-1c1.4,4.2,2.8,8.6,4.1,13L596.2,308.7z M116.1,291.7l-2.8-1c1.5-4.3,3-8.6,4.5-12.8l2.8,1
				C119,283.1,117.5,287.4,116.1,291.7z M587.6,283c-1.5-4.3-3.1-8.5-4.7-12.7l2.8-1.1c1.6,4.2,3.2,8.5,4.7,12.8L587.6,283z
				 M125.4,266.3l-2.8-1.1c1.7-4.2,3.4-8.5,5.2-12.6l2.8,1.2C128.8,257.8,127.1,262.1,125.4,266.3z M577.9,257.7
				c-1.7-4.2-3.5-8.4-5.3-12.4l2.7-1.2c1.8,4.1,3.6,8.3,5.4,12.5L577.9,257.7z M136,241.4l-2.7-1.2c1.9-4.1,3.9-8.3,5.8-12.3
				l2.7,1.3C139.9,233.1,137.9,237.3,136,241.4z M566.8,233c-2-4.1-4-8.2-6-12.1l2.7-1.4c2,4,4.1,8.1,6.1,12.2L566.8,233z M148,217
				l-2.7-1.4c2.1-4,4.3-8.1,6.6-12l2.6,1.5C152.3,209,150.1,213,148,217z M554.5,208.9c-2.2-4-4.5-7.9-6.7-11.7l2.6-1.5
				c2.3,3.9,4.6,7.8,6.8,11.8L554.5,208.9z M161.4,193.5l-2.6-1.6c2.4-3.9,4.9-7.8,7.3-11.5l2.5,1.7
				C166.2,185.8,163.8,189.6,161.4,193.5z M540.6,185.7c-2.4-3.8-5-7.6-7.5-11.2l2.5-1.7c2.6,3.7,5.1,7.5,7.6,11.3L540.6,185.7z
				 M176.3,170.9l-2.4-1.8c2.7-3.7,5.4-7.4,8.2-10.9l2.4,1.8C181.7,163.6,179,167.2,176.3,170.9z M525.2,163.4
				c-2.7-3.6-5.5-7.2-8.3-10.7l2.3-1.9c2.8,3.5,5.7,7.1,8.4,10.8L525.2,163.4z M193,149.6l-2.3-1.9c3-3.5,6-6.9,9.1-10.2l2.2,2
				C199,142.8,195.9,146.2,193,149.6z M508.1,142.4c-3-3.4-6-6.7-9.1-10l2.2-2.1c3.1,3.3,6.2,6.7,9.2,10.1L508.1,142.4z
				 M211.4,129.8l-2.1-2.1c3.3-3.2,6.6-6.3,10-9.3l2,2.2C218,123.6,214.7,126.7,211.4,129.8z M489.4,122.9c-3.3-3.1-6.7-6.2-10-9.1
				l2-2.3c3.4,2.9,6.8,6,10.1,9.2L489.4,122.9z M231.6,111.9l-1.9-2.3c3.6-2.8,7.2-5.6,10.9-8.3l1.8,2.4
				C238.8,106.3,235.2,109.1,231.6,111.9z M468.9,105.3c-3.6-2.7-7.3-5.4-11-7.9l1.7-2.5c3.7,2.5,7.5,5.2,11.1,8L468.9,105.3z
				 M253.6,96.2l-1.6-2.5c3.9-2.5,7.9-4.8,11.8-6.9l1.4,2.6C261.3,91.4,257.4,93.7,253.6,96.2z M446.5,90.3c-1-0.6-1.9-1.1-2.9-1.7
				c-2.9-1.6-6-3.2-9-4.6l1.3-2.7c3.1,1.5,6.2,3,9.2,4.7c1,0.6,2,1.1,3,1.7L446.5,90.3z M277.3,83.4l-1.2-2.7
				c4.2-1.9,8.5-3.6,12.7-5.1l1,2.8C285.6,79.9,281.4,81.6,277.3,83.4z M422.3,78.8c-4.2-1.5-8.5-2.9-12.8-4.1l0.8-2.9
				c4.4,1.2,8.8,2.6,13,4.2L422.3,78.8z M302.7,74.4l-0.8-2.9c4.4-1.2,8.9-2.2,13.4-3l0.5,3C311.4,72.3,307,73.3,302.7,74.4z
				 M396.3,71.7c-4.3-0.8-8.8-1.5-13.3-2l0.3-3c4.6,0.5,9.1,1.2,13.5,2.1L396.3,71.7z M329.1,69.5l-0.3-3c1.9-0.2,3.9-0.4,5.8-0.5
				c2.7-0.2,5.3-0.4,7.9-0.5l0.1,3c-2.5,0.1-5.1,0.3-7.8,0.5C332.9,69.2,331,69.3,329.1,69.5z M369.6,68.5c-4-0.2-8.2-0.3-12.5-0.3
				h-1v-3h1c4.3,0,8.6,0.1,12.6,0.3L369.6,68.5z"/>
		</g>
	</g>
</g>
</svg>
