<?xml version="1.0" encoding="utf-8"?>
<!-- Generator: Adobe Illustrator 26.3.1, SVG Export Plug-In . SVG Version: 6.00 Build 0)  -->
<svg version="1.1" id="Layer_1" xmlns="http://www.w3.org/2000/svg" xmlns:xlink="http://www.w3.org/1999/xlink" x="0px" y="0px"
	 viewBox="0 0 525.9 2058" style="enable-background:new 0 0 525.9 2058;" xml:space="preserve">
<style type="text/css">
	.st0{fill:#005EFF;}
	.st1{fill:#7900FF;}
	.st2{fill:#38E841;}
	.st3{fill:#ED1E77;}
</style>
<g>
	<g>
		<g>
			<g>
				<g>
					<path class="st0" d="M210.8,416c-5.6,0-8.6-4.4-8.6-8.7c0-2.2,0.8-4.4,2.1-6c1.6-1.8,3.9-2.8,6.5-2.8c5.6,0,8.5,4.4,8.5,8.8
						c0,2.2-0.8,4.4-2.1,5.9C215.6,415,213.4,416,210.8,416z M210.8,403c-1.3,0-2.3,0.4-3,1.3c-0.7,0.8-1,1.9-1,3
						c0,1.9,1.1,4.2,4.1,4.2c1.3,0,2.3-0.4,3-1.2c0.7-0.8,1-1.9,1-3C214.8,405.2,213.8,403,210.8,403z"/>
				</g>
				<g>
					<path class="st0" d="M315.1,416c-5.6,0-8.6-4.4-8.6-8.7c0-2.2,0.8-4.4,2.1-6c1.6-1.8,3.9-2.8,6.5-2.8c5.7,0,8.6,4.4,8.6,8.8
						c0,2.2-0.8,4.4-2.1,5.9C320,415,317.7,416,315.1,416z M315.1,403c-1.3,0-2.3,0.4-3,1.3c-0.7,0.8-1,1.9-1,3
						c0,1.9,1.1,4.2,4.1,4.2c1.3,0,2.4-0.4,3.1-1.3c0.7-0.8,1-1.8,1-3C319.2,405.2,318.1,403,315.1,403z"/>
				</g>
				<g>
					<path class="st0" d="M210.8,551.5c-5.7,0-8.6-4.4-8.6-8.7c0-2.2,0.8-4.4,2.1-6c1.6-1.8,3.9-2.8,6.5-2.8c5.6,0,8.5,4.4,8.5,8.7
						C219.4,547,216.4,551.5,210.8,551.5z M210.8,538.5c-1.3,0-2.3,0.4-3,1.3c-0.7,0.8-1,1.9-1,3c0,1.9,1.1,4.2,4.1,4.2
						c3.2,0,4.1-2.7,4-4.3C214.8,540.8,213.8,538.5,210.8,538.5z"/>
				</g>
				<g>
					<path class="st0" d="M315.1,551.5c-5.7,0-8.6-4.4-8.6-8.7c0-2.2,0.8-4.4,2.1-6c1.6-1.8,3.9-2.8,6.5-2.8c5.6,0,8.6,4.4,8.6,8.7
						C323.7,547.1,320.8,551.5,315.1,551.5z M315.1,538.5c-1.3,0-2.3,0.4-3,1.3c-0.7,0.8-1,1.9-1,3c0,1.9,1.1,4.2,4.1,4.2
						c3.3,0,4.1-2.7,4.1-4.3C319.2,540.8,318.1,538.5,315.1,538.5z"/>
				</g>
			</g>
		</g>
		<g>
			<g>
				<g>
					<path class="st0" d="M210.8,1524c-5.7,0-8.6-4.4-8.6-8.7c0-2.2,0.8-4.4,2.1-6c1.6-1.8,3.9-2.8,6.5-2.8c5.6,0,8.5,4.4,8.5,8.7
						C219.4,1519.5,216.4,1524,210.8,1524z M210.8,1511c-1.3,0-2.3,0.4-3,1.3c-0.7,0.8-1,1.9-1,3c0,1.9,1.1,4.2,4.1,4.2
						c3.2,0,4.1-2.7,4-4.3C214.8,1513.3,213.8,1511,210.8,1511z"/>
				</g>
				<g>
					<path class="st0" d="M315.1,1524c-5.7,0-8.6-4.4-8.6-8.7c0-2.2,0.8-4.4,2.1-6c1.6-1.8,3.9-2.8,6.5-2.8c5.6,0,8.6,4.4,8.6,8.7
						C323.7,1519.6,320.8,1524,315.1,1524z M315.1,1511c-1.3,0-2.3,0.4-3,1.3c-0.7,0.8-1,1.9-1,3c0,1.9,1.1,4.2,4.1,4.2
						c3.3,0,4.1-2.7,4.1-4.3C319.2,1513.3,318.1,1511,315.1,1511z"/>
				</g>
				<g>
					<path class="st0" d="M210.8,1659.5c-5.6,0-8.6-4.4-8.6-8.7c0-2.2,0.8-4.4,2.1-6c1.6-1.8,3.9-2.8,6.5-2.8c5.6,0,8.5,4.4,8.5,8.8
						c0,2.2-0.8,4.4-2.1,5.9C215.6,1658.6,213.4,1659.5,210.8,1659.5z M210.8,1646.5c-1.3,0-2.3,0.4-3,1.3c-0.7,0.8-1,1.9-1,3
						c0,1.9,1.1,4.2,4.1,4.2c1.3,0,2.3-0.4,3-1.2c0.7-0.8,1-1.9,1-3C214.8,1648.8,213.8,1646.5,210.8,1646.5z"/>
				</g>
				<g>
					<path class="st0" d="M315.1,1659.5c-5.6,0-8.6-4.4-8.6-8.7c0-2.2,0.8-4.4,2.1-6c1.6-1.8,3.9-2.8,6.5-2.8c5.7,0,8.6,4.4,8.6,8.8
						c0,2.2-0.8,4.4-2.1,5.9C320,1658.6,317.7,1659.5,315.1,1659.5z M315.1,1646.5c-1.3,0-2.3,0.4-3,1.3c-0.7,0.8-1,1.9-1,3
						c0,1.9,1.1,4.2,4.1,4.2c1.3,0,2.4-0.4,3.1-1.3c0.7-0.8,1-1.8,1-3C319.2,1648.8,318.1,1646.5,315.1,1646.5z"/>
				</g>
			</g>
		</g>
	</g>
</g>
<g>
	<g>
		<path class="st1" d="M250.9,2057.4l-25.8-0.3c-0.5,0-1.2,0-1.9-0.1c-3.4-0.6-7-0.7-10.7-0.8c-1.4,0-2.7-0.1-4.1-0.1
			c-1.9-0.1-3.8-0.3-5.6-0.5h-0.1c-0.2,0-0.4-0.1-0.7-0.1c-0.3-0.1-0.7-0.1-0.9-0.1c-3,0.1-6.1-0.3-9.1-0.7
			c-2.3-0.3-4.4-0.5-6.6-0.6c-1.5-0.1-2.8-0.3-4.1-0.5c-0.4-0.1-0.9-0.1-1.3-0.2c-0.4-0.1-0.7-0.1-1.1-0.2
			c-10.1-0.8-20-2.6-29.2-4.4c-14.7-3.1-27.1-7.3-37.8-12.7c-9.2-4.6-17.3-10.2-24.1-16.6c-1.8-1.7-3.6-3.4-5.4-5
			c-4.5-4.1-9.1-8.4-13.5-12.9c-13.3-13.7-19.7-21.4-28.9-42.1c-3.8-8.4-7-17.1-9.7-25.9c-3.4-10.7-6.2-22.2-8.6-34.1
			c-1.3-6.4-2.4-13.3-3.7-21.6c-0.4-2.6-0.7-5.3-1-7.9c-0.1-0.9-0.2-1.8-0.3-2.8l-1.5-11.6c0-0.3-0.1-0.6-0.1-0.9
			c-0.1-0.3-0.1-0.7-0.2-1v-0.1c-0.5-5.8-1.2-11.8-1.9-17.6c-0.4-2.9-0.6-5.8-0.8-8.5c-0.2-2-0.3-4.2-0.5-6.2
			c-0.1-0.6-0.1-1.3-0.2-1.8c-0.1-0.6-0.1-1.1-0.2-1.7v-0.4c-0.2-1.8-0.4-3.4-0.5-5.2l-0.6-6.7c0,0,0-0.1,0-0.2
			c0-0.2-0.1-0.5-0.1-0.7l-1.1-17c-0.2-3-0.4-5.7-0.7-8.5l-0.3-4.3c-0.1-3.6-0.2-7.3-0.8-10.7c-0.2-1.5-0.2-3-0.2-4.5
			c-0.1-4.2-0.2-8.6-0.8-12.9c-0.2-1.4-0.2-2.9-0.2-4.4c-0.1-1.3-0.1-2.8-0.1-4.2c-0.1-3.7-0.2-7.5-0.7-11.2
			c-0.1-0.8-0.1-1.7-0.1-2.3c0-2.6,0-5.3-0.1-7.9c-0.1-3.8-0.2-7.6,0-11.5c0-4.9-2.8-262.1-2.9-266.9c0-64.9-1.2-784.9-1.3-811.4
			c0-1.1-0.1-6.1-0.2-11.4c-0.3-7.5-0.5-16-0.5-18.5c0-13.7,0-27.8-0.1-41.7c0-5.7,0-11.5,0-17.3c0-5.9-0.1-11.8-0.1-17.7
			c0-19.6,0.1-39.4,0.2-58.5c0-3.3,0.6-24.3,0.7-26.9l0.3-83.3c0-1.3,0.3-6.5,0.5-10.7c0.1-2,0.2-3.8,0.3-4.5c0-1,0-2,0-3.1
			c0.1-4.7,0.1-9.6,0.8-14.4c0.2-1.1,1-13.8,1.1-14.9c-0.1-3.5,0.4-6.8,0.8-10.1c0.2-1.3,0.3-2.5,0.5-3.8c0.5-5.1,1.3-10.4,2.3-16.7
			c3.5-22.4,8.7-44,13.3-62.2c4.7-18.8,10.4-37.1,17.1-54.4c5-13,10.8-25.9,17.9-39.3c7.6-14.6,15.8-27.3,24.9-38.8
			c13.8-17.4,29.5-31.4,46.8-41.7c6.5-3.8,12.6-6.9,18.6-9.6c14.1-6.5,28.6-11.9,43.2-15.9c7.5-2,16.3-4.3,25.5-5.9l16-2.7
			c0.8-0.1,1.7-0.2,2.6-0.2c0.4,0,0.8,0,1.3-0.1c0.5,0,0.9,0,1.3-0.1c3.2-0.7,6.3-0.8,9.3-0.9c0.7,0,1.5-0.1,2.2-0.1h0.1
			c0.7,0,1.3,0,1.9-0.1h0.2c5.9-1,11.8-0.9,17.4-0.7c1.3,0,2.6,0.1,4,0.1c1.1,0,2.1,0.2,3.1,0.4h0.2c0.3,0,0.5,0.1,0.8,0.1
			c0.5,0.1,0.9,0.1,1.2,0.1c3.9,0,7.8,0.4,11.6,0.9c1.4,0.2,2.8,0.3,4.2,0.5c3,0.3,5.9,0.7,8.8,1.1c12.5,2,23.4,4.3,33.4,7
			c14.3,3.8,27.8,8.4,40.2,13.8c7.8,3.4,18,8.1,27.5,14.1c7.2,4.5,31.9,23.1,50.6,49.1c11.8,17.6,23,37.6,29.9,53.7
			c6.1,14,11.5,28.8,16.6,45.3c3.8,12.2,7.2,25.3,10.9,41.3c2.4,10.5,5.2,22.9,7.5,35.3c1.1,5.6,6.6,59.1,6.6,59.7
			c0.8,8.4,1.5,37.2,1.5,38.1v5.1c0,21.4,0,42.9,0.1,64.3c0,21.5,0,42.9,0,64.4c0,7.5-0.3,190-0.7,401.4
			c-0.6,311.7-1.3,699.6-1.3,723.2c0,3.1-0.2,18.6-0.5,35c-0.2,14.7-0.5,30-0.5,35.5c0,0.7-0.1,2.1-0.3,4.4c-0.2,2.2-0.5,5-0.5,6.1
			c0.1,3.2-0.2,20.3-0.8,25.7c-0.3,2.7-0.3,5.3-0.3,8.1c0,1.1,0,2.2-0.1,3.4c-0.1,1.2-0.1,2.3-0.2,3.4c-0.1,1.1-0.1,2.2-0.2,3.3
			c-0.1,1.8-0.2,3.6-0.2,5.3c-0.1,1.8-0.2,3.6-0.3,5.4c0,1.1-0.1,2.2-0.2,3.3c-0.1,1.1-0.1,2.2-0.2,3.2c-0.1,1.5-0.2,3.1-0.3,4.6
			s-0.2,3.1-0.3,4.6c-0.1,2-0.3,4.2-0.5,6.2v0.3c-0.1,0.6-0.1,1-0.1,1.5c-0.2,4.7-0.5,9.5-1.1,15.4c-0.1,1.2-0.2,2.4-0.2,3.6
			c-0.1,2.5-0.3,5.1-0.7,7.6c-0.1,0.6-0.1,1.3-0.1,2.1c0,0.6,0,1.2-0.1,1.8c-0.2,2-0.4,4-0.6,6.1c0,0.2,0,0.4-0.1,0.7
			c0,0.1,0,0.1,0,0.2v0.1c-0.4,4.8-0.8,9.8-1.3,14.7c0,0.6-0.1,1.3-0.2,2c-0.1,0.6-0.1,1.3-0.2,1.9c-0.1,0.6-0.1,1.1-0.2,1.7
			c-0.1,0.5-0.1,0.9-0.2,1.4c-0.1,1.4-0.2,2.9-0.3,4.3c-0.2,2.9-0.5,5.9-0.9,8.9c-0.3,2.4-0.6,4.9-0.9,7.3c-0.5,4.3-1,8.6-1.7,12.9
			c-0.4,2.4-0.8,4.9-1.1,7.4c-0.9,7.6-2.5,15.4-3.7,21.7c-1.5,7.7-3.4,15.4-5.1,21.8c-4.9,18.2-11.2,34.6-19.3,49.9
			c-3.3,6.3-7.4,12.3-12.2,17.8c-6.1,7-12.9,14.1-20.4,20.9c-2.3,2.2-4.6,4.3-6.8,6.3c-6.7,6.3-14.1,11.7-22.1,16.1
			c-9.8,5.4-20.6,9.6-33,12.8c-7.6,1.9-15.2,3.4-22.3,4.4c-3.7,0.5-7.4,1.1-11,1.7h-0.2c-1.1,0.1-2.1,0.2-3.1,0.2
			c-2.6,0.1-4.9,0.3-6.9,0.7c-1.8,0.3-3.6,0.3-5.3,0.3c-2.9,0.1-60.1,2.6-62.5,2.8c-0.9,0-5.6,0.2-11.1,0.3
			c-4.3,0.1-9.6,0.2-12.5,0.3L250.9,2057.4L250.9,2057.4z M203.3,2051.1c1.7,0.2,3.5,0.4,5.2,0.5c1.3,0.1,2.7,0.1,4,0.1
			c3.8,0.1,7.6,0.1,11.5,0.8c0.3,0.1,0.7,0.1,1.1,0.1l23.5,0.3c0.4-0.1,0.8-0.1,1.2-0.1c0.8,0,2-0.1,3.4-0.1c2.8-0.1,6.5-0.2,10-0.2
			c5-0.1,10.2-0.2,10.9-0.3c2.5-0.2,59.5-2.7,62.8-2.8c1.6,0,3.2,0,4.6-0.3c2.3-0.4,4.8-0.6,7.6-0.7c0.9,0,1.8-0.1,2.7-0.2l0,0
			c3.6-0.6,7.4-1.2,11.1-1.7c7-1,14.4-2.5,21.9-4.4c12-3.1,22.5-7.1,31.9-12.4c7.7-4.2,14.8-9.4,21.2-15.4l0.1-0.1
			c2.2-2,4.5-4.1,6.8-6.3c7.4-6.7,14.1-13.6,20.1-20.5c4.6-5.2,8.5-11,11.6-17c7.9-15,14.1-31,18.9-48.9c1.7-6.4,3.6-14,5.1-21.5
			c1.2-6.2,2.8-14,3.7-21.4c0.3-2.5,0.7-5.1,1.1-7.6c0.8-4.2,1.2-8.5,1.7-12.7c0.3-2.4,0.6-4.9,0.9-7.4c0.4-2.8,0.6-5.6,0.8-8.6
			c0.1-1.5,0.2-2.9,0.4-4.4c0.1-0.6,0.1-1.1,0.2-1.6s0.1-0.9,0.2-1.4c0-0.6,0.1-1.3,0.2-2s0.1-1.3,0.2-1.9c0.5-5,0.9-9.9,1.3-14.6
			c0-0.2,0-0.5,0.1-0.7c0-0.1,0-0.1,0-0.2v-0.2c0.2-2.1,0.4-4.1,0.6-6.1c0-0.5,0-1,0-1.5c0-0.9,0-1.8,0.2-2.7
			c0.4-2.4,0.5-4.7,0.6-7.2c0.1-1.3,0.1-2.5,0.2-3.8c0.6-5.8,0.9-10.6,1.1-15.1c0-0.7,0.1-1.4,0.2-2v-0.2c0.2-1.9,0.4-3.9,0.5-5.9
			c0.1-1.5,0.2-3,0.2-4.5c0.1-1.5,0.2-3.1,0.3-4.6c0-1.1,0.1-2.2,0.2-3.3c0.1-1.1,0.1-2.2,0.2-3.2c0.1-1.8,0.2-3.6,0.2-5.3
			c0.1-1.8,0.2-3.6,0.3-5.4c0-1.1,0.1-2.2,0.2-3.3c0.1-1.1,0.1-2.2,0.2-3.2c0-1.1,0-2.2,0.1-3.3c0-2.8,0.1-5.7,0.4-8.6
			c0.6-4.9,0.9-21.5,0.8-25.1c0-1.4,0.2-4,0.5-6.6c0.2-1.7,0.3-3.5,0.3-4.1c0-5.5,0.3-20.8,0.5-35.5c0.2-15.7,0.5-31.9,0.5-35
			c0-23.6,0.7-411.5,1.3-723.2c0.4-211.4,0.7-393.9,0.7-401.4c0-21.4,0-42.9,0-64.3c0-21.5-0.1-42.9-0.1-64.4v-5.1
			c0-1-0.7-29.8-1.5-37.7c-0.9-8.8-5.6-54.5-6.6-59.3c-2.3-12.4-5.1-24.7-7.5-35.1c-3.7-15.8-7.1-28.9-10.9-40.9
			c-5-16.4-10.4-31.1-16.4-44.9c-6.8-15.9-17.9-35.7-29.5-52.9c-16.9-23.5-40.5-42.4-49.3-47.8c-9.2-5.7-18.8-10.2-26.9-13.8
			c-12.2-5.3-25.5-9.9-39.6-13.6c-9.9-2.6-20.6-4.9-32.9-6.9c-2.8-0.4-5.7-0.8-8.6-1.1c-1.4-0.1-2.8-0.3-4.3-0.5
			c-3.7-0.4-7.4-0.8-11.1-0.8c-0.7,0-1.4-0.1-2-0.2c-0.2,0-0.5-0.1-0.7-0.1l-0.4-0.1c-0.8-0.2-1.5-0.3-2.2-0.3
			c-1.4,0-2.7-0.1-4.1-0.1c-5.6-0.2-11-0.3-16.4,0.6c-1,0.2-2,0.2-2.8,0.2c-0.7,0-1.5,0.1-2.2,0.1c-2.9,0.1-5.8,0.2-8.6,0.8
			c-0.7,0.2-1.5,0.2-2.1,0.2c-0.3,0-0.7,0-1,0h-0.2c-0.7,0-1.4,0.1-2.1,0.2l-15.8,2.7c-9,1.5-17.7,3.7-25.1,5.8
			c-14.3,4-28.6,9.3-42.6,15.7c-5.9,2.6-11.9,5.7-18.2,9.4c-16.8,10-32.1,23.7-45.6,40.7c-9,11.2-17,23.7-24.5,38
			c-7,13.3-12.8,26-17.7,38.9c-6.6,17.1-12.3,35.2-16.9,53.8c-4.6,18.1-9.7,39.6-13.3,61.8c-1,6.3-1.8,11.5-2.3,16.5
			c-0.1,1.3-0.3,2.6-0.5,3.9c-0.4,3.2-0.9,6.3-0.8,9.4c0,0.6-0.9,14.2-1.1,15.6c-0.6,4.6-0.7,9.1-0.7,13.8c0,1,0,2.1,0,3.1
			c0,0.8-0.1,2.6-0.3,4.6c-0.2,3.9-0.5,9.2-0.5,10.4L5.4,435c-0.1,2-0.7,23.4-0.7,26.7c-0.1,19.1-0.2,38.9-0.2,58.5
			c0,5.9,0,11.8,0.1,17.6c0,5.8,0,11.6,0,17.3c0.1,13.9,0.1,28,0.1,41.7c0,2.5,0.2,10.9,0.4,18.3c0.1,5.6,0.2,10.4,0.2,11.5
			c0.1,26.6,1.3,746.6,1.3,811.4c0.1,2.3,2.9,264.4,2.9,267v0.1c-0.2,3.7-0.1,7.5,0,11.2c0.1,2.6,0.2,5.4,0.1,8c0,0.5,0,1.1,0.1,1.6
			c0.5,3.9,0.6,7.9,0.7,11.7c0,1.4,0.1,2.8,0.1,4.3c0,1.4,0,2.7,0.2,3.8c0.6,4.6,0.7,9.1,0.8,13.5c0,1.4,0,2.7,0.2,3.8
			c0.6,3.7,0.7,7.6,0.8,11.3l0.3,4.1c0.3,2.8,0.5,5.6,0.7,8.6l1.2,16.9c0,0,0,0.1,0,0.2c0,0.2,0.1,0.5,0.1,0.7l0.6,6.5
			c0.1,1.8,0.3,3.4,0.4,5.1l0.1,0.5c0,0.5,0.1,1,0.2,1.5c0.1,0.7,0.2,1.3,0.2,2c0.2,2.1,0.4,4.2,0.5,6.3c0.2,2.7,0.4,5.5,0.8,8.3
			c0.7,5.8,1.4,11.8,1.9,17.7c0,0.3,0.1,0.6,0.1,0.9c0.1,0.3,0.1,0.7,0.2,1l1.5,11.6c0.1,1,0.2,1.9,0.3,2.8c0.3,2.5,0.5,5.2,1,7.7
			c1.3,8.3,2.4,15.1,3.7,21.4c2.3,11.8,5.1,23.1,8.4,33.7c2.6,8.6,5.8,17.1,9.5,25.4c9,20.2,14.8,27.2,28.1,40.8
			c4.2,4.4,8.8,8.6,13.3,12.7c1.8,1.7,3.6,3.4,5.5,5c6.5,6.1,14.3,11.4,23.1,15.8c10.3,5.3,22.3,9.3,36.6,12.3
			c9,1.8,18.7,3.5,28.7,4.4c0.5,0.1,1,0.1,1.4,0.2c0.4,0.1,0.7,0.1,1.1,0.2c1.4,0.2,2.6,0.4,3.8,0.5c2.3,0.1,4.6,0.4,6.9,0.6
			c2.9,0.4,5.7,0.7,8.5,0.6c0.7,0,1.3,0.1,1.8,0.2C203,2051,203.2,2051,203.3,2051.1z"/>
	</g>
</g>
<g>
	<g>
		<path class="st2" d="M229.2,2023.4c-0.5,0-1.1,0-1.7-0.1c-3-0.6-6.3-0.7-9.4-0.8c-1.2,0-2.4,0-3.6-0.1c-1.5-0.1-2.9-0.3-4.3-0.5
			l-0.5-0.1c-0.3,0-0.5-0.1-0.8-0.2s-0.5-0.1-0.7-0.1c-2.7,0-5.4-0.3-8-0.6c-1.9-0.2-3.8-0.5-5.8-0.6c-1.3-0.1-2.6-0.3-3.6-0.5
			c-0.3,0-0.7-0.1-1.1-0.2c-0.3-0.1-0.6-0.1-0.9-0.2c-7.5-0.7-15.7-2.1-25.6-4.3c-12.7-2.9-23.6-6.9-33.1-12.3
			c-8.1-4.6-15.1-9.8-21.1-16c-1.3-1.3-2.6-2.6-3.9-3.9c-4.3-4.3-8.6-8.7-12.7-13.3c-12-13.7-17.2-20.7-25.3-40.6
			c-3.5-8.7-6.3-17-8.5-24.9c-3.1-11.3-5.6-22.1-7.4-32.9c-1.1-6.5-2.2-13.5-3.3-20.8c-0.5-3.4-0.8-6.9-1.1-10.3
			c-0.2-1.8-0.4-3.7-0.6-5.6c-0.2-1.9-0.5-3.8-0.7-5.6c-0.1-0.5-0.2-1.3-0.2-2c-0.4-5.7-1-11.4-1.6-17c-0.3-2.8-0.5-5.7-0.7-8.6
			c-0.1-1.9-0.3-3.8-0.4-5.7l-0.3-3.4c-0.1-0.9-0.2-1.8-0.3-2.7c-0.1-0.9-0.1-1.8-0.2-2.7c-0.2-2.1-0.4-4.2-0.6-6.4v-0.1
			c0-0.1,0-0.1,0-0.2c0-0.2-0.1-0.5-0.1-0.7c-0.4-5.4-0.7-10.8-1-16.1c-0.2-2.9-0.4-5.7-0.6-8.4c-0.1-1.3-0.2-2.7-0.2-4
			c-0.1-3.5-0.2-7.1-0.7-10.6c-0.1-0.9-0.1-1.7-0.2-2.5c0-0.5,0-1-0.1-1.5c-0.1-4.4-0.8-15.5-0.9-16.7v-2.3
			c-0.1-4.3-0.1-8.7-0.7-12.9c-0.1-0.7-0.1-1.4-0.1-2.2c0.1-3.9-0.4-19.7-0.7-32.4c-0.2-7.3-0.4-13.6-0.4-16.2
			c0-1.4-0.2-5.8-0.3-10.1c-0.2-4.4-0.3-8.5-0.3-9.9c0-17.9,0-36.4-0.1-54.6c-0.1-33.5-0.2-68.2-0.2-102.4c0-1.6-0.1-12.3-0.2-23.5
			c-0.1-12.7-0.3-25.7-0.3-28c0-31.7,0-63.5,0-95.2s-0.1-63.5-0.1-95.3V1019c0-11.6,0.3-40.8,0.5-58.2c0.1-7.5,0.2-13,0.2-13.9
			c0.3-29.5-0.9-166.3-1.3-211.2c-0.1-8.3-0.1-13.4-0.1-13.8L33,639.7c0-1.1-0.1-5.8-0.2-11.2c-0.2-7.2-0.4-15.3-0.4-17.7
			c0-13.2,0-26.9-0.1-40.4c0-5.6,0-11.3,0-16.9c0-5.7-0.1-11.4-0.1-17.1c0-18.7,0.1-37.7,0.2-56v-0.6c0-1,0.1-9.2,0.2-20.4
			c0.2-25.3,0.6-67.6,0.7-86.2c0-2.5,4.8-70.5,5.5-75.5c3.2-22,7.9-43.7,11.7-60.1c4.3-18.5,9.3-36.2,14.9-52.5
			c4.5-13,9.8-25.8,15.7-38c7-14.5,14.1-26.7,21.8-37.4c11.8-16.7,25.5-30.2,40.6-40.1c4.5-3,9.7-5.9,16.3-9.3
			c12.7-6.4,25.4-11.6,37.9-15.4c8.3-2.5,15.2-4.4,22.4-5.6c4-0.7,7.9-1.4,12-2.2l2-0.4c0.5-0.1,0.8-0.1,1.2-0.1
			c0.3,0,0.6,0,0.9-0.1c0.5-0.1,0.8-0.1,1.2-0.1c0.5,0,0.9,0,1.3-0.1c3.1-0.7,6.1-0.8,9.1-0.9h1.1c0.7,0,1.2,0,1.7-0.1h0.1
			c4.7-0.9,9.5-0.8,14.2-0.7c1.5,0,3.1,0.1,4.6,0.1c0.7,0,1.3,0.1,1.9,0.2c0.3,0,0.6,0.1,0.8,0.1c0.3,0,0.6,0.1,0.8,0.1
			c0.4,0.1,0.8,0.2,1.1,0.2c3.4,0,6.8,0.4,10.1,0.8c1.3,0.2,2.5,0.3,3.8,0.5c2.8,0.3,5.2,0.6,7.8,1.1c8.7,1.6,18.9,3.6,29.2,6.6
			c12.9,3.8,24.5,8.1,35.3,13.4c9.8,4.7,17.5,9,24.1,13.6c8.3,5.7,15.8,12.1,22.2,19c1,1.1,2,2.4,3,3.9c1.1,1.6,2.2,3.1,3.7,4.2
			c1.5,1.2,2.7,2.5,4.1,4.3c4.7,5.7,9.2,12.2,13.8,19.8c9,14.7,17,30.9,23.7,48.1c5.5,13.8,10.3,28.6,14.5,43.9
			c3.5,12.4,6.4,24.9,9.6,39.9c2.4,11.1,4.6,22.6,6.6,34.2c0.2,1,0.3,2,0.5,3c0.6,4,1.3,8,1.7,12.1c0.2,1.5,0.4,3.1,0.6,4.6
			c0.3,2.1,0.6,4.4,0.8,6.6c0.1,2.3,0.4,4.7,0.6,6.9c0.2,2.4,0.5,4.8,0.6,7.3c0.2,2.5,0.3,5,0.4,7.4c0.2,3.2,0.3,6.5,0.6,9.7
			c0.7,8,1.3,35.9,1.3,36.8v4.9c0,20.7,0,41.5,0,62.2c0,20.8,0.1,41.5,0.1,62.3c0,9,0,17.9,0,26.9c0,8.9,0,17.8,0,26.7
			c0,35.6-0.7,287.3-0.9,382.1c-0.1,24.9-0.1,40.4-0.1,41v56.6c0,102.1,0,207.7-0.1,311.6c0,1.7-0.1,3.5-0.2,5.2
			c0,0.9-0.1,1.8-0.1,2.7c-0.1,3.2-0.2,43.5-0.2,46.5c-0.1,12.4-0.1,24.7-0.1,37.1c0,12.2-0.1,24.5-0.1,36.7
			c0,19.1-0.1,38.2-0.1,57.3c0,19.3,0,38.6-0.1,57.9c0,3.1-0.2,19.7-0.5,35.8c-0.2,13.5-0.4,27.4-0.4,32.5c0,0.2,0,0.5,0,0.7
			c0,1.2,0,2.4-0.3,3.5c-0.5,1.9-0.5,3.8-0.4,5.9c0.1,3.4,0,6.9-0.1,9.9v2.4c-0.1,4-0.1,8.2-0.6,12.4c-0.2,2.2-0.3,4.3-0.3,6.6
			c0,1.5,0,3.1-0.1,4.6c0,1-0.1,2-0.2,3.1s-0.2,2.2-0.2,3.3c-0.1,1.7-0.2,3.4-0.2,5.1c-0.1,1.7-0.2,3.5-0.3,5.2c0,1-0.1,2-0.2,3.1
			s-0.2,2.2-0.2,3.3c-0.1,1.5-0.2,3-0.3,4.4c-0.1,1.5-0.2,3-0.2,4.4c0,1-0.1,2-0.2,2.9c-0.1,1-0.1,1.9-0.2,2.9
			c0,0.4-0.1,0.8-0.1,1.2c0,0.3-0.1,0.5-0.1,0.8c-0.2,5-0.6,10-1,14.8c-0.1,1.3-0.2,2.7-0.2,4c-0.1,2.2-0.2,4.6-0.6,6.9
			c-0.1,0.7-0.1,1.4-0.1,2.2c0,0.6,0,1.1-0.1,1.7c-0.1,1.8-0.3,3.6-0.5,5.4v0.4c0,0.2,0,0.4-0.1,0.6c0,0.1,0,0.2,0,0.3v0.1
			c-0.2,2.3-0.4,4.7-0.5,7.1c-0.2,2.4-0.4,4.8-0.6,7.1c-0.1,1.3-0.2,2.6-0.4,4c0,0.5-0.1,1-0.2,1.5c-0.1,0.4-0.1,0.9-0.2,1.4
			c-0.2,1.7-0.3,3.4-0.4,5.1c-0.2,2.5-0.4,5.1-0.7,7.7c-0.3,2.4-0.5,4.7-0.8,7.1c-0.4,4.1-0.8,8.3-1.5,12.5
			c-0.4,2.3-0.7,4.7-0.9,7.2c-0.8,7.1-2,14.1-3.2,20.9c-1.2,6.9-2.7,13.7-4.4,21.1c-4.1,17.3-9.8,33.5-16.9,48.1
			c-2.9,6.2-6.5,11.9-10.7,17.1c-4.9,6.2-10.3,12.4-17.8,20.2c-1,1.1-2,2.1-3.1,3.1c-1,1-2,2-3,3.1c-5.8,6-12.2,11.1-19.3,15.4
			c-8.6,5.3-18.1,9.3-29,12.4c-6.4,1.8-13,3.2-19.6,4.2c-1.6,0.2-3.3,0.5-4.9,0.8s-3.3,0.6-4.9,0.8h-0.3c-0.8,0.1-1.6,0.2-2.5,0.2
			c-2.1,0.1-4.1,0.2-6.1,0.7c-1.6,0.3-3.2,0.3-4.6,0.3h-1.2c-2.6,0.1-5,0.1-7.5,0.6c-1.3,0.2-2.6,0.2-3.7,0.2c-1.5,0-3,0.1-4.5,0.1
			s-3,0-4.5,0.1c-1.3,0-2.5,0-3.7,0.2c-2.4,0.5-4.8,0.5-7.2,0.6c-0.7,0-1.3,0-2,0c-2.4,0.1-4.8,0.1-7.1,0.1c-2.4,0-4.7,0-7.1,0.1
			c-2,0.1-4.2,0.3-6.3,0.5c-1.6,0.1-3.3,0.2-4.8,0.2c-2.9,0-10.4,0-18.1,0.1C241.4,2023.3,232.8,2023.4,229.2,2023.4z M208.2,2018.6
			c0.6,0,1.1,0.1,1.5,0.2c0.2,0,0.3,0.1,0.5,0.1l0.4,0.1c1.4,0.2,2.7,0.3,4.1,0.4c1.1,0.1,2.3,0.1,3.5,0.1c3.3,0.1,6.7,0.1,10,0.8
			c0.3,0.1,0.7,0.1,1,0.1c3.6,0,12.2-0.1,20.5-0.1c7.7,0,15.2-0.1,18.1-0.1c1.5,0,3.1-0.1,4.6-0.2c2.1-0.2,4.3-0.4,6.4-0.5
			c2.4-0.1,4.8-0.1,7.2-0.1c2.4,0,4.7,0,7.1-0.1c0.7,0,1.3,0,2,0c2.3,0,4.5-0.1,6.7-0.5c1.5-0.2,2.9-0.2,4.2-0.2
			c1.5,0,3-0.1,4.5-0.1s3,0,4.5-0.1c1.1,0,2.2,0,3.2-0.2c2.7-0.5,5.3-0.6,7.9-0.7h1.3c1.4,0,2.8,0,4-0.3c2.2-0.5,4.5-0.6,6.6-0.7
			c0.8,0,1.5-0.1,2.3-0.2h0.2c1.6-0.2,3.2-0.5,4.8-0.8c1.6-0.3,3.3-0.6,4.9-0.8c6.5-1,13-2.4,19.2-4.2c10.6-3,19.8-6.9,28.2-12
			c6.9-4.2,13.1-9.1,18.7-15c1-1.1,2-2.1,3.1-3.1c1-1,2-2,3-3.1c7.4-7.7,12.8-13.9,17.6-20c4-5,7.5-10.6,10.3-16.5
			c7-14.5,12.6-30.4,16.7-47.5c1.7-7.4,3.2-14,4.4-20.9c1.2-6.8,2.4-13.8,3.2-20.7c0.2-2.5,0.5-5,0.9-7.4c0.7-4.1,1.1-8.3,1.5-12.3
			c0.2-2.3,0.5-4.7,0.8-7.1c0.3-2.5,0.5-5,0.7-7.5c0.1-1.7,0.3-3.4,0.4-5.1c0.1-0.5,0.1-1,0.2-1.5c0.1-0.4,0.1-0.9,0.2-1.4
			c0.2-1.3,0.3-2.6,0.4-3.9c0.2-2.4,0.4-4.7,0.5-7.1c0.2-2.4,0.3-4.7,0.5-7.1c0-0.3,0-0.5,0.1-0.7c0-0.1,0-0.1,0-0.2l0.1-0.6
			c0.2-1.8,0.4-3.5,0.4-5.3c0-0.5,0-1,0.1-1.5c0-0.8,0-1.7,0.2-2.5c0.3-2.2,0.4-4.4,0.5-6.6c0.1-1.4,0.1-2.7,0.3-4.1
			c0.4-4.8,0.8-9.7,1-14.6c0-0.4,0.1-0.8,0.1-1.2c0-0.3,0.1-0.5,0.1-0.8c0.1-1.1,0.1-2.1,0.2-3.1s0.1-1.9,0.2-2.9
			c0.1-1.5,0.2-2.9,0.2-4.4c0.1-1.5,0.2-3,0.3-4.4c0-1.1,0.1-2.2,0.2-3.3c0.1-1,0.1-2,0.2-3c0.1-1.7,0.2-3.4,0.2-5.1
			c0.1-1.7,0.2-3.5,0.3-5.2c0.1-1.1,0.1-2.3,0.2-3.4c0.1-1,0.1-2,0.2-3c0.1-1.5,0.1-3,0.1-4.5c0-2.3,0-4.6,0.3-6.9
			c0.4-4,0.5-8.1,0.5-12.1v-2.5c0.1-3.2,0.2-6.4,0.1-9.7c-0.1-2.2-0.2-4.4,0.5-6.8c0.2-0.7,0.2-1.7,0.2-2.7c0-0.3,0-0.5,0-0.8
			c0-5.2,0.2-18.5,0.4-32.6c0.2-16,0.5-32.6,0.5-35.7c0.1-19.3,0.1-38.6,0.1-57.9c0-19.1,0-38.2,0.1-57.3c0-12.2,0.1-24.5,0.1-36.7
			c0-12.4,0-24.7,0.1-37.1c0-3.1,0.1-43.4,0.2-46.6c0-0.9,0.1-1.9,0.1-2.8c0.1-1.7,0.2-3.4,0.2-5.1c0.1-103.9,0.1-209.5,0.1-311.6
			v-56.6c0-0.6,0-16.1,0.1-41c0.2-94.8,0.9-346.5,0.9-382.1c0-8.9,0-17.8,0-26.7c0-9,0-17.9,0-26.9c0-20.7,0-41.5,0-62.2
			c0-20.8-0.1-41.5-0.1-62.3v-4.9c0-1-0.6-28.8-1.3-36.6c-0.3-3.3-0.4-6.6-0.6-9.9c-0.1-2.4-0.2-4.9-0.4-7.4
			c-0.2-2.4-0.4-4.9-0.6-7.2c-0.2-2.3-0.4-4.7-0.6-7c-0.2-2.1-0.5-4.3-0.8-6.4c-0.2-1.5-0.4-3.1-0.6-4.7c-0.4-4-1.1-8-1.7-11.9
			c-0.2-1-0.3-2-0.5-3c-2-11.5-4.2-22.9-6.6-34c-3.2-14.9-6.1-27.3-9.6-39.7c-4.2-15.2-9-29.8-14.5-43.6
			c-6.7-17-14.6-33.1-23.5-47.7c-4.6-7.5-9-13.8-13.6-19.4c-1.3-1.6-2.3-2.8-3.6-3.8c-1.8-1.3-3-3-4.3-4.8c-0.9-1.4-1.9-2.6-2.8-3.6
			c-6.3-6.8-13.6-13-21.7-18.6c-6.5-4.5-14-8.8-23.7-13.4c-10.7-5.2-22.1-9.5-34.9-13.2c-10.2-3-20.3-5-29-6.6
			c-2.5-0.5-4.9-0.8-7.6-1.1c-1.3-0.1-2.6-0.3-3.8-0.5c-3.3-0.4-6.5-0.8-9.7-0.8c-0.6,0-1.2-0.1-1.7-0.2c-0.2,0-0.4-0.1-0.6-0.1
			c-0.3,0-0.6-0.1-0.9-0.1c-0.5-0.1-1-0.2-1.5-0.2c-1.6,0-3.1,0-4.7-0.1c-4.7-0.1-9.1-0.2-13.5,0.6c-0.9,0.2-1.7,0.2-2.4,0.2h-1.1
			c-2.9,0.1-5.7,0.2-8.5,0.8c-0.7,0.2-1.3,0.2-1.9,0.2c-0.3,0-0.6,0-0.9,0c-0.3,0-0.7,0.1-1.1,0.1c-0.3,0-0.6,0-0.9,0.1l-1.9,0.4
			c-4.1,0.8-8,1.5-12.1,2.2c-7,1.2-13.9,3.1-22,5.6c-12.4,3.7-25,8.8-37.5,15.2c-6.5,3.3-11.6,6.2-16.1,9.1
			c-14.8,9.7-28.2,22.9-39.8,39.3c-7.6,10.6-14.7,22.7-21.6,37c-5.8,12.1-11.1,24.8-15.5,37.6c-5.6,16.2-10.6,33.7-14.9,52.1
			c-3.8,16.4-8.5,38-11.7,59.9c-0.9,5.9-5.5,74.7-5.5,75.1c-0.1,18.6-0.5,60.9-0.7,86.2c-0.1,11.3-0.2,19.4-0.2,20.4v0.6
			c-0.1,18.3-0.2,37.3-0.2,56c0,5.7,0,11.4,0,17.1c0,5.7,0.1,11.3,0.1,16.9c0.1,13.5,0.1,27.2,0.1,40.4c0,2.4,0.2,10.5,0.4,17.6
			c0.1,5.5,0.2,10.2,0.2,11.3l0.3,82.2c0,0.4,0,5.4,0.1,13.8c0.4,44.9,1.5,181.7,1.3,211.2c0,0.9-0.1,6.4-0.2,13.9
			c-0.2,17.4-0.5,46.6-0.5,58.1v215.6c0,31.8,0,63.5,0,95.2s0.1,63.5,0.1,95.3c0,2.2,0.1,15.3,0.3,27.9c0.1,11.3,0.2,22,0.2,23.6
			c0,34.2,0.1,68.9,0.2,102.4c0.1,18.2,0.1,36.7,0.1,54.6c0,1.3,0.2,5.6,0.3,9.8c0.2,4.5,0.3,8.8,0.3,10.2c0,2.5,0.2,8.8,0.4,16.1
			c0.3,12.7,0.8,28.5,0.7,32.5c0,0.6,0,1.3,0.1,1.7c0.5,4.4,0.6,8.9,0.7,13.2v2.2c0.1,1.2,0.8,12.3,0.9,16.7c0,0.5,0,1,0.1,1.6
			c0,0.8,0,1.5,0.1,2.1c0.5,3.7,0.6,7.4,0.7,11c0,1.3,0.1,2.5,0.2,3.8c0.2,2.7,0.4,5.5,0.6,8.3v0.1c0.3,5.3,0.6,10.7,1,16.1v0.1
			c0,0.1,0,0.2,0,0.3c0,0.2,0.1,0.4,0.1,0.6c0.2,2.2,0.4,4.3,0.6,6.3c0.1,0.9,0.2,1.8,0.3,2.7c0.1,0.9,0.1,1.8,0.2,2.7l0.3,3.4
			c0.2,1.9,0.3,3.8,0.4,5.7c0.2,2.8,0.4,5.7,0.7,8.4c0.6,5.6,1.2,11.4,1.6,17.2v0.1c0,0.5,0.1,1.2,0.2,1.7c0.2,1.9,0.4,3.8,0.7,5.7
			c0.2,1.9,0.5,3.8,0.7,5.6c0.3,3.3,0.6,6.8,1.1,10.1c1.1,7.3,2.2,14.2,3.3,20.8c1.8,10.8,4.3,21.4,7.4,32.7
			c2.1,7.7,4.9,16,8.3,24.5c7.8,19.4,13,26.4,24.7,39.8c4,4.6,8.3,9,12.5,13.2c1.3,1.3,2.6,2.6,3.9,3.9c5.9,6,12.6,11,20.5,15.4
			c9.3,5.2,19.8,9.1,32.3,11.9c9.8,2.2,17.8,3.6,25.3,4.3c0.5,0.1,0.8,0.1,1.2,0.2c0.3,0.1,0.6,0.1,1,0.2c1,0.2,2.2,0.4,3.3,0.5
			c2,0.1,4,0.3,5.9,0.6C203.2,2018.3,205.7,2018.6,208.2,2018.6L208.2,2018.6z"/>
	</g>
</g>
<g>
	<g>
		<path class="st3" d="M252.1,1989.7c-4.4-0.1-9.5-0.2-14.4-0.2v-4.5c4.9,0,10,0.1,14.4,0.2V1989.7z M265.4,1989.5v-4.5
			c4.8-0.1,5.7-0.1,5.8-0.1c1-0.1,4.7-0.2,8.5-0.4l0.2,4.5c-3.8,0.2-7.4,0.3-8.4,0.4C271.3,1989.4,270.7,1989.4,265.4,1989.5z
			 M223.4,1988.6c-0.4,0-0.8,0-1.2,0h-0.1c-0.7-0.1-1.4-0.1-2.1-0.2c-0.6-0.1-1.3-0.1-1.9-0.2h-0.3c-0.2,0-0.3-0.1-0.5-0.1
			c-0.1,0-0.1,0-0.2,0h-0.2c-2.4,0.1-4.8-0.3-7.1-0.6l-1-0.2l0.7-4.5l1,0.2c2.1,0.3,4.1,0.6,6.2,0.6c0.6-0.1,1.3,0.1,1.8,0.2
			c0.1,0,0.1,0,0.2,0c0.6,0.1,1.3,0.1,1.9,0.2c0.6,0.1,1.3,0.1,1.9,0.2c0.4,0,0.7,0,1.1,0L223.4,1988.6z M294.4,1988.3l-0.4-4.5
			l0.8-0.1c2.8-0.2,4.3-0.4,4.9-0.4c1.2,0,2.5-0.1,3.8-0.1s2.5,0,3.8-0.1c0.3,0,0.6,0,1-0.1l0.4,4.5c-0.6,0.1-1.1,0.1-1.3,0.1
			c-1.2,0-2.5,0.1-3.8,0.1s-2.5,0-3.8,0.1c-0.5,0-2.8,0.2-4.7,0.3L294.4,1988.3z M323.3,1986.2l-0.7-4.4c1.6-0.2,3-0.3,4.4-0.4h0.1
			c0.6,0,1.3-0.1,1.9-0.2c1.3-0.2,2.7-0.5,4-0.8c1.2-0.2,2.4-0.5,3.7-0.7l0.8,4.4c-1.2,0.2-2.4,0.5-3.6,0.7
			c-1.4,0.3-2.8,0.6-4.2,0.8c-0.8,0.1-1.7,0.2-2.5,0.2C325.9,1985.9,324.6,1986,323.3,1986.2z M194.5,1985.3
			c-4.4-0.7-9-1.6-14.3-2.9l1.1-4.4c5.1,1.2,9.7,2.2,13.9,2.8L194.5,1985.3z M351.8,1980.8l-1.3-4.3c1-0.3,2-0.6,2.9-0.9
			c3.5-1.1,7-2.4,10.3-3.9l1.9,4.1c-3.5,1.6-7.1,2.9-10.8,4.1C353.8,1980.2,352.8,1980.5,351.8,1980.8z M166.2,1978.1
			c-4.8-1.8-9.2-3.9-13.3-6.3l2.3-3.9c4,2.3,8.1,4.3,12.7,6L166.2,1978.1z M378.5,1968.6l-2.5-3.7c0.4-0.2,0.7-0.5,1.1-0.7
			c3.5-2.5,6.8-5.2,9.8-8.1l3.1,3.2c-3.2,3-6.6,5.9-10.4,8.5C379.3,1968.1,378.9,1968.4,378.5,1968.6z M140.7,1963.3
			c-3.1-2.7-6.1-5.6-8.9-8.8c-0.5-0.6-1-1.1-1.5-1.7l3.4-2.9c0.5,0.6,1,1.1,1.5,1.7c2.6,3,5.4,5.8,8.4,8.3L140.7,1963.3z
			 M399.8,1948.5l-3.4-3c0.5-0.6,1-1.2,1.5-1.7c2.8-3.3,5.3-6.3,7.6-9.3l3.5,2.8c-2.4,3-4.9,6.1-7.7,9.4
			C400.9,1947.4,400.4,1947.9,399.8,1948.5z M121,1941.8c-1.2-1.4-2.2-2.8-3.2-4.1c-2.4-3-4.1-5.4-5.6-7.5l3.7-2.6
			c1.5,2.1,3.2,4.3,5.5,7.4c1,1.3,2,2.6,3.1,3.9L121,1941.8z M417.7,1925.6l-3.8-2.5c2.6-3.9,4.8-8,6.8-12.3l4.1,1.9
			C422.8,1917.2,420.4,1921.5,417.7,1925.6z M104.3,1917.8c-2-3.8-3.9-8.1-5.9-13.4l4.2-1.6c2,5.1,3.8,9.2,5.7,12.9L104.3,1917.8z
			 M430.2,1899.1l-4.2-1.5c1.6-4.4,3.1-9,4.5-13.6l4.3,1.3C433.4,1890,431.8,1894.6,430.2,1899.1z M93.6,1890.8
			c-1.4-4.3-2.7-8.9-4-13.9l4.4-1.1c1.3,5,2.6,9.5,4,13.7L93.6,1890.8z M438.5,1871.3l-4.4-1c0.6-2.4,1.1-4.8,1.6-7.2
			c0.5-2.2,0.9-4.5,1.4-6.8l4.4,0.9c-0.5,2.3-0.9,4.6-1.4,6.8C439.6,1866.4,439.1,1868.9,438.5,1871.3z M86.2,1862.7
			c-1-4.7-1.9-9.5-2.7-14.2l4.4-0.7c0.8,4.7,1.7,9.4,2.7,14.1L86.2,1862.7z M444.1,1842.9l-4.5-0.7c0.8-5.3,1.4-9.6,2-14.2l4.5,0.6
			C445.5,1833.5,444.7,1838.7,444.1,1842.9z M81.3,1834.2c-0.6-4-1.1-8-1.6-12c-0.1-0.8-0.2-1.6-0.3-2.4l4.5-0.4
			c0.1,0.8,0.2,1.5,0.2,2.3c0.5,3.9,1.1,7.9,1.6,11.9L81.3,1834.2z M447.8,1814.2l-4.5-0.6c0.4-3,0.6-6.1,0.9-9.1
			c0.1-1.7,0.3-3.5,0.5-5.2l4.5,0.4c-0.2,1.7-0.3,3.4-0.5,5.1C448.4,1808,448.2,1811.2,447.8,1814.2z M78,1805.5
			c-0.1-1.3-0.3-2.6-0.4-3.9c-0.1-0.6-0.2-1.3-0.2-2.1c-0.1-2.4-0.3-4.9-0.6-8.3l4.5-0.4c0.3,3.4,0.5,6,0.6,8.5v0.1
			c0,0.5,0.1,1,0.2,1.5v0.1c0.2,1.4,0.3,2.7,0.4,4.1L78,1805.5z M450.3,1785.4l-4.5-0.3v-0.3l0.3-2.9l0.3-3.7l0.5-7.5l4.5,0.3
			l-0.8,11.3L450.3,1785.4z M75.6,1776.7l-0.2-3c-0.1-1.5-0.2-3-0.3-4.5l-0.3-3.2c-0.1-0.9-0.1-1.8-0.2-2.6l-0.1-1l4.5-0.4l0.1,1
			c0.1,0.9,0.2,1.8,0.2,2.7l0.3,3.2c0.1,1.6,0.2,3.1,0.3,4.6l0.2,3L75.6,1776.7z M452.4,1756.6l-4.5-0.1c0-0.8,0-1.7,0.2-2.6
			c0.3-2.3,0.4-4.6,0.5-7.1c0-1,0.1-2,0.1-3l0.1-1.7l4.5,0.2l-0.1,1.7c-0.1,1-0.1,2-0.1,2.9c-0.1,2.5-0.2,5.1-0.6,7.7
			C452.4,1755.2,452.4,1755.9,452.4,1756.6z M73.5,1748l-0.6-9.8c-0.1-1.3-0.2-2.7-0.2-4v-0.6l4.5-0.3v0.6c0.1,1.3,0.1,2.6,0.2,4
			l0.6,9.9L73.5,1748z M454.2,1727.9l-2.1-0.1h-2.4v-0.1l0.3-5.7c0-1.4,0.1-2.8,0.2-4.3c0.1-1.4,0.1-2.8,0.2-4.2v-0.2l4.5,0.2v0.1
			c-0.1,1.4-0.1,2.8-0.2,4.3c-0.1,1.4-0.2,2.8-0.2,4.2L454.2,1727.9z M71.9,1719.2c-0.1-2.6-0.4-9.3-0.7-14.4l4.5-0.3
			c0.3,5.1,0.6,11.8,0.7,14.4L71.9,1719.2z M455.5,1699.1l-4.5-0.2c0-0.5,0-1.1,0.1-1.6l0.3-6.2c0-1.1,0-2.3,0.1-3.5c0-1,0-2,0-3
			l4.5,0.1c0,1,0,1.9,0,2.9c0,1.2,0,2.4-0.1,3.7l-0.3,6.2C455.6,1698,455.6,1698.6,455.5,1699.1z M70.7,1690.3
			c-0.1-2.6-0.2-5.7-0.5-8.8c-0.1-0.8-0.1-1.6-0.1-2.2c0-0.2,0-0.4,0-0.7c0-0.7,0-1.6,0-2.7l4.5-0.1c0,1.2,0,2.1,0,2.8
			c0,0.3,0,0.5,0,0.7c0,0.5,0,1.1,0.1,1.5v0.1c0.3,3.3,0.4,6.5,0.5,9.2L70.7,1690.3z M456.6,1670.3l-4.5-0.1v-1.5c0-0.9,0-1.8,0-2.7
			v-0.3c0.1-2.2,0.1-4.3,0.1-6.4c0-0.9,0-1.8,0-2.7v-0.8h4.5v0.7c0,0.9,0,1.8,0,2.8c0,2.2-0.1,4.3-0.1,6.5v0.2c0,0.9,0,1.8,0,2.7
			V1670.3z M69.8,1661.5c-0.1-4.5-0.2-9.4-0.3-14.4l4.5-0.1c0.1,5,0.2,9.9,0.3,14.4L69.8,1661.5z M457.4,1641.5h-4.5
			c0-4.8,0-9.6,0.1-14.4h4.5C457.5,1631.9,457.4,1636.7,457.4,1641.5z M69.1,1632.6v-1.9c-0.1-5-0.2-9.4-0.3-12.5l4.5-0.1
			c0.1,3.1,0.2,7.5,0.3,12.5v1.9L69.1,1632.6z M457.6,1612.8l-4.5-0.1c0-2.1,0.1-5.9,0.2-10.1l0.1-4.3l4.5,0.1l-0.1,4.3
			C457.7,1606.9,457.6,1610.6,457.6,1612.8z M68.6,1603.7c0-4.8,0-9.6,0-14.4h4.5c0,4.8,0,9.6,0,14.4H68.6z M458.1,1583.9l-4.5-0.1
			c0-1.3,0-2.3,0-3v-11.3h4.5v11.3C458.1,1581.5,458.1,1582.6,458.1,1583.9z M68.6,1574.9c0-4.8,0-9.6-0.1-14.4H73
			c0,4.8,0,9.6,0.1,14.4H68.6z M458.1,1555.1h-4.5v-14.4h4.5V1555.1z M68.4,1546.1l-0.1-14.4h4.5l0.1,14.4H68.4z M458.1,1526.3h-4.5
			v-14.4h4.5V1526.3z M68.3,1517.2l-0.1-14.4h4.5l0.1,14.4H68.3z M458.1,1497.5h-4.5v-14.4h4.5V1497.5z M68.2,1488.4l-0.1-14.4h4.5
			l0.1,14.4H68.2z M458.2,1468.7h-4.5c0-4.8,0-9.6,0-14.4h4.5C458.2,1459.1,458.2,1463.9,458.2,1468.7z M68,1459.5l-0.1-14.4h4.5
			l0.1,14.4H68z M458.2,1439.9h-4.5v-14.4h4.5V1439.9z M67.9,1430.7l-0.1-14.4h4.5l0.1,14.4H67.9z M458.3,1411.1h-4.5
			c0-4.2,0-8.5,0-12.8c0-0.5,0-1.1,0-1.6l4.5-0.1c0,0.6,0,1.1,0,1.7C458.3,1402.6,458.3,1406.8,458.3,1411.1z M67.8,1401.8v-14.4
			h4.5v14.4H67.8z M453.1,1382.3c0-0.6,0-1.1,0-1.7c0-2.8,0.1-5.9,0.3-9.4v-0.5l0.1-0.3c0.2-0.8,0.3-1.7,0.3-2.6l4.5,0.3
			c-0.1,1.1-0.2,2-0.4,2.9c0,0.2,0,0.5-0.1,0.7c-0.2,3.3-0.2,6.2-0.2,8.8c0,0.6,0,1.1,0,1.7L453.1,1382.3z M67.8,1373v-14.4h4.5
			v14.4H67.8z M458.5,1353.6l-4.5-0.2v-0.2c0-0.9,0.1-1.7,0.1-2.5c0.1-1.7,0.2-3.4,0.2-5v-6.6h4.5v6.6c0,1.7-0.1,3.5-0.2,5.2
			c0,0.8-0.1,1.6-0.1,2.5V1353.6z M67.8,1344.2v-14.4h4.5v14.4H67.8z M458.8,1324.7h-4.5v-14.4h4.5V1324.7z M67.7,1315.4V1301h4.5
			v14.4H67.7z M458.8,1295.9h-4.5v-14.4h4.5V1295.9z M67.7,1286.6v-14.4h4.5v14.4H67.7z M458.8,1267.1h-4.5v-14.4h4.5V1267.1z
			 M67.7,1257.8v-14.4h4.5v14.4H67.7z M458.8,1238.3h-4.5v-14.4h4.5V1238.3z M72.2,1229h-4.5v-14.4h4.5V1229z M458.8,1209.5h-4.5
			v-14.4h4.5V1209.5z M72.2,1200.2h-4.5v-14.4h4.5V1200.2z M458.8,1180.7h-4.5v-14.4h4.5V1180.7z M72.2,1171.4h-4.5V1157h4.5V1171.4
			z M458.8,1151.9h-4.5v-14.4h4.5V1151.9z M72.2,1142.6h-4.5v-14.4h4.5V1142.6z M458.8,1123.1h-4.5v-14.4h4.5V1123.1z M72.2,1113.8
			h-4.5v-14.4h4.5V1113.8z M458.8,1094.3h-4.5v-14.4h4.5V1094.3z M72.2,1085h-4.5v-14.4h4.5V1085z M458.8,1065.5h-4.5v-14.4h4.5
			V1065.5z M72.2,1056.2h-4.5v-14.4h4.5V1056.2z M458.8,1036.7h-4.5v-14.4h4.5V1036.7z M72.2,1027.4h-4.5v-7.4c0-2.3,0-4.7,0-7h4.5
			c0,2.3,0,4.7,0,7V1027.4z M458.8,1007.9h-4.5v-14.4h4.5V1007.9z M72.2,998.6h-4.5v-14.4h4.5V998.6z M454,979.2
			c-0.1-5.1-0.2-9.5-0.2-10.9v-3.6h4.5v3.6c0,1.5,0.1,6.6,0.2,10.8L454,979.2z M72.3,969.8l-4.5-0.1c0-2,0.1-4.8,0.2-7.7
			c0.1-2.3,0.1-4.7,0.2-6.7l4.5,0.1c0,2-0.1,4.4-0.2,6.7C72.5,965,72.4,967.9,72.3,969.8z M453.7,950.3c0-4.8,0-9.6-0.1-14.4h4.5
			c0,4.8,0,9.6,0.1,14.4H453.7z M72.9,940.9h-4.5c0-4.8,0-9.6,0.1-14.4H73C72.9,931.3,72.9,936.1,72.9,940.9z M453.6,921.5
			c0-4.8,0-9.6,0-14.4h4.5c0,4.8,0,9.6,0,14.4H453.6z M72.9,912.1h-4.5c0-4.2,0-8.4,0-12.6v-1.8H73v1.8
			C73,903.7,72.9,907.9,72.9,912.1z M458.1,892.7h-4.5c0-4.8,0-9.6,0-14.4h4.5C458.1,883.1,458.1,887.9,458.1,892.7z M68.4,883.3
			c0-4.8,0-9.6,0-14.4h4.5c0,4.8,0,9.6,0,14.4H68.4z M458.1,863.9h-4.5c0-4.8,0-9.6,0.1-14.4h4.5
			C458.2,854.3,458.1,859.1,458.1,863.9z M68.3,854.5v-5.8c0-1.1-0.1-4.8-0.2-8.6l4.5-0.1c0.1,3.8,0.2,7.5,0.2,8.7v5.8L68.3,854.5z
			 M458.2,835.1h-4.5l0.1-10.3c0-1,0.1-1.9,0.1-2.8c0-0.4,0-0.8,0-1.3l4.5-0.1c0,0.5,0,0.9,0,1.4c0,1,0,1.9-0.1,2.9L458.2,835.1z
			 M67.8,825.7c0-1.1,0-2,0-2.5l-0.1-11.9h4.5l0.1,11.9c0,0.5,0,1.3,0,2.4L67.8,825.7z M458.6,806.7l-4.5-0.5
			c0.2-1.8,0.2-3.7,0.2-5.4V792h4.5v8.8C458.9,802.5,458.9,804.6,458.6,806.7z M67.7,796.9c0-4.8,0-9.6,0-14.4h4.5
			c0,4.8,0,9.6,0,14.4H67.7z M458.9,777.6h-4.5c0-4.8,0-9.6,0-14.4h4.5C459,768,458.9,772.8,458.9,777.6z M67.6,768.1
			c0-4.6,0-9.2,0-13.8v-0.6h4.5v0.6c0,4.6,0,9.2,0,13.8H67.6z M459,748.8h-4.5l0.1-14.4h4.5L459,748.8z M67.6,739.8
			c-0.5-2.3-0.5-4.6-0.5-6.6V725h4.5v8.2c0,1.7,0.1,3.8,0.5,5.7L67.6,739.8z M458.5,720.4l-4.5-0.6c0.1-0.7,0.2-1.4,0.4-2.1
			c0.6-2.2,0.6-4.5,0.6-6.9v-5.1h4.5v5.1c0,2.6,0,5.3-0.8,8.1C458.7,719.4,458.6,719.9,458.5,720.4z M67,710.6v-14.4h4.5l0.1,14.4
			L67,710.6z M459.6,691.4h-4.5V677h4.5V691.4z M66.9,681.8l-0.1-14.4h4.5l0.1,14.4H66.9z M459.7,662.6h-4.5v-14.4h4.5V662.6z
			 M71.3,653l-4.5-0.1c0-2.3,0.2-4.4,0.4-6.4c0.2-1.3,0.3-2.5,0.3-3.7c0-1.3-0.1-2.6-0.3-3.8l4.4-0.7c0.2,1.5,0.4,3,0.4,4.5
			c0,1.4-0.1,2.9-0.3,4.3C71.5,648.9,71.3,650.8,71.3,653z M455.3,633.8v-14.4h4.5v14.4H455.3z M70.8,624.3h-4.5c0-4.8,0-9.6,0-14.4
			h4.5C70.8,614.7,70.8,619.5,70.8,624.3z M459.8,605h-4.5v-14.4h4.5V605z M66.3,595.5c0-2.8,0-5.6-0.1-8.4c0-2,0-4,0-6h4.5
			c0,2,0,4,0,6c0,2.8,0,5.6,0.1,8.4H66.3z M455.3,576.2c0-4.8,0-9.6,0-14.4h4.5c0,4.8,0,9.6,0,14.4H455.3z M66.1,566.7
			c0-4.2,0-8.3,0-12.5v-1.9h4.5v1.9c0,4.1,0,8.3,0,12.4L66.1,566.7z M455.2,547.4c0-4.8,0-9.6,0-14.4h4.5c0,4.8,0,9.6,0,14.4H455.2z
			 M70.6,537.9h-4.5v-14.4h4.5V537.9z M455.2,518.5v-14.4h4.5v14.4H455.2z M70.7,509.1h-4.5c0-3.2,0-6.3,0-9.5c0-0.4,0-2.2,0-5h4.5
			c0,2.8,0,4.5,0,5C70.7,502.8,70.7,505.9,70.7,509.1z M455.2,489.7v-14.4h4.5v14.4H455.2z M70.8,480.2h-4.5l0.1-14.4h4.5
			L70.8,480.2z M455.2,460.9v-14.4h4.5v14.4H455.2z M71.1,451.4h-4.5l0.1-14.4h4.5L71.1,451.4z M455.1,432v-14.4h4.5V432H455.1z
			 M71.3,422.5h-4.5c0-5.2,0.1-10,0.1-14.4h4.5C71.3,412.4,71.3,417.3,71.3,422.5z M454.9,403.3c-0.2-2.1-0.4-4.6-0.4-6.5
			c0-0.8,0-1.5,0.1-2.1v-0.2c0-0.2,0.1-0.4,0.1-0.7c0-0.2,0-0.4,0-0.5c0-0.2,0-0.4,0-0.7c0-1.3-0.1-2.6-0.1-3.9l4.5-0.1
			c0,1.3,0,2.6,0.1,3.9c0,0.2,0,0.4,0,0.6s0,0.4,0,0.7c0,0.4,0,1-0.2,1.6c0,0.2-0.1,0.6-0.1,1.3c0,1.7,0.2,4,0.4,6.1L454.9,403.3z
			 M71.5,393.9l-4.5-0.6c0.1-0.9,0.3-1.8,0.6-2.5c0-0.1,0.1-0.4,0.1-0.9c0-0.2,0-0.3,0-0.5s0-0.4,0-0.6v-0.2c-0.1-2-0.2-4-0.2-6
			c0-1.1,0-2.2,0-3.3H72c0,1.1,0,2.2,0,3.3c0,1.9,0.1,3.8,0.2,5.8v0.4c0,0.2,0,0.4,0,0.6s0,0.4,0,0.6c0,0.7,0,1.5-0.3,2.4
			C71.7,392.8,71.6,393.3,71.5,393.9z M454.4,374.4c-0.1-1.5-0.2-3-0.3-4.4c-0.2-3.4-0.4-6.8-0.6-10l4.5-0.2
			c0.2,3.2,0.3,6.6,0.6,9.9c0.1,1.4,0.2,2.9,0.3,4.5L454.4,374.4z M72.7,365l-4.5-0.2v-0.3c0-0.6,0.1-1.3,0.1-1.9v-1.5
			c0.1-2.7,0.1-5.4,0.6-8.2l0.1-0.4c0,0,0-0.1,0-0.2c0-0.6,0-1.2,0-1.8l4.5,0.2c0,0.5,0,1.1,0,1.6c0,0.3,0,0.8-0.1,1.4
			c-0.4,2.5-0.4,4.9-0.5,7.5v1.7c0,0.6-0.1,1.2-0.1,1.8L72.7,365z M452.7,345.8v-0.5c-0.2-1.8-0.3-3.7-0.4-5.5
			c-0.1-1.9-0.4-3.8-0.6-5.8c-0.1-0.8-0.2-1.6-0.3-2.4l4.5-0.5c0.1,0.8,0.2,1.5,0.3,2.3c0.3,2,0.5,4.1,0.7,6.2
			c0.1,1.8,0.3,3.6,0.4,5.4v0.5L452.7,345.8z M74.7,336.4l-4.5-0.4c0.3-3.7,0.8-7.5,1.4-12.2l0.3-2.2l4.5,0.6l-0.3,2.2
			C75.5,329,75,332.8,74.7,336.4z M449.6,317.3l-0.4-2.7c-0.6-3.7-1.2-7.6-1.8-11.5l4.4-0.7c0.7,4,1.3,7.9,1.9,11.6l0.4,2.7
			L449.6,317.3z M78.4,308l-4.4-0.7c0.7-4.6,1.5-9.2,2.4-14.2l4.4,0.8C79.9,298.9,79.1,303.5,78.4,308z M444.9,289
			c-0.4-2.4-0.9-4.8-1.3-7.1c-0.4-2.3-0.9-4.7-1.3-7l4.4-0.9c0.5,2.3,0.9,4.7,1.3,7c0.4,2.4,0.9,4.8,1.3,7.2L444.9,289z M83.4,279.7
			l-4.4-0.8c0.8-4.4,1.7-8.8,2.6-13.1l0.2-1l4.4,0.9l-0.2,1C85.1,271,84.2,275.4,83.4,279.7z M439.5,260.8c-1-4.9-2.1-9.5-3.1-14
			l4.4-1c1.1,4.5,2.1,9.1,3.2,14.1L439.5,260.8z M89.2,251.6l-4.4-1c1.1-4.8,2.2-9.5,3.4-14.1l4.4,1.1
			C91.4,242.2,90.3,246.9,89.2,251.6z M432.8,232.9c-1.2-4.6-2.6-9.3-3.9-13.8l4.3-1.3c1.4,4.6,2.7,9.3,3.9,13.9L432.8,232.9z
			 M96.4,223.9l-4.3-1.3c0.7-2.5,1.5-5.1,2.3-7.6c0.6-2.1,1.3-4.2,2-6.3l4.3,1.4c-0.7,2.1-1.3,4.1-2,6.2
			C97.8,218.8,97.1,221.3,96.4,223.9z M424.6,205.4c-0.4-1.3-0.8-2.5-1.3-3.8c-1.2-3.3-2.3-6.5-3.6-9.7l4.2-1.6
			c1.2,3.2,2.4,6.5,3.6,9.8c0.4,1.3,0.9,2.6,1.3,3.8L424.6,205.4z M105.2,196.6L101,195c1.6-4.4,3.4-9,5.2-13.5l4.2,1.7
			C108.6,187.8,106.8,192.3,105.2,196.6z M414.4,178.7c-1.9-4.4-3.9-8.8-5.9-13l4-2c2.1,4.3,4.1,8.7,6,13.2L414.4,178.7z M116,170.1
			l-4.1-1.9c2.1-4.5,4.2-8.9,6.4-13l4,2.1C120.2,161.4,118,165.7,116,170.1z M401.9,153c-2.4-4.3-4.9-8.4-7.4-12.1l3.7-2.5
			c2.5,3.8,5.1,8,7.6,12.4L401.9,153z M129.4,145l-3.8-2.4l0.6-1c2.5-3.9,5-7.6,7.6-11l3.6,2.7c-2.5,3.4-5,7-7.4,10.8L129.4,145z
			 M385.7,129.5c-0.2-0.3-0.4-0.5-0.5-0.8c-0.7-1.3-1.5-2.3-2.2-3.3c-1.9-2.3-3.9-4.6-6-6.8l3.2-3.1c2.2,2.3,4.3,4.6,6.2,7.1
			c0.9,1.1,1.8,2.4,2.6,3.8c0.1,0.2,0.3,0.4,0.4,0.7L385.7,129.5z M146.4,122.3l-3.3-3c3.3-3.7,6.8-7.2,10.4-10.3l3,3.4
			C153,115.3,149.7,118.7,146.4,122.3z M366.5,109.1c-0.6-0.5-1.3-1-1.9-1.5c-3-2.3-6.1-4.5-9.5-6.7l2.4-3.8c3.6,2.3,6.8,4.6,9.9,7
			c0.7,0.5,1.3,1,2,1.6L366.5,109.1z M167.6,103.7l-2.5-3.7c3-2.1,6.3-4.1,10.1-6.4c0.8-0.4,1.5-0.9,2.3-1.3l2.2,3.9
			c-0.7,0.4-1.5,0.8-2.2,1.3C173.8,99.6,170.6,101.7,167.6,103.7z M342.7,93.8c-4.2-2.2-8.5-4.2-12.9-6.1l1.8-4.1
			c4.5,1.9,8.9,4,13.2,6.2L342.7,93.8z M192.3,89.7l-1.9-4.1c4.5-2.1,9-4,13.4-5.7l1.6,4.2C201.1,85.8,196.7,87.6,192.3,89.7z
			 M316.6,82.6c-0.5-0.2-1-0.3-1.4-0.5c-3.8-1.3-7.8-2.4-12.2-3.5l1.1-4.4c4.5,1.1,8.6,2.3,12.5,3.6c0.5,0.2,1,0.3,1.5,0.5
			L316.6,82.6z M218.9,79.7l-1.2-4.3c3.1-0.9,6.2-1.6,9.1-2.2c1.7-0.3,3.4-0.7,5.1-1.1l0.9,4.4c-1.7,0.4-3.4,0.7-5.1,1.1
			C224.9,78.1,221.9,78.8,218.9,79.7z M289,75.5c-1.5-0.3-3.1-0.5-4.7-0.7c-1.2-0.1-2.5-0.3-3.7-0.5c-1.8-0.3-3.7-0.5-5.6-0.6
			l0.3-4.5c2,0.1,4,0.4,5.9,0.7c1.2,0.2,2.5,0.3,3.7,0.5c1.7,0.2,3.4,0.5,5,0.8L289,75.5z M246.7,74l-0.5-4.5
			c1.5-0.2,2.9-0.2,4.3-0.2h0.9c0.5,0,0.9,0,1.2-0.1l0.2-0.1c2.3-0.5,4.8-0.7,7.9-0.8v4.5c-2.7,0-5,0.2-6.9,0.6
			c-0.9,0.3-1.7,0.3-2.4,0.3h-0.9C249.3,73.8,248,73.9,246.7,74z"/>
	</g>
</g>
</svg>
