<?xml version="1.0" encoding="utf-8"?>
<!-- Generator: Adobe Illustrator 26.3.1, SVG Export Plug-In . SVG Version: 6.00 Build 0)  -->
<svg version="1.1" id="Layer_3" xmlns="http://www.w3.org/2000/svg" xmlns:xlink="http://www.w3.org/1999/xlink" x="0px" y="0px"
	 viewBox="0 0 699.1 2238.2" style="enable-background:new 0 0 699.1 2238.2;" xml:space="preserve">
<style type="text/css">
	.st0{fill:#7900FF;}
	.st1{fill:#005EFF;}
	.st2{fill:#ED1E77;}
	.st3{fill:#38E841;}
</style>
<g>
	<g>
		<path class="st0" d="M345.8,2237.2c-5.6,0-50.5-0.4-102.3-12.6c-32.4-7.6-61-18.2-85.2-31.6c-30.3-16.8-53.7-38-69.3-63
			c-0.5-0.7-12.3-18.5-22.5-63.9c-9.4-41.6-19-115.3-11.8-230.3c-0.3-11.1-18.2-633.4-29.9-799.8l-20-310.6
			c-0.1-2.3-11.8-227.4,10-332.7l0-0.2c1-10.4,10.6-104,54.1-196.2c25.9-54.9,58.9-99,97.9-131.2c48.6-40,106.9-61.4,173.3-63.6
			c2.9-0.4,53-6.1,112.4,15.6c35.8,13.1,67.9,33.4,95.5,60.5c34.5,33.7,61.9,78,81.6,131.7c1,2.2,20.6,46.3,38.3,120.5
			c16.6,69.9,35,181.6,27.7,316.9c-0.1,2.5-8,254.2-12,308.6c-0.2,4-23.9,405.6-25.9,469.7c-0.1,3.5-8,356.3-6,424.4
			c0.2,2.3,4.8,60-3.7,128.9c-5.1,41.1-13.8,78.1-25.9,110c-15.1,39.9-35.5,71.8-60.7,94.9c-2.9,4.5-34.7,46.3-215.2,53.9
			C346.4,2237.2,346.2,2237.2,345.8,2237.2z M19.3,393.7L19.3,393.7C-2.4,498.4,9.2,723,9.3,725.3l20,310.6
			c11.8,167.1,29.7,793.8,29.9,800.1l0,0.1l0,0.1c-7.2,114.1,2.3,187.3,11.5,228.6c10,44.7,21.9,62.7,22,62.9
			c15.3,24.4,38.1,45,67.7,61.4c23.8,13.2,52.1,23.7,84,31.2c54.5,12.8,101.4,12.5,101.8,12.5c95.7-4,148.1-18,175.3-28.9
			c29.4-11.9,36.2-22.9,36.3-23l0.2-0.3l0.3-0.2c24.8-22.6,44.9-54,59.8-93.3c11.9-31.5,20.6-68.2,25.6-108.9
			c8.6-69.5,3.8-127.5,3.7-128.1l0-0.1c-2-68.1,5.9-421.2,6-424.7c2-64.2,25.7-465.8,25.9-469.9c4-54.4,11.9-306,12-308.5
			c7.2-134.9-11-246.1-27.6-315.7c-17.9-75.3-37.8-119.3-38-119.7l-0.1-0.2c-19.4-53-46.5-96.7-80.4-130
			c-27.1-26.6-58.7-46.6-93.8-59.5C391.4-0.4,341.2,6.1,340.7,6.1l-0.2,0c-65.4,2.2-122.8,23.3-170.7,62.6
			c-38.5,31.7-71.1,75.3-96.7,129.6c-43.2,91.5-52.7,184.4-53.7,194.7C19.4,393.3,19.3,393.5,19.3,393.7z"/>
	</g>
	<g>
		<g>
			<g>
				<g>
					<path class="st1" d="M404.3,437.5c-6.8,0-12.3-5.6-12.3-12.4c0-6.9,5.5-12.5,12.3-12.5s12.4,5.6,12.4,12.5
						C416.7,432,411.1,437.5,404.3,437.5z M404.3,417.2c-4.3,0-7.8,3.6-7.8,8s3.5,7.9,7.8,7.9s7.9-3.6,7.9-7.9
						C412.2,420.7,408.6,417.2,404.3,417.2z"/>
				</g>
				<g>
					<path class="st1" d="M404.3,437.5c-6.8,0-12.3-5.6-12.3-12.4c0-6.9,5.5-12.5,12.3-12.5s12.4,5.6,12.4,12.5
						C416.7,432,411.1,437.5,404.3,437.5z M404.3,417.2c-4.3,0-7.8,3.6-7.8,8s3.5,7.9,7.8,7.9s7.9-3.6,7.9-7.9
						C412.2,420.7,408.6,417.2,404.3,417.2z"/>
				</g>
			</g>
			<g>
				<g>
					<path class="st1" d="M294.8,437.5c-6.8,0-12.3-5.6-12.3-12.4c0-6.9,5.5-12.5,12.3-12.5s12.4,5.6,12.4,12.5
						C307.1,432,301.6,437.5,294.8,437.5z M294.8,417.2c-4.3,0-7.8,3.6-7.8,8s3.5,7.9,7.8,7.9s7.9-3.6,7.9-7.9
						C302.6,420.7,299.1,417.2,294.8,417.2z"/>
				</g>
				<g>
					<path class="st1" d="M294.8,437.5c-6.8,0-12.3-5.6-12.3-12.4c0-6.9,5.5-12.5,12.3-12.5s12.4,5.6,12.4,12.5
						C307.1,432,301.6,437.5,294.8,437.5z M294.8,417.2c-4.3,0-7.8,3.6-7.8,8s3.5,7.9,7.8,7.9s7.9-3.6,7.9-7.9
						C302.6,420.7,299.1,417.2,294.8,417.2z"/>
				</g>
			</g>
			<g>
				<g>
					<path class="st1" d="M404.3,582.8c-6.8,0-12.3-5.6-12.3-12.5s5.5-12.4,12.3-12.4s12.4,5.6,12.4,12.4
						C416.7,577.2,411.1,582.8,404.3,582.8z M404.3,562.4c-4.3,0-7.8,3.6-7.8,7.9c0,4.4,3.5,8,7.8,8s7.9-3.6,7.9-8
						C412.2,565.9,408.6,562.4,404.3,562.4z"/>
				</g>
				<g>
					<path class="st1" d="M404.3,582.8c-6.8,0-12.3-5.6-12.3-12.5s5.5-12.4,12.3-12.4s12.4,5.6,12.4,12.4
						C416.7,577.2,411.1,582.8,404.3,582.8z M404.3,562.4c-4.3,0-7.8,3.6-7.8,7.9c0,4.4,3.5,8,7.8,8s7.9-3.6,7.9-8
						C412.2,565.9,408.6,562.4,404.3,562.4z"/>
				</g>
			</g>
			<g>
				<g>
					<path class="st1" d="M294.8,582.8c-6.8,0-12.3-5.6-12.3-12.5s5.5-12.4,12.3-12.4s12.4,5.6,12.4,12.4
						C307.1,577.2,301.6,582.8,294.8,582.8z M294.8,562.4c-4.3,0-7.8,3.6-7.8,7.9c0,4.4,3.5,8,7.8,8s7.9-3.6,7.9-8
						C302.6,565.9,299.1,562.4,294.8,562.4z"/>
				</g>
				<g>
					<path class="st1" d="M294.8,582.8c-6.8,0-12.3-5.6-12.3-12.5s5.5-12.4,12.3-12.4s12.4,5.6,12.4,12.4
						C307.1,577.2,301.6,582.8,294.8,582.8z M294.8,562.4c-4.3,0-7.8,3.6-7.8,7.9c0,4.4,3.5,8,7.8,8s7.9-3.6,7.9-8
						C302.6,565.9,299.1,562.4,294.8,562.4z"/>
				</g>
			</g>
		</g>
	</g>
	<g>
		<g>
			<g>
				<g>
					<path class="st1" d="M404.3,1633.1c-6.8,0-12.3-5.6-12.3-12.4c0-6.9,5.5-12.5,12.3-12.5s12.4,5.6,12.4,12.5
						C416.7,1627.6,411.1,1633.1,404.3,1633.1z M404.3,1612.8c-4.3,0-7.8,3.6-7.8,8s3.5,7.9,7.8,7.9s7.9-3.6,7.9-7.9
						C412.2,1616.3,408.6,1612.8,404.3,1612.8z"/>
				</g>
				<g>
					<path class="st1" d="M404.3,1633.1c-6.8,0-12.3-5.6-12.3-12.4c0-6.9,5.5-12.5,12.3-12.5s12.4,5.6,12.4,12.5
						C416.7,1627.6,411.1,1633.1,404.3,1633.1z M404.3,1612.8c-4.3,0-7.8,3.6-7.8,8s3.5,7.9,7.8,7.9s7.9-3.6,7.9-7.9
						C412.2,1616.3,408.6,1612.8,404.3,1612.8z"/>
				</g>
			</g>
			<g>
				<g>
					<path class="st1" d="M294.8,1633.1c-6.8,0-12.3-5.6-12.3-12.4c0-6.9,5.5-12.5,12.3-12.5s12.4,5.6,12.4,12.5
						C307.1,1627.6,301.6,1633.1,294.8,1633.1z M294.8,1612.8c-4.3,0-7.8,3.6-7.8,8s3.5,7.9,7.8,7.9s7.9-3.6,7.9-7.9
						C302.6,1616.3,299.1,1612.8,294.8,1612.8z"/>
				</g>
				<g>
					<path class="st1" d="M294.8,1633.1c-6.8,0-12.3-5.6-12.3-12.4c0-6.9,5.5-12.5,12.3-12.5s12.4,5.6,12.4,12.5
						C307.1,1627.6,301.6,1633.1,294.8,1633.1z M294.8,1612.8c-4.3,0-7.8,3.6-7.8,8s3.5,7.9,7.8,7.9s7.9-3.6,7.9-7.9
						C302.6,1616.3,299.1,1612.8,294.8,1612.8z"/>
				</g>
			</g>
			<g>
				<g>
					<path class="st1" d="M404.3,1778.4c-6.8,0-12.3-5.6-12.3-12.5s5.5-12.4,12.3-12.4s12.4,5.6,12.4,12.4
						C416.7,1772.8,411.1,1778.4,404.3,1778.4z M404.3,1758c-4.3,0-7.8,3.6-7.8,7.9c0,4.4,3.5,8,7.8,8s7.9-3.6,7.9-8
						C412.2,1761.5,408.6,1758,404.3,1758z"/>
				</g>
				<g>
					<path class="st1" d="M404.3,1778.4c-6.8,0-12.3-5.6-12.3-12.5s5.5-12.4,12.3-12.4s12.4,5.6,12.4,12.4
						C416.7,1772.8,411.1,1778.4,404.3,1778.4z M404.3,1758c-4.3,0-7.8,3.6-7.8,7.9c0,4.4,3.5,8,7.8,8s7.9-3.6,7.9-8
						C412.2,1761.5,408.6,1758,404.3,1758z"/>
				</g>
			</g>
			<g>
				<g>
					<path class="st1" d="M294.8,1778.4c-6.8,0-12.3-5.6-12.3-12.5s5.5-12.4,12.3-12.4s12.4,5.6,12.4,12.4
						C307.1,1772.8,301.6,1778.4,294.8,1778.4z M294.8,1758c-4.3,0-7.8,3.6-7.8,7.9c0,4.4,3.5,8,7.8,8s7.9-3.6,7.9-8
						C302.6,1761.5,299.1,1758,294.8,1758z"/>
				</g>
				<g>
					<path class="st1" d="M294.8,1778.4c-6.8,0-12.3-5.6-12.3-12.5s5.5-12.4,12.3-12.4s12.4,5.6,12.4,12.4
						C307.1,1772.8,301.6,1778.4,294.8,1778.4z M294.8,1758c-4.3,0-7.8,3.6-7.8,7.9c0,4.4,3.5,8,7.8,8s7.9-3.6,7.9-8
						C302.6,1761.5,299.1,1758,294.8,1758z"/>
				</g>
			</g>
		</g>
	</g>
</g>
<g>
	<path class="st2" d="M345.2,2182.8c-1.6,0-6.7,0-14.5-0.5l0.2-3.7c7.9,0.4,12.9,0.5,14.3,0.5c3.7-0.2,7.5-0.3,11.1-0.5l0.2,3.7
		c-3.7,0.2-7.4,0.4-11.2,0.5C345.2,2182.8,345.2,2182.8,345.2,2182.8z M370.9,2181.3l-0.3-3.7c4.8-0.3,9.7-0.7,14.3-1.1l0.3,3.7
		C380.6,2180.6,375.8,2181,370.9,2181.3z M316.3,2181.2c-4.8-0.4-9.6-0.9-14.4-1.5l0.4-3.7c4.7,0.6,9.5,1.1,14.3,1.5L316.3,2181.2z
		 M399.7,2178.9l-0.4-3.7c4.8-0.5,9.6-1,14.3-1.6l0.4,3.7C409.3,2177.9,404.5,2178.4,399.7,2178.9z M287.5,2177.7
		c-4.8-0.7-9.6-1.6-14.3-2.5l0.7-3.6c4.6,0.9,9.4,1.7,14.1,2.4L287.5,2177.7z M428.3,2175.4l-0.5-3.7c4.8-0.7,9.6-1.5,14.2-2.2
		l0.6,3.7C438,2173.9,433.2,2174.7,428.3,2175.4z M259.1,2172.3c-2.7-0.6-5.5-1.3-8.2-1.9c-1.9-0.5-3.9-1-5.9-1.5l1-3.6
		c2,0.5,3.9,1,5.8,1.5c2.7,0.7,5.4,1.3,8.1,1.9L259.1,2172.3z M456.8,2170.5l-0.7-3.6c4.8-1,9.5-2,14-3.1l0.9,3.6
		C466.4,2168.4,461.6,2169.5,456.8,2170.5z M231.2,2164.8c-4.7-1.5-9.3-3.1-13.7-4.7l1.3-3.5c4.4,1.6,8.9,3.2,13.5,4.6L231.2,2164.8
		z M484.9,2163.6l-1.1-3.6c4.8-1.4,9.4-2.9,13.5-4.5l1.3,3.5C494.4,2160.6,489.8,2162.1,484.9,2163.6z M204,2154.7
		c-4.5-2-8.9-4-13.1-6.2l1.7-3.3c4.1,2.1,8.5,4.2,12.9,6.1L204,2154.7z M512.1,2153.3l-1.7-3.3c1.9-0.9,3.5-1.8,5-2.7l0.4-0.7l5.4-5
		l2.5,2.7l-5,4.6l-0.6,1.1l-0.4,0.3C516.1,2151.2,514.2,2152.2,512.1,2153.3z M178.2,2141.4c-4.2-2.6-8.3-5.3-12.1-8.1l2.2-3
		c3.7,2.7,7.7,5.4,11.8,7.9L178.2,2141.4z M534,2134l-2.8-2.5c3.1-3.4,6.1-7.1,9-11l3,2.2C540.3,2126.7,537.2,2130.5,534,2134z
		 M154.8,2124.1c-3.7-3.4-7.1-6.9-10.2-10.5l2.8-2.4c3,3.5,6.3,6.9,9.9,10.1L154.8,2124.1z M551.4,2110.7l-3.1-2
		c2.4-3.9,4.8-8.1,7.1-12.4l3.3,1.7C556.3,2102.4,553.9,2106.7,551.4,2110.7z M135.8,2101.9c-0.2-0.3-0.4-0.6-0.5-0.9l-0.2-0.4
		c-0.4-0.6-2.4-4.5-5.4-12.3l3.5-1.3c2.9,7.6,4.9,11.4,5.2,11.8l0.1,0.2c0.2,0.2,0.3,0.5,0.5,0.7L135.8,2101.9z M565,2085l-3.4-1.5
		c1.9-4.2,3.8-8.7,5.5-13.2l3.5,1.3C568.8,2076.3,566.9,2080.7,565,2085z M125.1,2074.7c-1.3-4.4-2.6-9.1-3.8-14l3.6-0.9
		c1.2,4.8,2.5,9.4,3.8,13.8L125.1,2074.7z M575.5,2058.1l-3.5-1.2c1.5-4.4,2.9-9,4.3-13.7l3.6,1
		C578.5,2048.9,577,2053.6,575.5,2058.1z M118.1,2046.6c-0.9-4.6-1.8-9.4-2.6-14.2l3.7-0.6c0.8,4.8,1.7,9.6,2.6,14.1L118.1,2046.6z
		 M583.6,2030.3l-3.6-0.9c1.1-4.5,2.2-9.2,3.2-14l3.6,0.8C585.9,2021,584.8,2025.7,583.6,2030.3z M113.2,2018.1
		c-0.6-4.6-1.3-9.5-1.8-14.3l3.7-0.4c0.6,4.8,1.2,9.6,1.8,14.2L113.2,2018.1z M589.7,2002l-3.6-0.7c0.8-4.6,1.6-9.4,2.4-14.1
		l3.7,0.6C591.3,1992.6,590.5,1997.4,589.7,2002z M110,1989.4c-0.4-4.7-0.8-9.5-1.2-14.4l3.7-0.3c0.3,4.8,0.7,9.6,1.2,14.3
		L110,1989.4z M594,1973.5l-3.7-0.5l0.1-0.7c0.6-4.4,1.1-9,1.5-13.5l3.7,0.4c-0.5,4.6-1,9.2-1.5,13.6L594,1973.5z M107.9,1960.6
		c-0.2-4.7-0.5-9.6-0.6-14.4l3.7-0.1c0.2,4.8,0.4,9.6,0.6,14.4L107.9,1960.6z M596.9,1944.7l-3.7-0.3c0.4-4.7,0.7-9.6,0.9-14.3
		l3.7,0.2C597.6,1935.1,597.3,1940,596.9,1944.7z M106.9,1931.8c-0.1-4.7-0.1-9.6-0.2-14.4l3.7,0c0,4.8,0.1,9.7,0.2,14.4
		L106.9,1931.8z M598.5,1915.9l-3.7-0.1c0.2-4.8,0.3-9.6,0.3-14.4l3.7,0C598.8,1906.2,598.7,1911.1,598.5,1915.9z M110.5,1903
		l-3.7,0c0-4.7,0.1-9.6,0.2-14.4l3.7,0.1C110.6,1893.4,110.5,1898.2,110.5,1903z M595.2,1887c0-4.8-0.1-9.7-0.3-14.4l3.7-0.1
		c0.1,4.7,0.2,9.6,0.3,14.4L595.2,1887z M111.1,1874.2l-3.7-0.1c0.2-4.7,0.4-9.6,0.6-14.4l3.7,0.2
		C111.5,1864.7,111.3,1869.5,111.1,1874.2z M594.3,1858.3c-0.1-1.7-0.2-2.8-0.2-3.4c0-0.2,0-0.4,0-0.5h0l-0.1-1.6v-1.5
		c-0.1-2.2-0.1-4.7-0.2-7.4l3.7-0.1c0,2.7,0.1,5.2,0.2,7.4v1.5l0.1,1.9c0,0.6,0.1,1.8,0.2,3.5L594.3,1858.3z M112.5,1845.5l-3.7-0.2
		c0.1-2,0.2-4,0.4-6.1l0.2-2.4l-0.1-2.4c0-0.3,0-1.4-0.1-3.4l3.7-0.1c0.1,2,0.1,3.1,0.1,3.4l0.1,2.6l-0.2,2.6
		C112.7,1841.5,112.6,1843.5,112.5,1845.5z M593.6,1829.4c0-3.7,0-7.7,0-11.9v-2.5l3.7,0l0,2.5c0,4.2,0,8.2,0,11.9L593.6,1829.4z
		 M108.7,1816.4l-0.4-14.5l3.7-0.1l0.4,14.5L108.7,1816.4z M597.4,1800.6l-3.7,0c0-4.6,0-9.4,0.1-14.4l3.7,0
		C597.4,1791.2,597.4,1796,597.4,1800.6z M107.9,1787.5l-0.4-14.4l3.7-0.1l0.4,14.4L107.9,1787.5z M597.6,1771.8l-3.7,0
		c0-4.7,0.1-9.5,0.1-14.4l3.7,0C597.7,1762.3,597.6,1767.1,597.6,1771.8z M107,1758.6l-0.4-14.4l3.7-0.1l0.4,14.4L107,1758.6z
		 M597.9,1742.9l-3.7,0c0.1-4.7,0.1-9.5,0.2-14.4l3.7,0C598,1733.4,597.9,1738.2,597.9,1742.9z M106.1,1729.8l-0.4-14.4l3.7-0.1
		l0.4,14.4L106.1,1729.8z M598.2,1714.1l-3.7-0.1l0.2-14.4l3.7,0.1L598.2,1714.1z M105.3,1701l-0.4-14.4l3.7-0.1l0.4,14.4
		L105.3,1701z M598.7,1685.2l-3.7-0.1l0.2-14.4l3.7,0.1L598.7,1685.2z M104.4,1672.1l-0.4-14.4l3.7-0.1l0.4,14.4L104.4,1672.1z
		 M599.1,1656.4l-3.7-0.1l0.2-14.5l3.7,0.1L599.1,1656.4z M103.5,1643.3l-0.5-14.4l3.7-0.1l0.5,14.4L103.5,1643.3z M599.6,1627.5
		l-3.7-0.1l0.3-14.4l3.7,0.1L599.6,1627.5z M102.6,1614.5l-0.5-14.4l3.7-0.1l0.5,14.4L102.6,1614.5z M600.1,1598.7l-3.7-0.1
		l0.3-14.4l3.7,0.1L600.1,1598.7z M101.6,1585.6l-0.5-14.4l3.7-0.1l0.5,14.4L101.6,1585.6z M600.7,1569.9l-3.7-0.1l0.3-14.4l3.7,0.1
		L600.7,1569.9z M100.7,1556.8l-0.5-14.4l3.7-0.1l0.5,14.4L100.7,1556.8z M601.2,1541l-3.7-0.1l0.3-14.4l3.7,0.1L601.2,1541z
		 M99.8,1528l-0.5-14.4l3.7-0.1l0.5,14.4L99.8,1528z M601.8,1512.2l-3.7-0.1l0.3-14.4l3.7,0.1L601.8,1512.2z M98.8,1499.2l-0.5-14.4
		l3.7-0.1l0.5,14.4L98.8,1499.2z M602.4,1483.3l-3.7-0.1l0.3-14.4l3.7,0.1L602.4,1483.3z M97.8,1470.4l-0.5-14.4l3.7-0.1l0.5,14.4
		L97.8,1470.4z M603,1454.5l-3.7-0.1l0.3-14.4l3.7,0.1L603,1454.5z M96.9,1441.6l-0.5-14.4l3.7-0.1l0.5,14.4L96.9,1441.6z
		 M603.6,1425.5l-3.7-0.1l0-2.1c0.1-3.3,0.3-7.5,0.5-12.4l3.7,0.2c-0.2,4.9-0.4,9.1-0.5,12.3L603.6,1425.5z M95.9,1412.8l-0.5-14.4
		l3.7-0.1l0.5,14.4L95.9,1412.8z M604.8,1396.7l-3.7-0.2c0.2-4.5,0.4-9.3,0.7-14.4l3.7,0.2C605.2,1387.4,605,1392.2,604.8,1396.7z
		 M94.8,1384l-0.5-14.4l3.7-0.1l0.5,14.4L94.8,1384z M606.2,1367.8l-3.7-0.2c0.2-4.6,0.5-9.4,0.7-14.4l3.7,0.2
		C606.7,1358.4,606.4,1363.2,606.2,1367.8z M93.8,1355.2l-0.5-14.4l3.7-0.1l0.5,14.4L93.8,1355.2z M607.7,1339l-3.7-0.2l0.8-14.4
		l3.7,0.2L607.7,1339z M92.7,1326.3l-0.5-14.4l3.7-0.1l0.5,14.4L92.7,1326.3z M609.2,1310.2l-3.7-0.2l0.8-14.4l3.7,0.2L609.2,1310.2
		z M91.7,1297.5l-0.5-14.4l3.7-0.1l0.5,14.4L91.7,1297.5z M610.8,1281.3l-3.7-0.2l0.8-14.4l3.7,0.2L610.8,1281.3z M90.6,1268.7
		l-0.6-14.4l3.7-0.1l0.6,14.4L90.6,1268.7z M612.4,1252.5l-3.7-0.2l0.8-14.4l3.7,0.2L612.4,1252.5z M89.4,1239.9
		c-0.2-4.8-0.4-9.6-0.6-14.4l3.7-0.2c0.2,4.8,0.4,9.6,0.6,14.4L89.4,1239.9z M614,1223.7l-3.7-0.2l0.8-14.4l3.7,0.2L614,1223.7z
		 M88.2,1211.1c-0.2-4.8-0.4-9.7-0.6-14.4l3.7-0.2c0.2,4.8,0.4,9.6,0.6,14.4L88.2,1211.1z M615.6,1194.9l-3.7-0.2l0.8-14.4l3.7,0.2
		L615.6,1194.9z M87,1182.3c-0.2-4.9-0.4-9.7-0.6-14.4l3.7-0.2c0.2,4.7,0.4,9.5,0.6,14.4L87,1182.3z M617.2,1166.1l-3.7-0.2
		l0.8-14.4l3.7,0.2L617.2,1166.1z M85.8,1153.5c-0.2-4.9-0.4-9.7-0.7-14.4l3.7-0.2c0.2,4.7,0.4,9.5,0.7,14.4L85.8,1153.5z
		 M618.9,1137.3l-3.7-0.2l0.8-14.4l3.7,0.2L618.9,1137.3z M84.4,1124.7c-0.2-4.9-0.5-9.7-0.7-14.4l3.7-0.2c0.2,4.7,0.5,9.5,0.7,14.4
		L84.4,1124.7z M620.5,1108.5l-3.7-0.2l0.8-14.4l3.7,0.2L620.5,1108.5z M83,1095.9c-0.3-4.9-0.5-9.7-0.8-14.4l3.7-0.2
		c0.3,4.7,0.5,9.5,0.8,14.4L83,1095.9z M622.2,1079.7l-3.7-0.2l0.8-14.4l3.7,0.2L622.2,1079.7z M81.4,1067c-0.3-5-0.6-9.8-0.9-14.4
		l3.7-0.2c0.3,4.6,0.6,9.4,0.9,14.4L81.4,1067z M623.9,1050.9l-3.7-0.2l0.8-14.4l3.7,0.2L623.9,1050.9z M79.7,1038.3
		c-0.1-2-0.3-4-0.4-5.9l-0.5-8.4l3.7-0.2l0.5,8.4c0.1,1.9,0.3,3.9,0.4,5.9L79.7,1038.3z M625.5,1022.1l-3.7-0.2l0.8-14.4l3.7,0.2
		L625.5,1022.1z M77.8,1009.5l-0.9-14.4l3.7-0.2l0.9,14.4L77.8,1009.5z M627.2,993.2l-3.7-0.2l0.8-14.4l3.7,0.2L627.2,993.2z
		 M75.9,980.8L75,966.4l3.7-0.2l0.9,14.4L75.9,980.8z M628.9,964.3l-3.7-0.2c0.4-6.4,0.6-10.6,0.7-12.1l0-0.8l0.1-1.7l3.7,0.3
		l-0.1,2.4C629.6,953.6,629.3,957.8,628.9,964.3z M74.1,952l-0.9-14.4l3.7-0.2l0.9,14.4L74.1,952z M630.6,935.4l-3.7-0.2
		c0.2-4.4,0.5-9.2,0.7-14.4l3.7,0.2C631.1,926.2,630.9,931,630.6,935.4z M72.3,923.3l-0.9-14.4l3.7-0.2l0.9,14.4L72.3,923.3z
		 M632.1,906.5l-3.7-0.2c0.2-4.6,0.4-9.4,0.6-14.4l3.7,0.2C632.5,897.1,632.3,901.9,632.1,906.5z M70.4,894.5l-0.9-14.4l3.7-0.2
		l0.9,14.4L70.4,894.5z M633.3,877.7l-3.7-0.2c0.2-4.7,0.4-9.5,0.6-14.4l3.7,0.1C633.7,868.2,633.5,873,633.3,877.7z M68.6,865.8
		l-0.9-14.4l3.7-0.2l0.9,14.4L68.6,865.8z M634.5,848.8l-3.7-0.1c0.2-4.8,0.4-9.6,0.6-14.4l3.7,0.1
		C634.8,839.3,634.6,844.1,634.5,848.8z M66.7,837.1l-0.9-14.4l3.7-0.2l0.9,14.4L66.7,837.1z M635.5,820l-3.7-0.1
		c0.2-4.8,0.4-9.6,0.5-14.4l3.7,0.1C635.9,810.4,635.7,815.2,635.5,820z M64.9,808.3L63.9,794l3.7-0.2l0.9,14.4L64.9,808.3z
		 M636.6,791.1l-3.7-0.1l0.5-14.4l3.7,0.1L636.6,791.1z M63,779.6l-0.9-14.4l3.7-0.2l0.9,14.4L63,779.6z M637.6,762.3l-3.7-0.1
		l0.5-14.4l3.7,0.1L637.6,762.3z M61.2,750.8l-0.9-14.4l3.7-0.2l0.9,14.4L61.2,750.8z M638.6,733.4l-3.7-0.1l0.5-14.4l3.7,0.1
		L638.6,733.4z M59.3,722.1c-0.1-1.6-0.3-6.7-0.7-14.4l3.7-0.2c0.3,8,0.6,13.1,0.7,14.4L59.3,722.1z M639.6,704.6l-3.7-0.1l0.5-14.4
		l3.7,0.1L639.6,704.6z M58.1,693.2c-0.2-4.4-0.3-9.2-0.5-14.4l3.7-0.1c0.2,5.2,0.3,10,0.5,14.4L58.1,693.2z M640.6,675.7l-3.7-0.1
		l0.5-14.4l3.7,0.1L640.6,675.7z M57.2,664.4c-0.1-4.6-0.2-9.4-0.4-14.4l3.7-0.1c0.1,5,0.2,9.8,0.4,14.4L57.2,664.4z M641.5,646.8
		l-3.7-0.1l0-2.9c0.2-3.9,0.4-7.8,0.6-11.6l3.7,0.2c-0.2,3.8-0.3,7.7-0.6,11.5l0,1.2L641.5,646.8z M56.6,635.6
		c-0.1-4.7-0.2-9.5-0.2-14.4l3.7,0c0.1,4.9,0.1,9.7,0.2,14.4L56.6,635.6z M642.6,618l-3.7-0.1c0.1-4.8,0.2-9.6,0.3-14.4l3.7,0.1
		C642.9,608.3,642.8,613.2,642.6,618z M56.2,606.8c0-4.7-0.1-9.5-0.1-14.4l3.7,0c0,4.9,0,9.7,0.1,14.4L56.2,606.8z M643.1,589.1
		l-3.7,0l0-3.1c0-3.8,0-7.6-0.1-11.3l3.7,0c0,3.8,0.1,7.5,0.1,11.3L643.1,589.1z M59.9,578l-3.7,0c0-4.8,0.1-9.6,0.1-14.4l3.7,0
		C59.9,568.4,59.9,573.2,59.9,578z M639.1,560.4c-0.1-4.8-0.3-9.6-0.4-14.4l3.7-0.1c0.2,4.8,0.3,9.6,0.4,14.4L639.1,560.4z
		 M60.2,549.2l-3.7-0.1c0.1-4.8,0.2-9.6,0.3-14.4l3.7,0.1C60.4,539.6,60.3,544.4,60.2,549.2z M638,531.6c-0.2-4.8-0.5-9.6-0.8-14.4
		l3.7-0.2c0.3,4.7,0.6,9.6,0.8,14.4L638,531.6z M60.9,520.4l-3.7-0.1c0.2-4.9,0.4-9.8,0.6-14.4l3.7,0.2
		C61.3,510.7,61.1,515.5,60.9,520.4z M636.2,502.9c-0.4-4.8-0.8-9.6-1.2-14.3l3.7-0.3c0.4,4.7,0.8,9.6,1.2,14.4L636.2,502.9z
		 M62.2,491.7l-3.7-0.2c0.3-4.9,0.6-9.8,0.9-14.4l3.7,0.2C62.7,481.9,62.4,486.8,62.2,491.7z M633.6,474.3c-0.5-4.7-1-9.5-1.6-14.3
		l3.7-0.4c0.6,4.8,1.1,9.6,1.6,14.3L633.6,474.3z M64.1,463l-3.7-0.3c0.4-5,0.9-9.8,1.3-14.4l3.7,0.4C64.9,453.2,64.5,458,64.1,463z
		 M630.3,445.7c-0.6-4.8-1.3-9.6-2-14.2l3.7-0.5c0.7,4.7,1.3,9.5,2,14.3L630.3,445.7z M67,434.4l-3.7-0.5c0.6-5,1.3-9.8,2-14.3
		l3.7,0.6C68.3,424.6,67.6,429.4,67,434.4z M626.2,417.3c-0.7-4.7-1.5-9.5-2.3-14.2l3.7-0.6c0.8,4.7,1.6,9.5,2.4,14.2L626.2,417.3z
		 M71.5,406.1l-3.6-0.7c0.1-0.6,0.2-1.1,0.3-1.7l0.7-3.2l0.3-3.2c0,0,0.2-2,0.6-6l3.7,0.4c-0.5,3.8-0.6,5.9-0.6,5.9l-0.3,3.5
		l-0.7,3.3C71.7,404.9,71.6,405.5,71.5,406.1z M621.3,389c-0.9-4.7-1.8-9.4-2.8-14.1l3.6-0.7c0.9,4.7,1.9,9.4,2.8,14.2L621.3,389z
		 M75.4,377.4l-3.7-0.5c0.7-4.6,1.5-9.5,2.3-14.3l3.7,0.6C76.9,368,76.1,372.8,75.4,377.4z M615.6,360.8c-1-4.7-2.1-9.4-3.2-14
		l3.6-0.8c1.1,4.6,2.2,9.4,3.2,14.1L615.6,360.8z M80.4,349.1l-3.6-0.7c0.9-4.7,1.9-9.4,3-14.1l3.6,0.8
		C82.3,339.7,81.3,344.5,80.4,349.1z M609,332.8c-1.2-4.6-2.4-9.3-3.6-13.9l3.6-1c1.2,4.6,2.5,9.3,3.6,14L609,332.8z M86.6,321.1
		l-3.6-0.9c1.2-4.7,2.4-9.4,3.6-14l3.6,1C89,311.7,87.8,316.4,86.6,321.1z M601.6,305c-1.3-4.6-2.7-9.2-4.1-13.8l3.5-1.1
		c1.4,4.6,2.8,9.2,4.1,13.8L601.6,305z M94.2,293.4l-3.6-1.1c1.4-4.6,2.8-9.3,4.3-13.8l3.5,1.1C97,284.1,95.6,288.8,94.2,293.4z
		 M593.2,277.6c-1.5-4.6-3-9.2-4.6-13.6l3.5-1.2c1.5,4.4,3.1,9,4.6,13.7L593.2,277.6z M103.1,266.1l-3.5-1.2c1.6-4.6,3.3-9.1,5-13.6
		l3.5,1.3C106.4,257,104.7,261.5,103.1,266.1z M583.7,250.4c-2.3-6.1-4.1-10.6-5.2-13.4l3.4-1.4c1.1,2.8,3,7.3,5.3,13.5L583.7,250.4
		z M113.5,239.3l-3.4-1.4c1.9-4.5,3.8-8.9,5.8-13.2l3.4,1.5C117.3,230.4,115.3,234.9,113.5,239.3z M573.1,223.7
		c-1.7-4.5-3.5-9-5.4-13.3l3.4-1.5c1.9,4.4,3.7,8.9,5.4,13.4L573.1,223.7z M125.4,213.2l-3.3-1.6c2.2-4.3,4.4-8.7,6.7-12.8l3.3,1.8
		C129.8,204.6,127.5,208.9,125.4,213.2z M561.8,197.3c-2.1-4.4-4.2-8.7-6.4-12.8l3.3-1.7c2.2,4.2,4.4,8.5,6.5,12.9L561.8,197.3z
		 M139,188l-3.2-1.9c2.5-4.2,5-8.3,7.6-12.3l3.1,2C144,179.8,141.5,183.9,139,188z M548.4,172.1c-2.4-4.1-5-8.2-7.6-12.1l3.1-2
		c2.6,4,5.2,8.1,7.7,12.3L548.4,172.1z M154.6,163.9l-3-2.1c2.8-4,5.7-7.9,8.6-11.6l2.9,2.3C160.2,156.1,157.3,160,154.6,163.9z
		 M532.6,148.2c-2.9-3.9-5.8-7.6-8.8-11.2l2.9-2.4c3,3.7,6,7.5,8.9,11.4L532.6,148.2z M172.1,141.3l-2.8-2.4
		c3.2-3.7,6.4-7.3,9.7-10.8l2.7,2.6C178.5,134.1,175.2,137.7,172.1,141.3z M514.4,126.2c-3.3-3.5-6.7-6.9-10.1-10.1l2.5-2.7
		c3.5,3.3,6.9,6.7,10.3,10.3L514.4,126.2z M191.8,120.7l-2.5-2.7c3.5-3.3,7.2-6.5,10.8-9.6l2.5,2.8l-0.1,0.1
		C198.9,114.2,195.3,117.4,191.8,120.7z M493.6,106.7c-3.7-3-7.5-5.9-11.3-8.7l2.2-3c3.9,2.8,7.8,5.8,11.5,8.8L493.6,106.7z
		 M213.8,102.4l-2.2-3c3.9-2.9,7.9-5.6,12-8.2l2,3.1C221.6,96.9,217.6,99.6,213.8,102.4z M470.4,90.1c-3.1-1.9-6.2-3.7-9.3-5.4
		c-1-0.6-2-1.1-3.1-1.6l1.7-3.3c1,0.5,2.1,1.1,3.1,1.7c3.2,1.7,6.4,3.6,9.5,5.5L470.4,90.1z M237.9,87.1l-1.8-3.3
		c4.2-2.3,8.6-4.5,13-6.5l1.6,3.4C246.3,82.6,242,84.8,237.9,87.1z M445.1,76.9c-4.3-1.9-8.8-3.7-13.3-5.3l1.3-3.5
		c4.5,1.6,9.1,3.5,13.5,5.4L445.1,76.9z M263.8,75.1l-1.3-3.5c4.5-1.7,9.1-3.3,13.7-4.8l1.1,3.5C272.7,71.8,268.2,73.4,263.8,75.1z
		 M418.3,67.2c-4.5-1.3-9.2-2.5-13.8-3.5l0.8-3.6c4.7,1,9.5,2.2,14.1,3.5L418.3,67.2z M291,66.6l-0.9-3.6c4.6-1.1,9.4-2.1,14.2-3
		l0.7,3.6C300.2,64.5,295.5,65.5,291,66.6z M319.1,61.5l-0.4-3.7c4.7-0.6,9.6-1,14.4-1.3l0.2,3.7C328.5,60.5,323.7,61,319.1,61.5z
		 M390.4,61.2c-4.7-0.7-9.5-1.3-14.2-1.6l0.3-3.7c4.8,0.4,9.6,1,14.4,1.7L390.4,61.2z M347.7,59.3l-0.4-3.7
		c0.9-0.1,6.3-0.6,14.6-0.5l0,3.7C353.8,58.8,348.6,59.3,347.7,59.3z"/>
</g>
<g>
	<path class="st3" d="M345.7,2209.8L345.7,2209.8c-5,0-49.9-0.4-101.4-13.2c-43.9-11-102.5-34-132.1-81.2l-0.4-0.6
		c-1.2-2-11.4-20-19.8-60.1c-8.3-39.3-16.8-108.9-9.9-217.1l0.1-1.2v-1.1c0-0.2-0.1-1.9-0.1-4.8c-3.1-106.2-19.1-644-29.9-796.2
		l-20-310.5l0-0.9c-1.8-37.8-9.8-231.3,9.6-324.8l0.3-1.5l0.1-1.8c0.9-9.7,10-97,49.9-183.4c24.1-52.1,54.6-93.7,90.7-123.7
		c44.2-36.9,97.5-56.6,158.3-58.6l1.3-0.1l1.1-0.2c0.1,0,6.1-0.8,16.4-0.8c22.9,0,68.4,3.8,115.5,29.6
		c57.5,31.4,100.7,85.7,128.5,161.3l0.8,1.8c0.1,0.3,19.6,43.9,37,117.2c16,67.8,33.7,176.2,26.6,307.4l0,0.5c0,0.3-0.1,2.3-0.2,5.9
		c-3,94.2-8.6,258.7-11.7,301.7l0,0.4c-0.2,3.9-23.9,403.9-26,470.5v0.1l-0.2,7.1c-2.3,106.7-7.5,361-5.8,418.8v0.7l0.1,1.3
		c1,14,3.7,64.4-3.8,123.8c-7.5,59.8-27.2,140.8-77.9,187.2l-2.9,2.6l-1.1,1.9l-0.2,0.2C532.4,2173.9,493.5,2203.5,345.7,2209.8
		L345.7,2209.8z M360,31.6c-9.9,0-15.8,0.8-15.8,0.8l-1.3,0.2l-1.5,0.1c-60,2-112.5,21.4-156.1,57.8
		c-35.6,29.7-65.8,70.9-89.7,122.5c-39.7,85.9-48.7,172.6-49.6,182.2l0,0.2l-0.1,1.8l-0.3,1.7c-19.3,93.1-11.3,286.1-9.5,323.9
		l0,0.9l20,310.5c10.8,152.3,26.8,690.1,29.9,796.3c0.1,2.9,0.1,4.5,0.1,4.8l0,1.3l-0.1,1.3c-6.8,107.8,1.6,177,9.9,216.1
		c8.3,39.6,18.2,57.1,19.3,58.9l0.3,0.5c29,46.2,86.7,68.8,129.9,79.6c50.9,12.6,95.3,13,100.4,13c147.2-6.3,185.5-36.3,190.3-40.5
		l1.1-1.9l3.3-3c49.9-45.6,69.2-125.8,76.7-185c7.7-60.5,4.5-113.1,3.8-123.1c0-0.2,0-0.3,0-0.4l-0.1-1v-0.8
		c-1.7-57.9,3.5-312.3,5.8-419l0.2-7.2c2.1-66.5,25.6-464,26-470.7l0-0.5c3.2-44.5,9.3-225.7,11.7-301.6c0.1-3.6,0.2-5.6,0.2-5.8
		l0-0.5c7-130.9-10.6-238.9-26.6-306.5c-17.5-73.7-36.6-116.1-36.8-116.5l-0.8-2C573,145.3,530.4,91.7,473.7,60.7
		C427.3,35.3,382.5,31.6,360,31.6z"/>
</g>
</svg>
