<?xml version="1.0" encoding="utf-8"?>
<!-- Generator: Adobe Illustrator 26.3.1, SVG Export Plug-In . SVG Version: 6.00 Build 0)  -->
<svg version="1.1" id="Layer_1" xmlns="http://www.w3.org/2000/svg" xmlns:xlink="http://www.w3.org/1999/xlink" x="0px" y="0px"
	 viewBox="0 0 738.1 2336.6" style="enable-background:new 0 0 738.1 2336.6;" xml:space="preserve">
<style type="text/css">
	.st0{fill:#7900FF;}
	.st1{fill:#005EFF;}
	.st2{fill:#38E841;}
	.st3{fill:#ED1E77;}
</style>
<g id="Layer_1_00000147931186689158836040000002670911982697261700_">
</g>
<g id="Layer_2_00000109730176644402831740000005486801964963584900_">
	<g>
		<g>
			<g>
				<path class="st0" d="M356.8,2335.9c-70.6,0-130.7-13.4-178.9-39.8c-46.6-25.6-83.8-64.4-110.3-115.4l-0.1-0.3
					c-0.3-0.8-28.2-83.3-25.5-209.2c-0.1-3.9-5.4-168.9-6.7-200.4c-0.1-5-12.1-497.5-13.4-526.6C21.1,1231.3,5.8,931.3,7,912.5
					C6.5,901.4-3.6,682.2,0.4,642.3l3.3-92.1c2.8-43.6,3.9-67.7,4.6-82c1.2-25.2,1.2-25.2,6.1-54.8c0.6-3.8,1.3-8.2,2.2-13.1
					C22,366.3,41.8,298.3,72.4,229c24.7-56,64.2-130.5,111.9-167C208.9,43.2,251,18.2,311.6,6.3C346.8-0.7,372.5,0,374.2,0
					c1.7-0.1,27.4-0.7,62.6,6.2c33.5,6.6,82.7,21.6,127.2,55.7c37.7,28.9,76.6,88.4,109.6,167.5c25.9,62.2,46.1,133.1,48.9,172.3
					c1,14,1.9,25.4,2.7,35.6c3.2,42.5,4.9,63.9,11.3,166.2l0,0.1l0,0.1c0,2-1.5,200-6.7,258.2c-0.7,7.2-2.5,60.6-4.8,128.4
					c-4.6,133.4-11.4,335-15.9,368.9c-6.6,49.9-25.1,605.1-25.4,614.5c0.1,2.2,1.5,46.2-2.7,98.4c-5.8,71.8-18.9,124.1-39.1,155.4
					c-26.7,41.5-52.5,64.8-89.2,80.3c-39.1,16.6-92.1,24.8-177.2,27.6C369.3,2335.8,363,2335.9,356.8,2335.9z M71.6,2178.7
					c26.2,50.1,62.6,88.2,108.4,113.4c51.7,28.4,117.5,41.5,195.5,39c84.5-2.8,137.1-10.9,175.6-27.2c35.7-15.1,61-37.9,87.1-78.6
					c47.2-73.3,41.1-249.5,41-251.3l0-0.1l0-0.1c0.2-5.6,18.8-564.7,25.4-615c4.4-33.6,11.3-235.1,15.9-368.5
					c2.4-70.5,4.1-121.4,4.8-128.6c5.2-57.6,6.7-252.7,6.7-257.7c-6.4-102.2-8.1-123.6-11.3-166.1c-0.8-10.2-1.6-21.6-2.7-35.6
					c-2.9-38.8-22.8-109.1-48.6-170.9C636.9,152.8,598.4,94,561.3,65.6c-24.2-18.5-65.5-43.1-125.2-54.9
					c-35.8-7.1-61.5-6.2-61.8-6.2l-0.1,0l-0.1,0c-0.3,0-26-0.9-61.8,6.2c-33,6.5-81.5,21.3-125.3,54.9
					c-47,35.9-86,109.7-110.6,165.3C46.1,299.8,26.4,367.3,20.9,401c-0.8,5-1.5,9.3-2.2,13.1c-4.8,29.3-4.8,29.3-6,54.3
					c-0.7,14.4-1.8,38.4-4.6,82.1l-3.3,92.3c-3.9,39.5,6.6,267.4,6.7,269.7l0,0.1l0,0.1c-1.3,17.1,14.5,328.1,14.7,331.2
					c1.3,29.1,13.3,521.7,13.4,526.7c1.3,31.7,6.6,198.8,6.7,200.5l0,0.1l0,0.1C43.7,2093.7,70.2,2174.7,71.6,2178.7z"/>
			</g>
			<g>
				<g>
					<g>
						<path class="st1" d="M422.8,558.1c-6.8,0-12.3-5.6-12.3-12.4c0-6.9,5.5-12.5,12.3-12.5c6.8,0,12.4,5.6,12.4,12.5
							C435.2,552.6,429.6,558.1,422.8,558.1z M422.8,537.8c-4.3,0-7.8,3.6-7.8,8c0,4.4,3.5,7.9,7.8,7.9c4.3,0,7.9-3.6,7.9-7.9
							C430.7,541.3,427.1,537.8,422.8,537.8z"/>
					</g>
					<g>
						<path class="st1" d="M313.3,558.1c-6.8,0-12.3-5.6-12.3-12.4c0-6.9,5.5-12.5,12.3-12.5c6.8,0,12.4,5.6,12.4,12.5
							C325.6,552.6,320.1,558.1,313.3,558.1z M313.3,537.8c-4.3,0-7.8,3.6-7.8,8c0,4.4,3.5,7.9,7.8,7.9c4.3,0,7.9-3.6,7.9-7.9
							C321.1,541.3,317.6,537.8,313.3,537.8z"/>
					</g>
					<g>
						<path class="st1" d="M422.8,703.4c-6.8,0-12.3-5.6-12.3-12.5c0-6.9,5.5-12.4,12.3-12.4c6.8,0,12.4,5.6,12.4,12.4
							C435.2,697.8,429.6,703.4,422.8,703.4z M422.8,683c-4.3,0-7.8,3.6-7.8,7.9c0,4.4,3.5,8,7.8,8c4.3,0,7.9-3.6,7.9-8
							C430.7,686.5,427.1,683,422.8,683z"/>
					</g>
					<g>
						<path class="st1" d="M313.3,703.4c-6.8,0-12.3-5.6-12.3-12.5c0-6.9,5.5-12.4,12.3-12.4c6.8,0,12.4,5.6,12.4,12.4
							C325.6,697.8,320.1,703.4,313.3,703.4z M313.3,683c-4.3,0-7.8,3.6-7.8,7.9c0,4.4,3.5,8,7.8,8c4.3,0,7.9-3.6,7.9-8
							C321.1,686.5,317.6,683,313.3,683z"/>
					</g>
				</g>
			</g>
			<g>
				<g>
					<g>
						<path class="st1" d="M422.8,1716.8c-6.8,0-12.3-5.6-12.3-12.5s5.5-12.5,12.3-12.5c6.8,0,12.4,5.6,12.4,12.5
							S429.6,1716.8,422.8,1716.8z M422.8,1696.3c-4.3,0-7.8,3.6-7.8,8s3.5,8,7.8,8c4.3,0,7.9-3.6,7.9-8S427.1,1696.3,422.8,1696.3z
							"/>
					</g>
					<g>
						<path class="st1" d="M313.3,1716.8c-6.8,0-12.3-5.6-12.3-12.5s5.5-12.5,12.3-12.5c6.8,0,12.4,5.6,12.4,12.5
							S320.1,1716.8,313.3,1716.8z M313.3,1696.3c-4.3,0-7.8,3.6-7.8,8s3.5,8,7.8,8c4.3,0,7.9-3.6,7.9-8S317.6,1696.3,313.3,1696.3z
							"/>
					</g>
					<g>
						<path class="st1" d="M422.8,1862c-6.8,0-12.3-5.6-12.3-12.5s5.5-12.5,12.3-12.5c6.8,0,12.4,5.6,12.4,12.5
							S429.6,1862,422.8,1862z M422.8,1841.5c-4.3,0-7.8,3.6-7.8,8s3.5,8,7.8,8c4.3,0,7.9-3.6,7.9-8S427.1,1841.5,422.8,1841.5z"/>
					</g>
					<g>
						<path class="st1" d="M313.3,1862c-6.8,0-12.3-5.6-12.3-12.5s5.5-12.5,12.3-12.5c6.8,0,12.4,5.6,12.4,12.5
							S320.1,1862,313.3,1862z M313.3,1841.5c-4.3,0-7.8,3.6-7.8,8s3.5,8,7.8,8c4.3,0,7.9-3.6,7.9-8S317.6,1841.5,313.3,1841.5z"/>
					</g>
				</g>
			</g>
		</g>
		<g>
			<path class="st2" d="M357.9,2306.7c-64.4,0-119.1-13-163-38.8c-42.4-24.9-76.2-62.7-100.3-112.3l-0.1-0.2
				c-0.3-0.8-25.6-81.2-23.3-203.9c0-1.6-4.9-164.6-6.1-195.5c-0.1-4.9-11-485.4-12.2-513.8c-0.6-12.5-14.5-305.7-13.4-323.5
				c-0.2-5.3-9.6-225-6-263.5l3-89.9c2.5-42.2,3.5-64.8,4.1-79.7c1.1-24.8,1.1-24.8,5.5-53.4c0.6-3.8,1.2-8.2,2-13.1
				c5-33,23.1-99.3,51-166.8c22.5-54.6,58.5-127.2,101.9-162.7c22.4-18.3,60.6-42.6,115.8-54.3c32.2-6.8,55.6-6.1,57-6.1
				c1.4,0,24.8-0.7,56.9,6.1c30.4,6.5,75.2,21.1,115.7,54.3c34.3,28.1,69.7,86,99.8,163.1c23.6,60.6,41.9,129.6,44.6,167.8
				c1.1,15.1,1.9,27.1,2.7,37.8c2.8,39.8,4.4,61.8,10.1,159.1c0,2-1.3,195.1-6.1,251.9c-0.5,6.7-2.1,55.9-4.1,118.1
				c-4.2,132.8-10.6,333.5-14.7,367.1c-6,48.9-23,594.2-23.2,599.7c0,0.3,1.5,43.9-2.5,95.9c-3.6,48-12.8,113.3-35.5,151.2
				c-24.2,40.4-47.7,63.1-81,78.2c-35.6,16.2-83.9,24.2-161.4,26.9C369.2,2306.6,363.5,2306.7,357.9,2306.7z M97.3,2154.3
				c23.9,49,57.2,86.3,99.1,110.9c47.2,27.7,107.2,40.6,178.4,38.1c77.1-2.7,125-10.6,160.3-26.6c32.7-14.8,55.8-37.1,79.7-77
				c43.1-71.8,37.6-243.8,37.6-245.6c0.2-5.6,17.2-551,23.2-600c4.1-33.4,10.5-234.1,14.7-366.8c2.1-64.7,3.5-111.4,4.1-118.2
				c4.8-56.7,6.1-249.6,6.1-251.6c-5.7-97.2-7.3-119.2-10.1-159c-0.8-10.7-1.6-22.7-2.7-37.8c-2.6-38-20.9-106.6-44.4-166.9
				c-29.8-76.6-65-134.1-98.9-161.9c-22.1-18.1-59.9-42.1-114.4-53.7c-32.6-6.9-56.1-6.1-56.3-6.1l-0.1,0l-0.1,0
				c-0.2,0-23.7-0.9-56.4,6c-30.1,6.4-74.4,20.8-114.4,53.6c-42.9,35.1-78.6,107.2-101,161.5c-27.8,67.3-45.8,133.3-50.8,166.1
				c-0.8,5-1.4,9.3-2,13.1c-4.4,28.4-4.4,28.4-5.4,53c-0.7,14.9-1.7,37.5-4.1,79.7l-3,90c-3.7,38.6,5.9,261,6,263.3l0,0.1l0,0.1
				C41.3,935.5,55.7,1239,55.9,1242c1.2,28.4,12.1,509,12.2,513.8c1.2,30.9,6.1,193.9,6.1,195.6
				C71.9,2071.8,96.3,2151.1,97.3,2154.3z"/>
		</g>
		<g>
			<path class="st3" d="M362.6,2279.4l0-4.5c3.8,0,7.8-0.1,11.7-0.3l1.8-0.1l0.2,4.5l-1.8,0.1
				C370.5,2279.3,366.5,2279.4,362.6,2279.4z M349,2279.3c-4.6-0.1-9.2-0.3-13.6-0.5l0.3-4.5c4.4,0.3,9,0.4,13.5,0.5L349,2279.3z
				 M389.9,2278.5l-0.2-4.5c4.6-0.2,9.1-0.5,13.5-0.8l0.3,4.5C399.1,2278,394.5,2278.3,389.9,2278.5z M321.7,2277.8
				c-4.6-0.4-9.1-1-13.6-1.6l0.6-4.5c4.4,0.6,8.9,1.1,13.4,1.5L321.7,2277.8z M417.1,2276.7l-0.4-4.5c4.6-0.4,9.2-0.8,13.5-1.2
				l0.5,4.5C426.3,2275.9,421.7,2276.3,417.1,2276.7z M294.6,2274.1c-4.5-0.8-9-1.7-13.4-2.7l1-4.4c4.3,1,8.8,1.9,13.2,2.7
				L294.6,2274.1z M444.2,2273.9l-0.6-4.5c4.6-0.6,9.1-1.2,13.4-1.9l0.7,4.4C453.4,2272.7,448.8,2273.3,444.2,2273.9z M471.1,2269.6
				l-0.9-4.4c4.5-0.9,9-1.9,13.2-2.9l1.1,4.4C480.2,2267.7,475.7,2268.7,471.1,2269.6z M268,2268c-4.4-1.2-8.8-2.6-13.1-4l1.4-4.3
				c4.2,1.4,8.5,2.8,12.9,4L268,2268z M497.7,2263.1l-1.3-4.3c4.4-1.3,8.7-2.8,12.7-4.3l1.6,4.2
				C506.5,2260.3,502.2,2261.8,497.7,2263.1z M242,2259.2c-4.2-1.7-8.5-3.5-12.6-5.5l1.9-4.1c4,1.9,8.2,3.7,12.3,5.4L242,2259.2z
				 M523.4,2253.5l-1.9-4.1c4.1-1.9,8.1-4,11.9-6.2l2.3,3.9C531.7,2249.4,527.6,2251.5,523.4,2253.5z M217.2,2247.5
				c-4-2.2-8-4.5-11.8-6.9l2.4-3.8c3.8,2.4,7.7,4.6,11.6,6.8L217.2,2247.5z M547.2,2239.6l-2.6-3.7c3.6-2.6,7.1-5.4,10.5-8.3l3,3.4
				C554.5,2234.1,550.9,2237,547.2,2239.6z M194,2232.9c-3.7-2.7-7.4-5.5-10.9-8.3l2.8-3.5c3.5,2.8,7,5.6,10.7,8.2L194,2232.9z
				 M567.9,2221.6l-3.3-3.1c3-3.1,5.9-6.5,8.8-10.1l3.5,2.8C574,2214.9,570.9,2218.3,567.9,2221.6z M172.8,2215.6
				c-3.3-3.1-6.6-6.3-9.8-9.6l3.2-3.1c3.1,3.2,6.3,6.4,9.6,9.4L172.8,2215.6z M585.2,2200.3l-3.7-2.6c2.5-3.5,5-7.3,7.5-11.2
				l3.8,2.4C590.3,2192.9,587.7,2196.7,585.2,2200.3z M153.8,2195.8c-2.9-3.4-5.8-7-8.6-10.7l3.6-2.7c2.7,3.6,5.6,7.1,8.4,10.5
				L153.8,2195.8z M599.8,2177.2l-3.9-2.2l0.5-0.9c1.9-3.4,3.8-7.1,5.6-11l4.1,1.9c-1.8,4-3.8,7.9-5.8,11.3L599.8,2177.2z
				 M137.2,2174c-2.5-3.7-5-7.6-7.4-11.5l3.8-2.3c2.4,3.9,4.8,7.7,7.3,11.3L137.2,2174z M611.3,2152.1l-4.2-1.5
				c1.5-4,2.9-8.3,4.2-12.8l4.3,1.3C614.2,2143.6,612.8,2148,611.3,2152.1z M123,2150.6c-2.2-3.9-4.3-8-6.3-12.1l4-2
				c2,4.1,4.1,8.1,6.2,12L123,2150.6z M619.2,2125.9l-4.4-1.1c1.1-4.2,2.1-8.6,3-13.2l4.4,0.9
				C621.3,2117.1,620.3,2121.6,619.2,2125.9z M111.6,2125.4c-1.1-4-2.2-8.5-3.3-13.3l4.4-1c1.1,4.7,2.2,9.1,3.2,13.1L111.6,2125.4z
				 M624.9,2099.1l-4.4-0.8c0.8-4.3,1.5-8.8,2.2-13.4l4.4,0.7C626.5,2090.3,625.7,2094.8,624.9,2099.1z M105.5,2098.8
				c-0.9-4.4-1.7-8.9-2.5-13.4l4.4-0.8c0.8,4.5,1.6,9,2.5,13.3L105.5,2098.8z M629.1,2072.1l-4.5-0.6c0.6-4.4,1.1-8.9,1.6-13.5
				l4.5,0.5C630.2,2063.2,629.7,2067.7,629.1,2072.1z M100.7,2071.9c-0.7-4.4-1.4-9-2-13.5l4.5-0.6c0.6,4.5,1.3,9,2,13.4
				L100.7,2071.9z M632.1,2045l-4.5-0.4c0.4-4.4,0.8-8.9,1.1-13.5l4.5,0.3C632.9,2036,632.5,2040.6,632.1,2045z M97,2044.9
				c-0.5-4.5-1-9-1.5-13.5l4.5-0.4c0.5,4.5,0.9,9,1.5,13.5L97,2044.9z M634.2,2017.8l-4.5-0.3c0.3-4.5,0.5-9,0.7-13.6l4.5,0.2
				C634.7,2008.8,634.4,2013.4,634.2,2017.8z M94.3,2017.8c-0.4-4.5-0.7-9.1-1-13.6l4.5-0.3c0.3,4.5,0.6,9.1,1,13.5L94.3,2017.8z
				 M92.5,1990.6c-0.2-4.5-0.4-9.1-0.6-13.6l4.5-0.2c0.2,4.5,0.3,9.1,0.6,13.5L92.5,1990.6z M635.4,1990.6l-4.5-0.2
				c0.2-4.5,0.3-9.1,0.4-13.6l4.5,0.1C635.7,1981.5,635.6,1986.1,635.4,1990.6z M91.6,1963.4c-0.1-4.5-0.1-9.1-0.1-13.6l4.5,0
				c0,4.5,0,9.1,0.1,13.6L91.6,1963.4z M636,1963.3l-4.5,0c0-2.7,0-5.3,0-7.7c0-2.1,0-4.1,0-5.9l4.5,0c0,1.8,0,3.8,0,5.9
				C636,1958,636,1960.6,636,1963.3z M631.3,1936.2c0-0.9,0-1.4,0-1.4l0-0.1l0.4-12.4l4.5,0.1l-0.4,12.3c0,0.2,0,0.6,0,1.4
				L631.3,1936.2z M96.1,1936.2l-4.5-0.1c0-1.3,0-2.6,0.1-3.9l-0.3-9.6l4.5-0.1l0.3,9.8l0,0.1C96.1,1933.6,96.1,1934.9,96.1,1936.2z
				 M91,1908.9l-0.4-13.6l4.5-0.1l0.4,13.6L91,1908.9z M636.5,1908.8l-4.5-0.1l0.4-13.6l4.5,0.1L636.5,1908.8z M90.2,1881.7
				l-0.4-13.6l4.5-0.1l0.4,13.6L90.2,1881.7z M637.3,1881.5l-4.5-0.1l0.4-13.6l4.5,0.1L637.3,1881.5z M89.4,1854.5l-0.4-13.6
				l4.5-0.1l0.4,13.6L89.4,1854.5z M638.2,1854.2l-4.5-0.1l0.4-13.6l4.5,0.1L638.2,1854.2z M88.6,1827.2l-0.4-13.6l4.5-0.1l0.4,13.6
				L88.6,1827.2z M639,1827l-4.5-0.1l0.4-13.6l4.5,0.1L639,1827z M87.8,1800l-0.4-13.6l4.5-0.1l0.4,13.6L87.8,1800z M639.9,1799.8
				l-4.5-0.1l0.4-13.6l4.5,0.1L639.9,1799.8z M87,1772.8c-0.2-4.9-0.3-9.5-0.4-13.6l4.5-0.1c0.1,4.1,0.3,8.7,0.4,13.6L87,1772.8z
				 M640.7,1772.6l-4.5-0.1l0.4-13.6l4.5,0.1L640.7,1772.6z M86.1,1745.6l-0.1-4.1l-0.2-9.7l4.5-0.1c0.2,9.7,0.2,9.7,0.2,9.7l0.1,4
				L86.1,1745.6z M641.6,1745.4l-4.5-0.1l0.4-13.6l4.5,0.1L641.6,1745.4z M642.5,1718.2l-4.5-0.1l0.4-13.6l4.5,0.1L642.5,1718.2z
				 M85.4,1718.1l-0.3-13.7l4.5-0.1l0.3,13.7L85.4,1718.1z M643.4,1691l-4.5-0.1l0.4-13.6l4.5,0.1L643.4,1691z M84.9,1690.8
				l-0.3-13.6l4.5-0.1l0.3,13.6L84.9,1690.8z M644.2,1663.8l-4.5-0.1l0.5-13.6l4.5,0.2L644.2,1663.8z M84.3,1663.6l-0.3-13.6
				l4.5-0.1l0.3,13.6L84.3,1663.6z M645.2,1636.6l-4.5-0.2l0.5-13.6l4.5,0.2L645.2,1636.6z M83.7,1636.3l-0.3-13.6l4.5-0.1l0.3,13.6
				L83.7,1636.3z M646.1,1609.4l-4.5-0.2l0.5-13.6l4.5,0.2L646.1,1609.4z M83.1,1609.1l-0.3-13.6l4.5-0.1l0.3,13.6L83.1,1609.1z
				 M647,1582.2l-4.5-0.2l0.5-13.6l4.5,0.2L647,1582.2z M82.5,1581.9l-0.3-13.6l4.5-0.1l0.3,13.6L82.5,1581.9z M648,1555l-4.5-0.2
				l0.5-13.6l4.5,0.2L648,1555z M81.9,1554.7l-0.3-13.6l4.5-0.1l0.3,13.6L81.9,1554.7z M649,1527.8l-4.5-0.2
				c0.2-4.6,0.3-9.1,0.5-13.6l4.5,0.2C649.3,1518.7,649.1,1523.2,649,1527.8z M81.3,1527.4l-0.3-13.6l4.5-0.1l0.3,13.6L81.3,1527.4z
				 M650,1500.6l-4.5-0.2c0.2-4.6,0.3-9.1,0.5-13.6l4.5,0.2C650.3,1491.4,650.1,1496,650,1500.6z M80.7,1500.2l-0.3-13.6l4.5-0.1
				l0.3,13.6L80.7,1500.2z M651,1473.4l-4.5-0.2c0.2-4.6,0.4-9.2,0.5-13.6l4.5,0.2C651.4,1464.2,651.2,1468.7,651,1473.4z
				 M80.1,1473l-0.3-13.6l4.5-0.1l0.3,13.6L80.1,1473z M652.1,1446.2l-4.5-0.2c0.2-4.7,0.4-9.2,0.6-13.6l4.5,0.2
				C652.5,1437,652.3,1441.5,652.1,1446.2z M79.5,1445.8l-0.3-13.6l4.5-0.1l0.3,13.6L79.5,1445.8z M653.3,1418.9l-4.5-0.2
				c0.2-4.7,0.4-9.3,0.6-13.6l4.5,0.2C653.7,1409.7,653.5,1414.2,653.3,1418.9z M78.9,1418.6l-0.3-13.6l4.5-0.1l0.3,13.6
				L78.9,1418.6z M654.5,1391.7l-4.5-0.2c0.2-4.9,0.5-9.4,0.7-13.6l4.5,0.2C655,1382.3,654.8,1386.8,654.5,1391.7z M78.3,1391.4
				l-0.3-13.6l4.5-0.1l0.3,13.6L78.3,1391.4z M656.1,1364.5l-4.5-0.3c0.4-6.1,0.8-10.7,1.1-13.8l4.5,0.5
				C656.8,1353.9,656.4,1358.5,656.1,1364.5z M77.6,1364.2l-0.3-13.6l4.5-0.1l0.3,13.6L77.6,1364.2z M658.3,1337.2l-4.5-0.3
				c0.3-3.8,0.6-8.4,0.8-13.6l4.5,0.3C658.9,1328.8,658.6,1333.4,658.3,1337.2z M77,1336.9l-0.3-13.6l4.5-0.1l0.3,13.6L77,1336.9z
				 M659.9,1309.9l-4.5-0.2c0.2-4.3,0.4-8.8,0.6-13.6l4.5,0.2C660.3,1301.1,660.1,1305.6,659.9,1309.9z M76.4,1309.7l-0.3-13.6
				l4.5-0.1l0.3,13.6L76.4,1309.7z M661.1,1282.7l-4.5-0.2c0.2-4.4,0.4-8.9,0.6-13.6l4.5,0.2
				C661.5,1273.7,661.3,1278.3,661.1,1282.7z M75.8,1282.4l-0.3-13.6l4.5-0.1l0.3,13.6L75.8,1282.4z M662.3,1255.4l-4.5-0.2
				c0.2-4.4,0.3-9,0.5-13.6l4.5,0.2C662.6,1246.5,662.4,1251,662.3,1255.4z M75.1,1255.1c-0.2-6.4-0.3-11.1-0.4-13.7l4.5-0.2
				c0.1,2.6,0.2,7.3,0.4,13.7L75.1,1255.1z M663.3,1228.2l-4.5-0.2c0.2-4.5,0.3-9,0.5-13.6l4.5,0.2
				C663.6,1219.2,663.5,1223.8,663.3,1228.2z M74.1,1227.8l-0.6-13.6l4.5-0.2l0.6,13.6L74.1,1227.8z M664.3,1201l-4.5-0.2
				c0.2-4.5,0.3-9,0.5-13.6l4.5,0.2C664.6,1192,664.4,1196.5,664.3,1201z M72.9,1200.5l-0.6-13.6l4.5-0.2l0.6,13.6L72.9,1200.5z
				 M665.2,1173.8l-4.5-0.2l0.5-13.6l4.5,0.1L665.2,1173.8z M71.7,1173.3l-0.6-13.6l4.5-0.2l0.6,13.6L71.7,1173.3z M666.1,1146.6
				l-4.5-0.1l0.4-13.6l4.5,0.1L666.1,1146.6z M70.5,1146l-0.6-13.6l4.5-0.2l0.6,13.6L70.5,1146z M667,1119.4l-4.5-0.1l0.4-13.6
				l4.5,0.1L667,1119.4z M69.3,1118.8l-0.6-13.6l4.5-0.2l0.6,13.6L69.3,1118.8z M667.8,1092.2l-4.5-0.1l0.4-13.6l4.5,0.1
				L667.8,1092.2z M68.2,1091.6l-0.6-13.6l4.5-0.2l0.6,13.6L68.2,1091.6z M668.7,1065l-4.5-0.1l0.4-13.6l4.5,0.1L668.7,1065z
				 M67,1064.4l-0.6-13.6l4.5-0.2l0.6,13.6L67,1064.4z M669.5,1037.8l-4.5-0.1l0.4-13.6l4.5,0.1L669.5,1037.8z M65.9,1037.2
				l-0.5-13.6l4.5-0.2l0.5,13.6L65.9,1037.2z M670.3,1010.6l-4.5-0.1l0.4-13.6l4.5,0.1L670.3,1010.6z M64.8,1009.9
				c-0.2-4.7-0.4-9.2-0.5-13.6l4.5-0.2c0.2,4.4,0.3,9,0.5,13.6L64.8,1009.9z M671.2,983.4l-4.5-0.1l0.4-13.6l4.5,0.1L671.2,983.4z
				 M63.8,982.7c-0.2-4.8-0.3-9.3-0.5-13.6l4.5-0.2c0.2,4.3,0.3,8.9,0.5,13.6L63.8,982.7z M672,956.1l-4.5-0.1l0.4-13.6l4.5,0.1
				L672,956.1z M62.8,955.4c-0.2-5.1-0.3-9.7-0.4-13.7l4.5-0.1c0.1,4,0.2,8.5,0.4,13.6L62.8,955.4z M672.8,928.9l-4.5-0.1
				c0.2-4.8,0.3-9.4,0.4-13.6l4.5,0.1C673.1,919.5,673,924.1,672.8,928.9z M66.7,928.1l-4.5,0c0-1.4,0-2.5,0.1-3.2
				c0-0.7-0.2-4.4-0.4-10.4l4.5-0.2c0.3,6.7,0.4,10.5,0.4,10.5l0,0.1l0,0.1C66.7,925.6,66.7,926.6,66.7,928.1z M673.7,901.6
				l-4.5-0.2c0.2-5.3,0.3-9.9,0.5-13.7l4.5,0.2C674.1,891.8,673.9,896.3,673.7,901.6z M61.3,900.9c-0.2-4.1-0.3-8.7-0.5-13.6
				l4.5-0.2c0.2,4.9,0.4,9.5,0.5,13.6L61.3,900.9z M674.9,874.4l-4.5-0.3c0.3-3.9,0.6-8.4,0.8-13.6l4.5,0.2
				C675.5,865.9,675.2,870.5,674.9,874.4z M60.3,873.7c-0.2-4.4-0.3-8.9-0.5-13.6l4.5-0.2c0.2,4.7,0.3,9.2,0.5,13.6L60.3,873.7z
				 M676.4,847.1l-4.5-0.2c0.2-4.3,0.4-8.9,0.5-13.6l4.5,0.2C676.8,838.2,676.6,842.8,676.4,847.1z M59.3,846.5
				c-0.2-4.4-0.3-9-0.5-13.6l4.5-0.1c0.2,4.6,0.3,9.2,0.5,13.6L59.3,846.5z M677.4,819.9l-4.5-0.1c0.1-4.4,0.3-9,0.4-13.6l4.5,0.1
				C677.6,810.9,677.5,815.4,677.4,819.9z M58.4,819.3c-0.1-4.5-0.3-9-0.4-13.6l4.5-0.1c0.1,4.6,0.3,9.1,0.4,13.6L58.4,819.3z
				 M678.1,792.6l-4.5-0.1c0.1-4.5,0.2-9,0.3-13.6l4.5,0.1C678.3,783.6,678.2,788.1,678.1,792.6z M57.6,792
				c-0.1-4.5-0.3-9.1-0.4-13.6l4.5-0.1c0.1,4.5,0.2,9,0.4,13.6L57.6,792z M678.7,765.4l-4.5-0.1c0.1-4.5,0.2-9.1,0.3-13.6l4.5,0.1
				C678.9,756.3,678.8,760.9,678.7,765.4z M56.8,764.8c-0.1-4.6-0.2-9.1-0.3-13.6l4.5-0.1c0.1,4.5,0.2,9,0.3,13.6L56.8,764.8z
				 M679.2,738.2l-4.5-0.1c0.1-4.6,0.1-9.1,0.2-13.6l4.5,0.1C679.3,729,679.3,733.6,679.2,738.2z M56.2,737.6
				c-0.1-4.7-0.2-9.2-0.2-13.6l4.5-0.1c0.1,4.4,0.1,8.9,0.2,13.6L56.2,737.6z M679.6,710.9l-4.5-0.1c0.1-4.6,0.1-9.2,0.2-13.6
				l4.5,0.1C679.7,701.7,679.7,706.3,679.6,710.9z M55.8,710.3c0-4.4-0.1-8.5-0.1-12.4l0-1.2l4.5,0l0,1.2c0,3.9,0,8,0.1,12.4
				L55.8,710.3z M680,683.7l-4.5-0.1c0.1-4.8,0.1-9.3,0.1-13.6l4.5,0C680.1,674.4,680,678.9,680,683.7z M60.4,683.2l-4.5-0.1
				c0.1-5.7,0.3-10.3,0.5-13.7l4.5,0.3C60.7,673,60.5,677.5,60.4,683.2z M680.2,656.4l-4.5,0c0-5.3,0.1-9.8,0.1-13.6l4.5,0
				C680.3,646.6,680.3,651.2,680.2,656.4z M61.4,656l-4.5-0.1l0.4-13.6l4.5,0.1L61.4,656z M675.9,629.2l-0.8-13.5l4.5-0.3l0.8,13.5
				L675.9,629.2z M62.3,628.9l-4.5-0.1l0.4-13.6l4.5,0.1L62.3,628.9z M674.3,602.2l-0.8-13.5l4.5-0.3l0.8,13.5L674.3,602.2z
				 M63.2,601.7l-4.5-0.1l0.4-13.6l4.5,0.1L63.2,601.7z M672.8,575.1c-0.3-4.8-0.5-9.3-0.8-13.5l4.5-0.3c0.2,4.3,0.5,8.8,0.8,13.5
				L672.8,575.1z M64.2,574.6l-4.5-0.2c0.3-4.8,0.5-9.3,0.7-13.5l4.5,0.2C64.7,565.3,64.4,569.8,64.2,574.6z M671.2,548
				c-0.3-4.8-0.6-9.3-0.8-13.5l4.5-0.3c0.3,4.2,0.5,8.7,0.8,13.5L671.2,548z M65.6,547.5l-4.5-0.2c0.3-4.9,0.5-9.4,0.7-13.5l4.5,0.2
				C66.1,538.1,65.9,542.6,65.6,547.5z M669.5,520.9c-0.3-4.7-0.6-9.2-0.9-13.5l4.5-0.3c0.3,4.3,0.6,8.8,0.9,13.5L669.5,520.9z
				 M66.9,520.4l-4.5-0.2c0.2-5.2,0.4-9.6,0.6-13.5l4.5,0.2C67.4,510.8,67.2,515.3,66.9,520.4z M667.8,493.9
				c-0.3-4.4-0.6-8.9-0.9-13.5l4.5-0.3c0.3,4.7,0.6,9.1,0.9,13.5L667.8,493.9z M68.1,493.4l-4.5-0.2c0.2-5.1,0.5-9.4,0.8-13.6
				l4.5,0.4C68.6,484.1,68.3,488.3,68.1,493.4z M666,466.8l-0.9-13.5l4.5-0.3l0.9,13.5L666,466.8z M70.5,466.7l-4.5-0.6
				c0.5-3.6,1.1-8,1.9-13.4l4.5,0.6C71.6,458.8,71,463.1,70.5,466.7z M74.3,440l-4.5-0.6l0.3-1.9c0.5-3.5,1.2-7.4,1.9-11.6l4.4,0.8
				c-0.8,4.1-1.4,7.9-1.9,11.4L74.3,440z M664.2,439.8l-0.1-0.8c-0.2-3.8-0.7-8-1.2-12.6l4.5-0.6c0.6,4.6,1,9,1.3,12.8l0.1,0.8
				L664.2,439.8z M79.2,413.4l-4.4-1c0.9-4.3,2-8.7,3.1-13.3l4.4,1.1C81.2,404.7,80.1,409.1,79.2,413.4z M661,413
				c-0.7-4.2-1.5-8.7-2.4-13.3l4.4-0.9c0.9,4.7,1.7,9.2,2.4,13.5L661,413z M85.6,387l-4.4-1.1c1.1-4.3,2.3-8.7,3.5-13.2l4.3,1.2
				C87.9,378.3,86.7,382.7,85.6,387z M655.8,386.4c-0.9-4.3-2-8.7-3.1-13.2l4.4-1.1c1.1,4.5,2.1,9,3.1,13.3L655.8,386.4z
				 M92.8,360.8l-4.3-1.3c1.3-4.3,2.6-8.7,3.9-13.1l4.3,1.3C95.4,352.1,94.1,356.5,92.8,360.8z M649.4,360
				c-1.1-4.3-2.3-8.7-3.5-13.1l4.3-1.2c1.2,4.4,2.4,8.8,3.5,13.2L649.4,360z M100.8,334.9l-4.3-1.4c1.4-4.3,2.8-8.7,4.3-12.9
				l4.3,1.4C103.6,326.2,102.2,330.6,100.8,334.9z M642.1,333.9c-1.3-4.3-2.6-8.6-3.9-13l4.3-1.3c1.4,4.4,2.7,8.8,4,13L642.1,333.9z
				 M109.5,309.2l-4.2-1.5c1.5-4.3,3.1-8.6,4.6-12.8l4.2,1.6C112.5,300.6,111,304.9,109.5,309.2z M634.1,308
				c-1.4-4.3-2.9-8.6-4.3-12.9l4.3-1.5c1.5,4.3,2.9,8.6,4.3,12.9L634.1,308z M118.8,283.7l-4.2-1.6c1.6-4.3,3.3-8.5,5-12.7l4.2,1.7
				C122.1,275.2,120.5,279.4,118.8,283.7z M625.2,282.3c-1.5-4.2-3.1-8.5-4.7-12.7l4.2-1.6c1.6,4.2,3.2,8.5,4.7,12.8L625.2,282.3z
				 M128.9,258.5l-4.2-1.7c1.8-4.2,3.6-8.4,5.4-12.5l4.1,1.8C132.5,250.1,130.7,254.3,128.9,258.5z M615.6,257
				c-1.7-4.2-3.4-8.5-5.2-12.6l4.1-1.7c1.7,4.1,3.5,8.4,5.2,12.6L615.6,257z M139.8,233.6l-4.1-1.9c1.9-4.2,3.9-8.3,5.8-12.4l4.1,2
				C143.6,225.4,141.7,229.5,139.8,233.6z M605,232c-1.8-4.2-3.7-8.3-5.6-12.3l4.1-1.9c1.9,4,3.8,8.2,5.7,12.4L605,232z
				 M151.5,209.2l-4-2c2.1-4.1,4.2-8.2,6.3-12.1l4,2.1C155.7,201.1,153.6,205.1,151.5,209.2z M593.5,207.4c-2-4.1-4.1-8.1-6.2-12.1
				l4-2.1c2.1,4,4.2,8,6.2,12.2L593.5,207.4z M164.4,185.4l-3.9-2.2c2.3-4,4.7-8,7-11.8l3.8,2.4C169,177.5,166.6,181.4,164.4,185.4z
				 M580.9,183.5c-2.3-4-4.6-7.9-6.9-11.7l3.8-2.3c2.3,3.8,4.6,7.7,6.9,11.8L580.9,183.5z M178.6,162.4l-3.7-2.5
				c2.6-3.9,5.2-7.7,7.8-11.2l3.6,2.7C183.7,154.8,181.1,158.5,178.6,162.4z M566.7,160.4c-2.6-3.8-5.2-7.6-7.7-11.1l3.6-2.7
				c2.6,3.6,5.2,7.3,7.8,11.2L566.7,160.4z M194.5,140.6l-3.5-2.8c3-3.7,6-7.2,9-10.4l3.3,3.1C200.4,133.6,197.4,137,194.5,140.6z
				 M550.8,138.7c-3-3.6-5.9-7-8.9-10.1l3.3-3.1c3,3.2,6.1,6.6,9.1,10.3L550.8,138.7z M212.8,121l-3-3.3c0.8-0.8,1.7-1.5,2.5-2.2
				c2.6-2.2,5.3-4.5,8-6.6l2.8,3.5c-2.7,2.1-5.3,4.3-7.9,6.5C214.5,119.6,213.7,120.3,212.8,121z M532.2,119.4l-0.8-0.7
				c-3.1-2.7-6.3-5.3-9.6-7.8l2.7-3.6c3.3,2.6,6.6,5.2,9.8,8l0.8,0.7L532.2,119.4z M234,104.4l-2.6-3.7c3.7-2.6,7.6-5.1,11.5-7.5
				l2.3,3.8C241.4,99.4,237.6,101.9,234,104.4z M510.9,103c-3.7-2.5-7.5-4.9-11.3-7.2l2.3-3.9c3.9,2.3,7.8,4.8,11.6,7.4L510.9,103z
				 M256.9,90.4l-2.1-4c4-2.1,8.1-4.2,12.3-6.1l1.9,4.1C264.9,86.3,260.8,88.3,256.9,90.4z M487.8,89.2c-3.9-2.1-8-4-12.1-5.9
				l1.9-4.1c4.2,1.9,8.3,3.9,12.3,6L487.8,89.2z M281.3,79.1l-1.7-4.2c4.2-1.7,8.5-3.3,12.9-4.7l1.4,4.3
				C289.7,75.8,285.5,77.4,281.3,79.1z M463.3,78.1c-4.1-1.6-8.4-3.1-12.7-4.5l1.4-4.3c4.3,1.4,8.7,3,12.9,4.6L463.3,78.1z
				 M306.8,70.4l-1.2-4.3c4.4-1.2,8.8-2.4,13.3-3.4l1,4.4C315.5,68.1,311.1,69.2,306.8,70.4z M437.7,69.7c-4.3-1.2-8.7-2.2-13.1-3.2
				l1-4.4c4.5,1,8.9,2.1,13.3,3.2L437.7,69.7z M333.1,64.4l-0.8-4.4c4.5-0.8,9.1-1.5,13.6-2l0.5,4.5C342,63,337.5,63.7,333.1,64.4z
				 M411.4,64c-4.5-0.7-9-1.3-13.4-1.8l0.5-4.5c4.5,0.5,9,1.1,13.6,1.8L411.4,64z M359.8,61.3l-0.3-4.5c4.8-0.3,8.5-0.4,10.8-0.4
				c1.6,0,2.6,0,3,0c0.3,0,1.4,0,3.2,0c2.6,0,5.4,0.1,8.3,0.2l-0.2,4.5c-2.9-0.1-5.6-0.2-8.1-0.2c-2,0-3.1,0-3.1,0l-0.1-2.2
				l-0.1,2.2c0,0-1,0-2.9,0C368.1,60.9,364.5,61,359.8,61.3z"/>
		</g>
	</g>
</g>
<g id="Layer_3">
</g>
</svg>
