<?xml version="1.0" encoding="utf-8"?>
<!-- Generator: Adobe Illustrator 26.3.1, SVG Export Plug-In . SVG Version: 6.00 Build 0)  -->
<svg version="1.1" id="Layer_1" xmlns="http://www.w3.org/2000/svg" xmlns:xlink="http://www.w3.org/1999/xlink" x="0px" y="0px"
	 viewBox="0 0 687.2 2220.3" style="enable-background:new 0 0 687.2 2220.3;" xml:space="preserve">
<style type="text/css">
	.st0{fill:#38E841;}
	.st1{fill:#ED1E77;}
	.st2{fill:#7900FF;}
	.st3{fill:#005EFF;}
</style>
<g>
	<path class="st0" d="M341.5,2188.1L341.5,2188.1c-124-2.4-183-35.4-185.5-36.8l-5.2-2.5c-22.6-8.6-42.7-34.1-59.8-75.7
		c-13.3-32.7-21.6-68.1-24.7-88.5c-16.7-182.7-20.9-294.7-21.1-299.4L40,1493.9l-5.3-251l0-378.8c0-20.5,2.2-383,2.6-455.5l0-2.1
		c0-53.6,5.1-188.3,52.7-282c21.9-43,48.2-55.8,51.6-57.3l0.3-0.4l0.3-0.1c69.5-32.4,189.9-34.4,195-34.4l14.5,0
		c5.1,0.1,125.7,2.2,195,34.4l2.2,1c4.3,2.2,27.1,15.5,50,57.2c43.7,79.7,52.8,197.2,52.8,281.7l0,2c0.4,72.5,2.6,435.1,2.6,455.6
		v378.8l-5.3,251l-5.3,191.3c-0.2,4.7-4.4,117-21.1,299.3c-3,20.5-11.3,55.9-24.7,88.6c-17,41.7-37.2,67.2-59.8,75.8l-2.9,1.1
		l-2.1,1.3c-2.5,1.4-61.6,34.4-185.5,36.8H341.5z M341.5,2185.1h6.2c123.1-2.4,181.5-35,184-36.4l2.4-1.5l3.1-1.2
		c50.6-19.1,77.3-126,82.6-161.9c16.7-182.2,20.9-294.4,21.1-299.1l5.3-191.3l5.3-251V864.1c0-20.5-2.2-383.1-2.6-455.5l0-2
		c0-84.2-9.1-201.1-52.5-280.3c-22.1-40.3-43.8-53.4-48.5-55.9l-0.1,0l-2.2-1c-68.7-32-188.7-34.1-193.8-34.2h-14.4
		c-5,0.1-124.5,2.1-193.5,34l-0.4,0.4l-0.3,0.1c-0.3,0.1-28,12-50.5,56.1C45.4,219,40.3,353.1,40.3,406.5l0,2.1
		c-0.4,72.5-2.6,435-2.6,455.5v378.8l5.3,251l5.3,191.3c0.2,4.7,4.4,116.7,21.1,299.1c5.3,35.9,32,142.8,82.6,161.8l0.1,0.1l5.3,2.6
		C159.9,2150.1,218.3,2182.7,341.5,2185.1z"/>
</g>
<g>
	<path class="st1" d="M341.8,2157c-4.6-0.2-9-0.4-13.2-0.6l0.2-3.7c4.2,0.2,8.6,0.4,13.1,0.6l1,0l0,3.7L341.8,2157z M356.1,2156.6
		l-0.1-3.7c4.3-0.1,8.7-0.3,13.1-0.6l0.2,3.7C364.9,2156.3,360.5,2156.5,356.1,2156.6z M315.5,2155.6c-4.5-0.3-8.9-0.6-13.1-1
		l0.3-3.7c4.2,0.3,8.6,0.7,13.1,0.9L315.5,2155.6z M382.4,2155.2l-0.3-3.7c4.4-0.3,8.7-0.7,13-1.1l0.4,3.7
		C391.2,2154.5,386.8,2154.9,382.4,2155.2z M289.3,2153.5c-4.5-0.4-8.9-0.9-13.1-1.4l0.4-3.7c4.2,0.5,8.6,1,13,1.4L289.3,2153.5z
		 M408.6,2152.7l-0.4-3.7c4.3-0.5,8.7-1.1,13-1.7l0.5,3.7C417.4,2151.6,413,2152.1,408.6,2152.7z M263.2,2150.4
		c-4.4-0.6-8.8-1.3-13-2l0.6-3.7c4.2,0.7,8.5,1.4,12.9,2L263.2,2150.4z M434.7,2148.9l-0.6-3.7c4.3-0.7,8.7-1.5,12.9-2.4l0.7,3.6
		C443.4,2147.3,439,2148.1,434.7,2148.9z M237.2,2145.9c-4.4-0.9-8.7-1.9-12.9-2.9l0.9-3.6c4.1,1,8.4,2,12.7,2.8L237.2,2145.9z
		 M460.5,2143.7l-0.8-3.6c4.3-1,8.6-2,12.7-3.1l1,3.6C469.2,2141.7,464.9,2142.7,460.5,2143.7z M211.6,2139.6
		c-4.3-1.3-8.5-2.6-12.6-4l1.2-3.5c4,1.4,8.2,2.7,12.4,4L211.6,2139.6z M486,2136.9l-1.1-3.5c4.3-1.3,8.5-2.7,12.4-4.1l1.3,3.5
		C494.6,2134.2,490.4,2135.6,486,2136.9z M186.7,2130.9c-4.7-2-8.9-3.9-12.1-5.3l1.6-3.4c3.1,1.4,7.2,3.3,11.9,5.3L186.7,2130.9z
		 M510.9,2127.9l-1.5-3.4c7.2-3.2,9.3-5,9.8-5.5l0.3-0.3l1.5-0.5l1.3,3.5l-0.7,0.3C519.7,2123.5,515.9,2125.6,510.9,2127.9z
		 M162.8,2120.1c-0.5-0.2-0.9-0.4-1.4-0.6c-3.3-1.3-6.8-3.6-10.2-6.6l2.5-2.8c3.1,2.8,6.1,4.8,9.1,5.9c0.5,0.2,1,0.4,1.5,0.6
		L162.8,2120.1z M534.4,2115.6l-2.2-3c2.9-2.2,6-5.2,9.1-8.9l2.8,2.4C540.8,2110.1,537.6,2113.3,534.4,2115.6z M142.3,2102.8
		c-2.4-3.3-4.9-7-7.3-11.1l3.2-1.9c2.4,4,4.8,7.6,7.1,10.8L142.3,2102.8z M551.9,2095.4l-3.1-2c2.2-3.4,4.4-7.2,6.6-11.2l3.3,1.8
		C556.5,2088.1,554.2,2091.9,551.9,2095.4z M128.6,2080c-1.9-3.8-3.7-7.8-5.6-12l3.4-1.5c1.8,4.2,3.7,8.1,5.5,11.8L128.6,2080z
		 M564.6,2072.1l-3.4-1.6c1.6-3.4,3.2-7,4.7-10.7l0.5-1.2l3.4,1.4l-0.5,1.3C567.8,2065,566.2,2068.7,564.6,2072.1z M118,2055.8
		c-1.5-4-3.1-8.2-4.6-12.4l3.5-1.2c1.5,4.2,3,8.3,4.5,12.3L118,2055.8z M574.5,2047.7l-3.5-1.2c1.4-4,2.8-8.2,4.2-12.4l3.5,1.1
		C577.4,2039.4,575.9,2043.6,574.5,2047.7z M109.3,2030.9c-1.3-4.2-2.6-8.4-3.8-12.6l3.6-1c1.2,4.2,2.4,8.4,3.7,12.5L109.3,2030.9z
		 M582.5,2022.5l-3.6-1c1.2-4.2,2.3-8.4,3.3-12.6l3.6,0.9C584.8,2014,583.7,2018.3,582.5,2022.5z M102.2,2005.4
		c-1.1-4.6-2.1-8.9-2.9-12.9l3.6-0.7c0.8,3.9,1.7,8.2,2.9,12.7L102.2,2005.4z M588.8,1996.9l-3.6-0.8c1-4.6,1.8-8.9,2.5-12.8
		l3.7,0.6C590.7,1988,589.8,1992.3,588.8,1996.9z M97.3,1979.3l-1.1-13.1l3.7-0.3l1.1,13.1L97.3,1979.3z M592.7,1970.8l-3.7-0.3
		c0.4-4.4,0.7-8.8,1.1-13.1l3.7,0.3C593.5,1962,593.1,1966.4,592.7,1970.8z M95,1953.2l-1.1-13.1l3.7-0.3l1.1,13.1L95,1953.2z
		 M594.9,1944.6l-3.7-0.3c0.4-4.4,0.7-8.8,1.1-13.1l3.7,0.3C595.7,1935.9,595.3,1940.2,594.9,1944.6z M92.9,1927.1l-1.1-13.1
		l3.7-0.3l1.1,13.1L92.9,1927.1z M597.1,1918.5l-3.7-0.3c0.4-4.4,0.7-8.8,1.1-13.1l3.7,0.3C597.8,1909.7,597.4,1914.1,597.1,1918.5z
		 M90.7,1900.9l-1.1-13.1l3.7-0.3l1.1,13.1L90.7,1900.9z M599.2,1892.3l-3.7-0.3c0.3-4.4,0.7-8.8,1-13.1l3.7,0.3
		C599.8,1883.6,599.5,1887.9,599.2,1892.3z M88.6,1874.8c-0.4-4.5-0.7-8.8-1-13.1l3.7-0.3c0.3,4.3,0.7,8.6,1,13.1L88.6,1874.8z
		 M601.2,1866.2l-3.7-0.3c0.3-4.4,0.7-8.8,1-13.1l3.7,0.3C601.8,1857.4,601.5,1861.8,601.2,1866.2z M86.5,1848.7
		c-0.3-4.5-0.7-8.8-1-13.1l3.7-0.3c0.3,4.2,0.7,8.6,1,13.1L86.5,1848.7z M603.1,1840l-3.7-0.3c0.3-4.4,0.6-8.8,0.9-13.1l3.7,0.3
		C603.8,1831.2,603.4,1835.6,603.1,1840z M84.6,1822.5c-0.3-4.5-0.7-8.8-1-13.1l3.7-0.3c0.3,4.2,0.6,8.6,1,13.1L84.6,1822.5z
		 M605,1813.8l-3.7-0.3c0.3-4.4,0.6-8.8,0.9-13.1l3.7,0.2C605.6,1805.1,605.3,1809.4,605,1813.8z M82.7,1796.4
		c-0.3-4.5-0.6-8.8-0.9-13.1l3.7-0.3c0.3,4.2,0.6,8.6,0.9,13.1L82.7,1796.4z M606.8,1787.7l-3.7-0.2c0.3-4.4,0.6-8.8,0.8-13.1
		l3.7,0.2C607.3,1778.9,607,1783.3,606.8,1787.7z M80.9,1770.3c-0.3-4.5-0.6-8.8-0.8-13.1l3.7-0.2c0.3,4.2,0.5,8.6,0.8,13.1
		L80.9,1770.3z M608.4,1761.5l-3.7-0.2c0.3-4.4,0.5-8.8,0.8-13.1l3.7,0.2C609,1752.7,608.7,1757.1,608.4,1761.5z M79.3,1744.1
		c-0.3-4.5-0.5-8.8-0.7-13.1l3.7-0.2c0.2,4.2,0.5,8.6,0.7,13.1L79.3,1744.1z M610,1735.3l-3.7-0.2c0.3-4.4,0.5-8.8,0.7-13.1l3.7,0.2
		C610.5,1726.5,610.2,1730.9,610,1735.3z M77.9,1718c-0.2-4.5-0.4-8.8-0.6-13.1l3.7-0.2c0.2,4.3,0.4,8.6,0.6,13.1L77.9,1718z
		 M611.4,1709.1l-3.7-0.2c0.2-4.4,0.5-8.8,0.7-13.1l3.7,0.2C611.8,1700.3,611.6,1704.7,611.4,1709.1z M76.7,1691.8
		c-0.2-4.4-0.3-8.7-0.5-13.1l3.7-0.1c0.1,4.3,0.3,8.7,0.5,13.1L76.7,1691.8z M612.7,1682.9l-3.7-0.2c0.2-4.4,0.4-8.8,0.6-13.1
		l3.7,0.2C613.1,1674.2,612.9,1678.5,612.7,1682.9z M75.8,1665.7c-0.1-4.3-0.3-8.7-0.4-13.1l3.7-0.1c0.1,4.4,0.2,8.7,0.4,13.1
		L75.8,1665.7z M613.8,1656.7l-3.7-0.2c0.2-4.4,0.4-8.8,0.5-13.1l3.7,0.1C614.2,1648,614,1652.3,613.8,1656.7z M75.1,1639.6
		c-0.1-4.3-0.2-8.6-0.3-13.1l3.7-0.1c0.1,4.5,0.2,8.8,0.3,13.1L75.1,1639.6z M614.9,1630.5l-3.7-0.1c0.2-4.4,0.3-8.8,0.5-13.1
		l3.7,0.1C615.2,1621.8,615,1626.1,614.9,1630.5z M74.5,1613.4l-0.3-13.1l3.7-0.1l0.3,13.1L74.5,1613.4z M615.7,1604.3l-3.7-0.1
		c0.1-4.4,0.3-8.7,0.4-13.1l3.7,0.1C616,1595.6,615.9,1600,615.7,1604.3z M73.9,1587.3c-0.1-4.2-0.2-8.6-0.3-13.1l3.7-0.1
		c0.1,4.5,0.2,8.9,0.3,13.1L73.9,1587.3z M616.5,1578.1l-3.7-0.1c0.1-4.4,0.2-8.7,0.3-13.1l3.7,0.1
		C616.7,1569.4,616.6,1573.8,616.5,1578.1z M73.2,1561.1c-0.1-4.2-0.2-8.6-0.4-13.1l3.7-0.1c0.1,4.5,0.2,8.9,0.4,13.1L73.2,1561.1z
		 M617.1,1551.9l-3.7-0.1c0.1-4.4,0.2-8.7,0.3-13.1l3.7,0.1C617.3,1543.2,617.2,1547.6,617.1,1551.9z M72.5,1534.9
		c-0.1-4.2-0.3-8.6-0.4-13.1l3.7-0.1c0.1,4.5,0.3,8.8,0.4,13.1L72.5,1534.9z M617.6,1525.7l-3.7-0.1c0.1-4.4,0.2-8.7,0.2-13.1
		l3.7,0.1C617.8,1517,617.7,1521.4,617.6,1525.7z M71.7,1508.7c-0.1-4.3-0.3-8.6-0.4-13.1l3.7-0.1c0.1,4.5,0.3,8.8,0.4,13.1
		L71.7,1508.7z M618.1,1499.5l-3.7-0.1c0.1-4.3,0.1-8.7,0.2-13.1l3.7,0.1C618.2,1490.8,618.2,1495.2,618.1,1499.5z M70.9,1482.5
		c-0.1-4.4-0.2-8.7-0.4-13.1l3.7-0.1c0.1,4.4,0.2,8.8,0.4,13.1L70.9,1482.5z M618.5,1473.3l-3.7-0.1l0.2-13.1l3.7,0.1L618.5,1473.3z
		 M70.2,1456.2c-0.1-4.4-0.2-8.7-0.3-13.1l3.7-0.1c0.1,4.4,0.2,8.8,0.3,13.1L70.2,1456.2z M618.9,1447.1l-3.7-0.1l0.2-13.1l3.7,0.1
		L618.9,1447.1z M69.5,1430c-0.1-4.4-0.2-8.7-0.3-13.1l3.7-0.1c0.1,4.4,0.2,8.8,0.3,13.1L69.5,1430z M619.3,1420.9l-3.7-0.1
		l0.2-13.1l3.7,0.1L619.3,1420.9z M69,1403.8c-0.1-4.4-0.2-8.7-0.3-13.1l3.7-0.1c0.1,4.4,0.2,8.8,0.3,13.1L69,1403.8z M619.8,1394.7
		l-3.7-0.1c0.1-4.3,0.2-8.7,0.2-13.1l3.7,0.1C619.9,1386,619.9,1390.4,619.8,1394.7z M68.5,1377.5c-0.1-4.4-0.2-8.7-0.2-13.1
		l3.7-0.1c0.1,4.4,0.2,8.8,0.2,13.1L68.5,1377.5z M620.3,1368.5l-3.7-0.1c0.1-4.3,0.2-8.7,0.3-13.1l3.7,0.1
		C620.5,1359.8,620.4,1364.2,620.3,1368.5z M68,1351.3c-0.1-4.4-0.1-8.7-0.2-13.1l3.7-0.1c0.1,4.4,0.1,8.7,0.2,13.1L68,1351.3z
		 M620.8,1342.3l-3.7-0.1c0.1-4.3,0.2-8.7,0.3-13.1l3.7,0.1C621,1333.6,620.9,1338,620.8,1342.3z M67.6,1325.1
		c-0.1-4.4-0.1-8.7-0.2-13.1l3.7-0.1c0.1,4.4,0.1,8.7,0.2,13.1L67.6,1325.1z M621.4,1316.1l-3.7-0.1c0.1-4.3,0.2-8.7,0.3-13.1
		l3.7,0.1C621.6,1307.4,621.5,1311.7,621.4,1316.1z M67.2,1298.9c-0.1-4.4-0.1-8.7-0.2-13.1l3.7,0c0.1,4.4,0.1,8.7,0.2,13.1
		L67.2,1298.9z M622.1,1289.8l-3.7-0.1c0.1-4.3,0.2-8.7,0.3-13.1l3.7,0.1C622.3,1281.2,622.2,1285.5,622.1,1289.8z M66.9,1272.7
		l-0.1-13.1l3.7,0l0.1,13.1L66.9,1272.7z M622.8,1263.6l-3.7-0.1c0.1-4.3,0.2-8.7,0.4-13.1l3.7,0.1
		C623,1255,622.9,1259.3,622.8,1263.6z M66.7,1246.6l-0.1-13.1l3.7,0l0.1,13.1L66.7,1246.6z M623.4,1237.4l-3.7,0l0-13.1l3.7,0
		L623.4,1237.4z M66.4,1220.4c0-4.4-0.1-8.7-0.1-13.1l3.7,0c0,4.4,0.1,8.7,0.1,13.1L66.4,1220.4z M623.5,1211.1l-3.7,0l0-13.1l3.7,0
		L623.5,1211.1z M66.2,1194.2l-0.1-13.1l3.7,0l0.1,13.1L66.2,1194.2z M623.5,1184.9l-3.7,0l0-13.1l3.7,0L623.5,1184.9z M66,1167.9
		l-0.1-13.1l3.7,0l0.1,13.1L66,1167.9z M623.5,1158.6l-3.7,0l0-13.1l3.7,0L623.5,1158.6z M65.9,1141.7l-0.1-13.1l3.7,0l0.1,13.1
		L65.9,1141.7z M623.5,1132.4l-3.7,0l0-13.1h3.7V1132.4z M65.8,1115.5l0-13.1l3.7,0l0,13.1L65.8,1115.5z M619.8,1106.1l0-13.1l3.7,0
		l0,13.1L619.8,1106.1z M65.7,1089.3l0-13.1l3.7,0l0,13.1L65.7,1089.3z M619.8,1079.9l0-13.1l3.7,0l0,13.1L619.8,1079.9z
		 M65.6,1063.1l0-13.1l3.7,0l0,13.1L65.6,1063.1z M619.8,1053.6l0-13.1l3.7,0l0,13.1L619.8,1053.6z M65.6,1036.8l0-13.1l3.7,0
		l0,13.1L65.6,1036.8z M619.7,1027.3l0-13.1l3.7,0l0,13.1L619.7,1027.3z M69.3,1010.6l-3.7,0l0-13.1l3.7,0L69.3,1010.6z
		 M619.7,1001.1l0-13.1l3.7,0l0,13.1L619.7,1001.1z M69.3,984.4l-3.7,0l0-13.1l3.7,0L69.3,984.4z M619.7,974.8l0-13.1l3.7,0l0,13.1
		L619.7,974.8z M69.4,958.1l-3.7,0l0-13.1l3.7,0L69.4,958.1z M619.6,948.6l0-13.1l3.7,0l0,13.1L619.6,948.6z M69.4,931.9l-3.7,0
		l0-13.1l3.7,0L69.4,931.9z M619.5,922.3l0-13.1l3.7,0l0,13.1L619.5,922.3z M69.5,905.7l-3.7,0l0-13.1l3.7,0L69.5,905.7z
		 M619.5,896.1l0-13.1l3.7,0l0,13.1L619.5,896.1z M69.6,879.4l-3.7,0l0-13.1l3.7,0L69.6,879.4z M619.4,869.8l0-13.2l3.7,0l0,13.2
		L619.4,869.8z M69.7,853.1l-3.7,0L66,840l3.7,0L69.7,853.1z M619.3,843.5l0-13.1l3.7,0l0,13.1L619.3,843.5z M69.8,826.9l-3.7,0
		l0.1-13.1l3.7,0L69.8,826.9z M619.2,817.2l0-13.1l3.7,0l0,13.1L619.2,817.2z M69.9,800.6l-3.7,0l0.1-13.1l3.7,0L69.9,800.6z
		 M619.1,790.9l0-13.1l3.7,0l0,13.1L619.1,790.9z M70,774.3l-3.7,0l0.1-13.1l3.7,0L70,774.3z M619,764.7l-0.1-13.1l3.7,0l0.1,13.1
		L619,764.7z M70.2,748l-3.7,0l0.1-13.1l3.7,0L70.2,748z M618.9,738.5l-0.1-13.1l3.7,0l0.1,13.1L618.9,738.5z M70.3,721.8l-3.7,0
		l0.1-13.1l3.7,0L70.3,721.8z M618.8,712.3l-0.1-13.1l3.7,0l0.1,13.1L618.8,712.3z M70.5,695.5l-3.7,0l0.1-13.1l3.7,0L70.5,695.5z
		 M618.7,686.1l-0.1-13.1l3.7,0l0.1,13.1L618.7,686.1z M70.6,669.2l-3.7,0L67,656l3.7,0L70.6,669.2z M618.5,659.8l-0.1-13.1l3.7,0
		l0.1,13.1L618.5,659.8z M70.8,642.9l-3.7,0l0.1-13.2l3.7,0L70.8,642.9z M618.4,633.6l-0.1-13.1l3.7,0l0.1,13.1L618.4,633.6z
		 M71,616.5l-3.7,0l0.1-13.2l3.7,0L71,616.5z M618.3,607.3l-0.1-13.1l3.7,0l0.1,13.1L618.3,607.3z M71.1,590.2l-3.7,0l0.1-13.2
		l3.7,0L71.1,590.2z M618.1,581.1l-0.1-13.1l3.7,0l0.1,13.1L618.1,581.1z M71.3,563.9l-3.7,0l0.1-13.2l3.7,0L71.3,563.9z M618,554.8
		l-0.1-13.1l3.7,0l0.1,13.1L618,554.8z M71.5,537.6l-3.7,0l0.1-13.1l3.7,0L71.5,537.6z M617.8,528.6l-0.1-13.1l3.7,0l0.1,13.1
		L617.8,528.6z M71.6,511.4l-3.7,0l0.1-13.1l3.7,0L71.6,511.4z M617.7,502.3l-0.1-13.1l3.7,0l0.1,13.1L617.7,502.3z M71.8,485.1
		l-3.7,0l0.1-13.1l3.7,0L71.8,485.1z M617.5,476l-0.1-13.1l3.7,0l0.1,13.1L617.5,476z M71.9,458.9l-3.7,0l0.1-13.1l3.7,0L71.9,458.9
		z M617.3,449.8l-0.1-13.1l3.7,0l0.1,13.1L617.3,449.8z M72.1,432.6l-3.7,0l0.1-13.2l3.7,0L72.1,432.6z M617.1,423.5l-0.1-13.1
		l3.7,0l0.1,13.1L617.1,423.5z M72.2,406.4l-3.7,0c0-4.4,0.1-8.8,0.2-13.1l3.7,0.1C72.3,397.6,72.3,402,72.2,406.4z M616.9,397.3
		c-0.1-4.4-0.2-8.8-0.3-13.1l3.7-0.1c0.1,4.3,0.2,8.7,0.3,13.1L616.9,397.3z M72.7,380.2l-3.7-0.1c0.1-4.4,0.3-8.8,0.4-13.1l3.7,0.1
		C73,371.4,72.8,375.8,72.7,380.2z M616.2,371.1c-0.2-4.4-0.3-8.8-0.5-13.1l3.7-0.2c0.2,4.3,0.4,8.7,0.5,13.1L616.2,371.1z
		 M73.7,354l-3.7-0.2c0.2-4.4,0.5-8.8,0.7-13.1l3.7,0.2C74.2,345.2,73.9,349.6,73.7,354z M615,344.9c-0.3-4.4-0.5-8.8-0.8-13.1
		l3.7-0.3c0.3,4.3,0.6,8.7,0.8,13.1L615,344.9z M75.3,327.8l-3.7-0.3c0.3-4.4,0.7-8.8,1.1-13.1l3.7,0.3
		C76,319,75.7,323.4,75.3,327.8z M613.2,318.8c-0.4-4.3-0.8-8.7-1.2-13l3.7-0.4c0.4,4.3,0.8,8.7,1.2,13.1L613.2,318.8z M77.6,301.7
		l-3.7-0.4c0.5-4.4,0.9-8.8,1.5-13.1l3.7,0.4C78.6,293,78.1,297.4,77.6,301.7z M610.6,292.8c-0.5-4.4-1.1-8.7-1.6-13l3.7-0.5
		c0.6,4.3,1.1,8.7,1.6,13.1L610.6,292.8z M80.8,275.7l-3.7-0.5c0.6-4.4,1.3-8.8,1.9-13l3.7,0.6C82,267,81.4,271.4,80.8,275.7z
		 M607.1,266.8c-0.7-4.4-1.4-8.7-2.1-12.9l3.7-0.6c0.7,4.2,1.5,8.6,2.1,13L607.1,266.8z M84.9,249.9l-3.6-0.7
		c0.8-4.4,1.6-8.7,2.5-12.9l3.6,0.7C86.5,241.2,85.6,245.6,84.9,249.9z M602.6,241c-0.9-4.3-1.8-8.6-2.7-12.8l3.6-0.8
		c0.9,4.2,1.8,8.5,2.7,12.9L602.6,241z M90.1,224.3l-3.6-0.8c1-4.3,2.1-8.6,3.2-12.8l3.6,0.9C92.2,215.7,91.1,220,90.1,224.3z
		 M596.9,215.5c-1.1-4.3-2.2-8.5-3.4-12.6l3.6-1c1.2,4.1,2.3,8.4,3.4,12.7L596.9,215.5z M96.7,199l-3.6-1.1c1.3-4.3,2.6-8.5,4-12.6
		l3.5,1.2C99.3,190.6,98,194.8,96.7,199z M589.6,190.4c-1.4-4.2-2.8-8.3-4.3-12.3l3.5-1.3c1.5,4,2.9,8.2,4.3,12.5L589.6,190.4z
		 M105.1,174.3l-3.5-1.3c1.6-4.2,3.3-8.3,5-12.2l3.4,1.5C108.4,166.1,106.7,170.2,105.1,174.3z M580.5,166c-1.7-4.1-3.5-8-5.4-11.9
		l3.3-1.6c1.9,3.9,3.7,7.9,5.5,12L580.5,166z M115.6,150.5l-3.3-1.7c2-4,4.2-7.9,6.3-11.6l3.2,1.9
		C119.7,142.7,117.6,146.6,115.6,150.5z M569.2,142.6c-2.2-3.9-4.4-7.6-6.7-11.1l3.1-2c2.4,3.6,4.7,7.4,6.9,11.3L569.2,142.6z
		 M128.8,128.1l-3.1-2.1c2.5-3.7,5.2-7.3,7.9-10.6l2.9,2.3C133.9,121,131.3,124.5,128.8,128.1z M554.9,120.9
		c-2.7-3.5-5.5-6.8-8.4-9.9l2.7-2.5c2.9,3.2,5.8,6.6,8.6,10.1L554.9,120.9z M145.2,108.1l-2.6-2.6c3.1-3.1,6.3-6.1,9.6-8.8l0.3-0.2
		l0.2-0.1l1.4,2.7l0.4,0.5c0,0-0.1,0.1-0.1,0.1l0,0l-0.1,0C151.2,102.3,148.1,105.1,145.2,108.1z M537.3,102.1
		c-1.3-1.1-2.5-2.2-3.8-3.2c-2.3-1-4.6-2-6.9-2.9l1.4-3.4c2.4,1,4.9,2,7.2,3l0.2,0.1l0.2,0.2c1.4,1.1,2.8,2.3,4.1,3.5L537.3,102.1z
		 M166.2,94.3l-1.4-3.4c3.9-1.6,8.1-3.1,12.5-4.5l1.2,3.5C174.1,91.3,170,92.8,166.2,94.3z M514.3,91.4c-4-1.4-8.2-2.7-12.4-4
		l1.1-3.6c4.3,1.3,8.5,2.6,12.6,4L514.3,91.4z M190.9,86.1l-1-3.6c4.1-1.1,8.4-2.2,12.8-3.3l0.9,3.6C199.2,83.9,195,85,190.9,86.1z
		 M489.3,83.9c-4.1-1.1-8.4-2.1-12.7-3.1l0.8-3.6c4.3,1,8.7,2,12.8,3.1L489.3,83.9z M216.4,80.1l-0.7-3.6c4.2-0.9,8.5-1.7,13-2.5
		l0.6,3.7C224.8,78.4,220.5,79.2,216.4,80.1z M463.8,78.2c-4.2-0.8-8.5-1.6-12.9-2.3l0.6-3.7c4.4,0.7,8.7,1.5,13,2.3L463.8,78.2z
		 M242.2,75.5l-0.6-3.7c4.2-0.7,8.6-1.3,13-1.9l0.5,3.7C250.8,74.2,246.4,74.8,242.2,75.5z M438,73.9c-4.2-0.6-8.6-1.2-13-1.7
		l0.4-3.7c4.4,0.5,8.8,1.1,13.1,1.7L438,73.9z M268.1,72l-0.4-3.7c4.3-0.5,8.7-1,13.1-1.4l0.4,3.7C276.8,71,272.4,71.5,268.1,72z
		 M412,70.7c-4.3-0.4-8.7-0.8-13-1.2l0.3-3.7c4.4,0.4,8.8,0.7,13.1,1.2L412,70.7z M294.2,69.4l-0.3-3.7c4.4-0.4,8.8-0.7,13.1-1
		l0.3,3.7C303,68.7,298.6,69.1,294.2,69.4z M385.9,68.6c-4.3-0.3-8.7-0.5-13.1-0.7l0.2-3.7c4.4,0.2,8.8,0.4,13.1,0.7L385.9,68.6z
		 M320.4,67.6l-0.2-3.7c6.6-0.3,11.1-0.5,13.2-0.5l0.1,3.7C331.4,67.2,326.9,67.3,320.4,67.6z M359.7,67.5
		c-5.5-0.2-10.1-0.2-13.1-0.3l0.1-3.7c3,0,7.7,0.1,13.2,0.3L359.7,67.5z"/>
</g>
<g>
	<g>
		<path class="st2" d="M341.2,2220.4L341.2,2220.4c-71.8-1.4-122.4-12.3-152.3-21.2c-31.2-9.3-46.5-18.2-48.3-19.2
			c-41.9-17.7-68.5-68.9-83.6-108.8c-16.2-43-22.7-82.5-22.7-82.9l0-0.2c-17.1-186.8-21.3-300.9-21.3-302.1l-5.3-191.6l-5.3-251.4
			l0-379.1c0-22.4,2.6-453.2,2.7-457.6c0-73.9,6.5-139.2,19.2-194.2c10.2-44.1,24.4-81.7,42.3-111.7c30.1-50.5,59.9-62.4,62.3-63.3
			c76.7-35.7,207-37.4,208.3-37.4h14.9c1.3,0,131.7,1.7,208.4,37.4c2.2,0.9,32.1,13,62.3,63.8c17.9,30.1,32.1,67.7,42.3,111.8
			c12.7,54.9,19.2,120.1,19.2,193.7c0,4.3,2.7,435.2,2.7,457.6v379.1l-5.3,251.4l-5.3,191.6c0,1.1-4.2,115.3-21.3,302.1l0,0.1
			c-0.1,0.4-5.9,40.3-21.6,83.4c-14.6,40-40.8,91-83.4,107.2c-2,1.2-17.6,10.3-48.9,19.7c-30.2,9.1-81.2,20.3-152.9,21.7
			L341.2,2220.4z M341.2,2215.9h6.9c135.9-2.6,199.1-40.5,199.7-40.9l0.4-0.2c41.1-15.5,66.7-65.4,81-104.5
			c15.3-42,21.1-80.9,21.4-82.5c17.1-186.6,21.2-300.6,21.3-301.8l5.3-191.5l5.3-251.4v-379c0-22.3-2.6-453.2-2.7-457.6
			c0-73-6.4-137.7-18.9-192.2c-10-43.5-24.1-80.7-41.6-110.5c-29.8-50.5-60-62.3-60.3-62.4l-0.2-0.1C482.8,6.1,353.3,4.4,352,4.4
			h-14.9c-1.3,0-130.7,1.7-206.6,37l-0.2,0.1c-0.3,0.1-30.5,11.5-60.3,61.9C52.5,133,38.5,170.2,28.5,213.8
			C15.9,268.3,9.6,333.2,9.6,406.5c0,4.4-2.7,435.2-2.7,457.6v379.1l5.3,251.4l5.3,191.5c0,1.1,4.2,115.1,21.3,301.7
			c0.3,1.9,6.8,40.3,22.5,82C76,2108.9,102,2159,142.5,2176l0.3,0.2C143.4,2176.5,205.2,2213.3,341.2,2215.9z"/>
	</g>
	<g>
		<g>
			<g>
				<g>
					<g>
						<path class="st3" d="M399.3,520.9c-6.8,0-12.3-5.6-12.3-12.4c0-6.9,5.5-12.5,12.3-12.5s12.4,5.6,12.4,12.5
							C411.7,515.4,406.1,520.9,399.3,520.9z M399.3,500.6c-4.3,0-7.8,3.6-7.8,8s3.5,7.9,7.8,7.9s7.9-3.6,7.9-7.9
							C407.2,504.1,403.6,500.6,399.3,500.6z"/>
					</g>
				</g>
				<g>
					<g>
						<path class="st3" d="M289.8,520.9c-6.8,0-12.3-5.6-12.3-12.4c0-6.9,5.5-12.5,12.3-12.5s12.4,5.6,12.4,12.5
							C302.1,515.4,296.6,520.9,289.8,520.9z M289.8,500.6c-4.3,0-7.8,3.6-7.8,8s3.5,7.9,7.8,7.9s7.9-3.6,7.9-7.9
							C297.6,504.1,294.1,500.6,289.8,500.6z"/>
					</g>
				</g>
				<g>
					<g>
						<path class="st3" d="M399.3,666.2c-6.8,0-12.3-5.6-12.3-12.5s5.5-12.4,12.3-12.4s12.4,5.6,12.4,12.4
							C411.7,660.6,406.1,666.2,399.3,666.2z M399.3,645.8c-4.3,0-7.8,3.6-7.8,7.9c0,4.4,3.5,8,7.8,8s7.9-3.6,7.9-8
							C407.2,649.3,403.6,645.8,399.3,645.8z"/>
					</g>
				</g>
				<g>
					<g>
						<path class="st3" d="M289.8,666.2c-6.8,0-12.3-5.6-12.3-12.5s5.5-12.4,12.3-12.4s12.4,5.6,12.4,12.4
							C302.1,660.6,296.6,666.2,289.8,666.2z M289.8,645.8c-4.3,0-7.8,3.6-7.8,7.9c0,4.4,3.5,8,7.8,8s7.9-3.6,7.9-8
							C297.6,649.3,294.1,645.8,289.8,645.8z"/>
					</g>
				</g>
			</g>
		</g>
		<g>
			<g>
				<g>
					<g>
						<path class="st3" d="M399.3,1679.6c-6.8,0-12.3-5.6-12.3-12.5s5.5-12.5,12.3-12.5s12.4,5.6,12.4,12.5
							S406.1,1679.6,399.3,1679.6z M399.3,1659.1c-4.3,0-7.8,3.6-7.8,8s3.5,8,7.8,8s7.9-3.6,7.9-8S403.6,1659.1,399.3,1659.1z"/>
					</g>
				</g>
				<g>
					<g>
						<path class="st3" d="M289.8,1679.6c-6.8,0-12.3-5.6-12.3-12.5s5.5-12.5,12.3-12.5s12.4,5.6,12.4,12.5
							S296.6,1679.6,289.8,1679.6z M289.8,1659.1c-4.3,0-7.8,3.6-7.8,8s3.5,8,7.8,8s7.9-3.6,7.9-8S294.1,1659.1,289.8,1659.1z"/>
					</g>
				</g>
				<g>
					<g>
						<path class="st3" d="M399.3,1824.8c-6.8,0-12.3-5.6-12.3-12.5s5.5-12.5,12.3-12.5s12.4,5.6,12.4,12.5
							S406.1,1824.8,399.3,1824.8z M399.3,1804.3c-4.3,0-7.8,3.6-7.8,8s3.5,8,7.8,8s7.9-3.6,7.9-8S403.6,1804.3,399.3,1804.3z"/>
					</g>
				</g>
				<g>
					<g>
						<path class="st3" d="M289.8,1824.8c-6.8,0-12.3-5.6-12.3-12.5s5.5-12.5,12.3-12.5s12.4,5.6,12.4,12.5
							S296.6,1824.8,289.8,1824.8z M289.8,1804.3c-4.3,0-7.8,3.6-7.8,8s3.5,8,7.8,8s7.9-3.6,7.9-8S294.1,1804.3,289.8,1804.3z"/>
					</g>
				</g>
			</g>
		</g>
	</g>
</g>
</svg>
