<?xml version="1.0" encoding="utf-8"?>
<!-- Generator: Adobe Illustrator 26.3.1, SVG Export Plug-In . SVG Version: 6.00 Build 0)  -->
<svg version="1.1" id="Layer_1" xmlns="http://www.w3.org/2000/svg" xmlns:xlink="http://www.w3.org/1999/xlink" x="0px" y="0px"
	 viewBox="0 0 717 2346" style="enable-background:new 0 0 717 2346;" xml:space="preserve">
<style type="text/css">
	.st0{fill:#00FF00;}
	.st1{fill:#005EFF;}
	.st2{fill:#7900FF;}
	.st3{fill:#ED1E77;}
</style>
<g>
	<g>
		<g>
			<path class="st0" d="M347.8,2345c-23.2,0-46.8-0.4-70-2.3c-38.3-3.2-83-9.3-123.7-30.7c-35-18.5-63.3-44.5-84.1-77.2
				c-13.1-20.5-20.3-43.4-27.2-71.4c-8.6-34.9-11.9-69.9-14.1-99.4c-0.9-12.3-2-24.9-3.1-37c-2.2-24.2-4.4-49.2-5-74
				c-0.1-5.2-0.3-10.4-0.4-15.6c-0.5-18.1-1-36.7-0.2-55.1c1.4-33.3,0.5-67.3-0.5-100.1c-0.3-8.8-0.5-17.6-0.7-26.4
				c-0.8-32.8-1.7-66.2-2.6-98.5c-0.6-21.9-1.2-43.8-1.7-65.6c-0.6-22.5-1.1-44.9-1.7-67.4c-1.9-76.5-3.9-155.6-5.5-233.5
				C5.9,1209.7,5,1127,4.1,1047.1l0-0.4C3.6,1010.1,3.3,973,3,937.1c-0.5-51.3-1-104.3-1.8-156.4C0.6,742.6,1.8,704,2.9,666.6
				l0.2-6.2c0.9-28.9,1.9-58.1,3-87c1.2-32.4,3.8-67.1,8.1-109.1c3.5-34,8.1-70.3,14.4-114.1c4.6-31.3,13.4-64.2,27.9-103.3
				c1.5-4.2,3.1-8.3,4.6-12.5c6.6-18.1,13.4-36.9,22.5-54c19.7-36.5,43.7-68.1,71.4-93.9c1.8-1.7,3.7-3.4,5.6-5.2
				c3-2.8,6.1-5.6,9.1-8.5c22.1-22,48-38.1,79.1-49.2C275.8,14,304.6,4.4,334.3,2c34.6-2.8,65.3,0,93.9,8.3
				c25.4,7.4,55.2,17.2,83.3,33.7c8.8,5.2,16.7,11.9,24.4,18.4l1.8,1.5c31.4,26.4,59.3,57.9,83,93.8c12.5,19,21.1,40.4,29.3,61.1
				c1.5,3.7,3,7.4,4.5,11.1c8.5,20.9,16.3,43.8,23.8,70c6.1,21.4,9.5,43.7,12.7,65.3l0.3,2.1c7.9,53.6,14,110.3,18.4,173.3
				c2.6,37.6,3.4,75,4.1,110c0.2,11.2,0.6,22.6,1.1,33.6c0.5,12.1,1,24.6,1.1,37c0.4,42.1-0.2,85.1-0.7,123
				c-0.3,22.9-0.6,44.5-0.7,64.3v0c-0.3,30-0.7,59.1-1,87.5c-0.9,78.3-1.7,152.3-2.8,225.7c-1.5,101-4.2,203.7-6.8,303
				c-0.6,23.9-1.3,47.8-1.9,71.7c-0.5,18.4-0.9,36.8-1.3,55.2c-1.1,49.9-2.3,101.4-4.1,152.2c-0.8,22.4-0.4,45.1,0.1,67.2
				c0.4,21.1,0.8,43,0.1,64.5c-1,32.1-3.2,66.1-6.6,100.9c-0.9,9.6-1.7,19.3-2.4,28.8c-1.3,17-2.7,34.5-5.1,51.6
				c-5.3,38.4-12.9,68.5-23.8,94.7c-14.3,34.4-38.6,62.7-76.5,89c-25,17.3-54.6,28.7-93.1,35.9c-31.1,5.8-64.4,8.5-108.1,8.6
				c-4.3,0-8.6,0-12.9,0.1C361.5,2345,354.7,2345,347.8,2345z M359.7,5c-8.1,0-16.5,0.3-25,1c-29.3,2.4-57.8,11.9-84.5,21.4
				c-30.5,10.8-56,26.6-77.7,48.2c-3,3-6.2,5.8-9.2,8.6c-1.9,1.7-3.7,3.4-5.5,5.1c-27.4,25.6-51.1,56.8-70.6,92.9
				c-9,16.9-15.8,35.5-22.3,53.5c-1.5,4.2-3,8.4-4.6,12.5c-14.4,38.9-23.2,71.4-27.7,102.5c-6.3,43.8-10.9,80-14.4,113.9
				c-4.3,42-6.8,76.6-8.1,108.9c-1.1,28.9-2.1,58.1-3,87l-0.2,6.2c-1.1,37.3-2.3,76-1.7,114C6,832.8,6.5,885.8,7,937.1
				c0.3,35.9,0.7,73,1.1,109.5l0,0.5c0.9,79.9,1.8,162.6,3.3,243.7c1.6,77.8,3.6,156.9,5.5,233.4c0.6,22.4,1.1,44.9,1.7,67.4
				c0.6,21.9,1.2,43.8,1.7,65.6c0.9,32.3,1.8,65.6,2.6,98.5c0.2,8.8,0.5,17.6,0.7,26.4c0.9,32.9,1.9,66.9,0.5,100.4
				c-0.8,18.2-0.3,36.8,0.2,54.8c0.1,5.2,0.3,10.4,0.4,15.7c0.6,24.6,2.8,49.6,5,73.7c1.1,12.1,2.2,24.7,3.1,37
				c2.1,29.4,5.4,64.1,13.9,98.8c6.8,27.6,13.9,50.1,26.6,70.2c20.4,32.1,48.1,57.6,82.5,75.8c40,21.1,84.2,27.1,122.1,30.3
				c30,2.5,60.6,2.4,90.3,2.2c4.3,0,8.6,0,12.9-0.1c43.4-0.1,76.5-2.8,107.3-8.6c37.9-7.1,67-18.3,91.5-35.3
				c37.3-25.8,61.1-53.5,75.1-87.2c10.8-25.9,18.3-55.7,23.6-93.7c2.4-17,3.7-34.5,5.1-51.4c0.7-9.5,1.5-19.2,2.4-28.8
				c3.4-34.8,5.6-68.6,6.6-100.7c0.7-21.4,0.3-43.2-0.1-64.3c-0.4-22.1-0.9-44.9-0.1-67.4c1.8-50.7,2.9-102.2,4.1-152.1
				c0.4-18.4,0.8-36.8,1.3-55.2c0.6-23.9,1.2-47.8,1.9-71.7c2.6-99.3,5.3-201.9,6.8-302.9c1.2-73.4,2-147.4,2.8-225.7
				c0.3-28.4,0.6-57.5,1-87.5c0.1-19.8,0.4-41.5,0.7-64.4c0.5-37.9,1.1-80.8,0.7-122.9c-0.2-12.3-0.6-24.8-1.1-36.9
				c-0.4-11-0.9-22.5-1.1-33.7c-0.7-35-1.5-72.3-4.1-109.8c-4.4-62.8-10.5-119.4-18.4-172.9l-0.3-2.1c-3.2-21.5-6.6-43.7-12.6-64.8
				c-7.5-26-15.2-48.8-23.6-69.6c-1.5-3.7-3-7.4-4.5-11.2c-8.2-20.5-16.6-41.7-28.9-60.4c-23.4-35.6-51.1-66.8-82.2-93l-1.8-1.5
				c-7.5-6.4-15.3-13-23.8-18c-27.6-16.3-57.1-26-82.3-33.3C406.1,8,383.8,5,359.7,5z"/>
		</g>
	</g>
	<g>
		<g>
			<g>
				<g>
					<g>
						<g>
							<g>
								<path class="st1" d="M306.3,506.1c8.5,0,8.4,13,0,13S297.9,506.1,306.3,506.1 M306.3,501.6c-6.2,0-10.8,4.7-10.8,11
									c0,2.8,1,5.4,2.7,7.4c2,2.3,4.9,3.6,8.1,3.6c6.2,0,10.8-4.7,10.8-11c0-2.8-1-5.4-2.7-7.4
									C312.5,502.9,309.6,501.6,306.3,501.6L306.3,501.6z"/>
							</g>
						</g>
						<g>
							<g>
								<path class="st1" d="M410.7,506.1c8.5,0,8.4,13,0,13C402.2,519.1,402.2,506.1,410.7,506.1 M410.7,501.6
									c-6.2,0-10.8,4.7-10.8,11c0,2.8,1,5.4,2.7,7.4c2,2.3,4.9,3.6,8.1,3.6c6.2,0,10.8-4.7,10.8-11c0-2.8-1-5.4-2.7-7.4
									C416.8,502.9,413.9,501.6,410.7,501.6L410.7,501.6z"/>
							</g>
						</g>
						<g>
							<g>
								<path class="st1" d="M306.3,641.6c8.5,0,8.4,13,0,13S297.9,641.6,306.3,641.6 M306.3,637.1c-6.2,0-10.8,4.7-10.8,11
									c0,2.8,1,5.4,2.7,7.4c2,2.3,4.9,3.6,8.1,3.6c6.2,0,10.8-4.7,10.8-11c0-2.8-1-5.4-2.7-7.4
									C312.5,638.4,309.6,637.1,306.3,637.1L306.3,637.1z"/>
							</g>
						</g>
						<g>
							<g>
								<path class="st1" d="M410.7,641.6c8.5,0,8.4,13,0,13C402.2,654.6,402.2,641.6,410.7,641.6 M410.7,637.1
									c-6.2,0-10.8,4.7-10.8,11c0,2.8,1,5.4,2.7,7.4c2,2.3,4.9,3.6,8.1,3.6c6.2,0,10.8-4.7,10.8-11c0-2.8-1-5.4-2.7-7.4
									C416.8,638.4,413.9,637.1,410.7,637.1L410.7,637.1z"/>
							</g>
						</g>
					</g>
				</g>
				<g>
					<g>
						<g>
							<g>
								<path class="st1" d="M306.3,1690.5c8.5,0,8.4,13,0,13C297.9,1703.4,297.9,1690.5,306.3,1690.5 M306.3,1686
									c-6.2,0-10.8,4.7-10.8,11c0,2.8,1,5.4,2.7,7.4c2,2.3,4.9,3.6,8.1,3.6c6.2,0,10.8-4.7,10.8-11c0-2.8-1-5.4-2.7-7.4
									C312.5,1687.2,309.6,1686,306.3,1686L306.3,1686z"/>
							</g>
						</g>
						<g>
							<g>
								<path class="st1" d="M410.7,1690.5c8.5,0,8.4,13,0,13C402.2,1703.4,402.2,1690.5,410.7,1690.5 M410.7,1686
									c-6.2,0-10.8,4.7-10.8,11c0,2.8,1,5.4,2.7,7.4c2,2.3,4.9,3.6,8.1,3.6c6.2,0,10.8-4.7,10.8-11c0-2.8-1-5.4-2.7-7.4
									C416.8,1687.2,413.9,1686,410.7,1686L410.7,1686z"/>
							</g>
						</g>
						<g>
							<g>
								<path class="st1" d="M306.3,1826c8.5,0,8.4,13,0,13S297.9,1826,306.3,1826 M306.3,1821.5c-6.2,0-10.8,4.7-10.8,11
									c0,2.8,1,5.4,2.7,7.4c2,2.3,4.9,3.6,8.1,3.6c6.2,0,10.8-4.7,10.8-11c0-2.8-1-5.4-2.7-7.4
									C312.5,1822.8,309.6,1821.5,306.3,1821.5L306.3,1821.5z"/>
							</g>
						</g>
						<g>
							<g>
								<path class="st1" d="M410.7,1826c8.5,0,8.4,13,0,13C402.2,1839,402.2,1826,410.7,1826 M410.7,1821.5
									c-6.2,0-10.8,4.7-10.8,11c0,2.8,1,5.4,2.7,7.4c2,2.3,4.9,3.6,8.1,3.6c6.2,0,10.8-4.7,10.8-11c0-2.8-1-5.4-2.7-7.4
									C416.8,1822.8,413.9,1821.5,410.7,1821.5L410.7,1821.5z"/>
							</g>
						</g>
					</g>
				</g>
			</g>
		</g>
	</g>
</g>
<g>
	<g>
		<path class="st2" d="M347.8,2345.3c-23.2,0-46.8-0.4-70.1-2.3c-38.4-3.2-83.1-9.3-123.8-30.8c-35.1-18.5-63.4-44.5-84.2-77.3
			c-13.1-20.6-20.3-43.4-27.2-71.5c-8.6-34.9-11.9-69.9-14.1-99.5c-0.9-12.3-2-24.9-3.1-37c-2.2-24.2-4.4-49.2-5-74
			c-0.1-5.2-0.3-10.4-0.4-15.6c-0.5-18.1-1-36.7-0.2-55.1c1.4-33.3,0.5-67.3-0.5-100.1c-0.3-8.8-0.5-17.6-0.7-26.4
			c-0.8-32.8-1.7-66.2-2.6-98.5c-0.6-21.9-1.2-43.8-1.7-65.6c-0.6-22.5-1.1-44.9-1.7-67.4c-1.9-76.5-3.9-155.6-5.5-233.5
			c-1.5-81.2-2.4-163.8-3.3-243.8l0-0.4c-0.5-36.5-0.8-73.6-1.1-109.5c-0.5-51.3-1-104.3-1.8-156.4C0.4,742.6,1.5,704,2.7,666.6
			l0.2-6.2c0.9-28.9,1.9-58.1,3-87C7.1,541,9.7,506.3,14,464.3c3.5-34,8.1-70.3,14.4-114.1C33,318.8,41.8,286,56.3,246.8
			c1.5-4.2,3.1-8.3,4.6-12.5c6.6-18.1,13.4-36.9,22.6-54.1c19.7-36.5,43.7-68.1,71.4-94c1.8-1.7,3.7-3.4,5.6-5.2
			c3-2.8,6.1-5.6,9.1-8.5c22.2-22.1,48.1-38.2,79.2-49.2c27-9.6,55.8-19.2,85.6-21.6c34.6-2.8,65.4,0,94,8.3
			c25.5,7.4,55.3,17.2,83.3,33.7c8.8,5.2,16.7,11.9,24.4,18.4l1.8,1.5c31.4,26.4,59.4,58,83,93.9c12.5,19,21.1,40.5,29.3,61.2
			c1.5,3.7,3,7.4,4.5,11.1c8.5,21,16.3,43.9,23.8,70c6.1,21.4,9.5,43.7,12.7,65.3l0.3,2.1c7.9,53.6,14,110.3,18.4,173.3
			c2.6,37.6,3.4,75,4.1,110c0.2,11.2,0.6,22.6,1.1,33.6c0.5,12.1,1,24.6,1.1,37c0.4,42.1-0.2,85.1-0.7,123
			c-0.3,22.9-0.6,44.5-0.7,64.3v0c-0.3,30-0.7,59.1-1,87.5c-0.9,78.3-1.7,152.3-2.8,225.7c-1.5,101-4.2,203.7-6.8,303
			c-0.6,23.9-1.3,47.8-1.9,71.7c-0.5,18.4-0.9,36.8-1.3,55.2c-1.1,49.9-2.3,101.4-4.1,152.2c-0.8,22.4-0.4,45.1,0.1,67.1
			c0.4,21.1,0.8,43,0.1,64.6c-1,32.1-3.2,66.1-6.6,100.9c-0.9,9.6-1.7,19.3-2.4,28.8c-1.3,17-2.7,34.5-5.1,51.6
			c-5.3,38.4-12.9,68.5-23.9,94.8c-14.3,34.5-38.6,62.8-76.6,89.1c-25.1,17.3-54.7,28.8-93.2,36c-31.1,5.9-64.4,8.5-108.1,8.6
			c-4.3,0-8.6,0-12.9,0.1C361.5,2345.2,354.7,2345.3,347.8,2345.3z M359.7,5.2c-8.1,0-16.4,0.3-25,1c-29.2,2.4-57.7,11.9-84.4,21.4
			c-30.5,10.8-55.9,26.6-77.6,48.2c-3,3-6.2,5.8-9.2,8.6c-1.9,1.7-3.7,3.4-5.5,5.1c-27.4,25.5-51.1,56.8-70.6,92.8
			c-9,16.9-15.8,35.5-22.3,53.5c-1.5,4.2-3,8.4-4.6,12.5c-14.4,38.9-23.2,71.4-27.7,102.4c-6.3,43.8-10.9,79.9-14.4,113.9
			c-4.3,42-6.8,76.5-8.1,108.9c-1.1,28.9-2.1,58.1-3,87l-0.2,6.2C6,704.1,4.9,742.7,5.4,780.7c0.8,52.1,1.3,105.1,1.8,156.4
			c0.3,35.9,0.7,73,1.1,109.5l0,0.5c0.9,79.9,1.8,162.6,3.3,243.7c1.6,77.8,3.6,156.9,5.5,233.4c0.6,22.4,1.1,44.9,1.7,67.4
			c0.6,21.9,1.2,43.8,1.7,65.6c0.9,32.3,1.8,65.6,2.6,98.5c0.2,8.8,0.5,17.6,0.7,26.4c0.9,32.9,1.9,66.9,0.5,100.4
			c-0.8,18.2-0.3,36.8,0.2,54.8c0.1,5.2,0.3,10.4,0.4,15.7c0.6,24.6,2.8,49.6,5,73.7c1.1,12.1,2.2,24.7,3.1,37.1
			c2.1,29.4,5.4,64.1,13.9,98.7c6.8,27.6,13.9,50.1,26.6,70.1c20.3,32.1,48.1,57.6,82.5,75.7c40,21.1,84.1,27.1,122,30.2
			c30,2.5,60.6,2.4,90.3,2.2c4.3,0,8.6,0,12.9-0.1c43.4-0.1,76.5-2.8,107.3-8.6c37.9-7.1,66.9-18.3,91.4-35.2
			c37.2-25.8,61-53.5,75-87.1c10.8-25.9,18.3-55.7,23.5-93.6c2.4-17,3.7-34.5,5.1-51.4c0.7-9.5,1.5-19.2,2.4-28.8
			c3.4-34.8,5.6-68.6,6.6-100.6c0.7-21.4,0.3-43.2-0.1-64.3c-0.4-22.1-0.9-44.9-0.1-67.4c1.8-50.7,2.9-102.2,4.1-152.1
			c0.4-18.4,0.8-36.8,1.3-55.2c0.6-23.9,1.2-47.8,1.9-71.7c2.6-99.3,5.3-201.9,6.8-302.9c1.2-73.4,2-147.4,2.8-225.7
			c0.3-28.4,0.6-57.4,1-87.5l0,0c0.1-19.8,0.4-41.5,0.7-64.4c0.5-37.9,1.1-80.8,0.7-122.9c-0.2-12.3-0.6-24.8-1.1-36.9
			c-0.4-11-0.9-22.5-1.1-33.7c-0.7-35-1.5-72.3-4.1-109.8C701,478,695,421.5,687.1,367.9l-0.3-2.1c-3.2-21.5-6.6-43.6-12.6-64.7
			c-7.5-26-15.2-48.8-23.6-69.6c-1.5-3.7-3-7.4-4.5-11.2c-8.2-20.5-16.6-41.7-28.9-60.3C593.7,124.5,566,93.2,535,67.1l-1.8-1.5
			c-7.5-6.4-15.3-12.9-23.8-17.9c-27.6-16.3-57.1-26-82.3-33.3C406,8.2,383.8,5.2,359.7,5.2z"/>
	</g>
</g>
<g>
	<g>
		<path class="st0" d="M350.2,2311.6c-21.4,0-43.2-0.3-64.6-2.2c-34.6-3.1-74.9-9-111.6-29.8c-31.6-17.9-57.1-43.1-75.9-74.8
			c-12.8-21.7-19.3-47.1-24.5-69.2c-7.8-34.1-10.8-68-12.7-96.6c-0.8-12.2-1.8-24.5-2.8-36.5c-1.9-23.3-3.9-47.5-4.5-71.4
			c-0.1-4.6-0.2-9.2-0.3-13.8c-0.5-18-1-36.6-0.2-54.9c1.3-32,0.4-64.6-0.4-96.2c-0.2-8.8-0.5-17.8-0.7-26.7
			c-0.6-26.7-1.3-53.8-2-80c-0.7-26-1.3-52.9-1.9-79.4c-0.7-29.1-1.3-58.2-2-87.4c-1.6-67.2-3.2-136.7-4.5-205
			c-1.2-63.2-1.9-127.6-2.6-189.8c-0.2-15.9-0.3-31.7-0.5-47.6c-0.3-31.3-0.6-63.2-0.9-94c-0.5-53.9-1-109.6-1.7-164.4
			c-0.6-37,0.5-74.5,1.5-110.7l0.2-6.1c0.8-28.1,1.7-56.5,2.7-84.6c1.3-39,4.6-77.1,7.3-106c3.1-33.3,7.4-69.6,13-110.9
			c4.1-30.3,12.1-62.2,25.2-100.3c1.4-4.1,2.8-8.2,4.2-12.3c5.9-17.5,12-35.7,20.3-52.2c17.6-35.2,39.3-65.9,64.4-91.2
			c1.5-1.5,3-2.9,4.5-4.4c2.9-2.9,6-5.8,8.8-8.9c19.9-21.3,43.2-36.9,71.4-47.7c25.5-9.7,50.5-18.7,77.2-21c31.3-2.6,59,0,84.8,8
			c23,7.2,50,16.8,75.2,32.7c7.9,5.1,15,11.5,21.9,17.8l1.7,1.6c28.6,25.9,53.8,56.6,74.9,91.1c11.4,18.7,19.1,39.6,26.6,59.9
			c1.3,3.4,2.5,6.8,3.8,10.2c7.8,20.9,14.9,43.1,21.4,67.9c5.7,21.1,8.7,43.3,11.6,64.7l0.1,0.6c7.2,53,12.7,108.1,16.6,168.3
			c2.4,36.7,3.2,74.4,3.7,106.9c0.2,10.8,0.6,21.8,1,32.5c0.4,11.8,0.9,24.1,1,36.1c0.6,42.9,0,86.6-0.4,125.2
			c-0.3,20.2-0.5,39.3-0.6,56.9v0c-0.4,33.9-0.7,66.5-1,98.3c-0.7,71.4-1.4,138.8-2.4,206.1c-1.3,92.6-3.6,186.6-5.7,277.6
			c-0.7,28.8-1.4,57.6-2.1,86.4c-0.5,21-1,42.3-1.4,62.9c-1,45.4-2,92.4-3.5,138.7c-0.7,21.8-0.3,44,0.1,65.5
			c0.4,20.5,0.7,41.6,0.1,62.5c-0.9,31.5-2.8,63.6-6,98.1c-0.9,9.6-1.6,19.3-2.3,28.8c-1.2,16.2-2.4,33-4.5,49.4
			c-5,38-11.6,66.4-21.5,91.8c-12.9,33.5-34.8,60.9-68.9,86.3c-22.3,16.7-49,27.7-84,34.9c-27.9,5.6-58,8.2-97.6,8.3
			c-3.4,0-6.9,0-10.3,0C362.6,2311.6,356.4,2311.6,350.2,2311.6z M359.4,37.6c-7.3,0-14.9,0.3-22.6,1c-26.3,2.3-51.1,11.1-76.4,20.8
			c-27.7,10.6-50.7,26-70.2,46.9c-2.9,3.1-6,6.1-8.9,9c-1.5,1.5-3,2.9-4.4,4.4c-24.9,25.1-46.4,55.5-63.8,90.4
			c-8.2,16.4-14.3,34.4-20.1,51.9c-1.4,4.1-2.8,8.3-4.2,12.4c-13,37.9-20.9,69.6-25,99.7c-5.6,41.3-9.9,77.5-13,110.7
			c-2.7,28.8-6,66.9-7.3,105.8c-1,28.1-1.9,56.5-2.7,84.6l-0.2,6.1c-1,36.2-2.1,73.7-1.5,110.6c0.8,54.8,1.3,110.5,1.7,164.4
			c0.3,30.8,0.5,62.7,0.9,94c0.2,15.9,0.4,31.7,0.5,47.6c0.7,62.2,1.4,126.6,2.6,189.8c1.3,68.3,2.9,137.8,4.5,204.9
			c0.7,29.1,1.4,58.2,2,87.4c0.6,26.5,1.3,53.4,1.9,79.4c0.7,26.2,1.4,53.3,2,80c0.2,8.9,0.4,18,0.7,26.7
			c0.9,31.6,1.8,64.2,0.4,96.4c-0.8,18.3-0.3,36.8,0.2,54.7c0.1,4.6,0.2,9.2,0.3,13.8c0.5,23.8,2.5,47.9,4.5,71.2
			c1,12,2,24.4,2.8,36.6c1.9,28.5,4.9,62.3,12.7,96.2c5.1,21.9,11.5,47.1,24.1,68.4c18.5,31.3,43.6,56.1,74.8,73.8
			c36.2,20.5,76.1,26.4,110.4,29.4c27.6,2.4,55.7,2.3,82.9,2.1c3.5,0,6.9,0,10.3,0c39.4-0.1,69.3-2.7,97-8.3
			c34.6-7,60.9-17.9,82.8-34.3c33.6-25,55.2-52,67.9-84.9c9.8-25.2,16.4-53.4,21.3-91.2c2.1-16.3,3.3-33,4.5-49.2
			c0.7-9.5,1.4-19.2,2.3-28.8c3.2-34.5,5.1-66.5,6-97.9c0.6-20.8,0.2-41.9-0.1-62.4c-0.4-21.5-0.8-43.7-0.1-65.6
			c1.5-46.2,2.5-93.2,3.5-138.6c0.4-20.6,0.9-41.9,1.4-62.9c0.7-28.8,1.4-57.6,2.1-86.4c2.2-90.9,4.5-185,5.7-277.5
			c1-67.3,1.7-134.7,2.4-206.1c0.3-31.8,0.7-64.4,1-98.3c0.1-17.6,0.3-36.7,0.6-56.9c0.5-38.5,1-82.2,0.4-125.1
			c-0.2-12-0.6-24.3-1-36.1c-0.4-10.6-0.8-21.7-1-32.5c-0.5-32.4-1.3-70.1-3.7-106.7c-4-60.2-9.4-115.2-16.6-168.1l-0.1-0.6
			c-2.9-21.4-6-43.5-11.6-64.4c-6.6-24.7-13.5-46.9-21.4-67.7c-1.3-3.4-2.5-6.8-3.8-10.3c-7.4-20.2-15.1-41-26.4-59.4
			c-20.9-34.3-45.9-64.7-74.3-90.5l-1.7-1.6c-6.8-6.2-13.8-12.6-21.5-17.5c-24.9-15.7-51.6-25.2-74.4-32.3
			C401.3,40.5,381.2,37.6,359.4,37.6z"/>
	</g>
</g>
<g>
	<g>
		<path class="st3" d="M350.8,2277.2c-3.7,0-7.4,0-11.2,0l0-3.7c3.7,0,7.4,0,11.1,0l3.3,0l0,3.7L350.8,2277.2z M368.5,2277.1l0-3.7
			c2.8,0,5.5,0,8.3,0c2,0,4,0,6.1,0l0,3.7c-2,0-4.1,0-6.1,0C374,2277.1,371.3,2277.1,368.5,2277.1z M325.2,2276.8
			c-5.1-0.1-9.8-0.3-14.4-0.6l0.2-3.7c4.6,0.3,9.3,0.4,14.3,0.6L325.2,2276.8z M397.3,2276.7l-0.1-3.7c4.9-0.2,9.7-0.4,14.3-0.7
			l0.2,3.7C407.2,2276.3,402.3,2276.5,397.3,2276.7z M296.4,2275.2c-1-0.1-2-0.2-3.1-0.3c-4-0.4-7.8-0.8-11.3-1.2l0.4-3.7
			c3.5,0.4,7.2,0.8,11.2,1.2c1,0.1,2,0.2,3,0.3L296.4,2275.2z M426.2,2274.8l-0.4-3.7c4.8-0.5,9.6-1.1,14.2-1.7l0.5,3.7
			C435.9,2273.7,431.1,2274.3,426.2,2274.8z M267.7,2271.7c-4.9-0.8-9.7-1.7-14.3-2.6l0.8-3.6c4.5,0.9,9.2,1.8,14.1,2.6
			L267.7,2271.7z M454.9,2270.8l-0.7-3.6c3-0.6,6.1-1.2,9-1.8c1.7-0.4,3.3-0.7,5-1.1l0.9,3.6c-1.7,0.4-3.4,0.8-5.1,1.1
			C461,2269.6,457.9,2270.2,454.9,2270.8z M239.3,2265.7c-4.7-1.3-9.4-2.8-13.8-4.4l1.3-3.5c4.4,1.6,8.9,3,13.6,4.3L239.3,2265.7z
			 M483.1,2264l-1.1-3.5c4.7-1.4,9.2-3,13.5-4.6l1.3,3.5C492.4,2261,487.8,2262.6,483.1,2264z M212,2255.8c-4.4-2-8.8-4.2-13-6.6
			l1.8-3.2c4.1,2.3,8.4,4.5,12.7,6.4L212,2255.8z M510.2,2253.5l-1.6-3.3c4.3-2.1,8.5-4.4,12.5-6.8l1.9,3.2
			C518.9,2249,514.6,2251.3,510.2,2253.5z M186.7,2241.5c-4-2.7-7.9-5.6-11.7-8.6l2.3-2.9c3.7,3,7.6,5.8,11.5,8.4L186.7,2241.5z
			 M535,2238.3l-2.2-3c1.4-1,2.7-2.1,4.1-3.2c2.4-1.9,4.7-3.9,7-5.9l2.4,2.8c-2.3,2-4.6,4-7.1,5.9
			C537.8,2236.1,536.4,2237.2,535,2238.3z M164,2223.4c-3.5-3.3-6.9-6.8-10.2-10.4l2.7-2.5c3.2,3.5,6.6,6.9,10,10.2L164,2223.4z
			 M556.9,2219.3l-2.6-2.6c3.4-3.4,6.7-6.9,9.8-10.4l2.8,2.5C563.8,2212.3,560.4,2215.8,556.9,2219.3z M144.4,2201.9
			c-2.9-3.8-5.8-7.7-8.5-11.8l3.1-2.1c2.7,4,5.5,7.9,8.4,11.6L144.4,2201.9z M576.1,2197.4l-3-2.2c2.9-3.8,5.6-7.8,8.1-11.7l3.1,2
			C581.8,2189.5,579,2193.5,576.1,2197.4z M128.2,2177.8c-0.9-1.5-1.7-3-2.5-4.5c-1.5-2.7-2.9-5.5-4.2-8.4l3.4-1.6
			c1.3,2.8,2.7,5.5,4.1,8.1c0.8,1.5,1.7,3,2.5,4.5L128.2,2177.8z M591.5,2172.8l-3.3-1.7c2.2-4.2,4.2-8.5,6-12.9l3.4,1.4
			C595.8,2164.1,593.7,2168.5,591.5,2172.8z M116,2151.5c-1.6-4.3-3-8.9-4.5-13.8l3.6-1c1.4,4.9,2.9,9.3,4.4,13.6L116,2151.5z
			 M602.7,2146l-3.5-1.2c1.5-4.4,2.9-9,4.2-13.7l3.6,1C605.6,2136.9,604.2,2141.5,602.7,2146z M107.8,2123.7
			c-1-4.2-2.1-8.8-3.2-14.1l3.6-0.8c1.1,5.3,2.2,9.8,3.2,14L107.8,2123.7z M610.6,2118.1l-3.6-0.9c1.1-4.5,2.1-9.2,3-14l3.6,0.7
			C612.7,2108.8,611.6,2113.6,610.6,2118.1z M101.7,2095.4c-0.9-4.6-1.7-9.4-2.4-14.3l3.7-0.6c0.7,4.8,1.5,9.6,2.4,14.1
			L101.7,2095.4z M616.2,2089.7l-3.7-0.6c0.7-4.5,1.5-9.3,2.1-14.2l3.7,0.5C617.7,2080.4,616.9,2085.2,616.2,2089.7z M97.3,2066.8
			c-0.6-4.6-1.1-9.4-1.6-14.3l3.7-0.4c0.5,4.9,1.1,9.7,1.6,14.3L97.3,2066.8z M620.2,2061.1l-3.7-0.4c0.5-4.5,1-9.2,1.5-14.3
			l3.7,0.3C621.2,2051.9,620.7,2056.6,620.2,2061.1z M94.3,2038.1c-0.4-4.6-0.8-9.4-1.1-14.4l3.7-0.3c0.3,5,0.7,9.8,1.1,14.3
			L94.3,2038.1z M622.8,2032.4l-3.7-0.3c0.4-4.8,0.7-9.6,1-14.4l3.7,0.3C623.5,2022.8,623.2,2027.6,622.8,2032.4z M92.3,2009.4
			c-0.3-4.8-0.7-9.6-1-14.4l3.7-0.3c0.4,4.8,0.7,9.6,1,14.4L92.3,2009.4z M624.8,2003.6l-3.7-0.3c0.4-5.6,0.7-10.2,1.1-14.4l3.7,0.3
			C625.6,1993.5,625.2,1998,624.8,2003.6z M90.2,1980.7l-0.1-1.9c-0.3-4.2-0.6-8.3-0.9-12.5l3.7-0.3c0.3,4.2,0.6,8.3,0.9,12.5
			l0.1,1.9L90.2,1980.7z M627.1,1974.9l-3.7-0.3c0.4-4.8,0.7-9.6,1-14.3l3.7,0.3C627.8,1965.4,627.4,1970.1,627.1,1974.9z
			 M88,1951.9c-0.4-5.2-0.7-9.9-0.9-14.4l3.7-0.2c0.3,4.5,0.6,9.2,0.9,14.4L88,1951.9z M629,1946.2l-3.7-0.2
			c0.3-4.8,0.6-9.6,0.8-14.4l3.7,0.2C629.6,1936.6,629.3,1941.4,629,1946.2z M86.4,1923.1c-0.2-5-0.4-9.8-0.5-14.4l3.7-0.1
			c0.1,4.6,0.3,9.4,0.5,14.4L86.4,1923.1z M630.6,1917.4l-3.7-0.2c0.2-4.8,0.4-9.6,0.6-14.4l3.7,0.1
			C630.9,1907.8,630.8,1912.6,630.6,1917.4z M85.7,1894.3l0-1.6c-0.1-4.3-0.2-8.5-0.3-12.8l3.7-0.1c0.1,4.2,0.2,8.5,0.3,12.8l0,1.6
			L85.7,1894.3z M631.5,1888.6l-3.7-0.1c0.1-4.6,0.2-9.3,0.2-14.4l3.7,0C631.7,1879.2,631.6,1883.9,631.5,1888.6z M85.1,1865.5
			c0-1.6,0-3.3,0-4.9c0-3.3,0-6.5,0.1-9.5l3.7,0.1c0,3-0.1,6.2-0.1,9.5c0,1.6,0,3.2,0,4.9L85.1,1865.5z M628,1859.7
			c0-4.8-0.1-9.6-0.2-14.4l3.7-0.1c0.1,4.8,0.1,9.6,0.2,14.4L628,1859.7z M89.3,1836.7l-3.7-0.1c0.1-4.6,0.3-9.5,0.3-14.4l3.7,0.1
			C89.6,1827.2,89.5,1832.1,89.3,1836.7z M627.6,1831c-0.1-4.8-0.2-9.6-0.2-14.4l3.7-0.1c0.1,4.8,0.2,9.6,0.2,14.4L627.6,1831z
			 M89.8,1807.9l-3.7,0l0-2.1c0-4.1,0-8.2-0.1-12.3l3.7,0c0,4.1,0.1,8.2,0.1,12.3L89.8,1807.9z M627.2,1802.1c0-3,0-6,0-9
			c0-1.8,0-3.6,0-5.4l3.7,0c0,1.8,0,3.6,0,5.4c0,3,0,6,0,9L627.2,1802.1z M85.8,1779.1c-0.1-4.8-0.2-9.6-0.3-14.4l3.7-0.1
			c0.1,4.8,0.2,9.6,0.3,14.4L85.8,1779.1z M631.1,1773.4l-3.7-0.1c0-2.1,0.1-4.2,0.2-6.2l0.2-8.2l3.7,0.1l-0.2,8.2
			C631.2,1769.2,631.1,1771.3,631.1,1773.4z M85.2,1750.3l-0.3-14.4l3.7-0.1l0.3,14.4L85.2,1750.3z M631.9,1744.6l-3.7-0.1
			c0.1-4.8,0.3-9.6,0.4-14.4l3.7,0.1C632.2,1735,632,1739.8,631.9,1744.6z M84.5,1721.5c-0.1-4.8-0.2-9.6-0.3-14.4l3.7-0.1
			c0.1,4.8,0.2,9.6,0.3,14.4L84.5,1721.5z M632.7,1715.8l-3.7-0.1c0.1-4.8,0.2-9.6,0.3-14.4l3.7,0.1
			C632.9,1706.2,632.8,1711,632.7,1715.8z M83.9,1692.7c-0.1-4.8-0.2-9.6-0.3-14.4l3.7-0.1c0.1,4.8,0.2,9.6,0.3,14.4L83.9,1692.7z
			 M633.3,1687l-3.7-0.1c0.1-4.8,0.2-9.6,0.3-14.4l3.7,0.1C633.5,1677.4,633.4,1682.2,633.3,1687z M83.3,1663.9l-0.3-14.4l3.7-0.1
			l0.3,14.4L83.3,1663.9z M633.9,1658.2l-3.7-0.1l0.3-14.4l3.7,0.1L633.9,1658.2z M82.6,1635.1l-0.3-14.4l3.7-0.1l0.3,14.4
			L82.6,1635.1z M634.5,1629.4l-3.7-0.1l0.3-14.4l3.7,0.1L634.5,1629.4z M81.9,1606.4l-0.3-14.4l3.7-0.1l0.3,14.4L81.9,1606.4z
			 M635.1,1600.6l-3.7-0.1l0.3-14.4l3.7,0.1L635.1,1600.6z M81.3,1577.6l-0.3-14.4l3.7-0.1l0.3,14.4L81.3,1577.6z M635.7,1571.8
			l-3.7-0.1l0.3-14.4l3.7,0.1L635.7,1571.8z M80.6,1548.8l-0.3-14.4l3.7-0.1l0.3,14.4L80.6,1548.8z M636.3,1543l-3.7-0.1l0.3-14.4
			l3.7,0.1L636.3,1543z M80,1520l-0.3-14.4l3.7-0.1l0.3,14.4L80,1520z M636.9,1514.2l-3.7-0.1l0.3-14.4l3.7,0.1L636.9,1514.2z
			 M79.4,1491.2l-0.3-14.4l3.7-0.1l0.3,14.4L79.4,1491.2z M637.5,1485.4l-3.7-0.1l0.3-14.4l3.7,0.1L637.5,1485.4z M78.8,1462.4
			l-0.3-14.4l3.7-0.1l0.3,14.4L78.8,1462.4z M638.2,1456.7l-3.7-0.1l0.3-14.4l3.7,0.1L638.2,1456.7z M78.2,1433.6l-0.3-14.4l3.7-0.1
			l0.3,14.4L78.2,1433.6z M638.8,1427.9l-3.7-0.1l0.3-14.4l3.7,0.1L638.8,1427.9z M77.6,1404.8l-0.3-14.4l3.7-0.1l0.3,14.4
			L77.6,1404.8z M639.5,1399.1l-3.7-0.1l0.3-14.4l3.7,0.1L639.5,1399.1z M77,1376l-0.3-14.4l3.7-0.1l0.3,14.4L77,1376z
			 M640.1,1370.3l-3.7-0.1l0.3-14.4l3.7,0.1L640.1,1370.3z M76.4,1347.2l-0.3-14.4l3.7-0.1l0.3,14.4L76.4,1347.2z M640.6,1341.5
			l-3.7-0.1c0.1-4.8,0.2-9.6,0.3-14.4l3.7,0.1C640.8,1331.9,640.7,1336.7,640.6,1341.5z M75.9,1318.4l-0.3-14.4l3.7-0.1l0.3,14.4
			L75.9,1318.4z M641.2,1312.7l-3.7-0.1l0.3-14.4l3.7,0.1L641.2,1312.7z M75.3,1289.6l-0.2-14.4l3.7-0.1l0.2,14.4L75.3,1289.6z
			 M641.7,1283.9l-3.7-0.1c0.1-4.8,0.2-9.6,0.2-14.4l3.7,0.1C641.8,1274.3,641.8,1279.1,641.7,1283.9z M74.9,1260.8
			c-0.1-4.8-0.1-9.6-0.2-14.4l3.7-0.1c0.1,4.8,0.1,9.6,0.2,14.4L74.9,1260.8z M642.1,1255.1l-3.7-0.1c0.1-4.8,0.1-9.6,0.2-14.4
			l3.7,0.1C642.3,1245.5,642.2,1250.3,642.1,1255.1z M74.5,1232c-0.1-4.8-0.1-9.6-0.2-14.4l3.7,0c0.1,4.8,0.1,9.6,0.2,14.4
			L74.5,1232z M642.6,1226.3l-3.7,0l0.2-14.4l3.7,0L642.6,1226.3z M74.1,1203.2l-0.2-14.4l3.7,0l0.2,14.4L74.1,1203.2z
			 M642.9,1197.5l-3.7,0l0.2-14.4l3.7,0L642.9,1197.5z M73.7,1174.4l-0.2-14.4l3.7,0l0.2,14.4L73.7,1174.4z M643.3,1168.7l-3.7,0
			l0.2-14.4l3.7,0L643.3,1168.7z M73.4,1145.6l-0.1-14.4l3.7,0l0.1,14.4L73.4,1145.6z M643.6,1139.9l-3.7,0l0.1-14.4l3.7,0
			L643.6,1139.9z M73.1,1116.8l-0.1-14.4l3.7,0l0.1,14.4L73.1,1116.8z M643.9,1111.1l-3.7,0l0.1-14.4l3.7,0L643.9,1111.1z
			 M72.9,1088l-0.1-14.4l3.7,0l0.1,14.4L72.9,1088z M644.1,1082.2l-3.7,0l0.1-14.4l3.7,0L644.1,1082.2z M72.6,1059.2l-0.1-14.4
			l3.7,0l0.1,14.4L72.6,1059.2z M644.4,1053.4l-3.7,0l0.1-14.4l3.7,0L644.4,1053.4z M72.3,1030.4l-0.1-14.4l3.7,0l0.1,14.4
			L72.3,1030.4z M644.7,1024.6l-3.7,0l0.1-14.4l3.7,0L644.7,1024.6z M72.1,1001.6L72,987.2l3.7,0l0.1,14.4L72.1,1001.6z
			 M644.9,995.8l-3.7,0l0.1-14.4l3.7,0L644.9,995.8z M71.9,972.8l-0.1-14.4l3.7,0l0.1,14.4L71.9,972.8z M645.2,967l-3.7,0l0.1-14.4
			l3.7,0L645.2,967z M71.6,944l-0.1-14.4l3.7,0l0.1,14.4L71.6,944z M645.5,938.2l-3.7,0l0.2-18.4l3.7,0l0,4.1L645.5,938.2z
			 M71.4,915.2l-0.1-14.4l3.7,0l0.1,14.4L71.4,915.2z M645.8,905.4l-3.7,0c0-4.7,0.1-9.5,0.1-14.4l3.7,0
			C645.9,895.8,645.8,900.6,645.8,905.4z M71.2,886.4L71,872l3.7,0l0.1,14.4L71.2,886.4z M646.1,876.6l-3.7,0l0.2-14.4l3.7,0
			L646.1,876.6z M70.9,857.6l-0.2-14.4l3.7,0l0.2,14.4L70.9,857.6z M646.4,847.8l-3.7,0c0.1-4.8,0.1-9.6,0.1-14.4l3.7,0
			C646.5,838.2,646.5,843,646.4,847.8z M70.6,828.8c-0.1-4.8-0.1-9.6-0.2-14.4l3.7,0c0.1,4.8,0.1,9.6,0.2,14.4L70.6,828.8z
			 M646.7,818.9l-3.7,0c0-4.8,0.1-9.6,0.1-14.4l3.7,0C646.7,809.4,646.7,814.2,646.7,818.9z M70.2,800c-0.1-4.8-0.1-9.6-0.1-14.4
			l3.7,0c0,4.8,0,9.6,0.1,14.4L70.2,800z M646.8,790.1l-3.7,0l0-3.8c0-3.5,0-7.1,0-10.6l3.7,0c0,3.6,0,7.1,0,10.7L646.8,790.1z
			 M73.9,771.2l-3.7,0c0-4.8,0.1-9.6,0.1-14.4l3.7,0C73.9,761.6,73.9,766.4,73.9,771.2z M643,761.3c0-4.7-0.1-9.5-0.1-14.2l0-0.2
			l3.7-0.1l0,0.2c0.1,4.7,0.1,9.5,0.1,14.2L643,761.3z M74.2,742.4l-3.7-0.1c0.1-4.8,0.2-9.6,0.3-14.4l3.7,0.1
			C74.4,732.8,74.3,737.6,74.2,742.4z M642.5,732.6c-0.1-4.8-0.3-9.6-0.4-14.4l3.7-0.1c0.2,4.8,0.3,9.6,0.4,14.4L642.5,732.6z
			 M74.8,713.7l-3.7-0.1c0.1-4.8,0.2-9.6,0.4-14.4l3.7,0.1C75.1,704.1,75,708.9,74.8,713.7z M641.6,703.8c-0.2-4.8-0.3-9.6-0.4-14.4
			l3.7-0.1c0.1,4.8,0.2,9.6,0.4,14.4L641.6,703.8z M75.6,684.9l-3.7-0.1c0.1-4.8,0.3-9.6,0.4-14.4l3.7,0.1
			C75.8,675.3,75.7,680.1,75.6,684.9z M641,675c-0.1-4.8-0.2-9.6-0.2-14.4l3.7-0.1c0.1,4.8,0.2,9.6,0.2,14.4L641,675z M76.4,656.1
			l-3.7-0.1c0.1-4.8,0.3-9.6,0.4-14.4l3.7,0.1C76.6,646.5,76.5,651.3,76.4,656.1z M640.4,646.2c-0.1-4.8-0.2-9.6-0.4-14.4l3.7-0.1
			c0.1,4.8,0.3,9.6,0.4,14.4L640.4,646.2z M77.2,627.3l-3.7-0.1c0.1-4.8,0.3-9.6,0.5-14.4l3.7,0.1C77.5,617.7,77.4,622.5,77.2,627.3
			z M639.6,617.4c-0.2-4.8-0.4-9.6-0.6-14.4l3.7-0.2c0.2,4.8,0.4,9.6,0.6,14.4L639.6,617.4z M78.2,598.5l-3.7-0.1
			c0.2-4.7,0.4-9.5,0.6-14.4l3.7,0.2C78.6,589,78.4,593.9,78.2,598.5z M638.4,588.7c-0.2-3.8-0.4-7.6-0.6-11.5l-0.2-2.9l3.7-0.2
			l0.2,2.9c0.2,3.8,0.4,7.7,0.6,11.5L638.4,588.7z M79.6,569.8l-3.7-0.2c0.3-4.8,0.6-9.6,0.9-14.4l3.7,0.2
			C80.2,560.2,79.9,565,79.6,569.8z M636.7,559.9c-0.3-4.8-0.6-9.6-1-14.4l3.7-0.3c0.3,4.8,0.7,9.6,1,14.4L636.7,559.9z M81.5,541.1
			l-3.7-0.3c0.3-4.8,0.7-9.6,1.1-14.4l3.7,0.3C82.2,531.5,81.9,536.3,81.5,541.1z M634.7,531.2c-0.4-4.8-0.7-9.6-1.1-14.3l3.7-0.3
			c0.4,4.8,0.8,9.6,1.1,14.4L634.7,531.2z M83.8,512.4l-3.7-0.3c0.2-2.4,0.4-4.7,0.6-7.1c0.2-2.4,0.4-4.9,0.6-7.3l3.7,0.3
			c-0.2,2.4-0.4,4.9-0.6,7.3C84.1,507.7,84,510.1,83.8,512.4z M632.3,502.6c-0.4-4.8-0.8-9.6-1.3-14.3l3.7-0.3
			c0.4,4.8,0.9,9.6,1.3,14.4L632.3,502.6z M86.3,483.7l-3.7-0.4c0.5-4.8,0.9-9.6,1.4-14.3l3.7,0.4C87.2,474.2,86.8,479,86.3,483.7z
			 M629.7,473.9c-0.5-4.8-1-9.5-1.5-14.3l3.7-0.4c0.5,4.8,1,9.6,1.5,14.3L629.7,473.9z M89.2,455.1l-3.7-0.4c0.5-4.8,1-9.6,1.6-14.3
			l3.7,0.4C90.3,445.6,89.8,450.3,89.2,455.1z M626.6,445.3c-0.5-4.8-1.1-9.5-1.6-14.3l3.7-0.4c0.6,4.8,1.1,9.5,1.6,14.3
			L626.6,445.3z M92.5,426.5l-3.7-0.4c0.6-4.8,1.1-9.5,1.7-14.3l3.7,0.4C93.6,417,93,421.7,92.5,426.5z M623.3,416.7l-0.3-2.5
			c-0.5-3.9-1-7.9-1.5-11.8l3.7-0.5c0.5,3.9,1,7.9,1.5,11.8l0.3,2.5L623.3,416.7z M96,397.9l-3.7-0.5c0.6-4.7,1.3-9.5,2-14.3
			l3.7,0.6C97.2,388.5,96.5,393.3,96,397.9z M619.6,388.2c-0.7-5.1-1.5-9.7-2.2-14.2l3.7-0.6c0.8,4.5,1.5,9.2,2.2,14.3L619.6,388.2z
			 M100.5,369.6l-3.6-0.7c0.9-4.6,1.9-9.4,3-14.1l3.6,0.8C102.4,360.3,101.4,365,100.5,369.6z M614.6,359.9c-0.6-3-1.3-6-2-8.8
			c-0.4-1.7-0.9-3.4-1.3-5.1l3.6-0.9c0.4,1.7,0.9,3.4,1.3,5.2c0.7,2.9,1.4,5.9,2.1,8.9L614.6,359.9z M106.8,341.6l-3.6-0.9
			c1.1-4.5,2.4-9.2,3.7-14l3.6,1C109.1,332.5,107.9,337.1,106.8,341.6z M607.7,332.1c-1.3-4.7-2.6-9.4-3.9-13.8l3.6-1
			c1.3,4.5,2.6,9.2,3.9,13.9L607.7,332.1z M114.4,313.9l-3.6-1.1c1.2-4.1,2.5-8.3,3.9-12.5l0.4-1.2l3.5,1.1l-0.4,1.2
			C116.9,305.7,115.6,309.9,114.4,313.9z M599.7,304.5c-1.4-4.6-2.9-9.2-4.4-13.7l3.5-1.2c1.5,4.5,3,9.1,4.4,13.7L599.7,304.5z
			 M122.9,286.5l-3.5-1.1c1.4-4.4,2.8-9.1,4.3-13.8l3.5,1.1C125.8,277.3,124.3,282.1,122.9,286.5z M590.7,277.2l-0.5-1.5
			c-1.4-4-2.7-8.1-4.1-12.1l3.5-1.2c1.4,4,2.8,8.1,4.2,12.2l0.5,1.5L590.7,277.2z M131.9,259.2l-3.5-1.3c1.8-4.9,3.5-9.3,5.3-13.5
			l3.4,1.4C135.3,250,133.6,254.3,131.9,259.2z M581.2,250.1c-1.8-4.8-3.6-9.2-5.3-13.3l3.4-1.5c1.8,4.2,3.6,8.5,5.4,13.4
			L581.2,250.1z M143,232.8l-3.3-1.6c2.1-4.4,4.3-8.7,6.5-12.9l3.3,1.7C147.3,224.2,145.1,228.5,143,232.8z M569.7,223.9
			c-1-1.9-2-3.9-3.1-5.7c-1.3-2.2-2.6-4.5-3.9-6.8l3.2-1.9c1.3,2.3,2.7,4.6,3.9,6.9c1.1,1.9,2.1,3.8,3.1,5.8L569.7,223.9z
			 M156.4,207.5l-3.2-1.9c2.4-4.2,5-8.4,7.5-12.4l3.1,2C161.3,199.2,158.8,203.3,156.4,207.5z M555.3,199.2c-2.6-4-5.2-8.1-7.9-12
			l3.1-2.1c2.7,3.9,5.4,8,7.9,12.1L555.3,199.2z M171.8,183.3l-3-2.1c2.8-4,5.6-7.9,8.5-11.7l2.9,2.3
			C177.3,175.5,174.5,179.4,171.8,183.3z M539.2,175.5c-2.8-3.9-5.8-7.7-8.7-11.4l2.9-2.3c3,3.7,5.9,7.6,8.8,11.5L539.2,175.5z
			 M189.1,160.6l-2.8-2.4c2.6-3,5.2-6,7.8-8.9c0.6-0.6,1.2-1.3,1.8-1.9l2.7,2.5c-0.6,0.6-1.2,1.3-1.7,1.9
			C194.3,154.6,191.7,157.6,189.1,160.6z M521.3,153.1c-3.1-3.6-6.3-7.2-9.5-10.7l2.7-2.5c3.3,3.5,6.5,7.1,9.6,10.8L521.3,153.1z
			 M208.4,139.2l-2.8-2.4l0.3-0.4c3.1-3.6,6.3-7,9.6-10.3l2.6,2.6c-3.2,3.2-6.4,6.6-9.4,10.1L208.4,139.2z M501.9,132.1
			c-0.5-0.5-1-1-1.5-1.4c-0.9-0.9-1.9-1.8-2.8-2.7c-2-1.9-4-3.9-6-5.8l2.5-2.7c2,1.9,4.1,3.9,6.1,5.9c0.9,0.9,1.9,1.8,2.8,2.7
			c0.5,0.5,1,1,1.5,1.5L501.9,132.1z M228.6,119.1l-2.4-2.8c3.7-3.1,7.6-6.1,11.6-8.8l2.1,3C236,113.2,232.2,116.1,228.6,119.1z
			 M480.8,112.9c-0.3-0.2-0.7-0.5-1-0.7c-3.5-2.4-7.2-4.8-10.9-7l1.9-3.2c3.8,2.3,7.6,4.7,11.2,7.1c0.4,0.3,0.7,0.5,1.1,0.8
			L480.8,112.9z M251.9,102.9l-1.8-3.2c4.2-2.4,8.5-4.6,12.9-6.7l1.6,3.4C260.2,98.3,256,100.5,251.9,102.9z M456.3,98.4
			c-4.1-2.1-8.5-4.1-12.9-6.1l1.5-3.4c4.5,2,9,4.1,13.1,6.2L456.3,98.4z M277.7,90.7l-1.4-3.4c5-2,9.4-3.8,13.5-5.3l1.3,3.5
			C287.1,87,282.7,88.7,277.7,90.7z M430.1,86.9c-4.2-1.6-8.6-3.2-13.5-4.9l1.2-3.5c4.9,1.7,9.3,3.3,13.6,4.9L430.1,86.9z
			 M304.6,80.8l-1.1-3.5c4.9-1.6,9.5-2.9,14-3.9l0.9,3.6C313.9,78,309.4,79.2,304.6,80.8z M403,77.8c-4.5-1.2-9.2-2.2-13.9-3
			l0.6-3.7c4.8,0.8,9.6,1.9,14.2,3.1L403,77.8z M332.3,74.2l-0.5-3.7c2.3-0.3,4.7-0.6,7-0.8c2.5-0.2,5-0.4,7.5-0.6l0.2,3.7
			c-2.4,0.2-4.9,0.3-7.4,0.6C336.8,73.6,334.6,73.8,332.3,74.2z M375,73c-4.6-0.4-9.4-0.6-14.2-0.6l0-3.7c4.9,0,9.8,0.3,14.5,0.7
			L375,73z"/>
	</g>
</g>
</svg>
