<?xml version="1.0" encoding="utf-8"?>
<!-- Generator: Adobe Illustrator 26.3.1, SVG Export Plug-In . SVG Version: 6.00 Build 0)  -->
<svg version="1.1" id="Layer_1" xmlns="http://www.w3.org/2000/svg" xmlns:xlink="http://www.w3.org/1999/xlink" x="0px" y="0px"
	 viewBox="0 0 696.5 2236.5" style="enable-background:new 0 0 696.5 2236.5;" xml:space="preserve">
<style type="text/css">
	.st0{fill:#005EFF;}
	.st1{fill:#7900FF;}
	.st2{fill:#00FF00;}
	.st3{fill:#ED1E77;}
</style>
<g>
	<g>
		<g>
			<g>
				<g>
					<g>
						<path class="st0" d="M399.1,634.6c-5.2,0-9.4-4.3-9.4-9.5s4.2-9.5,9.4-9.5c5.2,0,9.3,4.3,9.3,9.5S404.3,634.6,399.1,634.6z
							 M399.1,620c-2.7,0-4.9,2.3-4.9,5s2.2,5,4.9,5c2.7,0,4.8-2.3,4.8-5S401.8,620,399.1,620z"/>
					</g>
				</g>
				<g>
					<g>
						<path class="st0" d="M297.5,634.6c-5.2,0-9.4-4.3-9.4-9.5s4.2-9.5,9.4-9.5s9.4,4.3,9.4,9.5S302.7,634.6,297.5,634.6z
							 M297.5,620c-2.7,0-4.9,2.3-4.9,5s2.2,5,4.9,5s4.9-2.3,4.9-5S300.2,620,297.5,620z"/>
					</g>
				</g>
				<g>
					<g>
						<path class="st0" d="M399.1,496.5c-5.2,0-9.4-4.3-9.4-9.5s4.2-9.5,9.4-9.5c5.2,0,9.3,4.3,9.3,9.5S404.3,496.5,399.1,496.5z
							 M399.1,481.9c-2.7,0-4.9,2.3-4.9,5s2.2,5,4.9,5c2.7,0,4.8-2.3,4.8-5S401.8,481.9,399.1,481.9z"/>
					</g>
				</g>
				<g>
					<g>
						<path class="st0" d="M297.5,496.5c-5.2,0-9.4-4.3-9.4-9.5s4.2-9.5,9.4-9.5s9.4,4.3,9.4,9.5S302.7,496.5,297.5,496.5z
							 M297.5,481.9c-2.7,0-4.9,2.3-4.9,5s2.2,5,4.9,5s4.9-2.3,4.9-5S300.2,481.9,297.5,481.9z"/>
					</g>
				</g>
			</g>
		</g>
		<g>
			<g>
				<g>
					<g>
						<path class="st0" d="M399.1,1737.4c-5.2,0-9.4-4.3-9.4-9.5s4.2-9.5,9.4-9.5c5.2,0,9.3,4.3,9.3,9.5S404.3,1737.4,399.1,1737.4z
							 M399.1,1722.8c-2.7,0-4.9,2.3-4.9,5s2.2,5,4.9,5c2.7,0,4.8-2.3,4.8-5S401.8,1722.8,399.1,1722.8z"/>
					</g>
				</g>
				<g>
					<g>
						<path class="st0" d="M297.5,1737.4c-5.2,0-9.4-4.3-9.4-9.5s4.2-9.5,9.4-9.5s9.4,4.3,9.4,9.5S302.7,1737.4,297.5,1737.4z
							 M297.5,1722.8c-2.7,0-4.9,2.3-4.9,5s2.2,5,4.9,5s4.9-2.3,4.9-5S300.2,1722.8,297.5,1722.8z"/>
					</g>
				</g>
				<g>
					<g>
						<path class="st0" d="M399.1,1599.2c-5.2,0-9.4-4.3-9.4-9.6c0-5.3,4.2-9.5,9.4-9.5c5.2,0,9.3,4.3,9.3,9.5
							C408.4,1594.9,404.3,1599.2,399.1,1599.2z M399.1,1584.6c-2.7,0-4.9,2.3-4.9,5c0,2.8,2.2,5.1,4.9,5.1c2.7,0,4.8-2.3,4.8-5.1
							S401.8,1584.6,399.1,1584.6z"/>
					</g>
				</g>
				<g>
					<g>
						<path class="st0" d="M297.5,1599.2c-5.2,0-9.4-4.3-9.4-9.6c0-5.3,4.2-9.5,9.4-9.5s9.4,4.3,9.4,9.5
							C306.8,1594.9,302.7,1599.2,297.5,1599.2z M297.5,1584.6c-2.7,0-4.9,2.3-4.9,5c0,2.8,2.2,5.1,4.9,5.1s4.9-2.3,4.9-5.1
							C302.3,1586.8,300.2,1584.6,297.5,1584.6z"/>
					</g>
				</g>
			</g>
		</g>
	</g>
	<g>
		<g>
			<path class="st1" d="M349,2236.5c-17.3,0-34.6-0.6-51.8-1.8c-51.7-3.8-92.9-12.6-129.5-27.9c-21.9-9.1-41-23.6-60.2-45.9
				c-33.3-38.7-54.3-85.6-66.1-147.9c-8.4-44.7-12.1-90-14.6-128.5c-4.1-64.1-5.6-129.3-7.1-192.4c-0.2-10.7-0.5-21.4-0.7-32.1
				c-2.1-82.7-4.2-168.2-6.4-252.2c-0.6-23.3-1.2-46.6-1.8-69.9c-1.1-45.6-2.3-92.8-3.6-139.3c-2.3-80-3.5-161.2-4.7-239.8L2,924.7
				c-0.2-10.4-0.3-20.9-0.5-31.3c-1.3-77.1-2.6-156.8-0.4-235.3C2.6,599.2,6,544.2,11.4,490c5.6-56.6,14.2-116.5,27-188.8
				c7.1-39.7,18.3-73.4,34.3-103.2c3.5-6.6,6.9-13.4,10.2-19.9c7.7-15.3,15.7-31.2,25.6-45.7C155.7,63.6,219.4,20.4,297.8,4
				c21.3-4.4,44.8-5.2,74.1-2.4c36.3,3.4,67.7,11.8,95.8,25.6c22.8,11.2,42.6,26.6,62.4,42.9c32.7,26.6,58.4,59.5,78.6,100.7
				c3.1,6.4,6.5,12.9,9.7,19.2c7.1,13.7,14.4,27.9,20.2,42.7c11.1,28.5,16.8,58.6,22.1,89.6c6.3,36,12.8,74.8,17.7,114.2
				c3.6,28.6,6.7,58.4,9.4,88.7c10.7,121.4,9.3,245,8,364.6l-0.1,5.8c-1.4,125.8-2.8,239.3-5.8,354.5l-0.1,2.5
				c-3.6,170-7.4,345.7-11.2,518.7c-1.2,53.5-3.5,102-7.2,148.2c-4.2,54.1-11.3,97.7-22.4,137.2c-11.9,42.6-33.7,80.6-66.7,116.3
				c-21.2,22.9-48.1,33.9-69.2,40.9c-29,9.8-60.6,16.1-96.6,19.4C394.2,2235.5,371.6,2236.5,349,2236.5z M340.3,4.5
				c-15.2,0-28.8,1.3-41.6,3.9c-38.9,8.1-74.4,23-105.4,44.2c-30.7,21-58,48.7-81.1,82.4c-9.8,14.2-17.7,29.9-25.3,45.1
				c-3.3,6.6-6.7,13.4-10.3,20C60.9,229.5,49.8,262.8,42.8,302c-12.8,72.1-21.4,132-27,188.4c-5.3,54.1-8.7,109-10.4,167.9
				c-2.2,78.4-0.9,158.1,0.4,235.1c0.2,10.4,0.3,20.9,0.5,31.3l0.5,34.1c1.2,78.6,2.4,159.8,4.7,239.7c1.3,46.5,2.5,93.6,3.6,139.3
				c0.6,23.3,1.2,46.6,1.8,69.9c2.2,84,4.3,169.5,6.4,252.2c0.3,10.7,0.5,21.4,0.7,32.1c1.4,63,2.9,128.2,7,192.2
				c2.5,38.3,6.2,83.5,14.6,127.9c11.6,61.4,32.3,107.7,65.1,145.7c18.7,21.7,37.3,35.9,58.6,44.7c36.2,15.1,76.9,23.8,128.1,27.5
				c39.6,2.8,79.5,2.4,118.6-1.3c35.7-3.3,66.9-9.6,95.6-19.2c30.6-10.2,51.4-22.4,67.4-39.7c32.5-35.1,54-72.6,65.7-114.5
				c11-39.3,18-82.6,22.2-136.4c3.7-46.2,6-94.6,7.2-148c3.9-173,7.6-348.7,11.2-518.7l0.1-2.6c3-115.2,4.4-228.7,5.8-354.5l0.1-5.8
				c1.4-119.5,2.8-243-8-364.2c-2.7-30.2-5.8-60-9.4-88.5c-4.9-39.3-11.4-78-17.7-114c-5.3-30.8-10.9-60.7-21.9-88.8
				c-5.7-14.5-13-28.6-20-42.2c-3.2-6.3-6.6-12.8-9.8-19.3c-19.9-40.5-45.2-73-77.4-99.1c-19.7-16.1-39.2-31.4-61.6-42.3
				c-27.6-13.6-58.4-21.8-94.2-25.2C360.3,5,350,4.5,340.3,4.5z"/>
		</g>
	</g>
</g>
<g>
	<g>
		<path class="st2" d="M347.5,2202c-15.5,0-30.9-0.6-46.1-1.8c-46.3-3.6-83.3-12.2-116.5-26.9c-19.7-8.8-36.9-22.9-54.1-44.3
			c-29.9-37.3-48.7-82.7-59.2-143c-7.6-43.3-10.9-87.2-13.1-124.5c-3.6-61.4-4.9-123.8-6.2-184.1c-0.2-11.2-0.5-22.4-0.7-33.5
			c-1.8-79.6-3.6-160.7-5.5-239l-0.1-5.6c-0.6-27-1.2-54.1-1.9-81.1c-0.9-39.9-1.8-81.1-2.8-121.7c-2-76.7-3-154.7-4-230.1
			c-0.2-11.8-0.3-23.6-0.5-35.4c-0.1-10.8-0.3-21.5-0.5-32.3c-1.1-74.1-2.2-150.7-0.1-226.2c1.6-57.7,4.7-111.1,9.5-163.2
			c5.1-55.1,12.9-113.2,24.5-183c6.4-38.3,16.5-71,30.8-99.9c3.4-6.7,6.6-13.6,9.7-20.3c6.8-14.5,13.8-29.5,22.5-43.3
			C175.7,96,233,54.2,303.4,38.4c19.2-4.3,40.3-5.1,66.5-2.3c32.5,3.3,60.7,11.4,86,24.8c20.5,10.9,38.2,25.8,56.1,41.4
			c29.4,25.7,52.5,57.6,70.5,97.3c2.8,6.3,5.9,12.6,8.8,18.8c6.3,13.2,12.9,26.9,18,41.1c9.9,27.3,14.9,55.4,19.9,86.8
			c5.3,32.8,11.3,71.7,15.9,110.8c3.3,28.6,6.1,57.6,8.4,86.1c9.6,116.5,8.3,235.1,7,349.9l-0.1,9.3c-1.3,121.7-2.6,231.6-5.4,343.7
			l0,0c-1.2,56-2.3,111.9-3.4,167.9c-2.3,110.6-4.6,225-7.1,337.5c-1,49.1-3.2,97.4-6.5,143.7c-3.9,52.5-10.3,94.7-20.2,133
			c-10.7,41.1-30.3,78-60,112.6c-18.8,21.9-43.1,32.6-62.1,39.5c-25.8,9.4-54.2,15.6-86.9,18.9C388.4,2201,367.9,2202,347.5,2202z
			 M341.4,37.5c-13.6,0-25.8,1.3-37.3,3.9c-69.7,15.6-126.3,57-168.3,123c-8.6,13.6-15.5,28.5-22.3,43c-3.1,6.7-6.4,13.7-9.8,20.4
			c-14.2,28.6-24.2,61-30.6,99.1c-11.6,69.7-19.4,127.8-24.5,182.8c-4.8,52.1-7.9,105.4-9.5,163c-2.1,75.4-1,152,0.1,226
			c0.2,10.8,0.3,21.5,0.5,32.3c0.2,11.8,0.3,23.6,0.5,35.4c1,75.4,2,153.4,4,230c1,40.6,1.9,81.8,2.8,121.7
			c0.6,27,1.2,54.1,1.9,81.1l0.1,5.6c1.8,78.4,3.7,159.4,5.5,239c0.2,11.2,0.5,22.4,0.7,33.5c1.3,60.3,2.6,122.7,6.2,184
			c2.2,37.2,5.5,81,13.1,124.1c10.4,59.8,29,104.8,58.6,141.6c16.9,21.1,33.7,34.9,52.9,43.5c32.8,14.6,69.5,23.1,115.5,26.7
			c35.1,2.7,71,2.3,106.8-1.3c32.4-3.3,60.5-9.4,86.1-18.7c18.7-6.8,42.5-17.3,60.9-38.7c29.4-34.3,48.8-70.7,59.4-111.4
			c9.9-38.1,16.3-80.1,20.2-132.4c3.3-46.2,5.5-94.5,6.5-143.5c2.5-112.5,4.8-226.9,7.1-337.5c1.1-56,2.3-111.9,3.4-167.9l0,0
			c2.8-112.1,4.1-222,5.4-343.7l0.1-9.3c1.3-114.7,2.5-233.2-7-349.6c-2.3-28.4-5.1-57.4-8.4-86c-4.6-39-10.6-77.8-15.9-110.6
			c-5-31.2-9.9-59.2-19.7-86.2c-5.1-14.1-11.6-27.7-17.9-40.9c-2.9-6.1-6-12.5-8.8-18.8c-17.8-39.3-40.6-70.8-69.7-96.3
			c-17.7-15.5-35.3-30.3-55.5-41c-25-13.2-52.8-21.2-85-24.4C359.5,38,350.1,37.5,341.4,37.5z"/>
	</g>
</g>
<g>
	<g>
		<path class="st3" d="M349.6,2168.2v-4.5c4.7,0,9.5-0.1,14.3-0.3l0.2,4.5C359.2,2168,354.4,2168.1,349.6,2168.2z M335.1,2168
			c-4.8-0.1-9.7-0.3-14.5-0.5l0.2-4.5c4.7,0.2,9.5,0.4,14.3,0.5V2168z M378.5,2167.1l-0.3-4.5c4.7-0.3,9.5-0.7,14.3-1.1l0.4,4.5
			C388.1,2166.5,383.3,2166.8,378.5,2167.1z M306.3,2166.5l-1.1-0.1c-4.5-0.4-9-0.8-13.3-1.3l0.5-4.5c4.3,0.5,8.7,0.9,13.2,1.3
			l1.1,0.1L306.3,2166.5z M407.3,2164.5l-0.6-4.5c4.8-0.6,9.6-1.3,14.2-2l0.7,4.4C417,2163.2,412.2,2163.9,407.3,2164.5z
			 M277.5,2163.3c-4.8-0.7-9.7-1.6-14.3-2.5l0.9-4.4c4.6,0.9,9.3,1.7,14.1,2.4L277.5,2163.3z M435.9,2159.7l-0.9-4.4
			c4.7-1,9.4-2.1,13.9-3.3l1.1,4.4C445.4,2157.6,440.7,2158.7,435.9,2159.7z M249,2157.7c-4.7-1.2-9.4-2.5-14-3.9l1.3-4.3
			c4.5,1.4,9.1,2.6,13.8,3.8L249,2157.7z M464,2152.4l-1.4-4.3c4.6-1.4,9.1-3,13.5-4.7l1.6,4.2
			C473.2,2149.3,468.6,2150.9,464,2152.4z M221.3,2149.2c-4.6-1.7-9.1-3.5-13.5-5.4l1.8-4.1c4.3,1.9,8.8,3.7,13.2,5.3L221.3,2149.2z
			 M491.1,2142l-1.9-4.1c4.5-2.1,8.7-4.2,12.6-6.5l2.3,3.9C500.1,2137.7,495.8,2139.9,491.1,2142z M194.7,2137.3
			c-4.2-2.3-8.3-5.1-12.3-8.1l2.7-3.6c3.8,2.9,7.8,5.5,11.8,7.7L194.7,2137.3z M516.4,2127.3l-2.7-3.6c3.8-2.8,7.4-5.9,10.7-9.2
			l3.2,3.2C524.1,2121.1,520.3,2124.3,516.4,2127.3z M171.3,2119.7c-3.4-3.2-6.7-6.8-10-10.6l3.4-2.9c3.2,3.7,6.5,7.2,9.7,10.3
			L171.3,2119.7z M537.2,2106.7l-3.5-2.8c3-3.8,5.8-7.6,8.6-11.4l3.7,2.6C543.1,2099,540.2,2102.9,537.2,2106.7z M152.1,2097.8
			l-0.5-0.6c-2.7-3.6-5.3-7.4-7.9-11.3l3.8-2.5c2.5,3.8,5.1,7.5,7.7,11.1l0.5,0.6L152.1,2097.8z M554.1,2083.1l-3.8-2.4
			c2.6-4,5.1-8.1,7.4-12.2l3.9,2.2C559.2,2074.8,556.7,2079,554.1,2083.1z M136.2,2073.5c-2.4-4.1-4.7-8.4-6.9-12.8l4-2
			c2.1,4.3,4.4,8.5,6.7,12.6L136.2,2073.5z M568.4,2057.9l-4-2c2.1-4.2,4.2-8.6,6.1-12.9l4.1,1.8
			C572.7,2049.2,570.6,2053.6,568.4,2057.9z M123.2,2047.5c-1.9-4.4-3.7-8.9-5.4-13.4l4.2-1.6c1.7,4.5,3.5,8.9,5.4,13.2
			L123.2,2047.5z M580.1,2031.3l-4.2-1.6c1.7-4.4,3.2-9,4.7-13.5l4.3,1.4C583.4,2022.2,581.8,2026.8,580.1,2031.3z M113,2020.4
			c-1.5-4.5-2.9-9.2-4.2-13.9l4.3-1.2c1.3,4.6,2.7,9.3,4.1,13.7L113,2020.4z M588.9,2003.6l-4.4-1.1c0.4-1.5,0.8-3.1,1.2-4.6
			c0.7-3.1,1.5-6.2,2.2-9.3l4.4,1c-0.7,3.1-1.4,6.3-2.2,9.4C589.7,2000.5,589.3,2002.1,588.9,2003.6z M105.2,1992.5
			c-1.1-4.6-2.1-9.3-3.1-14.1l4.4-0.9c1,4.7,2,9.4,3.1,14L105.2,1992.5z M595.2,1975.4l-4.4-0.9c0.9-4.6,1.8-9.3,2.6-14.1l4.4,0.8
			C597,1966,596.1,1970.8,595.2,1975.4z M99.4,1964.2c-0.3-1.9-0.6-3.8-1-5.7c-0.5-2.8-0.9-5.7-1.3-8.5l4.5-0.7
			c0.4,2.8,0.9,5.7,1.3,8.5c0.3,1.9,0.6,3.8,0.9,5.7L99.4,1964.2z M600.2,1946.9l-4.4-0.7c0.7-4.7,1.4-9.4,2-14.2l4.5,0.6
			C601.6,1937.4,600.9,1942.3,600.2,1946.9z M95.1,1935.6c-0.6-4.6-1.2-9.5-1.7-14.3l4.5-0.5c0.6,4.8,1.1,9.6,1.7,14.3L95.1,1935.6z
			 M604,1918.3l-4.5-0.5c0.5-4.6,1-9.4,1.5-14.3l4.5,0.4C605.1,1908.8,604.5,1913.7,604,1918.3z M91.9,1906.9
			c-0.5-4.6-0.9-9.5-1.3-14.4l4.5-0.4c0.4,4.9,0.9,9.7,1.3,14.3L91.9,1906.9z M606.8,1889.6l-4.5-0.4c0.4-4.6,0.8-9.4,1.1-14.3
			l4.5,0.3C607.6,1880.1,607.2,1884.9,606.8,1889.6z M89.4,1878.2c-0.4-4.8-0.7-9.6-1-14.4l4.5-0.3c0.3,4.8,0.7,9.6,1,14.3
			L89.4,1878.2z M608.9,1860.8l-4.5-0.3c0.3-4.8,0.6-9.6,0.9-14.4l4.5,0.3C609.5,1851.2,609.2,1856,608.9,1860.8z M87.5,1849.4
			c-0.2-3.8-0.4-7.7-0.7-11.5l-0.2-2.9l4.5-0.2l0.2,2.9c0.2,3.8,0.4,7.6,0.6,11.5L87.5,1849.4z M610.6,1832l-4.5-0.2
			c0.3-4.8,0.5-9.6,0.7-14.4l4.5,0.2C611.1,1822.4,610.8,1827.2,610.6,1832z M85.9,1820.6c-0.2-4.8-0.4-9.6-0.7-14.4l4.5-0.2
			c0.2,4.8,0.4,9.6,0.6,14.4L85.9,1820.6z M611.9,1803.2l-4.5-0.2c0.2-4.8,0.4-9.6,0.6-14.4l4.5,0.2
			C612.3,1793.6,612.1,1798.4,611.9,1803.2z M84.7,1791.8c-0.2-4.8-0.4-9.6-0.5-14.4l4.5-0.2c0.2,4.8,0.3,9.6,0.5,14.4L84.7,1791.8z
			 M613,1774.4l-4.5-0.2c0.2-4.8,0.3-9.6,0.5-14.4l4.5,0.1C613.3,1764.8,613.2,1769.6,613,1774.4z M83.7,1763
			c-0.1-4.8-0.3-9.6-0.4-14.4l4.5-0.1c0.1,4.8,0.3,9.6,0.4,14.4L83.7,1763z M613.9,1745.6l-4.5-0.1c0.1-4.8,0.2-9.6,0.3-14.4
			l4.5,0.1C614.1,1736,614,1740.8,613.9,1745.6z M82.9,1734.2c-0.1-4.8-0.2-9.6-0.3-14.4l4.5-0.1c0.1,4.8,0.2,9.6,0.3,14.4
			L82.9,1734.2z M614.5,1716.8l-4.5-0.1l0.3-14.4l4.5,0.1L614.5,1716.8z M82.2,1705.4c-0.1-4.8-0.2-9.6-0.3-14.4l4.5-0.1
			c0.1,4.8,0.2,9.6,0.3,14.4L82.2,1705.4z M615.1,1688l-4.5-0.1l0.3-14.4l4.5,0.1L615.1,1688z M81.7,1676.6l-0.3-14.4l4.5-0.1
			l0.3,14.4L81.7,1676.6z M615.7,1659.3l-4.5-0.1l0.3-14.4l4.5,0.1L615.7,1659.3z M81.1,1647.8l-0.3-14.4l4.5-0.1l0.3,14.4
			L81.1,1647.8z M616.3,1630.5l-4.5-0.1l0.3-14.4l4.5,0.1L616.3,1630.5z M80.6,1619l-0.3-14.4l4.5-0.1l0.3,14.4L80.6,1619z
			 M616.9,1601.7l-4.5-0.1l0.3-14.4l4.5,0.1L616.9,1601.7z M80,1590.2l-0.3-14.4l4.5-0.1l0.3,14.4L80,1590.2z M617.4,1572.9
			l-4.5-0.1l0.3-14.4l4.5,0.1L617.4,1572.9z M79.4,1561.4l-0.3-14.4l4.5-0.1l0.3,14.4L79.4,1561.4z M618,1544.1l-4.5-0.1l0.3-14.4
			l4.5,0.1L618,1544.1z M78.8,1532.6l-0.3-14.4l4.5-0.1l0.3,14.4L78.8,1532.6z M618.6,1515.3l-4.5-0.1l0.3-14.4l4.5,0.1
			L618.6,1515.3z M78.2,1503.9l-0.3-14.4l4.5-0.1l0.3,14.4L78.2,1503.9z M619.1,1486.5l-4.5-0.1l0.3-14.4l4.5,0.1L619.1,1486.5z
			 M77.6,1475.1l-0.3-14.4l4.5-0.1l0.3,14.4L77.6,1475.1z M619.7,1457.7l-4.5-0.1l0.3-14.4l4.5,0.1L619.7,1457.7z M77,1446.3
			l-0.3-14.4l4.5-0.1l0.3,14.4L77,1446.3z M620.3,1428.9l-4.5-0.1l0.3-14.4l4.5,0.1L620.3,1428.9z M76.4,1417.5l-0.3-14.4l4.5-0.1
			l0.3,14.4L76.4,1417.5z M620.8,1400.1l-4.5-0.1l0.3-14.4l4.5,0.1L620.8,1400.1z M75.8,1388.7l-0.3-14.4l4.5-0.1l0.3,14.4
			L75.8,1388.7z M621.4,1371.3l-4.5-0.1l0.3-14.4l4.5,0.1L621.4,1371.3z M75.2,1359.9l-0.3-14.4l4.5-0.1l0.3,14.4L75.2,1359.9z
			 M621.9,1342.5l-4.5-0.1l0.3-14.4l4.5,0.1L621.9,1342.5z M74.6,1331.1l-0.3-14.4l4.5-0.1l0.3,14.4L74.6,1331.1z M622.5,1313.7
			l-4.5-0.1l0.3-14.4l4.5,0.1L622.5,1313.7z M74,1302.3l-0.3-14.4l4.5-0.1l0.3,14.4L74,1302.3z M623.1,1284.9l-4.5-0.1l0.3-14.4
			l4.5,0.1L623.1,1284.9z M73.4,1273.5l-0.3-14.4l4.5-0.1l0.3,14.4L73.4,1273.5z M623.6,1256.1l-4.5-0.1l0.3-14.4
			c0.1-2.9,0.1-5.8,0.2-8.7l4.5,0.1c-0.1,2.9-0.1,5.8-0.2,8.7L623.6,1256.1z M72.8,1244.7l-0.3-14.4l4.5-0.1l0.3,14.4L72.8,1244.7z
			 M624.5,1218.6l-4.5-0.1c0.1-4.8,0.2-9.6,0.3-14.4l4.5,0.1C624.7,1209,624.6,1213.8,624.5,1218.6z M72.2,1215.9l-0.3-14.4l4.5-0.1
			l0.3,14.4L72.2,1215.9z M625.1,1189.8l-4.5-0.1c0.1-4.8,0.2-9.6,0.3-14.4l4.5,0.1C625.3,1180.2,625.2,1185,625.1,1189.8z
			 M71.6,1187.1c-0.1-4.8-0.2-9.6-0.3-14.4l4.5-0.1c0.1,4.8,0.2,9.6,0.3,14.4L71.6,1187.1z M625.7,1161l-4.5-0.1
			c0.1-4.8,0.2-9.6,0.3-14.4l4.5,0.1C625.8,1151.4,625.7,1156.2,625.7,1161z M70.9,1158.3c-0.1-4.8-0.2-9.6-0.3-14.4l4.5-0.1
			c0.1,4.8,0.2,9.6,0.3,14.4L70.9,1158.3z M626.2,1132.2l-4.5-0.1l0.2-14.4l4.5,0.1L626.2,1132.2z M70.4,1129.5
			c-0.1-4.8-0.2-9.6-0.2-14.4l4.5-0.1c0.1,4.8,0.2,9.6,0.2,14.4L70.4,1129.5z M626.7,1103.4l-4.5-0.1l0.2-14.4l4.5,0.1L626.7,1103.4
			z M69.9,1100.7c-0.1-4.8-0.2-9.6-0.2-14.4l4.5-0.1c0.1,4.8,0.1,9.6,0.2,14.4L69.9,1100.7z M627.1,1074.6l-4.5-0.1l0.2-14.4
			l4.5,0.1L627.1,1074.6z M69.5,1071.9c-0.1-4.8-0.1-9.6-0.2-14.4l4.5-0.1c0.1,4.8,0.1,9.6,0.2,14.4L69.5,1071.9z M627.5,1045.8
			l-4.5-0.1l0.2-14.4l4.5,0.1L627.5,1045.8z M69.1,1043.1l-0.2-14.4l4.5-0.1l0.2,14.4L69.1,1043.1z M627.9,1017l-4.5-0.1l0.2-14.4
			l4.5,0.1L627.9,1017z M68.7,1014.3l-0.2-14.4l4.5-0.1l0.2,14.4L68.7,1014.3z M628.3,988.2l-4.5-0.1l0.2-14.4l4.5,0.1L628.3,988.2z
			 M68.4,985.5l-0.2-14.4l4.5-0.1l0.2,14.4L68.4,985.5z M628.6,959.4l-4.5-0.1l0.2-14.4l4.5,0.1L628.6,959.4z M68,956.7l-0.2-14.4
			l4.5-0.1l0.2,14.4L68,956.7z M629,930.6l-4.5-0.1l0.2-14.4l4.5,0.1L629,930.6z M67.7,927.9l-0.2-14.4l4.5-0.1l0.2,14.4L67.7,927.9
			z M629.3,901.8l-4.5-0.1l0.2-14.4h4.5L629.3,901.8z M67.3,899.1l-0.2-14.4l4.5-0.1l0.2,14.4L67.3,899.1z M629.6,873h-4.5
			c0-4.8,0.1-9.6,0.1-14.4h4.5C629.7,863.4,629.7,868.2,629.6,873z M67,870.3c-0.1-4.8-0.1-9.6-0.2-14.4h4.5
			c0.1,4.8,0.1,9.6,0.2,14.4H67z M629.9,844.2h-4.5c0-4.8,0.1-9.6,0.1-14.4h4.5C630,834.6,629.9,839.4,629.9,844.2z M66.7,841.5
			c0-4.8-0.1-9.6-0.1-14.4h4.5c0,4.8,0.1,9.6,0.1,14.4H66.7z M630.1,815.4h-4.5c0-4.8,0-9.6,0.1-14.4h4.5
			C630.1,805.8,630.1,810.6,630.1,815.4z M66.4,812.7c0-4.8-0.1-9.6-0.1-14.4h4.5c0,4.8,0,9.6,0.1,14.4H66.4z M630.2,786.6h-4.5
			v-5.3c0-3,0-6,0-9.1h4.5c0,3,0,6.1,0,9.1V786.6z M66.3,783.9V779c0-3.2,0-6.3,0-9.5h4.5c0,3.2,0,6.3,0,9.5v4.9H66.3z M625.6,757.8
			c0-4.8-0.1-9.6-0.1-14.4h4.5c0,4.8,0.1,9.6,0.1,14.4H625.6z M70.9,755.1h-4.5c0-4.8,0.1-9.6,0.1-14.4H71
			C70.9,745.5,70.9,750.3,70.9,755.1z M625.4,729c-0.1-4.8-0.1-9.6-0.2-14.4l4.5-0.1c0.1,4.8,0.1,9.6,0.2,14.4L625.4,729z
			 M71.1,726.3l-4.5-0.1c0.1-4.8,0.1-9.6,0.2-14.4l4.5,0.1C71.3,716.8,71.2,721.5,71.1,726.3z M625,700.3c-0.1-4.8-0.2-9.6-0.3-14.4
			l4.5-0.1c0.1,4.8,0.2,9.6,0.3,14.4L625,700.3z M71.7,697.6l-4.5-0.1c0.1-3.5,0.2-7,0.3-10.5l0.1-3.9l4.5,0.1l-0.1,3.9
			C71.8,690.6,71.7,694.1,71.7,697.6z M624.3,671.5c-0.1-4.8-0.3-9.6-0.4-14.4l4.5-0.2c0.2,4.8,0.3,9.6,0.4,14.4L624.3,671.5z
			 M72.5,668.8l-4.5-0.1c0.2-4.8,0.3-9.6,0.5-14.4l4.5,0.2C72.8,659.2,72.6,664,72.5,668.8z M623.3,642.7c-0.2-4.8-0.4-9.6-0.6-14.4
			l4.5-0.2c0.2,4.8,0.4,9.6,0.6,14.4L623.3,642.7z M73.5,640l-4.5-0.2c0.2-4.8,0.4-9.6,0.6-14.4l4.5,0.2
			C73.9,630.5,73.7,635.3,73.5,640z M622,614c-0.2-4.8-0.5-9.6-0.8-14.4l4.5-0.3c0.3,4.8,0.5,9.6,0.8,14.4L622,614z M74.9,611.3
			l-4.5-0.2c0.3-4.8,0.5-9.6,0.8-14.4l4.5,0.3C75.4,601.7,75.1,606.5,74.9,611.3z M620.4,585.3c-0.3-4.8-0.6-9.6-1-14.4l4.5-0.3
			c0.3,4.8,0.7,9.6,1,14.4L620.4,585.3z M76.5,582.6l-4.5-0.3c0.3-4.8,0.6-9.6,1-14.4l4.5,0.3C77.2,573,76.8,577.8,76.5,582.6z
			 M618.3,556.6c-0.4-4.8-0.7-9.6-1.1-14.3l4.5-0.4c0.4,4.8,0.8,9.6,1.1,14.4L618.3,556.6z M78.5,553.9l-4.5-0.3
			c0.4-4.8,0.7-9.6,1.1-14.4l4.5,0.4C79.3,544.3,78.9,549.1,78.5,553.9z M616,527.9c-0.4-4.8-0.8-9.6-1.3-14.3l4.5-0.4
			c0.4,4.8,0.9,9.6,1.3,14.4L616,527.9z M80.9,525.2l-4.5-0.4c0.4-4.8,0.9-9.6,1.3-14.4l4.5,0.4C81.7,515.6,81.3,520.4,80.9,525.2z
			 M613.4,499.2c-0.5-4.8-1-9.5-1.5-14.3l4.5-0.5c0.5,4.8,1,9.6,1.5,14.3L613.4,499.2z M83.6,496.6l-4.5-0.5c0.5-4.8,1-9.6,1.5-14.3
			l4.5,0.5C84.6,487,84.1,491.8,83.6,496.6z M610.4,470.6c-0.5-4.8-1.1-9.5-1.7-14.3l4.5-0.5c0.6,4.8,1.1,9.5,1.7,14.3L610.4,470.6z
			 M86.7,468l-4.5-0.5c0.6-4.8,1.1-9.5,1.7-14.3l4.5,0.5C87.8,458.4,87.3,463.2,86.7,468z M606.9,442.1c-0.6-4.8-1.2-9.5-1.9-14.3
			l4.5-0.6c0.6,4.8,1.3,9.5,1.9,14.3L606.9,442.1z M90.2,439.4l-4.5-0.6c0.6-4.8,1.2-9.5,1.9-14.3l4.5,0.6
			C91.4,429.9,90.8,434.6,90.2,439.4z M603.1,413.5c-0.7-4.8-1.3-9.5-2-14.2l4.5-0.6c0.7,4.8,1.3,9.5,2,14.3L603.1,413.5z M94,410.9
			l-4.5-0.6c0.7-4.8,1.3-9.5,2-14.3l4.5,0.6C95.3,401.4,94.6,406.1,94,410.9z M599.1,385c-0.7-4.5-1.3-9.1-2-13.6l-0.1-0.6l4.5-0.7
			l0.1,0.6c0.7,4.5,1.3,9.1,2,13.6L599.1,385z M98,382.4l-4.5-0.6c0.7-4.8,1.4-9.5,2.1-14.3l4.5,0.7C99.4,372.9,98.7,377.6,98,382.4
			z M594.8,356.6c-0.8-5.2-1.6-9.8-2.3-14.2l4.4-0.8c0.8,4.4,1.5,9,2.3,14.2L594.8,356.6z M102.3,353.9l-4.4-0.7l0.2-1.5
			c0.7-4.3,1.4-8.6,2.1-12.8l4.4,0.8c-0.8,4.1-1.5,8.4-2.1,12.7L102.3,353.9z M589.8,328.3c-1-4.9-2-9.5-3-14l4.4-1
			c1.1,4.5,2.1,9.2,3.1,14.1L589.8,328.3z M107.4,325.7l-4.4-1c1-4.8,2.1-9.5,3.3-14.1l4.4,1.1C109.5,316.3,108.4,321,107.4,325.7z
			 M583.2,300.5c-1.2-4.2-2.5-8.4-3.8-12.4l-0.4-1.3l4.3-1.4l0.4,1.3c1.3,4,2.6,8.3,3.9,12.6L583.2,300.5z M114.5,298l-4.3-1.3
			c1.4-4.7,2.9-9.3,4.4-13.8l4.3,1.5C117.3,288.8,115.9,293.4,114.5,298z M574.1,273.4c-1.6-4-3.3-8.2-5.5-13.2l4.1-1.8
			c2.2,5,3.9,9.3,5.6,13.4L574.1,273.4z M123.8,270.9l-4.2-1.7c1.8-4.5,3.7-9,5.7-13.3l4.1,1.9C127.5,262.1,125.6,266.5,123.8,270.9
			z M562.8,247c-1.8-4.1-3.8-8.7-5.8-13.2l4.1-1.8c1.9,4.5,4,9.1,5.8,13.2L562.8,247z M135.3,244.6l-4.1-1.8c1-2.3,2-4.6,3-7
			c0.9-2.1,1.8-4.2,2.7-6.2l4.1,1.8c-0.9,2.1-1.8,4.1-2.7,6.2C137.3,240,136.3,242.3,135.3,244.6z M551.2,220.7
			c-2-4.4-4.1-8.7-6.2-12.9l4-2c2.2,4.2,4.3,8.6,6.3,13.1L551.2,220.7z M146.9,218.3l-4.1-1.9c2.2-4.8,4.3-9.1,6.4-13l4,2.1
			C151.1,209.3,149.1,213.5,146.9,218.3z M538.2,195.2c-2.4-4.2-4.9-8.3-7.4-12.2l3.8-2.4c2.6,4,5.1,8.2,7.5,12.4L538.2,195.2z
			 M160.1,193l-3.9-2.3c2.5-4.2,5.1-8.3,7.7-12.3l3.8,2.5C165.2,184.8,162.6,188.9,160.1,193z M522.8,171.2
			c-2.8-3.9-5.7-7.7-8.7-11.3l3.5-2.8c3,3.7,6,7.6,8.8,11.5L522.8,171.2z M175.9,169.2l-3.6-2.6c2.9-3.9,5.8-7.8,8.8-11.5l3.5,2.8
			C181.6,161.5,178.7,165.3,175.9,169.2z M504.7,149.2c-3.2-3.5-6.6-6.9-10-10.2l3.1-3.2c3.5,3.3,6.9,6.8,10.2,10.4L504.7,149.2z
			 M193.8,146.9l-3.4-3c3.2-3.6,6.6-7.2,10-10.6l3.2,3.2C200.3,139.8,197,143.3,193.8,146.9z M484.2,129.2
			c-3.9-3.6-7.4-6.7-10.7-9.5l2.9-3.4c3.3,2.8,6.8,6,10.8,9.6L484.2,129.2z M213.9,126.7l-3-3.4c3.6-3.2,7.4-6.4,11.1-9.3l2.8,3.5
			C221.2,120.5,217.5,123.5,213.9,126.7z M462.5,110.6c-4-3.1-7.8-5.8-11.6-8.2l2.5-3.8c3.9,2.5,7.8,5.3,11.9,8.4L462.5,110.6z
			 M236.3,109.1l-2.6-3.7c4-2.7,8.1-5.4,12.2-7.9l2.3,3.9C244.3,103.8,240.3,106.4,236.3,109.1z M438.7,95.2
			c-4.2-2.2-8.5-4.3-12.8-6.1l1.8-4.1c4.5,1.9,8.9,4,13.1,6.3L438.7,95.2z M260.8,94.5l-2-4c4.3-2.2,8.7-4.3,13.2-6.2l1.8,4.1
			C269.3,90.3,265,92.3,260.8,94.5z M412.6,84c-4.4-1.5-9-2.9-13.6-4l1.1-4.4c4.7,1.2,9.4,2.6,14,4.1L412.6,84z M286.9,83.2
			l-1.5-4.2c4.5-1.6,9.2-3.1,13.8-4.4l1.2,4.3C295.9,80.2,291.4,81.6,286.9,83.2z M385,76.9c-4.6-0.8-9.3-1.6-14.1-2.2l0.5-4.5
			c4.9,0.6,9.7,1.3,14.4,2.2L385,76.9z M314.3,75.4l-0.9-4.4c4.6-0.9,9.5-1.6,14.5-2.1l0.4,4.5C323.5,73.9,318.8,74.5,314.3,75.4z
			 M356.7,73.4c-5-0.3-9.7-0.5-14.2-0.5v-4.5c4.6,0,9.4,0.2,14.5,0.5L356.7,73.4z"/>
	</g>
</g>
</svg>
