<?xml version="1.0" encoding="utf-8"?>
<!-- Generator: Adobe Illustrator 26.3.1, SVG Export Plug-In . SVG Version: 6.00 Build 0)  -->
<svg version="1.1" id="Layer_1" xmlns="http://www.w3.org/2000/svg" xmlns:xlink="http://www.w3.org/1999/xlink" x="0px" y="0px"
	 viewBox="0 0 604.2 2202.8" style="enable-background:new 0 0 604.2 2202.8;" xml:space="preserve">
<style type="text/css">
	.st0{fill:#38E841;}
	.st1{fill:#ED1E77;}
	.st2{fill:#7900FF;}
	.st3{fill:#005EFF;}
</style>
<g>
	<path class="st0" d="M300.3,2175.4L300.3,2175.4c-77.3-3.9-137.9-25-138.5-25.3l-1.1-0.4l-1.1-0.3c-26.9-6.9-43.1-36.3-52.1-59.8
		c-11-29-14-56.8-14-57.1l-0.2-1.4c-36.5-230.4-40.9-382.6-40.9-384.1l-0.1-1.4c-11.6-139.6-24.6-465.5-25.2-479.3l1.3-481.5
		c6.2-227.9,58.1-429.2,64-451.4l0-0.1c17.1-46.1,39-85.7,65.1-117.5c20.7-25.3,44.2-45.8,69.7-61c39.9-23.8,72.4-27.1,78.5-27.5
		l0.1,0l0.1,0c5.6,0.3,35.4,3.1,72.7,26.2c23.9,14.8,46.1,35,65.9,60.1c25,31.6,46.4,71.1,63.5,117.2l0,0.1
		c1.7,6.2,17.3,63,33,146.5c20.2,107.8,31.8,211.2,34.4,307.4l1.3,481.5c-0.6,13.9-13.6,339.5-25.2,479.4l-0.1,1.4
		c0,1.5-4.4,153.8-40.9,384.1l-0.2,1.5c0,0.3-2.9,27.9-14,57c-8.9,23.5-25.2,52.9-52.1,59.8l-1.1,0.3l-1.1,0.4
		c-0.6,0.2-61.3,21.4-138.4,25.2L300.3,2175.4z M300.4,2172.4h3.4c76.6-3.8,136.8-24.9,137.4-25.1l1.3-0.5l1.2-0.3
		c25.6-6.5,41.3-35.1,50-57.9c10.9-28.6,13.8-56,13.8-56.2l0.2-1.6c36.5-230.2,40.9-382.2,40.9-383.7l0.1-1.6
		c11.6-139.8,24.6-465.4,25.2-479.2l-1.3-481.4c-2.6-96-14.2-199.2-34.4-306.9c-15.6-83.2-31.1-139.7-32.9-146.2
		c-17-45.9-38.2-85-63-116.4c-19.6-24.8-41.5-44.8-65.2-59.4c-37-23-67.4-25.5-71.2-25.8c-4.1,0.3-37.2,3.3-77.1,27.1
		c-25.2,15-48.4,35.3-68.9,60.4c-25.9,31.5-47.6,70.8-64.6,116.6c-6,22.5-57.6,223.3-63.9,450.6l-1.3,481.4
		c0.5,13.7,13.6,339.5,25.2,479.1l0.1,1.6c0,1.5,4.4,153.5,40.9,383.7l0.2,1.6c0,0.3,2.9,27.7,13.8,56.3c8.7,22.8,24.4,51.4,50,57.9
		l1.3,0.3l1.1,0.4C163.5,2147.6,223.7,2168.6,300.4,2172.4z"/>
</g>
<g>
	<path class="st1" d="M300.9,2148.7c-4-0.2-8-0.5-12-0.8l0.3-3.7c3.9,0.3,7.9,0.6,11.9,0.8L300.9,2148.7z M312.4,2148.1l-0.3-3.7
		c3.9-0.3,7.9-0.6,11.9-1l0.3,3.7C320.4,2147.5,316.4,2147.8,312.4,2148.1z M276.9,2146.8c-4-0.4-8-0.8-12-1.3l0.5-3.7
		c3.9,0.5,7.9,0.9,11.9,1.3L276.9,2146.8z M336.3,2145.9l-0.4-3.7c3.9-0.5,7.9-1,11.8-1.5l0.5,3.7
		C344.3,2144.9,340.3,2145.4,336.3,2145.9z M253.1,2143.9c-4-0.6-8-1.2-11.9-1.9l0.6-3.7c3.9,0.7,7.8,1.3,11.8,1.8L253.1,2143.9z
		 M360.2,2142.5l-0.6-3.7c3.9-0.6,7.9-1.3,11.8-2.1l0.7,3.6C368.1,2141.2,364.1,2141.9,360.2,2142.5z M229.4,2139.9
		c-3.9-0.8-7.9-1.6-11.8-2.4l0.8-3.6c3.9,0.8,7.8,1.6,11.7,2.4L229.4,2139.9z M383.8,2138.1l-0.8-3.6c3.9-0.8,7.8-1.7,11.7-2.6
		l0.8,3.6C391.7,2136.4,387.7,2137.3,383.8,2138.1z M205.8,2134.8c-3.9-0.9-7.8-1.9-11.7-3l1-3.6c3.8,1,7.7,2,11.6,2.9L205.8,2134.8
		z M407.2,2132.6l-0.9-3.6c3.9-1,7.7-2.1,11.5-3.1l1,3.6C415,2130.5,411.1,2131.6,407.2,2132.6z M182.6,2128.6
		c-4.6-1.4-8.4-2.6-11.2-3.4l-0.3-0.1l1.1-3.5l0.3,0.1c2.8,0.9,6.5,2.1,11.1,3.4L182.6,2128.6z M430.4,2126l-1.1-3.5
		c1.7-0.5,3.1-1,4.3-1.4c1.6-0.5,2.7-0.9,3.3-1c1.2-0.3,2.3-0.7,3.5-1.3l1.6,3.3c-1.4,0.7-2.8,1.2-4.1,1.5c-0.6,0.2-1.6,0.5-3.2,1
		C433.5,2125,432.1,2125.5,430.4,2126z M159.5,2120.7c-3.2-2-6.3-4.8-9.4-8.3l2.8-2.4c2.8,3.3,5.6,5.8,8.5,7.5L159.5,2120.7z
		 M452,2114.5l-2.7-2.6c2.4-2.5,4.8-5.6,7.1-9.2l3.1,2C457.1,2108.5,454.6,2111.8,452,2114.5z M143.1,2102.4
		c-1.9-3.2-3.8-6.9-5.7-10.8l3.4-1.6c1.8,3.8,3.6,7.3,5.5,10.5L143.1,2102.4z M465.6,2094.1l-3.3-1.7c1.7-3.4,3.3-7,4.8-10.8
		l3.4,1.4C469,2087,467.3,2090.7,465.6,2094.1z M132.8,2080.4c-1.4-3.6-2.7-7.5-4-11.4l3.5-1.1c1.2,3.9,2.5,7.7,3.9,11.2
		L132.8,2080.4z M474.7,2071.7l-3.5-1.2c1.2-3.7,2.3-7.5,3.4-11.4l3.6,1C477,2064.1,475.9,2068,474.7,2071.7z M125.4,2057.3
		c-1.1-4-2-7.9-2.8-11.8l3.6-0.8c0.8,3.8,1.7,7.7,2.8,11.6L125.4,2057.3z M480.9,2048.3l-3.6-0.8c0.8-4,1.6-7.9,2.2-11.7l3.7,0.6
		C482.5,2040.3,481.7,2044.3,480.9,2048.3z M120.5,2033.6c-0.2-1.4-0.3-2.7-0.4-3.7c-0.4-2.7-0.9-5.4-1.3-8.1l3.7-0.6
		c0.4,2.7,0.9,5.4,1.3,8.2l0,0.2c0.1,1,0.2,2.2,0.4,3.6L120.5,2033.6z M484.9,2024.6l-3.7-0.6c0.7-4,1.3-7.9,1.9-11.8l3.7,0.6
		C486.2,2016.7,485.6,2020.7,484.9,2024.6z M117,2009.9c-0.6-4-1.2-7.9-1.8-11.9l3.7-0.6c0.6,3.9,1.2,7.9,1.8,11.8L117,2009.9z
		 M488.8,2000.9l-3.7-0.6c0.6-4,1.2-7.9,1.8-11.8l3.7,0.6C490,1993,489.4,1997,488.8,2000.9z M113.4,1986.2c-0.6-4-1.2-7.9-1.7-11.9
		l3.7-0.5c0.6,3.9,1.1,7.9,1.7,11.9L113.4,1986.2z M492.4,1977.2l-3.7-0.6c0.6-4,1.2-7.9,1.8-11.8l3.7,0.5
		C493.6,1969.3,493,1973.3,492.4,1977.2z M110,1962.5c-0.6-4-1.1-7.9-1.7-11.9l3.7-0.5c0.5,3.9,1.1,7.9,1.7,11.9L110,1962.5z
		 M495.9,1953.5l-3.7-0.5c0.6-4,1.1-7.9,1.7-11.9l3.7,0.5C497,1945.6,496.5,1949.5,495.9,1953.5z M106.7,1938.7
		c-0.5-4-1.1-8-1.6-11.9l3.7-0.5c0.5,3.9,1,7.9,1.6,11.9L106.7,1938.7z M499.2,1929.7l-3.7-0.5c0.5-4,1.1-7.9,1.6-11.9l3.7,0.5
		C500.2,1921.8,499.7,1925.8,499.2,1929.7z M103.6,1914.9c-0.5-4-1-8-1.5-11.9l3.7-0.5c0.5,3.9,1,7.9,1.5,11.9L103.6,1914.9z
		 M502.3,1906l-3.7-0.5c0.5-4,1-8,1.5-11.9l3.7,0.4C503.3,1898,502.8,1902,502.3,1906z M100.6,1891.1c-0.5-4-1-8-1.4-11.9l3.7-0.4
		c0.5,3.9,1,7.9,1.4,11.9L100.6,1891.1z M505.2,1882.1l-3.7-0.4c0.5-4,0.9-8,1.4-11.9l3.7,0.4
		C506.1,1874.2,505.7,1878.1,505.2,1882.1z M97.7,1867.3c-0.5-4-0.9-8-1.4-11.9l3.7-0.4c0.4,3.9,0.9,7.9,1.4,11.9L97.7,1867.3z
		 M507.9,1858.3l-3.7-0.4c0.4-4,0.9-8,1.3-11.9l3.7,0.4C508.8,1850.3,508.4,1854.3,507.9,1858.3z M95,1843.5c-0.4-4-0.9-8-1.3-11.9
		l3.7-0.4c0.4,3.9,0.9,7.9,1.3,11.9L95,1843.5z M510.5,1834.5l-3.7-0.4c0.4-4,0.8-8,1.2-11.9l3.7,0.4
		C511.3,1826.5,510.9,1830.4,510.5,1834.5z M92.4,1819.6c-0.4-4-0.8-8-1.2-11.9l3.7-0.4c0.4,3.9,0.8,7.9,1.2,11.9L92.4,1819.6z
		 M512.8,1810.6l-3.7-0.4c0.4-4,0.8-8,1.1-11.9l3.7,0.3C513.6,1802.6,513.2,1806.6,512.8,1810.6z M90,1795.8c-0.4-4-0.8-8-1.1-11.9
		l3.7-0.3c0.4,3.9,0.8,7.9,1.1,11.9L90,1795.8z M515,1786.7l-3.7-0.3c0.4-4.1,0.7-8,1-11.9l3.7,0.3
		C515.7,1778.7,515.4,1782.6,515,1786.7z M87.7,1771.9c-0.4-4.1-0.7-8-1.1-11.9l3.7-0.3c0.3,3.9,0.7,7.9,1.1,11.9L87.7,1771.9z
		 M517,1762.8l-3.7-0.3c0.3-4.1,0.6-8.1,0.9-11.9l3.7,0.3C517.7,1754.7,517.4,1758.7,517,1762.8z M85.6,1748c-0.3-4.1-0.7-8.1-1-12
		l3.7-0.3c0.3,3.9,0.6,7.9,1,11.9L85.6,1748z M518.9,1738.9l-3.7-0.3c0.3-4.1,0.6-8.1,0.8-12l3.7,0.3
		C519.4,1730.8,519.1,1734.8,518.9,1738.9z M83.7,1724.1c-0.3-4.1-0.6-8.1-0.9-12l3.7-0.3c0.3,3.8,0.6,7.8,0.9,11.9L83.7,1724.1z
		 M520.5,1714.9l-3.7-0.2c0.3-4.2,0.5-8.1,0.8-12l3.7,0.2C521,1706.8,520.8,1710.8,520.5,1714.9z M82,1700.2
		c-0.3-4.2-0.5-8.2-0.8-12l3.7-0.2c0.2,3.8,0.5,7.7,0.8,12L82,1700.2z M522,1691l-3.7-0.2c0.3-4.3,0.5-8.3,0.7-12l3.7,0.2
		C522.5,1682.7,522.2,1686.7,522,1691z M80.5,1676.2c-0.3-4.5-0.5-8.5-0.6-12l3.7-0.2c0.2,3.5,0.4,7.5,0.6,12L80.5,1676.2z
		 M523.3,1667l-3.7-0.2c0.3-4.8,0.5-8.8,0.7-12l3.7,0.2C523.8,1658.2,523.6,1662.2,523.3,1667z M79.3,1652.2
		c-0.1-2.7-0.2-4.9-0.2-5.6c0-0.1,0-0.2,0-0.3l0-1.4l-0.4-4.6l3.7-0.3l0.4,4.8l0.1,3.4h0c0,0.9,0.1,2.2,0.1,3.9L79.3,1652.2z
		 M525.2,1643.4l-3.7-0.3c0.3-4,0.6-8,0.9-12l3.7,0.3C525.8,1635.5,525.5,1639.5,525.2,1643.4z M77.8,1628.4c-0.3-4-0.6-8-0.9-12
		l3.7-0.3c0.3,4,0.6,8,0.9,11.9L77.8,1628.4z M527.1,1619.6l-3.7-0.3c0.3-4,0.6-8,0.9-11.9l3.7,0.3
		C527.7,1611.6,527.4,1615.6,527.1,1619.6z M76,1604.5c-0.3-4-0.6-8-0.9-12l3.7-0.3c0.3,4,0.6,8,0.9,11.9L76,1604.5z M528.8,1595.7
		l-3.7-0.3c0.3-4,0.6-8,0.9-11.9l3.7,0.3C529.4,1587.7,529.1,1591.7,528.8,1595.7z M74.2,1580.5c-0.3-4-0.6-8-0.8-12l3.7-0.3
		c0.3,4,0.6,8,0.8,11.9L74.2,1580.5z M530.6,1571.8l-3.7-0.3c0.3-4,0.6-8,0.8-12l3.7,0.3C531.1,1563.8,530.8,1567.8,530.6,1571.8z
		 M72.6,1556.6c-0.3-4-0.5-8-0.8-12l3.7-0.2c0.3,4,0.5,8,0.8,12L72.6,1556.6z M532.2,1547.9l-3.7-0.2c0.3-4,0.5-8,0.8-12l3.7,0.2
		C532.7,1539.9,532.5,1543.9,532.2,1547.9z M71,1532.7c-0.3-4-0.5-8-0.8-12l3.7-0.2c0.3,4,0.5,8,0.8,12L71,1532.7z M533.8,1523.9
		l-3.7-0.2c0.3-4,0.5-8,0.8-12l3.7,0.2C534.3,1516,534,1519.9,533.8,1523.9z M69.5,1508.8c-0.2-4-0.5-8-0.7-12l3.7-0.2
		c0.2,4,0.5,8,0.7,12L69.5,1508.8z M535.2,1500l-3.7-0.2c0.2-4,0.5-8,0.7-12l3.7,0.2C535.7,1492,535.5,1496,535.2,1500z M68,1484.9
		c-0.2-4-0.5-8-0.7-12l3.7-0.2c0.2,4,0.5,8,0.7,12L68,1484.9z M536.6,1476.1l-3.7-0.2c0.2-4,0.5-8,0.7-12l3.7,0.2
		C537.1,1468.1,536.9,1472.1,536.6,1476.1z M66.7,1460.9c-0.2-4-0.4-8-0.7-12l3.7-0.2c0.2,4,0.4,8,0.7,12L66.7,1460.9z M538,1452.1
		l-3.7-0.2c0.2-4,0.4-8,0.6-12l3.7,0.2C538.4,1444.2,538.2,1448.1,538,1452.1z M65.4,1437c-0.2-4-0.4-8-0.6-12l3.7-0.2
		c0.2,4,0.4,8,0.6,12L65.4,1437z M539.2,1428.2l-3.7-0.2c0.2-4,0.4-8,0.6-12l3.7,0.2C539.6,1420.2,539.4,1424.2,539.2,1428.2z
		 M64.2,1413.1c-0.2-4-0.4-8-0.6-12l3.7-0.2c0.2,4,0.4,8,0.6,12L64.2,1413.1z M540.4,1404.3l-3.7-0.2c0.2-4,0.4-8,0.6-12l3.7,0.2
		C540.8,1396.3,540.6,1400.3,540.4,1404.3z M63,1389.1c-0.2-4-0.4-8-0.5-12l3.7-0.2c0.2,4,0.4,8,0.5,12L63,1389.1z M541.5,1380.3
		l-3.7-0.2c0.2-4,0.4-8,0.5-12l3.7,0.2C541.9,1372.3,541.7,1376.3,541.5,1380.3z M62,1365.2c-0.2-4-0.3-8-0.5-12l3.7-0.2
		c0.2,4,0.3,8,0.5,12L62,1365.2z M542.5,1356.4l-3.7-0.2c0.2-4,0.3-8,0.5-12l3.7,0.1C542.9,1348.4,542.7,1352.4,542.5,1356.4z
		 M61,1341.2c-0.2-4-0.3-8-0.5-12l3.7-0.1c0.2,4,0.3,8,0.5,12L61,1341.2z M543.5,1332.4l-3.7-0.1c0.2-4,0.3-8,0.4-12l3.7,0.1
		C543.8,1324.4,543.6,1328.4,543.5,1332.4z M60.1,1317.3c-0.1-4-0.3-8-0.4-12l3.7-0.1c0.1,4,0.3,8,0.4,12L60.1,1317.3z
		 M544.4,1308.5l-3.7-0.1c0.1-4,0.3-8,0.4-12l3.7,0.1C544.6,1300.5,544.5,1304.5,544.4,1308.5z M59.2,1293.3c-0.1-4-0.3-8-0.4-12
		l3.7-0.1c0.1,4,0.3,8,0.4,12L59.2,1293.3z M545.2,1284.5l-3.7-0.1c0.1-4,0.3-8,0.4-12l3.7,0.1
		C545.4,1276.5,545.3,1280.5,545.2,1284.5z M58.5,1269.3c-0.1-4-0.2-8-0.4-12l3.7-0.1c0.1,4,0.2,8,0.4,12L58.5,1269.3z
		 M545.9,1260.6l-3.7-0.1c0.1-4,0.2-8,0.3-12l3.7,0.1C546.1,1252.6,546,1256.6,545.9,1260.6z M57.8,1245.4c-0.1-4-0.2-8-0.3-12
		l3.7-0.1c0.1,4,0.2,8,0.3,12L57.8,1245.4z M546.6,1236.6l-3.7-0.1c0.1-4,0.2-8,0.3-12l3.7,0.1
		C546.8,1228.6,546.7,1232.6,546.6,1236.6z M57.1,1221.4c-0.1-4-0.2-8-0.3-12l3.7-0.1c0.1,4,0.2,8,0.3,12L57.1,1221.4z
		 M547.2,1212.6l-3.7-0.1c0.1-4,0.2-8,0.3-12l3.7,0.1C547.4,1204.6,547.3,1208.6,547.2,1212.6z M56.6,1197.3c-0.1-4-0.2-8-0.3-12
		l3.7-0.1c0.1,4,0.2,8,0.3,12L56.6,1197.3z M547.7,1188.7l-3.7-0.1c0.1-4,0.2-8,0.2-11.9l3.7,0.1
		C547.9,1180.7,547.8,1184.7,547.7,1188.7z M56.1,1173.3c-0.1-4-0.2-8-0.2-12l3.7-0.1c0.1,4,0.1,8,0.2,12L56.1,1173.3z
		 M548.2,1164.8l-3.7-0.1c0.1-4,0.1-8,0.2-11.9l3.7,0.1C548.3,1156.8,548.3,1160.8,548.2,1164.8z M55.6,1149.3c-0.1-4-0.1-8-0.2-12
		l3.7-0.1c0.1,4,0.1,8,0.2,12L55.6,1149.3z M548.6,1140.9l-3.7-0.1c0.1-4,0.1-8,0.2-11.9l3.7,0.1
		C548.7,1132.9,548.7,1136.9,548.6,1140.9z M55.2,1125.2c-0.1-4-0.1-8-0.2-12l3.7,0c0.1,4,0.1,8,0.2,12L55.2,1125.2z M549,1117
		l-3.7-0.1c0.1-4,0.1-8,0.2-11.9l3.7,0C549.1,1109,549,1113,549,1117z M54.9,1101.2c0-4-0.1-8-0.1-12l3.7,0c0,4,0.1,8,0.1,12
		L54.9,1101.2z M549.2,1093.1l-3.7,0c0-4,0.1-8,0.1-12l3.7,0C549.3,1085.1,549.3,1089.1,549.2,1093.1z M54.7,1077.2
		c0-4-0.1-8-0.1-12l3.7,0c0,4,0.1,8,0.1,12L54.7,1077.2z M549.5,1069.2l-3.7,0c0-4,0.1-8,0.1-12l3.7,0
		C549.6,1061.2,549.5,1065.2,549.5,1069.2z M54.4,1053.2c0-4-0.1-8-0.1-12l3.7,0c0,4,0.1,8,0.1,12L54.4,1053.2z M549.7,1045.2
		l-3.7,0c0-4,0.1-8,0.1-12l3.7,0C549.7,1037.3,549.7,1041.3,549.7,1045.2z M54.3,1029.2c0-4,0-8-0.1-12l3.7,0c0,4,0,8,0.1,12
		L54.3,1029.2z M549.8,1021.3l-3.7,0c0-4,0-8,0.1-12l3.7,0C549.9,1013.3,549.9,1017.3,549.8,1021.3z M54.2,1005.2c0-4,0-8,0-12
		l3.7,0c0,4,0,8,0,12L54.2,1005.2z M549.9,997.4l-3.7,0l0-12l3.7,0L549.9,997.4z M54.1,981.2c0-4,0-8,0-12l3.7,0c0,4,0,8,0,12
		L54.1,981.2z M550,973.4l-3.7,0l0-12l3.7,0L550,973.4z M54,957.2l0-12l3.7,0l0,12L54,957.2z M550,949.5l-3.7,0l0-6.4l0-5.5l3.7,0
		l0,5.5L550,949.5z M57.7,933.2l-3.7,0l0-12l3.7,0L57.7,933.2z M546.3,925.5l0-12l3.7,0l0,12L546.3,925.5z M57.8,909.3l-3.7,0l0-12
		l3.7,0L57.8,909.3z M546.3,901.6l0-12l3.7,0l0,12L546.3,901.6z M57.8,885.3l-3.7,0l0-12l3.7,0L57.8,885.3z M546.2,877.6l0-12l3.7,0
		l0,12L546.2,877.6z M57.9,861.3l-3.7,0l0-12l3.7,0L57.9,861.3z M546.1,853.6l0-11.9l1.9-0.1l1.9,0l-1.9,0l1.9,0.1l0,11.9
		L546.1,853.6z M58,837.4l-3.7,0l0.1-11.9l3.7-0.1L58,837.4z M546,829.7l-0.1-12l3.7,0l0.1,12L546,829.7z M58.1,813.4l-3.7,0l0.1-12
		l3.7,0L58.1,813.4z M545.9,805.7l-0.1-12l3.7,0l0.1,12L545.9,805.7z M58.3,789.5l-3.7,0l0.1-12l3.7,0L58.3,789.5z M545.8,781.7
		l-0.1-12l3.7,0l0.1,12L545.8,781.7z M58.4,765.5l-3.7,0l0.1-12l3.7,0L58.4,765.5z M545.7,757.8l-0.1-12l3.7,0l0.1,12L545.7,757.8z
		 M58.6,741.5l-3.7,0l0.1-12l3.7,0L58.6,741.5z M545.5,733.8l-0.1-12l3.7,0l0.1,12L545.5,733.8z M58.7,717.6l-3.7,0l0.1-12l3.7,0
		L58.7,717.6z M545.4,709.8l-0.1-12l3.7,0l0.1,12L545.4,709.8z M58.9,693.6l-3.7,0l0.1-8.3l0.1-3.7l3.7,0.1l-0.1,3.7L58.9,693.6z
		 M545.3,685.8l0-0.6c-0.1-3.8-0.2-7.6-0.4-11.4l3.7-0.1c0.1,3.8,0.3,7.6,0.4,11.4l0,0.6L545.3,685.8z M59.4,669.7l-3.7-0.1
		c0.1-4,0.3-8,0.5-12l3.7,0.2C59.7,661.7,59.6,665.7,59.4,669.7z M544.4,662c-0.2-4-0.4-8-0.6-12l3.7-0.2c0.2,4,0.4,8,0.6,12
		L544.4,662z M60.5,645.8l-3.7-0.2c0.2-4,0.4-8,0.7-12l3.7,0.2C60.9,637.8,60.7,641.8,60.5,645.8z M543.2,638.1c-0.2-4-0.5-8-0.7-12
		l3.7-0.2c0.3,4,0.5,8,0.7,12L543.2,638.1z M61.9,621.9l-3.7-0.2c0.3-4,0.5-8,0.8-12l3.7,0.3C62.4,613.9,62.1,617.9,61.9,621.9z
		 M541.7,614.2c-0.3-4-0.6-8-0.9-11.9l3.7-0.3c0.3,4,0.6,8,0.9,12L541.7,614.2z M63.6,598l-3.7-0.3c0.3-4,0.6-8,1-12l3.7,0.3
		C64.2,590,63.9,594,63.6,598z M539.8,590.3c-0.3-4-0.7-8-1.1-11.9l3.7-0.3c0.4,4,0.7,8,1.1,12L539.8,590.3z M65.6,574.1l-3.7-0.3
		c0.4-4,0.7-8,1.1-11.9l3.7,0.4C66.3,566.2,65.9,570.1,65.6,574.1z M537.6,566.4c-0.4-4-0.8-8-1.2-11.9l3.7-0.4
		c0.4,4,0.8,7.9,1.2,11.9L537.6,566.4z M67.9,550.3l-3.7-0.4c0.4-4,0.8-8,1.3-11.9l3.7,0.4C68.7,542.3,68.3,546.3,67.9,550.3z
		 M535.1,542.6c-0.4-4-0.9-8-1.4-11.9l3.7-0.4c0.5,4,0.9,7.9,1.4,11.9L535.1,542.6z M70.4,526.5l-3.7-0.4c0.5-4,0.9-8,1.4-11.9
		l3.7,0.4C71.4,518.5,70.9,522.5,70.4,526.5z M532.4,518.8c-0.5-4-1-7.9-1.5-11.9l3.7-0.5c0.5,3.9,1,7.9,1.5,11.9L532.4,518.8z
		 M73.3,502.7l-3.7-0.5c0.5-4,1-8,1.5-11.9l3.7,0.5C74.3,494.7,73.8,498.7,73.3,502.7z M529.3,495c-0.5-4-1.1-7.9-1.6-11.9l3.7-0.5
		c0.6,3.9,1.1,7.9,1.6,11.9L529.3,495z M76.4,478.9l-3.7-0.5c0.5-4,1.1-8,1.7-11.9l3.7,0.5C77.5,471,76.9,474.9,76.4,478.9z
		 M526,471.3c-0.6-4-1.2-7.9-1.8-11.8l3.7-0.6c0.6,3.9,1.2,7.9,1.8,11.9L526,471.3z M79.7,455.2l-3.7-0.5c0.6-4,1.2-7.9,1.8-11.9
		l3.7,0.6C80.9,447.3,80.3,451.2,79.7,455.2z M522.4,447.6c-0.6-4-1.3-7.9-1.9-11.8l3.7-0.6c0.6,3.9,1.3,7.9,1.9,11.8L522.4,447.6z
		 M83.4,431.5l-3.7-0.6c0.6-4,1.3-7.9,1.9-11.8l3.7,0.6C84.6,423.6,84,427.5,83.4,431.5z M518.5,424c-0.7-4-1.3-7.9-2-11.8l3.7-0.6
		c0.7,3.9,1.4,7.8,2,11.8L518.5,424z M87.2,407.9l-3.7-0.6c0.7-4,1.3-7.9,2-11.8l3.7,0.6C88.6,399.9,87.9,403.9,87.2,407.9z
		 M514.4,400.4c-0.7-4-1.4-7.9-2.1-11.8l3.6-0.7c0.7,3.9,1.4,7.8,2.2,11.8L514.4,400.4z M91.3,384.3l-3.7-0.7
		c0.7-4,1.4-7.9,2.1-11.8l3.6,0.7C92.7,376.3,92,380.3,91.3,384.3z M510.1,376.8c-0.8-4-1.5-7.9-2.3-11.8l3.6-0.7
		c0.8,3.9,1.5,7.8,2.3,11.8L510.1,376.8z M95.6,360.7L92,360c0.8-4,1.5-7.9,2.3-11.8l3.6,0.7C97.1,352.8,96.4,356.7,95.6,360.7z
		 M505.5,353.3c-0.8-4-1.6-7.9-2.4-11.7l3.6-0.8c0.8,3.8,1.6,7.8,2.4,11.8L505.5,353.3z M100.2,337.2l-3.6-0.7c0.8-4,1.6-8,2.4-11.8
		l3.6,0.7C101.8,329.2,101,333.1,100.2,337.2z M500.6,329.8c-0.9-4-1.7-7.9-2.5-11.7l3.6-0.8c0.8,3.8,1.7,7.7,2.5,11.7L500.6,329.8z
		 M105,313.7l-3.6-0.8c0.9-4.1,1.7-8,2.5-11.7l3.6,0.8C106.7,305.7,105.9,309.6,105,313.7z M495.5,306.4c-0.9-4.1-1.8-8-2.7-11.7
		l3.6-0.8c0.9,3.7,1.8,7.6,2.7,11.7L495.5,306.4z M110.1,290.3l-3.6-0.8c0.9-4.1,1.8-8,2.7-11.7l3.6,0.8
		C111.9,282.2,111.1,286.1,110.1,290.3z M490.1,283.1c-1-4.2-1.9-8-2.8-11.7l3.6-0.9c0.9,3.6,1.8,7.5,2.8,11.7L490.1,283.1z
		 M115.5,266.9l-3.6-0.9c1.1-4.4,2-8.3,2.8-11.7l3.6,0.9C117.5,258.6,116.6,262.5,115.5,266.9z M484.4,259.8
		c-1.2-4.6-2.2-8.5-3-11.6l3.6-0.9c0.8,3.1,1.8,7,3,11.6L484.4,259.8z M121.3,243.6l-3.6-0.9l0.3-1.3c1.2-3.4,2.5-6.8,3.8-10.2
		l3.5,1.3c-1.3,3.3-2.5,6.7-3.7,10L121.3,243.6z M478.1,236.8c-1.3-3.7-2.8-7.5-4.2-11.2l3.4-1.4c1.5,3.7,2.9,7.5,4.3,11.3
		L478.1,236.8z M129.7,221.5l-3.4-1.4c1.6-3.7,3.2-7.4,4.9-11l3.4,1.6C132.9,214.2,131.3,217.8,129.7,221.5z M469.2,214.6
		c-1.6-3.6-3.2-7.3-4.9-10.9l3.4-1.6c1.7,3.6,3.4,7.3,5,11L469.2,214.6z M139.7,199.9l-3.3-1.7c1.8-3.6,3.7-7.2,5.6-10.7l3.3,1.8
		C143.3,192.8,141.5,196.3,139.7,199.9z M459.1,193.1c-1.8-3.5-3.7-7.1-5.6-10.6l3.3-1.8c1.9,3.5,3.8,7.1,5.6,10.7L459.1,193.1z
		 M151.1,178.9l-3.2-1.9c2-3.5,4.1-6.9,6.3-10.3l3.1,2C155.2,172,153.1,175.5,151.1,178.9z M447.6,172.1c-2-3.4-4.1-6.9-6.2-10.2
		l3.1-2c2.1,3.3,4.2,6.8,6.3,10.3L447.6,172.1z M163.8,158.7l-3.1-2.1c2.3-3.3,4.6-6.6,7-9.8l3,2.2
		C168.4,152.2,166.1,155.4,163.8,158.7z M434.9,151.9c-2.2-3.3-4.6-6.6-6.9-9.7l3-2.2c2.3,3.2,4.7,6.5,7,9.8L434.9,151.9z
		 M178,139.5l-2.9-2.3c2.5-3.2,5.1-6.3,7.7-9.3l2.8,2.4C183,133.3,180.4,136.4,178,139.5z M420.8,132.8c-2.5-3.1-5-6.2-7.6-9.2
		l2.8-2.4c2.6,3,5.2,6.1,7.7,9.3L420.8,132.8z M193.5,121.5l-2.7-2.5c2.8-3,5.6-5.9,8.4-8.6l2.6,2.6
		C199,115.7,196.2,118.5,193.5,121.5z M405.2,114.7c-2.7-2.9-5.6-5.8-8.3-8.5l2.6-2.7c2.8,2.7,5.7,5.6,8.5,8.6L405.2,114.7z
		 M210.5,104.8L208,102c3-2.7,6.1-5.3,9.2-7.8l2.3,2.9C216.5,99.6,213.5,102.2,210.5,104.8z M388.1,98.2c-3-2.6-6.1-5.2-9.1-7.6
		l2.3-2.9c3.1,2.4,6.2,5,9.3,7.7L388.1,98.2z M229,89.9l-2.2-3c3.3-2.4,6.7-4.7,10-6.8l2,3.1C235.5,85.3,232.2,87.6,229,89.9z
		 M369.4,83.5c-3.3-2.3-6.6-4.4-10-6.4l1.9-3.2c3.4,2,6.8,4.2,10.2,6.6L369.4,83.5z M249,77.1l-1.8-3.2c3.6-2,7.2-3.8,10.8-5.5
		l1.6,3.4C256,73.4,252.5,75.2,249,77.1z M349.1,71.4c-3.6-1.8-7.2-3.4-10.8-4.9l1.4-3.4c3.7,1.5,7.4,3.2,11,5L349.1,71.4z
		 M270.4,67l-1.3-3.5c3.8-1.5,7.6-2.8,11.4-4l1.1,3.5C277.9,64.3,274.1,65.6,270.4,67z M327.2,62.5c-3.8-1.2-7.6-2.2-11.4-3l0.8-3.6
		c3.9,0.8,7.8,1.9,11.7,3.1L327.2,62.5z M293,60.1l-0.8-3.6c3.9-0.9,7.9-1.6,11.9-2.2l0.5,3.7C300.8,58.5,296.9,59.2,293,60.1z"/>
</g>
<g>
	<g>
		<path class="st2" d="M304.5,2203.2l-5,0c-80.3-3.9-143.9-25.8-146.9-26.8c-30.6-7.9-55.3-34.8-71.5-77.9
			c-11.8-31.6-15.1-61.3-15.3-63c-36.5-230.7-41.1-383.7-41.3-387.6c-11.8-142.7-25.1-477.6-25.3-481l1.3-482.4
			c6.6-242,64.7-457.3,65.3-459.4l0.1-0.2c18.6-50.5,42.7-93.8,71.7-128.6c23.2-27.9,49.6-50.5,78.5-67.1
			c49.2-28.4,87.8-29.5,89.4-29.6c1.6,0,37.6,0.5,84.1,28.3c27.2,16.3,52.4,38.5,74.7,66.2c27.9,34.6,51.4,77.7,70,128.2l0.1,0.2
			c0.6,2.2,62.2,220.1,68.7,462l1.3,482.4c-0.1,3.5-13.4,338.4-25.3,481.1c-0.1,3.9-4.7,156.9-41.3,387.6c-0.2,1.6-3.4,31.4-15.3,63
			c-16.1,43.1-40.8,70-71.5,77.9C448.5,2177.4,384.9,2199.3,304.5,2203.2L304.5,2203.2z M299.7,2198.7h4.7
			c81.2-4,145-26.4,145.6-26.6l0.2-0.1c20.3-5.2,48.7-22.4,68.4-75c11.9-31.8,15-61.7,15-62l0-0.1c36.8-232.3,41.2-385.6,41.2-387.2
			l0-0.1c11.8-142.6,25.1-477.5,25.3-480.9l-1.3-482.2c-6.5-239.6-67.1-455.6-68.5-460.8c-18.4-49.9-41.6-92.5-69.1-126.7
			c-22-27.3-46.6-49.2-73.4-65.2c-45.5-27.2-81.7-27.8-82-27.8c-0.3,0-39.2,1.2-87.5,29.1C190,49.6,164,71.8,141.2,99.3
			c-28.6,34.4-52.4,77.1-70.8,127.1c-1.5,5.5-58.6,218.7-65.1,458.2L4,1166.9c0.1,3.3,13.4,338.2,25.3,480.8l0,0.1
			c0,1.5,4.4,154.9,41.2,387.2l0,0.1c0,0.3,3.1,30.2,15,62c10.9,29,31.6,65.6,68.4,75l0.2,0.1
			C154.7,2172.3,218.6,2194.7,299.7,2198.7z"/>
	</g>
	<g>
		<g>
			<g>
				<g>
					<path class="st3" d="M359,531.8c-5.6,0-10.2-4.6-10.2-10.2c0-5.7,4.6-10.3,10.2-10.3s10.2,4.6,10.2,10.3
						C369.2,527.3,364.6,531.8,359,531.8z M359,516.1c-3.1,0-5.7,2.5-5.7,5.5s2.5,5.4,5.7,5.4s5.7-2.5,5.7-5.4
						S362.1,516.1,359,516.1z"/>
				</g>
			</g>
		</g>
		<g>
			<g>
				<g>
					<path class="st3" d="M245.2,531.8c-5.6,0-10.2-4.6-10.2-10.2c0-5.7,4.6-10.3,10.2-10.3s10.1,4.6,10.1,10.3
						C255.4,527.3,250.8,531.8,245.2,531.8z M245.2,516.1c-3.1,0-5.7,2.5-5.7,5.5s2.5,5.4,5.7,5.4c3.1,0,5.6-2.5,5.6-5.4
						S248.3,516.1,245.2,516.1z"/>
				</g>
			</g>
		</g>
		<g>
			<g>
				<g>
					<path class="st3" d="M359,383.9c-5.6,0-10.2-4.6-10.2-10.2c0-5.7,4.6-10.3,10.2-10.3s10.2,4.6,10.2,10.3S364.6,383.9,359,383.9
						z M359,368.3c-3.1,0-5.7,2.5-5.7,5.5s2.5,5.4,5.7,5.4s5.7-2.5,5.7-5.4S362.1,368.3,359,368.3z"/>
				</g>
			</g>
		</g>
		<g>
			<g>
				<g>
					<path class="st3" d="M245.2,383.9c-5.6,0-10.2-4.6-10.2-10.2c0-5.7,4.6-10.3,10.2-10.3s10.1,4.6,10.1,10.3
						C255.4,379.4,250.8,383.9,245.2,383.9z M245.2,368.3c-3.1,0-5.7,2.5-5.7,5.5s2.5,5.4,5.7,5.4c3.1,0,5.6-2.5,5.6-5.4
						S248.3,368.3,245.2,368.3z"/>
				</g>
			</g>
		</g>
	</g>
	<g>
		<g>
			<g>
				<g>
					<path class="st3" d="M359,1748.5c-5.6,0-10.2-4.6-10.2-10.2c0-5.7,4.6-10.3,10.2-10.3s10.2,4.6,10.2,10.3
						S364.6,1748.5,359,1748.5z M359,1732.8c-3.1,0-5.7,2.5-5.7,5.5s2.5,5.4,5.7,5.4s5.7-2.5,5.7-5.4
						C364.7,1735.4,362.1,1732.8,359,1732.8z"/>
				</g>
			</g>
		</g>
		<g>
			<g>
				<g>
					<path class="st3" d="M245.2,1748.5c-5.6,0-10.2-4.6-10.2-10.2c0-5.7,4.6-10.3,10.2-10.3s10.1,4.6,10.1,10.3
						C255.4,1743.9,250.8,1748.5,245.2,1748.5z M245.2,1732.8c-3.1,0-5.7,2.5-5.7,5.5s2.5,5.4,5.7,5.4c3.1,0,5.6-2.5,5.6-5.4
						C250.8,1735.4,248.3,1732.8,245.2,1732.8z"/>
				</g>
			</g>
		</g>
		<g>
			<g>
				<g>
					<path class="st3" d="M359,1600.6c-5.6,0-10.2-4.6-10.2-10.2c0-5.7,4.6-10.3,10.2-10.3s10.2,4.6,10.2,10.3
						S364.6,1600.6,359,1600.6z M359,1584.9c-3.1,0-5.7,2.5-5.7,5.5s2.5,5.4,5.7,5.4s5.7-2.5,5.7-5.4
						C364.7,1587.5,362.1,1584.9,359,1584.9z"/>
				</g>
			</g>
		</g>
		<g>
			<g>
				<g>
					<path class="st3" d="M245.2,1600.6c-5.6,0-10.2-4.6-10.2-10.2c0-5.7,4.6-10.3,10.2-10.3s10.1,4.6,10.1,10.3
						C255.4,1596.1,250.8,1600.6,245.2,1600.6z M245.2,1584.9c-3.1,0-5.7,2.5-5.7,5.5s2.5,5.4,5.7,5.4c3.1,0,5.6-2.5,5.6-5.4
						C250.8,1587.5,248.3,1584.9,245.2,1584.9z"/>
				</g>
			</g>
		</g>
	</g>
</g>
</svg>
