<?xml version="1.0" encoding="utf-8"?>
<!-- Generator: Adobe Illustrator 26.3.1, SVG Export Plug-In . SVG Version: 6.00 Build 0)  -->
<svg version="1.1" id="Layer_1" xmlns="http://www.w3.org/2000/svg" xmlns:xlink="http://www.w3.org/1999/xlink" x="0px" y="0px"
	 viewBox="0 0 688 2278.6" style="enable-background:new 0 0 688 2278.6;" xml:space="preserve">
<style type="text/css">
	.st0{fill:#7900FF;}
	.st1{fill:#38E841;}
	.st2{fill:#ED1E77;}
	.st3{fill:#005EFF;}
</style>
<g>
	<path class="st0" d="M367.2,2277.7l-0.1,0l-46.5-1.5c-83.9-5.2-145.9-28.5-183.2-47.2c-39.8-19.9-60.1-38.4-61.6-39.7
		c-19-15.4-33.9-44.7-44.3-86.9c-8.2-33.5-13.6-75.4-16.1-124.4c-4.1-82.1,1.5-157.2,1.7-160.2l2-261.1
		c3.9-101.3-9.8-575.7-10-580.4c-11.8-162.8-8-323.9-8-325.5C4.4,497,21.6,393.6,35.5,333.9c14.8-63.6,28.8-91.7,29.8-93.8
		c24.2-59.3,53.4-108.8,86.7-147.2c26.8-30.8,56.2-54.5,87.6-70.6c52-26.6,91.3-23,95.1-22.6c4-0.3,47.3-3.2,103.5,24.1
		c33.9,16.5,65.3,40.5,93.5,71.6c35.1,38.7,65.2,88.4,89.4,147.7c1.2,2.2,15.4,30,30.6,93.1c14.3,59.3,31.9,162.3,35,316.1
		c0,1.6,3.9,162.7-8,325.6c-0.1,4.7-13.9,479.1-10,580.3l2,261.1c0.2,2.7,5.2,74.9,0.5,155.8c-2.8,48.2-8.6,90.1-17,124.5
		c-10.6,43.2-25.6,74.7-44.5,93.5c-0.9,0.8-20.6,19-60.4,38.6c-36.7,18.1-98,40.7-181.9,45.9L367.2,2277.7z M320.9,2271.6l46.3,1.5
		c82.9-5.2,143.6-27.5,179.9-45.4c39.3-19.4,59.3-37.7,59.5-37.9c41.7-41.5,55.7-139.8,60.2-215c4.8-81.8-0.4-154.6-0.5-155.3l0-0.1
		l-2-261.1c-3.9-101.3,9.8-575.8,10-580.6c11.8-162.8,8-323.7,8-325.3c-3.1-153.2-20.6-255.8-34.8-314.9
		c-15.4-64-30.2-92.2-30.3-92.4l-0.1-0.2c-24-58.8-53.8-108-88.5-146.3c-27.7-30.6-58.7-54.4-92-70.6C379.8,0.4,335.4,4.2,334.9,4.2
		l-0.2,0l-0.2,0c-0.4-0.1-40.6-4.6-93,22.3c-30.8,15.8-59.8,39.2-86.1,69.5c-33,38-61.8,87.1-85.8,145.8l-0.1,0.2
		c-0.1,0.3-14.6,28.8-29.6,93.2c-13.8,59.4-31,162.4-34,315.6c0,1.6-3.9,162.5,8,325.2c0.1,4.9,13.9,479.4,10,580.8l-2,261.1l0,0.1
		c-0.1,0.8-5.9,76.7-1.7,159.7c3.8,76.3,17.2,174.3,58.8,208l0.1,0.1c0.2,0.2,20.8,19.2,60.8,39.1
		C176.5,2243.4,237.9,2266.5,320.9,2271.6z"/>
</g>
<g>
	<path class="st1" d="M366.8,2249.7L366.8,2249.7l-44.9-1.5c-77.8-4.9-135.4-26.2-170-43.2c-37-18.2-56.5-35.6-57.3-36.4L94,2168
		l-0.6-0.5c-9.8-7.9-23.7-26.8-34.7-71.7c-7.8-31.7-13-71.7-15.4-118.8c-4.2-81.5,1.6-156.4,1.7-157.1l0.1-0.9l2-261.6
		c3.9-103.1-9.4-562.4-10-581.9l-0.1-1.1C25.2,812.8,29,653.1,29,651.5l0-0.1c5.8-287.9,60.4-397.4,61-398.5l0.5-1l0.4-1
		c37-90.6,84.5-155.2,141.3-192c43.8-28.4,80.5-31.5,94.3-31.5c2.8,0,4.5,0.1,5.2,0.2l3.1,0.4l2.4-0.4c0.5,0,2.1-0.1,4.5-0.1
		c15.1,0,55.5,3.1,103.3,31.7c62.4,37.3,113,102.8,150.5,194.7l0.6,1.4l0.5,1c0.6,1.2,14.6,29.1,29,90.3
		c13.6,57.6,30.4,157.5,33.4,306.4l0,0.1c0,1.6,3.8,161.8-7.9,322.9L651,977c-0.6,19.5-13.9,478.9-10,581.9l2,261.7l0.1,0.8
		c0.1,0.7,5.2,72.6,0.4,152.7c-5.9,99.6-24.7,170.2-52.9,198.8l-0.1,0.1c-2,1.8-21,18-55.8,34.9
		C500.9,2224.1,444.3,2244.7,366.8,2249.7L366.8,2249.7z M322.1,2245.2l44.6,1.5c76.9-5,133.1-25.4,166.7-41.7
		c34.2-16.6,52.9-32.5,55.1-34.4c27.6-28.1,46.1-97.9,52-196.8c4.7-79.9-0.4-151.6-0.4-152.3l-0.1-0.9l-2-261.7
		c-3.9-103,9.4-562.5,10-582l0.1-1.2c11.7-160.9,8-321,7.9-322.6l0-0.1c-3-148.7-19.7-248.4-33.3-305.8
		c-14.3-60.9-28.2-88.4-28.8-89.6l-0.6-1.2l-0.6-1.4c-37.3-91.3-87.5-156.3-149.3-193.2c-47.2-28.2-86.9-31.3-101.8-31.3
		c-2.3,0-3.7,0.1-4.2,0.1l-2.6,0.4l-3.5-0.5c-0.4,0-2.1-0.2-4.8-0.2c-13.5,0-49.5,3-92.6,31C177.6,97.8,130.5,161.9,93.7,251.9
		l-0.5,1.2l-0.5,1.1c-0.5,1.1-54.9,109.9-60.7,397.2l0,0.1c0,1.6-3.8,161.2,7.9,322.6l0.1,1.2c0.6,19.5,13.9,478.9,10,582.1
		l-2,261.7l-0.1,1c-0.1,0.7-5.8,75.4-1.7,156.8c2.4,46.9,7.5,86.7,15.3,118.2c10.8,44.1,24.3,62.4,33.7,70l0.7,0.6l0.7,0.7
		c0.8,0.7,20,17.9,56.6,35.9C187.6,2219.2,244.8,2240.4,322.1,2245.2z"/>
</g>
<g>
	<path class="st2" d="M346.5,2222.6c-4-0.1-8.1-0.2-12.1-0.4l0.2-3.7c3.9,0.2,7.9,0.3,11.9,0.4L346.5,2222.6z M358.6,2222.6
		l-0.1-3.7c3.9-0.1,7.9-0.2,11.9-0.4l0.2,3.7C366.6,2222.3,362.5,2222.5,358.6,2222.6z M323.2,2221.4c-4-0.3-8-0.6-12-1l0.3-3.7
		c3.9,0.4,7.9,0.7,11.9,1L323.2,2221.4z M382.7,2221.3l-0.3-3.7c3.9-0.3,7.9-0.7,11.9-1.2l0.4,3.7
		C390.6,2220.5,386.6,2220.9,382.7,2221.3z M299.3,2219.1c-4-0.5-8-1-11.9-1.5l0.5-3.7c3.9,0.5,7.9,1.1,11.9,1.5L299.3,2219.1z
		 M406.6,2218.5l-0.5-3.7c3.9-0.6,7.9-1.2,11.8-1.9l0.6,3.7C414.5,2217.3,410.5,2217.9,406.6,2218.5z M275.4,2215.8
		c-4-0.7-8-1.4-11.9-2.1l0.7-3.6c3.9,0.7,7.8,1.4,11.8,2.1L275.4,2215.8z M430.3,2214.3l-0.7-3.6c3.9-0.8,7.8-1.7,11.7-2.6l0.8,3.6
		C438.2,2212.7,434.2,2213.5,430.3,2214.3z M251.8,2211.3c-3.9-0.9-7.9-1.8-11.7-2.7l0.9-3.6c3.8,0.9,7.7,1.8,11.6,2.7L251.8,2211.3
		z M453.7,2208.8l-0.9-3.6c3.8-1,7.7-2.1,11.5-3.2l1,3.6C461.5,2206.7,457.6,2207.8,453.7,2208.8z M228.4,2205.5
		c-3.9-1.1-7.8-2.2-11.6-3.4l1.1-3.5c3.8,1.2,7.6,2.3,11.5,3.4L228.4,2205.5z M476.9,2202l-1.2-3.5c3.8-1.2,7.6-2.5,11.3-3.9
		l1.3,3.5C484.5,2199.4,480.7,2200.8,476.9,2202z M205.4,2198.4c-3.8-1.3-7.6-2.7-11.3-4.1l1.3-3.5c3.7,1.4,7.4,2.8,11.2,4.1
		L205.4,2198.4z M499.5,2193.8l-1.4-3.5c3.7-1.5,7.4-3,11-4.6l1.5,3.4C507,2190.8,503.3,2192.4,499.5,2193.8z M182.9,2189.8
		c-3.7-1.6-7.4-3.2-11-4.9l1.6-3.4c3.5,1.6,7.2,3.3,10.9,4.8L182.9,2189.8z M521.7,2184.3l-1.6-3.4c3.6-1.7,7.2-3.5,10.7-5.3
		l1.7,3.3C529,2180.7,525.3,2182.5,521.7,2184.3z M161,2179.7c-3.6-1.8-7.2-3.8-10.6-5.7l1.8-3.2c3.4,1.9,7,3.8,10.5,5.6L161,2179.7
		z M543.1,2173.1l-1.8-3.2c3.5-2,6.9-4.1,10.2-6.2l2,3.1C550.1,2169,546.6,2171.1,543.1,2173.1z M140,2167.9
		c-3.4-2.1-6.8-4.3-10.1-6.6l2.1-3.1c3.3,2.2,6.6,4.4,10,6.5L140,2167.9z M563.4,2160.1l-2.2-3c3-2.2,5.8-4.4,8.5-6.5
		c0.2-0.2,0.3-0.4,0.5-0.6l2.9,2.3c-0.2,0.3-0.4,0.5-0.6,0.8l-0.2,0.2C569.5,2155.6,566.5,2157.8,563.4,2160.1z M120,2154.3
		c-2.9-2.2-5.9-4.5-8.7-6.8l-0.1-0.1c-0.3-0.2-0.5-0.5-0.8-0.8l2.6-2.7c0.2,0.2,0.5,0.4,0.7,0.7c2.8,2.2,5.6,4.5,8.5,6.6L120,2154.3
		z M580.2,2142.3l-3.2-1.9c2-3.2,3.9-6.7,5.7-10.4l3.3,1.6C584.1,2135.4,582.2,2139,580.2,2142.3z M102.6,2137.1
		c-2-3.1-4-6.8-5.9-10.7l3.4-1.6c1.8,3.8,3.7,7.3,5.7,10.3L102.6,2137.1z M590.9,2120.5l-3.4-1.4c1.4-3.5,2.8-7.3,4.1-11.2l3.5,1.2
		C593.7,2113.1,592.3,2116.9,590.9,2120.5z M92,2115.2c-1.3-3.6-2.6-7.4-3.8-11.5l3.5-1.1c1.2,4,2.5,7.8,3.8,11.3L92,2115.2z
		 M598.6,2097.6l-3.6-1c1-3.7,2.1-7.6,3-11.5l3.6,0.9C600.7,2089.9,599.6,2093.9,598.6,2097.6z M85,2092c-0.9-3.7-1.9-7.7-2.7-11.8
		l3.6-0.8c0.9,4,1.8,7.9,2.7,11.6L85,2092z M604.3,2074.2l-3.6-0.8c0.8-3.8,1.6-7.7,2.3-11.7l3.6,0.7
		C605.9,2066.4,605.1,2070.4,604.3,2074.2z M79.9,2068.5c-0.7-3.8-1.4-7.8-2-11.9l3.7-0.6c0.6,4,1.3,8,2,11.8L79.9,2068.5z
		 M608.7,2050.5l-3.7-0.6c0.6-3.8,1.2-7.8,1.8-11.8l3.7,0.5C609.9,2042.6,609.3,2046.6,608.7,2050.5z M76.1,2044.7
		c-0.5-3.9-1-7.9-1.5-11.9l3.7-0.4c0.5,4,1,8,1.5,11.9L76.1,2044.7z M612,2026.6l-3.7-0.4c0.5-3.8,0.9-7.8,1.4-11.9l3.7,0.4
		C612.9,2018.8,612.5,2022.8,612,2026.6z M73.3,2020.8c-0.4-3.9-0.8-7.9-1.1-12l3.7-0.3c0.4,4,0.7,8,1.1,11.9L73.3,2020.8z
		 M614.5,2002.7l-3.7-0.3c0.4-3.9,0.7-7.9,1-11.9l3.7,0.3C615.2,1994.8,614.9,1998.8,614.5,2002.7z M71.2,1996.8
		c-0.3-3.9-0.6-7.9-0.8-12l3.7-0.2c0.3,4,0.5,8.1,0.8,12L71.2,1996.8z M616.4,1978.8l-3.7-0.3c0.1-2.1,0.3-4.2,0.4-6.3
		c0.1-1.9,0.2-3.7,0.3-5.6l3.7,0.2c-0.1,1.9-0.2,3.8-0.3,5.6C616.7,1974.5,616.6,1976.6,616.4,1978.8z M69.7,1972.8
		c-0.2-3.9-0.4-8-0.5-12l3.7-0.1c0.1,4,0.3,8,0.5,12L69.7,1972.8z M617.8,1954.8l-3.7-0.2c0.2-4,0.3-8,0.4-12l3.7,0.1
		C618.1,1946.7,617.9,1950.7,617.8,1954.8z M68.8,1948.8c-0.1-4-0.2-8-0.3-12l3.7-0.1c0.1,3.9,0.1,7.9,0.3,12L68.8,1948.8z
		 M618.5,1930.8l-3.7-0.1c0.1-4.1,0.2-8,0.2-12l3.7,0C618.7,1922.7,618.6,1926.7,618.5,1930.8z M68.4,1924.8c0-3.2,0-6.4,0-9.6
		l0-2.4l3.7,0l0,2.4c0,3.1,0,6.3,0,9.6L68.4,1924.8z M618.8,1906.8l-3.7,0c0-1.4,0-2.9,0-4.3c0-2.6,0-5.2,0-7.7l3.7,0
		c0,2.5,0,5.1,0,7.7C618.8,1903.9,618.8,1905.3,618.8,1906.8z M72.2,1900.8l-3.7,0c0-4.1,0.1-8.1,0.2-12l3.7,0.1
		C72.3,1892.7,72.2,1896.7,72.2,1900.8z M615,1882.8c-0.1-4.2-0.1-8.2-0.2-12l3.7-0.1c0.1,3.8,0.2,7.8,0.2,12L615,1882.8z
		 M72.6,1876.8l-3.7-0.1c0.1-4.2,0.2-8.2,0.4-12l3.7,0.1C72.8,1868.7,72.7,1872.7,72.6,1876.8z M614.4,1858.8
		c-0.1-4.3-0.3-8.3-0.4-12l3.7-0.2c0.1,3.6,0.3,7.7,0.4,12L614.4,1858.8z M73.4,1852.9l-3.7-0.2c0.2-4.4,0.4-8.4,0.6-12l3.7,0.2
		C73.8,1844.5,73.6,1848.5,73.4,1852.9z M613.4,1834.9c-0.3-6.5-0.6-10.5-0.7-11.3l0-0.7l3.7-0.3l0,0.6c0.1,1.1,0.3,5,0.7,11.4
		L613.4,1834.9z M74.7,1829l-3.7-0.2c0.3-4.2,0.4-6.6,0.5-6.7l0.2-1.9l0.1-3.3l3.7,0.1l-0.1,3.4l-0.2,2
		C75.2,1822.4,75,1824.8,74.7,1829z M612.4,1810.9c-0.1-3.9-0.2-7.9-0.3-12l3.7-0.1c0.1,4.1,0.2,8.1,0.3,12L612.4,1810.9z
		 M75.7,1804.9l-3.7-0.1c0.1-3.9,0.2-7.9,0.3-12l3.7,0.1C75.9,1797,75.8,1801,75.7,1804.9z M611.9,1786.9c-0.1-3.9-0.1-7.9-0.2-12
		l3.7-0.1c0.1,4.1,0.1,8.1,0.2,12L611.9,1786.9z M76.2,1780.9l-3.7-0.1c0.1-3.9,0.1-7.9,0.2-12l3.7,0.1
		C76.3,1773,76.3,1777,76.2,1780.9z M611.5,1762.9c-0.1-3.9-0.1-7.9-0.2-12l3.7,0c0,4.1,0.1,8.1,0.2,12L611.5,1762.9z M76.5,1756.9
		l-3.7,0c0.1-3.9,0.1-7.9,0.1-12l3.7,0C76.6,1749,76.6,1753,76.5,1756.9z M611.2,1738.9c0-3.9-0.1-7.9-0.1-12l3.7,0
		c0,4.1,0.1,8,0.1,12L611.2,1738.9z M76.8,1732.9l-3.7,0c0-3.9,0.1-7.9,0.1-12l3.7,0C76.9,1725,76.8,1729,76.8,1732.9z M611,1714.9
		c0-4-0.1-8-0.1-12l3.7,0c0,4,0.1,8,0.1,12L611,1714.9z M77,1709l-3.7,0c0-4,0.1-7.9,0.1-12l3.7,0C77.1,1701,77,1705,77,1709z
		 M610.9,1690.9c0-4,0-8-0.1-12l3.7,0c0,4,0,8,0.1,12L610.9,1690.9z M77.1,1685l-3.7,0c0-4,0-8,0-12l3.7,0
		C77.2,1677,77.2,1681,77.1,1685z M610.8,1666.9l0-12l3.7,0l0,12L610.8,1666.9z M77.2,1661l-3.7,0c0-4,0-8,0-12l3.7,0
		C77.2,1653,77.2,1657,77.2,1661z M610.7,1642.9c0-4,0-8,0-12l3.7,0c0,4,0,8,0,12L610.7,1642.9z M77.3,1637l-3.7,0l0-12h3.7
		L77.3,1637z M614.4,1619h-3.7l0-12l3.7,0L614.4,1619z M73.6,1613l0-12l3.7,0l0,12L73.6,1613z M614.4,1595l-3.7,0l0-12l3.7,0
		L614.4,1595z M73.5,1589l0-12l3.7,0l0,12L73.5,1589z M614.5,1571l-3.7,0l0-12l3.7,0L614.5,1571z M73.5,1565l0-12l3.7,0l0,12
		L73.5,1565z M614.6,1547l-3.7,0l0.1-12l3.7,0L614.6,1547z M73.4,1541l-0.1-12l3.7,0l0.1,12L73.4,1541z M614.7,1523l-3.7,0l0.1-12
		l3.7,0L614.7,1523z M73.3,1517l-0.1-12l3.7,0l0.1,12L73.3,1517z M614.8,1499l-3.7,0l0.1-12l3.7,0L614.8,1499z M73.1,1493l-0.1-12
		l3.7,0l0.1,12L73.1,1493z M615,1475l-3.7,0l0.1-12l3.7,0L615,1475z M72.9,1469.1l-0.1-12l3.7,0l0.1,12L72.9,1469.1z M615.2,1451
		l-3.7,0l0.1-12l3.7,0L615.2,1451z M72.8,1445.1l-0.1-12l3.7,0l0.1,12L72.8,1445.1z M615.4,1427l-3.7,0l0.1-12l3.7,0L615.4,1427z
		 M72.6,1421.1l-0.1-12l3.7,0l0.1,12L72.6,1421.1z M615.6,1402.9l-3.7,0l0.1-12l3.7,0L615.6,1402.9z M72.3,1397.1l-0.1-12l3.7,0
		l0.1,12L72.3,1397.1z M615.8,1379l-3.7,0l0.1-12l3.7,0L615.8,1379z M72.1,1373.1l-0.1-12l3.7,0l0.1,12L72.1,1373.1z M616.1,1355
		l-3.7,0l0.1-12l3.7,0L616.1,1355z M71.8,1349.1l-0.1-12l3.7,0l0.1,12L71.8,1349.1z M616.4,1331.1l-3.7,0l0.2-12l3.7,0L616.4,1331.1
		z M71.5,1325.1l-0.2-12l3.7,0l0.2,12L71.5,1325.1z M616.7,1307.1l-3.7-0.1l0.2-12l3.7,0.1L616.7,1307.1z M71.2,1301.1l-0.2-12
		l3.7-0.1l0.2,12L71.2,1301.1z M617,1283.1l-3.7-0.1l0.2-12l3.7,0.1L617,1283.1z M70.9,1277.1l-0.2-12l3.7-0.1l0.2,12L70.9,1277.1z
		 M617.4,1259.1l-3.7-0.1l0.2-12l3.7,0.1L617.4,1259.1z M70.5,1253.1l-0.2-12l3.7-0.1l0.2,12L70.5,1253.1z M617.8,1235.1l-3.7-0.1
		l0.2-12l3.7,0.1L617.8,1235.1z M70.1,1229.1l-0.2-12l3.7-0.1l0.2,12L70.1,1229.1z M618.2,1211.1l-3.7-0.1l0.2-12l3.7,0.1
		L618.2,1211.1z M69.7,1205.1l-0.2-12l3.7-0.1l0.2,12L69.7,1205.1z M618.6,1187.1l-3.7-0.1l0.2-12l3.7,0.1L618.6,1187.1z
		 M69.3,1181.1l-0.2-12l3.7-0.1l0.2,12L69.3,1181.1z M619,1163.1l-3.7-0.1c0.1-4,0.2-8,0.2-12l3.7,0.1
		C619.2,1155.1,619.1,1159.1,619,1163.1z M68.8,1157.2l-0.2-12l3.7-0.1l0.2,12L68.8,1157.2z M619.5,1139.2l-3.7-0.1l0.3-12l3.7,0.1
		L619.5,1139.2z M68.3,1133.2l-0.3-12l3.7-0.1l0.3,12L68.3,1133.2z M620,1115.2l-3.7-0.1c0.1-4.1,0.2-8.1,0.3-12l3.7,0.1
		C620.2,1107.1,620.1,1111.1,620,1115.2z M67.8,1109.2c-0.1-4.1-0.2-8.1-0.3-12l3.7-0.1c0.1,3.9,0.2,7.9,0.3,12L67.8,1109.2z
		 M620.6,1091.2l-3.7-0.1c0.1-4.1,0.2-8.1,0.3-12l3.7,0.1C620.8,1083.1,620.7,1087.1,620.6,1091.2z M67.3,1085.2
		c-0.1-4.1-0.2-8.1-0.3-12l3.7-0.1c0.1,3.9,0.2,7.9,0.3,12L67.3,1085.2z M621.2,1067.2l-3.7-0.1c0.1-4.1,0.2-8.1,0.3-12l3.7,0.1
		C621.4,1059.1,621.3,1063.1,621.2,1067.2z M66.6,1061.2c-0.1-4.1-0.2-8.1-0.3-12l3.7-0.1c0.1,3.9,0.2,7.9,0.3,12L66.6,1061.2z
		 M621.9,1043.2l-3.7-0.1c0.1-4.1,0.2-8.1,0.4-12l3.7,0.1C622.1,1035.1,622,1039.1,621.9,1043.2z M66,1037.2
		c-0.1-4.1-0.2-8.1-0.4-12l3.7-0.1c0.1,3.9,0.2,7.9,0.4,12L66,1037.2z M622.6,1019.2l-3.7-0.1c0.1-4.1,0.3-8.1,0.4-12l3.7,0.1
		C622.9,1011.1,622.8,1015.1,622.6,1019.2z M65.2,1013.2c-0.1-4.2-0.3-8.2-0.4-12l3.7-0.1c0.1,3.8,0.3,7.8,0.4,12L65.2,1013.2z
		 M623.5,995.2l-3.7-0.1c0.2-4.2,0.3-8.2,0.5-12l3.7,0.2C623.8,987,623.7,991,623.5,995.2z M64.3,989.2c-0.2-4.3-0.4-8.3-0.5-12
		l3.7-0.2c0.2,3.7,0.4,7.7,0.5,12L64.3,989.2z M624.6,971.2l-3.7-0.2c0.2-4,0.4-8,0.6-12l3.7,0.2C625,963.2,624.8,967.2,624.6,971.2
		z M63.1,965.3c-0.2-4-0.4-8-0.6-12l3.7-0.2c0.2,4,0.4,8,0.6,12L63.1,965.3z M625.8,947.3l-3.7-0.2c0.2-4,0.4-8,0.6-12l3.7,0.2
		C626.2,939.3,626,943.3,625.8,947.3z M61.9,941.3c-0.2-4-0.4-8-0.6-12l3.7-0.2c0.2,4,0.4,8,0.6,12L61.9,941.3z M627,923.3l-3.7-0.2
		c0.2-4,0.4-8,0.6-12l3.7,0.2C627.4,915.3,627.2,919.3,627,923.3z M60.8,917.4c-0.2-4-0.4-8-0.6-12l3.7-0.2c0.2,4,0.4,8,0.6,12
		L60.8,917.4z M628.1,899.4l-3.7-0.2c0.2-4,0.4-8,0.5-12l3.7,0.2C628.4,891.3,628.3,895.3,628.1,899.4z M59.7,893.4
		c-0.2-4-0.4-8-0.5-12l3.7-0.2c0.2,4,0.3,8,0.5,12L59.7,893.4z M629.1,875.4l-3.7-0.2c0.2-4,0.3-8,0.5-12l3.7,0.1
		C629.5,867.4,629.3,871.4,629.1,875.4z M58.6,869.4c-0.2-4-0.3-8-0.5-12l3.7-0.1c0.2,4,0.3,8,0.5,12L58.6,869.4z M630.1,851.4
		l-3.7-0.1c0.2-4,0.3-8,0.4-12l3.7,0.1C630.4,843.4,630.2,847.4,630.1,851.4z M57.7,845.5c-0.2-4-0.3-8-0.4-12l3.7-0.1
		c0.1,4,0.3,8,0.4,12L57.7,845.5z M631,827.5l-3.7-0.1c0.1-4,0.3-8,0.4-12l3.7,0.1C631.2,819.4,631.1,823.4,631,827.5z M56.8,821.5
		c-0.1-4-0.3-8-0.4-12l3.7-0.1c0.1,4,0.3,8,0.4,12L56.8,821.5z M631.7,803.5l-3.7-0.1c0.1-4,0.2-8,0.3-12l3.7,0.1
		C632,795.5,631.8,799.5,631.7,803.5z M56.1,797.5c-0.1-4-0.2-8-0.3-12l3.7-0.1c0.1,4,0.2,8,0.3,12L56.1,797.5z M632.4,779.5
		l-3.7-0.1c0.1-4,0.2-8,0.3-12l3.7,0.1C632.6,771.5,632.5,775.5,632.4,779.5z M55.5,773.5c-0.1-4-0.2-8-0.3-12l3.7-0.1
		c0.1,4,0.2,8,0.3,12L55.5,773.5z M632.9,755.5l-3.7-0.1c0.1-4,0.1-8,0.2-12l3.7,0.1C633,747.5,632.9,751.5,632.9,755.5z M55,749.5
		c-0.1-4-0.1-8-0.2-12l3.7,0c0.1,4,0.1,8,0.2,12L55,749.5z M633.2,731.5l-3.7,0c0-4,0.1-8,0.1-12l3.7,0
		C633.3,723.5,633.3,727.5,633.2,731.5z M54.7,725.5c0-4-0.1-8-0.1-12l3.7,0c0,4,0,8,0.1,12L54.7,725.5z M633.4,707.5l-3.7,0
		c0-2.5,0-5,0-7.5l0-4.5l3.7,0l0,4.5C633.4,702.5,633.4,705,633.4,707.5z M54.6,701.6l0-2.6c0-3.1,0-6.3,0-9.4l3.7,0
		c0,3.1,0,6.2,0,9.3l0,2.6L54.6,701.6z M629.6,683.6c0-4-0.1-8-0.1-12l3.7,0c0,4,0.1,8,0.1,12L629.6,683.6z M58.4,677.6l-3.7,0
		c0-4,0.1-8,0.1-12l3.7,0C58.4,669.6,58.4,673.6,58.4,677.6z M629.4,659.6c-0.1-4-0.1-8-0.2-12l3.7-0.1c0.1,4,0.2,8,0.2,12
		L629.4,659.6z M58.7,653.6l-3.7-0.1c0.1-4,0.2-8,0.3-12l3.7,0.1C58.8,645.6,58.8,649.6,58.7,653.6z M628.8,635.7
		c-0.1-4-0.2-8-0.4-12l3.7-0.1c0.1,4,0.3,8,0.4,12L628.8,635.7z M59.3,629.7l-3.7-0.1c0.1-4,0.3-8,0.4-12l3.7,0.1
		C59.5,621.7,59.4,625.7,59.3,629.7z M628,611.7c-0.2-4-0.3-8-0.5-12l3.7-0.2c0.2,4,0.4,8,0.5,12L628,611.7z M60.1,605.8l-3.7-0.2
		c0.2-4,0.4-8,0.5-12l3.7,0.2C60.5,597.8,60.3,601.7,60.1,605.8z M626.9,587.8c-0.2-4-0.4-8-0.7-12l3.7-0.2c0.2,4,0.5,8,0.7,12
		L626.9,587.8z M61.3,581.8l-3.7-0.2c0.2-4,0.5-8,0.7-12l3.7,0.2C61.8,573.8,61.5,577.8,61.3,581.8z M625.4,563.9
		c-0.3-4-0.6-8-0.9-11.9l3.7-0.3c0.3,4,0.6,8,0.9,12L625.4,563.9z M62.8,557.9l-3.7-0.3c0.3-4,0.6-8,0.9-12l3.7,0.3
		C63.4,550,63.1,553.9,62.8,557.9z M623.6,540c-0.3-4-0.7-8-1.1-11.9l3.7-0.3c0.4,4,0.7,8,1.1,12L623.6,540z M64.7,534.1l-3.7-0.3
		c0.3-4,0.7-8,1.1-12l3.7,0.3C65.4,526.1,65,530.1,64.7,534.1z M621.4,516.2c-0.4-4-0.8-7.9-1.2-11.9l3.7-0.4
		c0.4,4,0.9,7.9,1.3,11.9L621.4,516.2z M66.9,510.2l-3.7-0.4c0.4-4,0.8-8,1.3-11.9l3.7,0.4C67.7,502.2,67.3,506.2,66.9,510.2z
		 M618.8,492.4c-0.5-4-0.9-7.9-1.4-11.9l3.7-0.5c0.5,4,1,7.9,1.4,11.9L618.8,492.4z M69.5,486.4l-3.7-0.4c0.5-4,0.9-7.9,1.4-11.9
		l3.7,0.5C70.5,478.4,70,482.4,69.5,486.4z M615.8,468.7c-0.5-4-1.1-7.9-1.6-11.9l3.7-0.5c0.6,4,1.1,7.9,1.6,11.9L615.8,468.7z
		 M72.5,462.6l-3.7-0.5c0.5-4,1.1-7.9,1.6-11.9l3.7,0.5C73.6,454.7,73,458.7,72.5,462.6z M612.4,444.9c-0.6-3.9-1.2-7.9-1.8-11.8
		l3.7-0.6c0.6,4,1.2,7.9,1.8,11.9L612.4,444.9z M75.8,438.9l-3.7-0.5c0.6-3.9,1.2-7.9,1.8-11.8l3.7,0.6C77,431,76.4,435,75.8,438.9z
		 M608.7,421.3c-0.7-3.9-1.3-7.9-2-11.8l3.7-0.6c0.7,4,1.4,7.9,2,11.8L608.7,421.3z M79.5,415.3l-3.7-0.6c0.6-3.9,1.3-7.9,2-11.8
		l3.7,0.6C80.8,407.4,80.1,411.3,79.5,415.3z M604.6,397.7c-0.7-3.9-1.4-7.8-2.2-11.8l3.6-0.7c0.7,3.9,1.5,7.9,2.2,11.8L604.6,397.7
		z M83.5,391.7l-3.7-0.6c0.7-3.9,1.4-7.9,2.1-11.8l3.6,0.7C84.9,383.8,84.2,387.7,83.5,391.7z M600.2,374.1
		c-0.8-3.9-1.5-7.8-2.3-11.8l3.6-0.7c0.8,3.9,1.6,7.9,2.3,11.8L600.2,374.1z M87.7,368.1l-3.6-0.7c0.7-3.9,1.5-7.8,2.2-11.8l3.6,0.7
		C89.2,360.3,88.5,364.2,87.7,368.1z M595.4,350.7c-1-4-1.9-7.9-2.9-11.6l3.6-0.9c1,3.7,1.9,7.7,2.9,11.7L595.4,350.7z M92.6,344.7
		l-3.6-0.9c1-4,1.9-7.9,2.9-11.7l3.6,0.9C94.5,336.8,93.6,340.7,92.6,344.7z M589.4,327.5c-1.1-4-2.2-7.9-3.2-11.5l3.6-1
		c1.1,3.7,2.2,7.6,3.3,11.6L589.4,327.5z M98.5,321.5l-3.6-1c1.1-4,2.2-7.9,3.2-11.6l3.6,1C100.7,313.7,99.6,317.5,98.5,321.5z
		 M582.7,304.6c-1.3-4-2.5-7.8-3.8-11.3l3.5-1.2c1.3,3.6,2.6,7.4,3.8,11.4L582.7,304.6z M105.1,298.6l-3.5-1.1
		c1.3-4,2.5-7.9,3.8-11.4l3.5,1.2C107.7,290.8,106.4,294.6,105.1,298.6z M574.7,282.2c-1.8-4.5-3.4-8-4.7-10.9l3.4-1.5
		c1.3,3,2.9,6.6,4.8,11.1L574.7,282.2z M113.1,276.1l-3.4-1.4c1.7-4.3,3.2-7.5,4.3-10.1l0.4-1l3.4,1.5l-0.4,1
		C116.2,268.7,114.8,271.9,113.1,276.1z M565.3,260.1c-1.5-3.7-3-7.4-4.6-11l3.4-1.5c1.6,3.7,3.1,7.4,4.6,11.1L565.3,260.1z
		 M122.4,254.1l-3.4-1.4c1.5-3.7,3.1-7.4,4.7-11.1l3.4,1.5C125.5,246.7,123.9,250.4,122.4,254.1z M555.9,238.2
		c-1.7-3.6-3.4-7.2-5.1-10.8l3.3-1.6c1.8,3.6,3.5,7.2,5.2,10.9L555.9,238.2z M132.1,232.2l-3.4-1.6c1.7-3.6,3.5-7.3,5.2-10.9
		l3.3,1.6C135.5,224.9,133.8,228.6,132.1,232.2z M545.3,216.8c-1.9-3.5-3.8-7-5.7-10.5l3.2-1.8c1.9,3.5,3.9,7,5.8,10.6L545.3,216.8z
		 M142.7,210.7l-3.3-1.7c1.9-3.6,3.8-7.1,5.7-10.6l3.2,1.8C146.5,203.6,144.6,207.2,142.7,210.7z M533.6,196.1
		c-2.1-3.4-4.2-6.8-6.3-10.2l3.1-2c2.1,3.3,4.3,6.8,6.3,10.2L533.6,196.1z M154.3,189.8l-3.2-1.9c2-3.5,4.1-6.9,6.2-10.3l3.1,2
		C158.4,183,156.3,186.4,154.3,189.8z M520.7,175.9c-2.2-3.3-4.6-6.6-6.9-9.8l3-2.2c2.3,3.2,4.7,6.5,6.9,9.9L520.7,175.9z
		 M167,169.6l-3.1-2.1c2.2-3.4,4.5-6.7,6.8-9.9l3,2.1C171.5,162.9,169.2,166.2,167,169.6z M506.7,156.6c-2.4-3.2-5-6.3-7.5-9.3
		l2.9-2.4c2.5,3.1,5.1,6.2,7.5,9.4L506.7,156.6z M180.8,150.1l-3-2.2c2.4-3.2,4.9-6.4,7.4-9.5l2.9,2.3
		C185.6,143.7,183.2,146.9,180.8,150.1z M491.5,138.3c-2.7-3-5.4-5.9-8.1-8.8l2.7-2.6c2.7,2.9,5.5,5.9,8.2,8.9L491.5,138.3z
		 M195.7,131.5l-2.8-2.4c2.7-3.1,5.4-6.1,8.1-9l2.7,2.5C201,125.5,198.4,128.5,195.7,131.5z M475,121.1c-2.9-2.8-5.8-5.5-8.7-8.1
		l2.5-2.8c3,2.6,5.9,5.4,8.8,8.2L475,121.1z M212,114.1l-2.6-2.6c2.9-2.9,5.9-5.6,8.8-8.3l2.5,2.8
		C217.8,108.6,214.9,111.3,212,114.1z M457.2,105.2c-3.1-2.5-6.2-5-9.4-7.3l2.2-3c3.2,2.4,6.4,4.9,9.5,7.4L457.2,105.2z M229.7,98.2
		l-2.3-2.9c3.2-2.6,6.4-5.1,9.6-7.4l2.2,3C236,93.2,232.8,95.7,229.7,98.2z M438.1,91c-3.3-2.2-6.7-4.4-10-6.4l1.9-3.2
		c3.4,2,6.8,4.2,10.2,6.5L438.1,91z M248.9,84.2l-2-3.1c3.4-2.2,6.9-4.3,10.3-6.3L259,78C255.7,79.9,252.2,82,248.9,84.2z
		 M417.8,78.7c-3.5-1.9-7.1-3.6-10.7-5.2l1.5-3.4c3.6,1.6,7.3,3.4,10.9,5.3L417.8,78.7z M269.6,72.5l-1.6-3.3
		c3.7-1.8,7.4-3.4,11.1-4.8l1.3,3.5C276.8,69.2,273.2,70.8,269.6,72.5z M396.1,68.9c-3.7-1.4-7.5-2.7-11.2-3.8l1.1-3.5
		c3.8,1.2,7.7,2.5,11.5,3.9L396.1,68.9z M291.6,63.9l-1.1-3.5c3.9-1.2,7.8-2.2,11.7-3.1l0.8,3.6C299.3,61.8,295.4,62.8,291.6,63.9z
		 M373.5,62c-3.9-0.9-7.8-1.6-11.6-2.2l0.6-3.7c3.9,0.6,7.9,1.4,11.9,2.3L373.5,62z M314.7,59l-0.5-3.7c4-0.5,8.1-0.9,12.1-1
		l0.1,3.7C322.6,58.1,318.6,58.5,314.7,59z M350.1,58.4c-2.8-0.2-5.7-0.4-8.5-0.4c-0.5,0-1,0-1.4,0l-1.6,0.3l-0.6-3.7l2-0.3
		c0.4,0,1,0,1.6,0c2.9,0.1,5.9,0.2,8.8,0.4L350.1,58.4z"/>
</g>
<g>
	<g>
		<g>
			<g>
				<path class="st3" d="M400.9,625.9c-5.6,0-10.2-4.5-10.2-10c0-5.6,4.6-10.1,10.2-10.1c5.6,0,10.2,4.5,10.2,10.1
					C411.1,621.4,406.5,625.9,400.9,625.9z M400.9,610.5c-3.1,0-5.7,2.4-5.7,5.4s2.5,5.3,5.7,5.3c3.2,0,5.7-2.4,5.7-5.3
					S404,610.5,400.9,610.5z"/>
			</g>
		</g>
	</g>
	<g>
		<g>
			<g>
				<path class="st3" d="M287.1,625.9c-5.6,0-10.2-4.5-10.2-10c0-5.6,4.6-10.1,10.2-10.1c5.6,0,10.1,4.5,10.1,10.1
					C297.3,621.4,292.7,625.9,287.1,625.9z M287.1,610.5c-3.1,0-5.7,2.4-5.7,5.4s2.5,5.3,5.7,5.3c3.1,0,5.6-2.4,5.6-5.3
					S290.2,610.5,287.1,610.5z"/>
			</g>
		</g>
	</g>
	<g>
		<g>
			<g>
				<path class="st3" d="M400.9,480.4c-5.6,0-10.2-4.5-10.2-10c0-5.6,4.6-10.1,10.2-10.1c5.6,0,10.2,4.5,10.2,10.1
					C411.1,476,406.5,480.4,400.9,480.4z M400.9,465c-3.1,0-5.7,2.4-5.7,5.4s2.5,5.3,5.7,5.3c3.2,0,5.7-2.4,5.7-5.3
					C406.6,467.5,404,465,400.9,465z"/>
			</g>
		</g>
	</g>
	<g>
		<g>
			<g>
				<path class="st3" d="M287.1,480.4c-5.6,0-10.2-4.5-10.2-10c0-5.6,4.6-10.1,10.2-10.1c5.6,0,10.1,4.5,10.1,10.1
					C297.3,476,292.7,480.4,287.1,480.4z M287.1,465c-3.1,0-5.7,2.4-5.7,5.4s2.5,5.3,5.7,5.3c3.1,0,5.6-2.4,5.6-5.3
					C292.7,467.5,290.2,465,287.1,465z"/>
			</g>
		</g>
	</g>
</g>
<g>
	<g>
		<g>
			<g>
				<path class="st3" d="M401,1796.1c-5.5,0-10-4.4-10-9.8c0-5.4,4.5-9.7,10-9.7c5.5,0,10.1,4.4,10.1,9.7
					C411.1,1791.7,406.6,1796.1,401,1796.1z M401,1780.7c-3.2,0-5.7,2.5-5.7,5.6s2.6,5.7,5.7,5.7c3.2,0,5.8-2.5,5.8-5.7
					C406.9,1783.2,404.2,1780.7,401,1780.7z"/>
			</g>
		</g>
	</g>
	<g>
		<g>
			<g>
				<path class="st3" d="M286.8,1796.1c-5.5,0-10-4.4-10-9.8c0-5.4,4.5-9.7,10-9.7s10.1,4.4,10.1,9.7
					C296.9,1791.7,292.4,1796.1,286.8,1796.1z M286.8,1780.7c-3.2,0-5.7,2.5-5.7,5.6s2.6,5.7,5.7,5.7s5.8-2.5,5.8-5.7
					C292.7,1783.2,290,1780.7,286.8,1780.7z"/>
			</g>
		</g>
	</g>
	<g>
		<g>
			<g>
				<path class="st3" d="M401,1650c-5.5,0-10-4.4-10-9.7c0-5.4,4.5-9.8,10-9.8c5.5,0,10.1,4.4,10.1,9.8
					C411.1,1645.7,406.6,1650,401,1650z M401,1634.6c-3.2,0-5.7,2.5-5.7,5.7c0,3.1,2.6,5.6,5.7,5.6c3.2,0,5.8-2.5,5.8-5.6
					S404.2,1634.6,401,1634.6z"/>
			</g>
		</g>
	</g>
	<g>
		<g>
			<g>
				<path class="st3" d="M286.8,1650c-5.5,0-10-4.4-10-9.7c0-5.4,4.5-9.8,10-9.8s10.1,4.4,10.1,9.8
					C296.9,1645.7,292.4,1650,286.8,1650z M286.8,1634.6c-3.2,0-5.7,2.5-5.7,5.7c0,3.1,2.6,5.6,5.7,5.6s5.8-2.5,5.8-5.6
					S290,1634.6,286.8,1634.6z"/>
			</g>
		</g>
	</g>
</g>
</svg>
