<?xml version="1.0" encoding="utf-8"?>
<!-- Generator: Adobe Illustrator 26.3.1, SVG Export Plug-In . SVG Version: 6.00 Build 0)  -->
<svg version="1.1" id="Layer_1" xmlns="http://www.w3.org/2000/svg" xmlns:xlink="http://www.w3.org/1999/xlink" x="0px" y="0px"
	 viewBox="0 0 713.6 2307.8" style="enable-background:new 0 0 713.6 2307.8;" xml:space="preserve">
<style type="text/css">
	.st0{fill:#7900FF;}
	.st1{fill:#38E841;}
	.st2{fill:#ED1E77;}
	.st3{fill:#005EFF;}
</style>
<g>
	<path class="st0" d="M322.2,2308.2l-0.2,0c-62.4-5-116.3-18.3-160.2-39.7c-35.2-17.2-64-39.5-85.8-66.4
		c-36.3-45-40.3-86.7-40.6-90.1c-10.9-53-7.1-215.7-7.1-217.3l5-240.7l0-0.2c1.6-9.2-4.6-259.1-8.1-390L7.4,948.3
		c-12.8-146-7.2-263.2-7-266.4c0-55.7,13.9-198.9,14.1-200.3C39,305.9,88.3,200.5,90,196.9c16.9-43.9,41.2-81.6,72.3-112
		c24.9-24.4,54.2-44.2,87.1-58.8c55.9-25,103.5-26.4,104-26.4l3,0c0.5,0,49.1,1.5,105.9,26.4c33.4,14.7,63.1,34.4,88.2,58.8
		c31.4,30.4,55.9,68.1,72.6,112c1.7,3.6,50.6,109,75,284.5c0.2,1.5,14,144.7,14,200.4c0.2,3.2,5.7,120.4-7,266.5l-18,315.5
		c-3.4,130.8-9.6,380.8-8,390l0,0.3l5,240.6c0,1.6,3.9,164.2-7,217.3c-0.3,3.3-4.2,45.1-40.3,90.1c-21.6,26.9-50.2,49.2-85.1,66.4
		c-43.5,21.4-97,34.8-159,39.7l-0.2,0L322.2,2308.2z M38,1654.3l-5,240.5c0,1.6-3.9,164,7,216.4l0,0.3c0,0.4,3.5,43.2,39.8,88
		c21.3,26.3,49.7,48.2,84.3,65c43.3,21.1,96.5,34.3,158.3,39.2l70.1,0c61.3-4.9,114.3-18.1,157.3-39.3
		c34.3-16.9,62.5-38.8,83.6-65.1c35.9-44.8,39.3-87.3,39.3-87.7l0-0.3c10.8-52.4,7-214.8,6.9-216.4l-5-240.5
		c-1.9-15.2,7.6-375.3,8-390.7l18-315.6c12.8-147.1,7-264.8,7-266l0-0.1c0-55.5-13.8-198.5-14-199.9
		c-24.6-176.9-74.1-282.2-74.6-283.2l-0.1-0.2c-16.5-43.3-40.6-80.5-71.5-110.5c-24.8-24-54-43.5-86.9-57.9
		c-56-24.6-103.7-26-104.2-26l-2.9,0c-0.4,0-47.3,1.5-102.4,26.1c-32.3,14.5-61.1,33.9-85.7,57.9c-30.6,30-54.6,67.1-71.2,110.4
		l-0.1,0.2c-0.5,1-50.4,106.3-75.2,283.3c-0.1,1.3-14,144.4-14,199.8l0,0.1C4.8,683.2-1,801,11.9,948L30,1263.6
		C30.4,1279,39.9,1639.1,38,1654.3z"/>
</g>
<g>
	<path class="st1" d="M323.3,2280.7l-0.1,0c-57.3-4.7-106.7-16.7-146.8-35.8c-31.4-15-57.2-34.3-76.6-57.4
		c-32.3-38.6-36.5-76-36.7-77.6l-0.1-1.8l-0.3-1.4c-8.6-41.4-7.6-166.6-6.5-211.3l5-239.7c0.6-8,0.6-38.1-3.2-201.7
		c-2.2-95-4.8-190-4.8-190.9l0-0.4L35.1,946.4l0-0.4c-12.7-145.2-7-261.6-7-262.8l0-0.7l0-0.6c0-53.1,13.3-191.3,13.9-197.2
		c24.3-172.7,72.6-275.1,73.1-276.1l0.4-0.9l0.4-1c15.3-39.8,37.1-73.9,64.9-101.4c22.3-22,48.5-40,78-53.4
		c48.7-22.2,90.4-24.7,95-24.9l2,0c4.7,0.2,47.2,2.6,97,24.9c30,13.4,56.6,31.4,79.1,53.4c28.1,27.5,50,61.6,65.1,101.3l0.4,1
		l0.4,0.9c0.5,1,48.5,103.6,72.5,276.1c1.4,14.8,13.8,145.2,13.8,197.3l0,1.3c0.1,1.2,5.7,117.5-6.9,262.8l0,0.4l-18,316.3l0,0.9
		c-0.4,16.5-2.7,103.3-4.7,190.4c-3.8,163.6-3.7,193.6-3.2,201.5l5,239.9c1.1,44.8,2,170-6.5,211.4l-0.4,1.8l-0.1,1.3
		c-0.2,1.7-4.3,39.2-36.4,77.7c-19.2,23.1-44.8,42.5-75.9,57.4c-39.7,19.1-88.7,31.1-145.5,35.8l-0.1,0L323.3,2280.7z M355.8,30.1
		l-1.9,0c-4.5,0.2-45.6,2.6-93.9,24.6c-29.1,13.3-55.1,31-77.1,52.8c-27.5,27.2-49.1,61-64.2,100.3l-0.4,1.1l-0.5,1
		c-0.5,1-48.6,103.1-72.8,275.2C44.4,490.9,31.1,629,31.1,682l0,1.4c-0.1,1.2-5.8,117.4,7,262.4l0,0.4l18.1,316.4l0,0.5
		c0,0.9,2.5,95.9,4.8,190.9c3.9,163.7,3.8,194,3.2,201.9l-5,239.7c-1.1,44.6-2.1,169.5,6.5,210.6l0.4,1.7l0.1,1.9
		c0.2,1.5,4.2,38.1,36,75.9c19.1,22.8,44.5,41.9,75.6,56.7c39.7,18.9,88.7,30.9,145.7,35.5l67.9,0c56.5-4.6,105.1-16.6,144.4-35.5
		c30.8-14.8,56-33.8,74.9-56.6c31.5-37.9,35.6-74.5,35.7-76l0.1-1.6l0.4-1.9c8.5-41.1,7.5-166,6.4-210.7l-5-239.8
		c-0.5-8.4-0.6-38.9,3.2-201.7c2-87.1,4.3-173.9,4.7-190.4l0-0.9l18-316.4l0-0.4c12.6-145.1,7-261.2,6.9-262.4l0-1.4
		c0-52.8-13.2-191.1-13.8-196.9c-24-172-71.8-274.2-72.3-275.2l-0.5-1.1l-0.4-1c-15-39.3-36.6-73-64.4-100.2
		c-22.3-21.8-48.6-39.5-78.2-52.8C401.5,32.3,357.6,30.2,355.8,30.1z"/>
</g>
<g>
	<path class="st2" d="M345.5,2254.4h-12v-3.7h12V2254.4z M390.3,2254.4h-8.8v-3.7h8.6c1.1-0.1,2.2-0.2,3.2-0.3l0.3,3.7
		C392.6,2254.2,391.5,2254.3,390.3,2254.4L390.3,2254.4z M369.6,2254.4h-12v-3.7h12V2254.4z M324.3,2254.4c-4-0.3-8.1-0.6-12-1
		l0.4-3.7c4,0.4,8,0.7,11.9,1L324.3,2254.4z M405.7,2252.9l-0.4-3.7c4-0.4,8-0.9,11.9-1.5l0.5,3.7
		C413.8,2252,409.8,2252.5,405.7,2252.9z M300.3,2252.1c-4-0.5-8-1-11.9-1.6l0.6-3.7c3.9,0.6,7.9,1.1,11.8,1.6L300.3,2252.1z
		 M429.7,2249.7l-0.6-3.7c4-0.6,7.9-1.3,11.8-2l0.7,3.6C437.7,2248.3,433.7,2249,429.7,2249.7z M276.4,2248.5
		c-4-0.7-7.9-1.5-11.9-2.3l0.8-3.6c3.9,0.8,7.8,1.6,11.7,2.3L276.4,2248.5z M453.4,2245.2l-0.8-3.6c3.9-0.9,7.9-1.8,11.7-2.7
		l0.9,3.6C461.3,2243.4,457.4,2244.4,453.4,2245.2z M252.8,2243.5c-3.9-1-7.9-2-11.7-3l1-3.6c3.8,1.1,7.7,2.1,11.6,3L252.8,2243.5z
		 M476.8,2239.4l-1-3.6c3.9-1.1,7.7-2.3,11.4-3.5l1.1,3.5C484.6,2237.1,480.7,2238.3,476.8,2239.4z M229.5,2237
		c-3.9-1.2-7.7-2.5-11.5-3.8l1.2-3.5c3.7,1.3,7.5,2.6,11.3,3.8L229.5,2237z M499.8,2232l-1.3-3.5c3.8-1.4,7.5-2.8,11.1-4.3l1.4,3.4
		C507.4,2229.1,503.7,2230.6,499.8,2232z M206.7,2229c-3.8-1.5-7.5-3.1-11.2-4.7l1.5-3.4c3.6,1.6,7.3,3.1,11,4.6L206.7,2229z
		 M522.2,2222.8l-1.6-3.4c1.1-0.5,2.1-1,3.2-1.5c2.6-1.2,5.1-2.5,7.6-3.7l1.7,3.3c-2.5,1.3-5.1,2.6-7.7,3.8
		C524.3,2221.8,523.3,2222.3,522.2,2222.8z M184.5,2219.2c-3.6-1.8-7.2-3.7-10.7-5.6l1.8-3.2c3.4,1.9,7,3.8,10.6,5.5L184.5,2219.2z
		 M543.7,2211.6l-1.9-3.2c3.4-2,6.8-4.2,10.1-6.4l2.1,3.1C550.6,2207.4,547.2,2209.6,543.7,2211.6z M163.4,2207.4
		c-3.5-2.2-6.9-4.4-10.1-6.7l2.1-3c3.2,2.2,6.5,4.5,9.9,6.6L163.4,2207.4z M563.8,2198.1l-2.3-2.9c3.2-2.4,6.3-5,9.2-7.5l2.4,2.8
		C570.2,2193,567,2195.6,563.8,2198.1z M143.6,2193.4c-3.2-2.6-6.3-5.2-9.2-7.9l2.5-2.7c2.9,2.6,5.9,5.2,9,7.7L143.6,2193.4z
		 M582,2182.1l-2.6-2.6c2.8-2.8,5.5-5.8,8.1-8.7l2.8,2.4C587.7,2176.2,584.9,2179.2,582,2182.1z M125.7,2177c-2.8-3-5.5-6.1-8-9.2
		l2.9-2.3c2.4,3,5.1,6.1,7.8,9L125.7,2177z M597.9,2163.7l-3-2.2c2.4-3.2,4.6-6.5,6.7-9.8l3.1,2
		C602.6,2157,600.3,2160.4,597.9,2163.7z M110.5,2158c-2.3-3.4-4.4-6.9-6.4-10.4l3.2-1.8c1.9,3.4,4,6.8,6.2,10.1L110.5,2158z
		 M610.8,2143l-3.3-1.7c1.8-3.5,3.5-7.2,4.9-10.8l3.4,1.4C614.3,2135.7,612.6,2139.4,610.8,2143z M98.7,2136.7
		c-1.6-3.7-3.1-7.5-4.4-11.4l3.5-1.2c1.2,3.7,2.7,7.4,4.3,11L98.7,2136.7z M619.8,2120.4l-3.6-1c1.1-3.8,2-7.7,2.7-11.5l3.6,0.7
		C621.9,2112.5,621,2116.5,619.8,2120.4z M91,2113.7c-0.5-2-0.9-3.9-1.3-5.9l0-0.2l-0.2-3.3c-0.2-0.8-0.4-1.6-0.5-2.4l3.6-0.7
		c0.2,0.8,0.4,1.7,0.5,2.4l0,0.3l0.2,3.4c0.4,1.9,0.8,3.8,1.2,5.6L91,2113.7z M624.4,2096.6l-3.7-0.5c0.5-3.7,1-7.7,1.4-11.9
		l3.7,0.4C625.4,2088.8,624.9,2092.8,624.4,2096.6z M87.1,2089.8c-0.5-3.6-0.9-7.7-1.3-12l3.7-0.3c0.4,4.3,0.9,8.3,1.3,11.9
		L87.1,2089.8z M626.9,2072.6l-3.7-0.3c0.3-3.8,0.6-7.9,0.9-12l3.7,0.2C627.5,2064.7,627.2,2068.7,626.9,2072.6z M84.8,2065.7
		c-0.3-3.8-0.5-7.8-0.7-12l3.7-0.2c0.2,4.2,0.5,8.2,0.7,12L84.8,2065.7z M628.5,2048.5l-3.7-0.2c0.2-3.9,0.4-7.9,0.6-12l3.7,0.2
		C628.9,2040.6,628.7,2044.6,628.5,2048.5z M83.4,2041.7c-0.2-3.9-0.3-8-0.4-12l3.7-0.1c0.1,4.1,0.3,8.1,0.4,12L83.4,2041.7z
		 M629.5,2024.5l-3.7-0.1c0.1-3.9,0.2-7.9,0.3-12l3.7,0.1C629.8,2016.5,629.7,2020.5,629.5,2024.5z M82.7,2017.6
		c-0.1-4-0.2-8-0.2-12l3.7-0.1c0.1,4,0.1,8,0.2,12L82.7,2017.6z M630.1,2000.4l-3.7-0.1c0.1-4,0.1-8,0.2-12l3.7,0
		C630.2,1992.4,630.2,1996.4,630.1,2000.4z M82.3,1993.5c0-4-0.1-8-0.1-12l3.7,0c0,4,0.1,8,0.1,12L82.3,1993.5z M630.4,1976.3
		l-3.7,0c0-4,0-8,0.1-12l3.7,0C630.4,1968.4,630.4,1972.4,630.4,1976.3z M82.2,1969.5l0-2.5c0-3.2,0-6.3,0-9.5l3.7,0
		c0,3.1,0,6.3,0,9.5l0,2.5L82.2,1969.5z M626.8,1952.3c0-4,0-8,0-12l3.7,0c0,4,0,8,0,12L626.8,1952.3z M85.9,1945.4l-3.7,0
		c0-4.1,0.1-8.1,0.1-12l3.7,0C86,1937.3,86,1941.4,85.9,1945.4z M626.6,1928.3c0-4-0.1-8-0.1-12l3.7,0c0,4,0.1,8,0.1,12
		L626.6,1928.3z M86.2,1921.4l-3.7,0c0.1-4.1,0.1-8.1,0.2-12l3.7,0.1C86.3,1913.3,86.2,1917.3,86.2,1921.4z M626.4,1904.2
		c-0.1-4-0.1-8-0.2-12l3.7-0.1c0.1,4,0.1,8,0.2,12L626.4,1904.2z M86.5,1897.4l-3.7-0.1l0.2-12l3.7,0.1L86.5,1897.4z M626,1880.1
		c-0.1-4-0.2-8-0.2-12l3.7-0.1c0.1,4,0.2,8,0.2,12L626,1880.1z M87,1873.3l-3.7-0.1l0.3-12l3.7,0.1L87,1873.3z M625.5,1856.1
		c-0.1-4-0.2-8-0.3-12l3.7-0.1c0.1,4,0.2,8,0.3,12L625.5,1856.1z M87.5,1849.3l-3.7-0.1l0.3-12l3.7,0.1L87.5,1849.3z M624.9,1832.1
		c-0.1-4-0.2-8-0.3-12l3.7-0.1c0.1,4,0.2,8,0.3,12L624.9,1832.1z M88,1825.3l-3.7-0.1l0.3-12l3.7,0.1L88,1825.3z M624.3,1808
		c-0.1-4-0.2-8-0.3-12l3.7-0.1c0.1,4,0.2,8,0.3,12L624.3,1808z M88.5,1801.2l-3.7-0.1l0.3-12l3.7,0.1L88.5,1801.2z M623.7,1784
		l-0.3-12l3.7-0.1l0.3,12L623.7,1784z M89,1777.2l-3.7-0.1l0.3-12l3.7,0.1L89,1777.2z M623,1759.9l-0.3-12l3.7-0.1l0.3,12
		L623,1759.9z M89.6,1753.1l-3.7-0.1l0.3-12l3.7,0.1L89.6,1753.1z M622.4,1735.9c-0.1-4.1-0.2-8.1-0.3-12l3.7-0.1
		c0.1,3.9,0.2,8,0.3,12L622.4,1735.9z M90.1,1729.1l-3.7-0.1l0.3-12l3.7,0.1L90.1,1729.1z M621.8,1711.8c-0.1-4.1-0.2-8.1-0.3-12
		l3.7-0.1c0.1,3.9,0.2,7.9,0.3,12L621.8,1711.8z M90.6,1705.1l-3.7-0.1l0.3-12l3.7,0.1L90.6,1705.1z M621.4,1687.8
		c-0.1-4.1-0.1-8.1-0.2-12l3.7,0c0.1,3.9,0.1,7.9,0.2,12L621.4,1687.8z M91.1,1681l-3.7-0.1l0.3-12l3.7,0.1L91.1,1681z M621,1663.7
		c0-2.4,0-4.8,0-7.2c-0.1-1.2-0.1-2.9-0.2-4.8l3.7-0.1c0,1.9,0.1,3.5,0.2,4.8c0,2.4,0,4.8,0,7.3L621,1663.7z M91.6,1657l-3.7-0.1
		l0-0.2c0.2-2.7,0.3-6.5,0.3-11.8l3.7,0c0,5.4-0.1,9.2-0.3,11.9L91.6,1657z M624.4,1639.7l-3.7,0c0-3.4,0-7.3,0.1-12l3.7,0
		C624.5,1632.3,624.5,1636.3,624.4,1639.7z M88.1,1632.9c0-3.5-0.1-7.4-0.1-12l3.7,0c0.1,4.6,0.1,8.5,0.1,12L88.1,1632.9z
		 M624.6,1615.7l-3.7,0c0-3.7,0.1-7.7,0.2-12l3.7,0.1C624.7,1608,624.7,1612,624.6,1615.7z M87.8,1608.9c-0.1-3.7-0.1-7.7-0.2-12
		l3.7-0.1c0.1,4.3,0.1,8.3,0.2,12L87.8,1608.9z M625,1591.6l-3.7-0.1c0.1-3.8,0.1-7.8,0.2-12l3.7,0.1
		C625.1,1583.9,625.1,1587.9,625,1591.6z M87.4,1584.9c-0.1-3.8-0.1-7.8-0.2-12l3.7-0.1c0.1,4.2,0.2,8.2,0.2,12L87.4,1584.9z
		 M625.4,1567.6l-3.7-0.1l0.2-12l3.7,0.1L625.4,1567.6z M87,1560.9l-0.2-12l3.7-0.1l0.2,12L87,1560.9z M625.9,1543.6l-3.7-0.1
		l0.3-12l3.7,0.1L625.9,1543.6z M86.5,1536.9l-0.3-12l3.7-0.1l0.3,12L86.5,1536.9z M626.4,1519.6l-3.7-0.1l0.3-12l3.7,0.1
		L626.4,1519.6z M86,1512.9l-0.3-12l3.7-0.1l0.3,12L86,1512.9z M627,1495.5l-3.7-0.1l0.3-12l3.7,0.1L627,1495.5z M85.4,1488.8
		l-0.3-12l3.7-0.1l0.3,12L85.4,1488.8z M627.5,1471.5l-3.7-0.1l0.3-12l3.7,0.1L627.5,1471.5z M84.9,1464.8l-0.3-12l3.7-0.1l0.3,12
		L84.9,1464.8z M628.1,1447.5l-3.7-0.1l0.3-12l3.7,0.1L628.1,1447.5z M84.3,1440.7l-0.3-12l3.7-0.1l0.3,12L84.3,1440.7z
		 M628.6,1423.5l-3.7-0.1l0.3-12l3.7,0.1L628.6,1423.5z M83.7,1416.7l-0.3-12l3.7-0.1l0.3,12L83.7,1416.7z M629.2,1399.4l-3.7-0.1
		l0.3-12l3.7,0.1L629.2,1399.4z M83.2,1392.6l-0.3-12l3.7-0.1l0.3,12L83.2,1392.6z M629.8,1375.4l-3.7-0.1l0.3-12l3.7,0.1
		L629.8,1375.4z M82.6,1368.6l-0.3-12l3.7-0.1l0.3,12L82.6,1368.6z M630.4,1351.3l-3.7-0.1l0.3-12l3.7,0.1L630.4,1351.3z M82,1344.5
		l-0.3-12l3.7-0.1l0.3,12L82,1344.5z M631,1327.3l-3.7-0.1l0.3-12l3.7,0.1L631,1327.3z M81.3,1320.5l-0.3-12l3.7-0.1l0.3,12
		L81.3,1320.5z M631.6,1303.2l-3.7-0.1l0.3-12l3.7,0.1L631.6,1303.2z M80.7,1296.4l-0.3-12l3.7-0.1l0.3,12L80.7,1296.4z
		 M632.3,1279.2l-3.7-0.1c0.1-4.7,0.2-8.8,0.3-12l3.7,0.1C632.5,1270.4,632.4,1274.4,632.3,1279.2z M80.1,1272.4l-0.3-9.9
		c0-0.2-0.1-0.7-0.1-2.1l3.7-0.2c0.1,1.1,0.1,1.8,0.1,2l0,0.1l0,0l0.3,10L80.1,1272.4z M633,1255.2l-3.7-0.2c0.2-3.7,0.4-7.7,0.7-12
		l3.7,0.2C633.5,1247.5,633.3,1251.5,633,1255.2z M79,1248.2l-0.7-12.1l3.7-0.2l0.7,12.1L79,1248.2z M634.4,1231.1l-3.7-0.2l0.7-12
		l3.7,0.2L634.4,1231.1z M77.6,1224.1l-0.7-12l3.7-0.2l0.7,12L77.6,1224.1z M635.9,1207.1l-3.7-0.2l0.7-12l3.7,0.2L635.9,1207.1z
		 M76.2,1200l-0.7-12l3.7-0.2l0.7,12L76.2,1200z M637.3,1183l-3.7-0.2l0.7-12l3.7,0.2L637.3,1183z M74.8,1175.9l-0.7-12l3.7-0.2
		l0.7,12L74.8,1175.9z M638.7,1159l-3.7-0.2l0.7-12l3.7,0.2L638.7,1159z M73.5,1151.9l-0.7-12l3.7-0.2l0.7,12L73.5,1151.9z
		 M640.2,1135l-3.7-0.2l0.7-12l3.7,0.2L640.2,1135z M72.1,1127.8l-0.7-12l3.7-0.2l0.7,12L72.1,1127.8z M641.6,1110.9l-3.7-0.2
		l0.7-12l3.7,0.2L641.6,1110.9z M70.8,1103.7l-0.7-12l3.7-0.2l0.7,12L70.8,1103.7z M643,1086.9l-3.7-0.2l0.7-12l3.7,0.2L643,1086.9z
		 M69.4,1079.7l-0.7-12l3.7-0.2l0.7,12L69.4,1079.7z M644.4,1062.9l-3.7-0.2l0.7-12l3.7,0.2L644.4,1062.9z M68,1055.6l-0.7-12
		l3.7-0.2l0.7,12L68,1055.6z M645.8,1038.8l-3.7-0.2l0.7-12l3.7,0.2L645.8,1038.8z M66.7,1031.6l-0.7-12l3.7-0.2l0.7,12L66.7,1031.6
		z M647.1,1014.8l-3.7-0.2l0.7-12l3.7,0.2L647.1,1014.8z M65.3,1007.5l-0.7-12l3.7-0.2l0.7,12L65.3,1007.5z M648.5,990.8l-3.7-0.2
		c0.2-4,0.4-8,0.7-12l3.7,0.2C648.9,982.8,648.7,986.8,648.5,990.8z M63.9,983.4l-0.7-12.1l3.7-0.2l0.7,12.1L63.9,983.4z
		 M649.8,966.7l-3.7-0.2l0.6-12l3.7,0.2L649.8,966.7z M62.5,959.3c-0.3-5.3-0.6-9.4-0.7-12.1l3.7-0.2c0.2,2.7,0.4,6.8,0.7,12.1
		L62.5,959.3z M651,942.7l-3.7-0.2c0.2-4,0.4-8,0.6-12l3.7,0.2C651.5,934.7,651.2,938.7,651,942.7z M60.8,935.2c-0.3-4-0.7-8-1-12
		l3.7-0.3c0.3,4,0.6,8,1,12L60.8,935.2z M652.3,918.7l-3.7-0.2c0.2-4,0.4-8,0.6-12l3.7,0.2C652.7,910.7,652.5,914.7,652.3,918.7z
		 M59,911.2c-0.3-4-0.6-8-0.8-12l3.7-0.2c0.3,4,0.5,8,0.8,12L59,911.2z M653.5,894.6l-3.7-0.2c0.2-4,0.4-8,0.6-12l3.7,0.2
		C653.9,886.6,653.7,890.6,653.5,894.6z M57.4,887.2c-0.2-4-0.5-8-0.7-12l3.7-0.2c0.2,4,0.4,8,0.7,12L57.4,887.2z M654.6,870.6
		l-3.7-0.2c0.2-4,0.4-8,0.6-12l3.7,0.2C655,862.5,654.8,866.6,654.6,870.6z M56.1,863.2c-0.2-4.1-0.4-8.1-0.6-12l3.7-0.2
		c0.2,4,0.4,8,0.6,12L56.1,863.2z M655.7,846.6l-3.7-0.2c0.2-4.1,0.4-8.1,0.5-12l3.7,0.2C656.1,838.5,655.9,842.5,655.7,846.6z
		 M55,839.1c-0.2-4.1-0.3-8.1-0.4-12l3.7-0.1c0.1,3.9,0.3,7.9,0.4,12L55,839.1z M656.7,822.5l-3.7-0.2c0.2-4.1,0.3-8.1,0.5-12
		l3.7,0.1C657.1,814.4,656.9,818.4,656.7,822.5z M54.2,815.1c-0.1-4.1-0.2-8.1-0.3-12l3.7-0.1c0.1,3.9,0.2,7.9,0.3,12L54.2,815.1z
		 M657.7,798.4l-3.7-0.1c0.1-4.1,0.3-8.1,0.4-12l3.7,0.1C657.9,790.3,657.8,794.3,657.7,798.4z M53.7,791c-0.1-4.1-0.1-8.1-0.2-12
		l3.7,0c0,3.9,0.1,7.9,0.2,12L53.7,791z M658.5,774.4l-3.7-0.1c0.1-4.1,0.2-8.1,0.3-12l3.7,0.1C658.7,766.2,658.6,770.2,658.5,774.4
		z M53.4,767c0-4.1,0-8.2,0-12l3.7,0c0,3.9,0,7.9,0,12L53.4,767z M659.1,750.3l-3.7-0.1c0.1-4.2,0.2-8.2,0.2-12l3.7,0.1
		C659.3,742.1,659.2,746.1,659.1,750.3z M57.1,742.9l-3.7,0c0-4.2,0.1-8.2,0.1-12l3.7,0C57.2,734.7,57.1,738.7,57.1,742.9z
		 M659.4,726.1l-3.7,0c0-2,0-3.9,0-5.8c0-2.1,0-4.2,0-6.2l3.7,0c0,2,0,4.1,0,6.2C659.5,722.2,659.5,724.1,659.4,726.1z M57.4,718.9
		l-3.7-0.1c0.1-4.4,0.2-8.4,0.3-12l3.7,0.1C57.5,710.5,57.5,714.5,57.4,718.9z M655.5,702.1c-0.2-4.9-0.4-8.8-0.7-11.9l3.7-0.4
		c0.3,3.1,0.6,7.2,0.7,12.1L655.5,702.1z M58,694.9l-3.7-0.1c0.2-6.7,0.4-10.2,0.4-10.2l0.1-1.3l0-0.4h3.7v0.5l-0.1,1.4
		C58.4,684.8,58.2,688.3,58,694.9z M653.9,678.2c0-3.6-0.2-7.6-0.3-12l3.7-0.1c0.2,4.4,0.3,8.5,0.3,12.1L653.9,678.2z M58.6,670.8
		l-3.7-0.1c0.1-3.7,0.2-7.7,0.4-12.1l3.7,0.2C58.8,663.1,58.7,667.1,58.6,670.8z M653.1,654.1c-0.2-3.9-0.4-7.9-0.6-12l3.7-0.2
		c0.2,4.1,0.4,8.2,0.6,12L653.1,654.1z M59.6,646.8l-3.7-0.2c0.2-3.9,0.4-7.9,0.7-12l3.7,0.2C60,638.9,59.8,642.9,59.6,646.8z
		 M651.8,630.1c-0.2-3.9-0.5-8-0.8-12l3.7-0.2c0.3,4.1,0.5,8.1,0.8,12L651.8,630.1z M61,622.8l-3.7-0.2c0.3-4,0.5-8,0.8-12l3.7,0.3
		C61.5,614.8,61.3,618.8,61,622.8z M650.2,606.1c-0.3-4-0.6-8-0.9-12l3.7-0.3c0.3,4,0.6,8,0.9,12L650.2,606.1z M62.7,598.8l-3.7-0.3
		c0.3-4,0.6-8,0.9-12l3.7,0.3C63.3,590.7,63,594.7,62.7,598.8z M648.4,582.1c-0.3-4-0.6-8-1-12l3.7-0.3c0.3,4,0.6,8,1,12
		L648.4,582.1z M64.5,574.7l-3.7-0.3c0.3-4,0.6-8.1,1-12l3.7,0.3C65.2,566.7,64.9,570.7,64.5,574.7z M646.5,558.1
		c-0.3-4.1-0.7-8.1-1-12l3.7-0.3c0.3,3.9,0.7,7.9,1,12L646.5,558.1z M66.5,550.7l-3.7-0.3c0.3-4.1,0.7-8.1,1-12l3.7,0.3
		C67.2,542.6,66.9,546.6,66.5,550.7z M644.4,534.1c-0.4-4.2-0.7-8.2-1.1-12l3.7-0.3c0.3,3.8,0.7,7.8,1.1,12L644.4,534.1z
		 M68.6,526.8l-3.7-0.3c0.4-4.3,0.7-8.3,1.1-12l3.7,0.3C69.3,518.5,69,522.5,68.6,526.8z M642.3,510.1c-0.4-4.6-0.8-8.6-1.1-12
		l3.7-0.3c0.3,3.4,0.7,7.4,1.1,12L642.3,510.1z M70.8,502.8l-3.7-0.3c0.5-5.3,0.9-9.4,1.1-12l3.7,0.4
		C71.6,493.4,71.3,497.5,70.8,502.8z M640,486.2c-0.6-4-1.1-8-1.7-11.9l3.7-0.6c0.6,3.9,1.2,7.9,1.7,11.9L640,486.2z M73.5,478.9
		l-3.7-0.5c0.6-4,1.2-8,1.8-11.9l3.7,0.6C74.7,471,74.1,474.9,73.5,478.9z M636.4,462.5c-0.6-4-1.3-7.9-2-11.8l3.7-0.6
		c0.7,3.9,1.3,7.9,2,11.9L636.4,462.5z M77.2,455.2l-3.7-0.6c0.7-4,1.4-8,2-11.9l3.7,0.6C78.6,447.3,77.9,451.2,77.2,455.2z
		 M632.4,438.8c-0.7-4-1.4-7.9-2.2-11.8l3.6-0.7c0.7,3.9,1.5,7.8,2.2,11.8L632.4,438.8z M81.4,431.6l-3.6-0.7
		c0.7-4,1.5-7.9,2.3-11.8l3.6,0.7C82.9,423.7,82.2,427.6,81.4,431.6z M627.9,415.2c-0.8-4-1.6-7.9-2.4-11.8l3.6-0.8
		c0.8,3.9,1.6,7.8,2.4,11.8L627.9,415.2z M86,408l-3.6-0.8c0.8-4,1.7-7.9,2.5-11.8l3.6,0.8C87.7,400.1,86.9,404,86,408z M623,391.7
		c-0.9-4-1.7-7.9-2.6-11.7l3.6-0.8c0.9,3.9,1.8,7.8,2.6,11.7L623,391.7z M91.1,384.5l-3.6-0.8c0.9-4,1.8-7.9,2.7-11.7l3.6,0.9
		C92.9,376.7,92,380.6,91.1,384.5z M617.7,368.3c-0.9-4-1.9-7.8-2.9-11.7l3.6-0.9c1,3.8,1.9,7.7,2.9,11.7L617.7,368.3z M96.7,361.2
		l-3.6-0.9c1-4,2-7.9,3-11.7l3.6,0.9C98.6,353.4,97.7,357.2,96.7,361.2z M611.8,345c-1-4-2.1-7.8-3.1-11.6l3.6-1
		c1,3.8,2.1,7.7,3.1,11.6L611.8,345z M102.7,337.9l-3.6-1c1.1-4,2.1-7.8,3.2-11.6l3.6,1C104.8,330.1,103.8,334,102.7,337.9z
		 M605.5,321.8c-1.1-3.9-2.2-7.7-3.4-11.5l3.6-1.1c1.1,3.8,2.3,7.7,3.4,11.6L605.5,321.8z M109.2,314.8l-3.6-1
		c1.1-3.9,2.3-7.7,3.5-11.5l3.5,1.1C111.5,307.1,110.4,311,109.2,314.8z M598.7,298.8c-1.2-3.9-2.4-7.7-3.6-11.4l3.5-1.1
		c1.2,3.7,2.4,7.6,3.6,11.5L598.7,298.8z M116.3,291.9l-3.5-1.1c1.2-3.8,2.5-7.7,3.7-11.5l3.5,1.2
		C118.8,284.2,117.5,288.1,116.3,291.9z M591.3,276c-1.3-3.8-2.6-7.6-3.9-11.3l3.5-1.2c1.3,3.7,2.6,7.5,3.9,11.4L591.3,276z
		 M123.9,269.1l-3.5-1.2c1.3-3.8,2.7-7.7,4.1-11.4l3.5,1.3C126.6,261.5,125.2,265.3,123.9,269.1z M583.3,253.4
		c-1.4-3.8-2.8-7.6-4.3-11.2l3.5-1.3c1.4,3.6,2.8,7.4,4.3,11.3L583.3,253.4z M132.1,246.6l-3.5-1.3c1.5-3.9,3-7.7,4.4-11.2l3.4,1.4
		C135.1,239,133.6,242.7,132.1,246.6z M574.6,231c-2.5-6.1-4-9.4-4.2-9.7l-0.6-1.2l3.3-1.6l0.6,1.2c0.2,0.4,1.7,3.7,4.3,9.9
		L574.6,231z M141.2,224.4l-3.4-1.5c0.9-2,1.4-3,1.4-3.1l0.8-1.8c0.8-2.1,1.6-4.1,2.4-6.2l3.4,1.4c-0.8,2-1.6,4.1-2.4,6.2l-0.1,0.1
		l-0.9,1.8C142.5,221.5,142,222.5,141.2,224.4z M565.4,208.8c-1.5-3.7-3.1-7.4-4.7-10.9l3.4-1.6c1.7,3.7,3.3,7.4,4.8,11.1
		L565.4,208.8z M150.5,202.3l-3.4-1.5c1.7-3.7,3.4-7.4,5.2-10.9l3.3,1.7C153.9,195,152.2,198.6,150.5,202.3z M555.4,187.1
		c-1.8-3.5-3.8-7-5.8-10.4l3.2-1.9c2,3.4,4,7,5.9,10.6L555.4,187.1z M161.2,180.9l-3.2-1.8c2-3.5,4-7,6.1-10.4l3.2,2
		C165.2,174,163.2,177.5,161.2,180.9z M543.3,166.6c-2.2-3.3-4.5-6.6-6.8-9.8l3-2.2c2.4,3.2,4.7,6.6,6.9,9.9L543.3,166.6z
		 M173.8,160.7l-3.1-2.1c2.3-3.3,4.7-6.6,7.1-9.8l2.9,2.2C178.4,154.1,176.1,157.4,173.8,160.7z M529.2,147.4
		c-2.5-3.1-5.1-6.1-7.8-9l2.8-2.5c2.7,3,5.3,6.1,7.9,9.2L529.2,147.4z M188.3,141.7l-2.8-2.4c2.6-3.1,5.3-6.1,8.1-9l2.7,2.5
		C193.5,135.7,190.9,138.7,188.3,141.7z M513.2,129.7c-2.8-2.8-5.7-5.6-8.6-8.2l2.5-2.7c3,2.7,5.9,5.5,8.8,8.3L513.2,129.7z
		 M204.6,124.3l-2.6-2.7c2.9-2.8,5.9-5.5,8.9-8.2l2.4,2.8C210.4,118.9,207.5,121.6,204.6,124.3z M495.6,113.7
		c-3.1-2.5-6.2-5-9.4-7.3l2.2-3c3.2,2.4,6.4,4.9,9.5,7.4L495.6,113.7z M222.6,108.7l-2.3-2.9c3.2-2.5,6.4-4.9,9.7-7.2l2.1,3
		C229,103.9,225.7,106.3,222.6,108.7z M476.4,99.5c-3.3-2.2-6.7-4.4-10-6.4l1.9-3.2c3.4,2.1,6.9,4.3,10.2,6.5L476.4,99.5z M242.1,95
		l-2-3.1c3.4-2.1,6.9-4.2,10.4-6.2l1.8,3.2C248.9,90.9,245.5,92.9,242.1,95z M456.1,87.2c-3.5-1.9-7-3.7-10.6-5.4l1.6-3.3
		c3.6,1.7,7.2,3.6,10.8,5.5L456.1,87.2z M262.9,83.3l-1.7-3.3c2.8-1.4,5.8-2.8,8.7-4.1c0.8-0.3,1.5-0.7,2.3-1l1.5,3.4
		c-0.7,0.3-1.5,0.7-2.3,1C268.6,80.6,265.7,81.9,262.9,83.3z M434.6,76.8c-3.6-1.6-7.3-3-11.1-4.4l1.3-3.5c3.8,1.4,7.5,2.9,11.2,4.5
		L434.6,76.8z M284.7,73.7l-1.3-3.5c3.7-1.5,7.6-2.8,11.4-4.1l1.2,3.5C292.2,70.9,288.4,72.3,284.7,73.7z M412.3,68.4
		c-3.8-1.2-7.6-2.3-11.4-3.4l1-3.6c3.9,1,7.8,2.2,11.6,3.4L412.3,68.4z M307.4,66l-1-3.6c3.9-1.1,7.8-2.2,11.7-3.1l0.9,3.6
		C315.1,63.9,311.2,64.9,307.4,66z M389.3,62.2c-3.9-0.9-7.8-1.6-11.7-2.3l0.6-3.7c3.9,0.7,7.9,1.5,11.9,2.3L389.3,62.2z
		 M330.6,60.4l-0.7-3.6c4.1-0.8,8.1-1.5,12-2l0.5,3.7C338.5,59,334.5,59.6,330.6,60.4z M365.8,58.2c-3.5-0.4-7.1-0.8-10.6-1.1
		c-0.3,0-0.6,0-1,0.1l-0.2-3.7c0.5,0,0.9,0,1.2-0.1l0.1,0l0.1,0c3.6,0.3,7.3,0.6,10.9,1.1L365.8,58.2z"/>
</g>
<g>
	<g>
		<g>
			<g>
				<path class="st3" d="M413.1,626.8c-5.6,0-10.2-4.5-10.2-10c0-5.6,4.6-10.1,10.2-10.1s10.2,4.5,10.2,10.1
					S418.7,626.8,413.1,626.8z M413.1,611.4c-3.1,0-5.7,2.4-5.7,5.4s2.5,5.3,5.7,5.3c3.2,0,5.7-2.4,5.7-5.3S416.2,611.4,413.1,611.4
					z"/>
			</g>
		</g>
	</g>
	<g>
		<g>
			<g>
				<path class="st3" d="M299.3,626.8c-5.6,0-10.2-4.5-10.2-10c0-5.6,4.6-10.1,10.2-10.1s10.1,4.5,10.1,10.1
					C309.5,622.4,304.9,626.8,299.3,626.8z M299.3,611.4c-3.1,0-5.7,2.4-5.7,5.4s2.5,5.3,5.7,5.3c3.1,0,5.6-2.4,5.6-5.3
					S302.4,611.4,299.3,611.4z"/>
			</g>
		</g>
	</g>
	<g>
		<g>
			<g>
				<path class="st3" d="M413.1,481.4c-5.6,0-10.2-4.5-10.2-10c0-5.6,4.6-10.1,10.2-10.1s10.2,4.5,10.2,10.1
					C423.3,477,418.7,481.4,413.1,481.4z M413.1,466c-3.1,0-5.7,2.4-5.7,5.4s2.5,5.3,5.7,5.3c3.2,0,5.7-2.4,5.7-5.3
					S416.2,466,413.1,466z"/>
			</g>
		</g>
	</g>
	<g>
		<g>
			<g>
				<path class="st3" d="M299.3,481.4c-5.6,0-10.2-4.5-10.2-10c0-5.6,4.6-10.1,10.2-10.1s10.1,4.5,10.1,10.1
					C309.5,477,304.9,481.4,299.3,481.4z M299.3,466c-3.1,0-5.7,2.4-5.7,5.4s2.5,5.3,5.7,5.3c3.1,0,5.6-2.4,5.6-5.3
					S302.4,466,299.3,466z"/>
			</g>
		</g>
	</g>
</g>
<g>
	<g>
		<g>
			<g>
				<path class="st3" d="M413.2,1812.1c-5.5,0-10-4.4-10-9.8s4.5-9.7,10-9.7c5.5,0,10.1,4.4,10.1,9.7
					C423.3,1807.7,418.7,1812.1,413.2,1812.1z M413.2,1796.7c-3.2,0-5.7,2.5-5.7,5.6s2.6,5.7,5.7,5.7c3.2,0,5.8-2.5,5.8-5.7
					C419,1799.2,416.4,1796.7,413.2,1796.7z"/>
			</g>
		</g>
	</g>
	<g>
		<g>
			<g>
				<path class="st3" d="M299,1812.1c-5.5,0-10-4.4-10-9.8s4.5-9.7,10-9.7c5.5,0,10.1,4.4,10.1,9.7
					C309.1,1807.7,304.6,1812.1,299,1812.1z M299,1796.7c-3.2,0-5.7,2.5-5.7,5.6s2.6,5.7,5.7,5.7c3.1,0,5.8-2.5,5.8-5.7
					C304.8,1799.2,302.2,1796.7,299,1796.7z"/>
			</g>
		</g>
	</g>
	<g>
		<g>
			<g>
				<path class="st3" d="M413.2,1666c-5.5,0-10-4.4-10-9.7c0-5.4,4.5-9.8,10-9.8c5.5,0,10.1,4.4,10.1,9.8
					C423.3,1661.6,418.7,1666,413.2,1666z M413.2,1650.5c-3.2,0-5.7,2.5-5.7,5.7c0,3.1,2.6,5.6,5.7,5.6c3.2,0,5.8-2.5,5.8-5.6
					S416.4,1650.5,413.2,1650.5z"/>
			</g>
		</g>
	</g>
	<g>
		<g>
			<g>
				<path class="st3" d="M299,1666c-5.5,0-10-4.4-10-9.7c0-5.4,4.5-9.8,10-9.8c5.5,0,10.1,4.4,10.1,9.8
					C309.1,1661.6,304.6,1666,299,1666z M299,1650.5c-3.2,0-5.7,2.5-5.7,5.7c0,3.1,2.6,5.6,5.7,5.6c3.1,0,5.8-2.5,5.8-5.6
					S302.2,1650.5,299,1650.5z"/>
			</g>
		</g>
	</g>
</g>
</svg>
