<?xml version="1.0" encoding="utf-8"?>
<!-- Generator: Adobe Illustrator 26.3.1, SVG Export Plug-In . SVG Version: 6.00 Build 0)  -->
<svg version="1.1" id="Layer_1" xmlns="http://www.w3.org/2000/svg" xmlns:xlink="http://www.w3.org/1999/xlink" x="0px" y="0px"
	 viewBox="0 0 678.4 2310.5" style="enable-background:new 0 0 678.4 2310.5;" xml:space="preserve">
<style type="text/css">
	.st0{fill:#38E841;}
	.st1{fill:#ED1E77;}
	.st2{fill:#7900FF;}
	.st3{fill:#005EFF;}
</style>
<g>
	<path class="st0" d="M352.2,2280.3l-26,0c-69.7-5.4-129.4-25.4-172.6-57.9c-31.2-23.5-43.6-45.6-44.9-48.1l-1.1-2.3l-1.3-1.6
		c-45.1-60.4-59.2-238.5-60.8-302l-10-308.7l-8-314.2l2-613.2l0-0.2c-1.1-67.3,4.5-174.2,37.3-301.3c19.7-76.3,40.2-124.5,40.4-125
		l0.4-0.9c27.6-71.3,69.7-122.3,125.2-151.5c44.4-23.3,85-25.9,100.4-25.9c3.9,0,6.3,0.2,6.7,0.2l0.8,0.1l0.6,0l26.9,0.9
		c3.4,0.8,7,1.1,11.1,1.4C410,32.9,503.5,41.3,571,205.4l0.2,0.4c0.2,0.5,20.7,48.4,40.4,125c18.1,70.2,39.3,179.4,37.3,301.3l0,0.5
		l2,612.9l-8,314.2l-10,308.7c-1.6,63.5-15.7,241.6-60.7,301.9l-1.6,2.1l-0.8,1.8c-1.4,2.5-13.7,24.7-44.9,48.1
		C481.6,2254.9,421.9,2274.9,352.2,2280.3L352.2,2280.3z M326.3,2277.3h25.7c69.1-5.3,128.2-25.1,171-57.3
		c31.2-23.5,43.5-46.1,44-47.1l1-2.2l1.7-2.2c44.6-59.7,58.5-236.9,60.2-300.2l10-308.7l8-314.2l-2-612.8l0-0.6
		c2-121.6-19.1-230.5-37.2-300.5C589,255.2,568.6,207.5,568.4,207l-0.2-0.4C501.5,44.1,409.3,35.9,379,33.2c-4-0.4-7.8-0.7-11.4-1.5
		l-27.2-0.9l-0.8-0.1c-0.2,0-2.5-0.2-6.4-0.2c-15.2,0-55.2,2.5-99,25.5c-54.8,28.8-96.5,79.3-123.8,149.9l-0.4,1
		c-0.2,0.5-20.7,48.5-40.3,124.5C37,458.3,31.4,564.9,32.5,632l0,0.3l-2,613.2l8,314.1l10,308.7c1.6,63.2,15.5,240.5,60.2,300.2
		l1.6,2l1.1,2.4c0.5,0.9,12.8,23.5,44,47C198.1,2252.2,257.2,2272,326.3,2277.3z"/>
</g>
<g>
	<path class="st1" d="M336.5,2253.6l0-3.7c3.9,0,8-0.1,11.9-0.3l0.2,3.7C344.5,2253.5,340.5,2253.6,336.5,2253.6z M327.2,2253.5
		c-4-0.2-8-0.5-12.1-0.9l0.3-3.7c4,0.4,8,0.6,11.9,0.8L327.2,2253.5z M360.6,2252.5l-0.3-3.7c3.9-0.3,7.9-0.7,11.9-1.2l0.4,3.7
		C368.7,2251.8,364.6,2252.2,360.6,2252.5z M303.1,2251.4c-4-0.5-8-1.1-12-1.8l0.6-3.7c3.9,0.7,7.9,1.2,11.8,1.7L303.1,2251.4z
		 M384.6,2249.6l-0.6-3.7c3.9-0.6,7.9-1.3,11.8-2l0.7,3.6C392.6,2248.3,388.6,2249,384.6,2249.6z M279.3,2247.4
		c-3.9-0.8-7.9-1.7-11.8-2.6l0.9-3.6c3.9,0.9,7.8,1.8,11.7,2.6L279.3,2247.4z M408.4,2245.1l-0.8-3.6c3.9-0.9,7.8-1.9,11.6-2.9
		l1,3.6C416.2,2243.2,412.3,2244.2,408.4,2245.1z M255.8,2241.7c-3.9-1.1-7.8-2.3-11.6-3.5l1.1-3.5c3.8,1.2,7.6,2.4,11.4,3.5
		L255.8,2241.7z M431.7,2238.8l-1.1-3.5c3.8-1.2,7.7-2.4,11.4-3.7l1.2,3.5C439.5,2236.4,435.6,2237.6,431.7,2238.8z M232.8,2234.2
		c-3.8-1.4-7.6-2.9-11.3-4.4l1.4-3.4c3.6,1.5,7.4,3,11.1,4.3L232.8,2234.2z M454.6,2230.9l-1.4-3.4c3.7-1.5,7.4-3,11-4.6l1.5,3.4
		C462.1,2227.8,458.3,2229.4,454.6,2230.9z M210.4,2224.9c-3.7-1.7-7.3-3.5-10.9-5.4l1.7-3.3c3.5,1.8,7.1,3.6,10.7,5.3L210.4,2224.9
		z M476.7,2221l-1.7-3.3c3.6-1.8,7.1-3.7,10.5-5.6l1.8,3.2C483.9,2217.2,480.3,2219.2,476.7,2221z M189,2213.7
		c-3.5-2.1-7-4.2-10.3-6.4l2-3.1c3.3,2.2,6.7,4.3,10.1,6.3L189,2213.7z M497.7,2208.9l-2-3.1c3.4-2.2,6.7-4.5,9.7-6.9l2.2,3
		C504.5,2204.3,501.1,2206.7,497.7,2208.9z M168.8,2200.3c-3.3-2.5-6.5-5-9.5-7.6l2.4-2.8c2.9,2.5,6,5,9.3,7.5L168.8,2200.3z
		 M517.1,2194.4l-2.4-2.8c3.1-2.6,6-5.3,8.8-8l2.6,2.7C523.2,2189,520.2,2191.8,517.1,2194.4z M150.4,2184.4c-2.9-2.9-5.7-5.9-8.2-9
		l2.8-2.4c2.5,3,5.2,5.9,8,8.7L150.4,2184.4z M534.5,2177.4l-2.8-2.4c2.7-3.1,5.2-6.2,7.4-9.2l3,2.2
		C539.9,2171,537.3,2174.2,534.5,2177.4z M134.8,2165.8c-0.8-1.2-1.6-2.4-2.4-3.6l-0.1-0.2l-2-4.4c-0.5-0.7-1-1.4-1.6-2.1l3-2.2
		c0.5,0.7,1.1,1.5,1.6,2.2l0.2,0.3l2.1,4.5c0.7,1.1,1.5,2.3,2.2,3.4L134.8,2165.8z M548.3,2157.7l-3-2.2l2.7-3.6
		c1.5-1.7,3-3.7,4.4-6l3.1,2c-1.6,2.4-3.1,4.6-4.7,6.4L548.3,2157.7z M122,2145.3c-2-3.4-3.9-6.9-5.7-10.8l3.4-1.6
		c1.8,3.7,3.6,7.2,5.5,10.5L122,2145.3z M561.4,2137.1l-3.4-1.6c1.5-3.3,3.1-7,4.6-11l3.5,1.3C564.5,2130,563,2133.8,561.4,2137.1z
		 M111.5,2123.4c-1.4-3.6-2.8-7.4-4.1-11.4l3.5-1.2c1.3,3.9,2.7,7.7,4.1,11.2L111.5,2123.4z M570.2,2114.5l-3.5-1.2
		c1.2-3.6,2.4-7.4,3.5-11.4l3.6,1C572.6,2107,571.4,2110.9,570.2,2114.5z M103.8,2100.5c-1.1-3.7-2.2-7.6-3.2-11.6l3.6-0.9
		c1,4,2.1,7.9,3.2,11.5L103.8,2100.5z M576.9,2091.3l-3.6-0.9c1-3.7,1.9-7.6,2.9-11.6l3.6,0.9
		C578.9,2083.6,577.9,2087.5,576.9,2091.3z M97.7,2077.2c-0.9-3.8-1.8-7.7-2.7-11.8l3.6-0.8c0.9,4,1.8,8,2.6,11.7L97.7,2077.2z
		 M582.5,2067.8l-3.6-0.8c0.8-3.8,1.7-7.7,2.5-11.8l3.6,0.7C584.2,2060,583.4,2064,582.5,2067.8z M92.6,2053.7
		c-0.8-3.8-1.5-7.8-2.3-11.8l3.6-0.7c0.8,4,1.5,8,2.3,11.8L92.6,2053.7z M587.3,2044.1l-3.6-0.7c0.7-3.8,1.4-7.8,2.1-11.8l3.7,0.6
		C588.8,2036.3,588,2040.3,587.3,2044.1z M88.2,2030c-0.7-3.8-1.3-7.8-2-11.9l3.7-0.6c0.7,4.1,1.3,8,2,11.8L88.2,2030z
		 M591.5,2020.4l-3.7-0.6c0.6-3.9,1.3-7.9,1.9-11.9l3.7,0.6C592.7,2012.5,592.1,2016.4,591.5,2020.4z M84.3,2006.2
		c-0.6-4-1.1-8-1.7-11.9l3.7-0.5c0.5,4,1.1,7.9,1.7,11.9L84.3,2006.2z M595.1,1996.5l-3.7-0.5c0.6-4,1.1-7.9,1.6-11.9l3.7,0.5
		C596.2,1988.6,595.7,1992.6,595.1,1996.5z M81.1,1982.3c-0.5-4-1-8-1.4-12l3.7-0.4c0.4,4,0.9,7.9,1.4,11.9L81.1,1982.3z
		 M598.3,1972.7l-3.7-0.5c0.5-4,1-8,1.4-11.9l3.7,0.4C599.3,1964.7,598.8,1968.7,598.3,1972.7z M78.4,1958.4c-0.4-4-0.8-8-1.2-12
		l3.7-0.4c0.4,3.9,0.8,7.9,1.2,11.9L78.4,1958.4z M601,1948.7l-3.7-0.4c0.4-4,0.8-8,1.2-12l3.7,0.4
		C601.9,1940.7,601.5,1944.7,601,1948.7z M76.1,1934.4c-0.4-4.1-0.7-8.1-1-12l3.7-0.3c0.3,3.9,0.6,7.9,1,12L76.1,1934.4z
		 M603.3,1924.7l-3.7-0.3c0.4-4.1,0.7-8.1,1-12l3.7,0.3C604,1916.6,603.7,1920.6,603.3,1924.7z M74.2,1910.4
		c-0.3-4.1-0.5-8.1-0.8-12l3.7-0.2c0.2,3.9,0.5,7.9,0.8,12L74.2,1910.4z M605.1,1900.7l-3.7-0.2c0.3-4.2,0.5-8.2,0.6-12l3.7,0.2
		C605.6,1892.4,605.4,1896.5,605.1,1900.7z M72.8,1886.4c-0.2-4.2-0.4-8.2-0.5-12l3.7-0.1c0.1,3.8,0.3,7.9,0.5,12L72.8,1886.4z
		 M606.2,1876.5l-3.7-0.1c0.1-3,0.1-5.8,0.1-8.4l0-0.4l0.1-3.3l3.7,0.1l-0.1,3.2l0,0.4C606.3,1870.7,606.3,1873.5,606.2,1876.5z
		 M71.9,1862.4c-0.2-4-0.4-8-0.5-12l3.7-0.2c0.2,4,0.4,8,0.5,12L71.9,1862.4z M606.8,1852.5l-3.7-0.1l0.4-12l3.7,0.1L606.8,1852.5z
		 M70.8,1838.3c-0.2-4-0.3-8-0.5-12l3.7-0.2c0.2,4,0.3,8,0.5,12L70.8,1838.3z M607.7,1828.4l-3.7-0.1l0.4-12l3.7,0.1L607.7,1828.4z
		 M69.8,1814.3c-0.2-4-0.3-8-0.5-12l3.7-0.1c0.2,4,0.3,8,0.5,12L69.8,1814.3z M608.5,1804.4l-3.7-0.1l0.4-12l3.7,0.1L608.5,1804.4z
		 M68.9,1790.3c-0.2-4-0.3-8-0.5-12l3.7-0.1c0.1,4,0.3,8,0.5,12L68.9,1790.3z M609.3,1780.3l-3.7-0.1l0.4-12l3.7,0.1L609.3,1780.3z
		 M68,1766.2c-0.1-4-0.3-8-0.4-12l3.7-0.1c0.1,4,0.3,8,0.4,12L68,1766.2z M610,1756.3l-3.7-0.1l0.4-12l3.7,0.1L610,1756.3z
		 M67.1,1742.2l-0.4-12l3.7-0.1l0.4,12L67.1,1742.2z M610.8,1732.2l-3.7-0.1l0.4-12l3.7,0.1L610.8,1732.2z M66.3,1718.2
		c-0.1-4-0.3-8-0.4-12l3.7-0.1c0.1,4,0.3,8,0.4,12L66.3,1718.2z M611.5,1708.2l-3.7-0.1l0.4-12l3.7,0.1L611.5,1708.2z M65.6,1694.1
		l-0.4-12l3.7-0.1l0.4,12L65.6,1694.1z M612.3,1684.2l-3.7-0.1l0.4-12l3.7,0.1L612.3,1684.2z M64.8,1670.1c-0.1-4-0.2-8-0.4-12
		l3.7-0.1c0.1,4,0.2,8,0.4,12L64.8,1670.1z M613,1660.1l-3.7-0.1l0.4-12l3.7,0.1L613,1660.1z M64.1,1646.1l-0.3-12l3.7-0.1l0.3,12
		L64.1,1646.1z M613.7,1636.1l-3.7-0.1l0.4-12l3.7,0.1L613.7,1636.1z M63.5,1622l-0.3-12l3.7-0.1l0.3,12L63.5,1622z M614.4,1612
		l-3.7-0.1l0.3-12l3.7,0.1L614.4,1612z M62.8,1598l-0.3-12l3.7-0.1l0.3,12L62.8,1598z M615.1,1588l-3.7-0.1l0.3-12.1l3.7,0.1
		L615.1,1588z M62.2,1574l-0.3-12l3.7-0.1l0.3,12L62.2,1574z M615.8,1563.9l-3.7-0.1l0.3-12l3.7,0.1L615.8,1563.9z M61.7,1549.9
		l-0.3-12l3.7-0.1l0.3,12L61.7,1549.9z M616.5,1539.8l-3.7-0.1l0.3-12l3.7,0.1L616.5,1539.8z M61.1,1525.9l-0.3-12l3.7-0.1l0.3,12
		L61.1,1525.9z M617.2,1515.8l-3.7-0.1l0.3-12l3.7,0.1L617.2,1515.8z M60.6,1501.8l-0.3-12l3.7-0.1l0.3,12L60.6,1501.8z
		 M617.8,1491.8l-3.7-0.1l0.3-12l3.7,0.1L617.8,1491.8z M60.1,1477.8l-0.2-12l3.7-0.1l0.2,12L60.1,1477.8z M618.5,1467.7l-3.7-0.1
		l0.3-12l3.7,0.1L618.5,1467.7z M59.6,1453.8l-0.2-12l3.7-0.1l0.2,12L59.6,1453.8z M619.2,1443.7l-3.7-0.1l0.3-12l3.7,0.1
		L619.2,1443.7z M59.2,1429.7l-0.2-12l3.7-0.1l0.2,12L59.2,1429.7z M619.8,1419.6l-3.7-0.1l0.3-12l3.7,0.1L619.8,1419.6z
		 M58.7,1405.8l-0.2-12l3.7-0.1l0.2,12L58.7,1405.8z M620.4,1395.6l-3.7-0.1l0.3-12l3.7,0.1L620.4,1395.6z M58.3,1381.8l-0.2-12
		l3.7-0.1l0.2,12L58.3,1381.8z M621.1,1371.5l-3.7-0.1l0.3-12l3.7,0.1L621.1,1371.5z M58,1357.8l-0.2-12l3.7-0.1l0.2,12L58,1357.8z
		 M621.7,1347.5l-3.7-0.1l0.3-12l3.7,0.1L621.7,1347.5z M57.6,1333.8l-0.2-12l3.7-0.1l0.2,12L57.6,1333.8z M622.3,1323.4l-3.7-0.1
		l0.3-12l3.7,0.1L622.3,1323.4z M57.3,1309.8l-0.2-12l3.7,0l0.2,12L57.3,1309.8z M622.9,1299.4l-3.7-0.1l0.3-12l3.7,0.1
		L622.9,1299.4z M57,1285.8l-0.2-12l3.7,0l0.2,12L57,1285.8z M623.5,1275.3l-3.7-0.1l0.3-12l3.7,0.1L623.5,1275.3z M56.7,1261.7
		l-0.1-12l3.7,0l0.1,12L56.7,1261.7z M624.1,1251.3l-3.7-0.1l0.1-6.1l0,0c-0.1-1-0.1-2.8-0.1-6l3.7,0c0,2.6,0,4.1,0.1,4.9l0.1,0
		L624.1,1251.3z M56.4,1237.7l-0.1-12l3.7,0l0.1,12L56.4,1237.7z M620.3,1227c0-3.6,0-7.6-0.1-12.1l3.7,0c0,4.5,0,8.5,0.1,12.1
		L620.3,1227z M56.1,1213.6l-0.1-12l3.7,0l0.1,12L56.1,1213.6z M620.2,1202.8l0-12.1l3.7,0l0,12.1L620.2,1202.8z M55.9,1189.5
		l-0.1-12l3.7,0l0.1,12L55.9,1189.5z M620.2,1178.7l0-12.1l3.7,0l0,12.1L620.2,1178.7z M55.7,1165.4l-0.1-12.1l3.7,0l0.1,12.1
		L55.7,1165.4z M620.1,1154.6l0-12l3.7,0l0,12L620.1,1154.6z M55.5,1141.3l-0.1-12.1l3.7,0l0.1,12.1L55.5,1141.3z M620,1130.5l0-12
		l3.7,0l0,12L620,1130.5z M55.3,1117.2l-0.1-12.1l3.7,0l0.1,12.1L55.3,1117.2z M620,1106.4l0-12l3.7,0l0,12L620,1106.4z
		 M55.1,1093.1l-0.1-12l3.7,0l0.1,12L55.1,1093.1z M619.9,1082.3l0-12l3.7,0l0,12L619.9,1082.3z M55,1069.1l-0.1-12l3.7,0l0.1,12
		L55,1069.1z M619.9,1058.2l0-12l3.7,0l0,12L619.9,1058.2z M54.9,1045l-0.1-12l3.7,0l0.1,12L54.9,1045z M619.8,1034.2l0-12l3.7,0
		l0,12L619.8,1034.2z M54.7,1021l0-12l3.7,0l0,12L54.7,1021z M619.8,1010.1l0-12l3.7,0l0,12L619.8,1010.1z M54.7,996.9l0-12l3.7,0
		l0,12L54.7,996.9z M619.7,986l0-12l3.7,0l0,12L619.7,986z M54.6,972.9l0-12l3.7,0l0,12L54.6,972.9z M619.7,961.9l0-12l1.9-0.1
		l1.9,0l-1.9,0l1.9,0.1l0,12L619.7,961.9z M54.6,948.8l0-12l3.7,0l0,12L54.6,948.8z M619.6,937.9l0-12.1l3.7,0l0,12.1L619.6,937.9z
		 M54.5,924.8l0-12l3.7,0l0,12L54.5,924.8z M619.5,913.7l0-12l3.7,0l0,12L619.5,913.7z M58.2,900.7l-3.7,0l0-12l3.7,0L58.2,900.7z
		 M619.5,889.7l0-12l3.7,0l0,12L619.5,889.7z M58.3,876.6l-3.7,0l0-12l3.7,0L58.3,876.6z M619.4,865.6l0-12l3.7,0l0,12L619.4,865.6z
		 M58.3,852.6l-3.7,0l0-12l3.7,0L58.3,852.6z M619.4,841.5l0-12l3.7,0l0,12L619.4,841.5z M58.4,828.5l-3.7,0l0-12l3.7,0L58.4,828.5z
		 M619.3,817.5l0-12l3.7,0l0,12L619.3,817.5z M58.5,804.4l-3.7,0l0.1-12l3.7,0L58.5,804.4z M619.3,793.4l0-12l3.7,0l0,12
		L619.3,793.4z M58.6,780.4l-3.7,0l0.1-12l3.7,0L58.6,780.4z M619.2,769.3l0-12l3.7,0l0,12L619.2,769.3z M58.7,756.3l-3.7,0l0.1-12
		l3.7,0L58.7,756.3z M619.1,745.2l0-12l3.7,0l0,12L619.1,745.2z M58.9,732.3l-3.7,0l0.1-12l3.7,0L58.9,732.3z M619.1,721.1l0-12.1
		l3.7,0l0,12.1L619.1,721.1z M59.1,708.3l-3.7,0l0.1-12l3.7,0L59.1,708.3z M619,697l0-12.1l3.7,0l0,12.1L619,697z M59.3,684.2
		l-3.7,0l0.1-12l3.7,0L59.3,684.2z M618.9,672.9l-0.1-12.1l3.7,0l0.1,12.1L618.9,672.9z M59.5,660.2l-3.7,0l0.1-12l3.7,0L59.5,660.2
		z M618.8,648.7c0-5.2-0.1-9.3-0.1-12.1l3.7,0c0,2.9,0.1,7,0.1,12.2L618.8,648.7z M59.8,636.1l-3.7,0l0.1-4.5c0-2.4-0.1-4.9-0.1-7.5
		l3.7,0c0,2.5,0.1,5,0.1,7.5L59.8,636.1z M622.3,624.5l-3.7,0c0-2.9,0-5.7,0-8.5c0-1.2,0-2.3,0-3.5l3.7,0c0,1.2,0,2.3,0,3.5
		C622.4,618.8,622.4,621.6,622.3,624.5z M59.7,612.1l-3.7,0c0-4,0.1-8,0.1-12l3.7,0.1C59.8,604.1,59.8,608.1,59.7,612.1z
		 M618.5,600.5c-0.1-4-0.2-8-0.3-12l3.7-0.1c0.1,4,0.2,8.1,0.3,12L618.5,600.5z M60.2,588.1l-3.7-0.1c0.1-4,0.3-8,0.4-12l3.7,0.2
		C60.4,580.1,60.3,584.1,60.2,588.1z M617.9,576.5c-0.2-4-0.3-8-0.5-12l3.7-0.2c0.2,4,0.4,8,0.6,12L617.9,576.5z M61.1,564.1
		l-3.7-0.2c0.2-4,0.4-8,0.7-12l3.7,0.2C61.6,556.1,61.3,560.2,61.1,564.1z M616.6,552.5c-0.2-4-0.5-8-0.8-12l3.7-0.3
		c0.3,4,0.6,8,0.8,12L616.6,552.5z M62.6,540.2l-3.7-0.3c0.3-4,0.6-8,1-12l3.7,0.3C63.3,532.2,62.9,536.2,62.6,540.2z M614.9,528.6
		c-0.3-4-0.7-8-1.1-12l3.7-0.4c0.4,4,0.7,8,1.1,12L614.9,528.6z M64.7,516.3l-3.7-0.4c0.4-3.9,0.8-7.9,1.2-12l3.7,0.4
		C65.5,508.3,65.1,512.3,64.7,516.3z M612.5,504.7c-0.4-4-0.9-8-1.3-11.9l3.7-0.4c0.5,4,0.9,7.9,1.4,12L612.5,504.7z M67.3,492.4
		l-3.7-0.4c0.5-3.9,1-7.9,1.5-11.9l3.7,0.5C68.2,484.5,67.7,488.5,67.3,492.4z M609.7,480.9c-0.5-4-1.1-8-1.6-11.9l3.7-0.5
		c0.6,3.9,1.1,7.9,1.6,11.9L609.7,480.9z M70.3,468.6l-3.7-0.5c0.5-3.9,1.1-7.9,1.7-11.9l3.7,0.6C71.4,460.7,70.9,464.7,70.3,468.6z
		 M606.4,457.1c-0.6-4-1.2-7.9-1.8-11.9l3.7-0.6c0.6,3.9,1.3,7.9,1.9,11.9L606.4,457.1z M73.9,444.9l-3.7-0.6
		c0.6-3.9,1.3-7.9,2-11.9l3.7,0.6C75.2,437,74.5,440.9,73.9,444.9z M602.6,433.4c-0.7-4-1.4-7.9-2.1-11.8l3.6-0.7
		c0.7,3.9,1.4,7.9,2.1,11.9L602.6,433.4z M78,421.2l-3.6-0.7c0.7-3.9,1.5-7.9,2.2-11.8l3.6,0.7C79.4,413.4,78.7,417.3,78,421.2z
		 M598.3,409.8c-0.8-4-1.5-7.9-2.3-11.8l3.6-0.7c0.8,3.9,1.6,7.8,2.3,11.8L598.3,409.8z M82.5,397.6l-3.6-0.7
		c0.8-3.9,1.6-7.8,2.5-11.8l3.6,0.8C84.1,389.8,83.3,393.7,82.5,397.6z M593.5,386.2c-0.9-4-1.7-7.9-2.6-11.7l3.6-0.8
		c0.9,3.8,1.7,7.8,2.6,11.8L593.5,386.2z M87.5,374.2l-3.6-0.8c0.9-3.9,1.8-7.8,2.7-11.7l3.6,0.9C89.3,366.4,88.4,370.3,87.5,374.2z
		 M588.2,362.8c-0.9-4-1.9-7.9-2.8-11.7l3.6-0.9c0.9,3.8,1.9,7.7,2.8,11.7L588.2,362.8z M93,350.8l-3.6-0.9c1-3.9,1.9-7.8,2.9-11.7
		l3.6,0.9C95,343.1,94,346.9,93,350.8z M582.5,339.5l-0.3-1.1c-0.9-3.5-1.9-7-2.8-10.5l3.6-1c1,3.5,1.9,7,2.9,10.5l0.3,1.1
		L582.5,339.5z M99,327.6l-3.6-1c1.1-4,2.1-7.8,3.2-11.6l3.6,1C101.2,319.8,100.1,323.6,99,327.6z M576.2,316.4
		c-1.1-3.9-2.2-7.7-3.3-11.5l3.6-1c1.1,3.8,2.2,7.7,3.3,11.6L576.2,316.4z M105.5,304.4l-3.6-1c1.2-4,2.3-7.8,3.4-11.5l3.5,1.1
		C107.8,296.7,106.7,300.5,105.5,304.4z M569.4,293.3c-1.2-3.8-2.3-7.7-3.5-11.5l3.5-1.1c1.2,3.8,2.4,7.7,3.5,11.5L569.4,293.3z
		 M112.5,281.5l-3.5-1.1c1.2-3.9,2.5-7.7,3.7-11.5l3.5,1.2C114.9,273.8,113.7,277.6,112.5,281.5z M562.3,270.4
		c-1.3-3.9-2.5-7.7-3.8-11.4l3.5-1.2c1.3,3.7,2.5,7.6,3.8,11.4L562.3,270.4z M119.9,258.7l-3.5-1.2c1.3-3.8,2.6-7.7,4-11.4l3.5,1.2
		C122.6,251,121.2,254.8,119.9,258.7z M554.5,247.7c-1.4-3.8-2.7-7.6-4.1-11.3l3.5-1.3c1.4,3.7,2.8,7.5,4.1,11.3L554.5,247.7z
		 M128,236.1l-3.5-1.3c1.5-4,2.9-7.8,4.3-11.3l3.5,1.4C130.9,228.3,129.5,232.1,128,236.1z M546.1,225.2c-1.5-3.8-3-7.5-4.5-11.1
		l3.4-1.4c1.5,3.6,3,7.4,4.5,11.2L546.1,225.2z M136.7,213.7l-3.4-1.4c1.5-3.8,3-7.5,4.6-11.2l3.4,1.5
		C139.7,206.2,138.2,210,136.7,213.7z M536.9,203.1c-1.6-3.7-3.3-7.4-5-10.9l3.4-1.6c1.7,3.5,3.4,7.2,5,11L536.9,203.1z
		 M146.2,191.7l-3.3-1.6c1.7-3.7,3.5-7.3,5.4-10.8l3.3,1.7C149.7,184.5,147.9,188.1,146.2,191.7z M526.7,181.4
		c-1.8-3.6-3.7-7.2-5.5-10.6l3.3-1.8c1.9,3.5,3.8,7.1,5.6,10.7L526.7,181.4z M157.3,170.6l-3.2-1.8c2-3.5,4.1-7,6.2-10.4l3.1,2
		C161.3,163.6,159.2,167.1,157.3,170.6z M515.3,160.4c-2-3.5-4.1-6.9-6.2-10.2l3.1-2c2.1,3.3,4.2,6.8,6.3,10.3L515.3,160.4z
		 M170,150.3l-3.1-2.1c2.3-3.3,4.7-6.6,7.1-9.8l3,2.2C174.6,143.8,172.2,147,170,150.3z M502.5,140.2c-2.3-3.3-4.6-6.6-7-9.7l3-2.2
		c2.4,3.1,4.8,6.4,7.1,9.8L502.5,140.2z M184.4,131.4l-2.8-2.4c2.6-3.1,5.3-6.2,8-9.1l2.7,2.5C189.6,125.3,187,128.3,184.4,131.4z
		 M488.1,121.2c-2.6-3.1-5.2-6.1-7.9-8.9l2.7-2.5c2.7,2.9,5.4,5.9,8,9.1L488.1,121.2z M200.6,113.9l-2.6-2.7c2.9-2.8,5.9-5.6,9-8.2
		l2.4,2.8C206.5,108.5,203.5,111.2,200.6,113.9z M471.8,103.9c-2.9-2.7-5.9-5.4-8.9-7.9l2.4-2.9c3.1,2.5,6.1,5.2,9.1,8L471.8,103.9z
		 M218.7,98.4l-2.3-2.9c3.2-2.5,6.5-4.8,9.9-7.1l2.1,3.1C225.1,93.6,221.8,96,218.7,98.4z M453.5,88.7c-3.2-2.3-6.6-4.5-9.9-6.6
		l1.9-3.2c3.4,2.1,6.8,4.3,10.1,6.7L453.5,88.7z M238.4,85.1l-1.9-3.2c2.8-1.7,5.7-3.3,8.6-4.8c0.7-0.4,1.4-0.7,2-1.1l1.7,3.3
		c-0.7,0.3-1.3,0.7-2,1C244,81.9,241.2,83.5,238.4,85.1z M433.3,76.4c-3.5-1.8-7.1-3.5-10.8-5l1.4-3.4c3.7,1.5,7.5,3.2,11.1,5.1
		L433.3,76.4z M259.6,74.3l-1.5-3.4c3.7-1.6,7.5-3.1,11.3-4.5l1.3,3.5C267,71.2,263.3,72.7,259.6,74.3z M411.3,67.4
		c-3.7-1.2-7.6-2.3-11.4-3.2l0.8-3.6c3.9,0.9,7.9,2,11.7,3.2L411.3,67.4z M282,66l-1.1-3.6c3.9-1.2,7.8-2.2,11.7-3.1l0.9,3.6
		C289.6,63.9,285.8,64.9,282,66z M388.3,61.9c-3.8-0.6-7.8-1.1-11.7-1.4l-0.1,0l0.4-3.7l-0.2,1.8l0.2-1.8c4.1,0.3,8.1,0.8,12,1.4
		L388.3,61.9z M305.1,60.6l-0.6-3.7c4-0.7,8.1-1.3,12-1.7l0.4,3.7C313,59.3,309.1,59.9,305.1,60.6z M364.7,59.1l-12-0.4l0.1-3.7
		l12.3,0.4l-0.4,2.1L364.7,59.1z M340.6,58.3l-1.7,0c-2-0.2-2.4-0.2-5.6-0.3l-0.2,0c0,0,0,0,0,0c-1.4,0-2.8,0-4.4,0.1l-0.1-3.7
		c1.5-0.1,3.1-0.1,4.5-0.1c0,0,0,0,0,0l0.2,0c3.2,0,3.7,0,5.9,0.3l1.5,0l0,1.9L340.6,58.3z"/>
</g>
<g>
	<g>
		<path class="st2" d="M353.2,2308.2l-28.1,0c-43-3.2-82.4-11.6-117.2-24.8c-27.8-10.6-52.8-24.4-74.1-41
			c-35.2-27.4-48.6-52.8-49.9-55.5c-25-33.6-43.7-97.3-55.7-189.3c-8.9-68.5-10.5-127.9-10.5-128.5l-10-308.6l-8-314.7l2-613.3
			c-1.1-69.2,4.6-179.3,38.5-309.9c20.3-78.2,41.3-127.3,41.5-127.8c18.6-48.1,44.1-88.2,75.7-119.4c25.3-24.9,54.6-44.2,87-57.1
			C299.7-3.8,345.6,0,346.1,0.1c0.6,0.1,1.9,0.1,3.6,0.1c13.7,0,55.2,0.2,103.7,24.6c61.5,31,109.7,88.2,143.3,170
			c0.2,0.5,21.2,49.6,41.5,127.8c18.7,72.1,40.5,184.5,38.5,310l2,613.2l-8,314.7l-10,308.6c0,0.6-1.6,60-10.5,128.5
			c-11.9,92-30.7,155.7-55.7,189.3c-1.3,2.7-14.7,28.1-49.9,55.5C511.1,2268.3,450.8,2300.9,353.2,2308.2L353.2,2308.2z
			 M325.3,2303.7h27.7c53.1-4,128.8-18.4,188.5-64.7c35.7-27.7,48.9-54,49-54.3l0.2-0.4c58.7-78.7,65.3-313,65.4-315.4l10-308.6
			l8-314.6l-2-613.2c1.1-69-4.6-178.6-38.3-308.7c-20.2-77.9-41.1-126.8-41.3-127.3c-33.2-80.8-80.7-137.2-141.2-167.7
			C403.8,4.8,363,4.7,349.6,4.6c-1.9,0-3.2,0-4-0.1c-0.4,0-45.5-3.8-99.8,17.9c-31.8,12.7-60.6,31.6-85.4,56.1
			c-31.1,30.7-56.2,70.3-74.6,117.8c-0.2,0.6-21.2,49.5-41.3,127.4C26,395.6,4.2,507.5,6.3,632.5l-2,613.3l8,314.6l10,308.6
			c0.1,2.4,6.7,236.7,65.4,315.4l0.2,0.4c0.1,0.3,13.3,26.6,49,54.3C169.8,2264.5,229.2,2296.5,325.3,2303.7z"/>
	</g>
	<g>
		<g>
			<g>
				<g>
					<path class="st3" d="M396.1,637c-5.6,0-10.2-4.6-10.2-10.2c0-5.6,4.6-10.2,10.2-10.2s10.2,4.6,10.2,10.2
						C406.2,632.4,401.7,637,396.1,637z M396.1,621.1c-3.1,0-5.7,2.5-5.7,5.7s2.5,5.7,5.7,5.7s5.7-2.5,5.7-5.7
						S399.2,621.1,396.1,621.1z"/>
				</g>
			</g>
			<g>
				<g>
					<path class="st3" d="M396.1,487.2c-5.6,0-10.2-4.6-10.2-10.2c0-5.6,4.6-10.2,10.2-10.2s10.2,4.6,10.2,10.2
						C406.2,482.7,401.7,487.2,396.1,487.2z M396.1,471.4c-3.1,0-5.7,2.5-5.7,5.7s2.5,5.7,5.7,5.7s5.7-2.5,5.7-5.7
						S399.2,471.4,396.1,471.4z"/>
				</g>
			</g>
		</g>
		<g>
			<g>
				<g>
					<path class="st3" d="M282.3,637c-5.6,0-10.2-4.6-10.2-10.2c0-5.6,4.6-10.2,10.2-10.2s10.1,4.6,10.1,10.2
						C292.4,632.4,287.9,637,282.3,637z M282.3,621.1c-3.1,0-5.7,2.5-5.7,5.7s2.5,5.7,5.7,5.7s5.6-2.5,5.6-5.7
						S285.4,621.1,282.3,621.1z"/>
				</g>
			</g>
			<g>
				<g>
					<path class="st3" d="M282.3,487.2c-5.6,0-10.2-4.6-10.2-10.2c0-5.6,4.6-10.2,10.2-10.2s10.1,4.6,10.1,10.2
						C292.4,482.7,287.9,487.2,282.3,487.2z M282.3,471.4c-3.1,0-5.7,2.5-5.7,5.7s2.5,5.7,5.7,5.7s5.6-2.5,5.6-5.7
						S285.4,471.4,282.3,471.4z"/>
				</g>
			</g>
		</g>
	</g>
	<g>
		<g>
			<g>
				<g>
					<path class="st3" d="M396.1,1825.8c-5.6,0-10.2-4.6-10.2-10.2c0-5.6,4.6-10.2,10.2-10.2s10.2,4.6,10.2,10.2
						C406.2,1821.3,401.7,1825.8,396.1,1825.8z M396.1,1810c-3.1,0-5.7,2.5-5.7,5.7c0,3.1,2.5,5.7,5.7,5.7s5.7-2.5,5.7-5.7
						C401.7,1812.5,399.2,1810,396.1,1810z"/>
				</g>
			</g>
			<g>
				<g>
					<path class="st3" d="M396.1,1676.1c-5.6,0-10.2-4.6-10.2-10.2c0-5.6,4.6-10.2,10.2-10.2s10.2,4.6,10.2,10.2
						C406.2,1671.5,401.7,1676.1,396.1,1676.1z M396.1,1660.2c-3.1,0-5.7,2.5-5.7,5.7c0,3.1,2.5,5.7,5.7,5.7s5.7-2.5,5.7-5.7
						C401.7,1662.8,399.2,1660.2,396.1,1660.2z"/>
				</g>
			</g>
		</g>
		<g>
			<g>
				<g>
					<path class="st3" d="M282.3,1825.8c-5.6,0-10.2-4.6-10.2-10.2c0-5.6,4.6-10.2,10.2-10.2s10.1,4.6,10.1,10.2
						C292.4,1821.3,287.9,1825.8,282.3,1825.8z M282.3,1810c-3.1,0-5.7,2.5-5.7,5.7c0,3.1,2.5,5.7,5.7,5.7s5.6-2.5,5.6-5.7
						C287.9,1812.5,285.4,1810,282.3,1810z"/>
				</g>
			</g>
			<g>
				<g>
					<path class="st3" d="M282.3,1676.1c-5.6,0-10.2-4.6-10.2-10.2c0-5.6,4.6-10.2,10.2-10.2s10.1,4.6,10.1,10.2
						C292.4,1671.5,287.9,1676.1,282.3,1676.1z M282.3,1660.2c-3.1,0-5.7,2.5-5.7,5.7c0,3.1,2.5,5.7,5.7,5.7s5.6-2.5,5.6-5.7
						C287.9,1662.8,285.4,1660.2,282.3,1660.2z"/>
				</g>
			</g>
		</g>
	</g>
</g>
</svg>
