<?xml version="1.0" encoding="utf-8"?>
<!-- Generator: Adobe Illustrator 26.3.1, SVG Export Plug-In . SVG Version: 6.00 Build 0)  -->
<svg version="1.1" id="Layer_1" xmlns="http://www.w3.org/2000/svg" xmlns:xlink="http://www.w3.org/1999/xlink" x="0px" y="0px"
	 viewBox="0 0 670.4 2222.7" style="enable-background:new 0 0 670.4 2222.7;" xml:space="preserve">
<style type="text/css">
	.st0{fill:#38E841;}
	.st1{fill:#ED1E77;}
	.st2{fill:#7900FF;}
	.st3{fill:#005EFF;}
</style>
<g>
	<g>
		<path class="st0" d="M345.2,2195.5L345.2,2195.5l-38.2-1c-74.3-5.2-125.3-19.9-155-31.3c-29.1-11.2-44.1-21.5-46.8-23.4l-0.1-0.1
			c-18.2-16.4-31.1-53.3-36.5-104c-4.4-42.4-2-79.9-2-80.3l0.1-1l-2.6-225.6l0-0.1c1.7-11,3-39.5,1.9-172.2c-0.7-79.7-2-159-2-159.7
			l0-0.5l-18.6-348.1c-2.7-64.1-18.4-429-18.6-432.7c0.1-81.2,7.1-158,20.7-228.3c10.9-56.3,26.1-108.6,45.1-155.5
			c31.9-78.6,64.1-115.5,65.5-117.1l0.8-0.9c63.2-76.2,139.7-84.5,169.6-84.5c7.2,0,11.6,0.5,12.1,0.5l1.7,0.2l1.5,0
			c0.3,0,25.9,0.5,60,10.8c45.2,13.7,83.9,37.3,115.1,70.1l0.1,0.1c1.4,1.5,33.8,36.8,65,114.1c18.6,46.1,33.1,97.8,43.1,153.7
			c12.5,70,17.9,146.8,16.1,228.3l-0.3,6.4c-4.8,112.9-16.1,381.2-18.3,434.7L606,1396.4l0,0.4c0,0.8-1.3,80.1-2,159.7
			c-1.1,132.7,0.3,161.2,1.9,172.2l0,0.1l0,0.1l-2.6,225.5l0.1,1c0.1,1.5,2.4,38.1-2,80.3c-5.2,49.6-17.8,86.2-35.4,103l-0.3,0.2
			C551.9,2146.8,476.6,2186.2,345.2,2195.5L345.2,2195.5z M307.2,2191.5l37.9,1c130.1-9.3,204.8-48.1,218.9-56
			c17.1-16.4,29.3-52.3,34.4-101c4.4-41.9,2-79.4,2-79.8l-0.1-1.2l2.6-225.4c-1.7-11.2-3.1-40.1-2-172.6c0.7-79.7,2-159,2-159.8
			l0-0.5l18.6-348.2c2.2-53.4,13.6-321.8,18.3-434.7l0.3-6.4c1.8-81.3-3.6-157.9-16.1-227.7c-10-55.7-24.4-107.2-42.9-153.1
			c-31-76.8-63.1-111.7-64.4-113.1l-0.1-0.1c-30.8-32.5-69.1-55.8-113.8-69.3C369.3,33.5,344,33,343.8,33l-1.7,0l-1.9-0.3
			c-0.4,0-4.7-0.5-11.7-0.5c-29.5,0-104.9,8.1-167.3,83.4l-0.4,0.5l-0.5,0.5c-1.3,1.5-33.2,38.1-64.9,116.2
			c-19,46.7-34.1,98.9-45,155c-13.6,70.2-20.6,146.8-20.7,227.7c0.2,3.6,15.9,368.5,18.6,432.6L67,1396.2l0,0.6
			c0,0.8,1.3,80.1,2,159.8c1.1,132.4-0.3,161.3-2,172.6l2.6,225.5l-0.1,1.1c0,0.4-2.4,37.7,2,79.8c5.2,49.8,17.8,86.1,35.4,102
			c2.8,2,17.5,12.1,46.1,23C182.7,2171.8,233.4,2186.4,307.2,2191.5z"/>
	</g>
	<g>
		<path class="st1" d="M344.6,2168.7l-4.1-0.1l0.1-3.7l3.9,0.1c2.6-0.2,5.3-0.4,7.9-0.6l0.3,3.7
			C350.1,2168.3,347.4,2168.5,344.6,2168.7L344.6,2168.7z M328.5,2168.3l-12-0.3l0.1-3.7l12,0.3L328.5,2168.3z M308.3,2167.8
			c-4.1-0.4-8.1-0.7-12-1.1l0.4-3.7c3.9,0.4,7.9,0.7,11.9,1.1L308.3,2167.8z M364.7,2166.9l-0.4-3.7c4-0.4,8-0.8,11.9-1.3l0.4,3.7
			C372.7,2166.1,368.7,2166.5,364.7,2166.9z M284.3,2165.4c-4-0.4-8.1-0.9-12-1.4l0.5-3.7c3.9,0.5,7.9,0.9,11.9,1.4L284.3,2165.4z
			 M388.6,2164.1l-0.5-3.7c4-0.5,8-1.1,11.9-1.7l0.6,3.7C396.6,2163,392.6,2163.5,388.6,2164.1z M260.4,2162.5
			c-4-0.6-8-1.1-11.9-1.8l0.6-3.7c3.9,0.6,7.8,1.2,11.9,1.7L260.4,2162.5z M412.4,2160.4l-0.6-3.7c3.9-0.7,7.9-1.4,11.8-2.2l0.7,3.6
			C420.4,2159,416.4,2159.7,412.4,2160.4z M236.6,2158.8c-4-0.7-8-1.5-11.8-2.2l0.7-3.6c3.8,0.8,7.8,1.5,11.8,2.2L236.6,2158.8z
			 M436.1,2155.8l-0.8-3.6c3.9-0.8,7.8-1.7,11.7-2.6l0.8,3.6C444,2154.1,440,2155,436.1,2155.8z M213,2154c-4-0.9-7.9-1.9-11.7-2.9
			l0.9-3.6c3.8,1,7.7,1.9,11.6,2.8L213,2154z M459.6,2150.3l-0.9-3.6c3.9-1,7.8-2,11.6-3.1l1,3.6
			C467.4,2148.2,463.5,2149.3,459.6,2150.3z M189.6,2147.9c-3.9-1.1-7.8-2.4-11.5-3.6l1.2-3.5c3.7,1.2,7.6,2.4,11.4,3.6
			L189.6,2147.9z M482.8,2143.8l-1.1-3.5c3.8-1.2,7.7-2.4,11.4-3.6l1.2,3.5C490.5,2141.4,486.6,2142.6,482.8,2143.8z M166.7,2140.3
			c-3.8-1.4-7.5-2.9-11.2-4.5l1.5-3.4c3.6,1.5,7.4,3,11.1,4.4L166.7,2140.3z M505.7,2136.2l-1.3-3.5c3.8-1.4,7.5-2.8,11.2-4.2
			l1.3,3.5C513.3,2133.4,509.5,2134.8,505.7,2136.2z M144.5,2130.8c-3.6-1.7-7.2-3.5-10.8-5.4l1.7-3.3c3.5,1.8,7.1,3.6,10.7,5.3
			L144.5,2130.8z M528.2,2127.4l-1.5-3.4c3.8-1.6,7.5-3.3,10.9-4.9l1.6,3.4C535.7,2124.1,532,2125.8,528.2,2127.4z M123.1,2119.6
			l-1.2-0.7l-0.2-0.2c-2.3-2.3-4.5-5.4-6.7-9.2l3.2-1.9c2,3.4,4,6.2,6,8.2l0.7,0.4L123.1,2119.6z M550.4,2116.3l-2.9-2.3
			c2.1-2.6,4.1-5.9,6.1-9.8l3.3,1.7C554.9,2110,552.7,2113.5,550.4,2116.3z M109.7,2098.5c-1.4-3.5-2.8-7.4-4.1-11.4l3.5-1.1
			c1.3,4,2.6,7.7,4,11.2L109.7,2098.5z M561.8,2094.6l-3.5-1.3c1.3-3.5,2.6-7.3,3.7-11.3l3.6,1
			C564.4,2087.2,563.2,2091,561.8,2094.6z M102.3,2075.4c-0.9-3.8-1.8-7.7-2.6-11.8l3.6-0.7c0.8,4,1.7,7.9,2.6,11.6L102.3,2075.4z
			 M568.7,2071.4l-3.6-0.8c0.9-3.7,1.7-7.7,2.4-11.7l3.6,0.7C570.4,2063.6,569.6,2067.6,568.7,2071.4z M97.6,2051.7
			c-0.6-3.9-1.2-7.9-1.7-12l3.7-0.5c0.5,4,1,8,1.7,11.8L97.6,2051.7z M573.1,2047.6l-3.7-0.5c0.6-3.8,1.1-7.8,1.5-11.9l3.7,0.4
			C574.2,2039.7,573.7,2043.7,573.1,2047.6z M94.6,2027.7c-0.4-3.9-0.7-8-0.9-12l3.7-0.2c0.3,4,0.6,8,0.9,11.9L94.6,2027.7z
			 M575.8,2023.6l-3.7-0.3c0.3-3.9,0.6-7.9,0.8-11.9l3.7,0.2C576.4,2015.6,576.1,2019.7,575.8,2023.6z M93,2003.6
			c-0.2-4-0.3-8-0.4-12.1l3.7-0.1c0.1,4,0.2,8,0.3,12L93,2003.6z M577.2,1999.5l-3.7-0.1c0.1-4,0.2-8,0.3-12l3.7,0
			C577.4,1991.5,577.3,1995.5,577.2,1999.5z M96.3,1979.5l-3.7,0c0-4.1,0.1-8.2,0.2-12.1l3.7,0.1
			C96.4,1971.4,96.3,1975.5,96.3,1979.5z M573.7,1975.4c-0.1-4.1-0.1-8.2-0.3-12l3.7-0.1c0.1,3.8,0.2,7.9,0.3,12.1L573.7,1975.4z
			 M97,1955.6l-3.7-0.3l0-0.2l-0.1-11.7l3.7,0l0.1,11.9L97,1955.6z M576.7,1951.4l-3.7,0l0.1-12l3.7,0L576.7,1951.4z M93.1,1931.5
			l-0.1-12l3.7,0l0.1,12L93.1,1931.5z M577,1927.4l-3.7,0l0.1-12l3.7,0L577,1927.4z M92.8,1907.5l-0.1-12l3.7,0l0.1,12L92.8,1907.5z
			 M577.3,1903.3l-3.7,0l0.1-12l3.7,0L577.3,1903.3z M92.5,1883.4l-0.1-12l3.7,0l0.1,12L92.5,1883.4z M577.6,1879.3l-3.7,0l0.1-12
			l3.7,0L577.6,1879.3z M92.2,1859.4l-0.1-12l3.7,0l0.1,12L92.2,1859.4z M577.9,1855.3l-3.7,0l0.1-12l3.7,0L577.9,1855.3z
			 M92,1835.4l-0.1-12l3.7,0l0.1,12L92,1835.4z M578.2,1831.3l-3.7,0l0.1-12l3.7,0L578.2,1831.3z M91.7,1811.3l-0.1-12l3.7,0l0.1,12
			L91.7,1811.3z M578.4,1807.2l-3.7,0l0.1-12l3.7,0L578.4,1807.2z M91.4,1787.3l-0.1-12l3.7,0l0.1,12L91.4,1787.3z M578.7,1783.2
			l-3.7,0l0.1-12l3.7,0L578.7,1783.2z M91.1,1763.3l-0.1-12l3.7,0l0.1,12L91.1,1763.3z M579,1759.2l-3.7,0l0.1-12l3.7,0L579,1759.2z
			 M90.8,1739.2l-0.1-8.7l0-0.1c0.1-1,0.3-2.2,0.4-3.4l3.7,0.4c-0.1,1.2-0.2,2.3-0.4,3.4l0.1,8.4L90.8,1739.2z M579.3,1735.1l-3.7,0
			l0-4.3c-0.3-2.2-0.5-4.7-0.7-7.5l3.7-0.3c0.2,2.8,0.4,5.3,0.7,7.4l0,0.1L579.3,1735.1z M95.6,1715.3l-3.7-0.2
			c0.2-3.5,0.3-7.5,0.5-12l3.7,0.1C96,1707.8,95.8,1711.8,95.6,1715.3z M574.2,1711.2c-0.1-3.6-0.3-7.6-0.4-12l3.7-0.1
			c0.1,4.4,0.2,8.4,0.4,12L574.2,1711.2z M96.4,1691.3l-3.7-0.1c0.1-3.7,0.1-7.7,0.2-12l3.7,0C96.5,1683.6,96.5,1687.6,96.4,1691.3z
			 M573.6,1687.2c-0.1-3.7-0.1-7.7-0.2-12l3.7,0c0,4.3,0.1,8.3,0.2,12L573.6,1687.2z M96.7,1667.2l-3.7,0c0-3.8,0-7.8,0.1-12l3.7,0
			C96.7,1659.4,96.7,1663.5,96.7,1667.2z M573.4,1663.1c0-3.8,0-7.8-0.1-12l3.7,0c0,4.2,0,8.2,0,12L573.4,1663.1z M96.8,1643.2
			l-3.7,0l0-5.5l0-6.5l3.7,0l0,6.5L96.8,1643.2z M577,1639.1h-3.7v-1.4c0-3.4,0-7,0-10.7l3.7,0c0,3.7,0,7.2,0,10.6V1639.1z
			 M93,1619.2c0-3.9,0-7.9,0-12l3.7,0c0,4.1,0,8.1,0,12L93,1619.2z M577,1615.1l-3.7,0c0-3.9,0-7.9,0-12l3.7,0
			C577.1,1607.2,577,1611.2,577,1615.1z M92.9,1595.1c0-3.9,0-7.9-0.1-12l3.7,0c0,4.1,0.1,8.1,0.1,12L92.9,1595.1z M577.1,1591
			l-3.7,0c0-3.9,0-7.9,0.1-12l3.7,0C577.2,1583.1,577.2,1587.1,577.1,1591z M92.8,1571.1l-0.1-12l3.7,0l0.1,12L92.8,1571.1z
			 M577.3,1567l-3.7,0l0.1-12l3.7,0L577.3,1567z M92.6,1547.1l-0.1-12l3.7,0l0.1,12L92.6,1547.1z M577.5,1543l-3.7,0l0.1-12l3.7,0
			L577.5,1543z M92.4,1523l-0.1-12l3.7,0l0.1,12L92.4,1523z M577.7,1518.9l-3.7,0l0.1-12l3.7,0L577.7,1518.9z M92.1,1499l-0.1-12
			l3.7,0l0.1,12L92.1,1499z M578,1494.9l-3.7,0l0.1-12l3.7,0L578,1494.9z M91.8,1474.9l-0.2-12l3.7,0l0.2,12L91.8,1474.9z
			 M578.3,1470.8l-3.7,0l0.2-12l3.7,0L578.3,1470.8z M91.5,1450.9l-0.2-12l3.7-0.1l0.2,12L91.5,1450.9z M578.6,1446.8l-3.7-0.1
			l0.2-12l3.7,0.1L578.6,1446.8z M91.1,1426.8l-0.2-12l3.7-0.1l0.2,12L91.1,1426.8z M579,1422.7l-3.7-0.1l0.2-12l3.7,0.1L579,1422.7
			z M90.8,1402.8l-0.1-6.4l0,0c-0.1-0.9-0.2-2.6-0.4-5.6l3.7-0.2c0.2,2.7,0.2,4,0.3,4.7l0.1,0l0.1,7.4L90.8,1402.8z M579.4,1398.7
			l-3.7-0.1l0-2.5c0-0.2,0.2-3.7,0.5-9.7l3.7,0.2c-0.4,8-0.5,9.5-0.5,9.8L579.4,1398.7z M89.6,1378.7c-0.2-3.6-0.4-7.6-0.7-12.1
			l3.7-0.2c0.2,4.5,0.5,8.5,0.7,12.1L89.6,1378.7z M580.6,1374.5l-3.7-0.2l0.6-12.1l3.7,0.2L580.6,1374.5z M88.3,1354.5l-0.6-12
			l3.7-0.2l0.6,12L88.3,1354.5z M581.8,1350.4l-3.7-0.2l0.6-12l3.7,0.2L581.8,1350.4z M87,1330.5l-0.6-12l3.7-0.2l0.6,12L87,1330.5z
			 M583.1,1326.4l-3.7-0.2l0.6-12l3.7,0.2L583.1,1326.4z M85.7,1306.4l-0.6-12l3.7-0.2l0.6,12L85.7,1306.4z M584.4,1302.3l-3.7-0.2
			l0.6-12l3.7,0.2L584.4,1302.3z M84.5,1282.3l-0.6-12l3.7-0.2l0.6,12L84.5,1282.3z M585.7,1278.2l-3.7-0.2l0.6-12l3.7,0.2
			L585.7,1278.2z M83.2,1258.3l-0.6-12l3.7-0.2l0.6,12L83.2,1258.3z M587,1254.2l-3.7-0.2l0.6-12l3.7,0.2L587,1254.2z M82,1234.2
			l-0.6-12l3.7-0.2l0.6,12L82,1234.2z M588.2,1230.1l-3.7-0.2l0.6-12l3.7,0.2L588.2,1230.1z M80.7,1210.2l-0.6-12l3.7-0.2l0.6,12
			L80.7,1210.2z M589.5,1206.1l-3.7-0.2l0.6-12l3.7,0.2L589.5,1206.1z M79.4,1186.1l-0.6-12l3.7-0.2l0.6,12L79.4,1186.1z
			 M590.8,1182l-3.7-0.2l0.6-12l3.7,0.2L590.8,1182z M78.2,1162.1l-0.6-12l3.7-0.2l0.6,12L78.2,1162.1z M592.1,1158l-3.7-0.2l0.6-12
			l3.7,0.2L592.1,1158z M76.9,1138l-0.6-12l3.7-0.2l0.6,12L76.9,1138z M593.4,1133.9l-3.7-0.2l0.6-12l3.7,0.2L593.4,1133.9z
			 M75.7,1113.9l-0.6-12l3.7-0.2l0.6,12L75.7,1113.9z M594.6,1109.8l-3.7-0.2l0.6-12l3.7,0.2L594.6,1109.8z M74.4,1089.9l-0.6-12.1
			l3.7-0.2l0.6,12.1L74.4,1089.9z M595.9,1085.8l-3.7-0.2l0.6-12.1l3.7,0.2L595.9,1085.8z M73.1,1065.8c-0.3-4.9-0.5-9-0.7-12.1
			l3.7-0.2c0.2,3.1,0.4,7.2,0.7,12.1L73.1,1065.8z M597.2,1061.6l-3.7-0.2c0.3-5.5,0.5-9.6,0.7-12.1l3.7,0.2
			C597.8,1052,597.5,1056.1,597.2,1061.6z M71.8,1041.5l-0.5-12.1l3.7-0.2l0.5,12.1L71.8,1041.5z M598.5,1037.4l-3.7-0.2l0.5-12
			l3.7,0.2L598.5,1037.4z M70.7,1017.4l-0.5-12l3.7-0.2l0.5,12L70.7,1017.4z M599.5,1013.3l-3.7-0.2l0.5-12l3.7,0.2L599.5,1013.3z
			 M69.7,993.3l-0.5-12l3.7-0.2l0.5,12L69.7,993.3z M600.5,989.3l-3.7-0.2l0.5-12l3.7,0.2L600.5,989.3z M68.7,969.3l-0.5-12l3.7-0.2
			l0.5,12L68.7,969.3z M601.5,965.2l-3.7-0.2l0.5-12l3.7,0.2L601.5,965.2z M67.7,945.2l-0.5-12l3.7-0.2l0.5,12L67.7,945.2z
			 M602.5,941.2l-3.7-0.2l0.5-12l3.7,0.2L602.5,941.2z M66.6,921.1l-0.5-12l3.7-0.2l0.5,12L66.6,921.1z M603.5,917.1l-3.7-0.2
			l0.5-12l3.7,0.2L603.5,917.1z M65.6,897.1l-0.5-12l3.7-0.2l0.5,12L65.6,897.1z M604.5,893.1l-3.7-0.2l0.5-12l3.7,0.2L604.5,893.1z
			 M64.6,873L64,861l3.7-0.2l0.5,12L64.6,873z M605.6,869l-3.7-0.2l0.5-12l3.7,0.2L605.6,869z M63.5,849L63,837l3.7-0.2l0.5,12
			L63.5,849z M606.6,845l-3.7-0.2l0.5-12l3.7,0.2L606.6,845z M62.5,825l-0.5-12l3.7-0.2l0.5,12L62.5,825z M607.6,821l-3.7-0.2
			l0.5-12.1l3.7,0.2L607.6,821z M61.5,800.9l-0.5-12l3.7-0.2l0.5,12L61.5,800.9z M608.6,796.9l-3.7-0.2l0.5-12l3.7,0.2L608.6,796.9z
			 M60.4,776.9l-0.5-12l3.7-0.2l0.5,12L60.4,776.9z M609.6,772.9l-3.7-0.2l0.5-12l3.7,0.2L609.6,772.9z M59.4,752.8l-0.5-12l3.7-0.2
			l0.5,12L59.4,752.8z M610.6,748.8l-3.7-0.2l0.5-12l3.7,0.2L610.6,748.8z M58.3,728.7l-0.5-12l3.7-0.2l0.5,12L58.3,728.7z
			 M611.7,724.8l-3.7-0.2l0.5-12l3.7,0.2L611.7,724.8z M57.3,704.7l-0.5-12l3.7-0.2l0.5,12L57.3,704.7z M612.7,700.8l-3.7-0.2
			l0.5-12l3.7,0.2L612.7,700.8z M56.3,680.6l-0.5-12l3.7-0.2l0.5,12L56.3,680.6z M613.7,676.7l-3.7-0.2l0.5-12l3.7,0.2L613.7,676.7z
			 M55.2,656.5l-0.5-12.1l3.7-0.2l0.5,12.1L55.2,656.5z M614.7,652.7l-3.7-0.2l0.5-12l3.7,0.2L614.7,652.7z M54.2,632.4l-0.5-12.1
			l3.7-0.2l0.5,12.1L54.2,632.4z M615.7,628.6l-3.7-0.2l0.5-12l3.7,0.2L615.7,628.6z M53.3,608.2c0-2.9,0-5.8,0-8.8
			c0-1.1,0-2.2,0-3.3l3.7,0c0,1.1,0,2.2,0,3.2c0,2.9,0,5.9,0,8.7L53.3,608.2z M616.7,604.5l-3.7-0.1c0.1-4,0.1-8,0.2-12l3.7,0
			C616.8,596.5,616.8,600.5,616.7,604.5z M57.1,584.2l-3.7-0.1c0.1-4,0.2-8,0.3-12l3.7,0.1C57.3,576.2,57.2,580.2,57.1,584.2z
			 M616.9,580.5l-3.7,0v-1.9c0-3.4,0-6.7,0-10.1l3.7,0c0,3.4,0,6.7,0,10.1L616.9,580.5z M57.8,560.2l-3.7-0.2c0.2-4,0.4-8,0.6-12
			l3.7,0.2C58.2,552.2,58,556.3,57.8,560.2z M613,556.5c-0.1-4-0.1-8-0.2-12l3.7-0.1c0.1,4,0.2,8,0.2,12L613,556.5z M59.1,536.2
			l-3.7-0.2c0.3-4,0.5-8,0.9-12l3.7,0.3C59.7,528.3,59.4,532.3,59.1,536.2z M612.4,532.5c-0.1-4-0.3-8-0.5-12l3.7-0.2
			c0.2,4,0.3,8,0.5,12L612.4,532.5z M61,512.3l-3.7-0.3c0.3-4,0.7-8,1.1-12l3.7,0.4C61.7,504.4,61.3,508.3,61,512.3z M611.4,508.6
			c-0.2-4-0.4-8-0.7-12l3.7-0.2c0.3,4,0.5,8,0.7,12L611.4,508.6z M63.3,488.4l-3.7-0.4c0.4-4,0.9-8,1.4-12l3.7,0.4
			C64.2,480.5,63.8,484.5,63.3,488.4z M609.9,484.7c-0.3-4-0.6-8-1-11.9l3.7-0.3c0.3,4,0.7,8,1,12L609.9,484.7z M66.2,464.6
			l-3.7-0.5c0.5-4,1.1-7.9,1.6-11.9l3.7,0.5C67.2,456.7,66.7,460.6,66.2,464.6z M607.8,460.8c-0.4-4-0.8-8-1.2-11.9l3.7-0.4
			c0.4,3.9,0.8,8,1.2,12L607.8,460.8z M69.5,440.9l-3.7-0.6c0.6-4,1.2-7.9,1.9-11.9l3.7,0.6C70.8,433,70.1,436.9,69.5,440.9z
			 M605.2,437c-0.5-4-1-7.9-1.5-11.9l3.7-0.5c0.5,3.9,1,8,1.5,11.9L605.2,437z M73.4,417.2l-3.7-0.6c0.7-4,1.4-7.9,2.1-11.9l3.6,0.7
			C74.8,409.3,74.1,413.3,73.4,417.2z M602.1,413.2c-0.6-4-1.2-7.9-1.8-11.8l3.7-0.6c0.6,3.9,1.2,7.9,1.8,11.9L602.1,413.2z
			 M77.8,393.6l-3.6-0.7c0.8-3.9,1.6-7.9,2.4-11.8l3.6,0.8C79.3,385.7,78.5,389.7,77.8,393.6z M598.3,389.6c-0.7-4-1.4-7.9-2.1-11.8
			l3.6-0.7c0.7,3.9,1.4,7.9,2.1,11.8L598.3,389.6z M82.7,370.1l-3.6-0.8c0.9-3.9,1.8-7.9,2.7-11.8l3.6,0.8
			C84.4,362.2,83.5,366.1,82.7,370.1z M593.9,366c-0.8-3.9-1.6-7.9-2.5-11.7l3.6-0.8c0.8,3.9,1.7,7.8,2.5,11.8L593.9,366z
			 M88.1,346.6l-3.6-0.9c1-3.9,1.9-7.8,2.9-11.7l3.6,0.9C90.1,338.8,89.1,342.8,88.1,346.6z M588.8,342.6c-0.9-3.9-1.8-7.8-2.8-11.7
			l3.6-0.9c1,3.9,1.9,7.8,2.8,11.7L588.8,342.6z M94.1,323.4l-3.6-1c1.1-3.9,2.2-7.8,3.3-11.6l3.6,1
			C96.3,315.7,95.2,319.6,94.1,323.4z M583,319.4c-1-3.9-2.1-7.8-3.2-11.6l3.6-1c1.1,3.8,2.1,7.7,3.2,11.6L583,319.4z M100.8,300.4
			l-3.5-1.1c1.2-3.9,2.4-7.7,3.6-11.5l3.5,1.1C103.1,292.7,101.9,296.5,100.8,300.4z M576.5,296.3c-1.1-3.8-2.3-7.7-3.5-11.5
			l3.5-1.1c1.2,3.8,2.4,7.6,3.5,11.5L576.5,296.3z M108.1,277.5l-3.5-1.2c1.3-3.8,2.6-7.7,3.9-11.4l3.5,1.2
			C110.7,269.9,109.3,273.7,108.1,277.5z M569.3,273.4c-1.3-3.8-2.6-7.6-3.9-11.3l3.5-1.2c1.3,3.7,2.6,7.6,3.9,11.4L569.3,273.4z
			 M116.1,254.9l-3.5-1.3c1.4-3.8,2.9-7.6,4.3-11.3l3.4,1.4C118.9,247.4,117.5,251.1,116.1,254.9z M561.4,250.8
			c-1.4-3.7-2.8-7.5-4.3-11.2l3.5-1.3c1.4,3.7,2.9,7.5,4.3,11.3L561.4,250.8z M124.9,232.6l-3.4-1.4c1.6-3.7,3.2-7.5,4.8-11.1
			l3.4,1.5C128,225.2,126.5,228.9,124.9,232.6z M552.5,228.6c-1.6-3.7-3.2-7.4-4.8-11l3.4-1.5c1.6,3.6,3.2,7.3,4.9,11L552.5,228.6z
			 M134.6,210.7l-3.4-1.6c1.7-3.7,3.5-7.3,5.3-10.9l3.3,1.7C138.1,203.4,136.3,207.1,134.6,210.7z M542.7,206.7
			c-1.7-3.7-3.5-7.3-5.2-10.8l3.3-1.7c1.7,3.5,3.5,7.1,5.3,10.8L542.7,206.7z M145.3,189.3l-3.3-1.7c1.9-3.6,3.9-7.2,5.8-10.6
			l3.2,1.8C149.2,182.2,147.2,185.7,145.3,189.3z M532,185.3c-1.9-3.6-3.9-7.1-5.8-10.5l3.2-1.8c1.9,3.4,3.9,6.9,5.8,10.6L532,185.3
			z M157.2,168.5l-3.2-1.9c2.1-3.5,4.3-6.9,6.5-10.2l3.1,2C161.4,161.7,159.3,165.1,157.2,168.5z M520.1,164.6
			c-2.1-3.5-4.3-6.8-6.5-10l3.1-2.1c2.2,3.2,4.4,6.7,6.5,10.2L520.1,164.6z M170.3,148.6l-3-2.2c2.4-3.3,4.8-6.6,7.2-9.7l2.9,2.3
			C175.1,142.1,172.7,145.3,170.3,148.6z M506.8,144.8c-2.4-3.2-4.9-6.4-7.4-9.3l2.8-2.4c2.5,3,5,6.2,7.5,9.5L506.8,144.8z
			 M185.1,129.9l-2.8-2.5c2.7-3,5.5-6,8.2-8.9l2.7,2.6C190.5,124,187.8,126.9,185.1,129.9z M491.5,126.6c-2.7-2.9-5.6-5.7-8.4-8.4
			l2.5-2.7c2.9,2.7,5.8,5.6,8.6,8.5L491.5,126.6z M201.7,112.8l-2.5-2.7c3-2.8,6-5.5,9-8l2.4,2.8
			C207.6,107.4,204.6,110.1,201.7,112.8z M474.1,110.5c-3-2.5-6.2-4.9-9.5-7.1l2.1-3c3.3,2.3,6.6,4.8,9.7,7.3L474.1,110.5z
			 M219.9,97.4l-2.2-3c3.2-2.4,6.6-4.8,9.9-7l2.1,3.1C226.4,92.7,223.1,95,219.9,97.4z M454.7,96.8c-3.3-2-6.8-4-10.3-5.9l1.8-3.3
			c3.6,1.9,7.2,4,10.5,6L454.7,96.8z M433.7,85.5c-3.5-1.6-7.1-3.3-10.9-4.9l1.5-3.4c3.8,1.6,7.5,3.3,11,4.9L433.7,85.5z
			 M239.7,84.2l-1.9-3.2c3.5-2,7.1-4,10.7-5.8l1.7,3.3C246.7,80.3,243.2,82.2,239.7,84.2z M411.8,76.1c-3.5-1.4-7.3-2.8-11.2-4.2
			l1.2-3.5c3.9,1.4,7.7,2.8,11.3,4.2L411.8,76.1z M261,73.6l-1.4-3.4c3.7-1.6,7.5-3,11.3-4.3l1.2,3.5
			C268.4,70.6,264.6,72.1,261,73.6z M389.3,68.5c-4-1.1-7.9-2-11.6-2.9l0.8-3.6c3.7,0.9,7.7,1.8,11.7,2.9L389.3,68.5z M283.4,65.8
			l-1-3.6c3.9-1.1,7.9-2,11.8-2.8l0.7,3.6C291.2,63.9,287.3,64.8,283.4,65.8z M366,63.1c-4.2-0.8-8.2-1.4-11.7-1.8l0.4-3.7
			c3.7,0.4,7.7,1.1,12,1.9L366,63.1z M306.8,61.2l-0.5-3.7c4-0.5,8.1-0.9,12.1-1.1l0.2,3.7C314.7,60.4,310.7,60.8,306.8,61.2z
			 M340.4,60.6l-3.5-0.5c-2.1-0.1-4.3-0.2-6.5-0.2l0-3.7c2.2,0,4.5,0.1,6.7,0.2l0.2,0l3.2,0.5c0.6,0,1.2,0,1.8-0.1l0,3.7
			c-0.7,0-1.3,0-1.9,0.1L340.4,60.6z"/>
	</g>
	<g>
		<g>
			<path class="st2" d="M344.7,2223.4l-0.1,0l-39.9-1c-80.1-5.6-135-21.8-167-34.4c-34.8-13.7-50.5-26-51.1-26.5
				c-24.8-21.5-40.5-63.1-46.7-123.6c-4.5-43.8-2.1-82.2-2-84.2l-2.7-556.4l-18.6-347.7C13.8,986,0.4,612.8,0.2,609
				c0.1-84.2,7.3-163.6,21.4-235.8c11.3-57.9,27-111.4,46.7-159.1c33-79.7,66.5-116.6,68.1-118.4C162.3,64.6,207,24.1,273.6,7.9
				c38.9-9.4,66.9-6.2,69.3-5.9c2.3,0,29.4,0.7,65.7,11.4c34.8,10.3,85.5,32.2,129.1,78.2c0.3,0.3,35.6,37.4,69.3,119.2
				c19.7,48,35.1,101.8,45.7,160c13.2,72.7,19,152.5,17.1,237.1c-0.2,3.8-16,378-18.6,441.5l-18.6,347.8
				c-2.1,126.6-3.9,318.6-0.2,328.1l0.2,0.4l0,0.4l-2.7,227.3c0.1,2.1,2.5,40.5-2,84.2c-6.2,60.5-21.9,102.1-46.7,123.5l-0.3,0.2
				c-0.8,0.5-20.9,13-60.2,26.9c-36.2,12.8-96.1,29.3-176.1,34.9L344.7,2223.4z M327.4,5.8c-12.2,0-30.9,1.2-53,6.5
				c-36,8.8-88.6,30.9-134.6,86.3l-0.1,0.1c-0.3,0.4-34,36.7-67.4,117.3C52.8,263.5,37.2,316.7,26,374.3
				C12,446.2,4.8,525.1,4.7,608.9c0.1,3.7,13.6,377,16.2,440.4l18.6,347.9l2.7,556.6l0,0.1c-0.1,1.5-9.9,154.6,47.1,204.2
				c0.1,0.1,15.9,12.4,50.2,25.9c31.7,12.5,86.1,28.5,165.3,34l39.7,1c79.3-5.5,138.7-21.8,174.6-34.5
				c37.2-13.2,57.4-25.3,59.3-26.5c56.9-49.6,47.1-202.5,47-204l0-0.1l0-0.1l2.7-227.1c-5.1-18.8-0.5-297.4,0-329.4l18.6-347.9
				c2.6-63.4,18.5-437.7,18.6-441.4c1.9-84.2-3.8-163.6-17-235.9c-10.5-57.9-25.8-111.4-45.4-159.1
				c-33.3-81.2-68.1-117.8-68.5-118.1c-23.7-25-64.9-58.6-127-76.9C370.4,6.9,343,6.6,342.7,6.6l-0.3,0
				C342.3,6.5,336.8,5.8,327.4,5.8z"/>
		</g>
		<g>
			<g>
				<g>
					<g>
						<path class="st3" d="M392.2,1755.9c-5.5,0-10-5.3-10-11.9c0-6.5,4.5-11.8,10-11.8c5.5,0,10.1,5.3,10.1,11.8
							C402.3,1750.5,397.8,1755.9,392.2,1755.9z M392.2,1737.1c-3.2,0-5.7,3.1-5.7,6.9c0,3.8,2.6,7,5.7,7c3.2,0,5.8-3.1,5.8-7
							C398.1,1740.2,395.4,1737.1,392.2,1737.1z"/>
					</g>
				</g>
			</g>
			<g>
				<g>
					<g>
						<path class="st3" d="M278.1,1755.9c-5.5,0-10-5.3-10-11.9c0-6.5,4.5-11.8,10-11.8s10.1,5.3,10.1,11.8
							C288.1,1750.5,283.6,1755.9,278.1,1755.9z M278.1,1737.1c-3.2,0-5.7,3.1-5.7,6.9c0,3.8,2.6,7,5.7,7s5.8-3.1,5.8-7
							C283.9,1740.2,281.3,1737.1,278.1,1737.1z"/>
					</g>
				</g>
			</g>
			<g>
				<g>
					<g>
						<path class="st3" d="M392.2,1578c-5.5,0-10-5.3-10-11.8c0-6.5,4.5-11.9,10-11.9c5.5,0,10.1,5.3,10.1,11.9
							C402.3,1572.7,397.8,1578,392.2,1578z M392.2,1559.2c-3.2,0-5.7,3.1-5.7,7c0,3.8,2.6,6.9,5.7,6.9c3.2,0,5.8-3.1,5.8-6.9
							C398.1,1562.4,395.4,1559.2,392.2,1559.2z"/>
					</g>
				</g>
			</g>
			<g>
				<g>
					<g>
						<path class="st3" d="M278.1,1578c-5.5,0-10-5.3-10-11.8c0-6.5,4.5-11.9,10-11.9s10.1,5.3,10.1,11.9
							C288.1,1572.7,283.6,1578,278.1,1578z M278.1,1559.2c-3.2,0-5.7,3.1-5.7,7c0,3.8,2.6,6.9,5.7,6.9s5.8-3.1,5.8-6.9
							C283.9,1562.4,281.3,1559.2,278.1,1559.2z"/>
					</g>
				</g>
			</g>
		</g>
		<g>
			<g>
				<g>
					<g>
						<path class="st3" d="M392.2,581.1c-5.5,0-10-5.3-10-11.9s4.5-11.8,10-11.8c5.5,0,10.1,5.3,10.1,11.8
							C402.3,575.7,397.8,581.1,392.2,581.1z M392.2,562.3c-3.2,0-5.7,3.1-5.7,6.9s2.6,7,5.7,7c3.2,0,5.8-3.1,5.8-7
							C398.1,565.4,395.4,562.3,392.2,562.3z"/>
					</g>
				</g>
			</g>
			<g>
				<g>
					<g>
						<path class="st3" d="M278.1,581.1c-5.5,0-10-5.3-10-11.9s4.5-11.8,10-11.8s10.1,5.3,10.1,11.8
							C288.1,575.7,283.6,581.1,278.1,581.1z M278.1,562.3c-3.2,0-5.7,3.1-5.7,6.9s2.6,7,5.7,7s5.8-3.1,5.8-7
							C283.9,565.4,281.3,562.3,278.1,562.3z"/>
					</g>
				</g>
			</g>
			<g>
				<g>
					<g>
						<path class="st3" d="M392.2,403.2c-5.5,0-10-5.3-10-11.8c0-6.5,4.5-11.9,10-11.9c5.5,0,10.1,5.3,10.1,11.9
							C402.3,397.9,397.8,403.2,392.2,403.2z M392.2,384.4c-3.2,0-5.7,3.1-5.7,7c0,3.8,2.6,6.9,5.7,6.9c3.2,0,5.8-3.1,5.8-6.9
							C398.1,387.6,395.4,384.4,392.2,384.4z"/>
					</g>
				</g>
			</g>
			<g>
				<g>
					<g>
						<path class="st3" d="M278.1,403.2c-5.5,0-10-5.3-10-11.8c0-6.5,4.5-11.9,10-11.9s10.1,5.3,10.1,11.9
							C288.1,397.9,283.6,403.2,278.1,403.2z M278.1,384.4c-3.2,0-5.7,3.1-5.7,7c0,3.8,2.6,6.9,5.7,6.9s5.8-3.1,5.8-6.9
							C283.9,387.6,281.3,384.4,278.1,384.4z"/>
					</g>
				</g>
			</g>
		</g>
	</g>
</g>
</svg>
