<?xml version="1.0" encoding="utf-8"?>
<!-- Generator: Adobe Illustrator 26.3.1, SVG Export Plug-In . SVG Version: 6.00 Build 0)  -->
<svg version="1.1" id="Layer_1" xmlns="http://www.w3.org/2000/svg" xmlns:xlink="http://www.w3.org/1999/xlink" x="0px" y="0px"
	 viewBox="0 0 730.7 2306.8" style="enable-background:new 0 0 730.7 2306.8;" xml:space="preserve">
<style type="text/css">
	.st0{fill:#7900FF;}
	.st1{fill:#38E841;}
	.st2{fill:#ED1E77;}
	.st3{fill:#005EFF;}
</style>
<g>
	<path class="st0" d="M345.9,2305.8c-45.2,0-86.9-4.9-124.2-14.6c-34.7-9-65.6-22.2-91.9-39.2c-43.7-28.2-59.8-56.9-61.3-59.7
		c-16.9-22.1-26.5-79.5-28.5-170.8c-1.5-66.9,1.9-128.5,2-130.7l2-382.4l0-0.2C50,1472.8,4.3,925.8,3.8,920.3
		c-6-109-4-350.1-4-352.5C0.5,502.4,6.9,438.5,19,377.9c9.7-48.5,22.9-95,39.4-138.3c28.1-73.8,56.2-113,56.5-113.4l0.1-0.1
		c25-31.1,53.1-57.1,83.3-77.2c24.2-16.1,49.9-28.5,76.3-36.9c44.2-14,75-12,77.5-11.8c75.3-1.4,141.1,20.4,195.6,64.7
		c43.6,35.4,80,85.2,108.3,148c47.3,104.8,55.9,211.7,56.2,216.5c10.9,51.5,22.6,158.3,16.4,374.2c-3.7,129.2-12.2,237.7-12.3,238.8
		l0,0.2c-17.9,104.7-16.1,832.9-16.1,840.3c4.2,111.8-2.6,182.7-9.1,222.5c-6.8,41.9-14.4,58.8-15.2,60.5
		c-10.4,29.5-30.6,55-60.1,75.8c-24.4,17.2-55.3,31.3-91.8,41.9c-71.6,20.8-142.4,21.9-155.9,21.9
		C360.6,2305.6,353.2,2305.8,345.9,2305.8z M48.5,1508.7l-2,382.2l0,0.1c-0.1,2.5-13.6,247.9,25.7,298.7l0.2,0.3
		c0.2,0.3,16,30,60.1,58.4c25.9,16.7,56.4,29.6,90.6,38.5c42.8,11.1,91.5,15.8,144.9,14c13.4,0,83.7-1,154.7-21.7
		c36.1-10.5,66.5-24.4,90.5-41.2c28.8-20.3,48.4-45,58.5-73.7l0.1-0.2c0.1-0.2,8.1-17,15-59.9c6.4-39.6,13.1-110.1,8.9-221.3
		c0-7.4-1.8-735.6,16.1-841c0.7-8.7,33.5-434.9-4-611.7l0-0.3c-0.1-1.1-8.1-109.3-55.9-215.3c-28-62.1-64-111.3-107-146.3
		C491,24.7,426.2,3.3,352,4.6l-0.1,0l-0.1,0c-0.3,0-31.8-2.4-76.1,11.7c-40.9,13-101.3,43.1-157.2,112.6
		c-1.1,1.5-28.5,40.3-56,112.5C36.8,309,5.8,420.5,4.3,567.8c0,2.4-1.9,243.4,4,352.1C10.2,942.4,54.4,1471.2,48.5,1508.7z"/>
</g>
<g>
	<path class="st1" d="M379.8,2278.6L379.8,2278.6c-1.6,0-3,0-4.2-0.1c-0.2,0-22.9-0.5-29.8-0.5c-45.9,0-87.8-5.3-124.5-15.7
		c-29-8.2-55-19.7-77-34c-35.8-23.2-49.8-46.5-51.2-49.1l-1.1-2.2l-1.3-1.5c-4.7-6.1-20.3-35.2-22.9-154.7
		c-1.5-66.9,1.9-128,2-128.6l0-0.7l2-381.1l0-0.1c0.9-7.2,3.5-28.9-17.9-311.5c-10.2-134.6-21.1-266-22.4-280.5
		c-5.9-108.3-4-347.9-4-350.3l0-0.2c0-221.1,97.3-405.8,108.4-426.1l0.1-0.2c35.1-44.6,75.3-76.7,119.5-95.5
		c36.7-15.6,67.1-17.9,82-17.9c6.3,0,10.1,0.4,10.8,0.5l2.1,0.3l1.8-0.1c2.2,0,4.2-0.1,6.3-0.1c67.2,0,125.8,20.4,174.2,60.7
		c39.4,32.9,72.6,79.1,98.7,137.4c45.2,101.2,52.8,203.5,52.9,204.6l0.1,1.8l0.4,1.7c36.2,170.9,5,586.4,3.6,604l0,0.1
		c-18,111.3-16.3,813.9-16.2,843.7l0,0.9c7.4,199-20.4,267.4-21.6,270.2l-0.1,0.1l-0.7,1.4l-0.3,1.1
		c-17.7,50.6-78.4,80.2-126.2,96.1C466.4,2271.7,406.3,2278.6,379.8,2278.6z M74.8,1510.6l-2,381l0,0.8c0,0.6-3.4,61.6-2,128.4
		c2.6,118.5,17.7,146.9,22.2,152.8l1.6,1.9l1.1,2.3c0.5,0.9,14.4,24.7,50.2,48c21.8,14.2,47.5,25.5,76.2,33.6
		c36.5,10.4,78.1,15.6,123.7,15.6c6.9,0,29.7,0.5,29.9,0.5c1.2,0.1,2.5,0.1,4,0.1h0c26.3,0,86-6.9,142.7-25.8
		c47.1-15.7,106.9-44.8,124.3-94.2l0.4-1.4l0.8-1.5c1.5-3.5,28.7-71.6,21.4-268.9l0-1c-0.1-29.9-1.8-732.5,16.3-844.2
		c1.4-18.5,32.5-432.9-3.6-603.1l-0.4-2l-0.1-1.9c-0.1-1-7.6-102.8-52.6-203.6C603,170.2,570,124.4,531,91.8
		c-47.8-39.8-105.8-60-172.3-60c-2.1,0-4.1,0-6.2,0.1l-2.1,0.1l-2.4-0.4c-0.6-0.1-4.3-0.5-10.4-0.5c-14.7,0-44.6,2.3-80.8,17.6
		c-43.7,18.5-83.5,50.3-118.3,94.5c-11.3,20.8-108,204.5-108,424.6l0,0.2c0,2.4-1.9,242,4,350.1c1.2,14.5,12.1,145.8,22.4,280.5
		C78.2,1480.4,75.7,1503.3,74.8,1510.6z"/>
</g>
<g>
	<path class="st2" d="M384.1,2251.9l-0.1-3.7c3.6-0.1,7.6-0.3,11.9-0.6l0.3,3.7C391.8,2251.6,387.7,2251.8,384.1,2251.9z
		 M372,2251.8c-3.7-0.1-7.9-0.2-12-0.2l0.1-3.7c4.1,0.1,8.4,0.2,12,0.2L372,2251.8z M347.9,2251.4c-0.9,0-1.6,0-2.1,0
		c-4,0-8.1,0-12-0.1l0.1-3.7c3.9,0.1,8,0.1,12,0.1c0.6,0,1.3,0,2.2,0L347.9,2251.4z M321.7,2250.8c-4-0.2-8.1-0.4-12-0.7l0.3-3.7
		c3.9,0.3,7.9,0.5,11.9,0.7L321.7,2250.8z M408.2,2250.2l-0.4-3.7c3.9-0.4,7.9-0.9,11.9-1.4l0.5,3.7
		C416.1,2249.3,412.1,2249.8,408.2,2250.2z M297.7,2249.2c-4-0.4-8.1-0.8-12-1.3l0.4-3.7c3.9,0.5,7.9,0.9,11.9,1.3L297.7,2249.2z
		 M432.1,2247.1l-0.6-3.7c3.9-0.6,7.9-1.3,11.8-2l0.6,3.7C440,2245.8,436,2246.5,432.1,2247.1z M273.8,2246.3c-4-0.6-8-1.3-11.9-2
		l0.7-3.6c3.9,0.7,7.8,1.4,11.8,1.9L273.8,2246.3z M455.8,2242.9l-0.7-3.6c3.9-0.8,7.9-1.6,11.7-2.5l0.8,3.6
		C463.8,2241.3,459.8,2242.1,455.8,2242.9z M250,2242c-4-0.9-7.9-1.8-11.8-2.7l0.9-3.6c3.8,1,7.7,1.9,11.6,2.7L250,2242z
		 M479.4,2237.7l-0.9-3.6c3.9-1,7.8-2,11.6-3l1,3.6C487.2,2235.7,483.3,2236.7,479.4,2237.7z M226.6,2236.1
		c-3.9-1.1-7.8-2.3-11.5-3.6l1.2-3.5c3.7,1.2,7.5,2.4,11.4,3.5L226.6,2236.1z M502.6,2231.3l-1.1-3.6c3.9-1.2,7.7-2.4,11.4-3.6
		l1.2,3.5C510.4,2228.9,506.5,2230.2,502.6,2231.3z M203.7,2228.5c-3.8-1.4-7.6-3-11.2-4.6l1.5-3.4c3.6,1.6,7.3,3.1,11,4.5
		L203.7,2228.5z M525.5,2223.7l-1.3-3.5c3.8-1.4,7.5-2.8,11.1-4.3l1.4,3.4C533.1,2220.9,529.3,2222.4,525.5,2223.7z M181.5,2218.8
		c-3.7-1.8-7.3-3.7-10.7-5.6l1.8-3.2c3.4,1.9,7,3.8,10.5,5.5L181.5,2218.8z M547.9,2214.7l-1.5-3.4c3.7-1.7,7.3-3.4,10.8-5.1
		l1.7,3.3C555.3,2211.3,551.6,2213,547.9,2214.7z M160.4,2207c-0.6-0.4-1.1-0.7-1.7-1.1c-2.8-1.8-5.7-3.8-8.4-5.8l2.2-3
		c2.7,1.9,5.4,3.8,8.2,5.6c0.5,0.3,1.1,0.7,1.6,1L160.4,2207z M569.5,2203.8l-1.8-3.2c3.5-2,7-4.1,10.2-6.2l2,3.1
		C576.5,2199.7,573,2201.8,569.5,2203.8z M140.8,2192.7c-3.2-2.6-6.2-5.4-9-8.1l2.6-2.7c2.8,2.7,5.7,5.4,8.8,7.9L140.8,2192.7z
		 M589.8,2190.6l-2.2-3c3.3-2.4,6.3-5,9.2-7.5l2.5,2.8C596.3,2185.5,593.1,2188.1,589.8,2190.6z M123.5,2175.7c-4-4.7-6.2-8-7-9.2
		l-0.1-0.2l-0.3-0.6l3.3-1.6l0.2,0.5c0.8,1.2,2.9,4.4,6.7,8.7L123.5,2175.7z M607.9,2174.4l-2.7-2.5c2.7-3,5.2-6.1,7.4-9.2l3,2.1
		C613.3,2168.1,610.7,2171.3,607.9,2174.4z M110,2155.3c-1.2-3.1-2.4-7-3.6-11.7l3.6-0.9c1.1,4.5,2.3,8.2,3.5,11.2L110,2155.3z
		 M621.8,2154.3l-3.3-1.6c0.8-1.7,1.6-3.4,2.2-5.1l0.9-3.3l1.4-2.7l3.3,1.7l-1.3,2.6l-0.8,2.9
		C623.5,2150.6,622.7,2152.5,621.8,2154.3z M103.7,2131.9c-0.7-3.7-1.4-7.7-2-11.9l3.7-0.6c0.6,4.1,1.3,8.1,2,11.7L103.7,2131.9z
		 M630,2131.4l-3.6-1c0.9-3.6,1.9-7.5,2.8-11.6l3.6,0.8C631.9,2123.9,630.9,2127.8,630,2131.4z M100,2108.1c-0.5-3.8-0.9-7.8-1.4-12
		l3.7-0.4c0.4,4.1,0.9,8.1,1.3,11.9L100,2108.1z M635.2,2107.9l-3.6-0.7c0.7-3.8,1.4-7.7,2-11.8l3.7,0.6
		C636.6,2100.1,635.9,2104.1,635.2,2107.9z M97.6,2084.1c-0.3-3.9-0.6-7.9-0.9-12l3.7-0.3c0.3,4.1,0.6,8.1,0.9,11.9L97.6,2084.1z
		 M639,2084.1l-3.7-0.5c0.5-3.8,1-7.8,1.5-11.9l3.7,0.4C640.1,2076.2,639.5,2080.2,639,2084.1z M641.9,2060.2l-3.7-0.4
		c0.4-3.9,0.8-7.9,1.1-11.9l3.7,0.3C642.7,2052.3,642.3,2056.3,641.9,2060.2z M95.9,2060.1c-0.2-3.9-0.4-8-0.6-12l3.7-0.2
		c0.2,4,0.4,8.1,0.6,12L95.9,2060.1z M644,2036.3l-3.7-0.3c0.3-3.9,0.6-7.9,0.8-11.9l3.7,0.2C644.5,2028.3,644.3,2032.3,644,2036.3z
		 M94.8,2036.1c-0.1-3.9-0.2-7.9-0.4-12l3.7-0.1c0.1,4.1,0.2,8.1,0.4,12L94.8,2036.1z M645.4,2012.3l-3.7-0.2
		c0.2-3.9,0.4-7.9,0.5-12l3.7,0.1C645.8,2004.4,645.6,2008.4,645.4,2012.3z M94.2,2012.1c-0.1-4-0.1-8-0.1-12l3.7,0
		c0,4,0.1,8,0.1,12L94.2,2012.1z M646.4,1988.2l-3.7-0.1c0.1-3.9,0.2-7.9,0.3-12l3.7,0.1C646.6,1980.3,646.5,1984.3,646.4,1988.2z
		 M94,1988.1l1.9,0L94,1988.1l0-1.8c0-3.5,0-6.9,0-10.2l3.7,0c0,3.4,0,6.8,0,10.2l0,1.8L94,1988.1z M646.9,1964.2l-3.7,0
		c0-3.9,0.1-7.9,0.1-12l3.7,0C646.9,1956.3,646.9,1960.3,646.9,1964.2z M97.9,1964.1l-3.7,0c0.1-4.1,0.1-8.1,0.2-12l3.7,0.1
		C98,1955.9,97.9,1959.9,97.9,1964.1z M643.2,1940.2c0-3.9-0.1-7.9-0.1-12l3.7,0c0.1,4.1,0.1,8.1,0.1,12L643.2,1940.2z M98.3,1940.1
		l-3.7-0.1c0.1-4.2,0.2-8.2,0.3-12l3.7,0.1C98.5,1931.8,98.4,1935.9,98.3,1940.1z M642.9,1916.2c-0.1-3.9-0.2-7.9-0.3-12l3.7-0.1
		c0.1,4.1,0.2,8.1,0.3,12L642.9,1916.2z M99.1,1916.1l-3.7-0.1c0.2-4.7,0.3-8.7,0.5-12l3.7,0.2C99.4,1907.4,99.2,1911.4,99.1,1916.1
		z M642.3,1892.3c-0.1-2.4-0.2-4.9-0.3-7.3l0-2l0-2.8l3.7,0l0,4.6c0.1,2.5,0.2,4.9,0.3,7.4L642.3,1892.3z M100.1,1892l-3.7,0l0.1-12
		l3.7,0L100.1,1892z M641.9,1868.2l0-12l3.7,0l0,12L641.9,1868.2z M100.3,1868l-3.7,0l0.1-12l3.7,0L100.3,1868z M641.9,1844.2l0-12
		l3.7,0l0,12L641.9,1844.2z M100.4,1844l-3.7,0l0.1-12l3.7,0L100.4,1844z M641.9,1820.2l0-12h3.7l0,12L641.9,1820.2z M100.5,1820
		l-3.7,0l0.1-12l3.7,0L100.5,1820z M645.6,1796.2l-3.7,0l0-12l3.7,0L645.6,1796.2z M100.6,1796l-3.7,0l0.1-12l3.7,0L100.6,1796z
		 M645.6,1772.1l-3.7,0l0-12l3.7,0L645.6,1772.1z M100.8,1772l-3.7,0l0.1-12l3.7,0L100.8,1772z M645.6,1748.1l-3.7,0l0-12l3.7,0
		L645.6,1748.1z M100.9,1748l-3.7,0l0.1-12l3.7,0L100.9,1748z M645.7,1724.1l-3.7,0l0-12l3.7,0L645.7,1724.1z M101,1724l-3.7,0
		l0.1-12l3.7,0L101,1724z M645.7,1700.1l-3.7,0l0-12l3.7,0L645.7,1700.1z M101.1,1700l-3.7,0l0.1-12l3.7,0L101.1,1700z M645.8,1676
		l-3.7,0l0-12l3.7,0L645.8,1676z M101.3,1676l-3.7,0l0.1-12l3.7,0L101.3,1676z M645.9,1652l-3.7,0l0-12l3.7,0L645.9,1652z
		 M101.4,1652l-3.7,0l0.1-12l3.7,0L101.4,1652z M646,1628l-3.7,0l0.1-12l3.7,0L646,1628z M101.5,1628l-3.7,0l0.1-12l3.7,0
		L101.5,1628z M101.6,1604l-3.7,0l0.1-12l3.7,0L101.6,1604z M646.1,1604l-3.7,0l0.1-12l3.7,0L646.1,1604z M101.8,1580l-3.7,0l0.1-12
		l3.7,0L101.8,1580z M646.3,1579.9l-3.7,0l0.1-12l3.7,0L646.3,1579.9z M101.9,1556l-3.7,0l0.1-12l3.7,0L101.9,1556z M646.4,1555.9
		l-3.7,0l0.1-12l3.7,0L646.4,1555.9z M102,1532l-3.7,0l0.1-12l3.7,0L102,1532z M646.6,1531.9l-3.7,0l0.1-12l3.7,0L646.6,1531.9z
		 M102.5,1508.1l-3.7-0.2c0.2-2.8,0.2-6.2,0.2-10.4l0-1.5l3.7,0l0,1.5C102.7,1501.7,102.6,1505.2,102.5,1508.1z M646.8,1507.9
		l-3.7,0l0.1-12l3.7,0L646.8,1507.9z M98.8,1484c-0.1-3.6-0.2-7.7-0.4-12l3.7-0.1c0.2,4.3,0.3,8.3,0.4,12L98.8,1484z M647,1483.9
		l-3.7,0l0.1-12l3.7,0L647,1483.9z M97.9,1460.1c-0.2-3.7-0.3-7.7-0.6-12l3.7-0.2c0.2,4.3,0.4,8.3,0.6,12L97.9,1460.1z
		 M647.3,1459.8l-3.7,0l0.1-12l3.7,0L647.3,1459.8z M96.8,1436.2c-0.2-3.8-0.4-7.8-0.7-12l3.7-0.2c0.2,4.2,0.5,8.2,0.7,12
		L96.8,1436.2z M647.5,1435.7l-3.7,0l0.1-12l3.7,0L647.5,1435.7z M95.4,1412.2c-0.2-3.8-0.5-7.8-0.7-12l3.7-0.2
		c0.3,4.1,0.5,8.1,0.7,12L95.4,1412.2z M647.8,1411.7l-3.7,0l0.2-12l3.7,0.1L647.8,1411.7z M94,1388.3c-0.2-3.9-0.5-7.9-0.8-12
		l3.7-0.2c0.3,4.1,0.5,8.1,0.8,12L94,1388.3z M648.2,1387.7l-3.7-0.1l0.2-12l3.7,0.1L648.2,1387.7z M92.4,1364.4
		c-0.3-3.9-0.5-7.9-0.8-12l3.7-0.2c0.3,4.1,0.5,8.1,0.8,12L92.4,1364.4z M648.5,1363.7l-3.7-0.1l0.2-12l3.7,0.1L648.5,1363.7z
		 M90.8,1340.4c-0.3-3.9-0.5-7.9-0.8-12l3.7-0.3c0.3,4.1,0.6,8.1,0.8,12L90.8,1340.4z M648.9,1339.7l-3.7-0.1l0.2-12l3.7,0.1
		L648.9,1339.7z M89.2,1316.5l-0.8-12l3.7-0.3l0.8,12L89.2,1316.5z M649.3,1315.7l-3.7-0.1c0.1-4,0.2-8,0.2-12l3.7,0.1
		C649.5,1307.7,649.4,1311.7,649.3,1315.7z M87.5,1292.6l-0.9-12l3.7-0.3l0.9,12L87.5,1292.6z M649.8,1291.7l-3.7-0.1
		c0.1-4,0.2-8,0.3-12l3.7,0.1C650,1283.6,649.9,1287.7,649.8,1291.7z M85.8,1268.6l-0.9-12l3.7-0.3l0.9,12L85.8,1268.6z
		 M650.3,1267.7l-3.7-0.1c0.1-4,0.2-8,0.3-12l3.7,0.1C650.5,1259.6,650.4,1263.6,650.3,1267.7z M84,1244.7l-0.9-12l3.7-0.3l0.9,12
		L84,1244.7z M650.9,1243.6l-3.7-0.1c0.1-4,0.2-8,0.3-12l3.7,0.1C651.1,1235.6,651,1239.6,650.9,1243.6z M82.2,1220.8l-0.9-12
		l3.7-0.3l0.9,12L82.2,1220.8z M651.6,1219.6l-3.7-0.1c0.1-4,0.2-8,0.4-12l3.7,0.1C651.8,1211.6,651.7,1215.6,651.6,1219.6z
		 M80.4,1196.8l-0.9-12l3.7-0.3l0.9,12L80.4,1196.8z M652.3,1195.6l-3.7-0.1c0.1-4.1,0.3-8.1,0.4-12l3.7,0.1
		C652.6,1187.6,652.4,1191.6,652.3,1195.6z M78.6,1172.8l-0.9-12l3.7-0.3l0.9,12L78.6,1172.8z M653.1,1171.6l-3.7-0.1
		c0.1-4.1,0.3-8.1,0.4-12l3.7,0.1C653.4,1163.6,653.3,1167.6,653.1,1171.6z M76.8,1148.9l-0.9-12l3.7-0.3l0.9,12L76.8,1148.9z
		 M654,1147.6l-3.7-0.2c0.2-4.1,0.3-8.1,0.5-12l3.7,0.2C654.4,1139.5,654.2,1143.5,654,1147.6z M74.9,1124.9l-0.9-12l3.7-0.3l0.9,12
		L74.9,1124.9z M655.1,1123.6l-3.7-0.2c0.2-4.1,0.4-8.1,0.6-12l3.7,0.2C655.5,1115.5,655.3,1119.5,655.1,1123.6z M73,1101l-0.9-12
		l3.7-0.3l0.9,12L73,1101z M656.4,1099.6l-3.7-0.2c0.2-4.1,0.5-8.1,0.7-12l3.7,0.2C656.9,1091.5,656.6,1095.5,656.4,1099.6z
		 M71.1,1077.1l-1-12l3.7-0.3l1,12L71.1,1077.1z M658,1075.7l-3.7-0.3c0.3-4.2,0.6-8.2,1-12l3.7,0.3
		C658.6,1067.5,658.3,1071.5,658,1075.7z M69.2,1053.1l-1-12l3.7-0.3l1,12L69.2,1053.1z M660.1,1051.7l-3.7-0.4
		c0.5-4.4,1-8.5,1.4-12l3.7,0.5C661,1043.4,660.6,1047.4,660.1,1051.7z M67.3,1029.2l-1-12l3.7-0.3l1,12L67.3,1029.2z M662.7,1027.8
		l-3.7-0.3c0.2-3.3,0.5-7.3,0.8-12l3.7,0.3C663.2,1020.5,662.9,1024.5,662.7,1027.8z M65.4,1005.2l-1-12l3.7-0.3l1,12L65.4,1005.2z
		 M664.4,1003.8l-3.7-0.2c0.2-3.7,0.5-7.7,0.8-12l3.7,0.2C664.9,996,664.6,1000,664.4,1003.8z M63.4,981.3l-1-12l3.7-0.3l1,12
		L63.4,981.3z M665.9,979.8l-3.7-0.2c0.2-3.8,0.5-7.8,0.7-12l3.7,0.2C666.4,971.9,666.1,975.9,665.9,979.8z M61.5,957.3l-1-12
		l3.7-0.3l1,12L61.5,957.3z M667.3,955.8l-3.7-0.2c0.2-3.9,0.4-7.9,0.7-12l3.7,0.2C667.8,947.9,667.5,951.9,667.3,955.8z
		 M59.5,933.4l-1-12l3.7-0.3l1,12L59.5,933.4z M668.7,931.8l-3.7-0.2c0.2-3.9,0.4-7.9,0.6-12l3.7,0.2
		C669.1,923.8,668.9,927.8,668.7,931.8z M57.7,909.3c-0.2-3.9-0.4-7.9-0.5-12l3.7-0.2c0.2,4.1,0.3,8.1,0.5,12L57.7,909.3z
		 M669.9,907.8l-3.7-0.2c0.2-3.9,0.4-7.9,0.6-12l3.7,0.2C670.3,899.8,670.1,903.8,669.9,907.8z M56.7,885.3c-0.1-3.9-0.3-7.9-0.4-12
		l3.7-0.1c0.1,4.1,0.3,8.1,0.4,12L56.7,885.3z M671,883.8l-3.7-0.2c0.2-4,0.4-8,0.5-12l3.7,0.2C671.4,875.8,671.2,879.8,671,883.8z
		 M56,861.3c-0.1-3.9-0.2-8-0.3-12l3.7-0.1c0.1,4.1,0.2,8.1,0.3,12L56,861.3z M672,859.8l-3.7-0.2c0.2-4,0.3-8,0.5-12l3.7,0.1
		C672.4,851.8,672.2,855.8,672,859.8z M55.4,837.3c-0.1-4-0.2-8-0.2-12l3.7-0.1c0.1,4,0.2,8,0.2,12L55.4,837.3z M673,835.7l-3.7-0.1
		c0.1-4,0.3-8,0.4-12l3.7,0.1C673.2,827.8,673.1,831.8,673,835.7z M55,813.2c-0.1-4-0.1-8-0.2-12l3.7-0.1c0.1,4,0.1,8,0.2,12
		L55,813.2z M673.8,811.7l-3.7-0.1c0.1-4,0.2-8,0.4-12l3.7,0.1C674,803.7,673.9,807.7,673.8,811.7z M54.6,789.2c-0.1-4-0.1-8-0.1-12
		l3.7,0c0,4,0.1,8,0.1,12L54.6,789.2z M674.5,787.7l-3.7-0.1c0.1-4,0.2-8,0.3-12l3.7,0.1C674.7,779.7,674.6,783.7,674.5,787.7z
		 M54.3,765.2c0-4-0.1-8-0.1-12l3.7,0c0,4,0.1,8,0.1,12L54.3,765.2z M675,763.7l-3.7-0.1c0.1-4,0.2-8,0.2-12l3.7,0.1
		C675.2,755.7,675.1,759.7,675,763.7z M54.2,741.2c0-4-0.1-8-0.1-12l3.7,0c0,4,0,8,0.1,12L54.2,741.2z M675.4,739.7l-3.7-0.1
		c0.1-4,0.1-8,0.2-12l3.7,0C675.6,731.6,675.5,735.7,675.4,739.7z M54,717.1c0-4,0-8,0-12l3.7,0c0,4,0,8,0,12L54,717.1z
		 M675.7,715.6l-3.7,0c0-4,0.1-8,0.1-12l3.7,0C675.8,707.6,675.8,711.6,675.7,715.6z M53.9,693.1c0-4.1,0-8.1,0-12l3.7,0
		c0,3.9,0,8,0,12L53.9,693.1z M675.8,691.5l-3.7,0l0-4.3c0-2.6,0-5.1,0-7.6l3.7,0c0,2.5,0,5.1,0,7.7L675.8,691.5z M53.9,669.1l0-12
		h3.7l0,12L53.9,669.1z M672.1,667.5c0-4-0.1-8-0.1-12l3.7,0c0,4,0.1,8,0.1,12L672.1,667.5z M57.6,645.1l-3.7,0c0-4.1,0-8.1,0-12
		l3.7,0C57.6,637,57.6,641,57.6,645.1z M671.8,643.6c-0.1-4-0.1-8-0.2-12l3.7-0.1c0.1,4,0.1,8,0.2,12L671.8,643.6z M57.6,621.1
		l-3.7,0l0-12l3.7,0L57.6,621.1z M671.3,619.6c-0.1-4-0.2-8-0.3-12l3.7-0.1c0.1,4,0.2,8,0.3,12L671.3,619.6z M57.7,597.1l-3.7,0
		c0-4.5,0-8.5,0.1-12l3.7,0C57.8,588.6,57.8,592.6,57.7,597.1z M670.6,595.6c-0.1-4-0.3-8-0.5-12l3.7-0.2c0.2,4,0.3,8,0.5,12
		L670.6,595.6z M57.9,573.1l-3.7,0c0-3,0-4.6,0-4.8l0-0.4c0-2.2,0-4.5,0-6.8l3.7,0c0,2.2,0,4.5,0,6.7l0,0.5
		C57.9,568.5,57.9,570.1,57.9,573.1z M669.6,571.7c-0.2-4-0.4-8-0.6-12l3.7-0.2c0.2,4,0.4,8,0.6,12L669.6,571.7z M58.1,549.1
		l-3.7-0.1c0.1-4,0.2-8,0.4-12l3.7,0.2C58.4,541.1,58.2,545.1,58.1,549.1z M668.2,547.7c-0.3-4-0.5-8-0.8-12l3.7-0.3
		c0.3,4,0.6,8,0.8,12L668.2,547.7z M59.1,525.2l-3.7-0.2c0.2-4,0.5-8,0.8-12l3.7,0.3C59.6,517.2,59.3,521.3,59.1,525.2z
		 M666.5,523.8c-0.3-4-0.7-8-1.1-11.9l3.7-0.4c0.4,3.9,0.7,7.9,1.1,12L666.5,523.8z M60.8,501.3l-3.7-0.3c0.3-4,0.7-8,1.1-12
		l3.7,0.4C61.6,493.4,61.2,497.4,60.8,501.3z M664.2,500c-0.4-4-0.9-8-1.4-11.9l3.7-0.5c0.5,3.9,0.9,7.9,1.4,12L664.2,500z
		 M63.3,477.5l-3.7-0.4c0.5-3.9,1-7.9,1.5-11.9l3.7,0.5C64.2,469.6,63.7,473.6,63.3,477.5z M661.3,476.2c-0.6-4-1.2-8-1.8-11.8
		l3.7-0.6c0.6,3.8,1.2,7.9,1.8,11.9L661.3,476.2z M66.4,453.8l-3.7-0.5c0.6-3.9,1.2-7.9,1.8-11.9l3.7,0.6
		C67.6,445.9,67,449.9,66.4,453.8z M657.5,452.5c-0.7-3.9-1.5-7.7-2.2-11.3l-0.1-0.5l3.6-0.8l0.1,0.5c0.8,3.6,1.5,7.4,2.2,11.4
		L657.5,452.5z M70.2,430.2l-3.7-0.6c0.7-3.9,1.4-7.9,2.1-11.8l3.6,0.7C71.6,422.3,70.9,426.3,70.2,430.2z M653.7,428.7
		c-0.4-3.7-0.8-7.7-1.4-11.9l3.7-0.5c0.5,4.2,1,8.3,1.4,12L653.7,428.7z M74.6,406.7L71,406c0.8-3.9,1.6-7.9,2.5-11.8l3.6,0.8
		C76.2,398.9,75.4,402.8,74.6,406.7z M650.7,404.9c-0.6-3.9-1.2-7.9-1.9-11.8l3.7-0.6c0.7,4,1.3,8,1.9,11.9L650.7,404.9z
		 M79.7,383.3l-3.6-0.8c0.9-3.9,1.8-7.8,2.8-11.7l3.6,0.9C81.5,375.5,80.6,379.5,79.7,383.3z M646.8,381.3
		c-0.7-3.9-1.5-7.8-2.3-11.8l3.6-0.7c0.8,3.9,1.6,7.9,2.3,11.8L646.8,381.3z M85.3,360.1l-3.6-0.9c1-3.8,2-7.8,3.1-11.6l3.6,1
		C87.3,352.3,86.3,356.2,85.3,360.1z M642,357.8c-0.9-3.9-1.8-7.8-2.7-11.7l3.6-0.9c0.9,3.9,1.8,7.8,2.7,11.7L642,357.8z M91.6,337
		l-3.6-1c1.1-3.8,2.2-7.7,3.3-11.5l3.6,1.1C93.8,329.3,92.6,333.1,91.6,337z M636.5,334.5c-1-3.9-2-7.8-3.1-11.6l3.6-1
		c1.1,3.8,2.1,7.8,3.1,11.6L636.5,334.5z M98.4,314l-3.5-1.1c1.2-3.8,2.4-7.7,3.6-11.5l3.5,1.1C100.7,306.4,99.5,310.2,98.4,314z
		 M630.2,311.4c-1.1-3.8-2.3-7.7-3.5-11.5l3.5-1.1c1.2,3.8,2.4,7.7,3.5,11.5L630.2,311.4z M105.7,291.2l-3.5-1.2l0.9-2.7
		c1-2.9,2-5.8,3-8.7l3.5,1.2c-1,2.9-2,5.7-3,8.7L105.7,291.2z M623,288.6c-1.3-3.8-2.6-7.6-3.9-11.3l3.5-1.3
		c1.3,3.7,2.7,7.5,3.9,11.4L623,288.6z M113.5,268.6l-3.5-1.3c1.4-3.8,2.7-7.6,4.1-11.3l3.5,1.3
		C116.3,261.1,114.9,264.9,113.5,268.6z M614.9,266c-1.4-3.7-2.9-7.5-4.4-11.1l3.4-1.4c1.5,3.7,3,7.5,4.4,11.2L614.9,266z
		 M121.9,246.2l-3.5-1.3c1.4-3.7,2.9-7.5,4.4-11.2l3.4,1.4C124.9,238.7,123.4,242.5,121.9,246.2z M605.9,243.9
		c-0.7-1.5-1.3-3.1-2-4.6c-0.9-2.1-1.9-4.2-2.9-6.3l3.4-1.6c1,2.1,1.9,4.2,2.9,6.4c0.7,1.5,1.4,3.1,2,4.6L605.9,243.9z M130.9,223.9
		l-3.4-1.4c1.5-3.7,3.1-7.4,4.7-11.1l3.4,1.5C134,216.5,132.4,220.2,130.9,223.9z M595.8,222.2c-1.8-3.6-3.6-7.2-5.4-10.6l3.3-1.7
		c1.8,3.5,3.7,7.1,5.5,10.7L595.8,222.2z M140.3,201.9l-3.4-1.5c1.6-3.7,3.3-7.4,5-11l3.4,1.6C143.6,194.6,142,198.2,140.3,201.9z
		 M584.6,201c-2-3.5-4-7-6-10.3l3.2-1.9c2,3.4,4.1,6.9,6.1,10.4L584.6,201z M572.3,180.6c-2.2-3.4-4.4-6.7-6.7-9.9l3-2.1
		c2.3,3.3,4.5,6.6,6.7,10L572.3,180.6z M150.4,180.2l-3.3-1.6c1.8-3.7,3.6-7.3,5.3-10.8l3.3,1.7C154,172.9,152.2,176.5,150.4,180.2z
		 M558.7,161c-2.4-3.2-4.9-6.4-7.3-9.4l2.9-2.3c2.5,3.1,5,6.3,7.4,9.5L558.7,161z M161.2,158.8l-3.3-1.7l0.5-0.9
		c2.4-3,4.8-5.9,7.2-8.8l2.8,2.4c-2.4,2.8-4.7,5.7-7,8.6L161.2,158.8z M543.6,142.5c-2.6-3-5.3-6-8-8.8l2.7-2.6
		c2.7,2.9,5.5,5.9,8.1,8.9L543.6,142.5z M176.3,140.8l-2.7-2.5c2.7-3,5.5-5.9,8.3-8.8l2.7,2.6C181.8,134.9,179,137.8,176.3,140.8z
		 M527.2,125.2c-2.9-2.8-5.8-5.5-8.8-8.1l2.4-2.8c3,2.6,6,5.4,8.9,8.2L527.2,125.2z M193,123.7l-2.6-2.7c2.9-2.8,5.9-5.5,8.9-8.1
		l2.4,2.8C198.9,118.3,195.9,121,193,123.7z M509.3,109.5c-3.1-2.5-6.3-4.9-9.5-7.2l2.2-3c3.3,2.3,6.5,4.8,9.6,7.3L509.3,109.5z
		 M211,108.1l-2.3-2.9c3.2-2.5,6.4-5,9.6-7.3l2.2,3C217.3,103.1,214.1,105.6,211,108.1z M490,95.6c-3.3-2.1-6.8-4.2-10.2-6.1
		l1.8-3.2c3.5,2,7,4.1,10.4,6.2L490,95.6z M230.2,94l-2-3.1c3.4-2.2,6.8-4.4,10.3-6.4l1.9,3.2C237,89.7,233.6,91.8,230.2,94z
		 M469.3,83.9c-3.5-1.8-7.2-3.5-10.8-5l1.5-3.4c3.7,1.6,7.4,3.3,11,5.1L469.3,83.9z M250.7,81.9l-1.7-3.3c3.6-1.9,7.2-3.7,10.9-5.3
		l1.5,3.4C257.8,78.2,254.3,80,250.7,81.9z M447.4,74.4c-3.7-1.4-7.5-2.7-11.3-3.9l1.1-3.5c3.8,1.2,7.7,2.5,11.4,3.9L447.4,74.4z
		 M272.4,71.9l-1.4-3.4c3.8-1.5,7.6-2.9,11.4-4.1l1.2,3.5C279.8,69.1,276.1,70.5,272.4,71.9z M424.7,67.3c-3.8-1-7.7-1.9-11.6-2.7
		l0.8-3.6c3.9,0.8,7.9,1.7,11.8,2.7L424.7,67.3z M294.9,64.5l-1-3.6c3.9-1,7.9-2,11.8-2.8l0.7,3.6C302.7,62.5,298.8,63.5,294.9,64.5
		z M401.4,62.4c-3.9-0.6-7.8-1.1-11.8-1.6l0.4-3.7c4,0.4,8,1,12,1.6L401.4,62.4z M318.2,59.8l-0.5-3.7c4.1-0.5,8.2-0.9,12.1-1.2
		l0.2,3.7C326.2,58.9,322.2,59.3,318.2,59.8z M377.7,59.8c-3.9-0.3-7.9-0.4-11.9-0.5l0.1-3.7c4,0.1,8.1,0.3,12.1,0.5L377.7,59.8z
		 M348.9,59.4l-4.4-0.7c-0.5,0-1.4-0.1-2.7-0.2l0.2-3.7c1.5,0.1,2.5,0.1,2.9,0.2l0.1,0l4.1,0.6l4.7-0.2l0.1,3.7l-0.5,0L348.9,59.4z"
		/>
</g>
<g>
	<g>
		<g>
			<g>
				<path class="st3" d="M419.6,474.5c-6.8,0-12.3-5.6-12.3-12.4c0-6.9,5.5-12.5,12.3-12.5s12.4,5.6,12.4,12.5
					C432,469,426.4,474.5,419.6,474.5z M419.6,454.2c-4.3,0-7.8,3.6-7.8,8s3.5,7.9,7.8,7.9s7.9-3.6,7.9-7.9
					C427.5,457.7,423.9,454.2,419.6,454.2z"/>
			</g>
		</g>
		<g>
			<g>
				<path class="st3" d="M310.1,474.5c-6.8,0-12.3-5.6-12.3-12.4c0-6.9,5.5-12.5,12.3-12.5s12.4,5.6,12.4,12.5
					C322.4,469,316.9,474.5,310.1,474.5z M310.1,454.2c-4.3,0-7.8,3.6-7.8,8s3.5,7.9,7.8,7.9s7.9-3.6,7.9-7.9
					C317.9,457.7,314.4,454.2,310.1,454.2z"/>
			</g>
		</g>
		<g>
			<g>
				<path class="st3" d="M419.6,619.8c-6.8,0-12.3-5.6-12.3-12.5s5.5-12.4,12.3-12.4s12.4,5.6,12.4,12.4
					C432,614.2,426.4,619.8,419.6,619.8z M419.6,599.4c-4.3,0-7.8,3.6-7.8,7.9c0,4.4,3.5,8,7.8,8s7.9-3.6,7.9-8
					C427.5,602.9,423.9,599.4,419.6,599.4z"/>
			</g>
		</g>
		<g>
			<g>
				<path class="st3" d="M310.1,619.8c-6.8,0-12.3-5.6-12.3-12.5s5.5-12.4,12.3-12.4s12.4,5.6,12.4,12.4
					C322.4,614.2,316.9,619.8,310.1,619.8z M310.1,599.4c-4.3,0-7.8,3.6-7.8,7.9c0,4.4,3.5,8,7.8,8s7.9-3.6,7.9-8
					C317.9,602.9,314.4,599.4,310.1,599.4z"/>
			</g>
		</g>
	</g>
</g>
<g>
	<g>
		<g>
			<g>
				<path class="st3" d="M419.6,1671c-6.8,0-12.3-5.6-12.3-12.4c0-6.9,5.5-12.5,12.3-12.5s12.4,5.6,12.4,12.5
					C432,1665.5,426.4,1671,419.6,1671z M419.6,1650.7c-4.3,0-7.8,3.6-7.8,8s3.5,7.9,7.8,7.9s7.9-3.6,7.9-7.9
					C427.5,1654.2,423.9,1650.7,419.6,1650.7z"/>
			</g>
		</g>
		<g>
			<g>
				<path class="st3" d="M310.1,1671c-6.8,0-12.3-5.6-12.3-12.4c0-6.9,5.5-12.5,12.3-12.5s12.4,5.6,12.4,12.5
					C322.4,1665.5,316.9,1671,310.1,1671z M310.1,1650.7c-4.3,0-7.8,3.6-7.8,8s3.5,7.9,7.8,7.9s7.9-3.6,7.9-7.9
					C317.9,1654.2,314.4,1650.7,310.1,1650.7z"/>
			</g>
		</g>
		<g>
			<g>
				<path class="st3" d="M419.6,1816.3c-6.8,0-12.3-5.6-12.3-12.5s5.5-12.4,12.3-12.4s12.4,5.6,12.4,12.4
					C432,1810.7,426.4,1816.3,419.6,1816.3z M419.6,1795.9c-4.3,0-7.8,3.6-7.8,7.9c0,4.4,3.5,8,7.8,8s7.9-3.6,7.9-8
					C427.5,1799.4,423.9,1795.9,419.6,1795.9z"/>
			</g>
		</g>
		<g>
			<g>
				<path class="st3" d="M310.1,1816.3c-6.8,0-12.3-5.6-12.3-12.5s5.5-12.4,12.3-12.4s12.4,5.6,12.4,12.4
					C322.4,1810.7,316.9,1816.3,310.1,1816.3z M310.1,1795.9c-4.3,0-7.8,3.6-7.8,7.9c0,4.4,3.5,8,7.8,8s7.9-3.6,7.9-8
					C317.9,1799.4,314.4,1795.9,310.1,1795.9z"/>
			</g>
		</g>
	</g>
</g>
</svg>
