<?xml version="1.0" encoding="utf-8"?>
<!-- Generator: Adobe Illustrator 26.3.1, SVG Export Plug-In . SVG Version: 6.00 Build 0)  -->
<svg version="1.1" id="Layer_1" xmlns="http://www.w3.org/2000/svg" xmlns:xlink="http://www.w3.org/1999/xlink" x="0px" y="0px"
	 viewBox="0 0 720.1 2270.9" style="enable-background:new 0 0 720.1 2270.9;" xml:space="preserve">
<style type="text/css">
	.st0{fill:#38E841;}
	.st1{fill:#ED1E77;}
	.st2{fill:#7900FF;}
	.st3{fill:#005EFF;}
</style>
<g>
	<path class="st0" d="M364.8,2244.5h-9.5c-121.9-1.9-189.1-26.8-224-47.3c-33.5-19.7-43.7-38.7-45.4-42.4l-0.1-0.2l-0.7-2.4
		l-1.1-1.3c-5.4-9.5-18.5-46.6-22.4-186.8c-2.2-77.8-0.3-149.6-0.3-152.7c1.5-28.2-2.3-224.3-4-307.3l0-0.1l0-0.1
		c3.3-45.7-15.8-371.1-18-408.1l-0.1-1.2c-15.3-143.6-10.1-433.1-9.9-445.4c19-268.4,53.3-388.6,54.7-393.6
		C101.6,204,126,160,156.5,125c24.4-28,52.8-50.4,84.5-66.8c55.7-28.7,103.5-29.1,105.5-29.1l26.3,0.7l0-0.8l1.5,0
		c8.4,0.2,52.8,2.3,104.7,29c31.7,16.4,60.1,38.8,84.5,66.8c30.5,35.1,54.9,79,72.4,130.8c1.5,5,35.7,125.1,54.7,393.5
		c0.2,12.3,5.5,301.8-9.9,445.5l-0.1,1.2c-2.2,37-21.3,362.4-18,408.1l0,0.1l0,0.1c-1.7,83-5.5,279-4,307.2
		c0.1,3.1,1.9,75.5-0.3,152.9c-3.9,140-17,177.1-22.4,186.6l-1.5,2.6l-0.4,1.4c-1.7,3.6-12,22.7-45.4,42.3
		C553.9,2217.7,486.7,2242.6,364.8,2244.5z M355.3,2241.5h9.5c121.2-1.9,187.9-26.5,222.5-46.9c32.8-19.3,42.9-38.2,44.2-40.9
		l0.4-1.4l1.7-2.9c5.3-9.3,18.1-45.9,22-185.2c2.2-77.4,0.3-149.7,0.3-152.7c-1.5-28.2,2.2-224.3,4-307.4
		c-3.3-46.1,15.8-371.4,18-408.4l0.1-1.3c15.3-143.5,10.1-432.8,9.8-445c-19-268.1-53.2-387.8-54.6-392.8
		c-17.4-51.3-41.5-94.9-71.8-129.7c-24.1-27.7-52.2-49.9-83.6-66.1c-48.9-25.2-92.2-28.3-101.9-28.7l0,0.8l-29.4-0.8
		c-1.9,0-49.1,0.3-104.1,28.7C211,77,182.9,99.2,158.8,126.9c-30.3,34.8-54.4,78.4-71.8,129.7c-1.4,4.9-35.6,124.8-54.6,392.8
		c-0.2,12.2-5.5,301.5,9.8,445l0.1,1.3c2.2,37,21.3,362.3,18,408.4c1.7,83.1,5.5,279.1,4,307.4c-0.1,3-1.9,74.7,0.3,152.5
		c3.9,138.9,16.6,175.8,21.9,185.3l1.3,1.5l0.8,2.9c1.3,2.6,11.3,21.6,44.2,41C167.4,2214.9,234,2239.6,355.3,2241.5z"/>
</g>
<g>
	<path class="st1" d="M359.4,2218.1h-3.9c-4.1-0.1-8.1-0.2-12.1-0.3l0.1-3.7c3.9,0.1,7.9,0.2,12,0.3h3.9V2218.1z M371.4,2218
		l-0.1-3.7c4-0.1,8-0.2,12-0.4l0.1,3.7C379.5,2217.8,375.5,2217.9,371.4,2218z M331.4,2217.4c-4-0.2-8-0.4-12-0.6l0.2-3.7
		c4,0.2,8,0.4,12,0.6L331.4,2217.4z M395.5,2217.1l-0.2-3.7c4-0.2,8.1-0.5,12-0.7l0.2,3.7C403.6,2216.7,399.5,2216.9,395.5,2217.1z
		 M307.4,2216c-4-0.3-8-0.6-12-1l0.3-3.7c3.9,0.4,7.9,0.7,11.9,1L307.4,2216z M419.5,2215.5l-0.3-3.7c4-0.3,8-0.7,11.9-1.1l0.4,3.7
		C427.5,2214.8,423.5,2215.2,419.5,2215.5z M283.4,2213.8c-4-0.4-8.1-0.9-12-1.4l0.5-3.7c3.9,0.5,7.9,1,11.9,1.4L283.4,2213.8z
		 M443.4,2213l-0.4-3.7c4-0.5,8-1,11.9-1.6l0.5,3.7C451.4,2212,447.4,2212.6,443.4,2213z M259.6,2210.7c-4-0.6-8-1.3-11.9-1.9
		l0.6-3.7c3.9,0.7,7.8,1.3,11.8,1.9L259.6,2210.7z M467.2,2209.6l-0.6-3.7c4-0.7,7.9-1.4,11.8-2.1l0.7,3.6
		C475.2,2208.3,471.2,2209,467.2,2209.6z M235.9,2206.6c-4-0.8-7.9-1.7-11.8-2.5l0.8-3.6c3.8,0.9,7.7,1.7,11.7,2.5L235.9,2206.6z
		 M490.9,2205.2l-0.8-3.6c3.9-0.9,7.9-1.8,11.6-2.7l0.9,3.6C498.8,2203.4,494.9,2204.3,490.9,2205.2z M212.4,2201.2
		c-3.9-1-7.8-2.1-11.6-3.2l1.1-3.6c3.7,1.1,7.6,2.2,11.5,3.2L212.4,2201.2z M514.3,2199.4l-1-3.6c3.9-1.1,7.7-2.2,11.4-3.4l1.1,3.5
		C522.1,2197.1,518.2,2198.3,514.3,2199.4z M189.2,2194.3c-3.9-1.3-7.7-2.7-11.4-4.1l1.3-3.5c3.6,1.4,7.4,2.7,11.2,4L189.2,2194.3z
		 M537.3,2192l-1.3-3.5c3.8-1.4,7.5-2.8,11.1-4.3l1.4,3.4C544.9,2189.2,541.1,2190.6,537.3,2192z M166.7,2185.6
		c-3.8-1.7-7.5-3.4-11-5.1l1.7-3.3c3.4,1.7,7.1,3.4,10.8,5.1L166.7,2185.6z M559.6,2182.8l-1.6-3.4c3.7-1.7,7.2-3.6,10.6-5.4
		l1.8,3.3C567,2179.2,563.4,2181,559.6,2182.8z M145.1,2174.7l-0.2-0.1c-3.5-2.1-6.9-4.2-10-6.4l2.1-3c3.1,2.1,6.4,4.2,9.8,6.3
		l0.2,0.1L145.1,2174.7z M580.8,2171.1l-2-3.1c3.4-2.2,6.7-4.5,9.7-6.8l2.3,2.9C587.7,2166.5,584.4,2168.8,580.8,2171.1z
		 M125.2,2160.7c-3.3-2.8-6.2-5.7-8.8-8.5l2.8-2.5c2.5,2.7,5.3,5.5,8.5,8.2L125.2,2160.7z M600,2156.1l-2.6-2.7
		c3.8-3.8,6.3-6.9,7.7-8.8l3,2.2C606.6,2148.8,604,2152.1,600,2156.1z M109.7,2141.5l-0.5-1.8l-2.6-3.2l-0.1-0.3
		c-0.6-1.4-1.2-3.2-1.9-5.3l3.5-1.1c0.7,2.3,1.2,3.8,1.6,4.7l2.8,3.3l0.7,2.6L109.7,2141.5z M613.8,2135.8l-3.4-1.4
		c0.7-1.9,1.9-5.3,3.4-11.2l3.6,0.9C615.9,2130.3,614.6,2133.9,613.8,2135.8z M101.6,2119.2c-0.8-3.6-1.5-7.6-2.3-11.9l3.7-0.6
		c0.7,4.2,1.5,8.1,2.2,11.7L101.6,2119.2z M619.9,2112.3l-3.6-0.7c0.7-3.6,1.3-7.6,2-11.8l3.7,0.6
		C621.2,2104.7,620.5,2108.7,619.9,2112.3z M97.5,2095.4c-0.5-3.8-1.1-7.8-1.6-11.9l3.7-0.4c0.5,4.1,1,8.1,1.5,11.9L97.5,2095.4z
		 M623.5,2088.5l-3.7-0.5c0.5-3.8,1-7.8,1.4-11.9l3.7,0.4C624.5,2080.7,624,2084.7,623.5,2088.5z M94.6,2071.5
		c-0.4-3.8-0.8-7.9-1.2-12l3.7-0.3c0.4,4.1,0.8,8.1,1.2,11.9L94.6,2071.5z M626.2,2064.6l-3.7-0.4c0.4-3.8,0.7-7.9,1.1-11.9l3.7,0.3
		C626.9,2056.7,626.5,2060.8,626.2,2064.6z M92.4,2047.6c-0.3-3.8-0.6-7.8-0.9-12l3.7-0.3c0.3,4.1,0.6,8.1,0.9,11.9L92.4,2047.6z
		 M628.2,2040.7l-3.7-0.3c0.3-3.8,0.5-7.8,0.8-11.9l3.7,0.2C628.7,2032.8,628.5,2036.8,628.2,2040.7z M90.8,2023.6
		c-0.2-3.9-0.5-7.9-0.7-12l3.7-0.2c0.2,4.1,0.4,8.1,0.7,12L90.8,2023.6z M629.7,2016.7l-3.7-0.2c0.2-3.9,0.4-7.9,0.6-12l3.7,0.2
		C630.1,2008.8,629.9,2012.8,629.7,2016.7z M89.5,1999.6c-0.2-3.9-0.3-7.9-0.5-12l3.7-0.1c0.2,4.1,0.3,8.1,0.5,12L89.5,1999.6z
		 M630.8,1992.7l-3.7-0.2c0.2-3.9,0.3-7.9,0.5-12l3.7,0.1C631.2,1984.8,631,1988.8,630.8,1992.7z M88.6,1975.6
		c-0.1-3.9-0.3-7.9-0.4-12l3.7-0.1c0.1,4.1,0.2,8.1,0.4,12L88.6,1975.6z M631.7,1968.7l-3.7-0.1l0.1-5.2c0.1-2.3,0.1-4.5,0.2-6.8
		l3.7,0.1c-0.1,2.3-0.1,4.5-0.2,6.8L631.7,1968.7z M87.9,1951.6c-0.1-4-0.2-8-0.2-12l3.7-0.1c0.1,4,0.2,8,0.2,12L87.9,1951.6z
		 M632.3,1944.7l-3.7-0.1c0.1-4,0.2-8,0.2-12l3.7,0.1C632.5,1936.7,632.4,1940.7,632.3,1944.7z M87.5,1927.6
		c-0.1-4.1-0.1-8.1-0.1-12l3.7,0c0,3.9,0.1,7.9,0.1,12L87.5,1927.6z M632.7,1920.7l-3.7,0c0-4.1,0.1-8.1,0.1-12l3.7,0
		C632.8,1912.6,632.7,1916.6,632.7,1920.7z M87.2,1903.6c0-4.1,0-8.1-0.1-12l3.7,0c0,3.9,0,7.9,0.1,12L87.2,1903.6z M632.9,1896.7
		l-3.7,0c0-4.1,0-8.1,0-12l3.7,0C632.9,1888.6,632.9,1892.6,632.9,1896.7z M90.9,1879.6l-3.7,0c0-4.1,0-8.2,0-12l3.7,0
		C90.9,1871.4,90.9,1875.4,90.9,1879.6z M629.2,1872.7c0-4.2,0-8.2-0.1-12l3.7,0c0,3.8,0,7.8,0.1,12L629.2,1872.7z M91,1855.6
		l-3.7,0c0-4.3,0.1-8.3,0.1-12l3.7,0C91.1,1847.3,91,1851.3,91,1855.6z M629,1848.7c0-4.3-0.1-8.3-0.1-12l3.7-0.1
		c0.1,3.7,0.1,7.7,0.1,12L629,1848.7z M91.3,1831.6l-3.7-0.1c0.1-4.8,0.2-8.9,0.2-12l3.7,0.1C91.4,1822.7,91.3,1826.7,91.3,1831.6z
		 M628.7,1824.7c-0.1-6.3-0.2-10.5-0.3-12l3.7-0.1c0,1.5,0.1,5.7,0.3,12L628.7,1824.7z M91.8,1807.6l-3.7-0.1
		c0.1-3.2,0.1-7.2,0.2-12l3.7,0C92,1800.3,91.9,1804.4,91.8,1807.6z M628.1,1800.6c0-3.5-0.1-7.5-0.1-12l3.7,0c0,4.5,0,8.5,0.1,12
		L628.1,1800.6z M88.3,1783.5c0-3.7,0-7.8,0-12l3.7,0c0,4.3,0,8.3,0,12L88.3,1783.5z M631.8,1776.6l-3.7,0c0-3.8,0-7.8,0.1-12l3.7,0
		C631.8,1768.8,631.8,1772.8,631.8,1776.6z M88.2,1759.5c0-3.9-0.1-7.9-0.1-12l3.7,0c0,4.1,0.1,8.2,0.1,12L88.2,1759.5z
		 M631.9,1752.6l-3.7,0c0-3.9,0.1-7.9,0.1-12l3.7,0C632,1744.7,631.9,1748.7,631.9,1752.6z M88,1735.5c0-3.9-0.1-7.9-0.1-12l3.7,0
		c0,4.1,0.1,8.1,0.1,12L88,1735.5z M632.2,1728.6l-3.7,0c0-3.9,0.1-7.9,0.1-12l3.7,0C632.3,1720.6,632.2,1724.7,632.2,1728.6z
		 M87.7,1711.5c-0.1-3.9-0.1-8-0.2-12l3.7-0.1c0.1,4.1,0.1,8.1,0.2,12L87.7,1711.5z M632.5,1704.6l-3.7-0.1l0.2-12l3.7,0.1
		L632.5,1704.6z M87.3,1687.4l-0.2-12l3.7-0.1l0.2,12L87.3,1687.4z M632.8,1680.5l-3.7-0.1l0.2-12l3.7,0.1L632.8,1680.5z M87,1663.4
		l-0.2-12l3.7-0.1l0.2,12L87,1663.4z M633.2,1656.5l-3.7-0.1l0.2-12l3.7,0.1L633.2,1656.5z M86.6,1639.4l-0.2-12l3.7-0.1l0.2,12
		L86.6,1639.4z M633.6,1632.5l-3.7-0.1l0.2-12l3.7,0.1L633.6,1632.5z M86.2,1615.4l-0.2-12l3.7-0.1l0.2,12L86.2,1615.4z M634,1608.4
		l-3.7-0.1l0.2-12l3.7,0.1L634,1608.4z M85.7,1591.4l-0.2-12l3.7-0.1l0.2,12L85.7,1591.4z M634.5,1584.4l-3.7-0.1l0.2-12l3.7,0.1
		L634.5,1584.4z M85.3,1567.3l-0.2-12l3.7-0.1l0.2,12L85.3,1567.3z M634.9,1560.4l-3.7-0.1l0.2-11.9l3.7,0L634.9,1560.4z
		 M84.8,1543.3l-0.2-12l3.7-0.1l0.2,12L84.8,1543.3z M635.4,1536.4l-3.7-0.1l0.2-12l3.7,0.1L635.4,1536.4z M84.3,1519.3l-0.2-12
		l3.7-0.1l0.2,12L84.3,1519.3z M635.9,1512.4l-3.7-0.1l0.2-7.6c-0.1-1.3-0.1-2.7-0.2-4.3l3.7-0.1c0,1.6,0.1,3,0.2,4.2l0,0.1
		L635.9,1512.4z M88,1495.3l-3.7,0c0-2,0-4.1,0-6.4c0-1.8,0-3.6,0-5.5l3.7,0c0,1.9,0,3.8,0,5.6C88.1,1491.1,88,1493.3,88,1495.3z
		 M635.7,1488.3l-3.7,0c0-3.6,0-7.6,0.1-12l3.7,0.1C635.7,1480.7,635.7,1484.8,635.7,1488.3z M84.2,1471.2c-0.1-3.8-0.2-7.8-0.3-12
		l3.7-0.1c0.1,4.2,0.2,8.2,0.3,12L84.2,1471.2z M636,1464.3l-3.7-0.1c0.1-3.8,0.2-7.8,0.3-12l3.7,0.1
		C636.2,1456.5,636.1,1460.5,636,1464.3z M83.6,1447.2c-0.1-3.9-0.2-7.9-0.4-12l3.7-0.1c0.1,4.1,0.3,8.1,0.4,12L83.6,1447.2z
		 M636.7,1440.3l-3.7-0.1c0.1-3.9,0.3-7.9,0.4-12l3.7,0.1C637,1432.4,636.8,1436.4,636.7,1440.3z M82.8,1423.2
		c-0.1-3.9-0.3-7.9-0.5-12l3.7-0.1c0.2,4.1,0.3,8.1,0.5,12L82.8,1423.2z M637.5,1416.3l-3.7-0.1c0.1-3.9,0.3-7.9,0.5-12l3.7,0.1
		C637.9,1408.3,637.7,1412.3,637.5,1416.3z M81.8,1399.2c-0.2-3.9-0.3-7.9-0.5-12l3.7-0.2c0.2,4.1,0.3,8.1,0.5,12L81.8,1399.2z
		 M638.5,1392.3l-3.7-0.2c0.2-4,0.3-8,0.5-12l3.7,0.2C638.8,1384.3,638.7,1388.3,638.5,1392.3z M80.8,1375.1c-0.2-4-0.4-8-0.5-12
		l3.7-0.2c0.2,4,0.4,8,0.5,12L80.8,1375.1z M639.5,1368.2l-3.7-0.2c0.2-4,0.4-8,0.5-12l3.7,0.2
		C639.9,1360.3,639.7,1364.3,639.5,1368.2z M79.7,1351.1c-0.2-4-0.4-8-0.6-12l3.7-0.2c0.2,4,0.4,8,0.6,12L79.7,1351.1z
		 M640.6,1344.2l-3.7-0.2c0.2-4,0.4-8,0.6-12l3.7,0.2C641,1336.2,640.8,1340.3,640.6,1344.2z M78.6,1327.1c-0.2-4-0.4-8-0.6-12
		l3.7-0.2c0.2,4,0.4,8,0.6,12L78.6,1327.1z M641.8,1320.2l-3.7-0.2l0.6-12l3.7,0.2L641.8,1320.2z M77.4,1303.2l-0.6-12l3.7-0.2
		l0.6,12L77.4,1303.2z M643,1296.2l-3.7-0.2l0.6-12l3.7,0.2L643,1296.2z M76.2,1279.1l-0.6-12l3.7-0.2l0.6,12L76.2,1279.1z
		 M644.2,1272.2l-3.7-0.2l0.6-12l3.7,0.2L644.2,1272.2z M74.9,1255.1l-0.6-12l3.7-0.2l0.6,12L74.9,1255.1z M645.5,1248.2l-3.7-0.2
		l0.6-12l3.7,0.2L645.5,1248.2z M73.7,1231.1l-0.6-12l3.7-0.2l0.6,12L73.7,1231.1z M646.8,1224.2l-3.7-0.2l0.7-12l3.7,0.2
		L646.8,1224.2z M72.4,1207.1l-0.7-12l3.7-0.2l0.7,12L72.4,1207.1z M648.1,1200.2l-3.7-0.2l0.7-12l3.7,0.2L648.1,1200.2z M71,1183.1
		l-0.7-12l3.7-0.2l0.7,12L71,1183.1z M649.4,1176.2l-3.7-0.2l0.7-12l3.7,0.2L649.4,1176.2z M69.7,1159.1l-0.7-12l3.7-0.2l0.7,12
		L69.7,1159.1z M650.8,1152.2l-3.7-0.2l0.7-12l3.7,0.2L650.8,1152.2z M68.3,1135.1l-0.7-12l3.7-0.2l0.7,12L68.3,1135.1z
		 M652.1,1128.2l-3.7-0.2l0.7-12l3.7,0.2L652.1,1128.2z M66.9,1111.1l-0.7-12l3.7-0.2l0.7,12L66.9,1111.1z M653.5,1104.1l-3.7-0.2
		l0.7-11l0.1-1.1l3.7,0.4l-0.1,1L653.5,1104.1z M65.2,1087.2c-0.4-3.9-0.8-7.9-1.1-12l3.7-0.3c0.4,4.1,0.7,8.1,1.1,11.9L65.2,1087.2
		z M655.5,1080.2l-3.7-0.3c0.4-3.9,0.7-7.9,1.1-11.9l3.7,0.3C656.2,1072.3,655.9,1076.3,655.5,1080.2z M63.1,1063.2
		c-0.3-3.9-0.6-7.9-0.9-12l3.7-0.3c0.3,4.1,0.6,8,0.9,12L63.1,1063.2z M657.5,1056.3l-3.7-0.3c0.3-3.9,0.6-7.9,0.8-12l3.7,0.2
		C658.1,1048.3,657.8,1052.3,657.5,1056.3z M61.4,1039.2c-0.3-3.9-0.5-7.9-0.7-12l3.7-0.2c0.2,4,0.5,8,0.7,12L61.4,1039.2z
		 M659.1,1032.3l-3.7-0.2c0.2-3.9,0.5-7.9,0.7-12l3.7,0.2C659.6,1024.3,659.4,1028.3,659.1,1032.3z M60,1015.2c-0.2-4-0.4-8-0.6-12
		l3.7-0.2c0.2,4,0.4,8,0.6,12L60,1015.2z M660.4,1008.3l-3.7-0.2c0.2-4,0.4-8,0.6-12l3.7,0.2
		C660.8,1000.3,660.6,1004.3,660.4,1008.3z M58.8,991.2c-0.2-4-0.3-8-0.5-12L62,979c0.2,4,0.3,8,0.5,12L58.8,991.2z M661.5,984.3
		l-3.7-0.2c0.2-4,0.3-8,0.5-12l3.7,0.1C661.8,976.3,661.7,980.3,661.5,984.3z M57.9,967.2c-0.1-4-0.3-8-0.4-12l3.7-0.1
		c0.1,4,0.3,8,0.4,12L57.9,967.2z M662.4,960.2l-3.7-0.1c0.1-4,0.3-8,0.4-12l3.7,0.1C662.7,952.2,662.5,956.2,662.4,960.2z
		 M57.1,943.2c-0.1-4-0.2-8-0.3-12l3.7-0.1c0.1,4,0.2,8,0.3,12L57.1,943.2z M663.1,936.2l-3.7-0.1c0.1-4,0.2-8,0.3-12l3.7,0.1
		C663.4,928.2,663.2,932.2,663.1,936.2z M56.5,919.2c-0.1-4-0.2-8-0.3-12l3.7-0.1c0.1,4,0.2,8,0.3,12L56.5,919.2z M663.7,912.2
		l-3.7-0.1c0.1-4,0.2-8,0.2-12l3.7,0.1C663.9,904.2,663.8,908.2,663.7,912.2z M56,895.2c-0.1-4-0.1-8-0.2-12l3.7-0.1
		c0.1,4,0.1,8,0.2,12L56,895.2z M664.2,888.2l-3.7-0.1c0.1-4,0.1-8,0.2-12l3.7,0.1C664.3,880.2,664.3,884.2,664.2,888.2z
		 M55.6,871.1c-0.1-4-0.1-8-0.2-12l3.7,0c0,4,0.1,8,0.2,12L55.6,871.1z M664.5,864.2l-3.7,0c0.1-4,0.1-8,0.1-12l3.7,0
		C664.6,856.2,664.6,860.2,664.5,864.2z M55.3,847.1c0-4-0.1-8-0.1-12l3.7,0c0,4,0.1,8,0.1,12L55.3,847.1z M664.8,840.2l-3.7,0
		c0-4,0.1-8,0.1-12l3.7,0C664.9,832.1,664.8,836.1,664.8,840.2z M55.1,823.1c0-4,0-8-0.1-12l3.7,0c0,4,0,8,0.1,12L55.1,823.1z
		 M665,816.1l-3.7,0c0-4,0-8,0.1-12l3.7,0C665,808.1,665,812.1,665,816.1z M55,799c0-4,0-8.1,0-12l3.7,0c0,4,0,8,0,12L55,799z
		 M665.1,792.1l-3.7,0c0-4.1,0-8.1,0-12l3.7,0C665.1,784,665.1,788.1,665.1,792.1z M58.7,775l-3.7,0c0-4.1,0-8.1,0-12l3.7,0
		C58.7,767,58.7,771,58.7,775z M661.4,768.1c0-4.1,0-8.1,0-12l3.7,0c0,3.9,0,7.9,0,12L661.4,768.1z M58.7,751l-3.7,0
		c0-4.1,0-8.1,0-12l3.7,0C58.8,742.9,58.7,746.9,58.7,751z M661.3,744.1c0-4.1,0-8.1-0.1-12l3.7,0c0,3.9,0,7.9,0.1,12L661.3,744.1z
		 M58.8,727l-3.7,0c0-4.1,0.1-8.1,0.1-12l3.7,0C58.9,718.9,58.9,722.9,58.8,727z M661.2,720.1c0-4.1-0.1-8.2-0.1-12l3.7,0
		c0,3.9,0.1,7.9,0.1,12L661.2,720.1z M59,703l-3.7,0c0-4.2,0.1-8.2,0.1-12l3.7,0C59.1,694.8,59.1,698.8,59,703z M661,696.1
		c0-4.2-0.1-8.3-0.1-12l3.7,0c0,3.7,0.1,7.8,0.1,12L661,696.1z M59.3,679l-3.7,0c0.1-4.5,0.1-8.5,0.2-12l3.7,0.1
		C59.4,670.5,59.4,674.5,59.3,679z M660.7,672.1c-0.1-4.7-0.1-8.7-0.2-12l3.7-0.1c0.1,3.3,0.1,7.3,0.2,12L660.7,672.1z M59.6,655
		l-3.7-0.1l0.1-4.4c0.2-2.6,0.4-5.2,0.5-7.7l3.7,0.3c-0.2,2.5-0.4,5-0.5,7.6L59.6,655z M660.2,648.2c-0.3-4-0.6-8-0.9-12l3.7-0.3
		c0.3,4,0.6,7.9,0.9,12L660.2,648.2z M61.2,631.1l-3.7-0.3c0.3-4,0.6-8,0.9-12l3.7,0.3C61.8,623.1,61.5,627.1,61.2,631.1z
		 M658.4,624.2c-0.3-4-0.6-8-0.9-12l3.7-0.3c0.3,4,0.6,7.9,0.9,12L658.4,624.2z M63,607.2l-3.7-0.3c0.3-4,0.7-8,1-12l3.7,0.3
		C63.7,599.2,63.4,603.2,63,607.2z M656.5,600.3c-0.3-4-0.7-8-1-12l3.7-0.3c0.3,3.9,0.7,7.9,1,12L656.5,600.3z M65.1,583.3l-3.7-0.3
		c0.4-4,0.7-8,1.1-12l3.7,0.3C65.8,575.3,65.4,579.3,65.1,583.3z M654.4,576.4c-0.4-4-0.7-8-1.1-11.9l3.7-0.3
		c0.4,3.9,0.7,7.9,1.1,12L654.4,576.4z M67.3,559.4l-3.7-0.4c0.4-4,0.8-8,1.2-12l3.7,0.4C68,551.4,67.6,555.4,67.3,559.4z
		 M652.1,552.5c-0.4-4-0.8-8-1.2-11.9l3.7-0.4c0.4,3.9,0.8,7.9,1.2,11.9L652.1,552.5z M69.6,535.6l-3.7-0.4c0.4-4,0.8-8,1.2-11.9
		l3.7,0.4C70.4,527.6,70,531.5,69.6,535.6z M649.8,528.7c-0.4-4-0.8-8-1.3-11.9l3.7-0.4c0.4,3.9,0.8,7.9,1.3,11.9L649.8,528.7z
		 M72.1,511.7l-3.7-0.4c0.4-4,0.9-8,1.3-11.9l3.7,0.4C73,503.7,72.6,507.7,72.1,511.7z M647.2,504.8c-0.4-4-0.9-8-1.4-11.9l3.7-0.4
		c0.5,3.9,0.9,7.9,1.4,11.9L647.2,504.8z M74.8,487.9l-3.7-0.4c0.5-4,0.9-8,1.4-11.9l3.7,0.4C75.8,479.9,75.3,483.8,74.8,487.9z
		 M644.4,481c-0.5-4-1-8-1.4-11.9l3.7-0.5c0.5,3.9,1,7.9,1.4,11.9L644.4,481z M77.7,464.1l-3.7-0.5c0.5-4,1-8,1.5-11.9l3.7,0.5
		C78.7,456.1,78.2,460,77.7,464.1z M641.5,457.2c-0.5-4-1-8-1.5-11.9l3.7-0.5c0.5,3.9,1,7.9,1.6,11.9L641.5,457.2z M80.8,440.3
		l-3.7-0.5c0.5-4,1.1-8,1.6-11.9l3.7,0.5C81.9,432.3,81.3,436.2,80.8,440.3z M638.3,433.4c-0.6-4-1.1-8-1.7-11.9l3.7-0.5
		c0.6,3.9,1.1,7.9,1.7,11.9L638.3,433.4z M84.1,416.5l-3.7-0.5c0.6-4,1.2-8,1.7-11.9l3.7,0.5C85.3,408.5,84.7,412.5,84.1,416.5z
		 M635,409.6c-0.6-4-1.2-8-1.8-11.9l3.7-0.6c0.6,3.9,1.2,7.8,1.8,11.9L635,409.6z M87.7,392.8l-3.7-0.6c0.6-4.1,1.3-8,1.9-11.9
		l3.7,0.6C88.9,384.8,88.3,388.7,87.7,392.8z M631.3,385.9c-0.6-4.1-1.3-8-1.9-11.8l3.7-0.6c0.6,3.8,1.3,7.8,1.9,11.9L631.3,385.9z
		 M91.5,369.1l-3.7-0.6c0.7-4.1,1.4-8,2-11.8l3.7,0.6C92.8,361.1,92.1,365.1,91.5,369.1z M627.4,362.3c-0.7-4.1-1.4-8-2.1-11.8
		l3.7-0.7c0.7,3.8,1.4,7.8,2.1,11.8L627.4,362.3z M95.6,345.5l-3.6-0.7c0.7-4.1,1.5-8,2.2-11.8l3.6,0.7
		C97,337.5,96.3,341.4,95.6,345.5z M623.2,338.7c-0.8-4.1-1.5-8-2.2-11.8l3.6-0.7c0.7,3.8,1.5,7.7,2.2,11.8L623.2,338.7z M100,321.9
		l-3.6-0.7c0.8-4.2,1.6-8.1,2.4-11.8l3.6,0.8C101.6,313.9,100.9,317.8,100,321.9z M618.7,315.2c-0.8-4.2-1.7-8.1-2.4-11.7l3.6-0.8
		c0.8,3.7,1.6,7.6,2.4,11.8L618.7,315.2z M104.9,298.5l-3.6-0.8c0.9-4,1.8-8,2.6-11.7l3.6,0.8C106.7,290.5,105.8,294.5,104.9,298.5z
		 M613.7,291.7c-0.9-4-1.8-7.9-2.7-11.7l3.6-0.9c0.9,3.7,1.8,7.7,2.7,11.7L613.7,291.7z M110.3,275.2l-3.6-0.9
		c1.5-5.9,2.5-9.4,2.8-10.7l0.3-1l3.5,1.2l-0.3,0.9C112.8,265.8,111.8,269.3,110.3,275.2z M608,268.5c-0.5-1.9-0.9-3.2-1.1-3.9
		c-0.8-2.4-1.7-4.9-2.6-7.4l3.5-1.3c0.9,2.4,1.8,5,2.6,7.5c0.2,0.8,0.6,2.1,1.1,4L608,268.5z M117.4,252.5l-3.5-1.3
		c1.4-3.8,2.9-7.6,4.4-11.2l3.4,1.4C120.3,245,118.8,248.7,117.4,252.5z M600.2,246c-1.5-3.7-3-7.5-4.5-11.1l3.4-1.4
		c1.5,3.6,3.1,7.4,4.5,11.2L600.2,246z M126.4,230.3l-3.4-1.5c1.6-3.7,3.3-7.4,5-11l3.4,1.6C129.6,223,128,226.7,126.4,230.3z
		 M590.9,224c-1.7-3.6-3.4-7.3-5.1-10.8l3.3-1.6c1.8,3.5,3.5,7.2,5.2,10.9L590.9,224z M136.6,208.7l-3.3-1.7
		c1.8-3.6,3.7-7.2,5.7-10.6l3.2,1.8C140.3,201.6,138.4,205.2,136.6,208.7z M580.2,202.6c-1.9-3.5-3.9-7-5.8-10.4l3.2-1.9
		c2,3.4,4,7,5.9,10.5L580.2,202.6z M148.2,187.9L145,186c2.1-3.5,4.2-6.9,6.4-10.2l3.1,2C152.4,181,150.2,184.4,148.2,187.9z
		 M568.2,182c-2.1-3.4-4.3-6.7-6.5-10l3.1-2.1c2.2,3.3,4.5,6.7,6.6,10.1L568.2,182z M161.2,167.9l-3-2.1c2.3-3.3,4.7-6.6,7.2-9.7
		l2.9,2.3C165.9,161.4,163.5,164.6,161.2,167.9z M554.8,162.3c-2.4-3.2-4.8-6.4-7.3-9.4l2.9-2.3c2.5,3.1,5,6.3,7.4,9.5L554.8,162.3z
		 M175.8,148.9l-2.8-2.4c1.3-1.5,2.5-3,3.8-4.5c1.4-1.6,2.8-3.1,4.1-4.7l2.7,2.5c-1.4,1.5-2.7,3-4.1,4.6
		C178.3,146,177,147.5,175.8,148.9z M539.8,143.7c-2.6-3-5.3-5.9-8.1-8.8l2.7-2.6c2.8,2.9,5.5,5.9,8.2,8.9L539.8,143.7z
		 M191.8,131.3l-2.6-2.6c2.8-2.9,5.8-5.7,8.7-8.4l2.5,2.7C197.5,125.7,194.6,128.5,191.8,131.3z M523.4,126.5
		c-2.9-2.7-5.8-5.4-8.8-8l2.4-2.8c3,2.6,6,5.4,8.9,8.1L523.4,126.5z M209.4,115.2l-2.4-2.8c3.1-2.6,6.3-5.1,9.4-7.5l2.2,3
		C215.5,110.1,212.4,112.6,209.4,115.2z M505.4,110.9c-3.1-2.5-6.3-4.9-9.5-7.2l2.2-3c3.2,2.3,6.5,4.8,9.6,7.3L505.4,110.9z
		 M228.3,100.8l-2.1-3.1c3.3-2.3,6.7-4.5,10.1-6.6l2,3.2C234.9,96.3,231.6,98.5,228.3,100.8z M486.1,97c-3.3-2.2-6.7-4.3-10.1-6.2
		l1.9-3.2c3.5,2,6.9,4.1,10.3,6.3L486.1,97z M248.6,88.2l-1.8-3.2c2.2-1.2,4.4-2.4,6.6-3.5c1.4-0.7,2.8-1.4,4.2-2.1l1.6,3.3
		c-1.4,0.7-2.7,1.4-4.1,2.1C252.9,85.9,250.7,87,248.6,88.2z M465.5,85l-0.4-0.2c-3.4-1.7-6.8-3.4-10.3-5l1.5-3.4
		c3.5,1.6,7,3.3,10.4,5.1l0.5,0.2L465.5,85z M269.9,77.7l-1.5-3.4c3.7-1.6,7.5-3.1,11.2-4.5l1.3,3.5
		C277.3,74.6,273.6,76.1,269.9,77.7z M443.8,75.1c-3.7-1.5-7.4-2.9-11.2-4.2l1.2-3.5c3.8,1.3,7.6,2.7,11.3,4.2L443.8,75.1z
		 M292.2,69.3l-1.1-3.5c3.8-1.2,7.7-2.4,11.6-3.4l1,3.6C299.9,67,296,68.1,292.2,69.3z M421.3,67.3c-3.8-1.1-7.7-2.1-11.5-3l0.9-3.6
		c3.9,0.9,7.8,1.9,11.7,3.1L421.3,67.3z M315.3,63.2l-0.8-3.6c4-0.8,8-1.6,11.9-2.2l0.6,3.7C323.1,61.7,319.2,62.4,315.3,63.2z
		 M398.1,61.9c-3.4-0.6-6.8-1.1-10.1-1.6l-1.5,0l0.1-3.7l1.8,0.1c3.4,0.4,6.9,1,10.4,1.6L398.1,61.9z M374.5,59.9l-12-0.3l0.1-3.7
		l12,0.3L374.5,59.9z M338.8,59.6l-0.3-3.7c4.3-0.4,7.1-0.5,7.8-0.5l4.4,0.1l-0.1,3.7l-4.3-0.1C345.6,59.1,343,59.2,338.8,59.6z"/>
</g>
<g>
	<g>
		<path class="st2" d="M355.1,2272.3L355.1,2272.3c-58.9-0.9-111-7.1-155-18.4c-35.2-9-65.3-21.4-89.4-36.7
			c-39.9-25.3-50-50-51-52.7c-33.7-59.4-26.5-341.7-26.1-353.7l0-0.2c2-15.4-3.9-304.1-4-307l0-0.1l0-0.1
			c3.9-34.7-17.6-399.3-18-405.4c-15.8-148.2-10-446.4-10-449.4l0-0.1c19.7-278.8,55.6-399.3,56-400.4
			c19.2-57,46.4-105.3,80.7-143.7C165.8,73.5,198,49,233.9,31.4C290.5,3.7,339,2.2,346.2,2.1c1.4-0.7,6.1-1.6,26.8,0
			c2.8,0,53.4,0,113.1,29.3c35.9,17.6,68,42.1,95.5,72.9c34.3,38.4,61.5,86.8,80.7,143.7c0.4,1.2,36.2,121.7,56,400.5l0,0.1
			c0.1,3,5.8,301.3-10,449.4c-0.4,6.4-21.9,370.7-18,405.4l0,0.1l0,0.1c-0.1,2.9-6,291.6-4,307l0,0.2c0.3,12,7.6,294.3-26.1,353.7
			c-1,2.7-11.1,27.4-51,52.7c-24.1,15.3-54.2,27.6-89.4,36.7c-43.9,11.3-96.1,17.5-154.9,18.4H355.1z M355.1,2267.8h9.9
			c58.3-0.9,109.9-7,153.4-18.1c34.7-8.9,64.4-21,88.1-35.9c40.3-25.4,49.6-50.6,49.7-50.9l0.2-0.4c33-57.5,25.8-344.5,25.6-351.4
			c-1.9-16.9,3.7-293.6,4-307.4c-3.9-36.1,17.1-391,18-406.1l0-0.1c15.7-147.2,10.1-443.4,10-448.9
			c-19.7-278.1-55.4-398.2-55.8-399.4c-19-56.3-45.8-104.1-79.8-142.1c-27.1-30.3-58.8-54.5-94.1-71.8C424.1,6,373.5,6.6,373,6.6
			l-0.1,0l-0.1,0c-9.2-0.7-19.9-1.1-23.5-0.7v0.8l-2.3,0c-0.5,0-51.2-0.6-111.4,28.9c-35.3,17.3-67,41.5-94,71.8
			c-33.9,38-60.7,85.7-79.7,142c-0.3,1.1-36.1,121.2-55.8,399.3c-0.1,5.5-5.7,301.6,10,448.9l0,0.1c0.9,15.1,21.9,370,18,406.1
			c0.3,13.8,5.9,290.5,4,307.4c-0.2,6.9-7.3,293.9,25.6,351.4l0.2,0.4c0.1,0.2,9.4,25.5,49.7,50.9c23.7,15,53.4,27,88.1,35.9
			C245.2,2260.8,296.8,2266.9,355.1,2267.8z"/>
	</g>
	<g>
		<g>
			<g>
				<path class="st3" d="M416.9,587.2c-5.6,0-10.2-4.7-10.2-10.5s4.6-10.5,10.2-10.5s10.2,4.7,10.2,10.5S422.5,587.2,416.9,587.2z
					 M416.9,570.7c-3.1,0-5.7,2.7-5.7,6s2.5,6,5.7,6s5.7-2.7,5.7-6S420,570.7,416.9,570.7z"/>
			</g>
		</g>
		<g>
			<g>
				<path class="st3" d="M303.1,587.2c-5.6,0-10.1-4.7-10.1-10.5s4.6-10.5,10.1-10.5s10.1,4.7,10.1,10.5S308.7,587.2,303.1,587.2z
					 M303.1,570.7c-3.1,0-5.6,2.7-5.6,6s2.5,6,5.6,6s5.6-2.7,5.6-6S306.2,570.7,303.1,570.7z"/>
			</g>
		</g>
		<g>
			<g>
				<path class="st3" d="M416.9,431c-5.6,0-10.2-4.7-10.2-10.5s4.6-10.5,10.2-10.5s10.2,4.7,10.2,10.5S422.5,431,416.9,431z
					 M416.9,414.4c-3.1,0-5.7,2.7-5.7,6s2.5,6,5.7,6s5.7-2.7,5.7-6S420,414.4,416.9,414.4z"/>
			</g>
		</g>
		<g>
			<g>
				<path class="st3" d="M303.1,431c-5.6,0-10.1-4.7-10.1-10.5s4.6-10.5,10.1-10.5s10.1,4.7,10.1,10.5S308.7,431,303.1,431z
					 M303.1,414.4c-3.1,0-5.6,2.7-5.6,6s2.5,6,5.6,6s5.6-2.7,5.6-6S306.2,414.4,303.1,414.4z"/>
			</g>
		</g>
	</g>
	<g>
		<g>
			<g>
				<path class="st3" d="M416.9,1789.8c-5.6,0-10.2-4.7-10.2-10.5s4.6-10.5,10.2-10.5s10.2,4.7,10.2,10.5S422.5,1789.8,416.9,1789.8
					z M416.9,1773.2c-3.1,0-5.7,2.7-5.7,6s2.5,6,5.7,6s5.7-2.7,5.7-6S420,1773.2,416.9,1773.2z"/>
			</g>
		</g>
		<g>
			<g>
				<path class="st3" d="M303.1,1789.8c-5.6,0-10.1-4.7-10.1-10.5s4.6-10.5,10.1-10.5s10.1,4.7,10.1,10.5S308.7,1789.8,303.1,1789.8
					z M303.1,1773.2c-3.1,0-5.6,2.7-5.6,6s2.5,6,5.6,6s5.6-2.7,5.6-6S306.2,1773.2,303.1,1773.2z"/>
			</g>
		</g>
		<g>
			<g>
				<path class="st3" d="M416.9,1633.5c-5.6,0-10.2-4.7-10.2-10.5s4.6-10.5,10.2-10.5s10.2,4.7,10.2,10.5S422.5,1633.5,416.9,1633.5
					z M416.9,1617c-3.1,0-5.7,2.7-5.7,6s2.5,6,5.7,6s5.7-2.7,5.7-6S420,1617,416.9,1617z"/>
			</g>
		</g>
		<g>
			<g>
				<path class="st3" d="M303.1,1633.5c-5.6,0-10.1-4.7-10.1-10.5s4.6-10.5,10.1-10.5s10.1,4.7,10.1,10.5S308.7,1633.5,303.1,1633.5
					z M303.1,1617c-3.1,0-5.6,2.7-5.6,6s2.5,6,5.6,6s5.6-2.7,5.6-6S306.2,1617,303.1,1617z"/>
			</g>
		</g>
	</g>
</g>
</svg>
