<?xml version="1.0" encoding="utf-8"?>
<!-- Generator: Adobe Illustrator 26.3.1, SVG Export Plug-In . SVG Version: 6.00 Build 0)  -->
<svg version="1.1" id="Layer_1" xmlns="http://www.w3.org/2000/svg" xmlns:xlink="http://www.w3.org/1999/xlink" x="0px" y="0px"
	 viewBox="0 0 614.4 2290.9" style="enable-background:new 0 0 614.4 2290.9;" xml:space="preserve">
<style type="text/css">
	.st0{fill:#38E841;}
	.st1{fill:#ED1E77;}
	.st2{fill:#7900FF;}
	.st3{fill:#005EFF;}
</style>
<g>
	<path class="st0" d="M286,2263.1L286,2263.1c-43.2-0.4-81.7-6.6-114.3-18.4c-25.5-9.2-47.6-21.9-65.5-37.7
		c-29.2-25.7-38.2-51.3-39.2-54.2l-0.4-1.5l-0.5-1c-43.4-106.8-40.1-355.7-40.1-358.2l2-1216.7c5.1-149.6,28.4-262.4,47.2-330.6
		c19.5-70.9,37.8-109.3,39.8-113.5c17.2-32.5,44.7-59.2,79.5-77.3c33.2-17.2,71.8-26.4,111.8-26.4c38.7,0,76,8.6,107.8,24.7
		c33,16.8,59,41.4,75.2,71.3c0.9,1.7,21.9,42.7,43.8,117.4c20.5,70,46,184.7,51,334.2l2,1216.8c0,2.5,3.4,251.3-40.1,358.1l-0.6,1.5
		l-0.2,0.9c-1,2.9-10,28.6-39.2,54.2c-18,15.8-40,28.4-65.5,37.7c-32.6,11.8-71.1,18-114.3,18.4H286z M286,2260.2h40.3
		c42.8-0.4,81-6.6,113.3-18.2c25.2-9.1,46.9-21.6,64.6-37.1c29.1-25.5,37.9-51.7,38.3-52.8l0.3-1.1l0.7-1.6
		c43.2-106.2,39.9-354.5,39.8-357l-2-1216.8c-5.1-149.1-30.5-263.6-50.9-333.4c-21.8-74.5-42.7-115.2-43.6-116.9
		c-15.8-29.3-41.4-53.6-73.9-70.1c-31.4-16-68.3-24.4-106.5-24.4c-39.5,0-77.7,9-110.4,26c-34.3,17.8-61.3,44.1-78.2,76
		c-2,4.1-20.2,42.2-39.6,112.9c-18.7,68.1-42,180.6-47.1,329.9l-2,1216.7c0,2.5-3.4,250.9,39.8,357l0.6,1.3l0.4,1.6
		c0.3,1,9.1,27.2,38.3,52.7c17.7,15.5,39.4,28,64.6,37.1C205.1,2253.6,243.2,2259.7,286,2260.2z"/>
</g>
<g>
	<path class="st1" d="M322.1,2236.7h-12v-3.7h12V2236.7z M298.1,2236.7h-11.9c-4.1,0-8.1-0.1-12.1-0.3l0.1-3.7
		c3.9,0.1,7.9,0.2,11.9,0.3l11.9,0V2236.7z M334.2,2236.6l-0.1-3.7c4-0.1,8.1-0.3,11.9-0.5l0.2,3.7
		C342.3,2236.3,338.2,2236.5,334.2,2236.6z M262.1,2235.8c-4.1-0.3-8.1-0.6-12-1l0.4-3.7c3.9,0.4,7.9,0.7,11.9,1L262.1,2235.8z
		 M358.2,2235.2l-0.3-3.7c4-0.3,8-0.8,11.9-1.2l0.4,3.7C366.3,2234.4,362.3,2234.9,358.2,2235.2z M238.1,2233.4
		c-4-0.5-8.1-1.1-11.9-1.8l0.6-3.7c3.8,0.7,7.8,1.3,11.8,1.8L238.1,2233.4z M382.2,2232.3l-0.6-3.7c4-0.6,7.9-1.3,11.7-2.1l0.7,3.6
		C390.2,2230.9,386.2,2231.7,382.2,2232.3z M214.3,2229.4c-4-0.8-7.9-1.8-11.8-2.8l0.9-3.6c3.8,1,7.7,1.9,11.6,2.7L214.3,2229.4z
		 M405.9,2227.6l-0.9-3.6c3.9-1,7.8-2,11.5-3.1l1,3.6C413.8,2225.6,409.8,2226.6,405.9,2227.6z M190.9,2223.3
		c-3.4-1.1-6.8-2.2-10-3.4c-0.5-0.2-1-0.3-1.4-0.5l1.3-3.5c0.5,0.2,0.9,0.3,1.4,0.5c3.2,1.2,6.5,2.3,9.9,3.3L190.9,2223.3z
		 M429.1,2220.8l-1.2-3.5c0.8-0.3,1.6-0.6,2.4-0.9c3-1.1,5.9-2.2,8.7-3.4l1.4,3.4c-2.9,1.2-5.9,2.3-8.9,3.4
		C430.7,2220.2,429.9,2220.5,429.1,2220.8z M168.2,2214.9c-3.7-1.6-7.4-3.4-11-5.2l1.7-3.3c3.5,1.8,7.1,3.5,10.7,5.1L168.2,2214.9z
		 M451.4,2211.5l-1.6-3.3c3.6-1.7,7.1-3.6,10.5-5.5l1.8,3.2C458.7,2207.9,455.1,2209.8,451.4,2211.5z M146.6,2203.8
		c-3.5-2.1-6.9-4.3-10.2-6.6l2.1-3c3.2,2.2,6.5,4.4,9.9,6.5L146.6,2203.8z M472.5,2199.5l-2.1-3.1c3.3-2.2,6.5-4.6,9.6-7l2.3,2.9
		C479.2,2194.9,475.9,2197.3,472.5,2199.5z M126.8,2189.8c-1-0.8-2-1.7-3-2.5c-2.1-1.8-4.1-3.7-6-5.6l2.6-2.6
		c1.9,1.9,3.9,3.7,5.9,5.5c1,0.8,1.9,1.7,2.9,2.5L126.8,2189.8z M491.6,2184.5l-2.5-2.7c2.9-2.7,5.7-5.5,8.3-8.4l2.8,2.5
		C497.4,2178.8,494.5,2181.7,491.6,2184.5z M109.6,2172.7c-2.6-3.1-5.1-6.4-7.4-9.7l3.1-2.1c2.2,3.2,4.6,6.4,7.1,9.4L109.6,2172.7z
		 M507.8,2166.4l-3-2.2c2.4-3.2,4.6-6.6,6.5-9.9l3.2,1.9C512.5,2159.6,510.2,2163,507.8,2166.4z M95.9,2152.5
		c-1.9-3.5-2.9-6.1-3.3-7.2l-0.1-0.2l-0.7-2.7l-0.5-1l3.4-1.6l0.7,1.5l0.7,2.8c0.4,1,1.4,3.4,3.1,6.7L95.9,2152.5z M519.9,2144.9
		l-3.6-0.9l0.4-1.6l1.3-3.3c0.8-2.1,1.7-4.2,2.5-6.5l3.5,1.3c-0.8,2.3-1.7,4.5-2.5,6.6l-1.3,3.2L519.9,2144.9z M86.9,2130
		c-1.3-3.6-2.5-7.5-3.7-11.5l3.6-1.1c1.2,4,2.4,7.8,3.6,11.4L86.9,2130z M527.9,2122.4l-3.5-1.1c1.1-3.6,2.3-7.5,3.3-11.5l3.6,1
		C530.2,2114.8,529.1,2118.7,527.9,2122.4z M80,2106.8c-1-3.8-1.9-7.7-2.9-11.7l3.6-0.8c0.9,4,1.9,7.9,2.8,11.6L80,2106.8z
		 M534.3,2099.1l-3.6-0.9c0.9-3.7,1.8-7.7,2.6-11.7l3.6,0.8C536.1,2091.4,535.2,2095.3,534.3,2099.1z M74.6,2083.3
		c-0.8-3.8-1.6-7.8-2.3-11.8l3.6-0.7c0.7,4,1.5,8,2.3,11.8L74.6,2083.3z M539.3,2075.5l-3.6-0.7c0.7-3.8,1.5-7.8,2.2-11.8l3.7,0.6
		C540.8,2067.7,540.1,2071.7,539.3,2075.5z M70.2,2059.6c-0.7-3.9-1.3-7.9-1.9-11.9l3.7-0.6c0.6,4,1.2,8,1.9,11.8L70.2,2059.6z
		 M543.5,2051.8l-3.7-0.6c0.6-3.9,1.2-7.9,1.8-11.9l3.7,0.5C544.7,2043.9,544.1,2047.9,543.5,2051.8z M66.5,2035.8
		c-0.5-3.9-1.1-7.9-1.6-11.9l3.7-0.5c0.5,4,1,8,1.6,11.9L66.5,2035.8z M546.9,2028l-3.7-0.5c0.5-3.9,1-7.9,1.5-11.9l3.7,0.4
		C547.9,2020,547.4,2024,546.9,2028z M63.5,2012c-0.5-4-0.9-8-1.3-12l3.7-0.4c0.4,4,0.9,8,1.3,11.9L63.5,2012z M549.8,2004.1
		l-3.7-0.4c0.4-4,0.9-7.9,1.3-11.9l3.7,0.4C550.6,1996.1,550.2,2000.1,549.8,2004.1z M60.9,1988.1c-0.4-4-0.8-8-1.1-12l3.7-0.3
		c0.4,4,0.7,8,1.1,11.9L60.9,1988.1z M552.2,1980.1l-3.7-0.3c0.4-4,0.7-8,1-12l3.7,0.3C552.9,1972.1,552.5,1976.1,552.2,1980.1z
		 M58.8,1964.1c-0.3-4-0.6-8-0.9-12l3.7-0.3c0.3,4,0.6,8,0.9,12L58.8,1964.1z M554.2,1956.2l-3.7-0.3c0.3-4,0.6-8,0.9-12l3.7,0.3
		C554.8,1948.1,554.5,1952.1,554.2,1956.2z M57,1940.1c-0.3-4-0.5-8-0.8-12l3.7-0.2c0.2,4,0.5,8,0.8,12L57,1940.1z M555.9,1932.2
		l-3.7-0.2c0.3-4,0.5-8,0.7-12l3.7,0.2C556.3,1924.1,556.1,1928.1,555.9,1932.2z M55.6,1916.1c-0.2-4-0.4-8-0.6-12l3.7-0.2
		c0.2,4,0.4,8,0.6,12L55.6,1916.1z M557.2,1908.1l-3.7-0.2c0.2-4,0.4-8,0.6-12l3.7,0.2C557.6,1900.1,557.4,1904.1,557.2,1908.1z
		 M54.4,1892.1c-0.2-4.1-0.3-8.1-0.5-12l3.7-0.1c0.1,3.9,0.3,7.9,0.5,12L54.4,1892.1z M558.3,1884.1l-3.7-0.1
		c0.2-4.1,0.3-8.1,0.4-12l3.7,0.1C558.6,1876,558.4,1880,558.3,1884.1z M53.5,1868c-0.1-4.1-0.2-8.1-0.3-12l3.7-0.1
		c0.1,3.9,0.2,7.9,0.3,12L53.5,1868z M559.1,1860.1l-3.7-0.1c0.1-4.1,0.2-8.1,0.3-12l3.7,0.1C559.3,1852,559.2,1856,559.1,1860.1z
		 M52.9,1844c-0.1-4.1-0.1-8.1-0.2-12l3.7,0c0.1,3.9,0.1,7.9,0.2,12L52.9,1844z M559.6,1836l-3.7-0.1c0.1-4.1,0.1-8.2,0.1-12l3.7,0
		C559.7,1827.9,559.6,1831.9,559.6,1836z M52.6,1819.9c0-3.3,0-6.5,0-9.6l0-2.4l3.7,0l0,2.4c0,3.1,0,6.2,0,9.6L52.6,1819.9z
		 M559.8,1812l-3.7,0l0-1.5c0-3.7,0-7.2,0-10.5l3.7,0c0,3.3,0,6.8,0,10.6L559.8,1812z M56.4,1795.9l-3.7,0c0-1.1,0-2.2,0-3.3l0-8.7
		l3.7,0l0,8.7C56.4,1793.7,56.4,1794.8,56.4,1795.9z M555.9,1788l0-12l3.7,0l0,12L555.9,1788z M56.5,1771.9l-3.7,0l0-12l3.7,0
		L56.5,1771.9z M555.9,1763.9l0-12l3.7,0l0,12L555.9,1763.9z M56.5,1747.9l-3.7,0l0-12l3.7,0L56.5,1747.9z M555.8,1739.9l0-12l3.7,0
		l0,12L555.8,1739.9z M56.5,1723.9l-3.7,0l0-12l3.7,0L56.5,1723.9z M555.8,1715.9l0-12l3.7,0l0,12L555.8,1715.9z M56.6,1699.9
		l-3.7,0l0-12l3.7,0L56.6,1699.9z M555.8,1691.9l0-12l3.7,0l0,12L555.8,1691.9z M56.6,1675.9l-3.7,0l0-12l3.7,0L56.6,1675.9z
		 M555.7,1667.9l0-12l3.7,0l0,12L555.7,1667.9z M56.7,1651.9l-3.7,0l0-12l3.7,0L56.7,1651.9z M555.7,1643.9l0-12l3.7,0l0,12
		L555.7,1643.9z M56.7,1627.9l-3.7,0l0-12l3.7,0L56.7,1627.9z M555.6,1619.9l0-12l3.7,0l0,12L555.6,1619.9z M56.7,1603.9l-3.7,0
		l0-12l3.7,0L56.7,1603.9z M555.6,1595.9l0-12l3.7,0l0,12L555.6,1595.9z M56.8,1579.8l-3.7,0l0-12l3.7,0L56.8,1579.8z M555.6,1571.9
		l0-12l3.7,0l0,12L555.6,1571.9z M56.8,1555.8l-3.7,0l0-12l3.7,0L56.8,1555.8z M555.5,1547.9l0-12l3.7,0l0,12L555.5,1547.9z
		 M56.9,1531.8l-3.7,0l0-12l3.7,0L56.9,1531.8z M555.5,1523.9l0-12l3.7,0l0,12L555.5,1523.9z M56.9,1507.8l-3.7,0l0-12l3.7,0
		L56.9,1507.8z M555.4,1499.9l0-12l3.7,0l0,12L555.4,1499.9z M56.9,1483.8l-3.7,0l0-12l3.7,0L56.9,1483.8z M555.4,1475.9l0-12l3.7,0
		l0,12L555.4,1475.9z M57,1459.8l-3.7,0l0-12l3.7,0L57,1459.8z M555.4,1451.9l0-12l3.7,0l0,12L555.4,1451.9z M57,1435.8l-3.7,0l0-12
		l3.7,0L57,1435.8z M555.3,1427.9l0-12l3.7,0l0,12L555.3,1427.9z M57.1,1411.8l-3.7,0l0-12l3.7,0L57.1,1411.8z M555.3,1403.9l0-12
		l3.7,0l0,12L555.3,1403.9z M57.1,1387.8l-3.7,0l0-12l3.7,0L57.1,1387.8z M555.3,1379.9l0-12l3.7,0l0,12L555.3,1379.9z M57.1,1363.8
		l-3.7,0l0-12l3.7,0L57.1,1363.8z M555.2,1355.9l0-12l3.7,0l0,12L555.2,1355.9z M57.2,1339.8l-3.7,0l0-12l3.7,0L57.2,1339.8z
		 M555.2,1331.9l0-12l3.7,0l0,12L555.2,1331.9z M57.2,1315.8l-3.7,0l0-12l3.7,0L57.2,1315.8z M555.1,1307.9l0-12l3.7,0l0,12
		L555.1,1307.9z M57.2,1291.8l-3.7,0l0-12l3.7,0L57.2,1291.8z M555.1,1283.9l0-12l3.7,0l0,12L555.1,1283.9z M57.3,1267.8l-3.7,0
		l0-12l3.7,0L57.3,1267.8z M555.1,1259.8l0-12l3.7,0l0,12L555.1,1259.8z M57.3,1243.8l-3.7,0l0-12l3.7,0L57.3,1243.8z M555,1235.8
		l0-12l3.7,0l0,12L555,1235.8z M57.4,1219.8l-3.7,0l0-12l3.7,0L57.4,1219.8z M555,1211.8l0-12l3.7,0l0,12L555,1211.8z M57.4,1195.8
		l-3.7,0l0-12l3.7,0L57.4,1195.8z M554.9,1187.8l0-12l3.7,0l0,12L554.9,1187.8z M57.4,1171.8l-3.7,0l0-12l3.7,0L57.4,1171.8z
		 M554.9,1163.8l0-12l3.7,0l0,12L554.9,1163.8z M57.5,1147.8l-3.7,0l0-12l3.7,0L57.5,1147.8z M554.9,1139.8l0-12l3.7,0l0,12
		L554.9,1139.8z M57.5,1123.8l-3.7,0l0-12l3.7,0L57.5,1123.8z M554.8,1115.8l0-12l3.7,0l0,12L554.8,1115.8z M57.6,1099.8l-3.7,0
		l0-12l3.7,0L57.6,1099.8z M554.8,1091.8l0-12l3.7,0l0,12L554.8,1091.8z M57.6,1075.7l-3.7,0l0-12l3.7,0L57.6,1075.7z M554.7,1067.8
		l0-12l3.7,0l0,12L554.7,1067.8z M57.6,1051.7l-3.7,0l0-12l3.7,0L57.6,1051.7z M554.7,1043.8l0-12l3.7,0l0,12L554.7,1043.8z
		 M57.7,1027.7l-3.7,0l0-12l3.7,0L57.7,1027.7z M554.7,1019.8l0-12l3.7,0l0,12L554.7,1019.8z M57.7,1003.7l-3.7,0l0-12l3.7,0
		L57.7,1003.7z M554.6,995.8l0-12l3.7,0l0,12L554.6,995.8z M57.8,979.7l-3.7,0l0-12l3.7,0L57.8,979.7z M554.6,971.8l0-12l3.7,0l0,12
		L554.6,971.8z M57.8,955.7l-3.7,0l0-12l3.7,0L57.8,955.7z M554.5,947.8l0-12l3.7,0l0,12L554.5,947.8z M57.8,931.7l-3.7,0l0-12
		l3.7,0L57.8,931.7z M554.5,923.8l0-12l3.7,0l0,12L554.5,923.8z M57.9,907.7l-3.7,0l0-12l3.7,0L57.9,907.7z M554.5,899.8l0-12l3.7,0
		l0,12L554.5,899.8z M57.9,883.7l-3.7,0l0-12l3.7,0L57.9,883.7z M554.4,875.8l0-12l3.7,0l0,12L554.4,875.8z M58,859.7l-3.7,0l0-12
		l3.7,0L58,859.7z M554.4,851.8l0-12l3.7,0l0,12L554.4,851.8z M58,835.7l-3.7,0l0-12l3.7,0L58,835.7z M554.3,827.8l0-12l3.7,0l0,12
		L554.3,827.8z M58,811.7l-3.7,0l0-12l3.7,0L58,811.7z M554.3,803.8l0-12l3.7,0l0,12L554.3,803.8z M58.1,787.7l-3.7,0l0-12l3.7,0
		L58.1,787.7z M554.3,779.8l0-12l3.7,0l0,12L554.3,779.8z M58.1,763.7l-3.7,0l0-12l3.7,0L58.1,763.7z M554.2,755.7l0-12l3.7,0l0,12
		L554.2,755.7z M58.2,739.7l-3.7,0l0-12l3.7,0L58.2,739.7z M554.2,731.7l0-12l3.7,0l0,12L554.2,731.7z M58.2,715.7l-3.7,0l0-12
		l3.7,0L58.2,715.7z M554.1,707.7l0-12l3.7,0l0,12L554.1,707.7z M58.2,691.7l-3.7,0l0-12l3.7,0L58.2,691.7z M554.1,683.7l0-12l3.7,0
		l0,12L554.1,683.7z M58.3,667.7l-3.7,0l0-12l3.7,0L58.3,667.7z M554.1,659.7l0-12l3.7,0l0,12L554.1,659.7z M58.3,643.7l-3.7,0l0-12
		l3.7,0L58.3,643.7z M554,635.7l0-12l3.7,0l0,12L554,635.7z M58.4,619.7l-3.7,0l0-12l3.7,0L58.4,619.7z M554,611.7l0-12l3.7,0l0,12
		L554,611.7z M58.4,595.7l-3.7,0l0-12l3.7,0L58.4,595.7z M553.9,587.7l0-11.9l3.7-0.1l0,0.3l0,11.8L553.9,587.7z M58.6,571.7
		l-3.7-0.1c0.1-4,0.3-8,0.5-12l3.7,0.2C58.9,563.7,58.7,567.7,58.6,571.7z M553.5,563.8c-0.2-4-0.4-8-0.6-12l3.7-0.2
		c0.2,4,0.4,8,0.6,12L553.5,563.8z M59.6,547.8l-3.7-0.2c0.2-4,0.4-8,0.7-12l3.7,0.2C60.1,539.7,59.8,543.7,59.6,547.8z
		 M552.3,539.8c-0.2-4-0.5-8-0.7-12l3.7-0.2c0.3,4,0.5,8,0.7,12L552.3,539.8z M61,523.8l-3.7-0.2c0.3-4,0.5-8,0.8-12l3.7,0.3
		C61.6,515.8,61.3,519.8,61,523.8z M550.7,515.9c-0.3-4-0.6-8-0.9-12l3.7-0.3c0.3,4,0.6,8,0.9,12L550.7,515.9z M62.8,499.9l-3.7-0.3
		c0.3-4,0.7-8,1-12l3.7,0.3C63.4,491.9,63.1,495.9,62.8,499.9z M548.7,492c-0.4-4-0.7-8-1.1-11.9l3.7-0.4c0.4,4,0.8,7.9,1.1,12
		L548.7,492z M64.9,476l-3.7-0.4c0.4-4,0.8-8,1.2-12l3.7,0.4C65.7,468,65.3,472,64.9,476z M546.3,468.2c-0.4-4-0.9-8-1.3-11.9
		l3.7-0.4c0.5,3.9,0.9,7.9,1.3,11.9L546.3,468.2z M67.4,452.2l-3.7-0.4c0.4-4,0.9-8,1.4-11.9l3.7,0.4
		C68.3,444.2,67.8,448.2,67.4,452.2z M543.6,444.4c-0.5-4-1-8-1.5-11.9l3.7-0.5c0.5,3.9,1,7.9,1.5,11.9L543.6,444.4z M70.2,428.4
		l-3.7-0.5c0.5-4,1-8,1.6-11.9l3.7,0.5C71.2,420.4,70.7,424.4,70.2,428.4z M540.4,420.6c-0.6-4-1.1-8-1.7-11.9l3.7-0.6
		c0.6,3.9,1.2,7.9,1.7,11.9L540.4,420.6z M73.4,404.6l-3.7-0.5c0.6-4,1.2-8,1.8-11.9l3.7,0.6C74.6,396.7,74,400.6,73.4,404.6z
		 M536.8,396.9c-0.6-4-1.3-7.9-1.9-11.8l3.7-0.6c0.7,3.9,1.3,7.9,2,11.9L536.8,396.9z M77.1,380.9l-3.7-0.6c0.6-4,1.3-8,2-11.9
		l3.7,0.6C78.4,373,77.7,376.9,77.1,380.9z M532.8,373.3c-0.7-4-1.4-7.9-2.2-11.8l3.6-0.7c0.7,3.9,1.5,7.8,2.2,11.8L532.8,373.3z
		 M81.1,357.3l-3.6-0.7c0.7-4,1.4-7.9,2.2-11.8l3.6,0.7C82.5,349.4,81.8,353.3,81.1,357.3z M528.4,349.7c-0.8-4-1.6-7.9-2.4-11.7
		l3.6-0.8c0.8,3.9,1.6,7.8,2.4,11.8L528.4,349.7z M85.5,333.7l-3.6-0.7c0.8-4,1.6-7.9,2.4-11.8l3.6,0.8
		C87.1,325.8,86.3,329.7,85.5,333.7z M523.5,326.2c-0.9-4-1.7-7.9-2.6-11.7l3.6-0.8c0.9,3.8,1.7,7.8,2.6,11.7L523.5,326.2z
		 M90.4,310.3l-3.6-0.8c0.9-4,1.7-7.9,2.6-11.7l3.6,0.8C92.2,302.4,91.3,306.3,90.4,310.3z M518.2,302.9c-0.9-4-1.9-7.8-2.8-11.6
		l3.6-0.9c1,3.8,1.9,7.7,2.9,11.7L518.2,302.9z M95.8,286.9l-3.6-0.9c1-4,1.9-7.9,2.9-11.7l3.6,0.9C97.7,279,96.7,282.9,95.8,286.9z
		 M512.4,279.6c-1-4-2.1-7.8-3.1-11.6l3.6-1c1,3.8,2.1,7.6,3.1,11.6L512.4,279.6z M101.6,263.7l-3.6-0.9c1-3.8,2-7.4,2.9-10.9
		l0.2-0.7l3.6,1l-0.2,0.7C103.6,256.3,102.6,259.9,101.6,263.7z M506.1,256.5c-0.7-2.3-1.3-4.6-2-6.9c-0.5-1.6-0.9-3.1-1.4-4.6
		l3.6-1.1c0.5,1.5,0.9,3.1,1.4,4.6c0.7,2.3,1.3,4.6,2,6.9L506.1,256.5z M108,240.5l-3.6-1c1.1-3.9,2.3-7.8,3.4-11.5l3.5,1.1
		C110.2,232.8,109.1,236.7,108,240.5z M499.2,233.5c-1.2-3.8-2.4-7.7-3.6-11.4l3.5-1.1c1.2,3.7,2.4,7.6,3.6,11.5L499.2,233.5z
		 M114.9,217.6l-3.5-1.1c1.2-3.8,2.5-7.7,3.7-11.4l3.5,1.2C117.3,210,116.1,213.8,114.9,217.6z M491.8,210.7
		c-1.3-3.8-2.6-7.6-3.9-11.3l3.5-1.2c1.3,3.7,2.6,7.5,3.9,11.4L491.8,210.7z M122.4,194.9l-3.5-1.2c1.3-3.8,2.7-7.7,4-11.3l3.5,1.3
		C125.1,187.3,123.7,191,122.4,194.9z M483.8,188.2c-1.4-3.8-2.8-7.5-4.3-11.2l3.5-1.3c1.4,3.7,2.9,7.5,4.3,11.2L483.8,188.2z
		 M130.6,172.4l-3.5-1.3c1.5-3.9,3-7.6,4.5-11.2l3.4,1.4C133.6,164.8,132.1,168.6,130.6,172.4z M475.1,165.9
		c-1.6-3.8-3.1-7.5-4.7-11l3.4-1.5c1.5,3.6,3.1,7.3,4.7,11.1L475.1,165.9z M139.8,150.3l-3.4-1.5c1.3-3,2.2-4.8,2.5-5.5
		c1-1.9,2-3.6,3-5.4l3.2,1.9c-1,1.7-2,3.4-2.9,5.2C141.9,145.5,141,147.4,139.8,150.3z M465.5,143.9c-1.7-3.6-2.7-5.7-3-6.2
		c-0.8-1.4-1.6-2.8-2.4-4.3l3.2-1.9c0.9,1.5,1.7,3,2.5,4.4c0.3,0.6,1.4,2.7,3.1,6.4L465.5,143.9z M151.5,129.8l-3-2.1
		c2.3-3.3,4.8-6.5,7.4-9.6l2.8,2.4C156.2,123.5,153.8,126.6,151.5,129.8z M453.6,123.6c-2.3-3.2-4.8-6.3-7.4-9.2l2.8-2.4
		c2.7,3.1,5.2,6.3,7.6,9.5L453.6,123.6z M166.7,111.6L164,109c2.8-2.9,5.8-5.7,8.8-8.4l2.4,2.8C172.3,106.1,169.4,108.8,166.7,111.6
		z M438,105.8c-2.8-2.7-5.8-5.4-8.9-7.9l2.3-2.9c3.1,2.6,6.2,5.3,9.1,8.1L438,105.8z M184.5,96l-2.2-3c3.2-2.4,6.5-4.8,9.9-7l2,3.1
		C190.9,91.3,187.6,93.6,184.5,96z M419.7,90.7c-3.2-2.2-6.6-4.4-10-6.4l1.9-3.2c3.5,2.1,6.9,4.3,10.2,6.6L419.7,90.7z M204.4,83
		l-1.8-3.2c1.4-0.8,2.9-1.6,4.4-2.3c2.1-1.1,4.3-2.2,6.4-3.2l1.6,3.4c-2.1,1-4.2,2.1-6.3,3.1C207.2,81.5,205.8,82.3,204.4,83z
		 M399.3,78.7c-3.5-1.7-7.1-3.4-10.8-5l1.4-3.4c3.7,1.6,7.4,3.3,11,5.1L399.3,78.7z M225.8,72.9l-1.4-3.4c3.7-1.5,7.5-2.9,11.4-4.2
		l1.2,3.5C233.2,70.1,229.5,71.4,225.8,72.9z M377.4,69.5c-3.7-1.3-7.5-2.5-11.3-3.6l1-3.6c3.9,1.1,7.8,2.3,11.6,3.6L377.4,69.5z
		 M248.4,65.4l-1-3.6c3.9-1,7.8-2,11.8-2.8l0.8,3.6C256.1,63.4,252.2,64.4,248.4,65.4z M354.5,63c-3.8-0.8-7.8-1.6-11.7-2.2l0.6-3.7
		c4,0.7,8,1.4,11.9,2.3L354.5,63z M271.7,60.5l-0.6-3.7c4-0.6,8-1.1,12-1.5l0.4,3.7C279.5,59.4,275.6,59.9,271.7,60.5z M331,59.2
		c-3.9-0.4-7.9-0.8-11.9-1l0.2-3.7c4,0.2,8.1,0.6,12.1,1L331,59.2z M295.3,58.1l-0.2-3.7c3.7-0.2,7.5-0.3,11.2-0.3l0.9,0l0,3.7
		l-0.8,0C302.7,57.8,299,57.9,295.3,58.1z"/>
</g>
<g>
	<g>
		<path class="st2" d="M326.5,2290.7h-40.6c-47.6-0.5-90.1-7.5-126.3-21.1c-29.1-10.9-54.2-25.8-74.7-44.6
			c-34.2-31.3-43.8-61.9-44.5-64.5c-13.1-32.3-30.4-98-38.3-226.9c-4.7-77.1-3.8-141.2-3.7-141.9L0.3,575
			C5.5,421.4,29.7,305.6,49,235.6c21-76,41.1-116.3,41.3-116.7c19.7-37.4,51.1-68.2,90.7-88.9C218,10.7,260.8,0.4,305,0.2
			c91.9-0.4,171.9,42,209,110.7c0.2,0.4,22.6,42.7,45.8,120.6c21.4,71.9,48.1,189.8,53.2,343.4l1,1216.9c0,0.6,0.9,64.8-3.7,141.9
			c-4.3,71.2-14.5,168.3-38.3,226.9c-0.7,2.5-10.3,33.2-44.5,64.5c-20.5,18.7-45.6,33.7-74.7,44.6
			C416.6,2283.1,374.1,2290.2,326.5,2290.7z M306.4,4.7c-0.5,0-0.9,0-1.4,0C261.5,4.9,219.4,15,183.2,34
			c-38.8,20.3-69.5,50.4-88.8,87c-0.2,0.4-20.1,40.3-41,116C34,306.7,10,422.1,4.8,575.1l-2,1216.7c0,2.6-3.5,256.1,41.7,367.2
			l0.1,0.2c0.1,0.3,9.3,31.6,43.5,62.7c20.1,18.3,44.7,32.9,73.2,43.5c35.7,13.3,77.6,20.3,124.6,20.7h40.6
			c47-0.4,89-7.4,124.8-20.8c28.5-10.6,53.2-25.3,73.2-43.7c34.1-31.1,43.2-62.2,43.2-62.5l0.1-0.2
			c45.2-111.1,41.8-364.6,41.7-367.1l-1-1216.8c-5.1-152.9-31.7-270.4-53-342c-23.1-77.6-45.3-119.5-45.5-120
			C473.9,46.1,396,4.7,306.4,4.7z"/>
	</g>
	<g>
		<g>
			<g>
				<path class="st3" d="M363.1,649.3c-5.6,0-10.2-4.6-10.2-10.2c0-5.6,4.6-10.2,10.2-10.2s10.1,4.6,10.1,10.2
					C373.2,644.7,368.7,649.3,363.1,649.3z M363.1,633.4c-3.1,0-5.7,2.5-5.7,5.7s2.5,5.7,5.7,5.7s5.6-2.5,5.6-5.7
					S366.2,633.4,363.1,633.4z"/>
			</g>
		</g>
		<g>
			<g>
				<path class="st3" d="M249.3,649.3c-5.6,0-10.1-4.6-10.1-10.2c0-5.6,4.6-10.2,10.1-10.2s10.1,4.6,10.1,10.2
					C259.4,644.7,254.9,649.3,249.3,649.3z M249.3,633.4c-3.1,0-5.6,2.5-5.6,5.7s2.5,5.7,5.6,5.7s5.6-2.5,5.6-5.7
					S252.4,633.4,249.3,633.4z"/>
			</g>
		</g>
		<g>
			<g>
				<path class="st3" d="M363.1,499.5c-5.6,0-10.2-4.6-10.2-10.2c0-5.6,4.6-10.2,10.2-10.2s10.1,4.6,10.1,10.2
					C373.2,495,368.7,499.5,363.1,499.5z M363.1,483.7c-3.1,0-5.7,2.5-5.7,5.7s2.5,5.7,5.7,5.7s5.6-2.5,5.6-5.7
					S366.2,483.7,363.1,483.7z"/>
			</g>
		</g>
		<g>
			<g>
				<path class="st3" d="M249.3,499.5c-5.6,0-10.1-4.6-10.1-10.2c0-5.6,4.6-10.2,10.1-10.2s10.1,4.6,10.1,10.2
					C259.4,495,254.9,499.5,249.3,499.5z M249.3,483.7c-3.1,0-5.6,2.5-5.6,5.7s2.5,5.7,5.6,5.7s5.6-2.5,5.6-5.7
					S252.4,483.7,249.3,483.7z"/>
			</g>
		</g>
	</g>
	<g>
		<g>
			<g>
				<path class="st3" d="M363.1,1807.3c-5.6,0-10.2-4.6-10.2-10.2s4.6-10.2,10.2-10.2s10.1,4.6,10.1,10.2S368.7,1807.3,363.1,1807.3
					z M363.1,1791.4c-3.1,0-5.7,2.5-5.7,5.7s2.5,5.7,5.7,5.7s5.6-2.5,5.6-5.7S366.2,1791.4,363.1,1791.4z"/>
			</g>
		</g>
		<g>
			<g>
				<path class="st3" d="M249.3,1807.3c-5.6,0-10.1-4.6-10.1-10.2s4.6-10.2,10.1-10.2s10.1,4.6,10.1,10.2S254.9,1807.3,249.3,1807.3
					z M249.3,1791.4c-3.1,0-5.6,2.5-5.6,5.7s2.5,5.7,5.6,5.7s5.6-2.5,5.6-5.7S252.4,1791.4,249.3,1791.4z"/>
			</g>
		</g>
		<g>
			<g>
				<path class="st3" d="M363.1,1657.5c-5.6,0-10.2-4.6-10.2-10.2c0-5.6,4.6-10.2,10.2-10.2s10.1,4.6,10.1,10.2
					C373.2,1653,368.7,1657.5,363.1,1657.5z M363.1,1641.7c-3.1,0-5.7,2.5-5.7,5.7c0,3.1,2.5,5.7,5.7,5.7s5.6-2.5,5.6-5.7
					C368.7,1644.2,366.2,1641.7,363.1,1641.7z"/>
			</g>
		</g>
		<g>
			<g>
				<path class="st3" d="M249.3,1657.5c-5.6,0-10.1-4.6-10.1-10.2c0-5.6,4.6-10.2,10.1-10.2s10.1,4.6,10.1,10.2
					C259.4,1653,254.9,1657.5,249.3,1657.5z M249.3,1641.7c-3.1,0-5.6,2.5-5.6,5.7c0,3.1,2.5,5.7,5.6,5.7s5.6-2.5,5.6-5.7
					C254.9,1644.2,252.4,1641.7,249.3,1641.7z"/>
			</g>
		</g>
	</g>
</g>
</svg>
