<?xml version="1.0" encoding="utf-8"?>
<!-- Generator: Adobe Illustrator 26.3.1, SVG Export Plug-In . SVG Version: 6.00 Build 0)  -->
<svg version="1.1" id="Layer_1" xmlns="http://www.w3.org/2000/svg" xmlns:xlink="http://www.w3.org/1999/xlink" x="0px" y="0px"
	 viewBox="0 0 676.5 2165.1" style="enable-background:new 0 0 676.5 2165.1;" xml:space="preserve">
<style type="text/css">
	.st0{fill:#005EFF;}
	.st1{fill:#7900FF;}
	.st2{fill:#38E841;}
	.st3{fill:#ED1E77;}
</style>
<g>
	<g>
		<g>
			<g>
				<g>
					<g>
						<path class="st0" d="M393.3,1527.8c-6.8,0-12.3-5.7-12.2-12.5c0-6.9,5.6-12.5,12.4-12.4c6.8,0,12.4,5.7,12.3,12.6
							C405.8,1522.4,400.1,1527.9,393.3,1527.8z M393.4,1507.5c-4.3,0-7.8,3.6-7.8,8s3.5,7.9,7.8,7.9s7.9-3.6,7.9-7.9
							C401.3,1511.1,397.7,1507.6,393.4,1507.5z"/>
					</g>
				</g>
			</g>
			<g>
				<g>
					<g>
						<path class="st0" d="M393.3,1527.8c-6.8,0-12.3-5.7-12.2-12.5c0-6.9,5.6-12.5,12.4-12.4c6.8,0,12.4,5.7,12.3,12.6
							C405.8,1522.4,400.1,1527.9,393.3,1527.8z M393.4,1507.5c-4.3,0-7.8,3.6-7.8,8s3.5,7.9,7.8,7.9s7.9-3.6,7.9-7.9
							C401.3,1511.1,397.7,1507.6,393.4,1507.5z"/>
					</g>
				</g>
			</g>
		</g>
		<g>
			<g>
				<g>
					<g>
						<path class="st0" d="M283.8,1527.2c-6.8,0-12.3-5.7-12.2-12.5c0-6.9,5.6-12.5,12.4-12.4c6.8,0,12.4,5.7,12.3,12.6
							C296.2,1521.7,290.6,1527.2,283.8,1527.2z M283.9,1506.9c-4.3,0-7.8,3.6-7.8,8s3.5,7.9,7.8,7.9s7.9-3.6,7.9-7.9
							C291.7,1510.4,288.2,1506.9,283.9,1506.9z"/>
					</g>
				</g>
			</g>
			<g>
				<g>
					<g>
						<path class="st0" d="M283.8,1527.2c-6.8,0-12.3-5.7-12.2-12.5c0-6.9,5.6-12.5,12.4-12.4c6.8,0,12.4,5.7,12.3,12.6
							C296.2,1521.7,290.6,1527.2,283.8,1527.2z M283.9,1506.9c-4.3,0-7.8,3.6-7.8,8s3.5,7.9,7.8,7.9s7.9-3.6,7.9-7.9
							C291.7,1510.4,288.2,1506.9,283.9,1506.9z"/>
					</g>
				</g>
			</g>
		</g>
		<g>
			<g>
				<g>
					<g>
						<path class="st0" d="M392.4,1673.1c-6.8,0-12.3-5.7-12.2-12.6c0-6.9,5.6-12.4,12.4-12.3c6.8,0,12.4,5.7,12.3,12.5
							C404.9,1667.6,399.2,1673.2,392.4,1673.1z M392.5,1652.7c-4.3,0-7.8,3.6-7.8,7.9c0,4.4,3.5,8,7.8,8s7.9-3.6,7.9-8
							S396.8,1652.8,392.5,1652.7z"/>
					</g>
				</g>
			</g>
			<g>
				<g>
					<g>
						<path class="st0" d="M392.4,1673.1c-6.8,0-12.3-5.7-12.2-12.6c0-6.9,5.6-12.4,12.4-12.3c6.8,0,12.4,5.7,12.3,12.5
							C404.9,1667.6,399.2,1673.2,392.4,1673.1z M392.5,1652.7c-4.3,0-7.8,3.6-7.8,7.9c0,4.4,3.5,8,7.8,8s7.9-3.6,7.9-8
							S396.8,1652.8,392.5,1652.7z"/>
					</g>
				</g>
			</g>
		</g>
		<g>
			<g>
				<g>
					<g>
						<path class="st0" d="M282.9,1672.5c-6.8,0-12.3-5.7-12.2-12.6c0-6.9,5.6-12.4,12.4-12.3c6.8,0,12.4,5.7,12.3,12.5
							C295.3,1666.9,289.7,1672.5,282.9,1672.5z M283,1652.1c-4.3,0-7.8,3.6-7.8,7.9c0,4.4,3.5,8,7.8,8s7.9-3.6,7.9-8
							C290.8,1655.6,287.3,1652.1,283,1652.1z"/>
					</g>
				</g>
			</g>
			<g>
				<g>
					<g>
						<path class="st0" d="M282.9,1672.5c-6.8,0-12.3-5.7-12.2-12.6c0-6.9,5.6-12.4,12.4-12.3c6.8,0,12.4,5.7,12.3,12.5
							C295.3,1666.9,289.7,1672.5,282.9,1672.5z M283,1652.1c-4.3,0-7.8,3.6-7.8,7.9c0,4.4,3.5,8,7.8,8s7.9-3.6,7.9-8
							C290.8,1655.6,287.3,1652.1,283,1652.1z"/>
					</g>
				</g>
			</g>
		</g>
	</g>
</g>
<g>
	<path class="st1" d="M308.2,2164.8c-71.1,0-126.5-13.9-160.5-25.6c-36.9-12.7-56.7-25.2-57.5-25.7l-0.1-0.1
		c-24.8-18.7-42.5-59.4-52.8-121.1c-7.6-45.7-8-86.5-8-86.9l1.3-190.1V1509v-0.1c3.9-44.9-21.1-409.8-21.3-413.5
		C-6.6,872.9,1.2,621,1.2,618.5c4.1-123.3,20.6-217,33.7-273.9c14.2-61.7,27.6-94.8,27.7-95.1c22.6-54.5,51-101.6,84.4-139.8
		c26.8-30.6,56.8-55.7,89.2-74.4c55.4-32,99.3-34.8,99.8-34.8h0.1l9.3-0.1c1.8,0,43.9-0.3,98.7,28.7c32.1,17,61.9,40.7,88.5,70.3
		c33.2,37,61.4,83.4,84,138v0.1c0.1,0.4,15.1,42.1,29.7,109.6c13.5,62.3,29.4,159.9,28.9,271.4c0.1,2.4,7.8,254.3-8,476.9
		c-0.3,3.7-25.2,368.6-21.3,413.4v0.2v206.2l1.3,190.1c0,0.4-0.4,41.2-8,86.9c-10.2,61.7-28,102.4-52.7,121l-0.1,0.1
		c-0.8,0.5-20.6,13-57.5,25.7c-34,11.7-89.4,25.6-160.5,25.6L308.2,2164.8z M92.7,2109.7c1.3,0.8,21.3,13.1,56.6,25.2
		c33.6,11.5,88.5,25.3,158.9,25.3l60.2-0.1c70.4,0,125.2-13.7,158.9-25.3c35.4-12.1,55.3-24.4,56.6-25.2
		c56.9-43,58.8-202.7,58.8-204.3l-1.3-190.1v-206.1c-3.9-45.6,20.3-399,21.3-414.1c15.8-222.3,8.1-474,8-476.5
		c0.3-61.4-4.5-158.1-28.8-270.6c-14.3-66.3-29-107.5-29.5-109c-22.3-54-50.3-100-83-136.6c-26.2-29.2-55.5-52.6-87.1-69.4
		c-54-28.3-96.5-28.1-96.9-28L336.2,5c-1.6,0.1-44.3,3.2-98,34.3c-32,18.6-61.6,43.3-88,73.5c-33,37.8-61.1,84.4-83.4,138.5
		c-0.1,0.3-13.4,33.1-27.5,94.5c-13,56.7-29.4,150-33.5,272.9c-0.1,2.5-7.8,254.2,8,476.5c1,15,25.2,368.4,21.3,414.1v206.1
		l-1.3,190.1C33.8,1907,35.7,2066.6,92.7,2109.7z"/>
</g>
<g>
	<path class="st2" d="M308.2,2137L308.2,2137c-66.2,0-117.8-12.7-149.5-23.4c-29.8-10.1-47.9-20.1-52.7-23l-0.2-0.1
		c-10.3-8.3-29.4-32.7-41.1-102.1c-7.1-42.5-7.7-81.4-7.7-83.1l1.3-190.1v-205.3c3.6-50.9-18.8-379.2-21.4-416.5
		c-15.7-221.2-8-471.6-8-474.1c4.1-120,20-211.3,32.7-266.7c13.5-59.2,26.2-91.2,26.7-92.5c20.3-49.2,45.6-91.9,75.1-126.9
		c23.8-28.3,50.4-51.6,79.2-69.5c50.1-31.1,90.1-35.2,94.5-35.6h0.1l8.5-0.1c1.6,0,39.7,0.4,88.8,27.3
		c28.7,15.8,55.4,37.5,79.3,64.6c30.1,34.1,56,77,76.9,127.4c1.6,4.4,15.3,44.4,28.8,106.7c13.1,60.7,28.6,155.8,28.1,264.4v0.5v0.4
		c0.1,2.5,7.7,253.4-7.9,474.1c-2.6,37.3-24.9,365.6-21.4,416.5v0.1v205.3l1.3,189.8c0,1.7-0.6,40.6-7.7,83.1
		c-5,29.8-17,82.8-41,102l-0.2,0.1c-4.8,2.8-22.9,12.9-52.7,23c-31.6,10.7-83.3,23.4-149.5,23.4L308.2,2137z M107.6,2088.1
		c4.9,2.9,22.7,12.8,52.1,22.7c31.4,10.6,82.7,23.2,148.5,23.2l60.2-0.1c65.8,0,117.1-12.6,148.6-23.2
		c30.1-10.1,48.4-20.5,52.1-22.7c23.2-18.7,34.9-70.7,39.8-100.1c7.1-42.3,7.7-81,7.7-82.6l-1.3-189.8v-205.3
		c-3.5-51.3,18.8-379.6,21.4-416.9c15.7-220.5,8-471.3,7.9-473.8V619v-0.5c0.5-108.3-14.9-203.2-28-263.7
		c-13.4-62.1-27.1-102-28.6-106.3c-20.7-50-46.4-92.6-76.4-126.5c-23.7-26.9-50.1-48.4-78.5-64c-48.4-26.6-85.7-26.9-87.3-26.9
		l-8.4,0.1c-4.6,0.4-43.8,4.5-93.1,35.1c-28.5,17.7-54.9,40.8-78.5,68.9c-29.3,34.7-54.4,77.2-74.6,126.1
		c-0.5,1.3-13.1,33-26.6,92.1C51.9,408.6,36,499.6,32,619.5c-0.1,2.5-7.8,252.8,7.9,473.8c2.6,37.3,24.9,365.6,21.4,416.9v205.1
		l-1.3,190c0,1.6,0.6,40.3,7.7,82.6C79.1,2056.2,97.6,2080,107.6,2088.1z"/>
</g>
<g>
	<path class="st3" d="M308.1,2110.4c-4,0-8.1-0.1-12-0.2l0.1-3.7c3.9,0.1,7.9,0.2,11.9,0.2V2110.4z M317.9,2110.3v-3.7h12v3.7H317.9
		z M341.9,2110.3v-3.7h12v3.7H341.9z M365.8,2110.3v-3.7h2.6c3.1,0,6.3-0.1,9.4-0.2l0.1,3.7c-3.1,0.1-6.2,0.2-9.4,0.2H365.8z
		 M284.1,2109.6c-4-0.2-8.1-0.4-12-0.7l0.3-3.7c3.9,0.3,7.9,0.5,11.9,0.7L284.1,2109.6z M389.9,2109.6l-0.2-3.7
		c4-0.2,8-0.4,11.9-0.7l0.2,3.7C397.9,2109.2,393.9,2109.4,389.9,2109.6z M413.8,2108l-0.3-3.7c4-0.4,8-0.8,11.9-1.2l0.4,3.7
		C421.9,2107.2,417.8,2107.6,413.8,2108z M260.1,2107.9c-4-0.4-8-0.8-12-1.3l0.4-3.7c3.9,0.5,7.9,0.9,11.9,1.3L260.1,2107.9z
		 M437.7,2105.3l-0.5-3.7c4-0.6,7.9-1.2,11.8-1.8l0.6,3.7C445.7,2104.1,441.7,2104.7,437.7,2105.3z M236.3,2105.1
		c-4-0.6-8-1.2-11.9-1.9l0.6-3.7c3.8,0.7,7.8,1.3,11.8,1.9L236.3,2105.1z M461.4,2101.3l-0.7-3.6c3.9-0.8,7.8-1.6,11.6-2.5l0.8,3.6
		C469.3,2099.6,465.4,2100.5,461.4,2101.3z M212.6,2100.9c-4-0.8-7.9-1.7-11.7-2.6l0.9-3.6c3.8,0.9,7.7,1.8,11.6,2.6L212.6,2100.9z
		 M484.9,2095.8l-1-3.6c3.8-1,7.7-2.1,11.5-3.3l1.1,3.5C492.6,2093.7,488.7,2094.8,484.9,2095.8z M189.2,2095.3
		c-3.9-1.1-7.8-2.2-11.5-3.4l1.1-3.5c3.7,1.2,7.6,2.3,11.4,3.4L189.2,2095.3z M507.9,2088.8l-1.2-3.5c3.7-1.3,7.5-2.6,11.2-4.1
		l1.3,3.5C515.5,2086.1,511.7,2087.5,507.9,2088.8z M166.2,2088c-3.8-1.3-7.6-2.7-11.3-4.2l1.4-3.5c3.7,1.4,7.4,2.8,11.2,4.2
		L166.2,2088z M530.4,2080.2l-1.4-3.4c3.6-1.5,7.3-3.1,10.9-4.8l1.6,3.4C537.7,2077,534,2078.7,530.4,2080.2z M143.8,2079.2
		c-3.6-1.6-7.3-3.2-11-4.9l1.6-3.4c3.6,1.7,7.3,3.3,10.9,4.9L143.8,2079.2z M552.2,2070.2l-1.7-3.3c0.9-0.4,1.7-0.9,2.5-1.3
		c1.6-1.6,3.3-3.7,5-6.4l3.1,2c-1.9,3-3.9,5.5-5.7,7.2l-0.2,0.2l-0.2,0.1C554.1,2069.2,553.2,2069.7,552.2,2070.2z M122,2069.1
		l-0.6-0.3l-0.2-0.2c-1.6-1.6-4.2-4.5-7.2-9.6l3.2-1.9c2.7,4.5,4.9,7.2,6.4,8.6l0.1,0.1l0,0l0.1,0.1l-0.4,0.4L122,2069.1z
		 M567,2050.4l-3.4-1.6c1.5-3.3,3.1-7,4.5-10.9l3.5,1.3C570.1,2043.2,568.6,2047,567,2050.4z M108.4,2048.1c-1.5-3.4-3-7.2-4.5-11.3
		l3.5-1.2c1.4,3.9,2.9,7.6,4.4,11L108.4,2048.1z M575.5,2027.8l-3.5-1.1c1.1-3.6,2.2-7.5,3.2-11.4l3.6,0.9
		C577.7,2020.2,576.6,2024.1,575.5,2027.8z M100.2,2025.4c-1.1-3.7-2.1-7.6-3.1-11.6l3.6-0.9c1,4,2,7.8,3.1,11.5L100.2,2025.4z
		 M581.5,2004.5l-3.6-0.8c0.8-3.8,1.6-7.7,2.4-11.7l3.6,0.7C583.2,1996.7,582.4,2000.7,581.5,2004.5z M94.4,2002
		c-0.8-3.8-1.6-7.8-2.3-11.8l3.6-0.7c0.7,4,1.5,7.9,2.3,11.7L94.4,2002z M586,1980.8l-3.7-0.6c0.6-3.8,1.2-7.8,1.7-11.8l3.7,0.5
		C587.2,1973,586.6,1977,586,1980.8z M90.1,1978.4c-0.6-3.9-1.2-7.9-1.7-11.9l3.7-0.5c0.5,4,1.1,8,1.7,11.8L90.1,1978.4z
		 M589.2,1957l-3.7-0.4c0.4-3.9,0.9-7.9,1.2-11.9l3.7,0.3C590.1,1949.1,589.7,1953.1,589.2,1957z M87,1954.5
		c-0.4-3.9-0.8-7.9-1.2-12l3.7-0.3c0.4,4,0.8,8,1.2,11.9L87,1954.5z M591.5,1933.1l-3.7-0.3c0.3-4,0.5-8,0.8-11.9l3.7,0.2
		C592,1925,591.8,1929,591.5,1933.1z M84.8,1930.6c-0.3-4-0.5-8.1-0.7-12l3.7-0.2c0.2,3.9,0.4,7.9,0.7,11.9L84.8,1930.6z
		 M592.8,1909.1l-3.7-0.1c0.1-1.9,0.1-3.2,0.1-3.7l-0.1-8.2h3.7l0.1,8.2C592.8,1905.8,592.8,1907.1,592.8,1909.1z M83.7,1906.5v-1.3
		c0-3.5,0.1-7.1,0.1-10.8h3.7c0,3.7-0.1,7.3-0.1,10.7v1.2L83.7,1906.5z M589,1885l-0.1-12h3.7l0.1,12H589z M87.6,1882.5h-3.7l0.1-12
		h3.7L87.6,1882.5z M588.8,1861.1l-0.1-12h3.7l0.1,12H588.8z M87.8,1858.6h-3.7l0.1-12h3.7L87.8,1858.6z M588.6,1837.1l-0.1-12h3.7
		l0.1,12H588.6z M87.9,1834.6h-3.7l0.1-12H88L87.9,1834.6z M588.5,1813.1l-0.1-12h3.7l0.1,12H588.5z M88.1,1810.6h-3.7l0.1-12h3.7
		L88.1,1810.6z M588.4,1789.2l-0.1-12h3.7l0.1,12H588.4z M88.2,1786.7h-3.7l0.1-12h3.7L88.2,1786.7z M588.2,1765.2l-0.1-12h3.7
		l0.1,12H588.2z M88.3,1762.7h-3.7v-12h3.7V1762.7z M588.1,1741.2l-0.1-12h3.7v12H588.1z M88.4,1738.7h-3.7v-12h3.7V1738.7z
		 M588,1717.2v-12h3.7v12H588z M88.5,1714.8h-3.7v-12h3.7V1714.8z M587.9,1693.3v-12h3.7v12H587.9z M88.5,1690.8h-3.7v-12h3.7
		V1690.8z M587.9,1669.3v-12h3.7v12H587.9z M88.6,1666.8h-3.7v-12h3.7V1666.8z M587.8,1645.4v-12h3.7v12H587.8z M88.6,1642.8h-3.7
		v-12h3.7V1642.8z M587.8,1621.4v-12h3.7v12H587.8z M88.7,1618.9H85v-12h3.7V1618.9z M587.7,1597.4v-12h3.7v12H587.7z M88.7,1594.9
		H85v-12h3.7V1594.9z M591.4,1573.5h-3.7v-12h3.7V1573.5z M88.7,1570.9H85v-2.6v-9.4h3.7v9.4V1570.9z M591.4,1549.5h-3.7v-12h3.7
		V1549.5z M85,1547v-12h3.7v12H85z M591.5,1525.6h-3.7c0-4.1,0-8.1,0-12h3.7C591.5,1517.4,591.5,1521.4,591.5,1525.6z M85,1523v-12
		h3.7v12H85z M587.5,1501.6c0-2,0-4.2,0-6.5c0-1.8,0-3.6,0-5.5h3.7c0,1.9,0,3.7,0,5.5c0,2.3,0,4.4,0,6.4L587.5,1501.6z M89,1499.1
		h-3.7c0-1.3,0-2.6,0-3.9c0-2.5,0-5.2,0-8H89c0,2.9,0,5.5,0,8.1C89,1496.5,89,1497.8,89,1499.1z M591.4,1477.7l-3.7-0.1
		c0.1-3.8,0.2-7.8,0.3-12l3.7,0.1C591.6,1469.9,591.5,1473.9,591.4,1477.7z M85,1475.1c-0.1-3.8-0.2-7.8-0.3-12l3.7-0.1
		c0.1,4.2,0.2,8.2,0.3,12L85,1475.1z M592.1,1453.7l-3.7-0.1c0.1-3.9,0.3-7.9,0.4-12l3.7,0.1
		C592.3,1445.8,592.2,1449.8,592.1,1453.7z M84.3,1451.1c-0.1-3.9-0.3-7.9-0.4-12l3.7-0.1c0.2,4.1,0.3,8.1,0.4,12L84.3,1451.1z
		 M593,1429.7l-3.7-0.2c0.2-3.9,0.3-7.9,0.5-12l3.7,0.2C593.3,1421.8,593.1,1425.8,593,1429.7z M83.4,1427.2
		c-0.2-3.9-0.3-7.9-0.5-12l3.7-0.2c0.2,4.1,0.4,8.1,0.5,12L83.4,1427.2z M594,1405.8l-3.7-0.2c0.2-3.9,0.4-7.9,0.6-12l3.7,0.2
		C594.4,1397.8,594.2,1401.8,594,1405.8z M82.3,1403.2c-0.2-3.9-0.4-7.9-0.6-12l3.7-0.2c0.2,4,0.4,8,0.6,12L82.3,1403.2z
		 M595.2,1381.8l-3.7-0.2c0.2-4,0.4-8,0.6-12l3.7,0.2C595.6,1373.9,595.4,1377.9,595.2,1381.8z M81.2,1379.3c-0.2-4-0.4-7.9-0.6-12
		l3.7-0.2c0.2,4,0.4,8,0.6,12L81.2,1379.3z M596.4,1357.9l-3.7-0.2c0.2-4,0.4-8,0.6-12l3.7,0.2
		C596.9,1349.9,596.7,1353.9,596.4,1357.9z M79.9,1355.3c-0.2-4-0.4-8-0.6-12l3.7-0.2c0.2,4,0.4,8,0.6,12L79.9,1355.3z
		 M597.8,1333.9l-3.7-0.2c0.2-4,0.4-8,0.7-12l3.7,0.2C598.2,1326,598,1330,597.8,1333.9z M78.6,1331.4c-0.2-4-0.4-7.9-0.7-11.9
		l3.7-0.2c0.2,4,0.5,8,0.7,11.9L78.6,1331.4z M599.1,1310l-3.7-0.2l0.7-12l3.7,0.2L599.1,1310z M77.2,1307.5c-0.2-4-0.5-8-0.7-12
		l3.7-0.2c0.2,4,0.5,8,0.7,12L77.2,1307.5z M600.5,1286l-3.7-0.2l0.7-11.9l3.7,0.2L600.5,1286z M75.8,1283.5l-0.7-12l3.7-0.2l0.7,12
		L75.8,1283.5z M601.9,1262.1l-3.7-0.2l0.7-12l3.7,0.2L601.9,1262.1z M74.4,1259.6l-0.7-12l3.7-0.2l0.7,12L74.4,1259.6z
		 M603.4,1238.2l-3.7-0.2c0.2-4,0.5-8,0.7-12l3.7,0.2C603.9,1230.1,603.7,1234.1,603.4,1238.2z M72.9,1235.7l-0.7-12l3.7-0.2l0.7,12
		L72.9,1235.7z M604.9,1214.2l-3.7-0.2l0.8-12l3.7,0.2L604.9,1214.2z M71.4,1211.7l-0.8-12l3.7-0.2l0.8,12L71.4,1211.7z
		 M606.4,1190.3l-3.7-0.2l0.8-12l3.7,0.2L606.4,1190.3z M69.9,1187.8l-0.8-12l3.7-0.2l0.8,12L69.9,1187.8z M608,1166.3l-3.7-0.2
		l0.8-12l3.7,0.2L608,1166.3z M68.4,1163.8l-0.8-12l3.7-0.2l0.8,12L68.4,1163.8z M609.6,1142.4l-3.7-0.2l0.8-12l3.7,0.2
		L609.6,1142.4z M66.8,1139.9l-0.8-12l3.7-0.2l0.8,12L66.8,1139.9z M611.2,1118.4l-3.7-0.2c0.3-4.3,0.6-8.3,0.8-12l3.7,0.3
		C611.7,1110.1,611.4,1114.1,611.2,1118.4z M65.2,1115.9l-0.8-12l3.7-0.3l0.8,12L65.2,1115.9z M612.8,1094.5l-3.7-0.3l0.2-2.9
		c0.2-3,0.4-6.1,0.6-9.1l3.7,0.2c-0.2,3-0.4,6.1-0.6,9.1L612.8,1094.5z M63.5,1092v-0.2c-0.3-3.9-0.5-7.8-0.8-11.7l3.7-0.2
		c0.3,3.9,0.5,7.8,0.8,11.7v0.2L63.5,1092z M614.4,1070.5l-3.7-0.2c0.3-4,0.5-8,0.7-12l3.7,0.2
		C614.9,1062.6,614.6,1066.5,614.4,1070.5z M61.9,1068.1c-0.3-4-0.5-8-0.7-12l3.7-0.2c0.2,4,0.5,8,0.7,11.9L61.9,1068.1z
		 M615.8,1046.6l-3.7-0.2c0.2-4,0.4-8,0.7-12l3.7,0.2C616.3,1038.6,616,1042.6,615.8,1046.6z M60.5,1044.2c-0.2-4-0.4-8-0.6-12
		l3.7-0.2c0.2,4,0.4,8,0.6,12L60.5,1044.2z M617.1,1022.6l-3.7-0.2c0.2-4,0.4-8,0.6-12l3.7,0.2
		C617.5,1014.7,617.3,1018.7,617.1,1022.6z M59.3,1020.2c-0.2-4-0.4-8-0.6-12l3.7-0.2c0.2,4,0.4,8,0.6,12L59.3,1020.2z M618.2,998.7
		l-3.7-0.2c0.2-4,0.3-8,0.5-12l3.7,0.2C618.6,990.7,618.4,994.7,618.2,998.7z M58.1,996.3c-0.2-4-0.3-8-0.5-12l3.7-0.1
		c0.2,4,0.3,8,0.5,12L58.1,996.3z M619.2,974.8l-3.7-0.1c0.2-4,0.3-8,0.4-11.9l3.7,0.1C619.5,966.8,619.3,970.8,619.2,974.8z
		 M57.2,972.3c-0.1-4-0.3-8-0.4-12l3.7-0.1c0.1,4,0.3,8,0.4,12L57.2,972.3z M620,950.9l-3.7-0.1c0.1-4,0.3-8,0.4-11.9l3.7,0.1
		C620.3,942.9,620.2,946.9,620,950.9z M56.3,948.3c-0.1-4-0.3-8-0.4-12l3.7-0.1c0.1,4,0.2,8,0.4,12L56.3,948.3z M620.7,926.9
		l-3.7-0.1c0.1-4,0.2-8,0.3-12l3.7,0.1C621,918.9,620.9,922.9,620.7,926.9z M55.6,924.4c-0.1-4-0.2-8-0.3-12l3.7-0.1
		c0.1,4,0.2,8,0.3,12L55.6,924.4z M621.4,903l-3.7-0.1c0.1-4,0.2-8,0.3-12l3.7,0.1C621.5,895,621.4,899,621.4,903z M55.1,900.4
		c-0.1-4-0.2-8-0.3-12l3.7-0.1c0.1,4,0.2,8,0.3,12L55.1,900.4z M621.9,879l-3.7-0.1c0.1-4,0.1-8,0.2-12l3.7,0.1
		C622,871,621.9,875,621.9,879z M54.6,876.4c-0.1-4-0.1-8-0.2-12l3.7-0.1c0.1,4,0.1,8,0.2,12L54.6,876.4z M622.2,855.1l-3.7-0.1
		c0.1-4,0.1-8,0.2-12h3.7C622.3,847,622.3,851,622.2,855.1z M54.2,852.5c-0.1-4-0.1-8-0.1-12h3.7c0,4,0.1,8,0.1,12H54.2z
		 M622.5,831.1h-3.7c0-4,0.1-8,0.1-12h3.7C622.6,823.1,622.6,827.1,622.5,831.1z M53.9,828.5c0-4-0.1-8-0.1-12h3.7
		c0,4,0.1,7.9,0.1,12H53.9z M622.7,807.1H619c0-4,0-8,0.1-12h3.7C622.8,799.1,622.7,803.1,622.7,807.1z M53.8,804.5c0-4,0-8-0.1-12
		h3.7c0,3.9,0,7.9,0.1,12H53.8z M622.8,783.2h-3.7c0-4,0-8,0-12h3.7C622.8,775.1,622.8,779.1,622.8,783.2z M53.7,780.6
		c0-2.8,0-5.5,0-8.2v-3.7h3.7v3.7c0,2.7,0,5.5,0,8.2H53.7z M619.1,759.2c0-4.1,0-8,0-12h3.7c0,3.9,0,7.9,0,12H619.1z M57.4,756.6
		h-3.7c0-4.1,0-8.1,0-12h3.7C57.4,748.6,57.4,752.6,57.4,756.6z M619,735.3c0-4.1-0.1-8.1-0.1-12h3.7c0,3.9,0.1,7.9,0.1,12H619z
		 M57.5,732.7h-3.7c0-4.1,0.1-8.1,0.1-12h3.7C57.6,724.6,57.5,728.6,57.5,732.7z M618.8,711.3c0-4.1-0.1-8.1-0.1-12h3.7
		c0,3.9,0.1,7.9,0.1,12H618.8z M57.7,708.7H54c0-4.1,0.1-8.1,0.1-12h3.7C57.8,700.6,57.7,704.6,57.7,708.7z M618.6,687.4
		c-0.1-4.2-0.1-8.1-0.2-12l3.7-0.1c0.1,3.8,0.1,7.8,0.2,12L618.6,687.4z M58,684.8l-3.7-0.1c0.1-4.2,0.1-8.2,0.2-12l3.7,0.1
		C58.1,676.6,58.1,680.6,58,684.8z M618.2,663.4c-0.1-4.3-0.2-8.3-0.2-12l3.7-0.1c0.1,3.7,0.2,7.7,0.2,12L618.2,663.4z M58.4,660.8
		l-3.7-0.1c0.1-4.3,0.2-8.3,0.2-12l3.7,0.1C58.5,652.5,58.5,656.5,58.4,660.8z M617.7,639.5c-0.1-4.8-0.2-8.8-0.3-12l3.7-0.1
		c0.1,3.1,0.2,7.2,0.3,12L617.7,639.5z M58.9,636.9l-3.7-0.1c0.1-5.2,0.2-9.2,0.3-12l3.7,0.1C59.1,627.7,59,631.7,58.9,636.9z
		 M620.9,615.5h-3.7v-2.4c0-3.2,0-6.4,0-9.6h3.7c0,3.2,0,6.4,0,9.6V615.5z M59.6,612.9l-3.7-0.1c0.2-4,0.3-8,0.5-12l3.7,0.2
		C59.9,604.9,59.7,608.9,59.6,612.9z M616.9,591.5c-0.1-4-0.2-8-0.3-12l3.7-0.1c0.1,4,0.2,8,0.3,12L616.9,591.5z M60.7,589l-3.7-0.2
		c0.2-4,0.4-8,0.7-12l3.7,0.2C61.1,581,60.9,585,60.7,589z M616.2,567.6c-0.2-4-0.3-8-0.6-11.9l3.7-0.2c0.2,4,0.4,8,0.6,12
		L616.2,567.6z M62.1,565.2l-3.7-0.3c0.3-4,0.6-8,0.9-12l3.7,0.3C62.7,557.2,62.4,561.1,62.1,565.2z M615,543.8
		c-0.2-4-0.5-8-0.8-11.9l3.7-0.3c0.3,4,0.5,7.9,0.8,12L615,543.8z M63.9,541.3l-3.7-0.3c0.3-4,0.7-8,1-11.9l3.7,0.3
		C64.6,533.3,64.2,537.3,63.9,541.3z M613.3,519.9c-0.3-4-0.7-8-1-11.9l3.7-0.3c0.4,3.9,0.7,7.9,1,12L613.3,519.9z M66.1,517.5
		l-3.7-0.4c0.4-4,0.8-8,1.2-11.9l3.7,0.4C66.9,509.5,66.5,513.5,66.1,517.5z M611.1,496.1c-0.4-4-0.8-8-1.3-11.9l3.7-0.4
		c0.4,3.9,0.9,7.9,1.3,11.9L611.1,496.1z M68.6,493.7l-3.7-0.4c0.5-4,0.9-8,1.4-11.9l3.7,0.5C69.6,485.7,69.1,489.7,68.6,493.7z
		 M608.5,472.3c-0.5-4-1-8-1.5-11.9l3.7-0.5c0.5,3.9,1,7.9,1.5,11.9L608.5,472.3z M71.6,470l-3.7-0.5c0.5-4,1.1-8,1.6-11.9l3.7,0.5
		C72.6,462,72.1,465.9,71.6,470z M605.4,448.6c-0.6-4-1.1-8-1.7-11.8l3.7-0.5c0.6,3.9,1.2,7.9,1.7,11.9L605.4,448.6z M74.9,446.3
		l-3.7-0.6c0.6-4,1.2-8,1.8-11.9l3.7,0.6C76.1,438.3,75.5,442.2,74.9,446.3z M601.8,424.9c-0.6-4-1.3-7.9-1.9-11.8l3.7-0.6
		c0.7,3.9,1.3,7.8,1.9,11.8L601.8,424.9z M78.7,422.6L75,422c0.7-4,1.4-8,2.1-11.8l3.6,0.7C80,414.7,79.4,418.6,78.7,422.6z
		 M597.8,401.3c-0.7-4-1.4-7.9-2.2-11.8l3.6-0.7c0.7,3.8,1.5,7.8,2.2,11.8L597.8,401.3z M82.9,399.1l-3.6-0.7c0.8-4,1.5-8,2.3-11.8
		l3.6,0.7C84.4,391.2,83.6,395.1,82.9,399.1z M593.4,377.8c-0.8-4-1.6-7.9-2.4-11.7l3.6-0.8c0.8,3.8,1.6,7.7,2.4,11.8L593.4,377.8z
		 M87.6,375.7l-3.6-0.8c0.8-3.9,1.7-7.9,2.5-11.7l3.6,0.8C89.2,367.8,88.4,371.7,87.6,375.7z M588.4,354.4c-0.9-4-1.8-7.9-2.6-11.7
		l3.6-0.8c0.9,3.8,1.8,7.7,2.6,11.7L588.4,354.4z M92.8,352.3l-3.6-0.9c0.9-3.9,1.9-7.8,2.8-11.7l3.6,0.9
		C94.6,344.5,93.7,348.4,92.8,352.3z M583,331.1c-1-4-1.9-7.9-2.9-11.6l3.6-0.9c1,3.7,1.9,7.6,2.9,11.6L583,331.1z M98.5,329.1
		l-3.6-0.9c1-3.9,2.1-7.8,3.1-11.6l3.6,1C100.6,321.4,99.6,325.2,98.5,329.1z M577.1,308c-1-3.9-2.1-7.8-3.1-11.5l3.6-1
		c1.1,3.8,2.1,7.7,3.2,11.6L577.1,308z M105,306.1l-3.6-1.1c1.2-3.9,2.3-7.8,3.5-11.5l3.5,1.1C107.3,298.4,106.1,302.2,105,306.1z
		 M570.7,284.9c-1.2-3.9-2.3-7.8-3.4-11.4l3.5-1.1c1.1,3.7,2.3,7.5,3.5,11.5L570.7,284.9z M112.2,283.3l-3.5-1.2
		c2-5.8,3.4-9.6,4.1-11.3l3.5,1.3C115.5,273.8,114.1,277.5,112.2,283.3z M563.6,262.1c-0.6-1.7-1-3-1.3-3.9c-1-2.4-2-4.8-3-7.1
		l3.4-1.5c1,2.4,2.1,4.8,3.1,7.2v0.1c0.3,0.8,0.7,2.2,1.3,4L563.6,262.1z M120.8,261.2l-3.4-1.5c1.6-3.7,3.3-7.3,4.9-11l3.4,1.6
		C124,253.9,122.4,257.5,120.8,261.2z M554.4,240.2c-1.7-3.6-3.4-7.3-5.1-10.8l3.3-1.6c1.7,3.6,3.5,7.2,5.1,10.9L554.4,240.2z
		 M130.9,239.5l-3.3-1.6c1.8-3.6,3.6-7.2,5.4-10.7l3.3,1.7C134.4,232.4,132.6,235.9,130.9,239.5z M544,218.8
		c-1.8-3.5-3.7-7.1-5.6-10.5l3.2-1.8c1.9,3.5,3.8,7,5.7,10.6L544,218.8z M141.9,218.4l-3.2-1.8c1.9-3.5,3.9-7,6-10.4l3.2,1.9
		C145.8,211.4,143.8,214.9,141.9,218.4z M532.4,197.9c-2-3.4-4.1-6.9-6.2-10.2l3.1-2c2.1,3.4,4.2,6.8,6.2,10.3L532.4,197.9z
		 M154,197.8l-3.1-2c2.1-3.4,4.3-6.8,6.5-10.1l3.1,2.1C158.3,191,156.1,194.4,154,197.8z M167.2,177.9l-3-2.1
		c2.3-3.3,4.7-6.6,7.1-9.7l3,2.2C171.8,171.4,169.5,174.7,167.2,177.9z M519.8,177.7c-2.2-3.3-4.5-6.6-6.8-9.8l3-2.2
		c2.3,3.2,4.6,6.6,6.8,9.9L519.8,177.7z M181.5,158.9l-2.9-2.3c1.7-2.1,3.4-4.2,5.1-6.2c0.8-1,1.7-2.1,2.5-3.1l2.9,2.4
		c-0.8,1-1.7,2.1-2.5,3.1C184.9,154.8,183.2,156.8,181.5,158.9z M506,158.3c-2.4-3.2-4.9-6.3-7.4-9.3l2.9-2.4c2.5,3.1,5,6.2,7.5,9.4
		L506,158.3z M196.9,140.7l-2.7-2.5c2.7-2.9,5.5-5.8,8.3-8.7l2.6,2.6C202.3,134.9,199.6,137.8,196.9,140.7z M490.8,139.9
		c-2.5-3-5.1-6-7.9-8.9l2.7-2.5c2.8,3,5.5,6,8,9L490.8,139.9z M213.7,123.9l-2.5-2.7c2.9-2.7,6-5.4,9-8l2.4,2.8
		C219.6,118.6,216.6,121.2,213.7,123.9z M474.6,122.5c-2.8-2.7-5.8-5.4-8.8-8l2.4-2.8c3,2.7,6,5.4,8.9,8.2L474.6,122.5z
		 M231.9,108.5l-2.3-2.9c3.1-2.5,6.4-4.9,9.6-7.2l2.2,3C238.2,103.7,235,106.1,231.9,108.5z M456.7,106.9c-3.1-2.4-6.3-4.9-9.5-7.2
		l2.2-3c3.3,2.4,6.5,4.8,9.6,7.3L456.7,106.9z M251.3,94.6l-2-3.1c3.3-2.2,6.8-4.4,10.2-6.5l1.9,3.2
		C257.9,90.2,254.6,92.4,251.3,94.6z M437.4,92.9c-3.3-2.2-6.7-4.3-10.1-6.3l1.9-3.2c3.4,2,6.9,4.2,10.2,6.4L437.4,92.9z
		 M271.6,82.2l-1.8-3.2c3.6-2,7.1-3.9,10.7-5.6l1.6,3.3C278.7,78.4,275.1,80.3,271.6,82.2z M417,80.8c-3.5-1.9-7.1-3.7-10.6-5.4
		L408,72c3.6,1.7,7.2,3.5,10.8,5.4L417,80.8z M292.9,71.7l-1.5-3.4c3.8-1.6,7.5-3.2,11.2-4.5l1.3,3.5
		C300.3,68.5,296.6,70.1,292.9,71.7z M395.5,70.6c-3.7-1.5-7.5-2.9-11.1-4.2l1.2-3.5c3.7,1.3,7.5,2.7,11.3,4.3L395.5,70.6z
		 M315.2,63.4l-1.1-3.6c4-1.2,8-2.2,11.7-3l0.8,3.6C322.9,61.2,319.1,62.2,315.2,63.4z M373.1,62.9c-3.9-1.1-7.8-1.9-11.5-2.6
		l0.7-3.6c3.8,0.7,7.8,1.6,11.8,2.7L373.1,62.9z M349.9,58.7c-3.9-0.3-7.7-0.4-11.2-0.2h-0.5l-0.4-3.7l0.6-0.1
		c1.4-0.1,2.9-0.1,4.3-0.1c2.4,0,4.9,0.1,7.4,0.3L349.9,58.7z"/>
</g>
<g>
	<g>
		<g>
			<g>
				<g>
					<g>
						<path class="st0" d="M393.2,405c-6.8,0-12.3-5.6-12.3-12.4c0-6.9,5.5-12.5,12.3-12.5s12.4,5.6,12.4,12.5
							C405.6,399.6,400,405.1,393.2,405z M393.2,384.7c-4.3,0-7.8,3.6-7.8,8s3.5,7.9,7.8,7.9s7.9-3.6,7.9-7.9
							C401.1,388.3,397.5,384.8,393.2,384.7z"/>
					</g>
				</g>
			</g>
			<g>
				<g>
					<g>
						<path class="st0" d="M393.2,405c-6.8,0-12.3-5.6-12.3-12.4c0-6.9,5.5-12.5,12.3-12.5s12.4,5.6,12.4,12.5
							C405.6,399.6,400,405.1,393.2,405z M393.2,384.7c-4.3,0-7.8,3.6-7.8,8s3.5,7.9,7.8,7.9s7.9-3.6,7.9-7.9
							C401.1,388.3,397.5,384.8,393.2,384.7z"/>
					</g>
				</g>
			</g>
		</g>
		<g>
			<g>
				<g>
					<g>
						<path class="st0" d="M283.7,404.7c-6.8,0-12.3-5.6-12.3-12.4c0-6.9,5.5-12.5,12.3-12.5s12.4,5.6,12.4,12.5
							C296,399.2,290.5,404.7,283.7,404.7z M283.7,384.4c-4.3,0-7.8,3.6-7.8,8s3.5,7.9,7.8,7.9s7.9-3.6,7.9-7.9
							C291.5,387.9,288,384.4,283.7,384.4z"/>
					</g>
				</g>
			</g>
			<g>
				<g>
					<g>
						<path class="st0" d="M283.7,404.7c-6.8,0-12.3-5.6-12.3-12.4c0-6.9,5.5-12.5,12.3-12.5s12.4,5.6,12.4,12.5
							C296,399.2,290.5,404.7,283.7,404.7z M283.7,384.4c-4.3,0-7.8,3.6-7.8,8s3.5,7.9,7.8,7.9s7.9-3.6,7.9-7.9
							C291.5,387.9,288,384.4,283.7,384.4z"/>
					</g>
				</g>
			</g>
		</g>
		<g>
			<g>
				<g>
					<g>
						<path class="st0" d="M392.6,550.3c-6.8,0-12.3-5.6-12.3-12.5s5.5-12.4,12.3-12.4S405,531,405,537.8
							C405.1,544.8,399.4,550.4,392.6,550.3z M392.7,529.9c-4.3,0-7.8,3.6-7.8,7.9c0,4.4,3.5,8,7.8,8s7.9-3.6,7.9-8
							C400.6,533.5,397,530,392.7,529.9z"/>
					</g>
				</g>
			</g>
			<g>
				<g>
					<g>
						<path class="st0" d="M392.6,550.3c-6.8,0-12.3-5.6-12.3-12.5s5.5-12.4,12.3-12.4S405,531,405,537.8
							C405.1,544.8,399.4,550.4,392.6,550.3z M392.7,529.9c-4.3,0-7.8,3.6-7.8,7.9c0,4.4,3.5,8,7.8,8s7.9-3.6,7.9-8
							C400.6,533.5,397,530,392.7,529.9z"/>
					</g>
				</g>
			</g>
		</g>
		<g>
			<g>
				<g>
					<g>
						<path class="st0" d="M283.1,550c-6.8,0-12.3-5.6-12.3-12.5s5.5-12.4,12.3-12.4s12.4,5.6,12.4,12.4
							C295.5,544.4,289.9,550,283.1,550z M283.2,529.6c-4.3,0-7.8,3.6-7.8,7.9c0,4.4,3.5,8,7.8,8s7.9-3.6,7.9-8
							C291,533.1,287.5,529.6,283.2,529.6z"/>
					</g>
				</g>
			</g>
			<g>
				<g>
					<g>
						<path class="st0" d="M283.1,550c-6.8,0-12.3-5.6-12.3-12.5s5.5-12.4,12.3-12.4s12.4,5.6,12.4,12.4
							C295.5,544.4,289.9,550,283.1,550z M283.2,529.6c-4.3,0-7.8,3.6-7.8,7.9c0,4.4,3.5,8,7.8,8s7.9-3.6,7.9-8
							C291,533.1,287.5,529.6,283.2,529.6z"/>
					</g>
				</g>
			</g>
		</g>
	</g>
</g>
<g>
	<g>
		<g>
			<g>
				<g>
					<g>
						<path class="st0" d="M393.3,1527.8c-6.8,0-12.3-5.7-12.2-12.5c0-6.9,5.6-12.5,12.4-12.4c6.8,0,12.4,5.7,12.3,12.6
							C405.8,1522.4,400.1,1527.9,393.3,1527.8z M393.4,1507.5c-4.3,0-7.8,3.6-7.8,8s3.5,7.9,7.8,7.9s7.9-3.6,7.9-7.9
							C401.3,1511.1,397.7,1507.6,393.4,1507.5z"/>
					</g>
				</g>
			</g>
			<g>
				<g>
					<g>
						<path class="st0" d="M393.3,1527.8c-6.8,0-12.3-5.7-12.2-12.5c0-6.9,5.6-12.5,12.4-12.4c6.8,0,12.4,5.7,12.3,12.6
							C405.8,1522.4,400.1,1527.9,393.3,1527.8z M393.4,1507.5c-4.3,0-7.8,3.6-7.8,8s3.5,7.9,7.8,7.9s7.9-3.6,7.9-7.9
							C401.3,1511.1,397.7,1507.6,393.4,1507.5z"/>
					</g>
				</g>
			</g>
		</g>
		<g>
			<g>
				<g>
					<g>
						<path class="st0" d="M283.8,1527.2c-6.8,0-12.3-5.7-12.2-12.5c0-6.9,5.6-12.5,12.4-12.4c6.8,0,12.4,5.7,12.3,12.6
							C296.2,1521.7,290.6,1527.2,283.8,1527.2z M283.9,1506.9c-4.3,0-7.8,3.6-7.8,8s3.5,7.9,7.8,7.9s7.9-3.6,7.9-7.9
							C291.7,1510.4,288.2,1506.9,283.9,1506.9z"/>
					</g>
				</g>
			</g>
			<g>
				<g>
					<g>
						<path class="st0" d="M283.8,1527.2c-6.8,0-12.3-5.7-12.2-12.5c0-6.9,5.6-12.5,12.4-12.4c6.8,0,12.4,5.7,12.3,12.6
							C296.2,1521.7,290.6,1527.2,283.8,1527.2z M283.9,1506.9c-4.3,0-7.8,3.6-7.8,8s3.5,7.9,7.8,7.9s7.9-3.6,7.9-7.9
							C291.7,1510.4,288.2,1506.9,283.9,1506.9z"/>
					</g>
				</g>
			</g>
		</g>
		<g>
			<g>
				<g>
					<g>
						<path class="st0" d="M392.4,1673.1c-6.8,0-12.3-5.7-12.2-12.6c0-6.9,5.6-12.4,12.4-12.3c6.8,0,12.4,5.7,12.3,12.5
							C404.9,1667.6,399.2,1673.2,392.4,1673.1z M392.5,1652.7c-4.3,0-7.8,3.6-7.8,7.9c0,4.4,3.5,8,7.8,8s7.9-3.6,7.9-8
							S396.8,1652.8,392.5,1652.7z"/>
					</g>
				</g>
			</g>
			<g>
				<g>
					<g>
						<path class="st0" d="M392.4,1673.1c-6.8,0-12.3-5.7-12.2-12.6c0-6.9,5.6-12.4,12.4-12.3c6.8,0,12.4,5.7,12.3,12.5
							C404.9,1667.6,399.2,1673.2,392.4,1673.1z M392.5,1652.7c-4.3,0-7.8,3.6-7.8,7.9c0,4.4,3.5,8,7.8,8s7.9-3.6,7.9-8
							S396.8,1652.8,392.5,1652.7z"/>
					</g>
				</g>
			</g>
		</g>
		<g>
			<g>
				<g>
					<g>
						<path class="st0" d="M282.9,1672.5c-6.8,0-12.3-5.7-12.2-12.6c0-6.9,5.6-12.4,12.4-12.3c6.8,0,12.4,5.7,12.3,12.5
							C295.3,1666.9,289.7,1672.5,282.9,1672.5z M283,1652.1c-4.3,0-7.8,3.6-7.8,7.9c0,4.4,3.5,8,7.8,8s7.9-3.6,7.9-8
							C290.8,1655.6,287.3,1652.1,283,1652.1z"/>
					</g>
				</g>
			</g>
			<g>
				<g>
					<g>
						<path class="st0" d="M282.9,1672.5c-6.8,0-12.3-5.7-12.2-12.6c0-6.9,5.6-12.4,12.4-12.3c6.8,0,12.4,5.7,12.3,12.5
							C295.3,1666.9,289.7,1672.5,282.9,1672.5z M283,1652.1c-4.3,0-7.8,3.6-7.8,7.9c0,4.4,3.5,8,7.8,8s7.9-3.6,7.9-8
							C290.8,1655.6,287.3,1652.1,283,1652.1z"/>
					</g>
				</g>
			</g>
		</g>
	</g>
</g>
</svg>
