<?xml version="1.0" encoding="utf-8"?>
<!-- Generator: Adobe Illustrator 26.3.1, SVG Export Plug-In . SVG Version: 6.00 Build 0)  -->
<svg version="1.1" id="Layer_1" xmlns="http://www.w3.org/2000/svg" xmlns:xlink="http://www.w3.org/1999/xlink" x="0px" y="0px"
	 viewBox="0 0 712.8 2334.9" style="enable-background:new 0 0 712.8 2334.9;" xml:space="preserve">
<style type="text/css">
	.st0{fill:#7900FF;}
	.st1{fill:#38E841;}
	.st2{fill:#ED1E77;}
	.st3{fill:#005EFF;}
</style>
<g>
	<path class="st0" d="M346.4,2333.1c-148.8,0-218.3-54.1-224.1-58.9l0,0c-21.5-15.6-39.6-43.1-53.7-81.8
		c-11.2-30.8-20.1-68.7-26.2-112.7c-10.3-73.9-9.5-140.7-9.5-143l-11.2-364.5L3.4,1042.7L1.7,646.2c3.1-174.7,19.9-284.5,33.5-345.8
		c14.4-64.9,27.9-90.2,29.1-92.4c21.1-50.9,49.7-93.5,85-126.8c28.3-26.6,60.8-47.3,96.8-61.4c60-23.5,109.8-20.8,112.4-20.7
		c2.7,0,57.3,0,120.1,25.2c37.6,15.1,70.8,36.2,98.6,62.6c34.7,33,61,74.6,78.3,123.4c1.3,2.5,14.5,28,28,92.7
		c12.9,61.5,28.4,171.4,29.5,346.1l-6.3,396.4L682.5,1575l-15.4,364.3c0,2.4,0.6,63.4-10.3,133.6c-6.5,41.9-15.6,78.8-27.3,109.7
		c-14.6,38.7-33.2,68.1-55.2,87.4c-24.2,24.3-69.7,42.3-135.1,53.6c-48.6,8.3-90.7,9.6-91.1,9.6
		C347.6,2333.1,347,2333.1,346.4,2333.1z M125.3,2270.8c0.8,0.7,18.2,15.3,55.1,29.7c32.8,12.8,88.1,28.1,166,28.1
		c0.6,0,1.1,0,1.7,0c1.6,0,166.8-5.3,223.1-61.9l0.1-0.1c48.8-42.6,71-129.2,81-194.4c10.9-70.8,10.2-132.3,10.2-132.9l0-0.1l0-0.1
		l15.4-364.4l24.3-529.3l6.3-396.3c-1.1-174-16.5-283.5-29.3-344.7c-13.8-66.4-27.6-91.9-27.8-92.1l-0.2-0.3
		c-17-48.2-43-89.2-77.1-121.8c-27.4-26.1-60-46.8-97.1-61.7C413.9,3.1,359,3.6,358.5,3.6l-0.1,0l-0.1,0c-0.5,0-50.3-3.3-110.7,20.5
		c-35.4,13.9-67.5,34.3-95.3,60.5c-34.8,32.8-63,74.9-83.9,125.2l-0.1,0.2c-0.1,0.2-14.2,25.6-28.8,91.8
		C26,362.9,9.3,472.2,6.2,646.2l1.7,396.4L26.2,1572l11.2,364.6l0,0.1c0,0.7-0.9,67.9,9.5,142.4c9.6,68.5,30.9,157.3,78.1,191.4
		L125.3,2270.8z"/>
</g>
<g>
	<path class="st1" d="M346.4,2300.8L346.4,2300.8c-127.9,0-190.3-41.6-201.6-50l-0.2-0.2l-0.4-0.5l-2.9-2.1
		c-30.7-22.2-54.4-83.6-66.9-172.8c-10.1-72.5-9.2-137.4-9.2-138.1l0-0.7L54,1571.1l-18.2-529L34,646.4
		C37,478.9,52.7,373,65.4,313.6c13.2-61.7,25.8-87.3,27.2-90l1.1-1.8l0.5-1.4c31.7-76.5,80.3-131,144.4-162.2
		c50.5-24.5,95.5-27.2,112.5-27.2c3,0,4.9,0.1,5.4,0.1l1.4,0.1l1.2,0l0.1,0c2.2,0,54.2,0.3,112.7,25c74.3,31.4,126,86.9,153.5,164.9
		l0.9,2.7l1,1.7c1.4,2.8,13.7,28.5,26.2,90.3c12,59.5,26.5,165.6,27.5,333.1l-6.3,395.6l-24.3,529l-15.4,365.3l0,0.8
		c0,0.6,0.7,60.4-10,129.2c-13.4,86.4-38.2,147.6-71.7,176.8l-0.8,0.7l-0.7,0.7c-39.9,40.1-163.7,52.5-203.9,53.7L346.4,2300.8z
		 M146.7,2248.5c4.9,3.6,22.7,15.8,55.1,27.2c41.9,14.7,90.5,22.1,144.5,22.1l1.3,0c39.8-1.2,162.5-13.4,201.8-52.8l0.9-0.9l0.8-0.7
		c32.9-28.7,57.4-89.3,70.7-175c10.7-68.6,10-128.1,10-128.7l0-0.9l15.4-365.3l24.3-528.9l6.3-395.5c-1-167.2-15.5-273.1-27.5-332.5
		c-12.4-61.4-24.5-86.8-25.9-89.5l-1.1-2l-1-2.8C595.1,145.1,544,90.2,470.5,59.1C412.6,34.6,361.1,34.3,359,34.3l-1.4,0l-1.4-0.1
		c-0.4,0-2.2-0.1-5.2-0.1c-16.8,0-61.3,2.6-111.2,26.9c-63.4,30.8-111.5,84.8-142.9,160.5l-0.6,1.7l-1.1,1.8
		c-1.3,2.6-13.8,27.8-26.9,89.1C55.7,373.5,40,479.2,37,646.4l1.7,395.6l18.2,529l11.2,365.4l0,0.8c0,0.6-0.9,65.4,9.2,137.6
		c12.3,88.4,35.7,149.1,65.7,170.8l3.3,2.4L146.7,2248.5z"/>
</g>
<g>
	<path class="st2" d="M346.3,2269.6c-4.4,0-8.8-0.1-13.1-0.2l0.1-3.7c4.3,0.1,8.7,0.2,13.1,0.2V2269.6z M348.5,2269.6l-0.1-3.7
		c3.8-0.1,8.3-0.4,13-0.7l0.2,3.7C356.8,2269.2,352.3,2269.5,348.5,2269.6z M320,2269c-4.4-0.2-8.8-0.5-13.1-0.8l0.3-3.7
		c4.3,0.3,8.7,0.6,13,0.8L320,2269z M374.7,2267.9l-0.3-3.7c4.3-0.4,8.6-0.8,13-1.3l0.4,3.7C383.4,2267,379,2267.5,374.7,2267.9z
		 M293.8,2267c-4.4-0.5-8.8-1-13.1-1.6l0.5-3.7c4.3,0.6,8.6,1.1,13,1.6L293.8,2267z M400.9,2265l-0.5-3.7c4.4-0.6,8.7-1.2,12.9-1.8
		l0.5,3.7C409.6,2263.8,405.2,2264.5,400.9,2265z M267.7,2263.4c-4.4-0.7-8.7-1.5-12.9-2.4l0.7-3.6c4.2,0.8,8.5,1.6,12.8,2.4
		L267.7,2263.4z M426.9,2261.2l-0.6-3.7c4.3-0.7,8.7-1.5,12.9-2.3l0.7,3.6C435.6,2259.6,431.2,2260.4,426.9,2261.2z M241.9,2258.2
		c-4.3-1-8.6-2.2-12.7-3.3l1-3.6c4.1,1.2,8.4,2.3,12.6,3.3L241.9,2258.2z M452.7,2256.1l-0.8-3.6c4.4-1,8.6-2,12.7-3l0.9,3.6
		C461.4,2254.1,457.1,2255.2,452.7,2256.1z M216.6,2251c-4.2-1.4-8.4-2.9-12.4-4.4l1.3-3.5c4,1.5,8.1,3,12.3,4.3L216.6,2251z
		 M478.2,2249.6l-1-3.6c4.3-1.3,8.5-2.6,12.4-4l1.2,3.5C486.8,2247,482.6,2248.3,478.2,2249.6z M191.9,2241.6
		c-4.2-1.8-8.2-3.8-11.9-5.7l1.7-3.3c3.7,1.9,7.6,3.8,11.7,5.6L191.9,2241.6z M503.1,2240.9l-1.4-3.4c4.3-1.8,8.2-3.7,11.7-5.6
		l1.8,3.3C511.5,2237.1,507.5,2239.1,503.1,2240.9z M168.5,2229.3c-0.9-0.6-1.8-1.1-2.5-1.6l-0.2-0.1l-0.5-0.6l-5.8-4.2
		c-0.6-0.4-1.2-0.9-1.7-1.4l2.4-2.9c0.5,0.4,1,0.8,1.6,1.2l6.2,4.5l0.4,0.5c0.6,0.4,1.4,0.9,2.2,1.4L168.5,2229.3z M526.3,2227.9
		l-2.3-2.9c1.1-0.9,2-1.7,2.8-2.5l1.7-1.7l1.7-1.4c1.1-1,2.2-2,3.3-3.1l2.6,2.6c-1.2,1.2-2.4,2.3-3.5,3.3l-1.6,1.4l-1.5,1.5
		C528.5,2226,527.5,2227,526.3,2227.9z M148.6,2211.4c-2.4-3.3-4.8-7-7.2-11.2l3.2-1.8c2.3,4,4.6,7.7,6.9,10.8L148.6,2211.4z
		 M544.8,2208.8l-3-2.2c2.5-3.2,4.9-6.8,7.3-10.7l3.2,1.9C549.9,2201.8,547.4,2205.4,544.8,2208.8z M135.5,2188.4
		c-1.7-3.8-3.5-7.9-5.1-12.2l3.5-1.3c1.6,4.2,3.3,8.2,5.1,12L135.5,2188.4z M558.8,2186.3l-3.3-1.7c1.9-3.7,3.8-7.7,5.6-11.7
		l3.4,1.5C562.6,2178.5,560.7,2182.5,558.8,2186.3z M125.8,2163.8c-1.4-4-2.7-8.2-4-12.6l3.6-1.1c1.3,4.3,2.6,8.5,3.9,12.4
		L125.8,2163.8z M569.5,2162.1l-3.5-1.3c1.5-3.9,3-8.1,4.4-12.3l3.5,1.2C572.5,2154,571,2158.1,569.5,2162.1z M118.4,2138.6
		c-1.1-4.1-2.1-8.4-3.1-12.8l3.6-0.8c1,4.3,2,8.6,3.1,12.7L118.4,2138.6z M577.9,2137.2l-3.6-1.1c1.2-4.1,2.4-8.3,3.5-12.6l3.6,1
		C580.4,2128.8,579.2,2133.1,577.9,2137.2z M112.4,2113c-0.9-4.2-1.7-8.5-2.5-12.9l3.6-0.7c0.8,4.3,1.6,8.7,2.5,12.8L112.4,2113z
		 M584.7,2111.8l-3.6-0.9c1-4.1,1.9-8.4,2.9-12.7l3.6,0.8C586.7,2103.3,585.7,2107.6,584.7,2111.8z M107.7,2087.1
		c-0.7-4.2-1.4-8.6-2-13l3.7-0.5c0.6,4.4,1.3,8.7,2,12.9L107.7,2087.1z M590.2,2086l-3.6-0.7c0.8-4.2,1.6-8.5,2.3-12.9l3.7,0.6
		C591.8,2077.5,591,2081.8,590.2,2086z M103.9,2061.1c-0.5-4.3-1.1-8.7-1.6-13l3.7-0.4c0.5,4.4,1,8.7,1.5,13L103.9,2061.1z
		 M594.6,2060.1l-3.7-0.5c0.6-4.3,1.2-8.6,1.8-12.9l3.7,0.5C595.8,2051.5,595.2,2055.8,594.6,2060.1z M101,2035
		c-0.4-4.3-0.8-8.7-1.2-13.1l3.7-0.3c0.4,4.3,0.8,8.7,1.2,13L101,2035z M598,2034.1l-3.7-0.4c0.5-4.3,1-8.6,1.4-13l3.7,0.4
		C598.9,2025.4,598.5,2029.8,598,2034.1z M98.9,2008.8c-0.3-4.3-0.6-8.7-0.8-13.1l3.7-0.2c0.3,4.3,0.5,8.7,0.8,13.1L98.9,2008.8z
		 M600.6,2007.9l-3.7-0.3c0.4-4.3,0.7-8.7,1-13l3.7,0.3C601.3,1999.2,600.9,2003.6,600.6,2007.9z M97.3,1982.6
		c-0.2-4.4-0.4-8.8-0.5-13.1l3.7-0.1c0.1,4.3,0.3,8.7,0.5,13.1L97.3,1982.6z M602.4,1981.7l-3.7-0.2c0.2-4.4,0.4-8.8,0.6-13.1
		l3.7,0.1C602.8,1972.9,602.6,1977.3,602.4,1981.7z M96.5,1956.4c-0.1-4.6-0.1-9-0.2-13.1l3.7,0c0,4.1,0.1,8.5,0.2,13.1L96.5,1956.4
		z M603.4,1955.5l-3.7-0.1c0.1-6.3,0.2-10.9,0.2-13.1l3.7,0C603.6,1944.5,603.6,1949.1,603.4,1955.5z M96.2,1930.2l-0.4-13.1
		l3.7-0.1l0.4,13.1L96.2,1930.2z M604,1929.3l-3.7-0.2l0.6-13.1l3.7,0.2L604,1929.3z M95.4,1904l-0.4-13.1l3.7-0.1l0.4,13.1
		L95.4,1904z M605.1,1903.1l-3.7-0.2l0.6-13.1l3.7,0.2L605.1,1903.1z M94.6,1877.8l-0.4-13.1l3.7-0.1l0.4,13.1L94.6,1877.8z
		 M606.2,1876.9l-3.7-0.2l0.6-13.1l3.7,0.2L606.2,1876.9z M93.8,1851.6l-0.4-13.1l3.7-0.1l0.4,13.1L93.8,1851.6z M607.3,1850.7
		l-3.7-0.2l0.6-13.1l3.7,0.2L607.3,1850.7z M93,1825.4l-0.4-13.1l3.7-0.1l0.4,13.1L93,1825.4z M608.4,1824.5l-3.7-0.2l0.6-13.1
		l3.7,0.2L608.4,1824.5z M92.2,1799.2l-0.4-13.1l3.7-0.1l0.4,13.1L92.2,1799.2z M609.5,1798.4l-3.7-0.2l0.6-13.1l3.7,0.2
		L609.5,1798.4z M91.3,1773l-0.4-13.1l3.7-0.1l0.4,13.1L91.3,1773z M610.6,1772.2l-3.7-0.2l0.6-13.1l3.7,0.2L610.6,1772.2z
		 M90.5,1746.8l-0.4-13.1l3.7-0.1l0.4,13.1L90.5,1746.8z M611.7,1746l-3.7-0.2l0.6-13.1l3.7,0.2L611.7,1746z M89.7,1720.6l-0.4-13.1
		l3.7-0.1l0.4,13.1L89.7,1720.6z M612.8,1719.8l-3.7-0.2l0.6-13.1l3.7,0.2L612.8,1719.8z M88.9,1694.4l-0.4-13.1l3.7-0.1l0.4,13.1
		L88.9,1694.4z M613.9,1693.6l-3.7-0.2l0.6-13.1l3.7,0.2L613.9,1693.6z M88.1,1668.2l-0.4-13.1l3.7-0.1l0.4,13.1L88.1,1668.2z
		 M615,1667.4l-3.7-0.2l0.6-13.1l3.7,0.2L615,1667.4z M87.3,1642l-0.4-13.1l3.7-0.1l0.4,13.1L87.3,1642z M616.1,1641.2l-3.7-0.2
		l0.6-13.1l3.7,0.2L616.1,1641.2z M86.5,1615.8l-0.4-13.1l3.7-0.1l0.4,13.1L86.5,1615.8z M617.2,1615.1l-3.7-0.2l0.6-13.1l3.7,0.2
		L617.2,1615.1z M85.7,1589.6l-0.4-13.1l3.7-0.1l0.4,13.1L85.7,1589.6z M618.3,1588.9l-3.7-0.2l0.6-13.1l3.7,0.2L618.3,1588.9z
		 M84.9,1563.4l-0.5-13.1l3.7-0.1l0.5,13.1L84.9,1563.4z M619.5,1562.7l-3.7-0.2l0.6-13.1l3.7,0.2L619.5,1562.7z M84,1537.2
		l-0.5-13.1l3.7-0.1l0.5,13.1L84,1537.2z M620.7,1536.5l-3.7-0.2l0.6-13.1l3.7,0.2L620.7,1536.5z M83.1,1511l-0.5-13.1l3.7-0.1
		l0.5,13.1L83.1,1511z M621.9,1510.3l-3.7-0.2l0.6-13.1l3.7,0.2L621.9,1510.3z M82.2,1484.8l-0.5-13.1l3.7-0.1l0.5,13.1L82.2,1484.8
		z M623.1,1484.2l-3.7-0.2l0.6-13.1l3.7,0.2L623.1,1484.2z M81.3,1458.7l-0.5-13.1l3.7-0.1l0.5,13.1L81.3,1458.7z M624.3,1458
		l-3.7-0.2l0.6-13.1l3.7,0.2L624.3,1458z M80.4,1432.5l-0.5-13.1l3.7-0.1l0.5,13.1L80.4,1432.5z M625.5,1431.8l-3.7-0.2l0.6-13.1
		l3.7,0.2L625.5,1431.8z M79.5,1406.3l-0.5-13.1l3.7-0.1l0.5,13.1L79.5,1406.3z M626.7,1405.6l-3.7-0.2l0.6-13.1l3.7,0.2
		L626.7,1405.6z M78.6,1380.1l-0.5-13.1l3.7-0.1l0.5,13.1L78.6,1380.1z M627.9,1379.4l-3.7-0.2l0.6-13.1l3.7,0.2L627.9,1379.4z
		 M77.7,1353.9l-0.5-13.1l3.7-0.1l0.5,13.1L77.7,1353.9z M629.1,1353.3l-3.7-0.2l0.6-13.1l3.7,0.2L629.1,1353.3z M76.8,1327.7
		l-0.5-13.1l3.7-0.1l0.5,13.1L76.8,1327.7z M630.3,1327.1l-3.7-0.2l0.6-13.1l3.7,0.2L630.3,1327.1z M75.9,1301.5l-0.5-13.1l3.7-0.1
		l0.5,13.1L75.9,1301.5z M631.5,1300.9l-3.7-0.2l0.6-13.1l3.7,0.2L631.5,1300.9z M75,1275.3l-0.5-13.1l3.7-0.1l0.5,13.1L75,1275.3z
		 M632.7,1274.7l-3.7-0.2l0.6-13.1l3.7,0.2L632.7,1274.7z M74.1,1249.1l-0.5-13.1l3.7-0.1l0.5,13.1L74.1,1249.1z M633.9,1248.5
		l-3.7-0.2l0.6-13.1l3.7,0.2L633.9,1248.5z M73.2,1222.9l-0.5-13.1l3.7-0.1l0.5,13.1L73.2,1222.9z M635.1,1222.4l-3.7-0.2l0.6-13.1
		l3.7,0.2L635.1,1222.4z M72.3,1196.7l-0.5-13.1l3.7-0.1l0.5,13.1L72.3,1196.7z M636.3,1196.2l-3.7-0.2l0.6-13.1l3.7,0.2
		L636.3,1196.2z M71.4,1170.5l-0.5-13.1l3.7-0.1l0.5,13.1L71.4,1170.5z M637.5,1170l-3.7-0.2l0.6-13.1l3.7,0.2L637.5,1170z
		 M70.5,1144.3l-0.5-13.1l3.7-0.1l0.5,13.1L70.5,1144.3z M638.7,1143.8l-3.7-0.2l0.6-13.1l3.7,0.2L638.7,1143.8z M69.6,1118.2
		l-0.5-13.1l3.7-0.1l0.5,13.1L69.6,1118.2z M639.9,1117.6l-3.7-0.2l0.6-13.1l3.7,0.2L639.9,1117.6z M68.7,1092l-0.5-13.1l3.7-0.1
		l0.5,13.1L68.7,1092z M641.2,1091.5l-3.7-0.2l0.6-13.1l3.7,0.2L641.2,1091.5z M67.7,1065.8l-0.5-13.1l3.7-0.1l0.5,13.1L67.7,1065.8
		z M642.4,1065.3l-3.7-0.2l0.6-13.1l3.7,0.2L642.4,1065.3z M66.9,1039.5l-0.1-13.1l3.7,0l0.1,13.1L66.9,1039.5z M643.4,1039
		l-3.7-0.1l0.2-13.1l3.7,0.1L643.4,1039z M66.8,1013.3l-0.1-13.1l3.7,0l0.1,13.1L66.8,1013.3z M643.8,1012.8l-3.7-0.1l0.2-13.1
		l3.7,0.1L643.8,1012.8z M66.7,987.1L66.6,974l3.7,0l0.1,13.1L66.7,987.1z M644.3,986.6l-3.7-0.1l0.2-13.1l3.7,0.1L644.3,986.6z
		 M66.6,960.9l-0.1-13.1l3.7,0l0.1,13.1L66.6,960.9z M644.7,960.4l-3.7-0.1l0.2-13.1l3.7,0.1L644.7,960.4z M66.4,934.7l-0.1-13.1
		l3.7,0l0.1,13.1L66.4,934.7z M645.1,934.2l-3.7-0.1l0.2-13.1l3.7,0.1L645.1,934.2z M66.3,908.5l-0.1-13.1l3.7,0l0.1,13.1
		L66.3,908.5z M645.5,908l-3.7-0.1l0.2-13.1l3.7,0.1L645.5,908z M66.2,882.3l-0.1-13.1l3.7,0l0.1,13.1L66.2,882.3z M645.9,881.8
		l-3.7-0.1l0.2-13.1l3.7,0.1L645.9,881.8z M66.1,856.1L66.1,843l3.7,0l0.1,13.1L66.1,856.1z M646.3,855.6l-3.7-0.1l0.2-13.1l3.7,0.1
		L646.3,855.6z M66,829.9l-0.1-13.1l3.7,0l0.1,13.1L66,829.9z M646.7,829.4l-3.7-0.1l0.2-13.1l3.7,0.1L646.7,829.4z M65.9,803.6
		l-0.1-13.1l3.7,0l0.1,13.1L65.9,803.6z M647.2,803.2l-3.7-0.1l0.2-13.1l3.7,0.1L647.2,803.2z M65.8,777.4l-0.1-13.1l3.7,0l0.1,13.1
		L65.8,777.4z M647.6,777l-3.7-0.1l0.2-13.1l3.7,0.1L647.6,777z M65.7,751.2l-0.1-13.1l3.7,0l0.1,13.1L65.7,751.2z M648,750.8
		l-3.7-0.1l0.2-13.1l3.7,0.1L648,750.8z M65.5,725l-0.1-13.1l3.7,0l0.1,13.1L65.5,725z M648.4,724.6l-3.7-0.1l0.2-13.1l3.7,0.1
		L648.4,724.6z M65.4,698.8l-0.1-13.1l3.7,0l0.1,13.1L65.4,698.8z M648.8,698.4l-3.7-0.1l0.2-13.1l3.7,0.1L648.8,698.4z M65.3,672.6
		l-0.1-13.1l3.7,0l0.1,13.1L65.3,672.6z M649.2,672.2l-3.7-0.1l0.2-13.1l3.7,0.1L649.2,672.2z M68.9,646.4l-3.7-0.1
		c0.1-4.4,0.2-8.8,0.3-13.1l3.7,0.1C69.1,637.7,69,642,68.9,646.4z M645.9,645.9c0-4.4-0.1-8.8-0.1-13.1l3.7,0
		c0.1,4.3,0.1,8.7,0.1,13.1L645.9,645.9z M69.5,620.2l-3.7-0.1c0.1-4.4,0.2-8.8,0.4-13.1l3.7,0.1C69.7,611.5,69.6,615.8,69.5,620.2z
		 M645.6,619.8c-0.1-4.4-0.2-8.8-0.2-13.1l3.7-0.1c0.1,4.3,0.2,8.7,0.2,13.1L645.6,619.8z M70.3,594.1l-3.7-0.1
		c0.2-4.4,0.3-8.8,0.5-13.1l3.7,0.2C70.7,585.3,70.5,589.7,70.3,594.1z M645,593.6c-0.1-4.4-0.2-8.8-0.4-13.1l3.7-0.1
		c0.1,4.3,0.3,8.7,0.4,13.1L645,593.6z M71.4,567.9l-3.7-0.2c0.2-4.4,0.4-8.8,0.6-13.1l3.7,0.2C71.8,559.1,71.6,563.5,71.4,567.9z
		 M644.2,567.4c-0.2-4.4-0.3-8.8-0.5-13.1l3.7-0.2c0.2,4.3,0.3,8.7,0.5,13.1L644.2,567.4z M72.8,541.8l-3.7-0.2
		c0.3-4.4,0.5-8.8,0.8-13.1l3.7,0.2C73.3,533,73,537.3,72.8,541.8z M643.1,541.2c-0.2-4.4-0.4-8.8-0.7-13.1l3.7-0.2
		c0.2,4.3,0.4,8.7,0.7,13.1L643.1,541.2z M74.4,515.6l-3.7-0.3c0.3-4.4,0.6-8.8,0.9-13.1l3.7,0.3C75,506.8,74.7,511.2,74.4,515.6z
		 M641.7,515.1c-0.3-4.4-0.5-8.8-0.8-13.1l3.7-0.2c0.3,4.3,0.5,8.7,0.8,13.1L641.7,515.1z M76.4,489.5l-3.7-0.3
		c0.4-4.4,0.7-8.8,1.1-13.1l3.7,0.3C77.1,480.7,76.7,485.1,76.4,489.5z M640,489c-0.3-4.4-0.6-8.8-1-13.1l3.7-0.3
		c0.3,4.3,0.7,8.6,1,13.1L640,489z M78.7,463.4l-3.7-0.4c0.4-4.4,0.9-8.8,1.3-13.1l3.7,0.4C79.5,454.7,79.1,459,78.7,463.4z
		 M638,462.9c-0.4-4.4-0.8-8.8-1.2-13l3.7-0.3c0.4,4.3,0.8,8.6,1.2,13.1L638,462.9z M81.4,437.4l-3.7-0.4c0.5-4.4,1-8.8,1.5-13
		l3.7,0.4C82.4,428.6,81.9,433,81.4,437.4z M635.6,436.8c-0.4-4.4-0.9-8.8-1.4-13l3.7-0.4c0.5,4.3,0.9,8.6,1.4,13L635.6,436.8z
		 M84.5,411.4l-3.7-0.5c0.6-4.4,1.1-8.8,1.7-13l3.7,0.5C85.6,402.6,85,407,84.5,411.4z M632.7,410.8c-0.5-4.4-1.1-8.8-1.6-13
		l3.7-0.5c0.5,4.2,1.1,8.6,1.6,13L632.7,410.8z M88,385.5l-3.7-0.5c0.6-4.4,1.3-8.7,2-13l3.7,0.6C89.3,376.8,88.7,381.1,88,385.5z
		 M629.4,384.8c-0.6-4.3-1.2-8.7-1.9-13l3.7-0.5c0.6,4.3,1.3,8.6,1.9,13L629.4,384.8z M92.1,359.6l-3.7-0.6
		c0.7-4.4,1.5-8.7,2.3-12.9l3.6,0.7C93.6,351,92.9,355.3,92.1,359.6z M625.6,358.9c-0.7-4.4-1.4-8.7-2.2-12.9l3.7-0.6
		c0.7,4.2,1.5,8.6,2.2,12.9L625.6,358.9z M96.8,333.9l-3.6-0.7c0.9-4.4,1.7-8.7,2.6-12.9l3.6,0.8C98.6,325.2,97.7,329.6,96.8,333.9z
		 M621.1,333.2c-0.6-3.4-1.3-6.9-2-10.3c-0.2-0.9-0.3-1.7-0.5-2.5l3.6-0.7c0.2,0.8,0.3,1.7,0.5,2.5c0.7,3.4,1.4,6.9,2,10.3
		L621.1,333.2z M102.3,308.3l-3.6-0.8c1-4.3,2-8.6,3.1-12.8l3.6,0.9C104.3,299.7,103.3,304,102.3,308.3z M615.8,307.6
		c-1-4.3-2-8.6-3-12.7l3.6-0.9c1,4.1,2,8.5,3,12.8L615.8,307.6z M108.7,283l-3.6-1c1.2-4.4,2.4-8.6,3.7-12.6l3.5,1.1
		C111.1,274.5,109.9,278.7,108.7,283z M609.6,282.2c-1.2-4.3-2.4-8.6-3.6-12.6l3.6-1.1c1.2,4,2.4,8.3,3.6,12.7L609.6,282.2z
		 M116.3,258.1l-3.5-1.2c1.6-4.5,3.1-8.7,4.6-12.4l3.4,1.4C119.4,249.5,117.9,253.6,116.3,258.1z M602.1,257.2
		c-2-5.7-3.5-9.8-4.5-12.2l3.4-1.4c1,2.4,2.6,6.6,4.6,12.4L602.1,257.2z M126.3,233.9l-3.5-1.2l0.4-1.2c1.6-3.7,3.2-7.4,4.8-11
		l3.4,1.5c-1.6,3.5-3.2,7.2-4.7,10.9L126.3,233.9z M592.3,233l0-0.1c-1.4-4.1-3-8.1-4.5-12.1l3.4-1.4c1.6,4,3.2,8.1,4.6,12.2l0,0.1
		L592.3,233z M137.1,210.3l-3.3-1.7c2-3.9,4-7.9,6.1-11.7l3.2,1.8C141,202.5,139,206.4,137.1,210.3z M582.6,208.9
		c-1.8-4-3.7-7.9-5.7-11.7l3.3-1.7c2,3.9,3.9,7.8,5.8,11.9L582.6,208.9z M149.6,187.5l-3.2-1.9c2.3-3.8,4.7-7.5,7-11.1l3.1,2.1
		C154.2,180,151.9,183.7,149.6,187.5z M570.6,185.8c-2.2-3.7-4.5-7.5-6.9-11l3.1-2c2.4,3.6,4.7,7.4,7,11.2L570.6,185.8z M164,165.8
		l-3-2.2c2.6-3.6,5.3-7.1,8-10.5l2.9,2.3C169.2,158.8,166.6,162.3,164,165.8z M556.2,164.1c-2.6-3.5-5.3-6.9-8-10.2l2.8-2.4
		c2.8,3.3,5.5,6.8,8.2,10.4L556.2,164.1z M180.4,145.5l-2.8-2.5c2.9-3.3,6-6.5,9-9.6l2.6,2.6C186.2,139.1,183.2,142.3,180.4,145.5z
		 M539.6,144.2c-2.9-3.1-6-6.2-9.2-9.2l2.5-2.7c3.2,3,6.3,6.2,9.3,9.3L539.6,144.2z M198.6,127.1l-2.5-2.7c3.3-3,6.6-5.9,10-8.6
		l2.3,2.9C205.2,121.3,201.9,124.1,198.6,127.1z M520.7,126.3c-3.3-2.8-6.7-5.5-10.2-8.1l2.2-3c3.5,2.6,7,5.4,10.4,8.2L520.7,126.3z
		 M499.9,110.8c-3.6-2.4-7.3-4.7-11-6.9l1.9-3.2c3.8,2.2,7.6,4.6,11.2,7L499.9,110.8z M218.8,110.7l-2.2-3c3.6-2.6,7.2-5.1,10.9-7.5
		l2,3.1C225.9,105.6,222.3,108.1,218.8,110.7z M477.5,97.6c-3.8-2-7.7-3.9-11.7-5.7l1.5-3.4c4,1.8,8,3.8,11.8,5.8L477.5,97.6z
		 M240.7,96.6l-1.8-3.2c3.8-2.2,7.7-4.2,11.7-6.2l1.6,3.3C248.3,92.4,244.4,94.5,240.7,96.6z M453.8,86.7c-4-1.6-8.1-3.1-12.2-4.6
		l1.2-3.5c4.2,1.5,8.3,3,12.4,4.6L453.8,86.7z M263.9,85l-1.5-3.4c4-1.7,8.1-3.4,12.3-4.9l1.3,3.5C272,81.7,267.9,83.3,263.9,85z
		 M429.2,78.1c-4.1-1.2-8.3-2.4-12.6-3.4l0.9-3.6c4.3,1.1,8.5,2.2,12.7,3.5L429.2,78.1z M288.3,76.1l-1.1-3.5
		c4.2-1.3,8.5-2.5,12.7-3.5l0.9,3.6C296.7,73.6,292.5,74.8,288.3,76.1z M404,71.8c-4.2-0.9-8.6-1.7-12.8-2.4l0.6-3.7
		c4.3,0.7,8.7,1.5,13,2.4L404,71.8z M313.6,69.8l-0.7-3.6c4.3-0.8,8.7-1.5,13-2.1l0.5,3.7C322.2,68.3,317.9,69,313.6,69.8z
		 M378.3,67.7c-4.5-0.5-8.9-0.9-13-1.2l0.2-3.7c4.1,0.3,8.6,0.6,13.2,1.2L378.3,67.7z M339.3,66.5l-0.3-3.7
		c4.1-0.3,8.1-0.4,11.8-0.4c0.6,0,1,0,1.4,0l0,3.7c-0.4,0-0.8,0-1.3,0c0,0,0,0,0,0C347.3,66.1,343.4,66.2,339.3,66.5z"/>
</g>
<g>
	<g>
		<g>
			<g>
				<path class="st3" d="M412.1,501.8c-6.8,0-12.3-5.6-12.3-12.4c0-6.9,5.5-12.5,12.3-12.5s12.4,5.6,12.4,12.5
					C424.5,496.3,418.9,501.8,412.1,501.8z M412.1,481.5c-4.3,0-7.8,3.6-7.8,8s3.5,7.9,7.8,7.9s7.9-3.6,7.9-7.9
					C420,485,416.4,481.5,412.1,481.5z"/>
			</g>
		</g>
		<g>
			<g>
				<path class="st3" d="M302.6,501.8c-6.8,0-12.3-5.6-12.3-12.4c0-6.9,5.5-12.5,12.3-12.5s12.4,5.6,12.4,12.5
					C314.9,496.3,309.4,501.8,302.6,501.8z M302.6,481.5c-4.3,0-7.8,3.6-7.8,8s3.5,7.9,7.8,7.9s7.9-3.6,7.9-7.9
					C310.4,485,306.9,481.5,302.6,481.5z"/>
			</g>
		</g>
		<g>
			<g>
				<path class="st3" d="M412.1,647.1c-6.8,0-12.3-5.6-12.3-12.5s5.5-12.4,12.3-12.4s12.4,5.6,12.4,12.4
					C424.5,641.5,418.9,647.1,412.1,647.1z M412.1,626.7c-4.3,0-7.8,3.6-7.8,7.9c0,4.4,3.5,8,7.8,8s7.9-3.6,7.9-8
					C420,630.2,416.4,626.7,412.1,626.7z"/>
			</g>
		</g>
		<g>
			<g>
				<path class="st3" d="M302.6,647.1c-6.8,0-12.3-5.6-12.3-12.5s5.5-12.4,12.3-12.4s12.4,5.6,12.4,12.4
					C314.9,641.5,309.4,647.1,302.6,647.1z M302.6,626.7c-4.3,0-7.8,3.6-7.8,7.9c0,4.4,3.5,8,7.8,8s7.9-3.6,7.9-8
					C310.4,630.2,306.9,626.7,302.6,626.7z"/>
			</g>
		</g>
	</g>
</g>
<g>
	<g>
		<g>
			<g>
				<path class="st3" d="M412.1,1707.5c-6.8,0-12.3-5.6-12.3-12.5s5.5-12.5,12.3-12.5s12.4,5.6,12.4,12.5S418.9,1707.5,412.1,1707.5
					z M412.1,1687c-4.3,0-7.8,3.6-7.8,8s3.5,8,7.8,8s7.9-3.6,7.9-8S416.4,1687,412.1,1687z"/>
			</g>
		</g>
		<g>
			<g>
				<path class="st3" d="M302.6,1707.5c-6.8,0-12.3-5.6-12.3-12.5s5.5-12.5,12.3-12.5s12.4,5.6,12.4,12.5S309.4,1707.5,302.6,1707.5
					z M302.6,1687c-4.3,0-7.8,3.6-7.8,8s3.5,8,7.8,8s7.9-3.6,7.9-8S306.9,1687,302.6,1687z"/>
			</g>
		</g>
		<g>
			<g>
				<path class="st3" d="M412.1,1852.7c-6.8,0-12.3-5.6-12.3-12.5s5.5-12.5,12.3-12.5s12.4,5.6,12.4,12.5S418.9,1852.7,412.1,1852.7
					z M412.1,1832.2c-4.3,0-7.8,3.6-7.8,8s3.5,8,7.8,8s7.9-3.6,7.9-8S416.4,1832.2,412.1,1832.2z"/>
			</g>
		</g>
		<g>
			<g>
				<path class="st3" d="M302.6,1852.7c-6.8,0-12.3-5.6-12.3-12.5s5.5-12.5,12.3-12.5s12.4,5.6,12.4,12.5S309.4,1852.7,302.6,1852.7
					z M302.6,1832.2c-4.3,0-7.8,3.6-7.8,8s3.5,8,7.8,8s7.9-3.6,7.9-8S306.9,1832.2,302.6,1832.2z"/>
			</g>
		</g>
	</g>
</g>
</svg>
