<?xml version="1.0" encoding="utf-8"?>
<!-- Generator: Adobe Illustrator 26.3.1, SVG Export Plug-In . SVG Version: 6.00 Build 0)  -->
<svg version="1.1" id="Layer_1" xmlns="http://www.w3.org/2000/svg" xmlns:xlink="http://www.w3.org/1999/xlink" x="0px" y="0px"
	 viewBox="0 0 614 2261.5" style="enable-background:new 0 0 614 2261.5;" xml:space="preserve">
<style type="text/css">
	.st0{fill:#38E841;}
	.st1{fill:#ED1E77;}
	.st2{fill:#7900FF;}
	.st3{fill:#005EFF;}
</style>
<g>
	<path class="st0" d="M299.8,2232.3c-23.2,0-69.3-4.2-116.6-32.7c-59.9-36.1-101.6-99.1-124-187.2c-2.9-15.4-28.6-155.5-28.6-374.7
		L27.9,424.4C31.2,317.3,59,237.5,81.7,189.5c25.4-53.7,49.7-80.3,49.9-80.5l0.6-0.6c27.3-31.4,59.9-54,97-67.2
		c30.5-10.9,56.3-12.5,69-12.5c0.5,0,57.3,0.9,88.9,12.3c36.6,13.2,69,35.8,96.2,67.3l0.6,0.6c0.2,0.2,24.5,27.3,49.6,80
		c22.8,48,50.7,127.9,54.1,235.4l-6,1208.3l0,0.3c0.1,28.7-0.1,283.1-36.5,388l-0.9,2.4l-0.4,2.7c-1.4,8.5-10.1,53.5-40.1,99
		c-42.7,64.9-107.2,100.7-191.7,106.7l-0.1,0h-0.8C310.2,2231.9,307.8,2232.3,299.8,2232.3z M298.2,31.7c-12.5,0-37.9,1.6-68,12.3
		c-36.6,13-68.8,35.3-95.8,66.4l-0.7,0.7c-0.2,0.2-24.7,27.4-49.6,80.2c-22.5,47.7-50,126.9-53.3,233.2l2.7,1213.3
		c0,218.8,25.6,358.8,28.6,374c22.2,87.2,63.4,149.6,122.6,185.3c46.7,28.1,92.1,32.3,115,32.3c7,0,9.8-0.4,10.3-0.5l0.3-0.2l0.7,0
		h0.6c83.5-5.9,147.3-41.3,189.4-105.3c29.7-45.1,38.2-89.5,39.6-97.9c0-0.1,0-0.2,0-0.2l0.5-2.9l0.9-2.5
		c36.2-104.4,36.4-358.4,36.3-387l0-0.3l6-1208.2c-3.4-107-31.2-186.4-53.9-234.2c-24.5-51.5-48.8-79-49-79.2l-0.6-0.6
		c-26.9-31.1-58.9-53.4-95-66.5C358.3,33.8,307.1,31.7,298.2,31.7z"/>
</g>
<g>
	<g>
		<path class="st1" d="M299.2,2203.9c-4.2,0-8.4-0.1-12.6-0.4l0.2-3.7c4.1,0.3,8.2,0.4,12.4,0.4h0.6l0,3.7L299.2,2203.9z
			 M312.6,2203.3l-0.2-3.7c4.3-0.3,8.7-0.7,12.9-1.2l0.4,3.7C321.4,2202.6,317,2203,312.6,2203.3z M273.5,2202.2
			c-4.4-0.6-8.7-1.3-13-2.2l0.7-3.6c4.2,0.8,8.5,1.6,12.8,2.1L273.5,2202.2z M338.7,2200.3l-0.6-3.7c4.3-0.7,8.5-1.6,12.7-2.5
			l0.8,3.6C347.4,2198.7,343,2199.5,338.7,2200.3z M247.6,2197c-4.2-1.2-8.5-2.5-12.6-3.9l1.2-3.5c4.1,1.4,8.2,2.7,12.4,3.9
			L247.6,2197z M364.4,2194.5l-1-3.6c4.2-1.2,8.3-2.5,12.3-3.9l1.2,3.5C372.8,2191.9,368.6,2193.2,364.4,2194.5z M222.7,2188.2
			c-4-1.7-8-3.6-11.9-5.6l1.7-3.3c3.8,2,7.8,3.8,11.7,5.5L222.7,2188.2z M389.2,2185.7l-1.4-3.4c4-1.7,7.9-3.5,11.8-5.4l1.7,3.3
			C397.2,2182.1,393.2,2184,389.2,2185.7z M199.3,2176.2c-3.7-2.2-7.4-4.6-11.1-7.1l2.1-3c3.5,2.5,7.2,4.8,10.9,7L199.3,2176.2z
			 M412.7,2173.9l-1.9-3.2c3.7-2.2,7.4-4.5,11-6.9l2.1,3.1C420.3,2169.3,416.5,2171.7,412.7,2173.9z M177.7,2161.2
			c-3.4-2.7-6.8-5.6-10.1-8.5l2.5-2.8c3.2,2.9,6.6,5.7,9.9,8.3L177.7,2161.2z M434.6,2159.2l-2.3-2.9c3.4-2.6,6.8-5.4,10-8.2
			l2.4,2.8C441.5,2153.7,438.1,2156.5,434.6,2159.2z M158,2143.7c-3.1-3.1-6.1-6.3-9-9.6l2.8-2.5c2.9,3.2,5.9,6.4,8.9,9.5
			L158,2143.7z M454.4,2141.8l-2.6-2.6c3-3,6-6.2,8.9-9.4l2.8,2.5C460.5,2135.5,457.5,2138.7,454.4,2141.8z M140.6,2124
			c-2.7-3.4-5.4-6.9-7.9-10.5l3-2.1c2.5,3.5,5.1,7,7.8,10.4L140.6,2124z M471.8,2122.1l-2.9-2.3c2.6-3.4,5.2-6.9,7.7-10.5l3.1,2.1
			C477.1,2115.1,474.5,2118.6,471.8,2122.1z M125.3,2102.5c-2.3-3.7-4.6-7.4-6.8-11.3l3.2-1.8c2.2,3.8,4.4,7.5,6.7,11.1
			L125.3,2102.5z M486.8,2100.4l-3.2-1.9c2.2-3.7,4.4-7.5,6.4-11.3l3.3,1.7C491.2,2092.8,489,2096.6,486.8,2100.4z M112.2,2079.7
			c-2-3.9-3.9-7.8-5.7-11.8l3.4-1.5c1.8,4,3.7,7.9,5.7,11.7L112.2,2079.7z M499.1,2077.1l-3.4-1.5c1.8-3.9,3.5-7.9,5.1-11.9l3.4,1.4
			C502.6,2069,500.9,2073.1,499.1,2077.1z M101.3,2055.8c-1.6-4-3.2-8.1-4.7-12.3l3.5-1.3c1.5,4.1,3,8.2,4.7,12.1L101.3,2055.8z
			 M508.8,2052.6l-3.5-1.2c1.4-4.1,2.6-8.2,3.8-12.4l3.6,1C511.5,2044.2,510.2,2048.4,508.8,2052.6z M92.3,2031.1
			c-1.3-4.1-2.6-8.4-3.7-12.6l3.6-1c1.2,4.2,2.4,8.4,3.7,12.5L92.3,2031.1z M515.9,2027.2l-3.6-0.8c0.5-2.2,1-4.5,1.4-6.7l0.8-5.3
			l0.4-1l3.5,1.3l-0.3,0.8l-0.7,4.9C516.9,2022.6,516.4,2024.9,515.9,2027.2z M85.4,2005.7l-0.2-0.7c-0.3-1.6-1.1-5.7-2.2-12.3
			l3.7-0.6c1.1,6.5,1.9,10.7,2.2,12.1l0.2,0.6L85.4,2005.7z M522.4,2002.1l-3.6-1.1c1.2-3.9,2.3-8.2,3.5-12.5l3.6,0.9
			C524.8,1993.8,523.6,1998.1,522.4,2002.1z M80.9,1979.8c-0.6-3.9-1.3-8.2-2-13l3.7-0.5c0.7,4.7,1.3,9,2,12.9L80.9,1979.8z
			 M529,1976.6l-3.6-0.8c0.9-4.1,1.8-8.4,2.7-12.8l3.6,0.7C530.8,1968.2,529.9,1972.5,529,1976.6z M77.1,1953.9
			c-0.6-4.1-1.1-8.4-1.7-13l3.7-0.5c0.6,4.5,1.2,8.9,1.7,12.9L77.1,1953.9z M534,1950.8l-3.7-0.6c0.7-4.1,1.4-8.5,2.1-12.9l3.7,0.6
			C535.5,1942.3,534.8,1946.7,534,1950.8z M73.7,1927.9c-0.5-4.2-1-8.5-1.5-13l3.7-0.4c0.5,4.5,1,8.8,1.5,13L73.7,1927.9z
			 M538.1,1924.9l-3.7-0.5c0.6-4.2,1.2-8.6,1.8-12.9l3.7,0.5C539.3,1916.3,538.7,1920.7,538.1,1924.9z M70.7,1901.9
			c-0.5-4.2-0.9-8.6-1.4-13l3.7-0.4c0.5,4.4,0.9,8.8,1.4,13L70.7,1901.9z M541.5,1898.9l-3.7-0.4c0.5-4.3,1-8.6,1.5-13l3.7,0.4
			C542.5,1890.3,542,1894.7,541.5,1898.9z M68.1,1875.9c-0.4-4.2-0.8-8.6-1.2-13l3.7-0.3c0.4,4.4,0.8,8.8,1.2,13L68.1,1875.9z
			 M544.3,1872.9l-3.7-0.4c0.4-4.3,0.8-8.7,1.2-13l3.7,0.3C545.1,1864.2,544.7,1868.5,544.3,1872.9z M65.8,1849.8
			c-0.4-4.3-0.7-8.6-1.1-13l3.7-0.3c0.3,4.4,0.7,8.8,1.1,13L65.8,1849.8z M546.6,1846.8l-3.7-0.3c0.4-4.3,0.7-8.7,1-13.1l3.7,0.3
			C547.3,1838,547,1842.4,546.6,1846.8z M63.7,1823.7c-0.3-4.3-0.6-8.6-0.9-13.1l3.7-0.2c0.3,4.4,0.6,8.8,0.9,13L63.7,1823.7z
			 M548.6,1820.6l-3.7-0.3c0.3-4.3,0.6-8.7,0.9-13l3.7,0.2C549.2,1811.9,548.9,1816.2,548.6,1820.6z M62,1797.6
			c-0.3-4.3-0.5-8.7-0.8-13.1l3.7-0.2c0.2,4.4,0.5,8.8,0.8,13L62,1797.6z M550.2,1794.5l-3.7-0.2c0.2-4.4,0.5-8.7,0.7-13.1l3.7,0.2
			C550.7,1785.7,550.5,1790.1,550.2,1794.5z M60.5,1771.5c-0.2-4.3-0.4-8.7-0.6-13.1l3.7-0.2c0.2,4.4,0.4,8.8,0.6,13.1L60.5,1771.5z
			 M551.6,1768.3l-3.7-0.2c0.2-4.4,0.4-8.7,0.6-13.1l3.7,0.2C552,1759.6,551.8,1763.9,551.6,1768.3z M59.3,1745.3
			c-0.2-4.3-0.3-8.7-0.5-13.1l3.7-0.1c0.2,4.4,0.3,8.7,0.5,13.1L59.3,1745.3z M552.7,1742.2l-3.7-0.1c0.2-4.4,0.3-8.8,0.5-13.1
			l3.7,0.1C553,1733.4,552.9,1737.7,552.7,1742.2z M58.4,1719.2c-0.1-4.3-0.3-8.7-0.4-13.1l3.7-0.1c0.1,4.4,0.2,8.7,0.4,13.1
			L58.4,1719.2z M553.6,1716l-3.7-0.1c0.1-4.4,0.2-8.8,0.3-13.1l3.7,0.1C553.8,1707.2,553.7,1711.5,553.6,1716z M57.7,1693
			c-0.1-4.3-0.2-8.7-0.2-13.1l3.7-0.1c0.1,4.4,0.1,8.7,0.2,13.1L57.7,1693z M554.2,1689.8l-3.7-0.1c0.1-4.5,0.2-8.9,0.2-13.1
			l3.7,0.1C554.4,1680.9,554.3,1685.3,554.2,1689.8z M57.3,1666.9c0-4.3-0.1-8.7-0.1-13.1l3.7,0c0,4.4,0.1,8.7,0.1,13.1L57.3,1666.9
			z M554.6,1663.6l-3.7,0c0-4.6,0.1-8.9,0.1-13.1l3.7,0C554.7,1654.6,554.7,1659,554.6,1663.6z M57.1,1640.7l0-13.1l3.7,0l0,13.1
			L57.1,1640.7z M554.8,1637.4h-3.7v-0.5c0-1.7,0-3.4,0-5l0-7.6l3.7,0l0,7.6c0,1.6,0,3.3,0,5V1637.4z M57.1,1614.6l0-13.1l3.7,0
			l0,13.1L57.1,1614.6z M554.9,1611.2l-3.7,0l0.1-13.1l3.7,0L554.9,1611.2z M57,1588.4l0-13.1l3.7,0l0,13.1L57,1588.4z M555,1585.1
			l-3.7,0l0.1-13.1l3.7,0L555,1585.1z M57,1562.3l0-13.1l3.7,0l0,13.1L57,1562.3z M555.1,1558.9l-3.7,0l0.1-13.1l3.7,0L555.1,1558.9
			z M56.9,1536.1l0-13.1l3.7,0l0,13.1L56.9,1536.1z M555.2,1532.8l-3.7,0l0.1-13.1l3.7,0L555.2,1532.8z M56.9,1510l0-13.1l3.7,0
			l0,13.1L56.9,1510z M555.4,1506.6l-3.7,0l0.1-13.1l3.7,0L555.4,1506.6z M56.8,1483.8l0-13.1l3.7,0l0,13.1L56.8,1483.8z
			 M555.5,1480.5l-3.7,0l0.1-13.1l3.7,0L555.5,1480.5z M56.7,1457.7l0-13.1l3.7,0l0,13.1L56.7,1457.7z M555.6,1454.4l-3.7,0
			l0.1-13.1l3.7,0L555.6,1454.4z M56.7,1431.5l0-13.1l3.7,0l0,13.1L56.7,1431.5z M555.8,1428.2l-3.7,0l0.1-13.1l3.7,0L555.8,1428.2z
			 M56.6,1405.4l0-13.1l3.7,0l0,13.1L56.6,1405.4z M555.9,1402.1l-3.7,0l0.1-13.1l3.7,0L555.9,1402.1z M56.6,1379.3l0-13.1l3.7,0
			l0,13.1L56.6,1379.3z M556,1375.9l-3.7,0l0.1-13.1l3.7,0L556,1375.9z M56.5,1353.1l0-13.1l3.7,0l0,13.1L56.5,1353.1z
			 M556.2,1349.8l-3.7,0l0.1-13.1l3.7,0L556.2,1349.8z M56.5,1327l0-13.1l3.7,0l0,13.1L56.5,1327z M556.3,1323.6l-3.7,0l0.1-13.1
			l3.7,0L556.3,1323.6z M56.4,1300.8l0-13.1l3.7,0l0,13.1L56.4,1300.8z M556.4,1297.5l-3.7,0l0.1-13.1l3.7,0L556.4,1297.5z
			 M56.3,1274.7l0-13.1l3.7,0l0,13.1L56.3,1274.7z M556.5,1271.3l-3.7,0l0.1-13.1l3.7,0L556.5,1271.3z M56.3,1248.5l0-13.1l3.7,0
			l0,13.1L56.3,1248.5z M556.7,1245.2l-3.7,0l0.1-13.1l3.7,0L556.7,1245.2z M56.2,1222.4l0-13.1l3.7,0l0,13.1L56.2,1222.4z
			 M556.8,1219.1l-3.7,0l0.1-13.1l3.7,0L556.8,1219.1z M56.2,1196.2l0-13.1l3.7,0l0,13.1L56.2,1196.2z M556.9,1192.9l-3.7,0
			l0.1-13.1l3.7,0L556.9,1192.9z M56.1,1170.1l0-13.1l3.7,0l0,13.1L56.1,1170.1z M557.1,1166.8l-3.7,0l0.1-13.1l3.7,0L557.1,1166.8z
			 M56,1143.9l0-13.1l3.7,0l0,13.1L56,1143.9z M557.2,1140.6l-3.7,0l0.1-13.1l3.7,0L557.2,1140.6z M56,1117.8l0-13.1l3.7,0l0,13.1
			L56,1117.8z M557.3,1114.5l-3.7,0l0.1-13.1l3.7,0L557.3,1114.5z M55.9,1091.7l0-13.1l3.7,0l0,13.1L55.9,1091.7z M557.5,1088.3
			l-3.7,0l0.1-13.1l3.7,0L557.5,1088.3z M55.9,1065.5l0-13.1l3.7,0l0,13.1L55.9,1065.5z M557.6,1062.2l-3.7,0l0.1-13.1l3.7,0
			L557.6,1062.2z M55.8,1039.4l0-13.1l3.7,0l0,13.1L55.8,1039.4z M557.7,1036l-3.7,0l0.1-13.1l3.7,0L557.7,1036z M55.8,1013.2
			l0-13.1l3.7,0l0,13.1L55.8,1013.2z M557.8,1009.9l-3.7,0l0.1-13.1l3.7,0L557.8,1009.9z M55.7,987.1l0-13.1l3.7,0l0,13.1
			L55.7,987.1z M558,983.7l-3.7,0l0.1-13.1l3.7,0L558,983.7z M55.6,960.9l0-13.1l3.7,0l0,13.1L55.6,960.9z M558.1,957.6l-3.7,0
			l0.1-13.1l3.7,0L558.1,957.6z M55.6,934.8l0-13.1l3.7,0l0,13.1L55.6,934.8z M558.2,931.5l-3.7,0l0.1-13.1l3.7,0L558.2,931.5z
			 M55.5,908.6l0-13.1l3.7,0l0,13.1L55.5,908.6z M558.4,905.3l-3.7,0l0.1-13.1l3.7,0L558.4,905.3z M55.5,882.5l0-13.1l3.7,0l0,13.1
			L55.5,882.5z M558.5,879.2l-3.7,0l0.1-13.1l3.7,0L558.5,879.2z M55.4,856.3l0-13.1l3.7,0l0,13.1L55.4,856.3z M558.6,853l-3.7,0
			l0.1-13.1l3.7,0L558.6,853z M55.3,830.2l0-13.1l3.7,0l0,13.1L55.3,830.2z M558.8,826.9l-3.7,0l0.1-13.1l3.7,0L558.8,826.9z
			 M55.3,804.1l0-13.1l3.7,0l0,13.1L55.3,804.1z M558.9,800.7l-3.7,0l0.1-13.1l3.7,0L558.9,800.7z M55.2,777.9l0-13.1l3.7,0l0,13.1
			L55.2,777.9z M559,774.6l-3.7,0l0.1-13.1l3.7,0L559,774.6z M55.2,751.8l0-13.1l3.7,0l0,13.1L55.2,751.8z M559.1,748.4l-3.7,0
			l0.1-13.1l3.7,0L559.1,748.4z M55.1,725.6l0-13.1l3.7,0l0,13.1L55.1,725.6z M559.3,722.3l-3.7,0l0.1-13.1l3.7,0L559.3,722.3z
			 M55.1,699.5l0-13.1l3.7,0l0,13.1L55.1,699.5z M559.4,696.1l-3.7,0l0.1-13.1l3.7,0L559.4,696.1z M55,673.3l0-13.1l3.7,0l0,13.1
			L55,673.3z M559.5,670l-3.7,0l0.1-13.1l3.7,0L559.5,670z M54.9,647.2l0-13.1l3.7,0l0,13.1L54.9,647.2z M559.7,643.9l-3.7,0
			l0.1-13.1l3.7,0L559.7,643.9z M54.9,621l0-13.1l3.7,0l0,13.1L54.9,621z M559.8,617.7l-3.7,0l0.1-13.1l3.7,0L559.8,617.7z
			 M54.8,594.9l0-13.1l3.7,0l0,13.1L54.8,594.9z M559.9,591.6l-3.7,0l0.1-13.1l3.7,0L559.9,591.6z M54.8,568.7l0-13.1l3.7,0l0,13.1
			L54.8,568.7z M560.1,565.4l-3.7,0l0.1-13.1l3.7,0L560.1,565.4z M54.7,542.6l0-13.1l3.7,0l0,13.1L54.7,542.6z M560.2,539.3l-3.7,0
			l0.1-13.1l3.7,0L560.2,539.3z M54.6,516.5l0-13.1l3.7,0l0,13.1L54.6,516.5z M560.3,513.1l-3.7,0l0.1-13.1l3.7,0L560.3,513.1z
			 M54.6,490.3l0-13.1l3.7,0l0,13.1L54.6,490.3z M560.5,487l-3.7,0l0.1-13.1l3.7,0L560.5,487z M54.5,464.2l0-13.1l3.7,0l0,13.1
			L54.5,464.2z M560.6,460.8l-3.7,0l0.1-13.1l3.7,0L560.6,460.8z M54.5,438l0-12l0-1.1l3.7,0.1l0,1.1l0,12L54.5,438z M560.7,434.7
			l-3.7,0l0-8.8c0-1.4-0.1-2.8-0.2-4.2l3.7-0.1c0.1,1.4,0.1,2.9,0.2,4.3L560.7,434.7z M58.8,412l-3.7-0.2c0.2-4.3,0.5-8.7,0.8-13.1
			l3.7,0.3C59.3,403.3,59,407.7,58.8,412z M556.3,408.7c-0.3-4.4-0.6-8.7-0.9-13l3.7-0.3c0.3,4.3,0.6,8.7,0.9,13.1L556.3,408.7z
			 M60.7,386l-3.7-0.4c0.4-4.3,0.9-8.7,1.4-13l3.7,0.4C61.6,377.3,61.1,381.7,60.7,386z M554.2,382.7c-0.4-4.3-0.9-8.7-1.4-13
			l3.7-0.4c0.5,4.3,1,8.7,1.4,13L554.2,382.7z M63.7,360.1l-3.7-0.5c0.6-4.3,1.3-8.7,1.9-13l3.7,0.6C65,351.5,64.3,355.8,63.7,360.1
			z M551.1,356.8c-0.6-4.3-1.3-8.6-2-12.9l3.7-0.6c0.7,4.3,1.4,8.6,2,13L551.1,356.8z M67.8,334.4l-3.6-0.7
			c0.8-4.3,1.6-8.6,2.5-12.9l3.6,0.8C69.5,325.8,68.6,330.1,67.8,334.4z M546.8,331.1c-0.8-4.3-1.7-8.6-2.6-12.8l3.6-0.8
			c0.9,4.2,1.8,8.6,2.6,12.9L546.8,331.1z M73.1,308.8l-3.6-0.8c1-4.2,2-8.5,3.1-12.7l3.6,0.9C75.1,300.4,74.1,304.6,73.1,308.8z
			 M541.4,305.6c-1-4.2-2.1-8.5-3.1-12.6l3.6-0.9c1.1,4.2,2.2,8.5,3.2,12.7L541.4,305.6z M79.6,283.6l-3.6-1
			c1.2-4.2,2.4-8.4,3.7-12.6l3.5,1.1C82,275.2,80.7,279.4,79.6,283.6z M534.8,280.4c-1.2-4.2-2.5-8.4-3.8-12.5l3.5-1.1
			c1.3,4.1,2.6,8.4,3.8,12.6L534.8,280.4z M87.2,258.7l-3.5-1.2c1.4-4.1,2.8-8.3,4.3-12.4l3.5,1.3C90,250.4,88.6,254.6,87.2,258.7z
			 M527,255.6c-1.4-4.1-2.9-8.2-4.4-12.3l3.5-1.3c1.5,4.1,3,8.2,4.4,12.4L527,255.6z M96,234.2l-3.5-1.4c1.6-4.1,3.3-8.2,4.9-12.2
			l3.4,1.4C99.3,226.1,97.6,230.1,96,234.2z M517.9,231.2c-1.6-4-3.3-8.1-5-12l3.4-1.5c1.7,4,3.4,8,5.1,12.1L517.9,231.2z
			 M106.2,210.2l-3.4-1.5c0.6-1.4,1.3-2.8,1.9-4.1c1.2-2.6,2.5-5.2,3.7-7.7l3.3,1.6c-1.2,2.5-2.5,5.1-3.7,7.7
			C107.5,207.4,106.8,208.8,106.2,210.2z M507.4,207.3c-1.8-3.9-3.8-7.9-5.7-11.7l3.3-1.7c2,3.9,3.9,7.8,5.8,11.8L507.4,207.3z
			 M117.7,186.8l-3.3-1.7c2.1-3.9,4.2-7.8,6.3-11.5l3.2,1.8C121.8,179.1,119.7,183,117.7,186.8z M495.7,184.1
			c-2.1-3.8-4.2-7.6-6.4-11.3l3.2-1.9c2.2,3.7,4.4,7.6,6.5,11.4L495.7,184.1z M130.5,164.2l-3.2-1.9c2.3-3.8,4.7-7.5,7.1-11.1
			l3.1,2.1C135.2,156.7,132.8,160.4,130.5,164.2z M482.5,161.6c-2.3-3.7-4.7-7.3-7.1-10.9l3.1-2.1c2.4,3.6,4.8,7.3,7.2,11
			L482.5,161.6z M144.9,142.6l-3-2.2c3.5-4.8,6.4-8.3,8.1-10.4l2.8,2.4C151.2,134.4,148.4,137.8,144.9,142.6z M468,140.1
			c-2.3-3.1-4.6-6.2-6.9-9.2l-0.9-1l2.8-2.4l1,1.1c2.4,3.1,4.8,6.3,7.1,9.4L468,140.1z M161.5,122.7l-2.7-2.6c3-3.2,6.2-6.3,9.3-9.3
			l2.5,2.7C167.6,116.5,164.5,119.6,161.5,122.7z M451.3,120.3c-3-3.1-6.2-6.1-9.3-9l2.5-2.7c3.2,2.9,6.4,6,9.5,9.2L451.3,120.3z
			 M180.5,105l-2.4-2.9c3.4-2.8,6.9-5.5,10.4-8.1l2.2,3C187.2,99.6,183.8,102.2,180.5,105z M432.2,102.9c-3.4-2.7-6.9-5.3-10.3-7.8
			l2.1-3c3.5,2.5,7.1,5.2,10.5,7.9L432.2,102.9z M201.4,89.8l-2-3.1c3.7-2.3,7.6-4.6,11.4-6.6l1.8,3.3
			C208.8,85.3,205.1,87.5,201.4,89.8z M411,87.9c-3.7-2.2-7.5-4.4-11.3-6.4l1.7-3.3c3.9,2,7.7,4.2,11.5,6.5L411,87.9z M224.2,77.6
			l-1.5-3.4c4-1.8,8.1-3.5,12.2-5l1.3,3.5C232.1,74.2,228.1,75.8,224.2,77.6z M388.1,76c-3.7-1.6-7.6-3.2-11.4-4.5l-0.6-0.2l1.2-3.5
			l0.6,0.2c3.9,1.4,7.8,3,11.7,4.6L388.1,76z M248.5,68.5l-1.1-3.6c4.2-1.3,8.5-2.4,12.8-3.3l0.8,3.6
			C256.8,66.2,252.6,67.3,248.5,68.5z M363.7,67.3c-4.2-1.2-8.4-2.2-12.6-3l0.7-3.6c4.3,0.9,8.6,1.9,12.8,3.1L363.7,67.3z
			 M273.7,62.8l-0.6-3.7c4.4-0.7,8.8-1.2,13.1-1.5l0.3,3.7C282.3,61.7,278,62.2,273.7,62.8z M338.4,62.1c-4.4-0.6-8.7-0.9-12.9-1.1
			l0.2-3.7c4.3,0.2,8.7,0.6,13.2,1.2L338.4,62.1z M299.5,60.8l0-3.7c3.4,0,8.6,0,13.1,0l0,3.7C308.1,60.8,302.9,60.8,299.5,60.8z"/>
	</g>
</g>
<g>
	<g>
		<path class="st2" d="M300.2,2260.7c-19.9,0-59.2-2.8-102.2-21.7c-36-15.8-67.6-39.5-93.7-70.6c-32.6-38.7-56.9-89-72.2-149.4
			l0-0.1c-0.3-1.4-29.3-146.6-29.3-380.8L0.1,423.6l0,0C3.6,309.8,33.5,225.1,58,174.1c26.6-55.3,52.8-84.2,53.1-84.5
			c45-51.9,96.4-73.3,131.6-82.1c36.7-9.2,63.2-7,66.2-6.7c2.9-0.3,28.8-2.5,64.9,6.7c34.6,8.8,85.3,30.2,130.3,82.2
			c0.2,0.2,26.4,29.1,53.1,84.5c24.5,51,54.5,135.7,57.9,249.4l-6,1209.2c0,2.8,1.5,283.3-38,397.6c-0.6,3.9-9,55.8-43.2,108.7
			c-20.8,32.2-47,58.6-77.9,78.3c-38.5,24.7-84.4,39.1-136.3,42.7C313.6,2260.2,308.7,2260.7,300.2,2260.7z M36.5,2018
			c15.1,59.6,39,109.2,71.1,147.4c25.7,30.5,56.6,53.8,92,69.4c60.3,26.5,113.2,20.9,113.8,20.9c51.2-3.6,96.4-17.8,134.2-42
			c30.3-19.4,56-45.3,76.5-76.9c35-54,42.6-106.8,42.7-107.3l0.1-0.4c39.3-113.4,37.8-393.5,37.8-396.3l6-1209.1
			c-3.4-112.8-33.1-196.8-57.4-247.3c-26.3-54.8-52.2-83.3-52.4-83.6C456.6,41.5,406.9,20.5,373,11.9c-36.8-9.4-63.5-6.6-63.7-6.6
			l-0.2,0l-0.2,0c-0.3,0-27.6-2.8-65.1,6.6c-34.5,8.7-85,29.7-129.2,80.7c-0.3,0.3-26.2,28.8-52.5,83.6
			c-24.3,50.6-54,134.6-57.4,247.4l2.6,1214.5C7.2,1870.2,35.8,2014.6,36.5,2018z"/>
	</g>
	<g>
		<g>
			<g>
				<g>
					<g>
						<path class="st3" d="M362.4,409c-6.8,0-12.3-5.6-12.3-12.4c0-6.9,5.5-12.5,12.3-12.5s12.4,5.6,12.4,12.5S369.2,409,362.4,409z
							 M362.4,388.7c-4.3,0-7.8,3.6-7.8,8s3.5,7.9,7.8,7.9s7.9-3.6,7.9-7.9C370.3,392.2,366.7,388.7,362.4,388.7z"/>
					</g>
				</g>
				<g>
					<g>
						<path class="st3" d="M252.9,409c-6.8,0-12.3-5.6-12.3-12.4c0-6.9,5.5-12.5,12.3-12.5c6.8,0,12.4,5.6,12.4,12.5
							C265.2,403.5,259.7,409,252.9,409z M252.9,388.7c-4.3,0-7.8,3.6-7.8,8s3.5,7.9,7.8,7.9c4.3,0,7.9-3.6,7.9-7.9
							C260.7,392.2,257.2,388.7,252.9,388.7z"/>
					</g>
				</g>
				<g>
					<g>
						<path class="st3" d="M362.4,554.3c-6.8,0-12.3-5.6-12.3-12.5s5.5-12.4,12.3-12.4s12.4,5.6,12.4,12.4
							C374.8,548.7,369.2,554.3,362.4,554.3z M362.4,533.9c-4.3,0-7.8,3.6-7.8,7.9c0,4.4,3.5,8,7.8,8s7.9-3.6,7.9-8
							S366.7,533.9,362.4,533.9z"/>
					</g>
				</g>
				<g>
					<g>
						<path class="st3" d="M252.9,554.3c-6.8,0-12.3-5.6-12.3-12.5s5.5-12.4,12.3-12.4c6.8,0,12.4,5.6,12.4,12.4
							C265.2,548.7,259.7,554.3,252.9,554.3z M252.9,533.9c-4.3,0-7.8,3.6-7.8,7.9c0,4.4,3.5,8,7.8,8c4.3,0,7.9-3.6,7.9-8
							C260.7,537.4,257.2,533.9,252.9,533.9z"/>
					</g>
				</g>
			</g>
		</g>
		<g>
			<g>
				<g>
					<g>
						<path class="st3" d="M362.4,1567.7c-6.8,0-12.3-5.6-12.3-12.5s5.5-12.5,12.3-12.5s12.4,5.6,12.4,12.5
							S369.2,1567.7,362.4,1567.7z M362.4,1547.2c-4.3,0-7.8,3.6-7.8,8s3.5,8,7.8,8s7.9-3.6,7.9-8S366.7,1547.2,362.4,1547.2z"/>
					</g>
				</g>
				<g>
					<g>
						<path class="st3" d="M252.9,1567.7c-6.8,0-12.3-5.6-12.3-12.5s5.5-12.5,12.3-12.5c6.8,0,12.4,5.6,12.4,12.5
							S259.7,1567.7,252.9,1567.7z M252.9,1547.2c-4.3,0-7.8,3.6-7.8,8s3.5,8,7.8,8c4.3,0,7.9-3.6,7.9-8S257.2,1547.2,252.9,1547.2z
							"/>
					</g>
				</g>
				<g>
					<g>
						<path class="st3" d="M362.4,1712.9c-6.8,0-12.3-5.6-12.3-12.5s5.5-12.5,12.3-12.5s12.4,5.6,12.4,12.5
							S369.2,1712.9,362.4,1712.9z M362.4,1692.4c-4.3,0-7.8,3.6-7.8,8s3.5,8,7.8,8s7.9-3.6,7.9-8S366.7,1692.4,362.4,1692.4z"/>
					</g>
				</g>
				<g>
					<g>
						<path class="st3" d="M252.9,1712.9c-6.8,0-12.3-5.6-12.3-12.5s5.5-12.5,12.3-12.5c6.8,0,12.4,5.6,12.4,12.5
							S259.7,1712.9,252.9,1712.9z M252.9,1692.4c-4.3,0-7.8,3.6-7.8,8s3.5,8,7.8,8c4.3,0,7.9-3.6,7.9-8S257.2,1692.4,252.9,1692.4z
							"/>
					</g>
				</g>
			</g>
		</g>
	</g>
</g>
</svg>
