<?xml version="1.0" encoding="utf-8"?>
<!-- Generator: Adobe Illustrator 26.3.1, SVG Export Plug-In . SVG Version: 6.00 Build 0)  -->
<svg version="1.1" id="Layer_1" xmlns="http://www.w3.org/2000/svg" xmlns:xlink="http://www.w3.org/1999/xlink" x="0px" y="0px"
	 viewBox="0 0 758.7 2261.1" style="enable-background:new 0 0 758.7 2261.1;" xml:space="preserve">
<style type="text/css">
	.st0{fill:#7900FF;}
	.st1{fill:#005EFF;}
	.st2{fill:#38E841;}
	.st3{fill:#ED1E77;}
</style>
<g id="Layer_2_00000029753395114127233710000009333103978361694854_">
</g>
<g id="Layer_1_00000181784137995559053940000005388115674781051573_">
	<g>
		<g>
			<g>
				<path class="st0" d="M371.9,2261.5c-23,0-45.7-1.2-67.9-3.5c-57.9-6-112.8-20-163-41.4c-1.8-0.7-29.4-11.4-55.4-43.6
					c-15.5-19.1-27.2-41.7-34.7-67.3c-9.4-31.9-12.5-68.6-9-108.9l15-312.2c0.1-3,5.9-306-3-384.7c-0.2-2.3-24.9-227.6-25.9-239.5
					c-0.2-1.7-20-176.9-21-204.6c-0.1-2.4-11.9-241.6-3-342.4c5.1-100.7,42.6-245.4,43-246.8l0.1-0.2
					c22.4-63.3,52.1-116.7,88.2-158.6c29-33.6,62.2-60,98.6-78.5C294.2-1.4,344.1,0.3,347.3,0.4c2.3-0.2,33-2.1,71.5,1.1
					c36.9,3.1,88.7,11.7,126.1,35.1c1.4,0.8,25.6,14.5,53.9,39.7c26.7,23.9,62.5,63.2,81.7,115.3c0.5,1.6,50.2,150.1,64.9,252.8
					c1,4,22.7,99.8,7,368.7l-23.9,254.5c-0.3,2.8-30.8,271.8-27.9,325.9l0,0.1c0,3.4,1,339.6,4,380.9c0.1,2.4,14,235.5,15,244.3
					c0,0.5,3.4,42.4-10.9,88.8c-8.4,27.3-21.2,50.8-38,69.9c-21,23.8-48.4,40.7-81.3,50.2c-2.5,0.9-59.4,21-141.6,29.8
					C422.2,2260.1,396.9,2261.5,371.9,2261.5z M51.2,267.8C50,272.1,13.3,414.5,8.3,513.6l0,0.1c-8.9,100.5,2.9,339.5,3,341.9
					c1,27.5,20.8,202.6,21,204.4c1,11.9,25.7,237.1,25.9,239.4c8.9,79,3.1,382.3,3,385.4l-15,312.4c-3.4,39.8-0.4,75.8,8.8,107.1
					c7.4,25,18.7,47.1,33.8,65.7c25.6,31.7,53.5,42.3,53.7,42.4l0.1,0c49.8,21.3,104.2,35.1,161.7,41.1c46,4.8,94,4.6,142.8-0.6
					c83.1-8.8,140.2-29.4,140.7-29.6l0.1,0c32.1-9.2,58.7-25.6,79.2-48.8c16.4-18.6,28.9-41.5,37.1-68.2
					c14.1-45.6,10.8-86.8,10.8-87.2c-1-8.9-14.4-234.8-15-244.5c-3-41.3-4-375-4-381.2c-3-54.6,27.6-323.8,27.9-326.5L748,812.7
					c15.9-272.4-6.7-366.4-6.9-367.3l0-0.2c-14.6-102.2-64.2-250.5-64.7-252c-10.4-28.2-32.8-70.7-80.4-113.3
					c-28.5-25.5-52.9-39.1-53.2-39.2l-0.1-0.1C472.3-3.5,348.7,4.9,347.5,4.9l-0.1,0l-0.1,0c-0.5,0-50.5-2.6-111.6,28.4
					c-35.9,18.2-68.6,44.3-97.2,77.4C102.7,152.3,73.3,205.1,51.2,267.8z"/>
			</g>
			<g>
				<g>
					<g>
						<g>
							<path class="st1" d="M436.8,641.5c-5.7,0-10.2-4.5-10.2-10s4.6-10,10.2-10s10.2,4.5,10.2,10S442.4,641.5,436.8,641.5z
								 M436.8,626.1c-3.2,0-5.8,2.4-5.8,5.5s2.6,5.5,5.8,5.5s5.8-2.4,5.8-5.5S440,626.1,436.8,626.1z"/>
						</g>
					</g>
				</g>
				<g>
					<g>
						<g>
							<path class="st1" d="M322.2,641.5c-5.7,0-10.2-4.5-10.2-10s4.6-10,10.2-10s10.2,4.5,10.2,10S327.8,641.5,322.2,641.5z
								 M322.2,626.1c-3.2,0-5.8,2.4-5.8,5.5s2.6,5.5,5.8,5.5s5.8-2.4,5.8-5.5S325.4,626.1,322.2,626.1z"/>
						</g>
					</g>
				</g>
				<g>
					<g>
						<g>
							<path class="st1" d="M436.8,494.9c-5.7,0-10.2-4.5-10.2-10s4.6-10,10.2-10s10.2,4.5,10.2,10S442.4,494.9,436.8,494.9z
								 M436.8,479.5c-3.2,0-5.8,2.4-5.8,5.5s2.6,5.5,5.8,5.5s5.8-2.4,5.8-5.5S440,479.5,436.8,479.5z"/>
						</g>
					</g>
				</g>
				<g>
					<g>
						<g>
							<path class="st1" d="M322.2,494.9c-5.7,0-10.2-4.5-10.2-10s4.6-10,10.2-10s10.2,4.5,10.2,10S327.8,494.9,322.2,494.9z
								 M322.2,479.5c-3.2,0-5.8,2.4-5.8,5.5s2.6,5.5,5.8,5.5s5.8-2.4,5.8-5.5S325.4,479.5,322.2,479.5z"/>
						</g>
					</g>
				</g>
			</g>
			<g>
				<g>
					<g>
						<g>
							<path class="st1" d="M436.8,1804.3c-5.7,0-10.2-4.5-10.2-10s4.6-10,10.2-10s10.2,4.5,10.2,10S442.4,1804.3,436.8,1804.3z
								 M436.8,1788.9c-3.2,0-5.8,2.4-5.8,5.5s2.6,5.5,5.8,5.5s5.8-2.4,5.8-5.5S440,1788.9,436.8,1788.9z"/>
						</g>
					</g>
				</g>
				<g>
					<g>
						<g>
							<path class="st1" d="M322.2,1804.3c-5.7,0-10.2-4.5-10.2-10s4.6-10,10.2-10s10.2,4.5,10.2,10S327.8,1804.3,322.2,1804.3z
								 M322.2,1788.9c-3.2,0-5.8,2.4-5.8,5.5s2.6,5.5,5.8,5.5s5.8-2.4,5.8-5.5S325.4,1788.9,322.2,1788.9z"/>
						</g>
					</g>
				</g>
				<g>
					<g>
						<g>
							<path class="st1" d="M436.8,1657.7c-5.7,0-10.2-4.5-10.2-10s4.6-10,10.2-10s10.2,4.5,10.2,10S442.4,1657.7,436.8,1657.7z
								 M436.8,1642.3c-3.2,0-5.8,2.4-5.8,5.5s2.6,5.5,5.8,5.5s5.8-2.4,5.8-5.5C442.6,1644.7,440,1642.3,436.8,1642.3z"/>
						</g>
					</g>
				</g>
				<g>
					<g>
						<g>
							<path class="st1" d="M322.2,1657.7c-5.7,0-10.2-4.5-10.2-10s4.6-10,10.2-10s10.2,4.5,10.2,10S327.8,1657.7,322.2,1657.7z
								 M322.2,1642.3c-3.2,0-5.8,2.4-5.8,5.5s2.6,5.5,5.8,5.5s5.8-2.4,5.8-5.5C328,1644.7,325.4,1642.3,322.2,1642.3z"/>
						</g>
					</g>
				</g>
			</g>
		</g>
		<g>
			<path class="st2" d="M372.2,2237.1c-21.3,0-42.2-1.1-62.8-3.4c-53.6-5.9-104.4-19.5-150.9-40.4c-1-0.4-26.7-10.7-51-42.4
				c-14.3-18.5-25-40.6-32-65.5c-8.7-31.1-11.5-66.8-8.3-106.1l13.9-305c0.1-2.9,5.4-299-2.8-376c-0.2-2.2-23.1-222.4-24-233.9
				c-0.2-1.7-18.5-172.8-19.4-199.9c-0.1-2.3-11-236-2.8-334.4c1.8-74.4,39.4-239.4,39.7-241.1l0-0.1
				C92.5,227.1,120,175,153.4,134.1c26.8-32.8,57.5-58.5,91.2-76.5c56.1-30,102.3-28.2,104.9-28.1c1.9-0.1,30.4-2.1,66.2,1.1
				c34.1,3,82,11.4,116.6,34.3c0.2,0.1,23,13.5,49.7,38.6c24.7,23.2,57.8,61.5,75.5,112c0.5,1.4,52.8,145.7,60.2,247
				c0.2,2.5,22,256.8,6.5,360L702,1071c-0.3,2.7-28.7,265.6-25.9,318.5c0,3.4,0.9,332,3.7,372.4c0.1,2.3,13,230.1,13.9,238.8
				c0,0.4,3.1,41.3-10.1,86.5c-7.8,26.6-19.6,49.5-35.1,68c-19.4,23.2-44.6,39.7-75,48.9c-2,0.7-54.8,20.5-131,29.1
				C418.8,2235.7,395.3,2237.1,372.2,2237.1z M74.6,289.7c-1,4.3-37.9,166.9-39.6,240.4l0,0.1c-8.2,98.2,2.7,331.8,2.8,334.1
				c0.9,27,19.2,198,19.4,199.7c0.9,11.6,23.8,231.7,24,233.9c8.2,77.2,2.9,373.4,2.8,376.4l-13.9,305.1c-3.2,39-0.4,74.3,8.2,105
				c6.9,24.5,17.4,46.2,31.4,64.5c23.8,31.1,49.7,41.5,49.9,41.6c46.3,20.8,96.7,34.4,150,40.2c42.6,4.7,87.2,4.5,132.4-0.6
				c77-8.6,129.9-28.7,130.4-28.9l0.1,0c29.8-9,54.6-25.2,73.6-47.9c15.2-18.2,26.8-40.8,34.5-67c13.1-44.7,10-85,10-85.4
				c-0.9-8.7-13.4-229.4-13.9-238.8c-2.8-40.5-3.7-369.2-3.7-372.5c-2.8-53,25.6-316.2,25.9-318.9l22.2-248.6
				c15.5-103-6.3-356.9-6.5-359.4c-7.3-100.9-59.5-244.8-60-246.2c-9.7-27.6-30.5-69.2-74.6-110.8c-26.5-24.9-49.1-38.2-49.3-38.3
				c-65.4-43.2-180-35-181.1-34.9l-0.1,0l-0.1,0c-0.5,0-46.8-2.5-103.5,27.8c-33.3,17.8-63.7,43.3-90.2,75.8
				C122.5,176.7,95.2,228.4,74.6,289.7z"/>
		</g>
		<g>
			<path class="st3" d="M372.8,2213.5c-1.9,0-3.9,0-5.8,0l0-3.7c4.6,0.1,9.1,0,13.5,0l0.1,3.7C378,2213.5,375.4,2213.5,372.8,2213.5
				z M353.4,2213.2c-4.5-0.2-9.1-0.4-13.6-0.7l0.2-3.7c4.5,0.3,9,0.5,13.5,0.7L353.4,2213.2z M394.3,2213.1l-0.2-3.7
				c4.5-0.2,9-0.4,13.5-0.7l0.2,3.7C403.4,2212.7,398.8,2212.9,394.3,2213.1z M326.1,2211.4c-4.5-0.4-9.1-0.9-13.6-1.5l0.5-3.7
				c4.5,0.5,9,1,13.5,1.5L326.1,2211.4z M421.5,2211.3l-0.3-3.7c4.5-0.4,9-0.9,13.5-1.4l0.4,3.7
				C430.5,2210.4,426,2210.9,421.5,2211.3z M448.6,2208.2l-0.5-3.7c4.5-0.6,9-1.3,13.4-2l0.6,3.7
				C457.6,2206.9,453.1,2207.5,448.6,2208.2z M299.1,2208.1c-4.5-0.7-9-1.4-13.5-2.3l0.7-3.6c4.4,0.8,8.9,1.6,13.3,2.2L299.1,2208.1
				z M475.5,2203.7l-0.7-3.6c4.4-0.8,8.9-1.7,13.3-2.7l0.8,3.6C484.4,2202,479.9,2202.9,475.5,2203.7z M272.2,2203.2
				c-4.4-1-8.9-2-13.3-3.1l0.9-3.6c4.3,1.1,8.8,2.1,13.2,3L272.2,2203.2z M502.1,2198l-0.9-3.6c4.4-1.1,8.8-2.2,13.1-3.3l1,3.6
				C511,2195.8,506.5,2197,502.1,2198z M245.8,2196.6c-4.4-1.2-8.8-2.5-13.1-3.9l1.1-3.5c4.3,1.3,8.6,2.6,13,3.9L245.8,2196.6z
				 M528.5,2191l-1.1-3.6c4.4-1.3,8.8-2.7,12.9-4l1.2,3.5C537.4,2188.3,533,2189.7,528.5,2191z M219.7,2188.4
				c-4.3-1.5-8.6-3.1-12.8-4.7l1.3-3.5c4.2,1.6,8.5,3.2,12.7,4.7L219.7,2188.4z M554.5,2182.4l-1.3-3.5c0.7-0.3,1.3-0.5,1.8-0.7
				v-0.1l1.3-0.4c3.3-1.1,6.5-2.2,9.6-3.5l1.4,3.4c-3.2,1.3-6.5,2.5-9.9,3.6l0,0C556.7,2181.5,555.8,2181.9,554.5,2182.4z
				 M194.3,2178.6c-4.2-1.8-8.4-3.6-12.5-5.5l1.6-3.4c4.1,1.9,8.2,3.7,12.4,5.5L194.3,2178.6z M579.7,2172l-1.7-3.3
				c4-2,7.9-4.3,11.6-6.7l2,3.1C587.8,2167.6,583.8,2169.9,579.7,2172z M169.5,2166.8c-3.8-2.3-7.6-4.9-11.4-7.9l2.3-2.9
				c3.7,2.9,7.4,5.4,11,7.6L169.5,2166.8z M602.8,2157.2l-2.3-2.9c3.5-2.8,6.9-5.7,10.1-8.8l2.6,2.7
				C609.9,2151.3,606.4,2154.4,602.8,2157.2z M147.7,2149.9c-3.3-3.1-6.4-6.5-9.5-10l2.8-2.4c2.9,3.4,6,6.7,9.2,9.7L147.7,2149.9z
				 M622.6,2138.1l-2.8-2.4c2.9-3.4,5.6-6.9,8.2-10.6l3,2.1C628.3,2131,625.5,2134.6,622.6,2138.1z M129.8,2129.1
				c-2.6-3.7-5.2-7.5-7.6-11.5l3.2-1.9c2.3,3.9,4.8,7.6,7.4,11.2L129.8,2129.1z M638.4,2115.7l-3.2-1.9c2.2-3.8,4.4-7.8,6.3-11.9
				l3.3,1.6C642.9,2107.7,640.7,2111.8,638.4,2115.7z M115.6,2105.6c-2-4-3.9-8.2-5.7-12.5l3.4-1.4c1.7,4.2,3.6,8.3,5.6,12.2
				L115.6,2105.6z M650.5,2091l-3.4-1.4c1.6-4.1,3.2-8.3,4.6-12.7l3.5,1.2C653.7,2082.5,652.1,2086.9,650.5,2091z M105,2080.3
				c-1.4-4.2-2.8-8.6-4-13.1l3.6-1c1.2,4.4,2.5,8.7,3.9,12.9L105,2080.3z M659.1,2065l-3.6-1c1.1-4.3,2.2-8.7,3.1-13.1l3.6,0.8
				C661.3,2056.2,660.2,2060.7,659.1,2065z M97.8,2054c-0.9-4.4-1.8-8.9-2.5-13.4l3.7-0.6c0.7,4.5,1.5,8.9,2.5,13.2L97.8,2054z
				 M664.7,2038.2l-3.7-0.6c0.7-4.4,1.3-8.9,1.8-13.4l3.7,0.4C666,2029.2,665.4,2033.8,664.7,2038.2z M93.5,2027
				c-0.5-4.4-0.9-9-1.2-13.6l3.7-0.2c0.3,4.5,0.7,9.1,1.2,13.4L93.5,2027z M667.6,2011l-3.7-0.2c0.3-4.5,0.5-9.1,0.5-13.5l3.7,0
				C668.1,2001.8,667.9,2006.4,667.6,2011z M91.7,1999.7c-0.1-2.8-0.1-5.6-0.1-8.4c0-1.7,0-3.5,0-5.2l3.7,0.1c0,1.7,0,3.5,0,5.2
				c0,2.8,0,5.6,0.1,8.3L91.7,1999.7z M664.2,1983.8c0-0.7-0.1-1.1-0.1-1.1c-0.1-1.1-0.4-5.2-0.8-12.5l3.7-0.2
				c0.4,7.2,0.7,11.4,0.8,12.4c0,0.1,0,0.5,0.1,1.3L664.2,1983.8z M95.8,1972.6l-3.7-0.2c0.2-3.6,0.4-7.4,0.7-11.1l0.1-2.5l3.7,0.2
				l-0.1,2.5C96.2,1965.3,95.9,1969,95.8,1972.6z M662.6,1956.5c-0.2-4.2-0.5-8.7-0.8-13.6l3.7-0.2c0.3,4.9,0.5,9.4,0.8,13.6
				L662.6,1956.5z M97.1,1945.5l-3.7-0.2l0.6-13.6l3.7,0.2L97.1,1945.5z M661.1,1929.3l-0.7-13.6l3.7-0.2l0.7,13.6L661.1,1929.3z
				 M98.3,1918.3l-3.7-0.2l0.6-13.6l3.7,0.2L98.3,1918.3z M659.6,1902l-0.7-13.6l3.7-0.2l0.7,13.6L659.6,1902z M99.5,1891.2
				l-3.7-0.2l0.6-13.6l3.7,0.2L99.5,1891.2z M658.1,1874.8l-0.7-13.6l3.7-0.2l0.7,13.6L658.1,1874.8z M100.6,1864l-3.7-0.2l0.6-13.6
				l3.7,0.2L100.6,1864z M656.7,1847.6L656,1834l3.7-0.2l0.7,13.6L656.7,1847.6z M101.8,1836.9l-3.7-0.2l0.6-13.6l3.7,0.2
				L101.8,1836.9z M655.2,1820.4l-0.7-13.6l3.7-0.2l0.7,13.6L655.2,1820.4z M102.9,1809.7l-3.7-0.2l0.6-13.6l3.7,0.2L102.9,1809.7z
				 M653.8,1793.2l-0.7-13.6l3.7-0.2l0.7,13.6L653.8,1793.2z M104.1,1782.6l-3.7-0.2l0.6-13.6l3.7,0.2L104.1,1782.6z M652.3,1765.9
				l-0.7-13.7l3.7-0.2l0.7,13.7L652.3,1765.9z M105.2,1755.4l-3.7-0.2l0.6-13.6l3.7,0.2L105.2,1755.4z M651,1738.5
				c-0.1-3.9-0.2-8.5-0.4-13.7l3.7-0.1c0.1,5.2,0.2,9.7,0.4,13.6L651,1738.5z M106.4,1728.3l-3.7-0.2l0.6-13.6l3.7,0.2L106.4,1728.3
				z M650.4,1711.2c-0.1-4.3-0.1-8.9-0.2-13.6l3.7-0.1c0.1,4.8,0.1,9.3,0.2,13.6L650.4,1711.2z M107.6,1701.1l-3.7-0.2l0.6-13.6
				l3.7,0.2L107.6,1701.1z M650,1684c-0.1-4.4-0.1-9-0.2-13.6l3.7,0c0.1,4.7,0.1,9.2,0.2,13.6L650,1684z M108.7,1674l-3.7-0.2
				l0.4-10.3c0-0.1,0-1.3,0.1-3.3l3.7,0.1l0,2.4c0,0.2,0,0.6-0.1,0.9l0,0L108.7,1674z M649.6,1656.7c0-4.5-0.1-9-0.1-13.6l3.7,0
				c0,4.6,0.1,9.2,0.1,13.6L649.6,1656.7z M109.4,1646.7l-3.7-0.1c0.1-3.9,0.1-8.5,0.2-13.6l3.7,0.1
				C109.5,1638.2,109.5,1642.8,109.4,1646.7z M649.4,1629.5l-0.1-13.6l3.7,0l0.1,13.6L649.4,1629.5z M109.8,1619.5l-3.7,0
				c0.1-4.3,0.1-8.8,0.2-13.6l3.7,0C109.9,1610.7,109.9,1615.2,109.8,1619.5z M649.2,1602.2l-0.1-13.6l3.7,0l0.1,13.6L649.2,1602.2z
				 M110.1,1592.3l-3.7,0c0-4.4,0.1-8.9,0.1-13.6l3.7,0C110.2,1583.4,110.2,1587.9,110.1,1592.3z M649,1575l-0.1-13.7l3.7,0
				l0.1,13.7L649,1575z M110.4,1565.1l-3.7,0c0-4.4,0.1-9,0.1-13.6l3.7,0C110.5,1556.2,110.4,1560.7,110.4,1565.1z M648.8,1547.8
				l-0.1-13.6l3.7,0l0.1,13.6L648.8,1547.8z M110.6,1537.9l-3.7,0c0-4.5,0.1-9,0.1-13.6l3.7,0
				C110.7,1528.9,110.6,1533.5,110.6,1537.9z M648.6,1520.5l-0.1-13.6l3.7,0l0.1,13.6L648.6,1520.5z M110.7,1510.7l-3.7,0
				c0-4.5,0-9,0-13.6l3.7,0C110.8,1501.7,110.8,1506.2,110.7,1510.7z M648.5,1493.3l-0.1-13.6l3.7,0l0.1,13.6L648.5,1493.3z
				 M110.8,1483.5l-3.7,0c0-3.9,0-7.7,0-11.6l0-2h3.7l0,2C110.8,1475.8,110.8,1479.7,110.8,1483.5z M648.3,1466l-0.1-13.6l3.7,0
				l0.1,13.6L648.3,1466z M107.1,1456.3c0-4.5,0-9.1,0-13.6l3.7,0c0,4.5,0,9,0,13.6L107.1,1456.3z M648.2,1438.8l-0.1-13.6l3.7,0
				l0.1,13.6L648.2,1438.8z M107,1429.2c0-4.6-0.1-9.1-0.1-13.6l3.7,0c0,4.5,0.1,9,0.1,13.6L107,1429.2z M648.1,1411.5l0-13.7l3.7,0
				l0,13.7L648.1,1411.5z M106.8,1402c-0.1-4.6-0.1-9.1-0.2-13.6l3.7-0.1c0.1,4.5,0.1,9,0.2,13.6L106.8,1402z M648,1384.2
				c-0.1-2-0.1-4.3-0.1-6.9c0-2.1,0-4.4,0.1-6.8l3.7,0.1c0,2.4-0.1,4.7-0.1,6.7c0,2.5,0,4.8,0.1,6.8L648,1384.2z M106.4,1374.8
				c-0.1-4.6-0.2-9.2-0.3-13.6l3.7-0.1c0.1,4.4,0.2,9,0.3,13.6L106.4,1374.8z M652.1,1357l-3.7-0.1c0.2-4.2,0.4-8.8,0.6-13.6
				l3.7,0.2C652.4,1348.2,652.2,1352.8,652.1,1357z M105.7,1347.7c-0.1-4.7-0.3-9.2-0.5-13.6l3.7-0.1c0.2,4.3,0.3,8.9,0.5,13.6
				L105.7,1347.7z M653.5,1329.8l-3.7-0.2c0.3-4.4,0.6-8.9,0.9-13.6l3.7,0.2C654,1320.9,653.7,1325.4,653.5,1329.8z M104.6,1320.5
				c-0.2-4.9-0.5-9.5-0.8-13.5l3.7-0.3c0.3,4.1,0.6,8.7,0.8,13.6L104.6,1320.5z M655.3,1302.6l-3.7-0.3c0.3-4.4,0.6-9,1-13.6
				l3.7,0.3C655.9,1293.7,655.6,1298.2,655.3,1302.6z M102.7,1293.5l-1.3-13.6l3.7-0.4l1.3,13.6L102.7,1293.5z M657.3,1275.5
				l-3.7-0.3c0.3-4.5,0.7-9,1.1-13.6l3.7,0.3C658,1266.5,657.6,1271,657.3,1275.5z M100,1266.3l-1.3-13.6l3.7-0.4l1.3,13.6
				L100,1266.3z M659.4,1248.4l-3.7-0.3c0.4-4.5,0.8-9,1.1-13.6l3.7,0.3C660.2,1239.3,659.8,1243.9,659.4,1248.4z M97.4,1239.1
				l-1.3-13.6l3.7-0.4l1.3,13.6L97.4,1239.1z M661.7,1221.2l-3.7-0.3c0.4-4.5,0.8-9.1,1.2-13.6l3.7,0.3
				C662.5,1212.2,662.1,1216.7,661.7,1221.2z M94.7,1212l-1.3-13.6l3.7-0.4l1.3,13.6L94.7,1212z M664.1,1194.1l-3.7-0.3
				c0.4-4.6,0.8-9.1,1.2-13.6l3.7,0.3C664.9,1185,664.5,1189.6,664.1,1194.1z M92.1,1184.9l-1.3-13.6l3.7-0.4l1.3,13.6L92.1,1184.9z
				 M666.6,1167l-3.7-0.3c0.4-4.6,0.8-9.1,1.3-13.6l3.7,0.3C667.4,1157.9,667,1162.4,666.6,1167z M89.5,1157.8l-1.3-13.6l3.7-0.4
				l1.3,13.6L89.5,1157.8z M669.1,1139.9l-3.7-0.3c0.4-4.7,0.9-9.2,1.3-13.6l3.7,0.4C670,1130.7,669.5,1135.2,669.1,1139.9z
				 M86.9,1130.6l-1.3-13.6l3.7-0.4l1.3,13.6L86.9,1130.6z M671.7,1112.8l-3.7-0.4c0.5-4.9,0.9-9.5,1.3-13.6l3.7,0.4
				C672.6,1103.3,672.2,1107.9,671.7,1112.8z M84.3,1103.5c-0.5-4.9-0.9-9.5-1.3-13.6l3.7-0.3c0.4,4.1,0.8,8.6,1.3,13.6L84.3,1103.5
				z M674.3,1085.6l-3.7-0.4c0.7-7,1.1-11,1.1-11l0.2-2.6l3.7,0.3l-0.2,2.7C675.4,1074.7,675,1078.6,674.3,1085.6z M81.7,1076.3
				c-0.4-4.6-0.7-7.3-0.7-8.4l-0.5-5.3l3.7-0.4l0.4,4.4c0,0.4,0.1,0.7,0.1,0.9l0,0c0.1,1,0.3,3.8,0.7,8.3L81.7,1076.3z
				 M676.8,1058.5l-3.7-0.3l1.1-13.5l3.7,0.3L676.8,1058.5z M79.1,1049.1c-0.4-4-0.9-8.6-1.3-13.6l3.7-0.4c0.5,5,0.9,9.5,1.3,13.6
				L79.1,1049.1z M679.1,1031.4l-3.7-0.3l1.1-13.5l3.7,0.3L679.1,1031.4z M76.4,1022c-0.4-4.3-0.9-8.9-1.3-13.6l3.7-0.4
				c0.5,4.7,0.9,9.2,1.3,13.6L76.4,1022z M681.3,1004.3l-3.7-0.3l1.1-13.5l3.7,0.3L681.3,1004.3z M73.7,994.9
				c-0.4-4.5-0.9-9-1.3-13.6l3.7-0.4c0.4,4.6,0.9,9.1,1.3,13.6L73.7,994.9z M683.6,977.2l-3.7-0.3l1.1-13.5l3.7,0.3L683.6,977.2z
				 M71.1,967.8c-0.4-4.5-0.9-9.1-1.3-13.5l3.7-0.3c0.4,4.5,0.8,9,1.3,13.5L71.1,967.8z M685.9,950.1l-3.7-0.3l1.1-13.5l3.7,0.3
				L685.9,950.1z M68.6,940.6c-0.4-4.6-0.8-9.2-1.2-13.6l3.7-0.3c0.4,4.4,0.8,8.9,1.2,13.6L68.6,940.6z M688.1,923.1l-3.7-0.3
				l1.1-13.5l3.7,0.3L688.1,923.1z M66.2,913.5c-0.4-4.8-0.8-9.4-1.2-13.6l3.7-0.3c0.3,4.2,0.7,8.8,1.2,13.6L66.2,913.5z M690.4,896
				l-3.7-0.3l1.1-13.5l3.7,0.3L690.4,896z M64,886.3c-0.5-6.2-0.7-10.7-0.8-13.6h0c0,0,0-0.1,0-0.1l1.9-0.1l0-1.7l1.8,0l0.1,1.8
				c0.1,2.8,0.4,7.3,0.8,13.4L64,886.3z M692.7,868.9l-3.7-0.3l1.1-13.5l3.7,0.3L692.7,868.9z M62.6,859c-0.2-3.8-0.3-8.4-0.5-13.6
				l3.7-0.1c0.2,5.2,0.4,9.8,0.5,13.6L62.6,859z M694.9,841.8l-3.7-0.3l0.8-10c0.2-1.2,0.3-2.4,0.5-3.6l3.7,0.5
				c-0.2,1.2-0.3,2.4-0.5,3.6L694.9,841.8z M61.6,831.8c-0.2-4.3-0.3-8.8-0.5-13.6l3.7-0.1c0.2,4.8,0.3,9.3,0.5,13.6L61.6,831.8z
				 M697.7,814.8l-3.7-0.3c0.4-4.2,0.8-8.8,1.1-13.5l3.7,0.3C698.5,806,698.1,810.6,697.7,814.8z M60.6,804.6
				c-0.1-4.4-0.3-8.9-0.4-13.6l3.7-0.1c0.1,4.7,0.3,9.2,0.4,13.6L60.6,804.6z M699.6,787.6l-3.7-0.2c0.2-4.4,0.4-8.9,0.6-13.5
				l3.7,0.1C700,778.7,699.8,783.3,699.6,787.6z M59.8,777.4c-0.1-4.4-0.2-9-0.4-13.6l3.7-0.1c0.1,4.6,0.2,9.1,0.4,13.6L59.8,777.4z
				 M700.6,760.4l-3.7-0.1c0.1-4.3,0.2-8.9,0.2-13.6l3.7,0C700.8,751.5,700.7,756.1,700.6,760.4z M59.1,750.2
				c-0.1-4.5-0.2-9-0.3-13.6l3.7-0.1c0.1,4.6,0.2,9.1,0.3,13.6L59.1,750.2z M700.9,733.2l-3.7,0l0-4.6c0-3,0-6,0-9l3.7,0
				c0,3,0,6,0,9L700.9,733.2z M58.6,723c-0.1-4.5-0.2-9-0.2-13.6l3.7-0.1c0.1,4.6,0.2,9.1,0.2,13.6L58.6,723z M697.1,706
				c-0.1-4.5-0.1-9-0.2-13.6l3.7-0.1c0.1,4.5,0.2,9.1,0.2,13.6L697.1,706z M58.1,695.8c-0.1-4.5-0.1-9.1-0.2-13.6l3.7,0
				c0,4.5,0.1,9.1,0.2,13.6L58.1,695.8z M696.6,678.9c-0.1-4.5-0.2-9.1-0.4-13.6l3.7-0.1c0.1,4.5,0.3,9.1,0.4,13.6L696.6,678.9z
				 M57.9,668.6c0-4.6,0-9.1-0.1-13.6l3.7,0c0,4.5,0,9,0.1,13.6L57.9,668.6z M695.8,651.7c-0.2-4.6-0.3-9.1-0.5-13.6l3.7-0.1
				c0.2,4.5,0.3,9,0.5,13.6L695.8,651.7z M61.5,641.4l-3.7,0c0-4.6,0-9.1,0.1-13.6l3.7,0C61.6,632.3,61.5,636.8,61.5,641.4z
				 M694.8,624.5c-0.2-4.6-0.4-9.1-0.6-13.6l3.7-0.2c0.2,4.5,0.4,9,0.6,13.6L694.8,624.5z M61.7,614.2l-3.7-0.1
				c0.1-4.6,0.1-9.1,0.2-13.6l3.7,0.1C61.9,605.1,61.8,609.6,61.7,614.2z M693.5,597.4c-0.2-4.6-0.5-9.1-0.7-13.6l3.7-0.2
				c0.2,4.5,0.5,9,0.7,13.6L693.5,597.4z M62.3,587.1l-3.7-0.1c0.1-4.7,0.3-9.3,0.5-13.6l3.7,0.2C62.6,577.8,62.5,582.4,62.3,587.1z
				 M692.1,570.2c-0.3-4.6-0.5-9.2-0.8-13.6l3.7-0.2c0.3,4.4,0.5,8.9,0.8,13.6L692.1,570.2z M63.4,560l-3.7-0.2
				c0.3-4.8,0.6-9.4,0.9-13.6l3.7,0.3C64,550.6,63.7,555.2,63.4,560z M64.4,546.1l-3.7-0.1c0.1-4.2,0.3-8.8,0.6-13.7l3.7,0.2
				C64.7,537.5,64.5,542,64.4,546.1z M690.5,543.1c-0.3-4.7-0.6-9.3-0.9-13.6l3.7-0.2c0.3,4.3,0.6,8.8,0.9,13.6L690.5,543.1z
				 M66,519.1l-3.7-0.3c0.4-4.3,0.9-8.9,1.4-13.6l3.7,0.4C66.9,510.3,66.4,514.8,66,519.1z M688.7,515.9c-0.3-5-0.7-9.5-1-13.6
				l3.7-0.3c0.3,4,0.6,8.6,1,13.6L688.7,515.9z M69,492.1l-3.7-0.5c0.5-4.3,1.1-8.9,1.8-13.5l3.7,0.5
				C70.1,483.3,69.5,487.8,69,492.1z M686.8,488.8c-0.2-2.9-0.4-5-0.5-6.3h0l-0.1-1.7c-0.1-1.8-0.3-3.7-0.4-5.5l3.7-0.3
				c0.2,1.9,0.3,3.7,0.4,5.6l0,0c0.1,0.5,0.1,1.2,0.2,2.1c0.1,1.4,0.3,3.4,0.5,6L686.8,488.8z M72.7,465.2l-3.7-0.5
				c0.7-4.5,1.3-9,2-13.5l3.7,0.6C74,456.2,73.4,460.7,72.7,465.2z M684.4,461.7c-0.5-4.3-1-8.9-1.7-13.5l3.7-0.5
				c0.6,4.6,1.2,9.2,1.7,13.5L684.4,461.7z M76.9,438.3l-3.7-0.6c0.7-4.5,1.5-9,2.2-13.4l3.7,0.6C78.3,429.3,77.6,433.8,76.9,438.3z
				 M680.8,434.9c-0.7-4.4-1.4-8.9-2.2-13.4l3.7-0.6c0.8,4.5,1.6,9.1,2.2,13.5L680.8,434.9z M81.4,411.5l-3.7-0.6
				c0.8-4.5,1.6-9,2.4-13.4l3.6,0.7C83,402.5,82.2,407,81.4,411.5z M676.1,408.1c-0.8-4.4-1.7-8.9-2.7-13.3l3.6-0.8
				c0.9,4.5,1.8,9,2.7,13.4L676.1,408.1z M86.2,384.7l-3.6-0.7c0.9-4.6,1.7-9.1,2.5-13.4l3.6,0.7C87.9,375.6,87.1,380.1,86.2,384.7z
				 M670.6,381.5c-1-4.4-2-8.8-3-13.2l3.6-0.8c1,4.4,2.1,8.9,3,13.3L670.6,381.5z M91.3,358l-3.6-0.7c0.9-4.7,1.8-9.2,2.6-13.4
				l3.6,0.7C93.1,348.8,92.2,353.2,91.3,358z M664.4,355.1c-1.1-4.3-2.2-8.8-3.3-13.2l3.6-0.9c1.1,4.4,2.2,8.9,3.3,13.2L664.4,355.1
				z M96.6,331.3l-3.6-0.7c1.1-5.5,2.1-10,2.8-13.4l3.6,0.8C98.7,321.2,97.7,325.8,96.6,331.3z M657.6,328.8
				c-1.2-4.5-2.4-8.9-3.6-13.1l3.6-1c1.2,4.3,2.4,8.7,3.6,13.1L657.6,328.8z M102.8,305l-3.5-1.1c1.4-4.3,2.9-8.7,4.4-12.9l3.5,1.2
				C105.7,296.3,104.3,300.6,102.8,305z M650.4,302.6c-1.3-4.5-2.6-8.9-3.8-13.1l3.6-1c1.2,4.2,2.5,8.5,3.8,13.1L650.4,302.6z
				 M111.8,279.4l-3.5-1.3c1.6-4.3,3.2-8.5,4.9-12.7l3.4,1.4C115,270.9,113.4,275.1,111.8,279.4z M642.7,276.5
				c-1.4-4.7-2.8-9.1-4-13l3.5-1.1c1.2,3.9,2.6,8.3,4,13L642.7,276.5z M121.8,254.3l-3.4-1.5c1.8-4.2,3.7-8.4,5.5-12.5l3.4,1.5
				C125.5,245.9,123.6,250.1,121.8,254.3z M634.6,250.5c-2.1-6.5-3.3-10.1-3.4-10.1c-0.3-0.9-0.6-1.9-0.9-2.8l3.5-1.2
				c0.3,0.9,0.6,1.9,0.9,2.8l0,0c0.3,0.6,0.5,1.4,0.9,2.6c0.6,1.7,1.4,4.3,2.5,7.5L634.6,250.5z M133.1,229.7l-3.3-1.6
				c2-4.1,4.1-8.2,6.2-12.1l3.3,1.7C137.2,221.6,135.1,225.6,133.1,229.7z M625.6,225c-1.7-4.1-3.5-8.3-5.4-12.4l3.4-1.6
				c1.9,4.1,3.8,8.3,5.5,12.5L625.6,225z M145.8,205.8l-3.2-1.8c2.3-4,4.6-7.9,6.9-11.7l3.2,1.9C150.3,197.9,148,201.8,145.8,205.8z
				 M614.1,200.6c-2.1-3.9-4.3-7.9-6.7-11.7l3.2-1.9c2.4,3.9,4.6,7.9,6.8,11.9L614.1,200.6z M159.9,182.7l-3.1-2
				c2.5-3.8,5.1-7.6,7.7-11.2l3,2.2C165,175.2,162.4,179,159.9,182.7z M600.2,177.5c-2.5-3.7-5.1-7.4-7.8-11l3-2.2
				c2.7,3.7,5.4,7.4,7.9,11.2L600.2,177.5z M175.6,160.8l-2.9-2.3c2.8-3.6,5.7-7.2,8.6-10.6l2.8,2.4
				C181.2,153.6,178.3,157.2,175.6,160.8z M584.1,155.8c-2.8-3.5-5.8-6.9-8.8-10.3l2.8-2.5c3,3.4,6,6.9,8.9,10.4L584.1,155.8z
				 M192.9,140.1l-2.7-2.5c3.1-3.4,6.3-6.7,9.4-9.9l2.6,2.6C199.1,133.5,196,136.7,192.9,140.1z M566.2,135.6
				c-3.1-3.2-6.3-6.4-9.6-9.5l2.6-2.7c3.3,3.1,6.6,6.4,9.7,9.6L566.2,135.6z M212,121l-2.5-2.7c3.4-3.1,6.8-6.1,10.3-9l2.4,2.9
				C218.8,115,215.3,118,212,121z M546.6,116.9c-3.4-3-6.9-5.9-10.4-8.7l2.3-2.9c3.5,2.8,7,5.8,10.5,8.8L546.6,116.9z M232.8,103.9
				l-2.2-3c3.7-2.7,7.4-5.4,11.2-7.8l2,3.1C240.1,98.6,236.4,101.2,232.8,103.9z M525.5,100.1c-4.4-3.2-7.2-5-7.7-5.3l-0.1-0.1
				l0,0.1c-1.1-0.8-2.2-1.5-3.3-2.3l2-3.1c1.2,0.8,2.3,1.5,3.4,2.3c0.6,0.4,3.5,2.2,7.9,5.4L525.5,100.1z M255.3,89l-1.9-3.2
				c3.9-2.3,8-4.5,12-6.6l1.7,3.3C263.2,84.6,259.2,86.8,255.3,89z M502.7,85.7c-3.8-2-7.9-3.9-12.1-5.7l1.4-3.4
				c4.3,1.8,8.5,3.8,12.4,5.9L502.7,85.7z M279.3,76.8l-1.5-3.4c4.2-1.8,8.5-3.5,12.7-5.1l1.3,3.5C287.6,73.4,283.4,75,279.3,76.8z
				 M478,75.2c-4.1-1.4-8.5-2.7-12.9-4l1-3.6c4.5,1.2,8.9,2.6,13.1,4L478,75.2z M452,68c-4.3-0.9-8.7-1.8-13.3-2.6l0.6-3.7
				c4.6,0.8,9.1,1.7,13.4,2.6L452,68z M304.6,67.7l-1-3.6c4.4-1.3,8.9-2.4,13.3-3.4l0.8,3.6C313.4,65.3,309,66.4,304.6,67.7z
				 M425.4,63.3c-4.4-0.6-8.9-1.1-13.4-1.5l0.3-3.7c4.6,0.4,9.2,0.9,13.6,1.5L425.4,63.3z M330.9,62l-0.5-3.7
				c4.8-0.7,9.4-1.1,13.7-1.3l0.2,3.7C340.1,61,335.6,61.4,330.9,62z M398.5,60.8c-4.5-0.3-9-0.5-13.5-0.6l0.1-3.7
				c4.5,0.1,9.1,0.3,13.6,0.6L398.5,60.8z M357.9,60.4l-0.2-3.7c4.3-0.2,8.9-0.3,13.7-0.3l0,3.7C366.7,60.1,362.2,60.2,357.9,60.4z"
				/>
		</g>
	</g>
</g>
</svg>
