<?xml version="1.0" encoding="utf-8"?>
<!-- Generator: Adobe Illustrator 26.3.1, SVG Export Plug-In . SVG Version: 6.00 Build 0)  -->
<svg version="1.1" id="Layer_1" xmlns="http://www.w3.org/2000/svg" xmlns:xlink="http://www.w3.org/1999/xlink" x="0px" y="0px"
	 viewBox="0 0 720.2 2307" style="enable-background:new 0 0 720.2 2307;" xml:space="preserve">
<style type="text/css">
	.st0{fill:#7900FF;}
	.st1{fill:#005EFF;}
	.st2{fill:#38E841;}
	.st3{fill:#ED1E77;}
</style>
<g id="Layer_2_00000109024567559567940460000008852462847634400384_">
	<g>
		<g>
			<g>
				<path class="st0" d="M356.5,2306.1c-14.9,0-30.5-0.4-47-1.2c-47.9-2.2-117.7-9.7-170.4-49.2c-26-19.5-45.8-45.4-59.1-77
					c-14.9-35.4-22-79.2-21.1-130.1c0-0.3-1-42.7-0.2-99.2c0.3-16.4,1.2-41.4,2-63.4c0.7-20,1.3-37.3,1.2-41.8
					c-0.4-13.9-0.6-33.7-1-58.7c-1.4-106.8-4.1-305.6-21.8-453.1c-0.5-4.7-48.2-468.9-37.6-655.4C12.3,488.9,52,301.5,107.6,175.7
					c28.7-59.4,56.2-98.3,89.3-126.1c38.6-32.4,85.7-49.2,144.2-51.6l0.2,0c7.9-0.3,16.5-0.3,24.4-0.1C421.1-0.2,471,18.2,514,52.5
					c36.1,28.8,67.4,68.8,92.8,118.8l0.2,0.6c15.5,29.5,90,179.6,102.7,363.7c0.2,3.6,22.3,360.4-0.3,566.7
					c-18.7,170.7-22.2,372.8-23.7,459.1c-0.3,18.6-0.5,30.9-0.8,35.7l0,0c-1.2,24.5-5.4,220.2-4,237.6c0.6,7.4,1.8,38.3,3.2,71
					c1.9,44.6,3.9,95.2,4.8,101.2c0.6,4.6,2.7,52.5-7,104.9c-5.6,30.3-14,56.5-25.1,77.9c-13.8,26.7-31.7,46-53.2,57.5
					c-46.9,24.9-90.3,40.6-136.6,49.5C434.3,2303,398.4,2306.1,356.5,2306.1z M341.2,2.5c-122.7,4.9-180.5,73.5-229.5,175
					C56.4,302.9,16.8,489.7,5.9,677.3c-10.6,186.2,37.1,650,37.6,654.6c17.8,147.8,20.4,346.7,21.8,453.6c0.3,25,0.6,44.7,1,58.6
					c0.1,4.6-0.5,22-1.2,42.1c-0.8,22-1.7,47-2,63.3c-0.8,56.4,0.2,98.7,0.2,99.1c-0.9,50.4,6.1,93.5,20.7,128.4
					c13,30.9,32.4,56.1,57.7,75.1c51.7,38.8,120.6,46.2,167.9,48.3c62.7,2.9,112.4,0.3,156.6-8.1c45.8-8.8,88.8-24.3,135.3-49
					c47.2-25,67.4-85.7,76-132.2c9.6-51.9,7.6-99,6.9-103.5c-0.9-6.2-2.9-54.7-4.8-101.7c-1.4-32.7-2.6-63.5-3.2-70.9
					c-1.4-17.6,2.6-210.3,4-238.2v0c0.3-4.8,0.5-17,0.8-35.6c1.5-86.4,5-288.6,23.7-459.5c22.5-205.9,0.5-562.3,0.3-565.9
					c-12.7-184.3-87.6-334.2-102.4-362.4l-0.3-0.5v-0.1c-25.1-49.2-55.9-88.5-91.4-116.9C468.9,22.3,419.9,4.3,365.5,2.4
					c-7.8-0.2-16.2-0.2-24.1,0.1L341.2,2.5z"/>
			</g>
			<g>
				<g>
					<g>
						<path class="st1" d="M416.8,552.8c-5.6,0-10.1-4.3-10.1-9.5c0-5.3,4.6-9.6,10.1-9.6s10.2,4.3,10.2,9.6
							C427,548.5,422.4,552.8,416.8,552.8z M416.8,538.1c-3.1,0-5.6,2.3-5.6,5.1s2.5,5,5.6,5s5.7-2.3,5.7-5S419.9,538.1,416.8,538.1
							z"/>
					</g>
				</g>
				<g>
					<g>
						<path class="st1" d="M303,552.8c-5.6,0-10.1-4.3-10.1-9.5c0-5.3,4.6-9.6,10.1-9.6s10.1,4.3,10.1,9.6
							C313.1,548.5,308.6,552.8,303,552.8z M303,538.1c-3.1,0-5.6,2.3-5.6,5.1s2.5,5,5.6,5s5.6-2.3,5.6-5S306.1,538.1,303,538.1z"/>
					</g>
				</g>
				<g>
					<g>
						<path class="st1" d="M416.8,414.9c-5.6,0-10.1-4.3-10.1-9.6c0-5.3,4.6-9.5,10.1-9.5s10.2,4.3,10.2,9.5
							C427,410.6,422.4,414.9,416.8,414.9z M416.8,400.2c-3.1,0-5.6,2.3-5.6,5s2.5,5.1,5.6,5.1s5.7-2.3,5.7-5.1
							S419.9,400.2,416.8,400.2z"/>
					</g>
				</g>
				<g>
					<g>
						<path class="st1" d="M303,414.9c-5.6,0-10.1-4.3-10.1-9.6c0-5.3,4.6-9.5,10.1-9.5s10.1,4.3,10.1,9.5
							C313.1,410.6,308.6,414.9,303,414.9z M303,400.2c-3.1,0-5.6,2.3-5.6,5s2.5,5.1,5.6,5.1s5.6-2.3,5.6-5.1S306.1,400.2,303,400.2
							z"/>
					</g>
				</g>
			</g>
			<g>
				<g>
					<g>
						<path class="st1" d="M420.6,1833.8c-5.9,0-10.6-4.9-10.6-10.8c0-6,4.8-10.9,10.6-10.9c5.9,0,10.7,4.9,10.7,10.9
							C431.2,1828.9,426.5,1833.8,420.6,1833.8z M420.6,1816.5c-3.4,0-6.1,2.8-6.1,6.4c0,3.5,2.8,6.3,6.1,6.3c3.4,0,6.2-2.8,6.2-6.3
							C426.8,1819.4,424,1816.5,420.6,1816.5z"/>
					</g>
				</g>
				<g>
					<g>
						<path class="st1" d="M299.1,1833.8c-5.9,0-10.6-4.9-10.6-10.8c0-6,4.8-10.9,10.6-10.9s10.6,4.9,10.6,10.9
							C309.8,1828.9,305,1833.8,299.1,1833.8z M299.1,1816.5c-3.4,0-6.1,2.8-6.1,6.4c0,3.5,2.8,6.3,6.1,6.3s6.1-2.8,6.1-6.3
							C305.2,1819.4,302.5,1816.5,299.1,1816.5z"/>
					</g>
				</g>
				<g>
					<g>
						<path class="st1" d="M420.6,1670.8c-5.9,0-10.6-4.9-10.6-10.8s4.8-10.8,10.6-10.8c5.9,0,10.7,4.9,10.7,10.8
							S426.5,1670.8,420.6,1670.8z M420.6,1653.7c-3.4,0-6.1,2.8-6.1,6.3s2.8,6.3,6.1,6.3c3.4,0,6.2-2.8,6.2-6.3
							S424,1653.7,420.6,1653.7z"/>
					</g>
				</g>
				<g>
					<g>
						<path class="st1" d="M299.1,1670.8c-5.9,0-10.6-4.9-10.6-10.8s4.8-10.8,10.6-10.8s10.6,4.9,10.6,10.8S305,1670.8,299.1,1670.8
							z M299.1,1653.7c-3.4,0-6.1,2.8-6.1,6.3s2.8,6.3,6.1,6.3s6.1-2.8,6.1-6.3S302.5,1653.7,299.1,1653.7z"/>
					</g>
				</g>
			</g>
		</g>
		<g>
			<path class="st2" d="M356.8,2276.9c-13.5,0-27.7-0.4-42.5-1.1c-43.5-2.2-106.9-9.5-154.7-48c-23.6-19-41.6-44.2-53.7-75
				c-13.5-34.5-20-77.2-19.1-126.8c0-0.3-0.9-41.6-0.2-96.7c0.2-16.2,1.1-41,1.8-62.9c0.6-19,1.2-35.4,1.1-39.7
				c-0.3-13.5-0.6-32.6-0.9-56.8c-1.3-104.1-3.7-298-19.8-441.9c-0.4-4.6-43.7-456.9-34.1-638.7c9.7-183.3,45.7-366,96.2-488.7
				c26-57.9,51-95.8,81-122.8c35-31.6,77.8-48.1,130.9-50.4l0.1,0c4.4-0.2,8.6-0.3,13.1-0.3c3.1,0,6.2,0.1,9.2,0.2
				c50.3,1.8,95.6,19.7,134.7,53.2c32.8,28.1,61.1,67,84.2,115.8l0.2,0.5c14.1,28.7,81.6,174.8,93.1,354.5
				c0.2,3.5,20.2,351.2-0.3,552.3c-16.9,167.3-20.2,371.9-21.4,448.9c-0.3,17.3-0.5,28.7-0.7,33.3c-1.1,23.8-4.9,214.5-3.6,231.6
				c0.5,7.2,1.7,37.4,2.9,69.2c1.7,43.5,3.6,92.8,4.4,98.6c0.6,4.4,2.5,50.8-6.3,102.2c-5.1,29.5-12.7,55.1-22.7,76
				c-12.5,26.1-28.7,45-48.3,56.1C510.3,2260.1,446.4,2276.9,356.8,2276.9z M342.8,32C231.7,36.8,179.3,103.6,135,202.4
				C84.7,324.7,48.9,506.8,39.1,689.6c-9.6,181.4,33.7,633.4,34.1,638c16.2,144.1,18.6,338.1,19.8,442.3c0.3,24.2,0.5,43.3,0.9,56.7
				c0.1,4.4-0.5,20.9-1.1,39.9c-0.7,21.8-1.6,46.6-1.8,62.8c-0.7,55,0.2,96.2,0.2,96.6c-0.8,49.1,5.5,91.2,18.8,125.1
				c11.8,30.1,29.4,54.7,52.3,73.2c46.8,37.7,109.2,44.9,152.1,47c56.8,2.9,101.9,0.4,141.9-7.8c41.5-8.5,80.5-23.7,122.6-47.8
				c42.7-24.4,61-83.6,68.8-128.9c8.7-50.8,6.9-96.5,6.3-100.8c-0.8-6-2.6-53.3-4.4-99c-1.2-31.9-2.4-61.9-2.9-69.1
				c-1.3-17.4,2.4-205,3.6-232.2l0,0c0.2-4.5,0.4-15.9,0.7-33.2c1.2-77.1,4.5-281.7,21.4-449.3c20.4-200.7,0.5-548.1,0.3-551.5
				c-11.5-179.8-79.4-325.8-92.9-353.2l-0.2-0.5v-0.1c-22.8-48-50.7-86.3-82.8-113.8c-38.2-32.8-82.6-50.3-131.9-52.1
				c-2.9-0.1-6-0.2-9-0.2c-4.4,0-8.6,0.1-12.9,0.3L342.8,32z"/>
		</g>
		<g>
			<path class="st3" d="M357.5,2247.7c-3.4,0-6.8,0-10.3-0.1l0.1-4.5c4.6,0.1,9.1,0.1,13.5,0.1l0,4.5
				C359.7,2247.7,358.6,2247.7,357.5,2247.7z M374.5,2247.4l-0.1-4.5c4.6-0.1,9.1-0.3,13.5-0.6l0.3,4.5
				C383.7,2247.1,379.1,2247.3,374.5,2247.4z M333.6,2247.2c-4.4-0.2-9-0.4-13.6-0.6l0.2-4.5c4.6,0.2,9.1,0.4,13.5,0.6L333.6,2247.2
				z M401.7,2245.8l-0.4-4.5c4.5-0.4,9.1-0.9,13.4-1.4l0.6,4.5C410.9,2244.9,406.3,2245.4,401.7,2245.8z M306.3,2245.7
				c-4.7-0.4-9.2-0.8-13.6-1.3l0.5-4.5c4.3,0.5,8.8,0.9,13.5,1.3L306.3,2245.7z M279.2,2242.5c-4.6-0.7-9.1-1.5-13.5-2.4l0.9-4.4
				c4.3,0.9,8.7,1.7,13.3,2.4L279.2,2242.5z M428.8,2242.4l-0.7-4.4c4.5-0.7,8.9-1.5,13.3-2.4l0.9,4.4
				C437.9,2240.8,433.3,2241.7,428.8,2242.4z M252.4,2237c-4.5-1.2-8.9-2.5-13.2-3.9l1.4-4.3c4.2,1.4,8.5,2.6,12.9,3.8L252.4,2237z
				 M455.6,2236.9l-1.1-4.4c4.4-1.1,8.7-2.3,13-3.5l1.3,4.3C464.4,2234.6,460,2235.8,455.6,2236.9z M481.8,2229.2l-1.4-4.3
				c4.2-1.4,8.5-3,12.7-4.6l1.6,4.2C490.4,2226.2,486.1,2227.8,481.8,2229.2z M226.3,2228.4c-4.3-1.7-8.5-3.6-12.5-5.6l2-4
				c3.9,1.9,8,3.8,12.2,5.5L226.3,2228.4z M507.3,2219.4l-1.8-4.1c4.1-1.8,8.2-3.6,12.3-5.6l1.9,4.1
				C515.6,2215.7,511.4,2217.6,507.3,2219.4z M201.7,2216.2c-4-2.4-7.8-4.9-11.5-7.5l2.6-3.7c3.6,2.6,7.3,5,11.2,7.3L201.7,2216.2z
				 M532,2207.6l-2.1-4c3.9-2,7.9-4.2,11.9-6.5l2.2,3.9C540,2203.3,535.9,2205.5,532,2207.6z M179.4,2200.2c-3.5-3-6.8-6.2-10-9.4
				l3.2-3.1c3.1,3.2,6.4,6.3,9.7,9.2L179.4,2200.2z M555.7,2194.2l-2.3-3.9c1.3-0.8,2.7-1.6,4-2.4c2.4-1.5,4.8-3.1,7.1-4.9l2.8,3.6
				c-2.4,1.9-4.9,3.6-7.5,5.2C558.4,2192.5,557.1,2193.4,555.7,2194.2z M160.2,2180.4c-2.9-3.5-5.6-7.2-8.2-11l3.7-2.5
				c2.5,3.7,5.2,7.3,8,10.7L160.2,2180.4z M577.6,2177.2l-3.2-3.1c3-3.1,5.8-6.5,8.6-10.2l3.6,2.7
				C583.7,2170.4,580.7,2174,577.6,2177.2z M144.7,2157.8c-2.2-3.9-4.4-8-6.4-12.2l4.1-1.9c1.9,4.1,4,8.1,6.2,11.9L144.7,2157.8z
				 M594.1,2155.1l-3.9-2.3c2.2-3.7,4.3-7.7,6.3-11.8l4,2C598.6,2147.2,596.4,2151.3,594.1,2155.1z M132.9,2133.1
				c-1.7-4.1-3.2-8.5-4.7-12.9l4.3-1.4c1.4,4.3,3,8.6,4.6,12.6L132.9,2133.1z M606.2,2130.4l-4.2-1.7c1.6-4,3.2-8.3,4.7-12.6
				l4.3,1.4C609.5,2122,607.9,2126.3,606.2,2130.4z M124.3,2107.1c-1.2-4.3-2.2-8.8-3.2-13.3l4.4-1c1,4.4,2,8.8,3.2,13.1
				L124.3,2107.1z M615,2104.4l-4.3-1.2c1.2-4.2,2.3-8.6,3.4-13.1l4.4,1C617.4,2095.7,616.2,2100.2,615,2104.4z M118.4,2080.4
				c-0.8-4.4-1.4-8.9-2-13.5l4.5-0.6c0.6,4.5,1.3,9,2,13.3L118.4,2080.4z M621.3,2077.8l-4.4-0.9c0.9-4.3,1.7-8.8,2.4-13.3l4.4,0.7
				C623,2068.9,622.2,2073.4,621.3,2077.8z M114.9,2053.3c-0.4-4.4-0.8-9-1-13.6l4.5-0.3c0.3,4.5,0.6,9.1,1,13.5L114.9,2053.3z
				 M625.7,2050.8l-4.5-0.6c0.6-4.4,1.1-8.9,1.6-13.4l4.5,0.5C626.9,2041.8,626.3,2046.4,625.7,2050.8z M113.3,2026
				c-0.1-4.5-0.2-9.1-0.2-13.6l4.5,0c0,4.6,0.1,9.1,0.2,13.5L113.3,2026z M628.6,2023.6l-4.5-0.3c0.3-4.5,0.6-9,0.9-13.5l4.5,0.2
				C629.2,2014.5,628.9,2019.1,628.6,2023.6z M113.1,1998.8c0-3.1-0.1-7.7-0.2-13.6l4.5,0c0.1,5.9,0.1,10.5,0.2,13.6L113.1,1998.8z
				 M630,1996.3l-4.5-0.1c0.1-4.6,0.2-9.2,0.2-13.5l4.5,0C630.2,1987.1,630.1,1991.7,630,1996.3z M112.8,1971.6c0-4.2,0-8.7,0-13.6
				l4.5,0c0,4.8,0,9.4,0,13.6L112.8,1971.6z M625.5,1969.2c-0.1-2.8-0.2-4.4-0.3-5c-0.2-1.2-0.3-4-0.6-8.6l4.5-0.2
				c0.2,4.4,0.4,7.2,0.6,8.2c0.1,0.9,0.2,2.9,0.3,5.4L625.5,1969.2z M117.3,1944.4l-4.5,0c0-4.4,0-8.9,0.1-13.6l4.5,0
				C117.3,1935.6,117.3,1940.1,117.3,1944.4z M624,1942c-0.2-4.1-0.4-8.7-0.6-13.6l4.5-0.2c0.2,4.9,0.4,9.5,0.6,13.6L624,1942z
				 M117.5,1917.3l-4.5,0c0-2.7,0.1-5.4,0.1-8.2c0-1.7,0.1-3.5,0.1-5.4l4.5,0.1c0,1.9-0.1,3.7-0.1,5.4
				C117.5,1911.9,117.5,1914.6,117.5,1917.3z M622.9,1914.7c-0.2-4.4-0.3-9-0.5-13.6l4.5-0.2c0.2,4.6,0.3,9.2,0.5,13.6L622.9,1914.7
				z M117.9,1890.1l-4.5-0.1c0.1-4.4,0.2-8.9,0.4-13.6l4.5,0.1C118.2,1881.2,118.1,1885.8,117.9,1890.1z M621.9,1887.5l-0.5-13.6
				l4.5-0.2l0.5,13.6L621.9,1887.5z M118.7,1862.9l-4.5-0.1l0.4-13.6l4.5,0.1L118.7,1862.9z M620.9,1860.3l-0.5-13.6l4.5-0.2
				l0.5,13.6L620.9,1860.3z M119.6,1835.7l-4.5-0.1c0.2-5,0.3-9.6,0.4-13.6l4.5,0.1C119.8,1826.1,119.7,1830.7,119.6,1835.7z
				 M619.9,1833.1c-0.2-4.9-0.4-9.5-0.5-13.6l4.5-0.2c0.2,4.1,0.3,8.7,0.5,13.6L619.9,1833.1z M115.6,1808.5
				c-0.1-4-0.2-8.6-0.2-13.6l4.5-0.1c0.1,5,0.2,9.6,0.2,13.6L115.6,1808.5z M618.8,1805.9c-0.1-2.4-0.2-4.3-0.3-5.5
				c-0.1-1.5-0.2-4.1-0.2-8.2l4.5,0c0,3.9,0.1,6.6,0.2,7.9c0.1,1.2,0.2,3.1,0.3,5.6L618.8,1805.9z M115.2,1781.3
				c-0.1-4.3-0.1-8.8-0.2-13.6l4.5-0.1c0.1,4.8,0.1,9.3,0.2,13.6L115.2,1781.3z M622.8,1778.6l-4.5,0c0-4.1,0-8.7,0.1-13.6l4.5,0
				C622.9,1769.9,622.9,1774.5,622.8,1778.6z M114.9,1754.1l-0.2-13.6l4.5-0.1l0.2,13.6L114.9,1754.1z M623,1751.4l-4.5,0
				c0-4.4,0.1-8.9,0.2-13.6l4.5,0.1C623.1,1742.4,623.1,1747,623,1751.4z M114.6,1726.9l-0.2-13.6l4.5-0.1l0.2,13.6L114.6,1726.9z
				 M623.4,1724.1l-4.5-0.1c0.1-4.5,0.1-9,0.2-13.6l4.5,0.1C623.5,1715.1,623.4,1719.7,623.4,1724.1z M114.2,1699.7
				c-0.1-4.5-0.1-9-0.2-13.6l4.5-0.1c0.1,4.6,0.1,9.1,0.2,13.6L114.2,1699.7z M623.8,1696.9l-4.5-0.1c0.1-4.5,0.1-9.1,0.2-13.6
				l4.5,0.1C623.9,1687.9,623.8,1692.4,623.8,1696.9z M113.8,1672.5c-0.1-4.5-0.1-9-0.2-13.6l4.5-0.1c0.1,4.6,0.2,9.1,0.2,13.6
				L113.8,1672.5z M624.2,1669.7l-4.5-0.1c0.1-4.6,0.2-9.1,0.2-13.6l4.5,0.1C624.4,1660.6,624.3,1665.1,624.2,1669.7z M113.3,1645.3
				c-0.1-4.5-0.2-9-0.3-13.6l4.5-0.1c0.1,4.6,0.2,9.1,0.3,13.6L113.3,1645.3z M624.7,1642.5l-4.5-0.1c0.1-4.7,0.2-9.2,0.3-13.6
				l4.5,0.1C624.9,1633.3,624.8,1637.9,624.7,1642.5z M112.7,1618.1c-0.1-4.5-0.2-9-0.3-13.6l4.5-0.1c0.1,4.6,0.2,9.1,0.3,13.6
				L112.7,1618.1z M625.3,1615.3l-4.5-0.1c0.1-4.8,0.2-9.4,0.3-13.6l4.5,0.1C625.5,1605.9,625.4,1610.5,625.3,1615.3z M112.1,1590.9
				c-0.1-4.5-0.2-9-0.4-13.6l4.5-0.1c0.1,4.6,0.3,9.1,0.4,13.6L112.1,1590.9z M625.9,1588.1l-4.5-0.1c0.2-6.4,0.3-11,0.4-13.7
				c0.1-1.9,0.2-5.3,0.3-10.5l4.5,0.1c-0.1,5.3-0.2,8.6-0.3,10.6C626.2,1577.2,626.1,1581.8,625.9,1588.1z M111.3,1563.8
				c-0.1-4.5-0.3-9-0.4-13.6l4.5-0.1c0.1,4.5,0.3,9.1,0.4,13.6L111.3,1563.8z M626.8,1550.3l-4.5-0.1l0.2-13.6l4.5,0.1L626.8,1550.3
				z M110.4,1536.6c-0.2-4.5-0.3-9-0.5-13.5l4.5-0.2c0.2,4.5,0.3,9,0.5,13.6L110.4,1536.6z M627.2,1523l-4.5-0.1
				c0.1-4.3,0.1-8.9,0.2-13.6l4.5,0.1C627.4,1514.2,627.3,1518.7,627.2,1523z M109.4,1509.5c-0.2-4.5-0.4-9-0.6-13.6l4.5-0.2
				c0.2,4.5,0.4,9.1,0.6,13.6L109.4,1509.5z M627.7,1495.8l-4.5-0.1c0.1-4.4,0.2-8.9,0.3-13.6l4.5,0.1
				C627.9,1486.9,627.8,1491.4,627.7,1495.8z M108.2,1482.3c-0.2-4.5-0.4-9.1-0.7-13.6l4.5-0.2c0.2,4.5,0.4,9.1,0.7,13.6
				L108.2,1482.3z M628.2,1468.6l-4.5-0.1c0.1-4.4,0.2-9,0.3-13.6l4.5,0.1C628.4,1459.7,628.3,1464.2,628.2,1468.6z M106.9,1455.1
				c-0.2-4.5-0.5-9.1-0.7-13.6l4.5-0.3c0.3,4.5,0.5,9,0.7,13.6L106.9,1455.1z M628.8,1441.5l-4.5-0.1c0.1-4.5,0.2-9,0.3-13.6
				l4.5,0.1C629,1432.5,628.9,1437,628.8,1441.5z M105.3,1428c-0.3-4.5-0.6-9.1-0.9-13.6l4.5-0.3c0.3,4.5,0.6,9,0.9,13.6L105.3,1428
				z M629.5,1414.3l-4.5-0.1c0.1-4.5,0.2-9,0.4-13.6l4.5,0.1C629.8,1405.3,629.6,1409.8,629.5,1414.3z M103.6,1400.9
				c-0.3-4.5-0.6-9.1-1-13.5l4.5-0.3c0.3,4.5,0.7,9,1,13.6L103.6,1400.9z M630.3,1387.1l-4.5-0.1c0.1-4.5,0.3-9,0.4-13.6l4.5,0.1
				C630.6,1378.1,630.4,1382.6,630.3,1387.1z M101.5,1373.8c-0.4-4.5-0.7-9.1-1.1-13.5l4.5-0.4c0.4,4.5,0.8,9,1.1,13.6L101.5,1373.8
				z M631.2,1359.9l-4.5-0.2c0.2-4.5,0.3-9,0.5-13.6l4.5,0.2C631.5,1350.9,631.3,1355.4,631.2,1359.9z M99.2,1346.7
				c-0.4-4.5-0.8-9.1-1.3-13.5l4.5-0.4c0.4,4.5,0.9,9,1.3,13.5L99.2,1346.7z M632.2,1332.8l-4.5-0.2c0.2-4.5,0.4-9,0.5-13.6l4.5,0.2
				C632.5,1323.7,632.3,1328.3,632.2,1332.8z M96.6,1319.6c-0.3-3-0.7-7.6-1.2-13.6l4.5-0.4c0.5,6,0.9,10.6,1.2,13.6L96.6,1319.6z
				 M633.3,1305.6l-4.5-0.2c0.2-4.5,0.4-9,0.6-13.6l4.5,0.2C633.7,1296.6,633.5,1301.1,633.3,1305.6z M94.3,1292.4
				c-0.4-4.2-0.7-8.7-1.1-13.6l4.5-0.4c0.4,4.9,0.8,9.4,1.1,13.6L94.3,1292.4z M634.5,1278.4l-4.5-0.2c0.2-4.5,0.4-9,0.7-13.6
				l4.5,0.2C634.9,1269.4,634.7,1273.9,634.5,1278.4z M92,1265.2c-0.4-4.3-0.7-8.9-1.1-13.6l4.5-0.4c0.4,4.7,0.7,9.2,1.1,13.6
				L92,1265.2z M635.9,1251.3l-4.5-0.2c0.2-4.5,0.5-9,0.7-13.6l4.5,0.3C636.4,1242.3,636.1,1246.8,635.9,1251.3z M89.9,1238.1
				c-0.3-4.4-0.7-8.9-1.1-13.6l4.5-0.4c0.4,4.6,0.7,9.2,1.1,13.6L89.9,1238.1z M637.4,1224.1l-4.5-0.3c0.3-4.5,0.5-9.1,0.8-13.6
				l4.5,0.3C637.9,1215.1,637.7,1219.6,637.4,1224.1z M87.7,1211c-0.3-4.4-0.7-9-1-13.6l4.5-0.3c0.4,4.6,0.7,9.1,1,13.6L87.7,1211z
				 M639.1,1197l-4.5-0.3c0.3-4.5,0.6-9,0.9-13.6l4.5,0.3C639.7,1187.9,639.4,1192.5,639.1,1197z M85.7,1183.8
				c-0.3-4.5-0.7-9-1-13.6l4.5-0.3c0.3,4.6,0.7,9.1,1,13.6L85.7,1183.8z M641,1169.9l-4.5-0.3c0.3-4.5,0.7-9,1-13.5l4.5,0.3
				C641.6,1160.9,641.3,1165.4,641,1169.9z M83.7,1156.7c-0.3-4.5-0.7-9-1-13.6l4.5-0.3c0.3,4.6,0.7,9.1,1,13.6L83.7,1156.7z
				 M643,1142.9l-4.5-0.4c0.4-4.5,0.7-9.1,1.1-13.6l4.5,0.4C643.8,1133.8,643.4,1138.3,643,1142.9z M81.7,1129.5
				c-0.3-4.5-0.6-9-0.9-13.6l4.5-0.3c0.3,4.6,0.6,9.1,0.9,13.6L81.7,1129.5z M645.3,1115.8l-4.5-0.4c0.3-3.7,0.7-7.4,1-11.1l0.2-2.5
				l4.5,0.4l-0.2,2.5C646,1108.4,645.7,1112.1,645.3,1115.8z M79.8,1102.4c-0.3-4.5-0.6-9-0.9-13.6l4.5-0.3
				c0.3,4.6,0.6,9.1,0.9,13.6L79.8,1102.4z M647.7,1088.7l-4.5-0.4c0.4-4.5,0.7-9,1-13.5l4.5,0.3
				C648.5,1079.7,648.1,1084.2,647.7,1088.7z M78,1075.2c-0.3-4.5-0.6-9-0.9-13.6l4.5-0.3c0.3,4.5,0.6,9.1,0.9,13.6L78,1075.2z
				 M649.7,1061.5l-4.5-0.3c0.3-4.5,0.6-9,0.8-13.5l4.5,0.3C650.3,1052.5,650,1057.1,649.7,1061.5z M76.3,1048.1
				c-0.3-4.5-0.6-9-0.8-13.6l4.5-0.3c0.3,4.5,0.6,9.1,0.8,13.6L76.3,1048.1z M651.3,1034.4l-4.5-0.2c0.2-4.5,0.4-9,0.6-13.6l4.5,0.2
				C651.7,1025.4,651.5,1029.9,651.3,1034.4z M74.6,1020.9c-0.3-4.5-0.5-9-0.8-13.5l4.5-0.3c0.3,4.5,0.5,9,0.8,13.5L74.6,1020.9z
				 M652.5,1007.2l-4.5-0.2c0.2-4.5,0.3-9,0.5-13.6l4.5,0.1C652.8,998.2,652.6,1002.7,652.5,1007.2z M73,993.8
				c-0.3-4.5-0.5-9.1-0.8-13.6l4.5-0.2c0.2,4.5,0.5,9.1,0.8,13.6L73,993.8z M653.4,980l-4.5-0.1c0.1-4.5,0.2-9,0.4-13.6l4.5,0.1
				C653.6,971,653.5,975.5,653.4,980z M71.5,966.6c-0.2-4.5-0.5-9.1-0.7-13.6l4.5-0.2c0.2,4.5,0.5,9,0.7,13.6L71.5,966.6z
				 M654,952.8l-4.5-0.1c0.1-4.5,0.2-9,0.2-13.6l4.5,0.1C654.2,943.8,654.1,948.3,654,952.8z M70.2,939.4c-0.2-4.5-0.4-9.1-0.7-13.6
				l4.5-0.2c0.2,4.5,0.4,9,0.6,13.6L70.2,939.4z M654.4,925.6l-4.5-0.1c0.1-4.5,0.1-9.1,0.1-13.6l4.5,0
				C654.5,916.6,654.5,921.1,654.4,925.6z M68.9,912.3c-0.2-4.5-0.4-9.1-0.6-13.6l4.5-0.2c0.2,4.5,0.4,9,0.6,13.6L68.9,912.3z
				 M654.7,898.4l-4.5,0c0-4.5,0-9.1,0.1-13.6l4.5,0C654.7,889.4,654.7,893.9,654.7,898.4z M67.7,885.1c-0.2-4.6-0.4-9.1-0.5-13.6
				l4.5-0.2c0.2,4.5,0.3,9,0.5,13.6L67.7,885.1z M650.2,871.2c0-4.5,0-9.1,0-13.6l4.5,0c0,4.5,0,9,0,13.6L650.2,871.2z M66.8,857.9
				c-0.2-4.6-0.3-9.1-0.4-13.6l4.5-0.1c0.1,4.5,0.3,9,0.4,13.6L66.8,857.9z M650.1,844.1c0-4.5-0.1-9.1-0.1-13.6l4.5,0
				c0,4.5,0.1,9,0.1,13.6L650.1,844.1z M65.9,830.7c-0.1-4.6-0.2-9.1-0.3-13.6l4.5-0.1c0.1,4.5,0.2,9,0.3,13.6L65.9,830.7z
				 M649.9,816.9c-0.1-4.6-0.1-9.1-0.2-13.6l4.5-0.1c0.1,4.5,0.1,9,0.2,13.6L649.9,816.9z M65.4,803.5c-0.1-4.6-0.1-9.1-0.2-13.6
				l4.5-0.1c0.1,4.5,0.1,9,0.2,13.6L65.4,803.5z M649.5,789.7c-0.1-4.6-0.2-9.1-0.2-13.6l4.5-0.1c0.1,4.5,0.2,9,0.2,13.6
				L649.5,789.7z M65,776.2c0-4.6,0-9.1,0-13.6l4.5,0c0,4.5,0,9,0,13.6L65,776.2z M649,762.6c-0.1-4.6-0.2-9.1-0.3-13.6l4.5-0.1
				c0.1,4.5,0.2,9,0.3,13.6L649,762.6z M69.5,749.1l-4.5,0c0-4.6,0.1-9.2,0.2-13.6l4.5,0.1C69.6,739.9,69.6,744.5,69.5,749.1z
				 M648.4,735.4c-0.1-4.6-0.2-9.1-0.3-13.6l4.5-0.1c0.1,4.5,0.2,9,0.3,13.6L648.4,735.4z M70,721.9l-4.5-0.1
				c0.1-4.7,0.3-9.2,0.5-13.6l4.5,0.2C70.3,712.7,70.1,717.3,70,721.9z M647.7,708.2c-0.1-4.6-0.3-9.1-0.4-13.6l4.5-0.1
				c0.1,4.5,0.3,9,0.4,13.6L647.7,708.2z M71.1,694.9l-4.5-0.2c0.2-4.5,0.5-9,0.8-13.6l4.5,0.3C71.6,685.8,71.3,690.3,71.1,694.9z
				 M646.9,681c-0.2-4.6-0.3-9.2-0.5-13.6l4.5-0.2c0.2,4.4,0.3,9,0.5,13.6L646.9,681z M72.7,667.8l-4.5-0.3c0.3-4.5,0.6-9,0.9-13.6
				l4.5,0.3C73.3,658.8,73,663.3,72.7,667.8z M645.9,653.9c-0.2-4.7-0.3-9.2-0.5-13.6l4.5-0.2c0.2,4.4,0.3,8.9,0.5,13.6L645.9,653.9
				z M74.7,640.7l-4.5-0.4c0.4-4.5,0.7-9,1.1-13.6l4.5,0.4C75.4,631.7,75,636.2,74.7,640.7z M644.9,626.7c-0.2-4.8-0.4-9.3-0.6-13.6
				l4.5-0.2c0.2,4.3,0.4,8.8,0.6,13.6L644.9,626.7z M77,613.6l-4.5-0.4c0.4-4.5,0.8-9,1.3-13.6l4.5,0.4
				C77.8,604.6,77.4,609.1,77,613.6z M643.7,599.5c-0.2-5.1-0.4-9.6-0.6-13.6l4.5-0.2c0.2,4,0.4,8.5,0.6,13.6L643.7,599.5z
				 M79.6,586.6l-4.5-0.5c0.5-4.5,1-9,1.5-13.5l4.5,0.5C80.6,577.6,80.1,582.1,79.6,586.6z M642.4,572.3c-0.2-3.4-0.3-5.2-0.3-5.2
				c-0.2-2.8-0.3-5.6-0.5-8.3l4.5-0.3c0.2,2.8,0.4,5.6,0.5,8.4c0,0,0.1,1.8,0.3,5.3L642.4,572.3z M82.7,559.6l-4.5-0.5
				c0.5-4.5,1.1-9,1.7-13.5l4.5,0.6C83.8,550.5,83.2,555.1,82.7,559.6z M640.6,545.3c-0.4-4.4-0.8-9-1.2-13.5l4.5-0.4
				c0.5,4.5,0.9,9.1,1.3,13.6L640.6,545.3z M86.1,532.6l-4.5-0.6c0.6-4.5,1.2-9,1.8-13.5l4.5,0.6C87.3,523.6,86.7,528.1,86.1,532.6z
				 M637.9,518.3c-0.5-4.5-1.1-9-1.6-13.5l4.5-0.6c0.6,4.5,1.1,9,1.7,13.5L637.9,518.3z M89.8,505.7l-4.5-0.7c0.7-4.5,1.3-9,2-13.5
				l4.4,0.7C91.2,496.7,90.5,501.2,89.8,505.7z M634.4,491.4c-0.6-4.4-1.3-8.9-2-13.4l4.4-0.7c0.7,4.5,1.4,9,2,13.5L634.4,491.4z
				 M94,478.8l-4.4-0.7c0.7-4.5,1.5-9,2.2-13.4l4.4,0.7C95.4,469.9,94.7,474.4,94,478.8z M630.2,464.6c-0.8-4.4-1.6-8.9-2.4-13.4
				l4.4-0.8c0.8,4.4,1.6,9,2.4,13.4L630.2,464.6z M98.5,452.1l-4.4-0.8c0.8-4.5,1.6-8.9,2.4-13.4l4.4,0.8
				C100.1,443.2,99.3,447.6,98.5,452.1z M625.2,438c-0.9-4.4-1.8-8.8-2.7-13.3l4.4-0.9c1,4.5,1.9,9,2.7,13.3L625.2,438z
				 M103.4,425.4l-4.4-0.8c0.9-4.5,1.7-8.9,2.6-13.4l4.4,0.9C105.1,416.5,104.3,420.9,103.4,425.4z M619.6,411.4
				c-1-4.4-2-8.9-3.1-13.2l4.4-1c1,4.4,2.1,8.8,3.1,13.3L619.6,411.4z M108.7,398.8l-4.4-0.9c0.9-4.5,1.9-8.9,2.8-13.3l4.4,1
				C110.6,389.9,109.7,394.3,108.7,398.8z M613.3,385c-1.1-4.4-2.2-8.8-3.4-13.1l4.3-1.2c1.2,4.4,2.3,8.8,3.4,13.2L613.3,385z
				 M114.5,372.3l-4.4-1c1-4.4,2-8.9,3.1-13.3l4.4,1C116.6,363.4,115.5,367.8,114.5,372.3z M606.3,358.8c-1.2-4.3-2.5-8.7-3.7-13
				l4.3-1.3c1.3,4.4,2.5,8.8,3.7,13.1L606.3,358.8z M120.8,345.9l-4.4-1.1c1.1-4.4,2.2-8.9,3.3-13.2l4.4,1.1
				C123,337,121.9,341.4,120.8,345.9z M598.7,332.8c-1.3-4.3-2.7-8.7-4-13l4.3-1.4c1.4,4.3,2.7,8.6,4.1,13L598.7,332.8z
				 M127.6,319.6l-4.3-1.2c1.2-4.4,2.4-8.8,3.6-13.1l4.3,1.2C130,310.8,128.8,315.2,127.6,319.6z M590.5,306.9
				c-1.4-4.3-2.9-8.6-4.4-12.8l4.3-1.5c1.5,4.2,2.9,8.6,4.4,12.9L590.5,306.9z M135,293.5l-4.3-1.3c1.3-4.4,2.6-8.8,3.9-13l4.3,1.3
				C137.6,284.8,136.2,289.1,135,293.5z M581.6,281.3c-1.6-4.3-3.1-8.6-4.7-12.7l4.2-1.6c1.6,4.2,3.2,8.5,4.7,12.8L581.6,281.3z
				 M143,267.6l-4.3-1.4c1.4-4.3,2.9-8.7,4.3-12.9l4.3,1.4C145.8,258.9,144.4,263.2,143,267.6z M572,255.9
				c-1.7-4.3-3.4-8.5-5.1-12.6l4.2-1.7c1.7,4.1,3.4,8.3,5.1,12.6L572,255.9z M151.7,241.9l-4.2-1.5c1.5-4.3,3.1-8.6,4.7-12.8
				l4.2,1.6C154.8,233.3,153.2,237.6,151.7,241.9z M561.7,230.8c-1.2-2.8-2.4-5.3-3.4-7.7l-0.2-0.6c-0.6-1.4-1.2-2.8-1.9-4.2
				l4.1-1.9c0.7,1.5,1.4,3.1,2.1,4.6l0.2,0.5c1,2.2,2.1,4.7,3.2,7.3L561.7,230.8z M161.6,216.7l-4.1-1.8c1.8-4.3,3.7-8.5,5.5-12.5
				l4.1,1.9C165.2,208.3,163.4,212.5,161.6,216.7z M550.4,206.2c-2-4.1-4-8.1-6.1-12.1l4-2.1c2.1,4,4.2,8.1,6.2,12.2L550.4,206.2z
				 M172.8,192.1l-4-2c2-4.2,4.1-8.3,6.1-12.2l4,2.1C176.9,183.9,174.8,188,172.8,192.1z M537.8,182.3c-2.2-3.9-4.6-7.8-6.9-11.6
				l3.8-2.4c2.4,3.8,4.7,7.8,7,11.7L537.8,182.3z M185.3,168.2l-3.9-2.2c2.3-4,4.6-8,6.9-11.8l3.8,2.4
				C189.9,160.2,187.6,164.2,185.3,168.2z M523.6,159.4c-2.5-3.8-5.2-7.5-7.8-11l3.6-2.7c2.7,3.6,5.3,7.4,7.9,11.2L523.6,159.4z
				 M199.4,145.2l-3.7-2.5c2.6-3.8,5.3-7.6,7.9-11.2l3.6,2.7C204.6,137.7,202,141.4,199.4,145.2z M507.5,137.7
				c-2.9-3.5-5.8-6.9-8.8-10.2l3.3-3c3,3.3,6,6.8,8.9,10.4L507.5,137.7z M215.6,123.7l-3.4-2.9c3-3.5,6.1-7,9.2-10.2l3.2,3.1
				C221.5,116.8,218.5,120.2,215.6,123.7z M489.5,117.8c-3.2-3.2-6.5-6.3-9.8-9.2l3-3.4c3.4,3,6.7,6.1,10,9.4L489.5,117.8z
				 M234.2,104.3l-3-3.3c3.4-3.1,7-6.1,10.5-8.8l2.8,3.6C241,98.4,237.5,101.3,234.2,104.3z M469.4,99.9c-3.6-2.8-7.2-5.4-10.9-7.9
				l2.5-3.7c3.7,2.5,7.5,5.2,11.1,8.1L469.4,99.9z M255.4,88l-2.4-3.8c3.8-2.5,7.8-4.8,11.8-7l2.1,4C263,83.3,259.1,85.5,255.4,88z
				 M447.2,84.9c-3.9-2.2-7.9-4.4-11.8-6.3l2-4c4.1,2,8.2,4.1,12.1,6.5L447.2,84.9z M278.9,75.4l-1.8-4.1c4.2-1.8,8.5-3.4,12.8-4.9
				l1.4,4.3C287.2,72,283,73.6,278.9,75.4z M423.1,73.2c-4.1-1.6-8.4-3.1-12.6-4.4l1.3-4.3c4.4,1.3,8.7,2.9,13,4.5L423.1,73.2z
				 M304.3,66.9l-1.1-4.4c4.4-1.1,8.9-2.1,13.4-2.8l0.8,4.4C313,64.9,308.6,65.8,304.3,66.9z M397.5,65.3c-4.3-1-8.8-1.8-13.2-2.5
				l0.7-4.5c4.5,0.7,9.1,1.5,13.5,2.5L397.5,65.3z M330.7,62.2l-0.5-4.5c4.4-0.5,9-0.8,13.7-1.1l0.2,4.5
				C339.6,61.4,335.1,61.7,330.7,62.2z M371,61.4c-2.2-0.2-4.4-0.3-6.6-0.4c-2.2-0.1-4.5-0.2-6.8-0.2l0-4.5c2.4,0,4.7,0.1,7,0.2
				c2.3,0.1,4.5,0.2,6.7,0.4L371,61.4z"/>
		</g>
	</g>
</g>
</svg>
