<?xml version="1.0" encoding="utf-8"?>
<!-- Generator: Adobe Illustrator 26.3.1, SVG Export Plug-In . SVG Version: 6.00 Build 0)  -->
<svg version="1.1" id="Layer_1" xmlns="http://www.w3.org/2000/svg" xmlns:xlink="http://www.w3.org/1999/xlink" x="0px" y="0px"
	 viewBox="0 0 711.1 2216.3" style="enable-background:new 0 0 711.1 2216.3;" xml:space="preserve">
<style type="text/css">
	.st0{fill:#7900FF;}
	.st1{fill:#005EFF;}
	.st2{fill:#38E841;}
	.st3{fill:#ED1E77;}
</style>
<g id="Layer_1_00000081615556854757815100000010307678646150061238_">
	<g>
		<g>
			<path class="st0" d="M337.8,2216c-56.5,0-131.8-4.5-182.5-25c-0.2-0.1-20-8.1-41.1-23.2c-19.6-14-44.4-37.1-51.5-67.8
				c-1.6-3-9.6-21.7-8.4-98l0.6-160.9l1.3-164.3c0-2.1,0-210.9-1.3-231.2c-0.1-1.9-8.3-190.4-12.1-212.6l0-0.2
				c-1.1-12.1-25.9-295.6-26.2-304.7c-0.7-7.7-14.5-164.4-14.1-173.7c-0.1-3.4-3.2-79-2-165.6l0-0.1C0.5,587.1,11.5,422,35.6,335
				c0.7-3.6,21.5-103.8,87.9-197.7c36.5-53.2,72.9-83.5,97-99.5c25.4-16.9,42.5-21.9,44.2-22.4C303.5,1.1,344,0.4,345.9,0.4
				c1.7-0.1,29.8-1.8,66.5,6.7c34.8,8,84.7,27.1,125.1,72.2c0.6,0.6,68.2,71.5,96.9,141.5c1.9,3.6,42.9,80.3,60.3,218.2
				c0.2,1.5,21.1,154.9,15.3,247.8l-7,119.7l-22.4,236.2c-0.8,10.5-19.7,257.3-23,274.8c-0.4,6.9-11.4,217.2-8.3,250.2l0,0.2
				c0,2.3,1.3,228.2,1.3,240.1c0,1.6,0.7,159.6,1.3,167.4c0,0.3,1.9,27.9-1.4,61.3c-4.5,45-15.8,78.6-33.5,99.9
				c-1,1.3-14,18.3-44.8,36.2c-28.9,16.7-79.5,37.3-156.9,40.4C413.5,2213.4,381.2,2216,337.8,2216z M47.1,1232.4
				c3.8,22.9,11.8,205.2,12.1,213c1.3,20.4,1.3,222.9,1.3,231.5l-1.3,164.3l-0.6,160.9c-1.3,80.3,7.8,95.7,7.9,95.9l0.2,0.3l0.1,0.4
				c13,56.7,89.3,87.9,90,88.2c89.3,36,256.2,22,257.9,21.8l0.1,0c76.3-3.1,126.2-23.3,154.6-39.7c30.7-17.8,43.6-35,43.8-35.2
				l0.1-0.1c41.1-49.2,34.1-156.9,34-158c-0.6-8-1.3-161.2-1.3-167.7c0-11.8-1.3-234.2-1.3-240c-3.1-34,7.8-242.1,8.3-250.9l0-0.3
				c3.1-15.7,22.8-271.8,23-274.4l22.4-236.1l7-119.6c5.7-92.5-15.1-245.4-15.3-247c-17.6-139.6-59.4-216-59.8-216.7l-0.1-0.2
				c-28.3-69.3-95.4-139.6-96-140.3c-21.9-24.5-60.8-56.5-122.6-70.9c-37.1-8.6-65.1-6.7-65.4-6.6l-0.1,0c-0.4,0-41,0.5-79.8,14.9
				l-0.2,0.1c-0.2,0-17.5,4.8-43.2,22c-23.7,15.8-59.5,45.7-95.5,98.1l0,0c-66.7,94.3-87,195-87.2,196l0,0.2
				c-23.8,86-34.9,249-35.1,252.9c-1.2,88,2,164.7,2,165.4l0,0.1l0,0.1c-0.5,5.8,10,127,14.1,173.2l0,0.2
				C21,932.9,38.1,1129.2,47.1,1232.4z"/>
		</g>
		<g>
			<g>
				<g>
					<path class="st1" d="M412.5,564.1c-5.6,0-10.2-4.3-10.2-9.5c0-5.3,4.6-9.6,10.2-9.6s10.2,4.3,10.2,9.6
						C422.7,559.9,418.1,564.1,412.5,564.1z M412.5,549.5c-3.1,0-5.7,2.3-5.7,5.1s2.5,5,5.7,5s5.7-2.3,5.7-5
						S415.6,549.5,412.5,549.5z"/>
				</g>
			</g>
			<g>
				<g>
					<path class="st1" d="M298.7,564.1c-5.6,0-10.2-4.3-10.2-9.5c0-5.3,4.6-9.6,10.2-9.6c5.6,0,10.1,4.3,10.1,9.6
						C308.9,559.9,304.3,564.1,298.7,564.1z M298.7,549.5c-3.1,0-5.7,2.3-5.7,5.1s2.5,5,5.7,5c3.1,0,5.6-2.3,5.6-5
						S301.8,549.5,298.7,549.5z"/>
				</g>
			</g>
			<g>
				<g>
					<path class="st1" d="M412.5,426.2c-5.6,0-10.2-4.3-10.2-9.5c0-5.3,4.6-9.6,10.2-9.6s10.2,4.3,10.2,9.6
						C422.7,422,418.1,426.2,412.5,426.2z M412.5,411.6c-3.1,0-5.7,2.3-5.7,5.1s2.5,5,5.7,5s5.7-2.3,5.7-5S415.6,411.6,412.5,411.6z
						"/>
				</g>
			</g>
			<g>
				<g>
					<path class="st1" d="M298.7,426.2c-5.6,0-10.2-4.3-10.2-9.5c0-5.3,4.6-9.6,10.2-9.6c5.6,0,10.1,4.3,10.1,9.6
						C308.9,422,304.3,426.2,298.7,426.2z M298.7,411.6c-3.1,0-5.7,2.3-5.7,5.1s2.5,5,5.7,5c3.1,0,5.6-2.3,5.6-5
						S301.8,411.6,298.7,411.6z"/>
				</g>
			</g>
		</g>
		<g>
			<g>
				<g>
					<path class="st1" d="M416.3,1774.2c-5.9,0-10.6-4.9-10.6-10.9c0-6,4.8-10.8,10.6-10.8c5.9,0,10.7,4.9,10.7,10.8
						C427,1769.3,422.2,1774.2,416.3,1774.2z M416.3,1757c-3.4,0-6.1,2.8-6.1,6.3c0,3.5,2.8,6.4,6.1,6.4c3.4,0,6.2-2.8,6.2-6.4
						C422.5,1759.8,419.7,1757,416.3,1757z"/>
				</g>
			</g>
			<g>
				<g>
					<path class="st1" d="M294.8,1774.2c-5.9,0-10.6-4.9-10.6-10.9c0-6,4.8-10.8,10.6-10.8s10.7,4.9,10.7,10.8
						C305.5,1769.3,300.7,1774.2,294.8,1774.2z M294.8,1757c-3.4,0-6.1,2.8-6.1,6.3c0,3.5,2.8,6.4,6.1,6.4s6.2-2.8,6.2-6.4
						C301,1759.8,298.2,1757,294.8,1757z"/>
				</g>
			</g>
			<g>
				<g>
					<path class="st1" d="M416.3,1611.2c-5.9,0-10.6-4.9-10.6-10.8c0-6,4.8-10.9,10.6-10.9c5.9,0,10.7,4.9,10.7,10.9
						C427,1606.4,422.2,1611.2,416.3,1611.2z M416.3,1594c-3.4,0-6.1,2.8-6.1,6.4c0,3.5,2.8,6.3,6.1,6.3c3.4,0,6.2-2.8,6.2-6.3
						C422.5,1596.9,419.7,1594,416.3,1594z"/>
				</g>
			</g>
			<g>
				<g>
					<path class="st1" d="M294.8,1611.2c-5.9,0-10.6-4.9-10.6-10.8c0-6,4.8-10.9,10.6-10.9s10.7,4.9,10.7,10.9
						C305.5,1606.4,300.7,1611.2,294.8,1611.2z M294.8,1594c-3.4,0-6.1,2.8-6.1,6.4c0,3.5,2.8,6.3,6.1,6.3s6.2-2.8,6.2-6.3
						C301,1596.9,298.2,1594,294.8,1594z"/>
				</g>
			</g>
		</g>
		<g>
			<path class="st0" d="M337.8,2216c-56.5,0-131.8-4.5-182.5-25c-0.2-0.1-20-8.1-41.1-23.2c-19.6-14-44.4-37.1-51.5-67.8
				c-1.6-3-9.6-21.7-8.4-98l0.6-160.9l1.3-164.3c0-2.1,0-210.9-1.3-231.2c-0.1-1.9-8.3-190.4-12.1-212.6l0-0.2
				c-1.1-12.1-25.9-295.6-26.2-304.7c-0.7-7.7-14.5-164.4-14.1-173.7c-0.1-3.4-3.2-79-2-165.6l0-0.1C0.5,587.1,11.5,422,35.6,335
				c0.7-3.6,21.5-103.8,87.9-197.7c36.5-53.2,72.9-83.5,97-99.5c25.4-16.9,42.5-21.9,44.2-22.4C303.5,1.1,344,0.4,345.9,0.4
				c1.7-0.1,29.8-1.8,66.5,6.7c34.8,8,84.7,27.1,125.1,72.2c0.6,0.6,68.2,71.5,96.9,141.5c1.9,3.6,42.9,80.3,60.3,218.2
				c0.2,1.5,21.1,154.9,15.3,247.8l-7,119.7l-22.4,236.2c-0.8,10.5-19.7,257.3-23,274.8c-0.4,6.9-11.4,217.2-8.3,250.2l0,0.2
				c0,2.3,1.3,228.2,1.3,240.1c0,1.6,0.7,159.6,1.3,167.4c0,0.3,1.9,27.9-1.4,61.3c-4.5,45-15.8,78.6-33.5,99.9
				c-1,1.3-14,18.3-44.8,36.2c-28.9,16.7-79.5,37.3-156.9,40.4C413.5,2213.4,381.2,2216,337.8,2216z M47.1,1232.4
				c3.8,22.9,11.8,205.2,12.1,213c1.3,20.4,1.3,222.9,1.3,231.5l-1.3,164.3l-0.6,160.9c-1.3,80.3,7.8,95.7,7.9,95.9l0.2,0.3l0.1,0.4
				c13,56.7,89.3,87.9,90,88.2c89.3,36,256.2,22,257.9,21.8l0.1,0c76.3-3.1,126.2-23.3,154.6-39.7c30.7-17.8,43.6-35,43.8-35.2
				l0.1-0.1c41.1-49.2,34.1-156.9,34-158c-0.6-8-1.3-161.2-1.3-167.7c0-11.8-1.3-234.2-1.3-240c-3.1-34,7.8-242.1,8.3-250.9l0-0.3
				c3.1-15.7,22.8-271.8,23-274.4l22.4-236.1l7-119.6c5.7-92.5-15.1-245.4-15.3-247c-17.6-139.6-59.4-216-59.8-216.7l-0.1-0.2
				c-28.3-69.3-95.4-139.6-96-140.3c-21.9-24.5-60.8-56.5-122.6-70.9c-37.1-8.6-65.1-6.7-65.4-6.6l-0.1,0c-0.4,0-41,0.5-79.8,14.9
				l-0.2,0.1c-0.2,0-17.5,4.8-43.2,22c-23.7,15.8-59.5,45.7-95.5,98.1l0,0c-66.7,94.3-87,195-87.2,196l0,0.2
				c-23.8,86-34.9,249-35.1,252.9c-1.2,88,2,164.7,2,165.4l0,0.1l0,0.1c-0.5,5.8,10,127,14.1,173.2l0,0.2
				C21,932.9,38.1,1129.2,47.1,1232.4z"/>
		</g>
		<g>
			<path class="st0" d="M337.8,2216c-56.5,0-131.8-4.5-182.5-25c-0.2-0.1-20-8.1-41.1-23.2c-19.6-14-44.4-37.1-51.5-67.8
				c-1.6-3-9.6-21.7-8.4-98l0.6-160.9l1.3-164.3c0-2.1,0-210.9-1.3-231.2c-0.1-1.9-8.3-190.4-12.1-212.6l0-0.2
				c-1.1-12.1-25.9-295.6-26.2-304.7c-0.7-7.7-14.5-164.4-14.1-173.7c-0.1-3.4-3.2-79-2-165.6l0-0.1C0.5,587.1,11.5,422,35.6,335
				c0.7-3.6,21.5-103.8,87.9-197.7c36.5-53.2,72.9-83.5,97-99.5c25.4-16.9,42.5-21.9,44.2-22.4C303.5,1.1,344,0.4,345.9,0.4
				c1.7-0.1,29.8-1.8,66.5,6.7c34.8,8,84.7,27.1,125.1,72.2c0.6,0.6,68.2,71.5,96.9,141.5c1.9,3.6,42.9,80.3,60.3,218.2
				c0.2,1.5,21.1,154.9,15.3,247.8l-7,119.7l-22.4,236.2c-0.8,10.5-19.7,257.3-23,274.8c-0.4,6.9-11.4,217.2-8.3,250.2l0,0.2
				c0,2.3,1.3,228.2,1.3,240.1c0,1.6,0.7,159.6,1.3,167.4c0,0.3,1.9,27.9-1.4,61.3c-4.5,45-15.8,78.6-33.5,99.9
				c-1,1.3-14,18.3-44.8,36.2c-28.9,16.7-79.5,37.3-156.9,40.4C413.5,2213.4,381.2,2216,337.8,2216z M47.1,1232.4
				c3.8,22.9,11.8,205.2,12.1,213c1.3,20.4,1.3,222.9,1.3,231.5l-1.3,164.3l-0.6,160.9c-1.3,80.3,7.8,95.7,7.9,95.9l0.2,0.3l0.1,0.4
				c13,56.7,89.3,87.9,90,88.2c89.3,36,256.2,22,257.9,21.8l0.1,0c76.3-3.1,126.2-23.3,154.6-39.7c30.7-17.8,43.6-35,43.8-35.2
				l0.1-0.1c41.1-49.2,34.1-156.9,34-158c-0.6-8-1.3-161.2-1.3-167.7c0-11.8-1.3-234.2-1.3-240c-3.1-34,7.8-242.1,8.3-250.9l0-0.3
				c3.1-15.7,22.8-271.8,23-274.4l22.4-236.1l7-119.6c5.7-92.5-15.1-245.4-15.3-247c-17.6-139.6-59.4-216-59.8-216.7l-0.1-0.2
				c-28.3-69.3-95.4-139.6-96-140.3c-21.9-24.5-60.8-56.5-122.6-70.9c-37.1-8.6-65.1-6.7-65.4-6.6l-0.1,0c-0.4,0-41,0.5-79.8,14.9
				l-0.2,0.1c-0.2,0-17.5,4.8-43.2,22c-23.7,15.8-59.5,45.7-95.5,98.1l0,0c-66.7,94.3-87,195-87.2,196l0,0.2
				c-23.8,86-34.9,249-35.1,252.9c-1.2,88,2,164.7,2,165.4l0,0.1l0,0.1c-0.5,5.8,10,127,14.1,173.2l0,0.2
				C21,932.9,38.1,1129.2,47.1,1232.4z"/>
		</g>
		<g>
			<path class="st0" d="M337.8,2216c-56.5,0-131.8-4.5-182.5-25c-0.2-0.1-20-8.1-41.1-23.2c-19.6-14-44.4-37.1-51.5-67.8
				c-1.6-3-9.6-21.7-8.4-98l0.6-160.9l1.3-164.3c0-2.1,0-210.9-1.3-231.2c-0.1-1.9-8.3-190.4-12.1-212.6l0-0.2
				c-1.1-12.1-25.9-295.6-26.2-304.7c-0.7-7.7-14.5-164.4-14.1-173.7c-0.1-3.4-3.2-79-2-165.6l0-0.1C0.5,587.1,11.5,422,35.6,335
				c0.7-3.6,21.5-103.8,87.9-197.7c36.5-53.2,72.9-83.5,97-99.5c25.4-16.9,42.5-21.9,44.2-22.4C303.5,1.1,344,0.4,345.9,0.4
				c1.7-0.1,29.8-1.8,66.5,6.7c34.8,8,84.7,27.1,125.1,72.2c0.6,0.6,68.2,71.5,96.9,141.5c1.9,3.6,42.9,80.3,60.3,218.2
				c0.2,1.5,21.1,154.9,15.3,247.8l-7,119.7l-22.4,236.2c-0.8,10.5-19.7,257.3-23,274.8c-0.4,6.9-11.4,217.2-8.3,250.2l0,0.2
				c0,2.3,1.3,228.2,1.3,240.1c0,1.6,0.7,159.6,1.3,167.4c0,0.3,1.9,27.9-1.4,61.3c-4.5,45-15.8,78.6-33.5,99.9
				c-1,1.3-14,18.3-44.8,36.2c-28.9,16.7-79.5,37.3-156.9,40.4C413.5,2213.4,381.2,2216,337.8,2216z M47.1,1232.4
				c3.8,22.9,11.8,205.2,12.1,213c1.3,20.4,1.3,222.9,1.3,231.5l-1.3,164.3l-0.6,160.9c-1.3,80.3,7.8,95.7,7.9,95.9l0.2,0.3l0.1,0.4
				c13,56.7,89.3,87.9,90,88.2c89.3,36,256.2,22,257.9,21.8l0.1,0c76.3-3.1,126.2-23.3,154.6-39.7c30.7-17.8,43.6-35,43.8-35.2
				l0.1-0.1c41.1-49.2,34.1-156.9,34-158c-0.6-8-1.3-161.2-1.3-167.7c0-11.8-1.3-234.2-1.3-240c-3.1-34,7.8-242.1,8.3-250.9l0-0.3
				c3.1-15.7,22.8-271.8,23-274.4l22.4-236.1l7-119.6c5.7-92.5-15.1-245.4-15.3-247c-17.6-139.6-59.4-216-59.8-216.7l-0.1-0.2
				c-28.3-69.3-95.4-139.6-96-140.3c-21.9-24.5-60.8-56.5-122.6-70.9c-37.1-8.6-65.1-6.7-65.4-6.6l-0.1,0c-0.4,0-41,0.5-79.8,14.9
				l-0.2,0.1c-0.2,0-17.5,4.8-43.2,22c-23.7,15.8-59.5,45.7-95.5,98.1l0,0c-66.7,94.3-87,195-87.2,196l0,0.2
				c-23.8,86-34.9,249-35.1,252.9c-1.2,88,2,164.7,2,165.4l0,0.1l0,0.1c-0.5,5.8,10,127,14.1,173.2l0,0.2
				C21,932.9,38.1,1129.2,47.1,1232.4z"/>
		</g>
		<g>
			<path class="st2" d="M338.9,2184.9c-50.7,0-118-4.4-163.3-24.2c-0.2-0.1-17.9-7.8-36.8-22.5c-17.5-13.5-39.7-35.9-46.1-65.6
				c-1.2-2.3-8.6-19.5-7.6-95l0.6-156.5l1.1-159.7c0-2,0-205.2-1.1-224.9c-0.1-1.9-7.5-185.1-10.9-206.8l0-0.1
				c-1-11.8-23.3-288.4-23.5-296.1c-0.6-7.2-13.1-160.5-12.6-168.9c-0.1-2.9-2.8-76.6-1.7-161c0.1-1.7,10.1-162.1,31.6-246.6
				c0.5-2.8,19.1-100.5,78.9-191.9C205.5,73.7,262.8,50.6,273.7,46.9l0.2-0.1c34.8-13.9,71.3-14.6,72.9-14.6
				c1.4-0.1,26.6-1.8,59.7,6.5c31.2,7.8,76,26.3,112.2,70c0.6,0.6,61.3,69.5,86.9,137.5c1.5,2.9,38.4,77.5,54.1,211.8
				c0.2,1.5,19,150.5,13.8,240.8l-6.3,116.4l-20.1,229.5c-0.7,10.2-17.8,250.7-20.7,267c-0.3,5.6-10.3,211.3-7.5,243.5l0,0.1
				c0,2.2,1.1,221.9,1.1,233.4c0,1.5,0.5,155.1,1.1,162.8c0.1,1.1,6.5,107.2-31.3,156.2c-0.4,0.6-11.9,17.4-40.1,35
				c-25.9,16.2-71.4,36.2-140.8,39.3C408.2,2182.2,378.7,2184.9,338.9,2184.9z M77.8,1229.3c3.4,22.1,10.6,199.5,10.9,207
				c1.1,19.8,1.1,223,1.1,225.1l-1.1,159.7l-0.6,156.5c-1.1,78.7,7.2,93.5,7.3,93.6l0.1,0.2l0.1,0.3c11.8,55.5,80.5,85.9,81.2,86.2
				c80.3,35,230.4,21.3,231.9,21.2c68.8-3,113.7-22.7,139.3-38.7c27.7-17.3,39.3-34.2,39.5-34.4c37.2-48.2,30.8-153.2,30.7-154.3
				c-0.6-7.7-1.1-156.7-1.1-163c0-11.4-1.1-228.6-1.1-233.3c-2.9-32.9,7.4-241.8,7.5-243.9l0-0.2c2.9-15.2,20.5-264.3,20.7-266.8
				L664.2,815l6.3-116.4c5.1-90-13.6-238.7-13.8-240.2c-15.9-135.8-53.5-210.2-53.8-210.9l-0.1-0.2c-25.4-67.4-85.8-136-86.4-136.6
				c-19.7-23.8-54.8-55.1-110.5-69.1c-33.4-8.4-58.6-6.5-58.9-6.5l-0.1,0c-0.4,0-36.9,0.5-71.9,14.4l0,0c-0.1,0.1-0.2,0.1-0.4,0.1
				c-10.7,3.7-67.2,26.5-124.6,117l0,0c-60,91.8-78.3,189.9-78.5,190.8l0,0.1C50,441.9,40.1,602.1,40,603.7
				c-1.1,85.5,1.7,160.1,1.7,160.9l0,0.1l0,0.1c-0.5,5.5,8,112.7,12.6,168.6l0,0.1C54.3,939.1,77.4,1224.1,77.8,1229.3z"/>
		</g>
		<g>
			<path class="st3" d="M336.4,2154.2c-4.6,0-9.1-0.1-13.6-0.2l0.1-3.7c4.5,0.1,9,0.2,13.6,0.2L336.4,2154.2z M350,2154.1l0-3.7
				c4.5-0.1,9-0.2,13.6-0.3l0.1,3.7C359.1,2154,354.5,2154.1,350,2154.1z M309.1,2153.5c-4.6-0.2-9.2-0.5-13.6-0.8l0.2-3.7
				c4.4,0.3,9,0.6,13.5,0.8L309.1,2153.5z M377.2,2153.3l-0.2-3.7c4.6-0.2,9.1-0.5,13.5-0.8l0.2,3.7
				C386.4,2152.8,381.8,2153.1,377.2,2153.3z M281.9,2151.7c-4.6-0.4-9.2-0.9-13.6-1.4l0.4-3.7c4.4,0.5,8.9,1,13.5,1.4L281.9,2151.7
				z M404.4,2151.5L404.4,2151.5l-0.4,0l-0.6-0.5l0.8-0.9l-0.2-2.2l0.3,0c0.1,0,0.1,0,0.2,0v0c4.4-0.2,8.8-0.5,13-0.9l0.3,3.7
				c-4.3,0.4-8.7,0.7-13.1,0.9L404.4,2151.5z M431.5,2149.2l-0.5-3.7c4.5-0.6,9-1.2,13.3-2l0.6,3.7
				C440.6,2147.9,436.1,2148.6,431.5,2149.2z M254.8,2148.4c-4.6-0.7-9.1-1.5-13.5-2.3l0.7-3.6c4.3,0.8,8.8,1.6,13.3,2.3
				L254.8,2148.4z M458.5,2144.5l-0.8-3.6c4.4-1,8.8-2.1,13.1-3.3l1,3.6C467.4,2142.3,462.9,2143.5,458.5,2144.5z M228,2143.2
				c-4.6-1.1-9-2.3-13.2-3.5l1.1-3.6c4.1,1.2,8.5,2.4,13,3.5L228,2143.2z M484.8,2137.1l-1.2-3.5c4.3-1.5,8.5-3,12.6-4.7l1.4,3.4
				C493.5,2134,489.1,2135.6,484.8,2137.1z M201.8,2135.3c-4-1.5-7.8-3.1-11.3-4.7l0,0c-0.4-0.1-0.8-0.4-1.4-0.6l1.2-2.5l-0.1-0.1
				l0.2-0.1l0.3-0.6c0.6,0.3,1,0.5,1.2,0.6l0.1,0.1c3.5,1.6,7.2,3.2,11.1,4.6L201.8,2135.3z M510.2,2126.8l-1.6-3.3
				c4.1-2,8.1-4,11.9-6.2l1.8,3.2C518.4,2122.7,514.3,2124.8,510.2,2126.8z M177,2123.2c-3.9-2.4-7.7-4.9-11.4-7.6l2.2-3
				c3.6,2.6,7.4,5.1,11.2,7.5L177,2123.2z M534,2113.3l-2-3.1c3.8-2.5,7.5-5.1,10.9-7.8l2.3,2.9
				C541.6,2108.1,537.9,2110.8,534,2113.3z M154.7,2107.2c-3.6-3-7-6.1-10.1-9.3l2.6-2.6c3.1,3.1,6.4,6.1,9.9,9.1L154.7,2107.2z
				 M555.6,2096.4l-2.5-2.7c3.4-3.2,6.6-6.4,9.4-9.6l2.8,2.4C562.4,2089.8,559.2,2093.2,555.6,2096.4z M135.3,2087.7
				c-3-3.6-5.7-7.4-8.1-11.2l3.1-2c2.3,3.6,5,7.3,7.9,10.8L135.3,2087.7z M573.6,2075.5l-3.1-2c2.3-3.5,4.5-7.4,6.5-11.6l3.3,1.6
				C578.3,2067.8,576,2071.8,573.6,2075.5z M120.6,2064.4c-2-4.2-3.6-8.6-4.9-13l3.6-1c1.2,4.2,2.8,8.4,4.7,12.4L120.6,2064.4z
				 M585.7,2050.7l-3.5-1.3c1.5-4,2.8-8.3,4.1-12.8l3.6,1C588.5,2042.2,587.1,2046.6,585.7,2050.7z M112,2038.3
				c-0.9-3.7-1.7-8.2-2.3-13.6l3.7-0.5c0.7,5.2,1.4,9.6,2.3,13.2L112,2038.3z M593.1,2024.3l-3.6-0.8c0.9-4.2,1.8-8.7,2.5-13.3
				l3.7,0.6C594.9,2015.5,594,2020,593.1,2024.3z M108.4,2011.1c-0.3-4.2-0.6-8.8-0.8-13.6l3.7-0.2c0.2,4.8,0.5,9.3,0.8,13.5
				L108.4,2011.1z M597.5,1997.3l-3.7-0.4c0.5-4.4,1-8.9,1.4-13.5l3.7,0.3C598.5,1988.3,598.1,1992.9,597.5,1997.3z M107.1,1983.9
				c-0.1-4.3-0.2-8.9-0.2-13.6l3.7,0c0,4.7,0.1,9.2,0.2,13.5L107.1,1983.9z M599.9,1970.1l-3.7-0.2c0.2-4.4,0.4-9,0.5-13.5l3.7,0.1
				C600.3,1961,600.1,1965.6,599.9,1970.1z M110.7,1956.7l-3.7,0c0-1.5,0-3,0.1-4.5l0-9.1l3.7,0l0,9.1
				C110.7,1953.8,110.7,1955.2,110.7,1956.7z M596.8,1942.8c0-6.1-0.2-10.7-0.3-13.5l3.7-0.2c0.1,2.8,0.3,7.5,0.3,13.7L596.8,1942.8
				z M110.8,1929.5l-3.7,0l0-13.6l3.7,0L110.8,1929.5z M596.1,1915.6c0-3.8-0.1-8.4-0.1-13.6l3.7,0c0,5.2,0.1,9.8,0.1,13.6
				L596.1,1915.6z M110.9,1902.4l-3.7,0l0-13.6l3.7,0L110.9,1902.4z M595.9,1888.3c0-4.3-0.1-8.9-0.1-13.6l3.7,0
				c0,4.7,0.1,9.3,0.1,13.6L595.9,1888.3z M111,1875.2l-3.7,0l0-13.6l3.7,0L111,1875.2z M595.7,1861.1l-0.1-13.6l3.7,0l0.1,13.6
				L595.7,1861.1z M111.1,1848l-3.7,0l0-13.6l3.7,0L111.1,1848z M595.5,1833.8l-0.1-13.6l3.7,0l0.1,13.6L595.5,1833.8z
				 M111.2,1820.8l-3.7,0l0-13.6l3.7,0L111.2,1820.8z M595.4,1806.6l-0.1-13.6l3.7,0l0.1,13.6L595.4,1806.6z M111.3,1793.7l-3.7,0
				l0.1-13.6l3.7,0L111.3,1793.7z M595.3,1779.3l0-10.7c0-0.5,0-1.6,0-3l3.7,0c0,1.4,0,2.4,0,3l0,10.7L595.3,1779.3z M111.5,1766.5
				l-3.7,0l0.1-13.6l3.7,0L111.5,1766.5z M595.2,1752l-0.1-13.6l3.7,0l0.1,13.6L595.2,1752z M111.7,1739.3l-3.7,0l0.1-13.6l3.7,0
				L111.7,1739.3z M595.1,1724.7l-0.1-13.6l3.7,0l0.1,13.6L595.1,1724.7z M111.9,1712.2l-3.7,0l0.1-13.6l3.7,0L111.9,1712.2z
				 M594.9,1697.4l-0.1-13.6l3.7,0l0.1,13.6L594.9,1697.4z M112.1,1685l-3.7,0l0.1-13.6l3.7,0L112.1,1685z M594.8,1670.2l-0.1-13.6
				l3.7,0l0.1,13.6L594.8,1670.2z M112.3,1657.8l-3.7,0l0.1-13.6h3.7v0.6L112.3,1657.8z M594.7,1642.9l-0.1-13.6l3.7,0l0.1,13.6
				L594.7,1642.9z M108.6,1630.5l0-13.6l3.7,0l0,13.6L108.6,1630.5z M594.5,1615.7l-0.1-13.6l3.7,0l0.1,13.6L594.5,1615.7z
				 M108.6,1603.3l0-13.6l3.7,0l0,13.6L108.6,1603.3z M594.4,1588.4l-0.1-13.6l3.7,0l0.1,13.6L594.4,1588.4z M108.6,1576l0-13.6
				l3.7,0l0,13.6L108.6,1576z M594.2,1561.2l-0.1-13.7l3.7,0l0.1,13.7L594.2,1561.2z M108.5,1548.8l0-13.6l3.7,0l0,13.6
				L108.5,1548.8z M593.8,1533.9c-0.1-3-0.1-6.6-0.1-10.6c0-1,0-2,0-3l3.7,0c0,1,0,2,0,3c0,4,0,7.6,0.1,10.6L593.8,1533.9z
				 M108.4,1521.5l-0.1-13.6l3.7,0l0.1,13.6L108.4,1521.5z M597.5,1506.7l-3.7-0.1c0.1-4.3,0.1-8.9,0.2-13.6l3.7,0.1
				C597.7,1497.8,597.6,1502.4,597.5,1506.7z M108.3,1494.3c0-4.7,0-9.2-0.1-13.6l3.7,0c0,4.4,0.1,9,0.1,13.6L108.3,1494.3z
				 M598.1,1479.5l-3.7-0.1c0.1-4.4,0.2-9,0.4-13.6l3.7,0.1C598.4,1470.5,598.2,1475.1,598.1,1479.5z M108.2,1467
				c0-4.9-0.1-9.4-0.1-13.6l3.7,0c0,4.2,0.1,8.8,0.1,13.6L108.2,1467z M598.9,1452.3l-3.7-0.1c0.1-4.5,0.3-9,0.4-13.6l3.7,0.1
				C599.2,1443.2,599,1447.8,598.9,1452.3z M107.9,1439.8c-0.1-6.9-0.2-11.4-0.3-13.6l0-0.1l1.9,0l1.8-0.1c0.1,2.2,0.2,6.7,0.3,13.7
				L107.9,1439.8z M599.8,1425.1l-3.7-0.1c0.2-4.5,0.3-9.1,0.5-13.6l3.7,0.1C600.2,1416,600,1420.5,599.8,1425.1z M107,1412.5
				c-0.2-3.9-0.3-8.5-0.5-13.6l3.7-0.1c0.2,5.2,0.4,9.7,0.5,13.6L107,1412.5z M600.8,1397.9l-3.7-0.1c0.2-4.6,0.4-9.1,0.5-13.6
				l3.7,0.1C601.2,1388.7,601,1393.3,600.8,1397.9z M105.9,1385.3c-0.2-4.3-0.4-8.9-0.6-13.6l3.7-0.2c0.2,4.7,0.4,9.3,0.6,13.6
				L105.9,1385.3z M601.9,1370.7l-3.7-0.2c0.2-4.7,0.4-9.2,0.6-13.6l3.7,0.2C602.3,1361.4,602.1,1366,601.9,1370.7z M104.8,1358
				c-0.2-4.5-0.4-9-0.6-13.6l3.7-0.2c0.2,4.6,0.4,9.2,0.6,13.6L104.8,1358z M603,1343.5l-3.7-0.2c0.2-4.9,0.4-9.5,0.6-13.6l3.7,0.2
				C603.5,1334,603.3,1338.6,603,1343.5z M103.6,1330.8c-0.2-4.5-0.4-9.1-0.6-13.6l3.7-0.2c0.2,4.5,0.4,9.1,0.6,13.6L103.6,1330.8z
				 M604.2,1316.2l-3.7-0.2c0.3-7.3,0.5-11.5,0.5-11.5l0-0.2c0.1-0.5,0.2-1.2,0.3-2.1l3.7,0.4c-0.1,0.9-0.2,1.7-0.3,2.2
				C604.7,1305.6,604.5,1309.7,604.2,1316.2z M102.4,1303.6c-0.2-4.6-0.4-9.2-0.7-13.6l3.7-0.2c0.2,4.4,0.4,9,0.7,13.6L102.4,1303.6
				z M606.3,1289.1l-3.7-0.3c0.3-3.9,0.7-8.5,1.1-13.6l3.7,0.3C607,1280.5,606.7,1285.1,606.3,1289.1z M101,1276.4
				c-0.2-4.7-0.5-9.3-0.7-13.6l3.7-0.2c0.2,4.3,0.5,8.9,0.7,13.6L101,1276.4z M608.5,1261.8l-3.7-0.3c0.3-4.3,0.7-8.9,1-13.6
				l3.7,0.3C609.2,1253,608.8,1257.5,608.5,1261.8z M99.5,1249.2c-0.3-5.3-0.6-9.9-0.9-13.6l3.7-0.3c0.3,3.7,0.6,8.3,0.9,13.6
				L99.5,1249.2z M610.5,1234.7l-3.7-0.3c0.3-4.4,0.7-9,1-13.6l3.7,0.3C611.2,1225.7,610.9,1230.2,610.5,1234.7z M97.3,1222l-1-13.6
				l3.7-0.3l1,13.6L97.3,1222z M612.5,1207.5l-3.7-0.3l1-13.6l3.7,0.3L612.5,1207.5z M95.2,1194.7l-1-13.6l3.7-0.3l1,13.6
				L95.2,1194.7z M614.5,1180.3l-3.7-0.3l1-13.6l3.7,0.3L614.5,1180.3z M93.2,1167.5l-1-13.6l3.7-0.3l1,13.6L93.2,1167.5z
				 M616.4,1153.1l-3.7-0.3l0.9-13.6l3.7,0.3L616.4,1153.1z M91.1,1140.3l-1-13.6l3.7-0.3l1,13.6L91.1,1140.3z M618.2,1125.9
				l-3.7-0.3l0.9-13.6l3.7,0.3L618.2,1125.9z M89,1113.2l-1-13.6l3.7-0.3l1,13.6L89,1113.2z M620.1,1098.7l-3.7-0.3l0.9-13.6
				l3.7,0.3L620.1,1098.7z M87,1086l-1-13.6l3.7-0.3l1,13.6L87,1086z M622,1071.5l-3.7-0.3l0.9-13.6l3.7,0.2L622,1071.5z
				 M84.9,1058.8l-1-13.6l3.7-0.3l1,13.6L84.9,1058.8z M623.8,1044.3l-3.7-0.3l1.1-13.5l3.7,0.3L623.8,1044.3z M82.8,1031.7l-1-13.6
				l3.7-0.3l1,13.6L82.8,1031.7z M626.1,1017.2l-3.7-0.3l1.1-13.5l3.7,0.3L626.1,1017.2z M80.8,1004.5l-1-13.6l3.7-0.3l1,13.6
				L80.8,1004.5z M628.3,990.1l-3.7-0.3l1.1-13.5l3.7,0.3L628.3,990.1z M78.8,977.3c-0.4-4.9-0.7-9.5-1-13.6l3.7-0.3
				c0.3,4.2,0.6,8.7,1,13.6L78.8,977.3z M630.6,963l-3.7-0.3l1.1-13.5l3.7,0.3L630.6,963z M76.8,950.1c-0.7-10.2-0.8-12.3-0.8-12.9
				l-0.1-0.8l0.1,0l0.5-0.5l0.5,0.4l2.7-0.2l0,0.4c0,0.2,0,0.4,0,0.6h0c0,0.3,0.1,2.4,0.8,12.7L76.8,950.1z M632.8,936l-3.7-0.3
				l1.1-13.5l3.7,0.3L632.8,936z M74.8,922.7l-1-13.6l3.7-0.3l1,13.6L74.8,922.7z M635.1,908.9l-3.7-0.3l1.1-13.5l3.7,0.3
				L635.1,908.9z M72.8,895.6l-1-13.6l3.7-0.3l1,13.6L72.8,895.6z M637.3,881.8l-3.7-0.3l1.1-13.5l3.7,0.3L637.3,881.8z M70.7,868.4
				l-1-13.6l3.7-0.3l1,13.6L70.7,868.4z M639.5,854.7l-3.7-0.3l1.1-13.5l3.7,0.3L639.5,854.7z M68.7,841.2c-0.3-4.6-0.7-9.2-1-13.6
				l3.7-0.3c0.3,4.4,0.6,9,1,13.6L68.7,841.2z M641.8,827.6l-3.7-0.3l0.5-5.5l0.4-8l3.7,0.2l-0.4,8.1L641.8,827.6z M66.8,814
				c-0.3-4.8-0.7-9.4-0.9-13.6l3.7-0.2c0.3,4.2,0.6,8.8,0.9,13.6L66.8,814z M643.3,800.4l-3.7-0.2l0.7-13.6l3.7,0.2L643.3,800.4z
				 M65,786.8c-0.4-7.1-0.6-11.4-0.6-13.1c0-0.3,0-0.6,0-0.7l0.1-1.1l1-0.4l0.7,1.7l1.9-0.1l-0.1,0.2l0.1,0c0,0.1,0,0.3,0,0.5
				c0,1.7,0.2,6,0.6,12.9L65,786.8z M644.7,773.3l-3.7-0.2l0.7-13.6l3.7,0.2L644.7,773.3z M63.9,759.5c-0.1-3.8-0.2-8.4-0.4-13.6
				l3.7-0.1c0.1,5.2,0.2,9.8,0.4,13.6L63.9,759.5z M646,746.2l-3.7-0.2l0.7-13.6l3.7,0.2L646,746.2z M63.2,732.3
				c-0.1-4.3-0.2-8.8-0.3-13.6l3.7-0.1c0.1,4.8,0.2,9.3,0.3,13.6L63.2,732.3z M647.4,719l-3.7-0.2l0.5-9.9c0.1-1.2,0.1-2.4,0.2-3.6
				l3.7,0.2c-0.1,1.2-0.1,2.4-0.2,3.6L647.4,719z M62.8,705.1c-0.1-4.4-0.1-8.9-0.2-13.6l3.7,0c0,4.7,0.1,9.2,0.2,13.6L62.8,705.1z
				 M648.5,691.8l-3.7-0.1c0.1-4.3,0.2-8.9,0.2-13.6l3.7,0C648.6,682.9,648.6,687.5,648.5,691.8z M62.5,677.9c0-4.4,0-9-0.1-13.6
				l3.7,0c0,4.6,0,9.1,0.1,13.6L62.5,677.9z M644.9,664.6c-0.1-4.4-0.1-9-0.2-13.6l3.7-0.1c0.1,4.6,0.2,9.2,0.2,13.6L644.9,664.6z
				 M66.2,650.7l-3.7,0c0-4.5,0-9,0.1-13.6l3.7,0C66.2,641.8,66.2,646.3,66.2,650.7z M644.2,637.5c-0.2-4.5-0.3-9-0.5-13.6l3.7-0.2
				c0.2,4.6,0.4,9.1,0.5,13.6L644.2,637.5z M66.4,623.6l-3.7,0c0-2.3,0.1-4.6,0.1-7c0-0.1,0.1-2.4,0.4-6.8l3.7,0.2
				c-0.3,4.3-0.4,6.6-0.4,6.6C66.4,619,66.4,621.3,66.4,623.6z M643,610.3c-0.2-4.5-0.5-9.1-0.8-13.6l3.7-0.2
				c0.3,4.5,0.5,9,0.8,13.6L643,610.3z M67.8,596.5l-3.7-0.3c0.3-4,0.6-8.6,1-13.6l3.7,0.3C68.4,587.9,68.1,592.4,67.8,596.5z
				 M641.4,583.2c-0.3-4.6-0.6-9.1-1-13.6l3.7-0.3c0.3,4.5,0.7,9,1,13.6L641.4,583.2z M69.8,569.3l-3.7-0.3
				c0.3-4.3,0.7-8.9,1.1-13.6l3.7,0.3C70.5,560.5,70.2,565,69.8,569.3z M639.3,556.1c-0.4-4.6-0.8-9.2-1.1-13.5l3.7-0.3
				c0.4,4.4,0.8,8.9,1.1,13.6L639.3,556.1z M72.1,542.2l-3.7-0.3c0.4-4.4,0.8-8.9,1.3-13.6l3.7,0.4C73,533.3,72.5,537.8,72.1,542.2z
				 M637,529c-0.4-4.7-0.9-9.3-1.3-13.5l3.7-0.4c0.4,4.3,0.8,8.8,1.3,13.6L637,529z M74.7,515.2l-3.7-0.4c0.5-4.5,0.9-9,1.4-13.5
				l3.7,0.4C75.7,506.2,75.2,510.7,74.7,515.2z M634.4,502c-0.5-5.2-1-9.7-1.4-13.5l3.7-0.4c0.4,3.8,0.9,8.4,1.4,13.5L634.4,502z
				 M77.6,488.1l-3.7-0.4c0.5-4.5,1-9,1.6-13.5l3.7,0.4C78.7,479.1,78.2,483.6,77.6,488.1z M631.4,474.9c-0.5-4.5-1-9-1.6-13.5
				l3.7-0.5c0.6,4.5,1.1,9,1.6,13.5L631.4,474.9z M80.9,461.1l-3.7-0.5c0.6-4.5,1.2-9,1.8-13.5l3.7,0.5
				C82.1,452.1,81.5,456.6,80.9,461.1z M628,448c-0.6-4.5-1.3-9-2-13.4l3.7-0.6c0.7,4.5,1.3,9,2,13.5L628,448z M84.7,434.2l-3.7-0.6
				c0.7-4.6,1.4-9.1,2.1-13.5l3.7,0.6C86.1,425.1,85.4,429.6,84.7,434.2z M623.9,421.2c-0.8-4.5-1.5-9-2.4-13.4l3.6-0.7
				c0.8,4.4,1.6,8.9,2.4,13.4L623.9,421.2z M89.2,407.4l-3.6-0.7c0.8-4.6,1.7-9.1,2.6-13.4l3.6,0.7C90.9,398.3,90,402.8,89.2,407.4z
				 M619,394.5c-0.9-4.4-1.8-8.9-2.8-13.3l3.6-0.8c1,4.4,1.9,8.9,2.8,13.3L619,394.5z M94.6,380.9L91,380c0.3-1.1,0.5-2.2,0.8-3.4
				l0,0c0.1-1.3,0.7-4,2-10l3.6,0.8c-1,4.6-1.6,7.7-1.8,9.1l0,0.1l-0.2,0.9C95.1,378.6,94.9,379.7,94.6,380.9z M613.3,368
				c-1-4.4-2.1-8.9-3.2-13.2l3.6-0.9c1.1,4.3,2.2,8.8,3.2,13.2L613.3,368z M100.5,354.3l-3.6-0.9c1.1-4.3,2.2-8.8,3.4-13.2l3.6,1
				C102.7,345.6,101.5,350,100.5,354.3z M606.6,341.7c-1.2-4.4-2.4-8.8-3.7-13l3.6-1c1.3,4.3,2.5,8.7,3.7,13.1L606.6,341.7z
				 M107.6,328.1l-3.6-1.1c1.3-4.3,2.6-8.7,4-13l3.5,1.1C110.2,319.5,108.9,323.8,107.6,328.1z M599,315.7
				c-1.4-4.4-2.8-8.7-4.3-12.9l3.5-1.2c1.4,4.2,2.9,8.5,4.3,12.9L599,315.7z M115.9,302.3l-3.5-1.2c1.5-4.3,3-8.6,4.6-12.8l3.5,1.3
				C118.9,293.8,117.3,298.1,115.9,302.3z M590.1,290.1c-1.7-4.5-3.4-8.7-5-12.6l3.4-1.4c1.6,3.9,3.3,8.1,5,12.7L590.1,290.1z
				 M125.3,276.9l-3.4-1.4c1.7-4.2,3.4-8.5,5.2-12.6l3.4,1.4C128.6,268.5,126.9,272.7,125.3,276.9z M580,264.9
				c-1.6-4.1-3.3-8.3-5.1-12.5l3.4-1.5c1.9,4.3,3.6,8.5,5.2,12.7L580,264.9z M135.8,251.9l-3.4-1.5c1.9-4.2,3.8-8.3,5.7-12.4
				l3.3,1.6C139.6,243.7,137.6,247.8,135.8,251.9z M569.2,240.1c-1.9-4-4-8-6.1-12.1l3.3-1.7c2.2,4.1,4.2,8.2,6.2,12.2L569.2,240.1z
				 M147.5,227.5l-3.3-1.7c2.1-4.1,4.2-8.1,6.4-12.1l3.3,1.8C151.7,219.4,149.5,223.5,147.5,227.5z M556.6,216.2
				c-2.2-3.8-4.5-7.8-6.8-11.7l3.2-1.9c2.4,3.9,4.7,7.9,6.9,11.8L556.6,216.2z M160.4,203.7l-3.2-1.9c2.3-3.9,4.6-7.9,7-11.7
				l3.2,1.9C165,195.9,162.7,199.8,160.4,203.7z M542.6,193c-2.4-3.8-4.9-7.6-7.4-11.3l3.1-2.1c2.5,3.8,5.1,7.6,7.5,11.4L542.6,193z
				 M170.5,187l-3.2-1.9c2.4-3.9,4.9-7.8,7.3-11.5l3.1,2C175.3,179.3,172.8,183.2,170.5,187z M527.5,170.5c-2.6-3.7-5.3-7.4-7.9-11
				l3-2.2c2.7,3.6,5.3,7.4,8,11.1L527.5,170.5z M185.3,164.4l-3-2.1c2.6-3.7,5.4-7.4,8.1-11l3,2.2
				C190.7,157.1,188,160.7,185.3,164.4z M511.4,148.6c-4.3-5.6-7.3-9.3-8.4-10.6l2.9-2.4c1.1,1.3,4.1,5,8.5,10.7L511.4,148.6z
				 M201.7,142.9l-2.9-2.4c2.9-3.5,5.9-7,8.9-10.4l2.8,2.5C207.6,136,204.6,139.4,201.7,142.9z M494.3,127.6c-3-3.3-6.1-6.6-9.3-9.7
				l2.6-2.7c3.2,3.2,6.4,6.5,9.5,9.9L494.3,127.6z M219.7,122.8l-2.7-2.6c3.2-3.3,6.5-6.5,9.8-9.5l2.5,2.7
				C226.2,116.4,222.9,119.6,219.7,122.8z M475.1,108.8c-3.4-2.9-7-5.7-10.6-8.3l2.2-3c3.7,2.7,7.3,5.5,10.8,8.5L475.1,108.8z
				 M239.5,104.5l-2.4-2.9c3.6-3,7.2-5.8,10.8-8.4l2.2,3C246.6,98.8,243,101.6,239.5,104.5z M453.4,93c-3.8-2.4-7.7-4.6-11.7-6.7
				l1.7-3.3c4,2.1,8,4.4,11.9,6.8L453.4,93z M261.3,88.7l-2-3.1c4.1-2.6,8.1-4.8,12-6.7l1.6,3.3C269.2,84,265.3,86.2,261.3,88.7z
				 M429.6,80.4c-4.1-1.8-8.3-3.5-12.5-5l1.2-3.5c4.3,1.5,8.6,3.2,12.7,5.1L429.6,80.4z M285.3,76.9l-1.4-3.5
				c4.1-1.6,8.5-3.1,13-4.5l1.1,3.6C293.6,73.8,289.4,75.3,285.3,76.9z M404.3,71.4c-4.3-1.2-8.7-2.3-13.1-3.2l0.8-3.6
				c4.5,0.9,8.9,2,13.3,3.3L404.3,71.4z M311,69.1l-0.8-3.6c4.4-1,8.9-1.8,13.5-2.6l0.6,3.7C319.8,67.3,315.4,68.1,311,69.1z
				 M377.9,65.9c-4.5-0.6-9-1.1-13.4-1.4l0.2-3.7c4.5,0.3,9.1,0.8,13.7,1.4L377.9,65.9z M337.7,64.9l-0.3-3.7
				c5.9-0.5,9.5-0.6,10.1-0.6c0.3,0,1.5-0.1,3.6-0.2l0.1,3.7c-2.2,0.1-3.5,0.2-3.5,0.2l-0.1,0C347.5,64.4,343.7,64.4,337.7,64.9z"/>
		</g>
	</g>
</g>
<g id="Layer_2_00000142867009677079187600000004760306488575377848_">
</g>
</svg>
