<?xml version="1.0" encoding="utf-8"?>
<!-- Generator: Adobe Illustrator 26.3.1, SVG Export Plug-In . SVG Version: 6.00 Build 0)  -->
<svg version="1.1" id="Layer_1" xmlns="http://www.w3.org/2000/svg" xmlns:xlink="http://www.w3.org/1999/xlink" x="0px" y="0px"
	 viewBox="0 0 616.1 2309" style="enable-background:new 0 0 616.1 2309;" xml:space="preserve">
<style type="text/css">
	.st0{fill:#38E841;}
	.st1{fill:#7900FF;}
	.st2{fill:#ED1E77;}
	.st3{fill:#005EFF;}
</style>
<g>
	<g>
		<g>
			<g>
				<path class="st0" d="M308.4,2282.1c-3.1,0-6.1-0.1-8.5-0.2c-39.6-1.2-74.6-10.5-106.9-28.5c-28.2-15.6-53.7-37.7-75.7-65.9
					c-21.8-27.8-39.4-59.7-53.7-97.2c-10.4-27.2-18.2-55.5-23.3-84.2c-2.4-13.8-3.9-28-4.4-42c-0.3-8.6-0.8-16.9-1.5-26.9l-0.2-3.6
					c-0.1-2.2-0.2-4.2-0.4-6.4c-0.2-4.2-0.5-8.4-0.8-12.8l-0.2-2.2l-0.9-15.2c-0.8-13.9-1.5-26.5-2.1-38.6c-0.4-6.9-0.6-14-0.9-22.4
					c-0.4-11.4-0.7-23.8-1-38.2l-0.1-2.6c-1.6-66.8-1.8-133-1.9-206.5l-0.1-32.1c-0.2-135.7-0.4-273.8-0.5-407.3l-0.1-96.3
					c-0.1-82.6-0.1-160.5,0.1-236.3c0.1-27.5,0.5-56.2,0.8-81.5l0.1-6.3c0.1-10.5,0.2-21.1,0.4-31.4c0.4-27.8,0.8-51.7,1.2-73.1
					c0.3-14.6,0.6-29.3,1-43.8c0.3-11.3,0.5-22.6,0.7-33.7l0.4-17.9c0.4-17,0.7-29,1.1-40.1l0.4-10.9c0.3-12.3,0.7-26.1,1.5-43.3
					c0.8-17.3,2.2-35.2,4.3-54.5c0.9-7.6,1.6-15.7,2.3-22.8l0.4-4.2c0.3-3.2,0.6-6.4,0.9-9.6c0.3-3,0.6-5.9,0.9-8.9
					c2.1-21,5-40.6,8.8-59.8c5.8-29,13.2-54.6,22.6-78.5c12-30.4,26.4-56.1,44.1-78.5c32.1-40.8,73-68.5,121.5-82.3
					c20.4-5.8,41.6-8.7,62.9-8.7l5.4,0c7,0.1,14.2,0.1,21.5,0.4c17.1,0.7,34.4,3.7,52.8,9.1c39.3,11.7,73.8,32.8,102.5,62.8
					c21.4,22.5,38.8,48.8,53.1,80.4c11.6,25.6,20.6,53.3,27.5,84.6c4.3,19.8,7.7,40.8,10.3,64.4c0.5,4.7,1,9.8,1.4,15.1l0.2,1.8
					c0.2,1.8,0.4,3.6,0.5,5.5c0.2,1.8,0.3,3.5,0.5,5.3c0.2,2.6,0.5,5.3,0.8,7.9c0.1,1.2,0.3,2.4,0.4,3.5l0.2,1.5
					c0.2,1.6,0.3,3.3,0.5,5c0.3,2.9,0.6,5.8,0.9,8.7l0.4,3.5c0.9,8.7,1.8,18.9,2.6,28.9c1.9,26.4,2.6,52.8,3.2,82.1l0.9,37.2
					c0.6,24.2,1.2,49.3,1.6,73.9l0.1,4.7c0.4,22.4,0.7,44.7,1.1,69.3l0,0.4c0.3,19.4,0.7,44.1,1.2,77.8c0.7,39.2,0.7,78.4,0.6,115.2
					v8.6c0,2.9,0,5.9,0,8.8c0,5.7,0,11.6,0,17.2l0,246.8h-0.3v71.8c0,55.5,0,112.9-0.1,169.5c-0.2,92.9-0.4,180.8-0.7,254.5
					l-0.2,35.5c-0.1,27.3-0.3,46.6-0.6,64.7c-0.5,30-1.1,54.3-1.7,76.2c-0.5,17.2-1.3,35.2-2.4,55c-0.5,11-1.3,22.4-2,32.3
					c-0.2,3.1-0.4,6.5-0.7,10.1c-0.3,4-0.6,8.2-0.8,12.3c-0.6,10.3-1.2,20.8-1.6,32c-0.4,11.1-1.8,23-4.5,37.5
					c-7.9,42.4-21.2,82.6-39.6,119.6c-14.7,29.6-31.4,54.3-51,75.6c-32.4,35.3-71,59-114.9,70.3c-12.9,3.3-27,5.6-41.9,6.8
					C322.3,2281.8,315.4,2282.1,308.4,2282.1z M43.7,353.5l0,0.5l-0.4,3.8c-0.7,7.1-1.4,15.2-2.3,22.9c-2.1,19.3-3.5,37-4.3,54.3
					c-0.7,17.2-1.2,30.9-1.5,43.3l-0.4,10.9c-0.4,11-0.7,23-1.1,40l-0.4,17.9c-0.2,11.1-0.5,22.4-0.7,33.7
					c-0.3,14.5-0.7,29.2-1,43.8c-0.4,21.4-0.8,45.2-1.2,73.1c-0.2,10.3-0.3,20.9-0.4,31.3l0,0.7l-0.1,5.6c-0.4,25.3-0.8,54-0.8,81.5
					c-0.2,75.7-0.2,153.7-0.1,236.3l0.1,96.3c0.1,133.5,0.3,271.6,0.5,407.3l0.1,32.1c0.1,73.4,0.3,139.7,1.9,206.4l0.1,2.6
					c0.4,14.4,0.7,26.8,1,38.2c0.3,8.5,0.5,15.5,0.8,22.4c0.6,12.1,1.3,24.7,2.1,38.6l1.1,17.5c0.3,4.3,0.5,8.6,0.8,12.8
					c0.2,2,0.3,4.2,0.4,6.4l0.2,3.5c0.6,10,1.2,18.4,1.5,27c0.5,13.9,1.9,27.8,4.3,41.5c5,28.4,12.8,56.5,23.1,83.5
					c14.2,37.2,31.6,68.7,53.1,96.3c21.8,27.7,46.9,49.6,74.6,64.9c31.8,17.7,66.2,26.8,105.2,28c2.4,0.1,5.3,0.2,8.4,0.2
					c6.9,0,13.7-0.3,20.2-0.8c14.7-1.1,28.5-3.4,41.3-6.6c43.2-11.1,81.2-34.4,113.1-69.2c19.3-21,35.8-45.4,50.4-74.7
					c18.2-36.7,31.4-76.6,39.2-118.6c2.7-14.3,4.1-26.1,4.5-37c0.5-11.2,1-21.7,1.6-32c0.2-4.2,0.5-8.4,0.8-12.4
					c0.2-3.6,0.5-7,0.7-10.1c0.7-9.9,1.5-21.3,2-32.3c1.1-19.8,1.9-37.8,2.4-54.9c0.6-21.9,1.2-46.1,1.7-76.2
					c0.3-18.1,0.5-37.4,0.6-64.7l0.2-35.5c0.3-73.6,0.5-161.6,0.7-254.5c0.1-56.6,0.1-114,0.1-169.5V1154h0.3V910.8
					c-0.1-5.6,0-11.5,0-17.2c0-2.9,0-5.9,0-8.8v-8.6c0.1-36.8,0.1-75.9-0.6-115.2c-0.6-33.7-1-58.5-1.2-77.9v-0.4
					c-0.4-24.6-0.7-46.9-1.1-69.3l-0.1-4.7c-0.4-24.6-1-49.7-1.6-73.9l-0.9-37.2c-0.7-29.2-1.4-55.6-3.2-81.9
					c-0.7-10-1.7-20.1-2.5-28.8l-0.4-3.6c-0.2-2.9-0.6-5.9-0.9-8.7c-0.2-1.8-0.4-3.4-0.5-5l-0.2-1.5c-0.1-1.2-0.3-2.4-0.4-3.6
					c-0.3-2.6-0.6-5.3-0.8-8c-0.2-1.7-0.3-3.5-0.5-5.3c-0.2-1.8-0.3-3.6-0.5-5.4l-0.2-1.9c-0.4-5.2-0.9-10.3-1.4-15
					c-2.6-23.4-5.9-44.4-10.2-64c-6.8-31.1-15.7-58.5-27.2-83.9c-14.2-31.3-31.3-57.2-52.4-79.4C452.9,72.4,419,51.6,380.3,40.1
					c-18.2-5.3-35.2-8.2-51.9-8.9c-7.3-0.3-14.4-0.4-21.4-0.4l-5.4,0c-21,0-41.8,2.9-61.9,8.5c-47.7,13.6-88,40.9-119.6,81
					c-17.4,22.1-31.7,47.5-43.5,77.5c-9.3,23.6-16.7,49.1-22.4,77.9c-3.8,19.2-6.6,38.6-8.7,59.5c-0.3,2.9-0.6,5.9-0.9,8.8
					C44.3,347.2,44,350.4,43.7,353.5z"/>
			</g>
		</g>
	</g>
	<g>
		<g>
			<g>
				<path class="st1" d="M308.4,2308.8c-3.4,0-6.5-0.1-9.3-0.2c-43.1-1.3-81.1-10.8-116.2-29.2c-30.8-16-58.5-38.7-82.4-67.5
					c-23.7-28.3-42.8-60.8-58.5-99.6c-11.4-28-20-57.1-25.4-86.3c-2.6-14.2-4.2-28.7-4.8-43c-0.3-9.2-1-18.5-1.6-27.5l-0.2-3.7
					c-0.1-2-0.3-4-0.4-5.9l0-0.6c-0.2-4.3-0.5-8.8-0.8-13.1l-0.2-2.3c-0.2-2.6-0.3-5.2-0.5-7.8c-0.2-2.6-0.3-5.2-0.5-7.8
					c-0.9-14.1-1.7-27-2.3-39.5c-0.4-7.2-0.7-15-0.9-23c-0.3-10.1-0.7-24-1.2-41.8c-1.7-68-1.9-135.9-2-211.3l-0.1-32.8
					c-0.3-142.8-0.5-288-0.6-428.4l-0.1-86.7c-0.1-84.5-0.1-164.3,0.1-241.8c0.1-30.4,0.6-62.2,1-89.2l0-0.7l0.5-32.2
					c0.3-22.2,0.7-48.5,1.2-74.8c0.4-19.3,0.9-38.9,1.3-57.8c0.2-7.2,0.4-14.4,0.5-21.5l0.5-18.4c0.4-17.8,0.8-30.7,1.2-40.9
					L7,462.3C7.4,447.4,8,432.5,8.6,418c0.9-18.4,2.4-36.6,4.7-55.8c0.9-7.8,1.7-16,2.5-23.2l0.7-7.4c0.5-5.2,1.1-10.7,1.6-16
					c2.3-21.6,5.5-41.6,9.5-61.2c6.3-29.8,14.4-56.1,24.6-80.4c13.2-31.3,29-57.6,48.2-80.4c34.8-41.8,79.2-70.1,132.1-84.3
					c22.1-5.9,45.1-8.9,68.4-8.9l5.9,0c7.6,0.1,15.4,0.1,23.3,0.4c18.4,0.7,37.2,3.7,57.4,9.3c42.8,11.9,80.3,33.6,111.5,64.3
					c23.2,22.9,42.1,49.9,57.8,82.4c12.7,26.3,22.4,54.7,29.9,86.7c4.7,20.6,8.4,42.1,11.2,66c0.6,4.8,1,9.5,1.4,14.1l0.3,3.3
					c0.2,1.8,0.4,3.7,0.6,5.7c0.2,1.8,0.3,3.5,0.5,5.3c0.4,4.2,1,8.7,1.3,11.6l0.2,1.6l0.4,3c0.4,3.4,0.8,7.3,1.2,11l0.4,3.7
					c0.9,8.9,2,19.2,2.8,29.7c2,27,2.8,54,3.6,84l1,38.2c0.7,24.7,1.3,50.3,1.8,75.5c0.3,17.1,0.6,34,0.9,51.9l0.6,34.5
					c0.4,21.4,0.8,45.6,1.2,69.3c0.8,39.7,0.8,80,0.7,117.9v8.9c0,3,0,6,0,9c0,5.9,0,11.9,0,17.9v252.9h-0.3v73.1
					c0,56.8,0,115.5-0.1,173.4c-0.2,96.2-0.5,194.7-0.8,260.4l-0.2,36.3c-0.1,23.4-0.3,45.1-0.7,66.2c-0.5,28.5-1.1,53.2-1.9,78
					c-0.5,17.5-1.4,35.9-2.6,56.3c-0.6,11.3-1.5,23-2.2,33.1c-0.2,2.7-0.4,5.7-0.6,8.8c-0.3,4.6-0.7,9.4-1,14.2
					c-0.7,10.7-1.3,22-1.8,32.7c-0.5,11.6-2,23.8-4.9,38.4c-8.7,43.7-23.1,84.9-43,122.4c-15.9,30.1-34,55.4-55.5,77.4
					c-35.2,36.2-77.3,60.4-125,71.9c-14.3,3.5-29.6,5.8-45.6,6.9C323.4,2308.5,316.1,2308.8,308.4,2308.8z M20.7,334.9l0,0.5l-0.4,4
					c-0.7,7.2-1.5,15.5-2.5,23.3c-2.3,19.1-3.8,37.3-4.7,55.5c-0.7,14.4-1.2,29.3-1.6,44.2l-0.4,11.1c-0.3,10.3-0.7,23.2-1.2,40.9
					l-0.5,18.4C9.3,540,9.2,547.2,9,554.4c-0.5,18.9-0.9,38.4-1.3,57.8c-0.5,26.2-0.9,52.5-1.2,74.7L6,719l0,0.6l0,0.1
					c-0.5,27-0.9,58.8-1,89.2c-0.2,77.5-0.2,157.3-0.1,241.8l0.1,86.7c0.1,140.4,0.3,285.6,0.6,428.4l0.1,32.8
					c0.1,75.3,0.3,143.2,2,211.2c0.4,17.8,0.8,31.7,1.2,41.8c0.2,8,0.5,15.7,0.9,22.9c0.7,12.5,1.4,25.4,2.3,39.5
					c0.2,2.6,0.3,5.2,0.5,7.8c0.2,2.6,0.3,5.2,0.5,7.8l0.2,2.3c0.3,4.3,0.6,8.8,0.9,13.1l0,0.5c0.1,2,0.3,3.9,0.4,6l0.2,3.7
					c0.6,9,1.3,18.4,1.6,27.7c0.5,14.1,2.1,28.3,4.7,42.3c5.4,28.9,13.8,57.6,25.1,85.4c15.5,38.3,34.4,70.5,57.8,98.4
					c23.6,28.3,50.8,50.6,81.1,66.4c34.5,18,71.9,27.4,114.2,28.7c2.7,0.1,5.8,0.2,9.1,0.2c7.6,0,14.8-0.3,21.9-0.8
					c15.7-1.1,30.8-3.4,44.8-6.8c46.8-11.3,88.2-35.1,122.8-70.7c21.2-21.7,39.1-46.7,54.7-76.4c19.7-37.2,34-77.9,42.6-121.2
					c2.8-14.3,4.4-26.3,4.8-37.7c0.5-10.7,1-22,1.8-32.8c0.3-4.8,0.7-9.7,1-14.2c0.2-3.1,0.4-6.1,0.6-8.8c0.8-10,1.6-21.8,2.2-33
					c1.2-20.4,2.1-38.8,2.6-56.2c0.8-24.7,1.4-49.5,1.9-77.9c0.4-21.2,0.6-42.8,0.7-66.2l0.2-36.3c0.3-65.7,0.6-164.1,0.8-260.4
					c0.1-57.9,0.1-116.6,0.1-173.4v-77.6h0.3V905.5c-0.1-6,0-12.1,0-18c0-3,0-6,0-9v-8.9c0.1-37.8,0.1-78.1-0.7-117.8
					c-0.5-23.7-0.9-47.9-1.2-69.3l-0.6-34.5c-0.3-17.8-0.6-34.7-0.9-51.9c-0.5-25.2-1.1-50.8-1.8-75.5l-1-38.2
					c-0.8-30-1.5-57-3.5-83.8c-0.8-10.4-1.9-20.7-2.8-29.5l-0.4-3.7c-0.4-3.7-0.8-7.5-1.2-10.9l-0.6-4.6c-0.4-3-0.9-7.4-1.3-11.7
					c-0.2-1.8-0.4-3.5-0.5-5.3c-0.2-1.9-0.4-3.8-0.6-5.7l-0.3-3.3c-0.4-4.6-0.9-9.3-1.4-14c-2.8-23.7-6.4-45.1-11.1-65.5
					c-7.4-31.7-17.1-59.8-29.6-85.8c-15.5-32.1-34.1-58.6-56.9-81.1c-30.6-30.2-67.5-51.4-109.5-63.2c-19.8-5.4-38.3-8.4-56.4-9.1
					c-7.9-0.3-15.7-0.4-23.2-0.4l-5.9,0c-22.9,0-45.5,3-67.2,8.8c-52,13.9-95.7,41.8-129.8,82.9c-18.9,22.5-34.4,48.4-47.5,79.3
					c-10.1,24-18.1,50.1-24.4,79.6c-4.1,19.4-7.1,39.3-9.5,60.8c-0.6,5.3-1.1,10.7-1.6,16L20.7,334.9z"/>
			</g>
		</g>
	</g>
	<g>
		<g>
			<g>
				<g>
					<g>
						<g>
							<g>
								<polygon class="st2" points="564.4,1161.1 560.6,1161.1 560.6,1153.8 560.9,1153.8 560.9,1150.2 564.6,1150.2 564.6,1157.5 
									564.4,1157.5 								"/>
							</g>
							<g>
								<path class="st2" d="M564.6,1139.4h-3.7v-13.6h3.7V1139.4z M564.6,1112.1h-3.7v-13.6h3.7V1112.1z M564.6,1084.9h-3.7v-13.6
									h3.7V1084.9z"/>
							</g>
							<g>
								<path class="st2" d="M308.4,2256.3c-1.6,0-3.2,0-4.7-0.1l0.1-3.7c1.5,0,3,0.1,4.6,0.1c3,0,6-0.1,8.9-0.2l0.2,3.7
									C314.5,2256.2,311.5,2256.2,308.4,2256.3z M290,2255.5c-4.6-0.4-9.2-0.9-13.7-1.5l0.5-3.7c4.4,0.6,8.9,1.1,13.4,1.5
									L290,2255.5z M331.2,2255.1l-0.4-3.7c4.5-0.4,9-1,13.4-1.8l0.6,3.7C340.4,2254,335.8,2254.6,331.2,2255.1z M262.8,2251.5
									c-4.5-1-9-2.1-13.3-3.4l1-3.6c4.3,1.2,8.7,2.4,13.1,3.3L262.8,2251.5z M358.3,2250.6l-0.9-3.6c2.2-0.5,4.4-1.1,6.5-1.7
									c2.2-0.6,4.4-1.3,6.5-1.9l1.1,3.5c-2.2,0.7-4.4,1.4-6.6,2C362.8,2249.5,360.5,2250,358.3,2250.6z M236.4,2243.8
									c-4.3-1.6-8.6-3.4-12.7-5.3l1.5-3.4c4.1,1.9,8.3,3.6,12.5,5.1L236.4,2243.8z M384.5,2242.3l-1.4-3.4
									c4.2-1.7,8.3-3.5,12.4-5.4l1.6,3.3C393,2238.7,388.8,2240.6,384.5,2242.3z M211.4,2232.4c-2.4-1.3-4.9-2.7-7.3-4.2
									c-1.5-0.9-3-1.8-4.6-2.8l2-3.1c1.5,1,3,1.9,4.5,2.8c2.4,1.4,4.8,2.8,7.1,4.1L211.4,2232.4z M409.3,2230.3l-1.8-3.2
									c3.9-2.2,7.7-4.6,11.5-7.1l2.1,3.1C417.2,2225.7,413.3,2228.1,409.3,2230.3z M188.2,2217.6c-3.6-2.7-7.3-5.5-10.8-8.5
									l2.4-2.8c3.5,2.9,7,5.7,10.6,8.4L188.2,2217.6z M432.2,2215.2l-2.2-2.9c3.5-2.7,7.1-5.6,10.5-8.5l2.4,2.8
									C439.4,2209.5,435.8,2212.4,432.2,2215.2z M167.2,2200c-3.3-3.1-6.5-6.4-9.7-9.7l2.7-2.5c3.1,3.3,6.3,6.5,9.5,9.6
									L167.2,2200z M453,2197.2l-2.6-2.7c3.2-3.1,6.3-6.4,9.4-9.7l2.7,2.5C459.4,2190.7,456.2,2194,453,2197.2z M148.3,2180
									c-2.9-3.4-5.8-7-8.6-10.7l2.9-2.2c2.8,3.6,5.6,7.2,8.5,10.6L148.3,2180z M471.5,2176.9l-2.9-2.4c2.8-3.5,5.7-7.1,8.3-10.7
									l3,2.2C477.2,2169.8,474.4,2173.4,471.5,2176.9z M131.7,2158.2c-2.6-3.7-5.1-7.6-7.5-11.4l3.1-2c2.4,3.8,4.9,7.6,7.5,11.3
									L131.7,2158.2z M487.9,2154.9l-3.1-2.1c2.5-3.7,4.9-7.5,7.3-11.4l3.2,1.9C492.9,2147.3,490.4,2151.2,487.9,2154.9z
									 M117.1,2135c-2.2-3.9-4.5-8-6.6-12l3.3-1.7c2.1,4,4.3,8,6.5,11.9L117.1,2135z M502.1,2131.5l-3.2-1.8
									c2.2-3.9,4.3-7.9,6.3-12l3.3,1.7C506.5,2123.5,504.3,2127.6,502.1,2131.5z M104.4,2110.7c-1.9-4-3.8-8.2-5.7-12.5l3.4-1.5
									c1.8,4.2,3.7,8.3,5.6,12.3L104.4,2110.7z M514.5,2107.1l-3.4-1.6l0.4-0.8c1.8-3.8,3.5-7.7,5.1-11.6l3.4,1.4
									c-1.7,3.9-3.4,7.8-5.2,11.7L514.5,2107.1z M93.5,2085.6c-1.7-4.2-3.3-8.5-4.8-12.8l3.5-1.3c1.6,4.3,3.2,8.6,4.8,12.7
									L93.5,2085.6z M525.2,2081.9l-3.5-1.3c1.6-4.2,3.2-8.5,4.7-12.7l3.5,1.2C528.4,2073.3,526.8,2077.7,525.2,2081.9z
									 M84.1,2059.9c-1.4-4.3-2.8-8.7-4.1-13l3.6-1.1c1.3,4.3,2.7,8.7,4.1,12.9L84.1,2059.9z M534.3,2056.1l-3.5-1.1
									c1.4-4.3,2.7-8.6,4-13l3.6,1C537.1,2047.4,535.7,2051.8,534.3,2056.1z M76.2,2033.7c-1.2-4.4-2.3-8.8-3.4-13.3l3.6-0.9
									c1,4.4,2.2,8.8,3.3,13.2L76.2,2033.7z M542,2029.8l-3.6-0.9c1.1-4.3,2.2-8.8,3.2-13.2l3.6,0.8
									C544.2,2021,543.1,2025.4,542,2029.8z M69.9,2007.1c-0.9-4.5-1.8-9-2.6-13.4l3.7-0.6c0.8,4.4,1.6,8.9,2.6,13.3L69.9,2007.1z
									 M548.1,2003.2l-3.6-0.7c0.9-4.4,1.7-8.9,2.5-13.3l3.7,0.6C549.8,1994.2,549,1998.7,548.1,2003.2z M65.1,1980.1
									c-0.6-4.5-1.2-9.1-1.6-13.6l3.7-0.4c0.4,4.4,1,9,1.6,13.5L65.1,1980.1z M552.7,1976.2l-3.7-0.5c0.6-4.7,1.1-9.1,1.5-13.4
									l3.7,0.3C553.9,1966.9,553.4,1971.4,552.7,1976.2z M62.4,1952.8c-0.1-2.4-0.2-4.8-0.3-7.2c-0.1-2.1-0.1-4.3-0.2-6.4l3.7-0.2
									c0.1,2.2,0.2,4.3,0.2,6.5c0.1,2.4,0.2,4.8,0.3,7.1L62.4,1952.8z M554.9,1948.8l-3.7-0.1c0.2-4.4,0.4-8.8,0.6-13.6l3.7,0.2
									C555.3,1940,555.1,1944.5,554.9,1948.8z M61.2,1925.6l-0.4-6.2l-0.2-3.5c-0.1-1-0.1-2-0.2-3.1l0-0.8l3.7-0.2l0,0.8
									c0.1,1,0.1,2,0.2,3.1l0.2,3.6l0.4,6.2L61.2,1925.6z M556.2,1921.6l-3.7-0.2c0.2-3.9,0.5-7.8,0.7-11.6l0.1-2l3.7,0.2l-0.1,2
									C556.7,1913.8,556.4,1917.8,556.2,1921.6z M59.6,1898.4l-0.2-3.4c-0.2-3.4-0.4-6.8-0.6-10.2l3.7-0.2
									c0.2,3.4,0.4,6.8,0.6,10.1l0.2,3.5L59.6,1898.4z M557.9,1894.4l-3.7-0.2c0.3-4.4,0.6-9,0.8-13.6l3.7,0.2
									C558.4,1885.4,558.2,1890,557.9,1894.4z M58.1,1871.1l-0.3-4.9c-0.1-2.9-0.3-5.8-0.4-8.7l3.7-0.2c0.1,2.9,0.3,5.8,0.4,8.7
									l0.3,4.9L58.1,1871.1z M559.5,1867.2l-3.7-0.2c0.2-4.7,0.5-9.2,0.7-13.6l3.7,0.2C559.9,1858,559.7,1862.5,559.5,1867.2z
									 M56.7,1843.9l-0.1-1.7c-0.2-3.7-0.4-7.7-0.5-12l3.7-0.1c0.1,4.3,0.3,8.2,0.5,11.9l0.1,1.7L56.7,1843.9z M560.7,1839.9
									l-3.7-0.2c0.2-4.6,0.4-9.2,0.5-13.6l3.7,0.1C561.1,1830.7,560.9,1835.3,560.7,1839.9z M55.7,1816.6
									c-0.1-4.4-0.3-8.9-0.4-13.6l3.7-0.1c0.1,4.7,0.2,9.2,0.4,13.6L55.7,1816.6z M561.7,1812.7l-3.7-0.1c0.1-4.4,0.2-9,0.3-13.6
									l3.7,0.1C561.9,1803.7,561.8,1808.2,561.7,1812.7z M55,1789.4c-0.1-2.9-0.1-5.9-0.2-9l-0.1-4.7l3.7-0.1l0.1,4.7
									c0.1,3.1,0.1,6.1,0.2,9L55,1789.4z M562.3,1785.4l-3.7-0.1c0.1-4.4,0.2-8.9,0.3-13.6l3.7,0.1
									C562.5,1776.4,562.4,1781,562.3,1785.4z M54.5,1762.1c-0.1-4.5-0.2-9.1-0.2-13.6l3.7-0.1c0.1,4.5,0.1,9.1,0.2,13.6
									L54.5,1762.1z M562.9,1758.1l-3.7-0.1c0.1-4.4,0.2-8.9,0.2-13.6l3.7,0.1C563,1749.2,563,1753.7,562.9,1758.1z M54.1,1734.8
									c-0.1-4.5-0.1-9.1-0.2-13.6l3.7,0c0.1,4.5,0.1,9.1,0.2,13.6L54.1,1734.8z M563.3,1730.9l-3.7,0c0.1-4.5,0.1-9,0.2-13.6
									l3.7,0C563.4,1721.8,563.4,1726.4,563.3,1730.9z M53.8,1707.6c0-4.5-0.1-9.1-0.1-13.6l3.7,0c0,4.5,0.1,9.1,0.1,13.6
									L53.8,1707.6z M563.6,1703.6l-3.7,0c0-4.5,0.1-9,0.1-13.6l3.7,0C563.7,1694.6,563.6,1699.1,563.6,1703.6z M53.5,1680.3
									c0-4.5-0.1-9.1-0.1-13.6l3.7,0c0,4.5,0,9.1,0.1,13.6L53.5,1680.3z M563.7,1676.3l-3.7,0l0.1-13.6l3.7,0L563.7,1676.3z
									 M53.4,1653c0-4.5,0-9.1,0-13.6l3.7,0c0,4.5,0,9.1,0,13.6L53.4,1653z M563.9,1649.1l-3.7,0l0-13.6l3.7,0L563.9,1649.1z
									 M53.3,1625.8c0-4.6,0-9.1,0-13.6l3.7,0c0,4.5,0,9.1,0,13.6L53.3,1625.8z M564,1621.8l-3.7,0l0-13.6l3.7,0L564,1621.8z
									 M53.3,1598.5l0-13.6l3.7,0l0,13.6L53.3,1598.5z M564,1594.5l-3.7,0l0-13.6l3.7,0L564,1594.5z M53.2,1571.2l0-13.6l3.7,0
									l0,13.6L53.2,1571.2z M564.1,1567.3l-3.7,0l0-13.6l3.7,0L564.1,1567.3z M53.2,1544l0-13.6l3.7,0l0,13.6L53.2,1544z
									 M564.2,1540l-3.7,0l0-13.6l3.7,0L564.2,1540z M53.1,1516.7l0-13.6l3.7,0l0,13.6L53.1,1516.7z M564.2,1512.8l-3.7,0l0-13.6
									l3.7,0L564.2,1512.8z M53.1,1489.4l0-13.6l3.7,0l0,13.6L53.1,1489.4z M564.3,1485.5l-3.7,0l0-13.6l3.7,0L564.3,1485.5z
									 M53,1462.1l0-13.6l3.7,0l0,13.6L53,1462.1z M564.4,1458.2l-3.7,0l0-13.6l3.7,0L564.4,1458.2z M53,1434.9l0-13.6l3.7,0
									l0,13.6L53,1434.9z M564.4,1431l-3.7,0l0-13.6l3.7,0l0,0.1L564.4,1431z M53,1407.6l0-13.6l3.7,0l0,13.6L53,1407.6z
									 M564.5,1403.7l-3.7,0l0-13.6l3.7,0L564.5,1403.7z M52.9,1380.3l0-13.6l3.7,0l0,13.6L52.9,1380.3z M564.5,1376.4l-3.7,0
									l0-13.6l3.7,0L564.5,1376.4z M52.9,1353.1l0-13.6l3.7,0l0,13.6L52.9,1353.1z M564.6,1349.2l-3.7,0l0-13.6l3.7,0
									L564.6,1349.2z M52.9,1325.8l0-13.6l3.7,0l0,13.6L52.9,1325.8z M560.9,1321.9l0-13.6l3.7,0l0,13.6L560.9,1321.9z
									 M52.9,1298.6l0-13.6l3.7,0l0,13.6L52.9,1298.6z M560.9,1294.6l0-13.6h3.7l0,13.6L560.9,1294.6z M52.8,1271.3l0-13.6l3.7,0
									l0,13.6L52.8,1271.3z M564.6,1267.4h-3.7l0-13.6h3.7V1267.4z M52.8,1244.1l0-13.6l3.7,0l0,13.6L52.8,1244.1z M564.6,1240.1
									h-3.7v-13.6h3.7V1240.1z M52.8,1216.8l0-13.6l3.7,0l0,13.6L52.8,1216.8z M564.6,1212.8h-3.7v-13.6h3.7V1212.8z M52.8,1189.6
									l0-13.6l3.7,0l0,13.6L52.8,1189.6z M564.6,1185.6h-3.7v-13.6h3.7V1185.6z M52.7,1162.3l0-13.6l3.7,0l0,13.6L52.7,1162.3z
									 M52.7,1135.1l0-13.6l3.7,0l0,13.6L52.7,1135.1z M52.7,1107.8l0-13.6l3.7,0l0,13.6L52.7,1107.8z M52.6,1080.6l0-13.6l3.7,0
									l0,13.6L52.6,1080.6z M52.6,1053.3l0-13.6l3.7,0l0,13.6L52.6,1053.3z M564.6,1052.6h-3.7V1039h3.7V1052.6z M52.6,1026.1
									l0-13.6l3.7,0l0,13.6L52.6,1026.1z M564.6,1025.3h-3.7v-13.6h3.7V1025.3z M52.6,998.8l0-13.6l3.7,0l0,13.6L52.6,998.8z
									 M564.6,998.1h-3.7v-13.6h3.7V998.1z M52.6,971.5l0-13.6h3.7l0,13.6L52.6,971.5z M564.6,970.8h-3.7v-13.6h3.7V970.8z
									 M56.3,944.3l-3.7,0l0-13.6l3.7,0L56.3,944.3z M564.6,943.6h-3.7v-13.6h3.7V943.6z M56.3,917l-3.7,0l0-13.6l3.7,0L56.3,917z
									 M560.9,916.3c-0.1-4.1-0.1-8.4-0.1-13.7l3.7,0c0,5.2,0.1,9.5,0.1,13.6L560.9,916.3z M56.3,889.8l-3.7,0l0-13.6l3.7,0
									L56.3,889.8z M564.4,889h-3.7l0-13.6l3.7,0L564.4,889z M56.3,862.5l-3.7,0l0-13.6l3.7,0L56.3,862.5z M564.5,861.8l-3.7,0
									l0-8.5l0-5.2l3.7,0L564.5,861.8z M56.4,835.3l-3.7,0l0-13.6l3.7,0L56.4,835.3z M560.7,834.5c0-4.5,0-9.1,0-13.6l3.7,0
									c0,4.6,0,9.1,0,13.6L560.7,834.5z M56.5,808l-3.7,0c0-4.5,0.1-9.1,0.1-13.6l3.7,0C56.5,798.9,56.5,803.5,56.5,808z
									 M560.6,807.3c0-4.5-0.1-9.1-0.1-13.6l3.7,0c0,4.5,0.1,9.1,0.1,13.6L560.6,807.3z M56.7,780.7l-3.7,0
									c0-4.6,0.1-9.1,0.2-13.6l3.7,0C56.8,771.6,56.8,776.2,56.7,780.7z M560.3,780c0-3.4-0.1-6.7-0.2-10.1l-0.1-3.5l3.7-0.1
									l0.1,3.5c0.1,3.4,0.1,6.7,0.2,10.1L560.3,780z M57.1,753.5l-3.7-0.1c0.1-4.6,0.1-9.2,0.2-13.6l3.7,0.1
									C57.2,744.3,57.1,748.9,57.1,753.5z M559.9,752.8l-0.2-13.6l3.7-0.1l0.2,13.6L559.9,752.8z M57.4,726.2l-3.7,0l0-3
									c0-3.5,0.1-7.1,0.1-10.6l3.7,0c0,3.5-0.1,7.1-0.1,10.6L57.4,726.2z M559.5,725.5l-0.2-13.6l3.7-0.1l0.2,13.6L559.5,725.5z
									 M57.7,699l-3.7,0c0.1-4.4,0.1-9,0.2-13.6l3.7,0.1C57.9,690,57.8,694.5,57.7,699z M559.1,698.2l-0.2-13.6l3.7-0.1l0.2,13.6
									L559.1,698.2z M58.1,671.7l-3.7-0.1l0.2-13.6l3.7,0.1L58.1,671.7z M558.7,671l-0.2-13.6l3.7-0.1l0.2,13.6L558.7,671z
									 M58.5,644.4l-3.7-0.1l0.2-13.6l3.7,0.1L58.5,644.4z M558.3,643.7c-0.1-4.6-0.1-9.1-0.2-13.6l3.7-0.1
									c0.1,4.5,0.1,9.1,0.2,13.6L558.3,643.7z M59,617.2l-3.7-0.1c0.1-4.6,0.2-9.1,0.3-13.6l3.7,0.1
									C59.2,608.1,59.1,612.6,59,617.2z M557.9,616.4c-0.1-4.5-0.1-9.1-0.2-13.6l3.7-0.1c0.1,4.6,0.2,9.1,0.2,13.6L557.9,616.4z
									 M59.6,589.9l-3.7-0.1c0.1-4.6,0.2-9.1,0.3-13.6l3.7,0.1C59.8,580.8,59.7,585.4,59.6,589.9z M557.4,589.2
									c-0.1-4.5-0.2-9.1-0.3-13.6l3.7-0.1c0.1,4.5,0.2,9.1,0.3,13.6L557.4,589.2z M60.2,562.7l-3.7-0.1l0.3-13.6l3.7,0.1
									L60.2,562.7z M556.8,561.9l-0.3-13.6l3.7-0.1l0.3,13.6L556.8,561.9z M60.8,535.4l-3.7-0.1c0.1-4.9,0.2-9.4,0.3-13.6l3.7,0.1
									C61,526,60.9,530.5,60.8,535.4z M556.1,534.7l-0.3-13.6l3.7-0.1l0.3,13.6L556.1,534.7z M61.5,508.2l-3.7-0.1l0.4-13.6
									l3.7,0.1L61.5,508.2z M555.6,507.4c-0.1-4.5-0.2-9.1-0.3-13.6l3.7-0.1c0.1,4.6,0.2,9.1,0.3,13.6L555.6,507.4z M62.2,480.9
									l-3.7-0.1c0.1-4.5,0.3-9.1,0.4-13.6l3.7,0.1C62.5,471.9,62.3,476.4,62.2,480.9z M554.9,480.2c-0.1-4.5-0.3-9.1-0.5-13.6
									l3.7-0.1c0.2,4.6,0.3,9.1,0.5,13.6L554.9,480.2z M63.1,453.7l-3.7-0.1l0.1-2.1c0.2-3.8,0.4-7.7,0.6-11.6l3.7,0.2
									c-0.2,3.9-0.4,7.8-0.6,11.5L63.1,453.7z M553.9,453c-0.2-4.7-0.5-9.2-0.7-13.6l3.7-0.2c0.3,4.4,0.5,8.9,0.7,13.6L553.9,453z
									 M64.7,426.5l-3.7-0.3c0.3-4.4,0.7-9,1.1-13.6l3.7,0.3C65.4,417.6,65,422.2,64.7,426.5z M552.3,425.8
									c-0.3-4.1-0.7-8.5-1.1-13.6l3.7-0.3c0.5,5.1,0.8,9.5,1.1,13.6L552.3,425.8z M67,399.4l-3.7-0.4l0.1-0.8
									c0.5-4.4,0.9-8.7,1.2-12.7l3.7,0.3c-0.4,4-0.7,8.4-1.2,12.7L67,399.4z M549.9,398.7c-0.2-2.4-0.5-4.8-0.7-7.1
									c-0.1-1.4-0.3-2.7-0.4-4l-0.3-2.5l3.7-0.4l0.3,2.6c0.1,1.2,0.3,2.6,0.4,3.9c0.2,2.3,0.5,4.7,0.7,7.1L549.9,398.7z
									 M69.5,372.1h-3.7l0-0.3c0.3-3.9,0.7-8.3,1.1-13.4l3.7,0.3c-0.5,5.1-0.8,9.5-1.1,13.3V372.1z M547.3,371.5L547.3,371.5
									c-0.2-2.4-0.4-4.8-0.6-7l-0.5-6.5l3.7-0.3l0.5,6.5c0.3,2.3,0.4,4.7,0.6,7L547.3,371.5z M71.9,345.1l-3.7-0.4
									c0.5-4.6,1-9.1,1.5-13.6l3.7,0.5C72.9,336,72.4,340.6,71.9,345.1z M544.8,344.4c-0.5-4.6-1-9.1-1.6-13.5l3.7-0.5
									c0.5,4.4,1.1,9,1.6,13.6L544.8,344.4z M75.3,318.2l-3.7-0.5c0.7-4.5,1.4-9.1,2.1-13.5l3.7,0.6
									C76.6,309.1,75.9,313.7,75.3,318.2z M541.5,317.4c-0.7-4.5-1.4-9-2.1-13.4l3.7-0.6c0.7,4.4,1.4,9,2.1,13.5L541.5,317.4z
									 M79.8,291.4l-3.6-0.7c0.9-4.5,1.8-9,2.7-13.4l3.6,0.8C81.5,282.4,80.6,286.9,79.8,291.4z M537,290.6
									c-0.3-1.8-0.7-3.5-1-5.3c-0.5-2.7-1.1-5.4-1.7-8l3.6-0.8c0.6,2.7,1.1,5.4,1.7,8.1c0.4,1.8,0.7,3.5,1,5.3L537,290.6z
									 M85.5,264.8l-3.6-0.9c1.1-4.4,2.3-8.9,3.5-13.2l3.6,1C87.8,256,86.6,260.4,85.5,264.8z M531.2,264.1
									c-1.1-4.4-2.3-8.9-3.4-13.1l3.6-1c1.2,4.3,2.4,8.8,3.5,13.2L531.2,264.1z M92.8,238.7l-3.5-1.1c1.4-4.4,2.8-8.7,4.3-13
									l3.5,1.2C95.6,230,94.2,234.3,92.8,238.7z M523.9,237.9c-1.4-4.3-2.8-8.7-4.3-12.9l3.5-1.2c1.5,4.2,2.9,8.6,4.3,13
									L523.9,237.9z M101.7,213l-3.5-1.3c1.7-4.3,3.4-8.6,5.2-12.7l3.4,1.5C105.1,204.5,103.4,208.8,101.7,213z M514.9,212.3
									c-1.2-3-2.4-5.9-3.6-8.9c-0.5-1.2-1-2.5-1.6-3.7l3.4-1.5c0.5,1.2,1.1,2.5,1.6,3.7c1.2,2.9,2.5,5.9,3.6,8.9L514.9,212.3z
									 M112.4,188.1l-3.3-1.6c2-4.2,4.1-8.3,6.2-12.2l3.3,1.7C116.4,179.9,114.4,184,112.4,188.1z M504.1,187.4
									c-2-4.1-4-8.2-6.1-12.1l3.3-1.7c2.1,3.9,4.2,8.1,6.2,12.2L504.1,187.4z M125.1,164.2l-3.2-1.9c2.3-3.9,4.8-7.8,7.3-11.6
									l3.1,2.1C129.9,156.5,127.5,160.4,125.1,164.2z M491.4,163.5c-2.3-3.9-4.8-7.7-7.2-11.4l3.1-2.1c2.5,3.8,5,7.7,7.3,11.6
									L491.4,163.5z M140.2,141.7l-3-2.2c2.7-3.7,5.6-7.3,8.5-10.8l2.9,2.4C145.7,134.5,142.9,138.1,140.2,141.7z M476.3,141.1
									c-2.7-3.6-5.5-7.2-8.4-10.6l2.8-2.4c2.9,3.5,5.8,7.1,8.5,10.8L476.3,141.1z M157.5,121l-2.7-2.5c3.1-3.4,6.4-6.6,9.7-9.7
									l2.5,2.7C163.8,114.4,160.6,117.7,157.5,121z M458.9,120.4c-3.1-3.3-6.3-6.5-9.6-9.6l2.5-2.7c3.3,3.1,6.6,6.4,9.7,9.7
									L458.9,120.4z M177.1,102.4l-2.4-2.8c3.5-2.9,7.2-5.8,10.8-8.4l2.2,3C184.1,96.7,180.5,99.5,177.1,102.4z M439.2,101.9
									c-3.5-2.9-7.1-5.7-10.7-8.3l2.2-3c3.7,2.7,7.3,5.5,10.9,8.4L439.2,101.9z M198.9,86.5l-2-3.1c3.9-2.4,7.9-4.8,11.9-6.9
									l1.8,3.3C206.6,81.9,202.7,84.1,198.9,86.5z M417.3,86.1c-3.8-2.4-7.7-4.6-11.7-6.7l1.7-3.3c4,2.1,8,4.5,11.9,6.9
									L417.3,86.1z M222.7,73.8l-1.5-3.4c4.2-1.9,8.4-3.6,12.7-5.2l1.3,3.5C231,70.2,226.8,71.9,222.7,73.8z M393.5,73.4
									c-4.1-1.8-8.3-3.5-12.5-5.1l1.3-3.5c4.3,1.6,8.6,3.3,12.7,5.2L393.5,73.4z M248,64.3l-1.1-3.6c4.4-1.3,8.9-2.5,13.3-3.5
									l0.8,3.6C256.7,61.9,252.3,63,248,64.3z M368.1,64.1c-4.4-1.3-8.8-2.4-13.1-3.3l0.8-3.6c4.4,1,8.8,2.1,13.3,3.4L368.1,64.1z
									 M274.3,58.5l-0.5-3.7c4.5-0.7,9.1-1.2,13.7-1.5l0.3,3.7C283.2,57.3,278.7,57.8,274.3,58.5z M341.8,58.4
									c-4.5-0.6-9-1.1-13.4-1.4l0.2-3.7c4.5,0.3,9.1,0.7,13.7,1.4L341.8,58.4z M314.8,56.6c-2.7,0-5.4-0.1-8-0.1l-4.8,0l-0.9,0
									l0-3.7l1.8,0l3.9,0c2.6,0,5.3,0,8,0.1L314.8,56.6z"/>
							</g>
						</g>
					</g>
				</g>
			</g>
		</g>
		<g>
			<g>
				<g>
					<path class="st3" d="M367.1,1772.2c-1.5-1.7-3.7-2.6-6.1-2.6c-0.1,0-0.1,0-0.2,0c-2.4,0-4.6,0.8-6.1,2.3
						c-1.5,1.5-2.4,3.7-2.4,6.1c0,4.9,3.2,8.5,8,8.6c0.2,0,0.2,0,0.3,0c4.8,0,8.4-3.4,8.6-8.2C369.5,1776,368.6,1773.8,367.1,1772.2
						z M361.2,1783.4L361.2,1783.4c-0.2,0-0.2,0-0.4,0c-1.3,0-2.6-0.5-3.6-1.4c-1.1-1-1.7-2.4-1.7-3.8c0-2.7,2.4-5.3,5.1-5.4h0.2
						c2.6,0,5.2,2.6,5.3,5.1C366.4,1780.4,363.9,1783.1,361.2,1783.4z"/>
				</g>
				<g>
					<path class="st3" d="M260.4,1771.9c-1.6-1.5-3.9-2.4-6.3-2.3c-4.7,0.2-8,3.7-8,8.6c0,2.4,0.9,4.6,2.4,6.1
						c1.5,1.5,3.6,2.3,6,2.3h0.2c2.4-0.1,4.6-1,6.1-2.6c1.5-1.6,2.3-3.7,2.2-6.1C262.9,1775.5,262,1773.4,260.4,1771.9z
						 M258.1,1781.8c-1.1,1-2.4,1.6-3.7,1.6c-0.1,0-0.2,0-0.2,0c-2.8-0.2-5-2.7-4.9-5.5c0.1-2.7,2.6-5.3,5.3-5.3h0.2
						c2.6,0.1,5.2,2.7,5.2,5.3C259.8,1779.4,259.2,1780.7,258.1,1781.8z"/>
				</g>
				<g>
					<path class="st3" d="M246,1639.9c-0.1,2.5,0.8,4.7,2.2,6.3c1.5,1.6,3.6,2.4,6,2.4h0.1c2.4,0,4.6-0.9,6.2-2.5
						c1.5-1.6,2.4-3.7,2.3-6c0-2.3-0.9-4.5-2.4-6.1c-1.6-1.6-3.8-2.5-6.3-2.5C249.5,1631.7,246.1,1635.1,246,1639.9z M254.1,1634.8
						L254.1,1634.8c1.3-0.1,2.7,0.5,3.9,1.5c1.2,1,1.9,2.5,1.9,3.8c0,2.7-2.6,5.3-5.3,5.3c-0.1,0-0.1,0-0.2,0
						c-2.7,0-5.1-2.4-5.3-5.1C249.1,1637.6,251.4,1635,254.1,1634.8z"/>
				</g>
				<g>
					<path class="st3" d="M369.4,1640.1c0-2.3-0.9-4.5-2.4-6.1c-1.5-1.6-3.8-2.5-6.2-2.5l0,0c-4.8,0-8.3,3.4-8.3,8.2
						c-0.1,2.5,0.8,4.7,2.2,6.3c1.5,1.5,3.6,2.4,6,2.5h0.2c2.4,0,4.6-0.9,6.2-2.5C368.5,1644.6,369.3,1642.5,369.4,1640.1z
						 M366.1,1640.3c-0.2,2.6-2.8,5.1-5.3,5.1c-0.1,0-0.1,0-0.2,0l0,0c-2.7-0.1-5.1-2.6-5.1-5.3c0-2.8,2.5-5.3,5.2-5.3
						c1.4,0,2.8,0.7,3.9,1.8C365.7,1637.7,366.3,1639.2,366.1,1640.3z"/>
				</g>
				<g>
					<path class="st3" d="M246,526.9c0,2.6,0.8,4.7,2.2,6.2c1.5,1.6,3.6,2.4,6.1,2.4l0,0c2.5,0,4.7-0.9,6.3-2.5
						c1.5-1.5,2.3-3.7,2.3-6s-0.9-4.5-2.5-6.1c-1.6-1.6-3.9-2.5-6.2-2.5C249.5,518.6,246,522.1,246,526.9z M250.8,523.3
						c1-1,2.3-1.6,3.6-1.6h0.2c2.7,0.1,5.2,2.8,5.2,5.4c0,2.7-2.6,5.2-5.3,5.3c-2.9,0-5.3-2.3-5.3-5.1
						C249.1,525.8,249.8,524.4,250.8,523.3z"/>
				</g>
				<g>
					<path class="st3" d="M363.1,656.5L363.1,656.5L363.1,656.5c-2.4,0-4.6,0.9-6,2.4c-1.5,1.6-2.4,3.7-2.4,6.2s0.8,4.5,2.3,6.1
						c1.5,1.5,3.6,2.3,6.1,2.3h0.2c2.4-0.1,4.6-1,6.1-2.6c1.5-1.6,2.2-3.7,2.2-6.1C371.4,660.1,367.8,656.5,363.1,656.5z
						 M363.2,670.3L363.2,670.3c-0.1,0-0.2,0-0.2,0c-2.8,0-5.1-2.2-5.3-4.9c-0.1-1.4,0.5-2.9,1.5-4c1-1.1,2.4-1.8,3.7-1.8h0.2
						c2.6,0.1,5.1,2.7,5.2,5.3C368.5,667.7,366,670.2,363.2,670.3z"/>
				</g>
				<g>
					<path class="st3" d="M254.5,656.5c-2.4,0-4.6,0.9-6.1,2.4c-1.5,1.6-2.4,3.7-2.4,6.2s0.8,4.5,2.3,6.1c1.5,1.5,3.6,2.3,6.1,2.3
						h0.2c2.4-0.1,4.6-1,6.1-2.6c1.5-1.6,2.2-3.7,2.2-6.1C262.8,660.1,259.2,656.5,254.5,656.5z M254.5,670.3c-0.1,0-0.2,0-0.2,0
						c-1.2,0-2.6-0.5-3.5-1.4c-1-1-1.6-2.3-1.7-3.6c-0.1-1.4,0.5-2.9,1.6-4c1-1,2.3-1.7,3.6-1.7h0.1c2.6,0.1,5.3,2.7,5.3,5.3
						C259.8,667.9,257.3,670.2,254.5,670.3z"/>
				</g>
				<g>
					<path class="st3" d="M352.4,526.9c-0.1,2.6,0.7,4.7,2.2,6.2c1.5,1.6,3.6,2.4,6.1,2.4h0.1c2.5,0,4.7-0.9,6.3-2.5
						c1.5-1.5,2.3-3.7,2.3-6s-0.9-4.5-2.5-6.1c-1.6-1.6-3.8-2.5-6.2-2.5C356,518.6,352.4,522.1,352.4,526.9z M357.2,523.4
						c1-1,2.3-1.7,3.6-1.7h0.1c2.6,0.1,5.3,2.7,5.3,5.3c0,2.8-2.4,5.3-5.2,5.3c-0.1,0-0.1,0-0.2,0c-2.7,0-5.1-2.2-5.3-5
						C355.5,526,356.1,524.4,357.2,523.4z"/>
				</g>
			</g>
		</g>
	</g>
</g>
</svg>
