<?xml version="1.0" encoding="utf-8"?>
<!-- Generator: Adobe Illustrator 26.3.1, SVG Export Plug-In . SVG Version: 6.00 Build 0)  -->
<svg version="1.1" id="Layer_2_00000018207757072937497580000011669335740119821718_"
	 xmlns="http://www.w3.org/2000/svg" xmlns:xlink="http://www.w3.org/1999/xlink" x="0px" y="0px" viewBox="0 0 648 2291.3"
	 style="enable-background:new 0 0 648 2291.3;" xml:space="preserve">
<style type="text/css">
	.st0{fill:#005EFF;}
	.st1{fill:#7900FF;}
	.st2{fill:#38E841;}
	.st3{fill:#ED1E77;}
</style>
<g>
	<g>
		<g>
			<g>
				<g>
					<g>
						<g>
							<path class="st0" d="M379,478.1c-6.8,0-12.3-5.6-12.3-12.4c0-6.9,5.5-12.5,12.3-12.5s12.4,5.6,12.4,12.5
								S385.8,478.1,379,478.1z M379,457.8c-4.3,0-7.8,3.6-7.8,8s3.5,7.9,7.8,7.9s7.9-3.6,7.9-7.9
								C386.9,461.3,383.3,457.8,379,457.8z"/>
						</g>
					</g>
					<g>
						<g>
							<path class="st0" d="M269.5,478.1c-6.8,0-12.3-5.6-12.3-12.4c0-6.9,5.5-12.5,12.3-12.5s12.4,5.6,12.4,12.5
								C281.8,472.6,276.3,478.1,269.5,478.1z M269.5,457.8c-4.3,0-7.8,3.6-7.8,8s3.5,7.9,7.8,7.9s7.9-3.6,7.9-7.9
								C277.3,461.3,273.8,457.8,269.5,457.8z"/>
						</g>
					</g>
					<g>
						<g>
							<path class="st0" d="M379,623.7c-6.8,0-12.3-5.6-12.3-12.5s5.5-12.4,12.3-12.4s12.4,5.6,12.4,12.4
								C391.4,618.1,385.8,623.7,379,623.7z M379,603.3c-4.3,0-7.8,3.6-7.8,7.9c0,4.4,3.5,8,7.8,8s7.9-3.6,7.9-8
								S383.3,603.3,379,603.3z"/>
						</g>
					</g>
					<g>
						<g>
							<path class="st0" d="M269.5,623.7c-6.8,0-12.3-5.6-12.3-12.5s5.5-12.4,12.3-12.4s12.4,5.6,12.4,12.4
								C281.8,618.1,276.3,623.7,269.5,623.7z M269.5,603.3c-4.3,0-7.8,3.6-7.8,7.9c0,4.4,3.5,8,7.8,8s7.9-3.6,7.9-8
								C277.3,606.8,273.8,603.3,269.5,603.3z"/>
						</g>
					</g>
				</g>
			</g>
			<g>
				<g>
					<g>
						<g>
							<path class="st0" d="M379,1670.2c-6.8,0-12.3-5.6-12.3-12.5s5.5-12.5,12.3-12.5s12.4,5.6,12.4,12.5S385.8,1670.2,379,1670.2z
								 M379,1649.7c-4.3,0-7.8,3.6-7.8,8s3.5,8,7.8,8s7.9-3.6,7.9-8S383.3,1649.7,379,1649.7z"/>
						</g>
					</g>
					<g>
						<g>
							<path class="st0" d="M269.5,1670.2c-6.8,0-12.3-5.6-12.3-12.5s5.5-12.5,12.3-12.5s12.4,5.6,12.4,12.5
								S276.3,1670.2,269.5,1670.2z M269.5,1649.7c-4.3,0-7.8,3.6-7.8,8s3.5,8,7.8,8s7.9-3.6,7.9-8S273.8,1649.7,269.5,1649.7z"/>
						</g>
					</g>
					<g>
						<g>
							<path class="st0" d="M379,1815.7c-6.8,0-12.3-5.6-12.3-12.5s5.5-12.5,12.3-12.5s12.4,5.6,12.4,12.5S385.8,1815.7,379,1815.7z
								 M379,1795.2c-4.3,0-7.8,3.6-7.8,8s3.5,8,7.8,8s7.9-3.6,7.9-8C386.9,1798.8,383.3,1795.2,379,1795.2z"/>
						</g>
					</g>
					<g>
						<g>
							<path class="st0" d="M269.5,1815.7c-6.8,0-12.3-5.6-12.3-12.5s5.5-12.5,12.3-12.5s12.4,5.6,12.4,12.5
								S276.3,1815.7,269.5,1815.7z M269.5,1795.2c-4.3,0-7.8,3.6-7.8,8s3.5,8,7.8,8s7.9-3.6,7.9-8
								C277.4,1798.8,273.8,1795.2,269.5,1795.2z"/>
						</g>
					</g>
				</g>
			</g>
		</g>
		<g>
			<path class="st1" d="M306.5,2291c-20.3,0-60.2-2.6-103.8-19.4c-36.6-14.1-68.6-35.4-95.1-63.2c-33.1-34.8-57.6-79.9-72.9-134.1
				c-0.2-0.7-20.1-72-21.4-244.7L0.1,1020.7V681.3c0-2.8,4.4-282.1,41.3-413.7l0.5-1.6c4.7-15.1,26-78.7,68.4-140
				c26.5-38.4,56.2-68.5,88.2-89.5c39.9-26.1,83.5-38.1,129.8-35.7c3.3-0.1,73.9-2.1,127.5,29.5c1.4,0.7,20,10.7,45.1,36.8
				c23.5,24.5,57.3,68.3,84.9,138.6c1.4,2.4,15.4,28.1,29.9,95.8c13.7,64.2,30.5,180.1,32.1,367.4c1.3,149.9-11.9,796.9-12,803.5
				l-14.6,314c-0.4,8.3-9.3,203.8-12,225c-0.1,0.7-0.2,1.5-0.3,2.5c-1.6,13.8-6,50.5-21.8,94.7c-19.9,55.9-50,102-89.6,137.1
				c-1.1,1.2-11.3,11.6-37.2,22.1c-24.6,10-68.8,22.1-139.9,22.8C319.5,2290.6,314.6,2291,306.5,2291z M45.8,268.8L45.8,268.8
				C9.1,399.8,4.7,678.5,4.6,681.3v339.4l13.2,808.9c1.3,172,21,242.8,21.2,243.5c15.1,53.5,39.2,98,71.8,132.2
				c26,27.3,57.5,48.3,93.4,62.2c61.3,23.7,115.1,18.7,115.7,18.6l0.2,0c70.1-0.7,113.7-12.5,137.9-22.3
				c26.2-10.6,36-21.1,36.1-21.2l0.2-0.2c39-34.6,68.8-80.1,88.4-135.3c15.6-43.8,19.9-80.1,21.5-93.8c0.1-1,0.2-1.8,0.3-2.5
				c2.7-21,11.9-222.6,12-224.6l14.6-313.9c0.1-6.5,13.3-653.4,12-803.3c-1.6-186.5-18.2-302-31.9-366
				c-14.8-69.4-29.4-94.9-29.5-95.2l-0.2-0.3C554.3,137.9,521,94.5,497.8,70.3c-25.1-26.2-44-36-44.1-36.1l-0.1-0.1
				C400.2,2.7,329.1,5.2,328.4,5.2l-0.1,0l-0.1,0c-45.3-2.4-88.1,9.4-127.2,35c-31.5,20.7-60.8,50.4-87,88.3
				c-43.3,62.6-64.4,127.6-68.1,140C45.8,268.6,45.8,268.7,45.8,268.8z"/>
		</g>
	</g>
	<g>
		<path class="st2" d="M306,2263.1c-24,0-71.6-3.9-120-29.7c-60.7-32.3-102.6-88.4-124.7-166.8l-0.1-0.3
			c-1.3-4.9-19-75.5-20.2-237.1l-13.3-808.8l0-338.9c0-2.8,4.2-277.4,40.3-406.2c0.2-0.6,19.1-64.6,60.4-126.8
			c23.6-35.6,49.8-63.8,78.1-83.9c34-24.1,71.1-36.4,110.1-36.4c3.4,0,6.9,0.1,10.3,0.3l1.2,0.1l1.2-0.1c0.1,0,1.5-0.1,4-0.1
			c15.2,0,68,1.9,108.4,25.7l1.5,0.8c5.6,3.3,20.8,13.3,39.8,33.5c21.1,22.5,51.6,62.9,76.9,127.2l0.2,0.5
			c4,10.7,39.7,112,59.3,389.2c5.8,81.9-10.6,677.8-15.8,858.5c-0.1,3.7-0.2,5.8-0.2,6.2l-8,279l0,0.7c-6,103.3-8.8,167.4-7.9,180.6
			l0,0.2c0.2,5.8,1.5,58.2-13,122.4c-7.9,34.8-19,66.1-32.8,93.2c-16.6,32.3-37.3,58.5-61.6,77.7l-2.3,1.8l-0.8,1
			c-4.1,3.6-43,34.9-157,36h-1.1l-1.3,0.1C314.3,2263,310.2,2263.1,306,2263.1z M64.2,2066c21.9,77.5,63.3,132.9,123.2,164.8
			c47.9,25.5,94.8,29.3,118.6,29.3c4.1,0,8.1-0.1,11.2-0.4c0.1,0,0.1,0,0.2,0l0,0l1.3-0.1h1.2c112-1.1,150.4-31.2,154.9-35.1l0.9-1
			l2.4-1.9c23.9-19,44.4-44.8,60.8-76.7c13.7-26.8,24.7-57.9,32.6-92.4c14.5-63.8,13.2-115.9,13-121.6l0-0.2
			c-0.9-13.5,1.8-76.1,7.9-181l0-0.6l8-279c0-0.4,0.1-2.5,0.2-6.2c5.2-180.7,21.7-776.5,15.8-858.2
			c-19.6-276.8-55.1-377.7-59.1-388.3l-0.2-0.4c-25.1-63.9-55.3-104-76.3-126.3c-18.8-20-33.7-29.8-39.2-33l-1.5-0.8
			c-39.7-23.5-91.8-25.3-106.9-25.3c-2.4,0-3.8,0.1-3.8,0.1l-1.4,0.1l-1.4-0.1c-3.3-0.2-6.7-0.3-10.1-0.3
			c-38.4,0-74.8,12.1-108.3,35.8c-27.9,19.9-54,47.8-77.3,83.1c-41,61.9-59.8,125.4-60,126C34.9,404.5,30.7,678.8,30.7,681.5v338.9
			L44,1829.2c1.2,165.6,19.9,235.8,20.1,236.5L64.2,2066z"/>
	</g>
	<g>
		<path class="st3" d="M306,2236.5c-4.7,0-9.6-0.2-14.5-0.5l0.2-3.7c4.8,0.3,9.6,0.5,14.3,0.5V2236.5z M309.8,2236.4l-0.1-3.7
			c2.9-0.1,4.6-0.3,5-0.3l0.1,0l2.3-0.2h2.4c1.5,0,3.1,0,4.6-0.1l0.1,3.7c-1.5,0-3.1,0-4.7,0.1h-2.3l-2,0.2
			C314.6,2236.1,312.7,2236.3,309.8,2236.4z M338.6,2235.3l-0.2-3.7c4.8-0.2,9.7-0.5,14.3-0.8l0.3,3.7
			C348.4,2234.9,343.5,2235.1,338.6,2235.3z M277,2234.6c-4.8-0.6-9.6-1.4-14.3-2.3l0.7-3.6c4.7,0.9,9.4,1.6,14.1,2.2L277,2234.6z
			 M367.5,2233.2l-0.4-3.7c4.8-0.5,9.6-1.1,14.2-1.8l0.5,3.7C377.2,2232.1,372.3,2232.7,367.5,2233.2z M248.5,2229.2
			c-4.7-1.2-9.4-2.5-14-4l1.1-3.5c4.5,1.4,9.1,2.8,13.7,3.9L248.5,2229.2z M396.1,2229.1l-0.7-3.6c4.8-0.9,9.5-1.9,14-3l0.9,3.6
			C405.7,2227.2,400.9,2228.2,396.1,2229.1z M424.3,2222.3l-1.1-3.5c4.7-1.4,9.3-3,13.5-4.7l1.4,3.4
			C433.7,2219.2,429.1,2220.8,424.3,2222.3z M220.9,2220.3c-4.5-1.8-9-3.7-13.3-5.8l1.6-3.4c4.3,2,8.7,3.9,13.1,5.7L220.9,2220.3z
			 M451.3,2211.4l-1.8-3.3c2.5-1.3,4.3-2.5,5.5-3.2l0.5-0.6l5.4-4.3l2.3,2.9l-5,4l-0.5,0.8l-0.3,0.2
			C456.2,2208.6,454.1,2209.9,451.3,2211.4z M194.7,2207.8c-4.2-2.4-8.4-4.9-12.4-7.5l2-3.1c3.9,2.6,8,5.1,12.2,7.4L194.7,2207.8z
			 M474.2,2193.4l-2.5-2.7c3.4-3.2,6.7-6.6,10-10.2l2.8,2.5C481.1,2186.6,477.6,2190.1,474.2,2193.4z M170.4,2191.9
			c-3.8-2.9-7.6-6-11.2-9.2l2.5-2.8c3.5,3.1,7.2,6.2,11,9.1L170.4,2191.9z M148.7,2172.6c-3.3-3.4-6.6-7-9.8-10.7l2.8-2.4
			c3.1,3.6,6.3,7.2,9.6,10.5L148.7,2172.6z M493.7,2171.8l-2.9-2.3c2.9-3.7,5.7-7.6,8.4-11.6l3.1,2.1
			C499.5,2164.1,496.6,2168.1,493.7,2171.8z M129.9,2150.5c-2.8-3.8-5.6-7.8-8.3-11.9l3.1-2c2.6,4,5.3,8,8.1,11.7L129.9,2150.5z
			 M510,2147.8l-3.2-1.9c2.4-4,4.7-8.2,6.9-12.5l3.3,1.7C514.7,2139.5,512.4,2143.7,510,2147.8z M114.1,2126.1
			c-2.3-4.1-4.6-8.5-6.8-12.8l3.3-1.6c2.1,4.3,4.4,8.5,6.7,12.6L114.1,2126.1z M523.3,2122.1l-3.4-1.5c1.9-4.2,3.9-8.7,5.7-13.1
			l3.4,1.4C527.3,2113.3,525.3,2117.8,523.3,2122.1z M101.3,2100.2c-1.9-4.4-3.7-8.9-5.4-13.4l3.5-1.3c1.7,4.5,3.5,9,5.4,13.3
			L101.3,2100.2z M534.2,2095.3l-3.5-1.2c1.6-4.4,3.1-9,4.6-13.6l3.5,1.1C537.4,2086.2,535.8,2090.8,534.2,2095.3z M91,2073.1
			c-1.4-4.4-2.8-9-4.1-13.6l-0.1-0.3l1.8-0.5l1.8-0.4l0.1,0.3c1.3,4.5,2.6,9,4.1,13.4L91,2073.1z M543,2067.7l-3.6-1
			c1.3-4.5,2.5-9.2,3.6-13.9l3.6,0.9C545.5,2058.4,544.2,2063.1,543,2067.7z M83.8,2045c-0.8-4.4-1.7-9.2-2.5-14.2l3.7-0.6
			c0.8,5,1.6,9.7,2.5,14.1L83.8,2045z M549.8,2039.6l-3.6-0.8c1-4.6,1.9-9.4,2.8-14.1l3.6,0.7
			C551.7,2030.2,550.8,2034.9,549.8,2039.6z M79.2,2016.5c-0.6-4.6-1.3-9.4-1.9-14.3l3.7-0.5c0.6,4.9,1.2,9.7,1.9,14.2L79.2,2016.5z
			 M555,2011.2l-3.7-0.6c0.7-4.7,1.4-9.5,2-14.2l3.7,0.5C556.3,2001.6,555.7,2006.4,555,2011.2z M75.7,1987.8
			c-0.5-4.7-1-9.5-1.5-14.3l3.7-0.3c0.5,4.8,0.9,9.6,1.4,14.3L75.7,1987.8z M558.5,1982.5l-3.7-0.4c0.5-4.8,0.9-9.6,1.2-14.3
			l3.7,0.2C559.4,1972.8,559,1977.7,558.5,1982.5z M73,1959.1c-0.4-4.7-0.8-9.5-1.1-14.4l3.7-0.3c0.4,4.9,0.7,9.7,1.1,14.3
			L73,1959.1z M560.5,1953.6l-3.7-0.1c0.2-5,0.3-9.8,0.3-14.3h3.7C560.8,1943.7,560.7,1948.6,560.5,1953.6z M70.9,1930.4
			c-0.3-4.7-0.6-9.6-0.8-14.4l3.7-0.2c0.3,4.9,0.5,9.7,0.8,14.4L70.9,1930.4z M556.8,1924.8l0-1.1c0-3.6,0.1-8.1,0.2-13.4l3.7,0.1
			c-0.1,5.3-0.2,9.8-0.2,13.3l0,1.1L556.8,1924.8z M69.4,1901.6c-0.2-4.7-0.4-9.5-0.6-14.4l3.7-0.1c0.2,4.9,0.4,9.7,0.6,14.4
			L69.4,1901.6z M561.1,1896l-3.7-0.1c0.2-4.6,0.3-9.4,0.5-14.4l3.7,0.2C561.4,1886.6,561.3,1891.4,561.1,1896z M68.3,1872.8
			c-0.1-4.7-0.3-9.5-0.4-14.4l3.7-0.1c0.1,4.9,0.2,9.7,0.4,14.4L68.3,1872.8z M562.3,1867.2l-3.7-0.2c0.2-4.7,0.4-9.5,0.7-14.4
			l3.7,0.2C562.7,1857.7,562.5,1862.5,562.3,1867.2z M67.7,1844c-0.1-4.7-0.1-9.5-0.2-14.4l3.7,0c0,4.9,0.1,9.7,0.2,14.4L67.7,1844z
			 M563.6,1838.4l-3.7-0.2c0.2-4.8,0.5-9.6,0.7-14.4l3.7,0.2C564.1,1828.8,563.9,1833.6,563.6,1838.4z M67.3,1815.2l-0.2-14.4
			l3.7-0.1l0.2,14.4L67.3,1815.2z M565.1,1809.6l-3.7-0.2c0.3-4.9,0.5-9.7,0.8-14.4l3.7,0.2C565.6,1799.9,565.4,1804.8,565.1,1809.6
			z M66.8,1786.4l-0.2-14.4l3.7-0.1l0.2,14.4L66.8,1786.4z M566.7,1780.8l-3.7-0.2c0.3-5,0.6-9.8,0.8-14.4l3.7,0.2
			C567.2,1771,567,1775.8,566.7,1780.8z M66.4,1757.6l-0.2-14.4l3.7-0.1l0.2,14.4L66.4,1757.6z M568.3,1752.1l-3.7-0.2l0.2-4.1
			l0.3-10.2l3.7,0.1l-0.3,10.6L568.3,1752.1z M65.9,1728.8l-0.2-14.4l3.7-0.1l0.2,14.4L65.9,1728.8z M569.3,1723.2l-3.7-0.1
			l0.4-14.4l3.7,0.1L569.3,1723.2z M65.4,1700l-0.2-14.4l3.7-0.1l0.2,14.4L65.4,1700z M570.1,1694.4l-3.7-0.1l0.4-14.4l3.7,0.1
			L570.1,1694.4z M64.9,1671.2l-0.2-14.4l3.7-0.1l0.2,14.4L64.9,1671.2z M570.9,1665.6l-3.7-0.1l0.4-14.4l3.7,0.1L570.9,1665.6z
			 M64.5,1642.4l-0.2-14.4l3.7-0.1l0.2,14.4L64.5,1642.4z M571.7,1636.8l-3.7-0.1l0.4-14.4l3.7,0.1L571.7,1636.8z M64,1613.6
			l-0.2-14.4l3.7-0.1l0.2,14.4L64,1613.6z M572.6,1608.1l-3.7-0.1l0.4-14.4l3.7,0.1L572.6,1608.1z M63.5,1584.8l-0.2-14.4l3.7-0.1
			l0.2,14.4L63.5,1584.8z M573.4,1579.3l-3.7-0.1l0.4-14.4l3.7,0.1L573.4,1579.3z M63.1,1556l-0.2-14.4l3.7-0.1l0.2,14.4L63.1,1556z
			 M574.2,1550.5l-3.7-0.1l0.4-14.4l3.7,0.1L574.2,1550.5z M62.6,1527.2l-0.2-14.4l3.7-0.1l0.2,14.4L62.6,1527.2z M575,1521.7
			l-3.7-0.1l0.4-14.4l3.7,0.1L575,1521.7z M62.1,1498.4l-0.2-14.4l3.7-0.1l0.2,14.4L62.1,1498.4z M575.9,1492.9l-3.7-0.1l0.4-14.4
			l3.7,0.1L575.9,1492.9z M61.6,1469.6l-0.2-14.4l3.7-0.1l0.2,14.4L61.6,1469.6z M576.7,1464.1l-3.7-0.1l0.4-14.4l3.7,0.1
			L576.7,1464.1z M61.2,1440.8l-0.2-14.4l3.7-0.1l0.2,14.4L61.2,1440.8z M577.5,1435.3l-3.7-0.1l0.4-14.4l3.7,0.1L577.5,1435.3z
			 M60.7,1412l-0.2-14.4l3.7-0.1l0.2,14.4L60.7,1412z M578.4,1406.5l-3.7-0.1l0.4-14.4l3.7,0.1L578.4,1406.5z M60.2,1383.2
			l-0.2-14.4l3.7-0.1l0.2,14.4L60.2,1383.2z M579.2,1377.7l-3.7-0.1l0.4-14.4l3.7,0.1L579.2,1377.7z M59.7,1354.4l-0.2-14.4l3.7-0.1
			l0.2,14.4L59.7,1354.4z M580,1348.8l-3.7-0.1l0.4-14.4l3.7,0.1L580,1348.8z M59.3,1325.6l-0.2-14.4l3.7-0.1l0.2,14.4L59.3,1325.6z
			 M580.8,1320l-3.7-0.1l0.4-14.4l3.7,0.1L580.8,1320z M58.8,1296.8l-0.2-14.4l3.7-0.1l0.2,14.4L58.8,1296.8z M581.5,1291.2
			l-3.7-0.1l0.4-14.4l3.7,0.1L581.5,1291.2z M58.3,1268l-0.2-14.4l3.7-0.1L62,1268L58.3,1268z M582.3,1262.4l-3.7-0.1l0.4-14.4
			l3.7,0.1L582.3,1262.4z M57.8,1239.3l-0.2-14.4l3.7-0.1l0.2,14.4L57.8,1239.3z M583,1233.6l-3.7-0.1l0.4-14.4l3.7,0.1L583,1233.6z
			 M57.4,1210.5l-0.2-14.4l3.7-0.1l0.2,14.4L57.4,1210.5z M583.8,1204.8l-3.7-0.1l0.4-14.4l3.7,0.1L583.8,1204.8z M56.9,1181.7
			l-0.2-14.4l3.7-0.1l0.2,14.4L56.9,1181.7z M584.5,1176l-3.7-0.1l0.4-14.4l3.7,0.1L584.5,1176z M56.4,1152.9l-0.2-14.4l3.7-0.1
			l0.2,14.4L56.4,1152.9z M585.2,1147.1l-3.7-0.1l0.4-14.4l3.7,0.1L585.2,1147.1z M56,1124.1l-0.2-14.4l3.7-0.1l0.2,14.4L56,1124.1z
			 M585.9,1118.3l-3.7-0.1l0.3-14.4l3.7,0.1L585.9,1118.3z M55.5,1095.3l-0.2-14.4l3.7-0.1l0.2,14.4L55.5,1095.3z M586.6,1089.5
			l-3.7-0.1l0.3-14.4l3.7,0.1L586.6,1089.5z M55,1066.5l-0.2-14.4l3.7-0.1l0.2,14.4L55,1066.5z M587.3,1060.7l-3.7-0.1l0.3-14.4
			l3.7,0.1L587.3,1060.7z M54.5,1037.7l-0.2-14.4l3.7-0.1l0.2,14.4L54.5,1037.7z M588,1031.9l-3.7-0.1l0.3-14.4l3.7,0.1L588,1031.9z
			 M58,1008.9h-3.7v-14.4H58V1008.9z M588.6,1003.1l-3.7-0.1l0.3-14.4l3.7,0.1L588.6,1003.1z M58,980.1h-3.7v-14.4H58V980.1z
			 M589.3,974.3l-3.7-0.1l0.3-14.4l3.7,0.1L589.3,974.3z M58,951.3h-3.7v-14.4H58V951.3z M589.9,945.5l-3.7-0.1l0.3-14.4l3.7,0.1
			L589.9,945.5z M58,922.5h-3.7v-14.4H58V922.5z M590.5,916.7l-3.7-0.1l0.3-14.4l3.7,0.1L590.5,916.7z M58,893.7h-3.7v-14.4H58
			V893.7z M591,887.9l-3.7-0.1l0.3-14.4l3.7,0.1L591,887.9z M58,864.9h-3.7v-14.4H58V864.9z M591.6,859l-3.7-0.1
			c0.1-4.8,0.2-9.6,0.3-14.4l3.7,0.1C591.7,849.4,591.6,854.2,591.6,859z M58,836.1h-3.7v-14.4H58V836.1z M592.1,830.2l-3.7-0.1
			l0.2-14.4l3.7,0.1L592.1,830.2z M58,807.3h-3.7v-14.4H58V807.3z M592.5,801.4l-3.7-0.1l0.2-14.4l3.7,0.1L592.5,801.4z M58,778.5
			h-3.7v-14.4H58V778.5z M592.9,772.6l-3.7-0.1c0.1-4.9,0.1-9.7,0.2-14.4l3.7,0C593.1,762.9,593,767.7,592.9,772.6z M58,749.7h-3.7
			v-14.4H58V749.7z M593.3,743.7l-3.7,0c0.1-4.9,0.1-9.7,0.2-14.4l3.7,0C593.4,734,593.4,738.8,593.3,743.7z M58,720.9h-3.7v-14.4
			H58V720.9z M593.6,714.9l-3.7,0c0-4.9,0.1-9.7,0.1-14.4l3.7,0C593.7,705.1,593.6,710,593.6,714.9z M58,692.1h-3.7v-10.4l0.1-4.1
			l3.7,0.1l-0.1,4V692.1z M593.8,686l-3.7,0c0-5,0-9.8,0-14.4l3.7,0C593.8,676.2,593.8,681,593.8,686z M58.3,663.3l-3.7-0.1
			c0.1-4.6,0.2-9.4,0.4-14.4l3.7,0.1C58.6,653.8,58.4,658.6,58.3,663.3z M590.1,657.2c0-5.1-0.1-9.9-0.1-14.4l3.7,0
			c0,4.5,0.1,9.3,0.1,14.4L590.1,657.2z M59.2,634.5l-3.7-0.1c0.2-4.7,0.3-9.5,0.5-14.4l3.7,0.1C59.5,625,59.3,629.8,59.2,634.5z
			 M589.7,628.4c-0.1-5.6-0.3-10.4-0.4-14.4l3.7-0.2c0.2,4,0.3,8.9,0.4,14.4L589.7,628.4z M60.3,605.7l-3.7-0.2
			c0.2-4.7,0.4-9.5,0.6-14.4l3.7,0.2C60.7,596.1,60.5,600.9,60.3,605.7z M588.4,599.8c-0.4-4.8-0.7-9.6-1.1-14.4l3.7-0.3
			c0.4,4.7,0.7,9.5,1.1,14.4L588.4,599.8z M61.6,576.9l-3.7-0.2c0.2-4.7,0.5-9.6,0.8-14.4l3.7,0.2C62.1,567.3,61.9,572.1,61.6,576.9
			z M586.2,571.1c-0.4-4.8-0.8-9.6-1.2-14.3l3.7-0.3c0.4,4.7,0.8,9.5,1.2,14.4L586.2,571.1z M63.2,548.1l-3.7-0.2
			c0.3-4.8,0.6-9.6,0.9-14.4l3.7,0.2C63.8,538.6,63.5,543.4,63.2,548.1z M583.8,542.4c-0.4-4.8-0.9-9.6-1.3-14.3l3.7-0.3
			c0.4,4.7,0.9,9.5,1.3,14.3L583.8,542.4z M65.1,519.4l-3.7-0.3c0.3-4.8,0.7-9.6,1-14.4l3.7,0.3C65.8,509.8,65.4,514.6,65.1,519.4z
			 M581.1,513.7c-0.5-4.8-1-9.6-1.4-14.3l3.7-0.4c0.5,4.7,1,9.5,1.4,14.3L581.1,513.7z M67.2,490.7l-3.7-0.3
			c0.4-4.8,0.8-9.6,1.2-14.4l3.7,0.3C68,481.1,67.6,485.9,67.2,490.7z M578.2,485.1c-0.5-4.8-1-9.6-1.6-14.3l3.7-0.4
			c0.5,4.7,1.1,9.5,1.6,14.3L578.2,485.1z M69.6,461.9l-3.7-0.3c0.4-4.8,0.9-9.6,1.3-14.4l3.7,0.4C70.5,452.4,70.1,457.1,69.6,461.9
			z M575,456.5c-0.6-4.8-1.1-9.6-1.7-14.3l3.7-0.5c0.6,4.7,1.2,9.4,1.7,14.3L575,456.5z M72.4,433.3l-3.7-0.4
			c0.5-4.8,1-9.6,1.5-14.3l3.7,0.4C73.4,423.7,72.9,428.5,72.4,433.3z M571.4,428c-0.6-4.9-1.3-9.6-1.9-14.3l3.7-0.5
			c0.6,4.7,1.3,9.4,1.9,14.3L571.4,428z M75.6,404.6l-3.7-0.4c0.6-4.8,1.2-9.6,1.8-14.3l3.7,0.5C76.7,395.1,76.1,399.8,75.6,404.6z
			 M567.6,399.5c-0.7-4.9-1.4-9.6-2.1-14.2l3.7-0.5c0.7,4.6,1.4,9.4,2.1,14.3L567.6,399.5z M79.2,376.1l-3.7-0.5
			c0.7-4.8,1.4-9.7,2.1-14.3l3.7,0.6C80.6,366.5,79.9,371.2,79.2,376.1z M563.3,371c-0.8-4.9-1.5-9.6-2.3-14.2l3.7-0.6
			c0.8,4.6,1.5,9.3,2.3,14.2L563.3,371z M83.5,347.6l-3.7-0.6c0.8-4.9,1.6-9.7,2.4-14.2l3.6,0.7C85.1,338,84.3,342.8,83.5,347.6z
			 M558.6,342.6c-0.8-4.8-1.7-9.6-2.5-14.2l3.6-0.7c0.8,4.6,1.7,9.4,2.5,14.2L558.6,342.6z M88.6,319.3l-3.6-0.7c1-4.9,2-9.7,3-14.1
			l3.6,0.8C90.6,309.7,89.6,314.4,88.6,319.3z M553.4,314.4c-0.9-4.7-1.9-9.5-2.8-14.1l3.6-0.8c1,4.6,1.9,9.4,2.8,14.1L553.4,314.4z
			 M95,291.3l-3.6-0.9c0.7-2.6,1.4-5.2,2-7.7c0.2-0.6,0.8-2.7,2-6.3l3.5,1.2c-1.2,3.5-1.8,5.6-2,6.1C96.3,286.1,95.6,288.7,95,291.3
			z M547.5,286.2c-1.1-4.8-2.1-9.5-3.2-14l3.6-0.9c1.1,4.5,2.2,9.3,3.2,14.1L547.5,286.2z M103.8,264l-3.5-1.3
			c1.7-4.4,3.4-9,5.3-13.5l3.4,1.4C107.2,255.2,105.4,259.7,103.8,264z M540.9,258.3c-1.3-4.9-2.5-9.5-3.8-13.8l3.6-1
			c1.2,4.3,2.5,9,3.8,13.9L540.9,258.3z M114.6,237.4l-3.4-1.5c1.9-4.4,3.9-8.8,6-13.2l3.4,1.6C118.5,228.7,116.5,233.1,114.6,237.4
			z M532.9,230.8c-0.7-2-1.1-3.1-1.2-3.4l-0.2-0.5c-1.2-3.2-2.5-6.3-3.8-9.3l3.4-1.4c1.3,3,2.5,6.2,3.8,9.3l0.2,0.5
			c0,0,0.5,1.2,1.3,3.7L532.9,230.8z M126.8,211.5l-3.3-1.7c2.2-4.3,4.4-8.6,6.7-12.8l3.3,1.8C131.2,202.9,129,207.2,126.8,211.5z
			 M522,204.4c-2-4.4-4-8.7-6.1-13l3.3-1.6c2.1,4.3,4.2,8.7,6.2,13.1L522,204.4z M140.5,186.2l-3.2-1.9c2.4-4.2,5-8.4,7.5-12.4
			l3.1,2C145.4,178,142.9,182.1,140.5,186.2z M509.3,178.7c-2.3-4.2-4.6-8.4-7-12.5l3.2-1.9c2.4,4.1,4.8,8.4,7.1,12.6L509.3,178.7z
			 M155.7,162l-3.1-2.1c2.7-4,5.5-8,8.3-11.8l3,2.2C161.2,154,158.4,158,155.7,162z M494.8,153.9c-2.6-4.1-5.2-8.1-7.9-11.9l3-2.1
			c2.7,3.9,5.4,8,8,12.1L494.8,153.9z M172.7,138.9l-2.9-2.3c3.1-3.8,6.2-7.6,9.3-11.1l2.8,2.4C178.8,131.4,175.7,135.1,172.7,138.9
			z M478.5,130.4c-2.9-3.8-5.9-7.6-9-11.2l2.8-2.4c3,3.6,6.1,7.4,9.1,11.3L478.5,130.4z M191.6,117.4l-2.7-2.6
			c3.4-3.5,6.9-6.9,10.4-10.1l2.5,2.7C198.4,110.5,194.9,113.9,191.6,117.4z M460,108.6c-3.3-3.5-6.7-6.9-10.1-10.1l2.5-2.7
			c3.5,3.2,6.9,6.6,10.3,10.2L460,108.6z M212.5,98l-2.3-2.9c3.8-3.1,7.7-6.1,11.5-8.8l2.2,3C220.1,92,216.3,94.9,212.5,98z
			 M439.1,89.2c-5.1-4-8.8-6.4-10.6-7.6l-0.6-0.3l-0.4-0.2l1.9-3.2l0.3,0.2l0.7,0.3c1.9,1.1,5.8,3.7,11.1,7.9L439.1,89.2z
			 M235.8,81.5l-1.9-3.2c4.2-2.5,8.5-4.9,12.8-7l1.6,3.3C244.1,76.7,239.9,79,235.8,81.5z M414.9,74.6c-4.1-1.9-8.6-3.6-13.2-5.2
			l1.2-3.5c4.8,1.6,9.4,3.4,13.6,5.3L414.9,74.6z M261.3,68.9l-1.3-3.5c4.5-1.8,9.2-3.3,13.8-4.7l1,3.6
			C270.3,65.7,265.8,67.2,261.3,68.9z M388,65.4c-4.5-1.1-9.2-2.1-14-3l0.7-3.6c4.9,0.9,9.6,1.9,14.2,3L388,65.4z M288.7,61.1
			l-0.7-3.6c4.8-0.9,9.6-1.6,14.4-2l0.3,3.7C298,59.6,293.3,60.2,288.7,61.1z M359.9,60.4c-4.7-0.6-9.5-1-14.2-1.2l0.2-3.7
			c4.8,0.3,9.7,0.7,14.5,1.3L359.9,60.4z M327.7,58.9l-2.8-0.1c-2.8-0.1-5.4-0.2-8-0.2l0-3.7c2.7,0,5.3,0.1,8.1,0.2l2.6,0.1L330,55
			l1.3,0v3.7h-1.2L327.7,58.9z"/>
	</g>
</g>
</svg>
